<svg version="1.1" xmlns="http://www.w3.org/2000/svg" xmlns:xlink="http://www.w3.org/1999/xlink" width="63.02588" height="74.33788" viewBox="0,0,63.02588,74.33788"><g transform="translate(-208.48706,-142.83106)"><g data-paper-data="{&quot;isPaintingLayer&quot;:true}" fill="#000000" fill-rule="nonzero" stroke="none" stroke-width="1.5" stroke-linecap="butt" stroke-linejoin="miter" stroke-miterlimit="10" stroke-dasharray="" stroke-dashoffset="0" style="mix-blend-mode: normal"><g><path d="M262.61269,144.51858c0,0 1.52429,0.31807 4.2558,1.11029c2.49492,0.72361 4.44935,1.74403 4.44935,1.74403l0.1951,1.17035c0,0 -7.24963,-3.12997 -15.1158,-2.4706c-6.2896,0.52724 -9.96319,2.8124 -9.96319,2.8124l0.04575,-4.17683c0,0 3.12748,-1.70421 7.86366,-1.85557c4.90428,-0.15672 8.09084,0.59125 8.09084,0.59125z" data-paper-data="{&quot;index&quot;:null}"/><path d="M222.51456,148.61486c0,0 3.36963,-1.819 8.03244,-2.28178c5.16698,-0.51283 7.76823,-0.06628 7.76823,-0.06628l0.29508,4.13747c0,0 -3.83554,-0.68065 -8.01795,-0.52113c-5.59346,0.21333 -6.64488,1.43293 -10.89774,1.89119c-3.64408,0.39266 -6.73723,0.15884 -6.73723,0.15884l-0.02589,-1.23155c0,0 3.59517,0.07398 5.23371,-0.06836c1.35239,-0.11749 3.9757,-0.93808 3.9757,-0.93808z"/></g><g><path d="M261.448,158.09046c0,0 1.54961,0.15272 4.35035,0.64735c2.55815,0.4518 4.61076,1.25667 4.61076,1.25667l0.31952,1.14267c0,0 -7.54356,-2.33422 -15.2936,-0.83483c-6.19675,1.1989 -10.05855,5.13768 -10.05855,5.13768l0.05197,-5.43036c0,0 2.92662,-2.02987 7.61923,-2.68842c4.85917,-0.68191 8.10758,-0.28009 8.10758,-0.28009z" data-paper-data="{&quot;index&quot;:null}"/><path d="M221.6023,159.6794c0,0 3.58425,-1.3477 8.26687,-1.17709c5.18892,0.18904 7.70613,0.9825 7.70613,0.9825l0.18865,5.77581c0,0 -4.16317,-2.82832 -8.32885,-3.2346c-5.57109,-0.54335 -6.77746,0.52323 -11.05326,0.40345c-3.66374,-0.10263 -6.69705,-0.75167 -6.69705,-0.75167l0.14052,-1.22378c0,0 3.55231,0.5584 5.19507,0.63845c1.35588,0.06606 4.06592,-0.39306 4.06592,-0.39306z"/></g><g><path d="M222.07452,170.99606c0,0 3.58425,-1.3477 8.26687,-1.17709c5.18892,0.18904 7.92835,1.9825 7.92835,1.9825l-0.14468,5.6647c0,0 -4.05206,-3.71721 -8.21774,-4.12349c-5.57109,-0.54335 -6.77746,0.52323 -11.05326,0.40345c-3.66374,-0.10263 -6.69705,-0.75167 -6.69705,-0.75167l0.14052,-1.22378c0,0 3.55231,0.5584 5.19507,0.63845c1.35588,0.06606 4.06592,-0.39306 4.06592,-0.39306z"/><path d="M261.90932,170.66582c0,0 1.52257,0.04625 2.64607,0.081c1.73063,0.05353 6.58723,0.40383 6.58723,0.40383l-0.00069,2.00236c0,0 -3.78911,-0.81187 -8.10309,-1.00668c-3.37581,-0.15245 -7.07879,0.22791 -9.50074,0.64326c-4.12522,0.70745 -7.8969,4.70887 -7.8969,4.70887l-0.55531,-5.63927c0,0 1.03509,-1.11187 7.76362,-2.55252c8.61084,-0.96312 8.33048,0.57418 8.33048,0.57418z"/></g><g><path d="M220.98666,187.74904c0,0 3.13351,-2.20099 7.71007,-3.20647c5.07141,-1.11422 7.70705,-0.97527 7.70705,-0.97527l0.77744,4.07447c0,0 -3.88885,-0.22693 -8.02382,0.42114c-5.53002,0.8667 -6.43143,2.20101 -10.60139,3.15401c-3.57305,0.81659 -6.6723,0.94649 -6.6723,0.94649l-0.16989,-1.22005c0,0 3.5791,-0.34743 5.18972,-0.68062c1.32933,-0.27501 3.83854,-1.39708 3.83854,-1.39708z"/><path d="M262.08587,187.73854c0,0 2.5478,1.03144 3.88613,1.25864c1.62151,0.27526 5.21078,1.49423 5.21078,1.49423l-0.12607,1.22535c0,0 -3.10192,-1.01877 -6.70193,-1.7068c-4.20144,-0.80298 -5.15007,-2.10413 -10.70759,-2.77213c-4.15554,-0.49949 -8.03376,-0.13336 -8.03376,-0.13336l0.63094,-4.09971c0,0 2.62897,-0.23329 7.73705,0.69849c4.60966,0.84086 7.82001,2.92815 7.82001,2.92815z" data-paper-data="{&quot;index&quot;:null}"/></g><g><g><path d="M219.04142,197.90852c0,0 3.49233,-1.5706 8.1764,-1.69502c5.19054,-0.13789 7.77851,0.13937 7.77851,0.13937l-0.1525,4.20889c0,0 -0.04696,-0.0413 -7.83229,-0.87545c-7.23387,0.69209 -6.84882,1.58473 -11.08237,1.16435c-6.61893,-0.58746 -7.08212,-0.42578 -7.08212,-0.42578l-0.16599,-1.03197c0,0 1.04154,-0.2084 5.90228,-0.14196c3.98295,0.31418 4.0073,-0.29195 4.0073,-0.29195z"/></g><g data-paper-data="{&quot;index&quot;:null}"><path d="M259.87374,198.78671c0,0 0.07214,0.94108 4.41446,0.44913c5.31466,-0.28248 6.70199,-0.24103 6.70199,-0.24103l-0.3532,1.4979c0,0 0.99258,0.80209 -7.7437,0.40721c-3.21103,-0.04411 -1.32351,-0.72856 -4.77997,-0.70914c-1.58521,0.00891 0.04925,-0.13111 -0.35945,-0.28999c-0.37009,-0.14388 -2.83229,-0.30641 -3.22635,-0.32941c-0.51138,-0.02985 -1.41523,0.62888 -3.83141,0.31869c-8.47711,1.18228 -8.48881,2.0058 -8.48881,2.0058l0.19939,-5.01891c0,0 2.21013,-0.36831 7.8955,-0.46052c5.13061,-0.08323 9.02748,1.3368 9.02748,1.3368z"/></g></g><g><path d="M258.16825,210.35192c0,0 1.52429,0.31807 4.2558,1.11029c2.49492,0.72361 4.44935,1.74403 4.44935,1.74403l0.1951,1.17035c0,0 -7.24963,-4.01886 -15.1158,-3.35949c-6.2896,0.52724 -9.74097,4.47907 -9.74097,4.47907l-0.17647,-4.95461c0,0 0.39867,-1.74948 11.80883,-2.58829c2.34269,-0.17222 4.03456,0.10175 4.03456,0.10175z" data-paper-data="{&quot;index&quot;:null}"/><path d="M218.07012,213.78153c0,0 3.36963,-1.819 8.03244,-2.28178c5.16698,-0.51283 7.76823,-0.06628 7.76823,-0.06628l0.07286,5.02636c0,0 -3.05776,-2.12509 -7.24017,-1.96557c-5.59346,0.21333 -7.20044,1.98849 -11.4533,2.44675c-3.64408,0.39266 -6.73723,0.15884 -6.73723,0.15884l-0.02589,-1.23155c0,0 3.59517,0.07398 5.23371,-0.06836c1.35239,-0.11749 3.9757,-0.93808 3.9757,-0.93808z"/></g></g></g></svg>