<svg version="1.1" xmlns="http://www.w3.org/2000/svg" xmlns:xlink="http://www.w3.org/1999/xlink" width="70.69597" height="150.22765" viewBox="0,0,70.69597,150.22765"><g transform="translate(-204.65203,-104.88619)"><g data-paper-data="{&quot;isPaintingLayer&quot;:true}" fill-rule="nonzero" stroke-linejoin="miter" stroke-miterlimit="10" stroke-dasharray="" stroke-dashoffset="0" style="mix-blend-mode: normal"><path d="M241.90308,172.25369c21.31497,0.60332 24.8996,9.22893 28.38909,23.56295c0.86622,3.55824 0.80255,34.2116 0.60865,58.47382c-2.50086,0.00065 -5.00171,0.00314 -7.50256,0.00683l-0.13146,-50.05137c0,0 0.40271,-5.27497 -1.77524,-5.30648c-2.17795,-0.03152 -1.88457,5.25352 -1.88457,5.25352l0.11363,50.11057c-11.60935,0.02197 -23.21874,0.06328 -34.828,0.06031l0.03841,-49.67294c0,0 0.84796,-5.55568 -1.67781,-5.57758c-2.52578,-0.02191 -1.51884,5.54985 -1.51884,5.54985l-0.34741,49.69837c-2.73959,-0.00295 -5.47916,-0.00874 -8.21872,-0.01817c-0.20734,-24.02254 -0.27892,-54.4751 0.62963,-58.52671c3.338,-14.88544 8.53739,-24.11681 28.1052,-23.56295z" fill="#ffffff" stroke="#000000" stroke-width="1.5" stroke-linecap="round"/><path d="M214.03717,136.18463c2.17957,-3.22224 -0.24345,-14.38806 10.17219,-24.86872c6.54788,-6.58875 24.95256,-8.18005 34.36782,-0.82099c9.9786,7.79937 8.96046,20.01092 10.16336,24.12749c2.06991,7.08371 5.23296,13.42872 5.23296,13.42872c0,0 -2.57577,-0.57643 -3.56846,-1.383c-0.86872,-0.70584 -2.44344,-2.21204 -2.44344,-2.21204c0,0 2.02157,7.33238 1.29225,11.23635c-1.55248,8.31035 -5.89476,16.0248 -5.89476,16.0248c0,0 -0.12292,-1.0365 -0.21188,-1.46719c-0.07709,-0.37319 -0.29141,-0.96921 -0.29141,-0.96921c0,0 -1.13762,1.7679 -1.9312,2.64965c-0.79097,0.87885 -2.82248,2.6322 -2.82248,2.6322c0,0 0.89756,-2.18605 1.14132,-3.06969c0.22406,-0.81228 0.26717,-2.03611 0.26717,-2.03611c0,0 -1.41979,2.12497 -2.3555,3.03315c-1.0471,1.01631 -3.63062,2.7769 -3.63062,2.7769l0.82871,-3.1162c0,0 -1.79836,2.66675 -2.89148,4.03753c-1.06887,1.34037 -3.59616,4.09795 -3.59616,4.09795c0,0 -0.16844,-1.59629 -0.41092,-2.32258c-0.25136,-0.75289 -1.07152,-2.11784 -1.07152,-2.11784c0,0 -1.00597,1.94619 -1.75444,3.55028c-0.74846,1.6041 -2.55995,3.74423 -2.55995,3.74423c0,0 -0.85826,-1.91465 -1.21886,-3.00068c-0.39345,-1.18493 -1.05189,-3.83812 -1.05189,-3.83812c0,0 -0.87195,1.46634 -1.24431,2.49514c-0.36852,1.01824 -0.97843,3.64632 -0.97843,3.64632c0,0 -0.46223,-1.32342 -0.67278,-2.33595c-0.2245,-1.07958 -0.63507,-3.95325 -0.63507,-3.95325c0,0 -0.48596,1.46257 -0.64908,2.248c-0.17962,0.86491 -0.38399,2.72602 -0.38399,2.72602c0,0 -1.41079,-2.8077 -1.53929,-3.87774c-0.12851,-1.07031 0.03948,-2.66475 0.03948,-2.66475c0,0 -0.68593,0.32537 -0.82768,1.06322c-0.15865,0.82584 -0.32215,2.98966 -0.32215,2.98966c0,0 -1.19599,-1.71132 -1.64285,-2.6461c-0.50373,-1.05372 -1.22939,-3.36227 -1.22939,-3.36227c0,0 -0.48185,1.2565 -0.63017,1.82009c-0.12864,0.48881 -0.20916,1.36918 -0.20916,1.36918c0,0 -2.20519,-1.99461 -3.46732,-3.32147c-0.90775,-0.95431 -1.81186,-3.21684 -1.81186,-3.21684l-0.70425,3.6973c0,0 -2.99053,-3.57097 -4.56298,-8.02957c-1.17923,-3.34366 -1.59919,-7.28781 -1.59919,-7.28781c0,0 -3.52326,1.27793 -5.10406,1.50786c-1.64449,0.23919 -4.57935,-0.09937 -4.57935,-0.09937c0,0 2.76602,-1.54769 3.93266,-2.48101c1.18068,-0.94454 3.10981,-3.15298 3.10981,-3.15298c0,0 -2.51156,1.04651 -3.65608,1.27542c-1.20031,0.24006 -3.38641,0.13307 -3.38641,0.13307c0,0 3.13486,-2.44777 5.00732,-6.26994c1.12431,-2.29503 1.85909,-8.34321 1.85909,-8.34321l-4.52871,0.55308c0,0 2.89614,-1.9983 4.65533,-4.59906z" fill="#000000" stroke="#000000" stroke-width="1.5" stroke-linecap="round"/><path d="M222.56012,136.61037c0,0 6.30743,-0.81121 10.21049,-2.19009c3.41347,-1.20591 11.93652,-5.63405 11.93652,-5.63405c0,0 -0.98007,1.7953 -1.71034,2.7289c-0.84079,1.0749 -3.04969,2.65229 -3.04969,2.65229c0,0 5.74244,-0.67329 11.09944,-2.87926c4.49218,-1.84984 8.71333,-4.64841 9.05006,-4.14941c1.11572,1.65338 1.84807,11.91055 -0.06182,23.76049c-0.35415,2.19734 -1.20132,3.65376 -1.64849,5.88032c-0.98665,4.91272 0.02217,10.24657 -2.41865,14.19831c-4.58097,7.41672 -10.48025,13.85766 -14.73048,13.87434c-4.82431,0.01893 -12.05372,-8.31503 -15.6403,-16.03253c-1.98055,-4.26167 -1.20371,-9.13196 -1.67403,-13.77267c-0.28919,-2.8535 -1.31113,-4.94721 -1.50142,-7.43223c-0.45803,-5.98172 0.13872,-11.00441 0.13872,-11.00441z" fill="#ffffff" stroke="#000000" stroke-width="1.5" stroke-linecap="round"/><path d="M222.31165,154.03561c0,0 -6.36211,-5.71813 -3.43172,-11.19825c1.68034,-3.14238 3.43173,11.19825 3.43173,11.19825z" fill="#ffffff" stroke="#000000" stroke-width="1.5" stroke-linecap="round"/><path d="M264.37601,142.95728c2.93039,5.48013 -3.43173,11.19823 -3.43173,11.19823c0,0 1.75139,-14.34062 3.43173,-11.19823z" data-paper-data="{&quot;index&quot;:null}" fill="#ffffff" stroke="#000000" stroke-width="1.5" stroke-linecap="round"/><path d="M222.6442,142.11488c0,0 1.5696,-0.54339 2.37423,-0.73366c0.65726,-0.15542 2.10153,-0.32472 2.10153,-0.32472c0,0 0.00962,-0.61963 0.70296,-0.89639c0.8635,-0.34468 3.52442,-1.42828 5.35584,-1.59139c1.86089,-0.16574 5.991,0.17517 5.991,0.17517l-0.31732,3.0781c0,0 -3.75967,-0.59426 -7.36509,-0.14822c-4.0017,0.49507 -9.23307,1.18554 -9.23307,1.18554z" fill="#000000" stroke="#000000" stroke-width="1.5" stroke-linecap="round"/><path d="M262.05777,140.12955c0,0 -6.19205,-1.19367 -10.19375,-1.23128c-4.0017,-0.03761 -7.45659,2.06956 -7.45659,2.06956l-0.13433,-3.39832c0,0 4.49608,-1.11858 6.72294,-1.04433c2.6091,-0.15712 3.80616,0.10306 4.66964,0.44773c0.69333,0.27676 0.337,0.94214 0.337,0.94214c0,0 2.31343,0.53526 2.97071,0.69067c0.80464,0.19027 2.69445,0.7794 2.69445,0.7794z" data-paper-data="{&quot;index&quot;:null}" fill="#000000" stroke="#000000" stroke-width="1.5" stroke-linecap="round"/><path d="M241.73451,169.91625c0,0 -4.28082,-3.74515 -3.13477,-5.87057c1.14605,-2.12541 4.68368,-2.19803 6.04154,0.057c1.35787,2.25503 -2.90678,5.81356 -2.90678,5.81356z" fill="#ffffff" stroke="#000000" stroke-width="1.5" stroke-linecap="round"/><path d="M226.18271,169.85926c0,0 4.38493,0.69491 8.66393,1.65032c2.91717,0.65134 5.78513,1.63728 7.18089,1.76942c0.74418,0.07045 3.16047,-0.45823 5.75255,-0.82627c3.48535,-0.49489 7.24248,-0.8836 7.24248,-0.8836c0,0 -5.88755,8.96305 -14.07795,8.89133c-7.44912,-0.06523 -14.7619,-10.60121 -14.7619,-10.60121z" fill="#ffffff" stroke="#000000" stroke-width="1.5" stroke-linecap="round"/><path d="M226.52468,169.46028c0,0 4.04162,-2.00136 6.8395,-2.22284c1.68406,-0.13331 6.4659,0.89011 8.49127,1.049c1.69736,0.13316 4.68838,-0.7999 6.32762,-0.36505c4.45367,1.18141 6.9984,3.69265 6.9984,3.69265c0,0 -3.65263,0.0483 -7.06653,0.62472c-2.29888,0.38816 -4.59671,0.97686 -6.42574,0.86601c-1.88486,-0.11424 -4.1452,-1.37606 -6.75962,-2.03917c-4.0997,-1.03983 -8.40489,-1.60532 -8.40489,-1.60532z" fill="#ffffff" stroke="#000000" stroke-width="1.5" stroke-linecap="round"/><path d="M244.24232,148.02987l-1.53889,23.99522l-1.65287,-0.28498l-1.88086,-23.59624" fill="#ffffff" stroke="#000000" stroke-width="1.5" stroke-linecap="round"/><path d="M239.34235,148.34086c0,4.00156 -3.30629,7.24546 -7.38479,7.24546c-4.07851,0 -7.3848,-3.24391 -7.3848,-7.24546c0,-4.00156 3.30629,-7.24545 7.3848,-7.24545c4.07851,0 7.38479,3.2439 7.38479,7.24545z" fill="#ffffff" stroke="#000000" stroke-width="1.5" stroke-linecap="butt"/><path d="M258.88377,148.20514c0,4.00156 -3.30629,7.24546 -7.38479,7.24546c-4.07851,0 -7.3848,-3.24391 -7.3848,-7.24546c0,-4.00156 3.30629,-7.24546 7.3848,-7.24546c4.07851,0 7.38479,3.24391 7.38479,7.24546z" fill="#ffffff" stroke="#000000" stroke-width="1.5" stroke-linecap="butt"/><path d="M235.74964,148.6328c0,1.72379 -1.42778,3.1212 -3.18905,3.1212c-1.76127,0 -3.18905,-1.3974 -3.18905,-3.12119c0,-1.72379 1.42779,-3.12119 3.18905,-3.12119c1.76127,0 3.18905,1.3974 3.18905,3.1212z" fill="#000000" stroke="#000000" stroke-width="1.5" stroke-linecap="butt"/><path d="M239.27277,148.38787h-14.55808c0,0 -0.95165,-6.89089 7.27904,-7.04423c7.79639,-0.14524 7.27904,7.04423 7.27904,7.04423z" fill="#ffffff" stroke="#000000" stroke-width="1.5" stroke-linecap="butt"/><path d="M253.93401,148.90424c0,1.72379 -1.42778,3.1212 -3.18904,3.1212c-1.76127,0 -3.18906,-1.39741 -3.18906,-3.1212c0,-1.72379 1.42779,-3.12119 3.18906,-3.12119c1.76127,0 3.18904,1.3974 3.18904,3.1212z" fill="#000000" stroke="#000000" stroke-width="1.5" stroke-linecap="butt"/><path d="M258.81417,148.25215h-14.55808c0,0 -0.95165,-6.8909 7.27904,-7.04424c7.79639,-0.14524 7.27904,7.04424 7.27904,7.04424z" fill="#ffffff" stroke="#000000" stroke-width="1.5" stroke-linecap="butt"/><path d="M241.03633,238.26686c0,-0.55228 0.44772,-1 1,-1c0.55228,0 1,0.44772 1,1c0,0.55228 -0.44772,1 -1,1c-0.55228,0 -1,-0.44772 -1,-1z" fill="#000000" stroke="none" stroke-width="0.5" stroke-linecap="butt"/></g></g></svg>