<svg version="1.1" xmlns="http://www.w3.org/2000/svg" xmlns:xlink="http://www.w3.org/1999/xlink" width="35.12501" height="35.12434" viewBox="0,0,35.12501,35.12434"><g transform="translate(-222.4375,-162.43783)"><g data-paper-data="{&quot;isPaintingLayer&quot;:true}" stroke-miterlimit="10" stroke-dasharray="" stroke-dashoffset="0" style="mix-blend-mode: normal"><path d="M257.56251,169.8317v20.49804c0,4.00745 -3.22497,7.23243 -7.23242,7.23243h-20.5c-3.66107,0 -6.66147,-2.69385 -7.1543,-6.21484c0.7952,3.03475 3.54108,5.26367 6.83204,5.26367h20.0332c3.9166,0 7.07032,-3.15372 7.07032,-7.07031v-20.03321c0,-3.2976 -2.23906,-6.0451 -5.28321,-6.83398c3.52994,0.48496 6.23438,3.49081 6.23438,7.15821z" fill-opacity="0.29839" fill="#000000" fill-rule="evenodd" stroke="none" stroke-width="4.54219" stroke-linecap="round" stroke-linejoin="round"/><path d="M229.50718,162.43783h20.03378c3.9166,0 7.06966,3.15307 7.06966,7.06966v20.03379c0,3.91659 -3.15307,7.06966 -7.06966,7.06966h-20.03378c-3.91659,0 -7.06967,-3.15307 -7.06967,-7.06966v-20.03379c0,-3.91659 3.15308,-7.06966 7.06967,-7.06966z" fill-opacity="0.35" fill="#4d4d4d" fill-rule="evenodd" stroke="none" stroke-width="4.43922" stroke-linecap="round" stroke-linejoin="round"/><g fill-rule="nonzero" stroke-linejoin="miter"><path d="M235.76194,186.03512l0.02036,-0.49509c0,0 0.89536,-0.76173 2.18176,-1.19349c1.28223,-0.43036 2.26761,-0.48054 2.26761,-0.48054l0.27056,1.32666c0,0 -1.01882,0.02183 -2.21685,0.37505c-0.92983,0.18984 -4.92505,2.13571 -4.92505,2.13571l-0.1009,-0.39733z" fill="#000000" stroke="none" stroke-width="1.5" stroke-linecap="butt"/><path d="M247.72587,181.5856c0,0 0.81742,-0.00736 1.24193,0.00815c0.44028,0.01609 1.35413,0.08672 1.35413,0.08672l0.12072,0.47993c0,0 -2.49212,-0.39934 -4.78705,0.34455c-1.83496,0.59481 -2.7307,1.46881 -2.7307,1.46881l-0.24167,-1.39529c0,0 1.38777,-0.8227 2.36503,-1.11813c0.97725,-0.29543 2.41049,-0.32558 2.41049,-0.32558z" data-paper-data="{&quot;index&quot;:null}" fill="#000000" stroke="none" stroke-width="1.5" stroke-linecap="butt"/><path d="M235.63397,189.13999c-0.34062,-1.45589 0.67955,-2.93941 2.27864,-3.31355c1.59909,-0.37413 3.17153,0.50281 3.51216,1.95871c0.34062,1.45589 -0.67955,2.93941 -2.27864,3.31355c-1.59909,0.37413 -3.17153,-0.50281 -3.51216,-1.95871z" fill="#ffffff" stroke="#000000" stroke-width="1.5" stroke-linecap="butt"/><path d="M236.93741,188.75657c-0.19624,-0.83873 0.32461,-1.67771 1.16333,-1.87394c0.83873,-0.19624 1.67771,0.32461 1.87394,1.16333c0.19624,0.83873 -0.3246,1.67771 -1.16333,1.87395c-0.83873,0.19624 -1.67771,-0.32461 -1.87394,-1.16334z" fill="#000000" stroke="none" stroke-width="1.5" stroke-linecap="butt"/><path d="M243.7048,187.25172c-0.34062,-1.45589 0.66611,-2.93627 2.2486,-3.30651c1.58249,-0.37025 3.14148,0.50985 3.48211,1.96574c0.34062,1.45589 -0.6661,2.93627 -2.24859,3.30651c-1.58249,0.37025 -3.14149,-0.50985 -3.48211,-1.96574z" fill="#ffffff" stroke="#000000" stroke-width="1.5" stroke-linecap="butt"/><path d="M245.01491,186.86673c-0.19624,-0.83873 0.32461,-1.67771 1.16333,-1.87394c0.83873,-0.19624 1.67771,0.32461 1.87395,1.16333c0.19624,0.83873 -0.32461,1.67771 -1.16334,1.87395c-0.83873,0.19624 -1.67771,-0.32461 -1.87394,-1.16334z" fill="#000000" stroke="none" stroke-width="1.5" stroke-linecap="butt"/><path d="M235.5403,189.04171c0,0 -0.70853,-2.75212 2.41956,-3.52015c2.72736,-0.66963 3.56014,2.12112 3.56014,2.12112z" fill="#ffffff" stroke="#000000" stroke-width="1" stroke-linecap="butt"/><path d="M243.48719,187.06209c0,0 -0.67986,-2.91523 2.62419,-3.57683c3.10376,-0.6215 3.68793,2.10002 3.68793,2.10002z" fill="#ffffff" stroke="#000000" stroke-width="1" stroke-linecap="butt"/><path d="M235.24183,192.08485c-0.04596,0.48078 -1.47604,-0.64531 -2.21001,-2.11054c-0.73397,-1.46524 -0.96515,-2.62729 -0.2512,-2.80281c0.67508,-0.16597 0.9616,0.94582 1.41855,2.01613c0.48961,1.14681 1.09754,2.32309 1.04265,2.89722z" data-paper-data="{&quot;index&quot;:null}" fill="#ffffff" stroke="#000000" stroke-width="1" stroke-linecap="butt"/><path d="M235.11859,191.02034c0,0 -1.17466,-0.41515 -1.77754,-1.99069c-0.33631,-0.87888 0.55763,-0.85317 0.55763,-0.85317" fill="none" stroke="#000000" stroke-width="0.5" stroke-linecap="round"/><path d="M253.3751,179.36023c0,0 1.76493,6.33587 -5.95551,10.24911c-2.04149,1.03477 -5.02219,2.00477 -7.18316,2.45305c-4.75902,0.98722 -8.03293,1.05399 -12.02805,-0.56426c-1.20926,-0.48982 -1.6865,-2.36945 -1.6865,-2.36945l8.05915,-10.62941z" fill="#005e19" stroke="none" stroke-width="1.5" stroke-linecap="butt"/><path d="M253.32025,179.294c0,0 0.79953,5.29663 -6.9209,9.20987c-0.69442,0.35199 -1.40671,0.66608 -2.12942,0.94498c-6.081,2.34671 -12.89933,2.20165 -16.01379,1.16834c-0.28449,-0.09438 -1.39649,-0.30851 -1.73382,-1.26609c-0.31418,-0.89183 0.51377,-2.00319 0.51377,-2.00319l6.86578,-10.66647z" fill="#007a21" stroke="none" stroke-width="1.5" stroke-linecap="butt"/><path d="M253.52368,179.8247c0,0 -9.85647,5.67575 -21.61309,6.22389c-2.08575,0.09724 -2.81831,-1.64789 -2.81831,-1.64789c0,0 -1.09168,-7.22796 0.59329,-10.55917c1.2863,-2.54306 5.54552,-5.36058 8.53004,-5.9831c4.31253,-0.89953 9.88469,0.52462 11.98471,3.24099c1.8173,2.35066 3.32336,8.72528 3.32336,8.72528z" fill="#5c7a64" stroke="none" stroke-width="1.5" stroke-linecap="butt"/><path d="M249.1598,180.58192c0,0 -0.296,-1.94237 -0.52634,-2.92691c-0.19832,-0.8476 -0.77407,-2.63128 -0.77407,-2.63128c0,0 1.51948,-0.53982 2.293,-0.97525c0.85976,-0.48397 1.1526,-1.05884 1.1526,-1.05884c0,0 0.64348,1.17165 1.17577,2.71081c0.32565,0.94163 0.67918,2.67802 0.67918,2.67802c0,0 -0.27562,0.65706 -1.33669,1.24251c-1.05172,0.5803 -2.66345,0.96094 -2.66345,0.96094z" fill="#007a21" stroke="none" stroke-width="0" stroke-linecap="butt"/><path d="M240.72724,167.69603c0.06946,0.38963 -0.68632,0.84315 -1.68807,1.01296c-1.00176,0.1698 -1.87014,-0.00841 -1.9396,-0.39804c-0.06946,-0.38963 0.68632,-0.84315 1.68807,-1.01296c1.00176,-0.1698 1.87014,0.00841 1.9396,0.39804z" fill="#007a21" stroke="none" stroke-width="1.5" stroke-linecap="butt"/></g></g></g></svg>