<svg version="1.1" xmlns="http://www.w3.org/2000/svg" xmlns:xlink="http://www.w3.org/1999/xlink" width="165.88473" height="254.33155" viewBox="0,0,165.88473,254.33155"><g transform="translate(-129.35499,-52.28096)"><g data-paper-data="{&quot;isPaintingLayer&quot;:true}" fill-rule="nonzero" stroke-linejoin="miter" stroke-miterlimit="10" stroke-dasharray="" stroke-dashoffset="0" style="mix-blend-mode: normal"><path d="M189.77342,246.09336v-129.36975h105.21631v129.36975z" fill="#535353" stroke="#000000" stroke-width="0.5" stroke-linecap="butt"/><path d="M195.2837,306.61251v-253.22501h91.18203v253.22501z" fill-opacity="0.01" fill="#000000" stroke="none" stroke-width="0" stroke-linecap="butt"/><path d="M255.62757,200.33376c-0.57113,0 -1.03411,-0.46299 -1.03411,-1.03411c0,-0.57113 0.46299,-1.03413 1.03411,-1.03413c0.57113,0 1.03411,0.463 1.03411,1.03413c0,0.57113 -0.46299,1.03411 -1.03411,1.03411z" fill="#000000" stroke="none" stroke-width="1.5" stroke-linecap="butt"/><path d="M194.61227,183.40175c-0.05451,-8.15261 13.81165,-33.78347 45.82678,-33.94328c31.60235,-0.15775 39.85672,29.48704 39.84884,36.89673c-0.02957,17.85347 -5.16663,17.44099 -6.99418,16.29944c-2.90603,-1.81522 -3.00702,-13.05993 -3.00702,-13.05993c0,0 0.07549,-3.0993 -2.81625,-3.15415c-3.43441,-0.06514 -2.94538,3.11562 -2.94538,3.11562l0.20548,114.86995l-48.21366,0.07222l-0.30539,-115.23309c0,0 0.27949,-2.919 -2.8856,-2.93443c-3.11083,-0.01515 -8.10959,0.59291 -8.10959,0.59291c0,0 -10.46204,17.71332 -10.60403,-3.52199z" fill="#ffffff" stroke="#000000" stroke-width="2" stroke-linecap="butt"/><path d="M250.36769,204.56936c-4.4635,-0.31439 -6.55245,-1.79392 -6.16985,-2.58011c0.11788,-0.24224 2.84645,1.06355 6.97038,1.3048c6.40897,0.37493 8.51033,-0.63173 8.51033,-0.63173v1.34616c0,0 -2.4135,1.04672 -9.31086,0.56089z" fill="#000000" stroke="#000000" stroke-width="0" stroke-linecap="butt"/><path d="M222.55494,199.29965c0,-0.57113 0.46299,-1.03413 1.03411,-1.03413c0.57113,0 1.03413,0.463 1.03413,1.03413c0,0.57113 -0.463,1.03411 -1.03413,1.03411c-0.57113,0 -1.03411,-0.46299 -1.03411,-1.03411z" fill="#000000" stroke="none" stroke-width="1.5" stroke-linecap="butt"/><path d="M228.84893,204.56936c-6.89736,0.48585 -9.31086,-0.56089 -9.31086,-0.56089v-1.34616c0,0 2.10136,1.00666 8.51033,0.63173c4.12393,-0.24126 6.85251,-1.54704 6.97039,-1.3048c0.3826,0.78618 -1.70634,2.26571 -6.16985,2.58011z" fill="#000000" stroke="#000000" stroke-width="0" stroke-linecap="butt"/><path d="M240.12939,261.12113c-0.81895,0 -1.48284,-0.66389 -1.48284,-1.48284c0,-0.81895 0.66389,-1.48284 1.48284,-1.48284c0.81895,0 1.48284,0.66389 1.48284,1.48284c0,0.81895 -0.66389,1.48284 -1.48284,1.48284z" data-paper-data="{&quot;index&quot;:null}" fill="#000000" stroke="none" stroke-width="1.5" stroke-linecap="butt"/><path d="M216.06613,304.40602v-119.20147c0,0 0.75721,-9.73105 0.75721,-14.63937c0,-4.498 -0.75721,-13.6872 -0.75721,-13.6872c0,0 2.67319,-2.35297 4.6557,-3.74807c1.98251,-1.3951 5.17197,-2.80371 5.17197,-2.80371c0,0 -0.6016,40.10902 14.55952,40.03867c15.43477,-0.07162 13.83154,-40.03867 13.83154,-40.03867c0,0 3.91276,1.51959 6.16585,2.94655c2.25309,1.42695 4.75379,3.60523 4.75379,3.60523c0,0 -0.75721,9.42463 -0.75721,14.19201c0,4.84193 0.75721,14.63937 0.75721,14.63937v118.69667z" fill="#00adff" stroke="#000000" stroke-width="2" stroke-linecap="butt"/><path d="M195.92691,103.88008c0,0 6.16329,-5.92187 6.29161,-6.78761c0.33654,-2.27063 -0.16776,-40.17317 35.96775,-41.57382c44.63633,-0.91362 39.01489,35.34872 41.53088,42.1903c3.44981,9.38084 6.15664,17.40016 6.15664,17.40016c0,0 -2.76715,-2.05351 -4.0797,-3.13397c-1.2242,-1.00773 -3.80143,-3.14585 -3.80143,-3.14585c0,0 3.09111,10.3481 1.31092,20.69498c-1.5623,9.48098 -7.29782,17.22543 -7.29782,17.22543l-1.15522,-2.34735c0,0 -1.02266,2.19794 -2.16005,3.33274c-1.1374,1.13479 -3.43873,2.91273 -3.43873,2.91273l-0.09205,-3.70421c0,0 -7.0601,11.01795 -24.35066,10.87154c-16.30625,-0.25547 -26.07151,-10.6752 -26.07151,-10.6752l-0.1162,2.65484c0,0 -3.89477,-3.29276 -6.18145,-9.70754c-2.72545,-7.64567 -3.23946,-12.24324 -3.23946,-12.24324c0,0 -2.33908,1.89916 -5.71704,2.7744c-4.23278,1.09673 -6.94665,0.34526 -6.94665,0.34526c0,0 3.60795,-2.71717 5.58396,-4.76989c1.76007,-1.8284 2.64658,-3.37722 2.64658,-3.37722c0,0 -2.10758,1.0847 -4.23277,1.61795c-2.21739,0.5564 -4.03008,0.53093 -4.03008,0.53093c0,0 4.97492,-5.03728 7.03074,-10.87429c1.94102,-5.51108 2.09972,-10.95731 2.09972,-10.95731c0,0 -1.36165,0.66163 -3.33013,0.79513c-1.24776,0.08463 -2.37785,-0.0489 -2.37785,-0.0489z" fill="#000000" stroke="none" stroke-width="1.5" stroke-linecap="butt"/><path d="M212.7128,115.2017c-0.57709,-7.29323 0.335,-17.15448 0.335,-17.15448c0,0 3.41059,-0.04124 13.91429,-3.14424c8.0696,-2.38394 20.54731,-9.48722 20.54731,-9.48722c0,0 -2.16005,3.00503 -3.40781,4.46015c-1.32651,1.54696 -3.99292,4.56297 -3.99292,4.56297c0,0 7.838,-1.66761 14.67476,-4.72931c8.56837,-3.53575 10.59252,-6.05309 12.95042,-4.5927c2.7829,1.72362 1.03006,23.1827 0.71846,28.74062c-0.42163,5.66922 -2.53327,9.49969 -3.15031,12.52053c-0.61704,3.02084 -0.4096,6.13662 -2.20622,16.0397c-1.12121,6.18021 -4.16183,8.92466 -10.01942,14.66081c-5.85759,5.73616 -9.05378,9.25275 -13.01359,9.32173c-3.81077,0.06639 -8.93565,-5.1002 -13.93542,-10.38244c-5.32393,-5.62474 -8.87489,-8.47713 -9.71551,-15.13975c-0.75707,-6.00039 -0.77653,-9.90853 -1.12266,-15.24835c-0.25298,-3.90273 -2.26119,-6.44504 -2.57636,-10.42801z" fill="#ffffff" stroke="#000000" stroke-width="1.5" stroke-linecap="butt"/><path d="M260.7828,100.08134c0,0 1.52429,0.31807 4.2558,1.11029c2.49492,0.72361 4.44935,1.74403 4.44935,1.74403l0.1951,1.17035c0,0 -7.24963,-3.12997 -15.1158,-2.4706c-6.2896,0.52724 -9.96319,2.8124 -9.96319,2.8124l0.04575,-4.17683c0,0 3.12748,-1.70421 7.86366,-1.85557c4.90428,-0.15672 8.09084,0.59125 8.09084,0.59125z" data-paper-data="{&quot;index&quot;:null}" fill="#000000" stroke="none" stroke-width="1.5" stroke-linecap="butt"/><path d="M248.01867,143.06889c0.5704,0.21186 3.08357,1.39942 6.02385,2.59586c2.9637,1.20597 7.21362,2.29294 7.19412,2.4605c-0.02476,0.21265 -10.43477,0.22694 -13.67937,0.63224c-2.71902,0.33964 -6.68867,0.70564 -6.68867,0.70564c0,0 -7.10401,-1.16169 -13.27235,-2.44521c-4.94371,-1.02869 -10.39929,-1.66108 -10.40995,-1.75461c-0.01439,-0.12613 3.86835,-0.71071 6.82417,-1.39467c1.14585,-0.49661 5.43971,-1.48513 5.43971,-1.48513c0,0 4.95585,-0.27766 7.60826,0.579c2.84203,0.91791 2.83546,2.44556 3.0831,2.46906c0,0 1.18436,-1.74932 2.36886,-2.10461c1.18451,-0.35528 5.08219,-0.41633 5.50828,-0.25808z" fill="#ffffff" stroke="#000000" stroke-width="1.4" stroke-linecap="butt"/><path d="M229.37068,147.62248c5.09114,1.02674 11.91756,2.80736 11.91756,2.80736c0,0 5.78976,-1.55585 8.44678,-1.8344c2.05992,-0.21596 11.216,-0.70654 11.26026,-0.33377c0.04328,0.36447 -9.03119,12.90033 -21.14808,12.44714c-13.76954,-0.43578 -22.86459,-15.13559 -22.82675,-15.30472c0.03784,-0.16913 7.2591,1.19165 12.35024,2.2184z" fill="#ffffff" stroke="#000000" stroke-width="1.9" stroke-linecap="butt"/><path d="M240.34494,144.6288c-1.03376,0 -3.5381,-3.26042 -3.7867,-5.3637c-0.22243,-1.88186 1.31512,-3.82799 3.7867,-3.82799c2.47159,0 4.2021,0.49077 4.02999,4.18853c-0.14607,3.13818 -1.55841,5.00317 -4.02999,5.00317z" fill="#ffffff" stroke="#000000" stroke-width="1.15" stroke-linecap="butt"/><path d="M243.94705,114.53508c0,0 0.1026,3.96976 0.00576,7.12662c-0.19174,6.25113 -1.08147,27.7607 -1.08147,27.7607l-2.98167,0.00864c0,0 -0.80294,-4.17274 -1.12322,-9.49979c-0.43353,-7.21063 -0.4495,-16.29321 -0.76344,-19.63229c-0.29758,-3.16513 -0.89593,-5.71453 -0.89593,-5.71453" fill="#ffffff" stroke="#000000" stroke-width="1.3" stroke-linecap="round"/><path d="M214.41244,125.32492c0,0 -4.93211,-3.51705 -6.16417,-8.97502c-1.29636,-5.74284 -1.46118,-9.7328 0.48013,-9.99193c1.94131,-0.25915 2.70321,2.37692 3.73262,8.35569c1.0294,5.97877 1.95143,10.61127 1.95143,10.61127z" data-paper-data="{&quot;index&quot;:null}" fill="#ffffff" stroke="#000000" stroke-width="1" stroke-linecap="butt"/><path d="M214.20985,121.37736c0,0 -3.56385,-2.92338 -4.31816,-8.45061c-0.42079,-3.08327 2.15675,-2.28016 2.15675,-2.28016" fill="none" stroke="#000000" stroke-width="0.25" stroke-linecap="round"/><path d="M217.22325,114.72146c0.07093,-4.89188 4.83834,-8.93609 10.21137,-8.8582c5.37302,0.0779 9.02724,4.2484 8.95632,9.14029c-0.07093,4.89188 -4.12352,8.79439 -9.49655,8.7165c-5.37302,-0.0779 -9.74207,-4.1067 -9.67114,-8.99859z" fill="#ffffff" stroke="#000000" stroke-width="1.4" stroke-linecap="butt"/><path d="M221.66089,114.8394c0.03999,-2.75843 2.30855,-4.96213 5.06696,-4.92214c2.75843,0.03999 4.96213,2.30855 4.92214,5.06696c-0.03999,2.75843 -2.30854,4.96213 -5.06696,4.92214c-2.75843,-0.03999 -4.96213,-2.30855 -4.92214,-5.06696z" fill="#000000" stroke="none" stroke-width="1.5" stroke-linecap="butt"/><path d="M244.27953,114.72219c0.20353,-4.88817 4.45264,-8.85847 9.77048,-8.85847c5.31783,0 9.27453,3.96607 9.27453,8.85847c0,4.8924 -3.88585,9.07104 -9.69964,9.14188c-5.52997,0.06739 -9.55792,-4.03692 -9.34537,-9.14188z" fill="#ffffff" stroke="#000000" stroke-width="1.4" stroke-linecap="butt"/><path d="M248.88228,114.80774c0,-2.81845 2.2848,-5.10325 5.10325,-5.10325c2.81845,0 5.10325,2.2848 5.10325,5.10325c0,2.81845 -2.28479,5.10325 -5.10325,5.10325c-2.81845,0 -5.10325,-2.2848 -5.10325,-5.10325z" fill="#000000" stroke="none" stroke-width="1.5" stroke-linecap="butt"/><path d="M217.15482,114.18928c0,0 0.06357,-9.01512 10.60111,-8.8249c9.47101,0.16586 9.55554,9.40723 9.55554,9.40723z" fill="#ffffff" stroke="#000000" stroke-width="1.15" stroke-linecap="butt"/><path d="M243.90188,114.32018c0,0 -0.24686,-9.4582 11.19813,-9.1032c9.71427,0.33347 9.54677,9.65229 9.54677,9.65229z" fill="#ffffff" stroke="#000000" stroke-width="1.15" stroke-linecap="butt"/><path d="M220.68467,104.17762c0,0 3.36963,-1.819 8.03244,-2.28178c5.16698,-0.51283 7.76823,-0.06628 7.76823,-0.06628l0.29508,4.13747c0,0 -3.83554,-0.68065 -8.01795,-0.52113c-5.59346,0.21333 -6.64488,1.43293 -10.89774,1.89119c-3.64408,0.39266 -6.73723,0.15884 -6.73723,0.15884l-0.02589,-1.23155c0,0 3.59517,0.07398 5.23371,-0.06836c1.35239,-0.11749 3.9757,-0.93808 3.9757,-0.93808z" fill="#000000" stroke="none" stroke-width="1.5" stroke-linecap="butt"/><path d="M268.6456,114.71365c1.0294,-5.97877 1.7913,-8.61483 3.73262,-8.35569c1.94131,0.25914 1.77649,4.24909 0.48013,9.99193c-1.23206,5.45797 -6.16417,8.97502 -6.16417,8.97502c0,0 0.92203,-4.6325 1.95143,-10.61127z" data-paper-data="{&quot;index&quot;:null}" fill="#ffffff" stroke="#000000" stroke-width="1" stroke-linecap="butt"/><path d="M269.05818,110.64659c0,0 2.57754,-0.80312 2.15675,2.28016c-0.75431,5.52723 -4.31816,8.45061 -4.31816,8.45061" data-paper-data="{&quot;index&quot;:null}" fill="none" stroke="#000000" stroke-width="0.25" stroke-linecap="round"/><path d="M189.58936,54.18939l99.59154,-1.65434l2.31608,96.61372l-20.183,3.97043l-2.31608,-64.18857l-58.23293,1.32348l-1.32348,60.87988l-16.87431,-3.63956l2.64695,-66.50465z" fill="#9c9c9c" stroke="#000000" stroke-width="0.5" stroke-linecap="round"/><path d="M203.81415,186.96224c0,0 -35.12466,21.83776 -50.09028,31.14221c-1.46335,0.90979 -2.79492,1.84219 -3.99432,2.80813c-0.52768,-0.71433 -1.06653,-1.42169 -1.62459,-2.11727c-1.93109,-2.407 -3.8882,-4.80631 -5.82829,-7.22115c17.63215,-10.96228 55.1098,-34.26295 55.1098,-34.26295c0,0 9.40299,-6.88872 11.97259,-0.88421c2.10853,4.92711 -5.5449,10.53522 -5.5449,10.53522z" fill="#ffffff" stroke="#000000" stroke-width="2" stroke-linecap="butt"/><path d="M192.5005,166.83471c-0.15311,0.02552 -0.29829,0.03995 -0.43595,0.04456c-2.21204,4.9238 -3.87147,10.13753 -4.095,15.46966c-0.15308,3.65159 0.5265,4.93435 1.24969,8.20705c0.87941,3.97966 0.63482,8.27253 1.32929,12.26563c0.19447,1.11817 1.35403,2.15125 1.04042,3.24201c-1.04557,3.63651 -6.06326,7.11378 -8.65037,9.7032c-0.89633,0.89463 -1.76694,1.8168 -2.60275,2.76884c0.01716,0.13338 0.02629,0.27534 0.02629,0.42642c0,2.3942 -2.29287,2.49552 -2.48695,2.49981l-0.07771,0.09326c0,0 -1.60046,1.92055 -3.52101,0.32009c-1.71474,-1.42895 -0.62268,-3.11307 -0.36893,-3.45761c-1.82486,-3.28208 -2.56726,-6.57777 -4.04059,-10.24153c-3.90173,-14.28193 -2.11042,-31.88346 6.61206,-44.25302c1.88971,-2.67984 3.55886,-3.63779 5.76209,-6.13334c3.29199,-3.72877 6.25258,-6.45236 11.22728,-7.75767c0,0 2.42536,-0.60634 3.0317,1.81902c0.60634,2.42536 -1.81902,3.0317 -1.81902,3.0317c-0.40325,0.09401 -0.78757,0.20276 -1.15533,0.32535c0.03767,0.15588 0.05384,0.27297 0.0597,0.32328c0.40216,-0.01684 0.86071,0.08104 1.37254,0.36539c2.18539,1.21411 0.97129,3.3995 0.97129,3.3995c-0.55569,0.99523 -1.10743,2.00855 -1.6461,3.0382l0.27235,1.6232c0,0 0.411,2.46598 -2.05499,2.87698z" fill="#535353" stroke="none" stroke-width="0.5" stroke-linecap="butt"/><g stroke="#000000" stroke-width="0.5"><path d="M196.02251,201.83689l1.29411,-33.89049l6.41713,0.24504l-1.29411,33.89049z" fill="#646464" stroke-linecap="butt"/><path d="M193.43897,174.82731l0.62025,-16.24337l13.63641,0.52071l-0.62025,16.24337z" fill="#3c3c3c" stroke-linecap="butt"/><path d="M178.75983,223.17675l-33.91404,-0.2789l0.05281,-6.42159l33.91404,0.2789z" fill="#646464" stroke-linecap="butt"/><path d="M151.8397,226.56775l-16.25466,-0.13367l0.11222,-13.64589l16.25466,0.13367z" fill="#3c3c3c" stroke-linecap="butt"/><path d="M233.80727,234.83176c0,23.8029 -15.76837,43.09896 -35.21962,43.09896c-19.45126,0 -35.21962,-19.29606 -35.21962,-43.09896c0,-23.8029 15.76836,-43.09896 35.21962,-43.09896c19.45126,0 35.21962,19.29606 35.21962,43.09896z" fill="#646464" stroke-linecap="butt"/><path d="M233.18281,243.3383c0,18.64915 -15.76837,33.76727 -35.21962,33.76727c-19.45126,0 -35.21962,-15.11812 -35.21962,-33.76727c0,-18.64915 15.76836,-33.76727 35.21962,-33.76727c19.45126,0 35.21962,15.11812 35.21962,33.76727z" fill="#646464" stroke-linecap="butt"/><path d="M227.34062,243.66966c0,15.46126 -13.07291,27.99508 -29.19917,27.99508c-16.12626,0 -29.19917,-12.53382 -29.19917,-27.99508c0,-15.46126 13.07291,-27.99508 29.19917,-27.99508c16.12626,0 29.19917,12.53382 29.19917,27.99508z" fill="#000000" stroke-linecap="butt"/><path d="M181.52707,196.64595l10.0209,14.2897l-7.67516,2.03857l-7.43401,-12.39893z" fill="#000000" stroke-linecap="round"/><path d="M173.32155,204.29428l6.60932,9.67402l-7.47448,5.65084l-4.62447,-8.58598z" fill="#000000" stroke-linecap="round"/><path d="M167.57115,214.72902l5.18761,4.78301l-7.11358,9.12078l-2.32213,-2.95972z" fill="#000000" stroke-linecap="round"/><path d="M197.00662,191.19399l2.76492,18.2362l-7.79402,0.90941l-1.26501,-17.68384z" fill="#000000" stroke-linecap="round"/><path d="M222.39953,200.39704l-7.43401,12.39893l-7.67516,-2.03857l10.0209,-14.2897z" data-paper-data="{&quot;index&quot;:null}" fill="#000000" stroke-linecap="round"/><path d="M229.60165,212.05899l-4.62447,8.58598l-7.47448,-5.65084l6.60932,-9.67402z" data-paper-data="{&quot;index&quot;:null}" fill="#000000" stroke-linecap="round"/><path d="M234.11052,227.50165l-2.32213,2.95972l-7.11358,-9.12078l5.18761,-4.783z" data-paper-data="{&quot;index&quot;:null}" fill="#000000" stroke-linecap="round"/><path d="M208.12584,192.4775l-1.26501,17.68384l-7.79402,-0.90941l2.76492,-18.2362z" data-paper-data="{&quot;index&quot;:null}" fill="#000000" stroke-linecap="round"/></g><path d="M268.90269,204.60719c0,0 -31.06685,-11.88347 -44.30355,-16.94668c-3.79439,-1.45141 -7.32268,-2.01621 -10.80719,-1.5333c-5.21566,0.7228 -10.97702,-0.44994 -12.72839,-1.49517c-2.28378,-1.36299 -2.58157,-3.51511 -2.58157,-3.51511c0,0 -4.13608,-0.57629 -5.66862,-2.0023c-1.53254,-1.42601 -0.48554,-3.72409 -0.48554,-3.72409c0,0 -6.02448,-1.26624 -6.53784,-2.63009c-0.51336,-1.36384 2.2085,-3.3867 2.2085,-3.3867c0,0 -3.46947,-1.10683 -4.05306,-2.47606c-0.91075,-2.13684 5.58685,-4.649 11.52372,-3.92569c4.07648,0.49666 8.44,2.11838 8.44,2.11838l-3.9808,-6.17303c0,0 7.28932,2.67603 12.08778,6.43713c5.61101,4.39799 8.88597,8.97014 10.37871,9.54113c13.57164,5.19134 51.99831,19.89003 51.99831,19.89003c0,0 9.17054,2.597 5.21803,7.72601c-3.2433,4.2087 -10.70846,2.09554 -10.70846,2.09554z" fill="#ffffff" stroke="#000000" stroke-width="2" stroke-linecap="butt"/><path d="M132.50591,229.42572c-3.20278,-1.57675 -2.15257,-9.09408 -1.13989,-11.86498l0.47938,-0.74983c0.0082,-1.1834 0.06701,-2.32576 0.09913,-3.34348c0,0 0.10491,-3.11746 3.22236,-3.01254c0.9891,0.03329 1.65382,0.36984 2.10043,0.81386c0.77631,-0.9046 1.54731,-1.81589 2.55057,-2.4331c3.06776,-1.88732 7.82088,-1.33742 11.26707,-1.77262c1.35236,-0.17079 2.71408,-0.8346 4.05016,-0.56453c1.97394,0.39901 4.2031,0.95657 5.50214,2.49544c0.45697,0.54135 0.60138,1.22231 0.63794,1.95161c0.94935,4.18669 2.5862,10.11437 1.05909,14.11391c-0.88614,2.32084 -4.57238,4.1968 -7.71011,4.78432c-0.49126,0.97424 -1.25056,1.86527 -2.44026,2.72306c-1.07572,0.7756 -3.12625,2.31961 -4.64801,1.84008c-0.88977,-0.28037 -1.58709,-0.94643 -2.16324,-1.78312c-2.42403,0.70324 -5.7619,1.43749 -6.9589,-1.41623c-0.14026,-0.33438 -0.22565,-0.68225 -0.27729,-1.03849c-1.8932,-0.03796 -4.38062,-0.12798 -5.63057,-0.74335z" fill="#ffffff" stroke="#000000" stroke-width="2" stroke-linecap="butt"/></g></g></svg>