<svg version="1.1" xmlns="http://www.w3.org/2000/svg" xmlns:xlink="http://www.w3.org/1999/xlink" width="87.3694" height="109.63403" viewBox="0,0,87.3694,109.63403"><g transform="translate(-196.31544,-125.18299)"><g data-paper-data="{&quot;isPaintingLayer&quot;:true}" fill-rule="nonzero" stroke-linecap="butt" stroke-linejoin="miter" stroke-miterlimit="10" stroke-dasharray="" stroke-dashoffset="0" style="mix-blend-mode: normal"><path d="M197.01544,134.7423c0.07093,-4.89188 4.83834,-8.93609 10.21137,-8.8582c5.37302,0.0779 9.02724,4.2484 8.95632,9.14029c-0.07093,4.89188 -4.12352,8.79439 -9.49655,8.7165c-5.37302,-0.0779 -9.74207,-4.1067 -9.67114,-8.99859z" fill="#ffffff" stroke="#000000" stroke-width="1.4"/><path d="M222.25307,134.46023c0.03999,-2.75843 2.30855,-4.96213 5.06696,-4.92214c2.75843,0.03999 4.96213,2.30855 4.92214,5.06696c-0.03999,2.75843 -2.30854,4.96213 -5.06696,4.92214c-2.75843,-0.03999 -4.96213,-2.30855 -4.92214,-5.06696z" fill="#000000" stroke="none" stroke-width="1.5"/><g><path d="M238.01544,135.7423c0.07093,-4.89188 4.83834,-8.93609 10.21137,-8.8582c5.37302,0.0779 9.02724,4.2484 8.95632,9.14029c-0.07093,4.89188 -4.12352,8.79439 -9.49655,8.7165c-5.37302,-0.0779 -9.74207,-4.1067 -9.67114,-8.99859z" fill="#000000" stroke="#000000" stroke-width="1.4"/><path d="M242.45308,135.86023c0.03999,-2.75843 2.30855,-4.96213 5.06696,-4.92214c2.75843,0.03999 4.96213,2.30855 4.92214,5.06696c-0.03999,2.75843 -2.30854,4.96213 -5.06696,4.92214c-2.75843,-0.03999 -4.96213,-2.30855 -4.92214,-5.06696z" fill="#000000" stroke="none" stroke-width="1.5"/><path d="M237.947,135.21012c0,0 0.06357,-9.01512 10.60111,-8.8249c9.47101,0.16586 9.55554,9.40723 9.55554,9.40723c0,0 -2.11763,6.92217 -10.5084,6.92835c-8.54416,0.00629 -9.64825,-7.51068 -9.64825,-7.51068z" fill="#ffffff" stroke="#000000" stroke-width="1.15"/></g><g><path d="M263.01544,135.9923c0.07093,-4.89188 4.83834,-8.93609 10.21137,-8.8582c5.37302,0.0779 9.02724,4.2484 8.95632,9.14029c-0.07093,4.89188 -4.12352,8.79439 -9.49655,8.7165c-5.37302,-0.0779 -9.74207,-4.1067 -9.67114,-8.99859z" fill="#ffffff" stroke="#000000" stroke-width="1.4"/><path d="M267.45308,136.11023c0.03999,-2.75843 2.30855,-4.96213 5.06696,-4.92214c2.75843,0.03999 4.96213,2.30855 4.92214,5.06696c-0.03999,2.75843 -2.30854,4.96213 -5.06696,4.92214c-2.75843,-0.03999 -4.96213,-2.30855 -4.92214,-5.06696z" fill="#000000" stroke="none" stroke-width="1.5"/><path d="M262.94701,134.71012c0,0 0.06357,-8.26512 10.60111,-8.0749c9.47101,0.16586 9.55554,8.65723 9.55554,8.65723c0,0 -6.66904,-0.47838 -10.01844,-0.57515c-3.36936,-0.09734 -10.13821,-0.00718 -10.13821,-0.00718z" fill="#ffffff" stroke="#000000" stroke-width="1.15"/><path d="M281.93699,139.51531c0,0 -2.7512,6.0247 -8.72221,5.5239c-7.37088,0.02356 -9.76778,-5.94157 -9.76778,-5.94157c0,0 5.90016,0.56185 8.92703,0.63022c3.13282,0.07076 9.56296,-0.21255 9.56296,-0.21255z" data-paper-data="{&quot;index&quot;:null}" fill="#ffffff" stroke="#000000" stroke-width="1.15"/></g><g><path d="M263.01544,157.9923c0.07093,-4.89188 4.83834,-8.93609 10.21137,-8.8582c5.37302,0.0779 9.02724,4.2484 8.95632,9.14029c-0.07093,4.89188 -4.12352,8.79439 -9.49655,8.7165c-5.37302,-0.0779 -9.74207,-4.1067 -9.67114,-8.99859z" fill="#ffffff" stroke="#000000" stroke-width="1.4"/><path d="M267.45306,158.11023c0.03999,-2.75843 2.30855,-4.96213 5.06696,-4.92214c2.75843,0.03999 4.96213,2.30855 4.92214,5.06696c-0.03999,2.75843 -2.30854,4.96213 -5.06696,4.92214c-2.75843,-0.03999 -4.96213,-2.30855 -4.92214,-5.06696z" fill="#000000" stroke="none" stroke-width="1.5"/><path d="M262.94701,158.21012c0,0 0.06357,-9.76512 10.60111,-9.5749c9.47101,0.16586 9.55554,10.15723 9.55554,10.15723z" fill="#ffffff" stroke="#000000" stroke-width="1.15"/><path d="M281.93699,159.84865c0,0 -1.08453,7.69137 -8.72221,7.19056c-9.03754,0.02356 -9.76778,-7.60823 -9.76778,-7.60823c0,0 4.31195,2.14126 9.2768,2.38375c5.19442,0.25371 9.21318,-1.96608 9.21318,-1.96608z" data-paper-data="{&quot;index&quot;:null}" fill="#ffffff" stroke="#000000" stroke-width="1.15"/></g><g><path d="M237.81543,157.5423c0.07093,-4.89188 4.83834,-8.93609 10.21137,-8.8582c5.37302,0.0779 9.02724,4.2484 8.95632,9.14029c-0.07093,4.89188 -4.12352,8.79439 -9.49655,8.7165c-5.37302,-0.0779 -9.74207,-4.1067 -9.67114,-8.99859z" fill="#ffffff" stroke="#000000" stroke-width="1.4"/><path d="M242.25307,157.66024c0.03999,-2.75843 2.30855,-4.96213 5.06696,-4.92214c2.75843,0.03999 4.96213,2.30855 4.92214,5.06696c-0.03999,2.75843 -2.30854,4.96213 -5.06696,4.92214c-2.75843,-0.03999 -4.96213,-2.30855 -4.92214,-5.06696z" fill="#000000" stroke="none" stroke-width="1.5"/><path d="M237.747,157.01012c0,0 0.06357,-9.01512 10.60111,-8.8249c9.47101,0.16586 9.55554,9.40723 9.55554,9.40723c0,0 -3.02511,3.54423 -10.54537,3.42729c-7.40949,-0.11522 -9.61128,-4.00962 -9.61128,-4.00962z" fill="#ffffff" stroke="#000000" stroke-width="1.15"/></g><g><path d="M237.51544,179.4923c0.07093,-4.89188 4.83834,-8.93609 10.21137,-8.8582c5.37302,0.0779 9.02724,4.2484 8.95632,9.14029c-0.07093,4.89188 -4.12352,8.79439 -9.49655,8.7165c-5.37302,-0.0779 -9.74207,-4.1067 -9.67114,-8.99859z" fill="#ffffff" stroke="#000000" stroke-width="1.4"/><path d="M241.95308,179.61024c0.03999,-2.75843 2.30855,-4.96213 5.06696,-4.92214c2.75843,0.03999 4.96213,2.30855 4.92214,5.06696c-0.03999,2.75843 -2.30854,4.96213 -5.06696,4.92214c-2.75843,-0.03999 -4.96213,-2.30855 -4.92214,-5.06696z" fill="#000000" stroke="none" stroke-width="1.5"/><path d="M237.44701,178.96012c0,0 0.06357,-9.01512 10.60111,-8.8249c9.47101,0.16586 9.55554,9.40723 9.55554,9.40723z" fill="#ffffff" stroke="#000000" stroke-width="1.15"/></g><g><path d="M263.01543,180.4923c0.07093,-4.89188 4.83834,-8.93609 10.21137,-8.8582c5.37302,0.0779 9.02724,4.2484 8.95632,9.14029c-0.07093,4.89188 -4.12352,8.79439 -9.49655,8.7165c-5.37302,-0.0779 -9.74207,-4.1067 -9.67114,-8.99859z" fill="#ffffff" stroke="#000000" stroke-width="1.4"/><path d="M267.45306,180.61024c0.03999,-2.75843 2.30855,-4.96213 5.06696,-4.92214c2.75843,0.03999 4.96213,2.30855 4.92214,5.06696c-0.03999,2.75843 -2.30854,4.96213 -5.06696,4.92214c-2.75843,-0.03999 -4.96213,-2.30855 -4.92214,-5.06696z" fill="#000000" stroke="none" stroke-width="1.5"/><path d="M281.93699,184.01532c0,0 -2.7512,6.0247 -8.72221,5.52389c-7.37088,0.02356 -9.76778,-5.94157 -9.76778,-5.94157c0,0 6.01389,0.56442 9.06498,0.63334c3.11108,0.07028 9.42501,-0.21567 9.42501,-0.21567z" data-paper-data="{&quot;index&quot;:null}" fill="#ffffff" stroke="#000000" stroke-width="1.15"/><path d="M263.64701,177.36879c0,0 2.3969,-5.96512 9.76778,-5.94156c5.97101,-0.5008 8.72221,6.1239 8.72221,6.1239c0,0 -5.88875,0.22764 -8.91314,0.19781c-3.13497,-0.03091 -9.57685,-0.38016 -9.57685,-0.38016z" data-paper-data="{&quot;index&quot;:null}" fill="#ffffff" stroke="#000000" stroke-width="1.15"/></g><g><path d="M237.26544,201.99229c0.07093,-4.89188 4.83834,-8.93609 10.21137,-8.8582c5.37302,0.0779 9.02724,4.2484 8.95632,9.14029c-0.07093,4.89188 -4.12352,8.79439 -9.49655,8.7165c-5.37302,-0.0779 -9.74207,-4.1067 -9.67114,-8.99859z" fill="#ffffff" stroke="#000000" stroke-width="1.4"/><path d="M241.70308,202.11024c0.03999,-2.75843 2.30855,-4.96213 5.06696,-4.92214c2.75843,0.03999 4.96213,2.30855 4.92214,5.06696c-0.03999,2.75843 -2.30854,4.96213 -5.06696,4.92214c-2.75843,-0.03999 -4.96213,-2.30855 -4.92214,-5.06696z" fill="#000000" stroke="none" stroke-width="1.5"/><path d="M237.19701,201.46012c0,0 0.06357,-9.01512 10.60111,-8.8249c9.47101,0.16586 9.55554,9.40723 9.55554,9.40723c0,0 -3.3055,-2.63425 -10.14815,-2.68624c-6.23679,-0.04739 -10.0085,2.10391 -10.0085,2.10391z" fill="#ffffff" stroke="#000000" stroke-width="1.15"/></g><g><path d="M262.6821,201.82563c0.07093,-4.89188 4.83834,-8.93609 10.21137,-8.8582c5.37302,0.0779 9.02724,4.2484 8.95632,9.14029c-0.07093,4.89188 -4.12352,8.79439 -9.49655,8.7165c-5.37302,-0.0779 -9.74207,-4.1067 -9.67114,-8.99859z" fill="#ffffff" stroke="#000000" stroke-width="1.4"/><path d="M267.11974,201.94357c0.03999,-2.75843 2.30855,-4.96213 5.06696,-4.92214c2.75843,0.03999 4.96213,2.30855 4.92214,5.06696c-0.03999,2.75843 -2.30854,4.96213 -5.06696,4.92214c-2.75843,-0.03999 -4.96213,-2.30855 -4.92214,-5.06696z" fill="#000000" stroke="none" stroke-width="1.5"/><path d="M262.19701,201.38512c0,0 0.06357,-9.01512 10.60111,-8.8249c9.47101,0.16586 9.55554,9.40723 9.55554,9.40723c0,0 -3.5555,-5.43425 -10.39814,-5.48624c-6.23678,-0.04739 -9.75851,4.90391 -9.75851,4.90391z" fill="#ffffff" stroke="#000000" stroke-width="1.15"/><path d="M271.95552,207.24349c6.84264,-0.05199 10.39814,-5.48624 10.39814,-5.48624c0,0 -0.08453,9.24137 -9.55554,9.40723c-10.53754,0.19022 -10.60111,-8.8249 -10.60111,-8.8249c0,0 3.52173,4.9513 9.75851,4.90391z" data-paper-data="{&quot;index&quot;:null}" fill="#ffffff" stroke="#000000" stroke-width="1.15"/></g><g><path d="M237.26544,225.11729c0.07093,-4.89188 4.83834,-8.93609 10.21137,-8.8582c5.37302,0.0779 9.02724,4.2484 8.95632,9.14029c-0.07093,4.89188 -4.12352,8.79439 -9.49655,8.7165c-5.37302,-0.0779 -9.74207,-4.1067 -9.67114,-8.99859z" fill="#ffffff" stroke="#000000" stroke-width="1.4"/><path d="M241.70308,225.23524c0.03999,-2.75843 2.30855,-4.96213 5.06696,-4.92214c2.75843,0.03999 4.96213,2.30855 4.92214,5.06696c-0.03999,2.75843 -2.30854,4.96213 -5.06696,4.92214c-2.75843,-0.03999 -4.96213,-2.30855 -4.92214,-5.06696z" fill="#000000" stroke="none" stroke-width="1.5"/><path d="M237.19701,224.58512c0,0 0.06357,-9.01512 10.60111,-8.8249c9.47101,0.16586 9.55554,9.40723 9.55554,9.40723c0,0 -3.5555,-4.63425 -10.39814,-4.68624c-6.23678,-0.04739 -9.75851,4.10391 -9.75851,4.10391z" fill="#ffffff" stroke="#000000" stroke-width="1.15"/></g></g></g></svg>