<svg version="1.1" xmlns="http://www.w3.org/2000/svg" xmlns:xlink="http://www.w3.org/1999/xlink" width="114.67446" height="224.73896" viewBox="0,0,114.67446,224.73896"><g transform="translate(-258.2972,-77.04933)"><g stroke-miterlimit="10"><path d="M327.28625,154.1342l34.0192,13.14378l10.82428,133.37075l-103.99052,0.38658l8.50479,-134.65936l31.31312,-11.98404z" fill="#c2b851" stroke="#121212" stroke-width="1.5" stroke-linecap="round"/><g fill="#000000" stroke="none" stroke-width="0" stroke-linecap="butt"><path d="M313.51752,174.39178l-5.49672,-8.48556l5.49672,-8.70885h10.0773l5.86317,8.70885l-5.86317,8.48556z"/><path d="M312.48688,218.15936l-4.46608,-8.37215l4.46608,-40.08482h12.05841l4.24278,39.57741l-4.24278,8.87954z"/></g><path d="M334.84048,157.1248l26.24771,10.14117c0,0 0.89558,11.03485 1.67926,20.69104c1.82883,22.53395 9.14502,112.67971 9.14502,112.67971l-103.99052,0.38657l8.50479,-134.65936l24.77674,-9.48246c0,0 2.00453,19.68355 6.02893,31.99557c4.02441,12.31202 11.72886,22.33147 11.72886,22.33147c0,0 8.56656,-13.27234 11.19328,-22.2188c2.62672,-8.94647 4.68593,-31.86491 4.68593,-31.86491z" fill="#333333" stroke="#121212" stroke-width="1.5" stroke-linecap="round"/><path d="M291.32437,301.03532l5.41216,-117.13431" fill="none" stroke="#121212" stroke-width="1.5" stroke-linecap="round"/><path d="M347.91119,300.60619l-5.41213,-117.13429" fill="none" stroke="#121212" stroke-width="1.5" stroke-linecap="round"/><path d="M318.9627,210.56702l1.33982,89.76819" fill="none" stroke="#121212" stroke-width="1.75" stroke-linecap="round"/><path d="M267.02833,301.78056l4.52873,-71.50334c0,0 7.97565,1.9667 11.44313,1.83562c3.51873,-0.133 10.63428,-2.85122 10.63428,-2.85122c0,0 21.28216,-0.71587 29.28699,-3.31961c8.94235,-2.90867 21.86671,-13.31915 21.86671,-13.31915c0,0 6.4602,1.44065 9.78421,1.34945c3.10225,-0.08512 11.10368,-1.8797 11.10368,-1.8797l7.2956,89.24133z" fill-opacity="0.50196" fill="#000000" stroke="none" stroke-width="1.5" stroke-linecap="butt"/><path d="" fill="#d8d8d8" stroke="#8d8d8d" stroke-width="1.5" stroke-linecap="butt"/><path d="M352.67364,132.31665c1.3628,25.93924 -17.83525,48.03383 -42.88005,49.34964c-25.04482,1.31581 -46.45238,-18.64543 -47.81518,-44.58468c-1.3628,-25.93924 17.83524,-48.03383 42.88005,-49.34964c25.04482,-1.31581 46.45238,18.64546 47.81518,44.5847z" fill="#000000" stroke="#fff477" stroke-width="1.5" stroke-linecap="butt"/><path d="M341.10192,161.80902c0,0 -5.7591,-8.85277 -13.7814,-17.6659c-4.90008,-5.38309 -12.35427,-10.57108 -14.86851,-14.24385c-4.57201,-6.67875 -7.30636,-20.61495 -7.30636,-20.61495c0,0 7.3322,11.3643 12.17756,18.44238c1.26683,1.85058 11.95439,8.53689 13.80629,11.20317c7.78625,11.21019 9.97241,22.87915 9.97241,22.87915z" fill="#ded468" stroke="#ded468" stroke-width="1.5" stroke-linecap="round"/><path d="M299.48742,82.20593c3.66303,-0.16526 7.6895,-0.06406 11.09425,-1.29912c0.65907,-0.73214 1.37087,-0.68601 2.11702,-1.20128c1.54583,-1.06749 5.8385,-4.39157 7.7055,-1.5059c2.01204,3.10985 -4.63293,3.35831 -6.13241,3.50431c0.03974,0.75647 1.51531,-0.18349 2.26966,-0.11439c0.62123,0.05692 2.58332,0.50427 3.05297,0.77429c3.27347,1.88217 8.23935,1.6788 11.13384,4.32461c2.97106,1.27152 7.53745,2.88313 9.47583,5.69464c0.0653,0.09473 0.48942,0.58331 0.92256,1.11989c-0.02968,-0.13199 -0.05717,-0.26588 -0.08252,-0.39901l-0.14926,0.04576l-0.32435,-1.058c-0.01889,-0.05714 -0.03056,-0.11769 -0.03387,-0.18069c-0.01997,-0.38025 0.27208,-0.70472 0.65235,-0.72469c0.14469,-0.0076 0.28128,0.02997 0.39612,0.10039l0.83576,0.49587l-0.02358,0.03979l0.13306,0.04073c1.18699,1.62748 3.14278,3.08172 4.69636,4.51125c0.50949,1.29724 1.08708,2.01019 1.37066,3.47681c0.24239,1.25351 -0.13811,2.64059 0.64544,3.77522c1.97801,2.86435 4.10314,5.68856 5.45231,9.12373c1.72401,4.38954 4.00347,6.1244 2.45655,11.22008l0.27176,0.09248l-0.43907,1.2902c-0.0839,0.26663 -0.32617,0.46608 -0.62171,0.48161c-0.30973,0.01627 -0.58244,-0.17447 -0.68374,-0.45127l-0.30878,-0.7862l0.03646,-0.01432l-0.06853,-0.09174c-0.03806,-0.72437 -0.61432,-1.44452 -1.11862,-2.03508c0.19676,1.12751 0.50909,2.24754 0.37515,3.43675c-0.33862,3.00654 -1.00861,5.99919 -1.50676,9.01486c-0.77551,0.83001 -2.53142,1.83071 -3.59315,0.53921c-0.66307,-0.80656 -0.03139,-1.40765 0.03809,-2.15139c0.16678,-1.78524 -0.44004,-3.64475 -0.28556,-5.43532c0.01176,-0.13647 0.48151,-1.86226 0.24303,-2.02212c-0.47606,-0.31906 -1.20184,0.6165 -1.68992,0.31617c-0.31906,-0.19633 -0.69932,-0.99724 -0.99192,-1.78835c-0.11017,0.85965 -0.53142,1.47876 -1.89717,1.20036c-1.4175,-0.28896 -3.59513,-2.99307 -5.18845,-2.68665c-0.55838,0.10739 -0.60078,1.00646 -1.06857,1.32971c-1.16761,0.80684 -2.487,2.05393 -3.75733,2.69412c-1.10964,0.55921 -2.42011,0.37839 -3.2188,1.26564c-0.95977,0.08786 -3.48952,0.72233 -4.17203,-0.38242c-0.34367,-0.55633 0.57015,-3.52022 0.80439,-4.0575c0.19437,-0.44577 1.07328,-1.57601 0.67902,-1.29133c-1.77849,1.28431 -4.94443,1.82909 -7.07791,1.06655c-0.3622,-0.12948 -0.79152,-0.21607 -1.15847,-0.33329c0.24662,0.85873 0.78202,1.47077 1.00966,2.55957c-1.7923,0.47235 -4.22388,0.848 -6.0896,0.59774c-0.99183,-0.13304 -1.34743,-0.38131 -2.02168,-1.13143c-0.10091,-0.11228 -0.10301,-0.54781 -0.17764,-0.41658c-0.64382,1.13204 -3.10465,5.07345 -5.05315,5.20402c-2.27216,0.15227 -0.98325,-2.27526 -0.96807,-3.76099c-0.37231,0.31056 -0.86005,0.64925 -1.1392,0.80793c-1.26122,0.71699 -2.42818,1.84266 -3.89378,2.17347c-3.52211,0.79501 -7.60779,1.85694 -11.3488,2.16187l0.02503,0.11317l-1.33373,0.29495c-0.04044,0.00968 -0.08235,0.01585 -0.12537,0.01812c-0.38026,0.01997 -0.70474,-0.27208 -0.72471,-0.65235c-0.00999,-0.19013 0.05804,-0.3663 0.17609,-0.49746l0.49032,-0.5447c0.87798,-1.31215 1.66274,-2.48231 2.35397,-3.75465c-0.44183,0.40563 -0.8507,0.75329 -1.04705,0.8972c-0.50384,0.36931 -1.40348,0.07015 -1.78757,0.56279c-0.41167,0.528 -0.6379,1.28818 -1.24068,1.57958c-1.38361,0.66891 -2.45718,0.62284 -3.29423,2.00503c-1.59812,0.53892 -1.59961,1.29149 -2.96825,2.11015c-3.05391,1.82673 -7.59988,2.28126 -10.99999,2.83415c-1.4271,0.23206 -3.1437,-0.16663 -4.53046,0.22291c-1.0946,0.30746 -1.61455,0.90911 -2.83205,0.98481c-1.38034,0.07252 -2.17186,0.40415 -2.90161,-1.15547c-0.56689,-1.2115 0.03383,-3.13982 -0.25379,-4.43639c-0.8155,-3.67617 -2.52958,-2.09534 -1.41277,-6.14231c-0.02548,-3.35848 3.09426,-7.17755 4.42597,-10.22923c1.16018,-2.65855 1.20408,-5.57323 1.97587,-8.47342c0.4535,-1.6032 1.62009,-2.4431 2.32018,-3.80927c2.18188,-4.25766 5.83016,-7.19814 9.19551,-10.79055c1.15517,-0.45369 1.35461,-1.45126 2.36798,-2.04552c2.0871,-1.22389 3.88967,-3.48524 5.98585,-4.93376c1.25956,-0.87038 2.5249,-0.87735 3.79109,-1.59468c0.45173,-0.25591 2.01626,-0.18492 1.16116,-0.31517c-1.01782,-0.63512 -4.07241,-4.89707 -0.48986,-4.06885c0.38404,0.08878 1.38588,1.3226 1.92513,1.50482c2.56048,0.86518 5.46562,0.67752 8.16468,1.15538z" fill="#8f8100" stroke="none" stroke-width="1.5" stroke-linecap="butt"/><path d="M304.95253,141.37319c0.19908,3.78926 -0.61345,7.34341 -2.15139,10.26818c-2.29987,4.37378 -19.01698,5.25775 -21.73879,1.88939c-2.35462,-2.91394 -3.59952,-6.31529 -3.82995,-10.7012c-0.09899,-1.88421 0.05214,-3.71029 0.41821,-5.42976c1.12665,-5.29189 17.17802,-6.85508 24.36142,-3.64174c2.19586,0.98228 2.90426,6.92546 2.94049,7.61514z" fill="#fff477" stroke="none" stroke-width="1.5" stroke-linecap="butt"/><path d="M315.15372,133.18421c6.80712,-3.94835 22.93394,-4.07576 24.60891,1.06894c0.54423,1.67163 0.88589,3.47183 0.98488,5.35605c0.23043,4.38591 -0.65122,7.89899 -2.68751,11.04362c-2.35387,3.63503 -19.07158,4.50767 -21.81709,0.39896c-1.83596,-2.74753 -3.01644,-6.19695 -3.21551,-9.98622c-0.03623,-0.6897 0.04551,-6.67438 2.12636,-7.88134z" fill="#fff477" stroke="none" stroke-width="1.5" stroke-linecap="butt"/><g fill-opacity="0.75686" fill="#ffffff" stroke="none" stroke-width="0" stroke-linecap="butt"><path d="M286.16387,143.75296c0.27711,5.2745 -0.79776,9.61861 -2.4008,9.70282c-1.60303,0.08422 -3.12719,-4.12333 -3.4043,-9.39783c-0.27711,-5.2745 0.79776,-9.61861 2.40079,-9.70282c1.60303,-0.08422 3.1272,4.12333 3.40431,9.39783z"/><path d="M290.60868,139.61388c0.15757,2.99921 -0.45364,5.46939 -1.36516,5.51728c-0.91153,0.04789 -1.77821,-2.34464 -1.93578,-5.34386c-0.15757,-2.99921 0.45364,-5.4694 1.36516,-5.51729c0.91153,-0.04789 1.77821,2.34464 1.93578,5.34387z"/></g><g fill-opacity="0.75686" fill="#ffffff" stroke="none" stroke-width="0" stroke-linecap="butt"><path d="M322.36462,142.26439c0.27711,5.2745 -0.79776,9.61861 -2.40079,9.70282c-1.60303,0.08422 -3.1272,-4.12333 -3.40431,-9.39783c-0.27711,-5.2745 0.79776,-9.61861 2.4008,-9.70282c1.60303,-0.08422 3.12719,4.12334 3.4043,9.39783z"/><path d="M326.80945,138.12532c0.15757,2.99921 -0.45364,5.46939 -1.36516,5.51728c-0.91153,0.04789 -1.77821,-2.34464 -1.93578,-5.34386c-0.15757,-2.99921 0.45364,-5.4694 1.36516,-5.51729c0.91153,-0.04789 1.77821,2.34464 1.93578,5.34387z"/></g><path d="M328.5858,167.04591c0.26239,3.30197 -8.05544,3.50151 -18.30726,3.85761c-10.25183,0.3561 -18.54817,0.82612 -18.81056,-2.47586c-0.26239,-3.30197 7.84297,-6.17523 18.09481,-6.53134c10.25183,-0.3561 18.76063,1.84761 19.02301,5.14957z" fill="#000000" stroke="#fff477" stroke-width="1.5" stroke-linecap="butt"/><path d="M321.50048,162.56772l-1.829,5.27933l-3.0254,-4.96402" fill="none" stroke="#fff477" stroke-width="1.5" stroke-linecap="round"/></g></g></svg>