<svg version="1.1" xmlns="http://www.w3.org/2000/svg" xmlns:xlink="http://www.w3.org/1999/xlink" width="34.17311" height="34.17311" viewBox="0,0,34.17311,34.17311"><g transform="translate(-222.91345,-162.91346)"><g data-paper-data="{&quot;isPaintingLayer&quot;:true}" stroke-miterlimit="10" stroke-dasharray="" stroke-dashoffset="0" style="mix-blend-mode: normal"><path d="M229.98312,162.91346h20.03379c3.9166,0 7.06966,3.15307 7.06966,7.06966v20.03379c0,3.91659 -3.15306,7.06966 -7.06966,7.06966h-20.03379c-3.91659,0 -7.06966,-3.15307 -7.06966,-7.06966v-20.03379c0,-3.91659 3.15307,-7.06966 7.06966,-7.06966z" fill-opacity="0.35" fill="#4d4d4d" fill-rule="evenodd" stroke="none" stroke-width="4.43922" stroke-linecap="round" stroke-linejoin="round"/><g fill-rule="nonzero" stroke-width="0.5" stroke-linejoin="miter"><path d="M252.47645,190.98708c-0.53273,0.23646 -1.89775,0.54288 -1.89775,0.54288l-1.74209,-6.40183l2.70259,0.16637c0,0 1.80009,2.92054 2.19997,3.78366c0.20602,0.44469 0.03231,1.03464 0.03231,1.03464c0,0 -0.7635,0.63835 -1.29503,0.87427z" fill="#6a0000" stroke="#6a0000" stroke-linecap="butt"/><path d="M228.48588,180.84559l1.00006,-3.65786l13.10437,3.58273l-1.00006,3.65786z" fill="#000000" stroke="none" stroke-linecap="butt"/><path d="M251.72388,185.45407c0,0 -4.82516,-0.41373 -7.11573,-0.75233c-1.96071,-0.28985 -5.79258,-1.15588 -5.79258,-1.15588c0,0 2.11599,-6.05622 -3.45349,-7.28504c-5.90489,-1.30281 -5.76682,5.37584 -5.76682,5.37584l-3.43518,-0.68129l2.25761,-8.57165c0,0 3.65859,-5.78064 12.6415,-3.29112c3.03791,0.84192 5.42998,1.44634 6.96282,2.61661c3.34605,2.55461 3.47436,5.78193 3.47436,5.78193l0.22751,7.96292z" fill="#a70000" stroke="none" stroke-linecap="butt"/><path d="M238.36327,182.35828l-7.94341,-1.76791" fill="none" stroke="#6a0000" stroke-linecap="round"/><path d="M238.46793,183.57642l0.12163,-2.8007l0.58866,-0.26845c0,0 0.29878,1.51587 0.23531,2.06688c-0.04785,0.41538 -0.5827,0.94881 -0.5827,0.94881z" fill="#000000" stroke="none" stroke-linecap="butt"/></g></g></g></svg>