<svg version="1.1" xmlns="http://www.w3.org/2000/svg" xmlns:xlink="http://www.w3.org/1999/xlink" width="259.26344" height="253.22501" viewBox="0,0,259.26344,253.22501"><g transform="translate(-118.85296,-53.3875)"><g data-paper-data="{&quot;isPaintingLayer&quot;:true}" fill-rule="nonzero" stroke-linejoin="miter" stroke-miterlimit="10" stroke-dasharray="" stroke-dashoffset="0" style="mix-blend-mode: normal"><path d="M255.62757,200.33376c-0.57113,0 -1.03411,-0.46299 -1.03411,-1.03411c0,-0.57113 0.46299,-1.03413 1.03411,-1.03413c0.57113,0 1.03411,0.463 1.03411,1.03413c0,0.57113 -0.46299,1.03411 -1.03411,1.03411z" fill="#000000" stroke="none" stroke-width="1.5" stroke-linecap="butt"/><path d="M250.36768,204.56936c-4.4635,-0.31439 -6.55245,-1.79392 -6.16985,-2.58011c0.11788,-0.24224 2.84645,1.06355 6.97038,1.3048c6.40897,0.37493 8.51033,-0.63173 8.51033,-0.63173v1.34616c0,0 -2.4135,1.04672 -9.31086,0.56089z" fill="#000000" stroke="#000000" stroke-width="0" stroke-linecap="butt"/><path d="M222.55493,199.29965c0,-0.57113 0.46299,-1.03413 1.03411,-1.03413c0.57113,0 1.03413,0.463 1.03413,1.03413c0,0.57113 -0.463,1.03411 -1.03413,1.03411c-0.57113,0 -1.03411,-0.46299 -1.03411,-1.03411z" fill="#000000" stroke="none" stroke-width="1.5" stroke-linecap="butt"/><path d="M228.84893,204.56936c-6.89736,0.48585 -9.31086,-0.56089 -9.31086,-0.56089v-1.34616c0,0 2.10136,1.00666 8.51033,0.63173c4.12393,-0.24126 6.85251,-1.54704 6.97039,-1.3048c0.3826,0.78618 -1.70634,2.26571 -6.16985,2.58011z" fill="#000000" stroke="#000000" stroke-width="0" stroke-linecap="butt"/><path d="M118.85297,306.61251v-253.22501h259.26344v253.22501z" fill-opacity="0.01" fill="#000000" stroke="none" stroke-width="0" stroke-linecap="butt"/><path d="M135.19291,304.39158c0,0 -1.80656,-94.38387 -2.25578,-118.01201c-0.15499,-8.15261 23.27826,-36.76129 114.30883,-36.9211c89.85689,-0.15775 113.32705,29.48704 113.30465,36.89673c-0.21778,46.24274 1.86038,117.98648 1.86038,117.98648l-29.84582,0.09614l-0.45158,-114.84311c0,0 0.21465,-3.0993 -8.00761,-3.15415c-9.76527,-0.06514 -8.37478,3.11562 -8.37478,3.11562l0.58426,114.86995l-137.08885,0.07222l-0.86833,-115.23309c0,0 0.79469,-2.919 -8.2048,-2.93443c-8.84521,-0.01515 -8.00602,2.90899 -8.00602,2.90899l1.00402,115.0668z" fill="#808080" stroke="#000000" stroke-width="2" stroke-linecap="butt"/><path d="M246.36546,261.12113c-2.32857,0 -4.21625,-0.66389 -4.21625,-1.48284c0,-0.81895 1.88768,-1.48284 4.21625,-1.48284c2.32857,0 4.21625,0.66389 4.21625,1.48284c0,0.81895 -1.88768,1.48284 -4.21625,1.48284z" data-paper-data="{&quot;index&quot;:null}" fill="#000000" stroke="none" stroke-width="1.5" stroke-linecap="butt"/><path d="M177.94492,304.40602v-119.20147c0,0 2.15302,-9.73105 2.15302,-14.63937c0,-4.498 -2.15302,-13.6872 -2.15302,-13.6872c0,0 7.60084,-2.35297 13.23783,-3.74807c5.63699,-1.3951 14.70578,-2.80371 14.70578,-2.80371c0,0 -1.71057,40.10902 41.39797,40.03867c43.88663,-0.07162 39.32807,-40.03867 39.32807,-40.03867c0,0 11.12539,1.51959 17.53174,2.94655c6.40635,1.42695 13.51674,3.60523 13.51674,3.60523c0,0 -2.15302,9.42463 -2.15302,14.19201c0,4.84193 2.15302,14.63937 2.15302,14.63937v118.69667z" fill="#808080" stroke="#000000" stroke-width="2" stroke-linecap="butt"/><path d="M142.55545,113.80614c0,0 13.13044,-5.92187 13.40381,-6.78761c0.71697,-2.27063 -0.35739,-40.17317 76.62665,-41.57382c95.09442,-0.91362 83.11835,35.34872 88.47848,42.1903c7.34956,9.38084 13.11626,17.40016 13.11626,17.40016c0,0 -5.89521,-2.05351 -8.6915,-3.13397c-2.60807,-1.00773 -8.09866,-3.14585 -8.09866,-3.14585c0,0 6.58538,10.3481 2.79282,20.69498c-3.32837,9.48098 -15.54747,17.22543 -15.54747,17.22543l-2.46111,-2.34735c0,0 -2.1787,2.19794 -4.60183,3.33274c-2.42314,1.13479 -7.32596,2.91273 -7.32596,2.91273l-0.19611,-3.70421c0,0 -15.04102,11.01795 -51.87729,10.87154c-34.73927,-0.25547 -55.54343,-10.6752 -55.54343,-10.6752l-0.24755,2.65484c0,0 -8.29752,-3.29276 -13.16913,-9.70754c-5.80637,-7.64567 -6.90143,-12.24324 -6.90143,-12.24324c0,0 -4.98324,1.89916 -12.17973,2.7744c-9.01763,1.09673 -14.79933,0.34526 -14.79933,0.34526c0,0 7.68647,-2.71717 11.89622,-4.76989c3.7497,-1.8284 5.63834,-3.37722 5.63834,-3.37722c0,0 -4.49005,1.0847 -9.01761,1.61795c-4.72398,0.5564 -8.58578,0.53093 -8.58578,0.53093c0,0 10.59869,-5.03728 14.97847,-10.87429c4.1352,-5.51108 4.4733,-10.95731 4.4733,-10.95731c0,0 -2.90089,0.66163 -7.09459,0.79513c-2.65826,0.08463 -5.06584,-0.0489 -5.06584,-0.0489z" fill="#000000" stroke="none" stroke-width="1.5" stroke-linecap="butt"/><path d="M212.71279,115.2017c-0.57709,-7.29323 0.335,-17.15448 0.335,-17.15448c0,0 3.41059,-0.04124 13.91429,-3.14424c8.0696,-2.38394 20.54731,-9.48722 20.54731,-9.48722c0,0 -2.16005,3.00503 -3.40781,4.46015c-1.32651,1.54696 -3.99292,4.56297 -3.99292,4.56297c0,0 7.838,-1.66761 14.67476,-4.72931c8.56837,-3.53575 10.59252,-6.05309 12.95042,-4.5927c2.7829,1.72362 1.03006,23.1827 0.71846,28.74062c-0.42163,5.66922 -2.53327,9.49969 -3.15031,12.52053c-0.61704,3.02084 -0.4096,6.13662 -2.20622,16.0397c-1.12121,6.18021 -4.16183,8.92466 -10.01942,14.66081c-5.85759,5.73616 -9.05378,9.25275 -13.01359,9.32173c-3.81077,0.06639 -8.93565,-5.1002 -13.93542,-10.38244c-5.32393,-5.62474 -8.87489,-8.47713 -9.71551,-15.13975c-0.75707,-6.00039 -0.77653,-9.90853 -1.12266,-15.24835c-0.25298,-3.90273 -2.26119,-6.44504 -2.57636,-10.42801z" fill="#808080" stroke="#000000" stroke-width="1.5" stroke-linecap="butt"/><path d="M260.78279,100.08134c0,0 1.52429,0.31807 4.2558,1.11029c2.49492,0.72361 4.44935,1.74403 4.44935,1.74403l0.1951,1.17035c0,0 -7.24963,-3.12997 -15.1158,-2.4706c-6.2896,0.52724 -9.96319,2.8124 -9.96319,2.8124l0.04575,-4.17683c0,0 3.12748,-1.70421 7.86366,-1.85557c4.90428,-0.15672 8.09084,0.59125 8.09084,0.59125z" data-paper-data="{&quot;index&quot;:null}" fill="#000000" stroke="none" stroke-width="1.5" stroke-linecap="butt"/><path d="M248.01866,143.06889c0.5704,0.21186 3.08357,1.39942 6.02385,2.59586c2.9637,1.20597 7.21362,2.29294 7.19412,2.4605c-0.02476,0.21265 -10.43477,0.22694 -13.67937,0.63224c-2.71902,0.33964 -6.68867,0.70564 -6.68867,0.70564c0,0 -7.10401,-1.16169 -13.27235,-2.44521c-4.94371,-1.02869 -10.39929,-1.66108 -10.40995,-1.75461c-0.01439,-0.12613 3.86835,-0.71071 6.82417,-1.39467c1.14585,-0.49661 5.43971,-1.48513 5.43971,-1.48513c0,0 4.95585,-0.27766 7.60826,0.579c2.84203,0.91791 2.83546,2.44556 3.0831,2.46906c0,0 1.18436,-1.74932 2.36886,-2.10461c1.18451,-0.35528 5.08219,-0.41633 5.50828,-0.25808z" fill="#808080" stroke="#000000" stroke-width="1.4" stroke-linecap="butt"/><path d="M230.36328,136.5564c5.09114,6.58857 11.91756,18.01477 11.91756,18.01477c0,0 5.78976,-9.98386 8.44678,-11.77131c2.05992,-1.38581 11.216,-4.53385 11.26026,-2.1418c0.04328,2.3388 -9.03119,82.78115 -21.14808,79.87304c-13.76954,-2.79639 -22.86459,-97.12477 -22.82675,-98.21007c0.03784,-1.08531 7.2591,7.64679 12.35024,14.23543z" fill="#808080" stroke="#000000" stroke-width="1.9" stroke-linecap="butt"/><path d="M240.34493,144.6288c-1.03376,0 -3.5381,-3.26042 -3.7867,-5.3637c-0.22243,-1.88186 1.31512,-3.82799 3.7867,-3.82799c2.47159,0 4.2021,0.49077 4.02999,4.18853c-0.14607,3.13818 -1.55841,5.00317 -4.02999,5.00317z" fill="#808080" stroke="#000000" stroke-width="1.15" stroke-linecap="butt"/><path d="M243.94704,114.53508c0,0 0.1026,3.96976 0.00576,7.12662c-0.19174,6.25113 -1.08147,27.7607 -1.08147,27.7607l-2.98167,0.00864c0,0 -0.80294,-4.17274 -1.12322,-9.49979c-0.43353,-7.21063 -0.4495,-16.29321 -0.76344,-19.63229c-0.29758,-3.16513 -0.89593,-5.71453 -0.89593,-5.71453" fill="#808080" stroke="#000000" stroke-width="1.3" stroke-linecap="round"/><path d="M214.41243,125.32492c0,0 -4.93211,-3.51705 -6.16417,-8.97502c-1.29636,-5.74284 -1.46118,-9.7328 0.48013,-9.99193c1.94131,-0.25915 2.70321,2.37692 3.73262,8.35569c1.0294,5.97877 1.95143,10.61127 1.95143,10.61127z" data-paper-data="{&quot;index&quot;:null}" fill="#808080" stroke="#000000" stroke-width="1" stroke-linecap="butt"/><path d="M214.20984,121.37736c0,0 -3.56385,-2.92338 -4.31816,-8.45061c-0.42079,-3.08327 2.15675,-2.28016 2.15675,-2.28016" fill="none" stroke="#000000" stroke-width="0.25" stroke-linecap="round"/><path d="M217.22324,114.72146c0.07093,-4.89188 4.83834,-8.93609 10.21137,-8.8582c5.37302,0.0779 9.02724,4.2484 8.95632,9.14029c-0.07093,4.89188 -4.12352,8.79439 -9.49655,8.7165c-5.37302,-0.0779 -9.74207,-4.1067 -9.67114,-8.99859z" fill="#808080" stroke="#000000" stroke-width="1.4" stroke-linecap="butt"/><path d="M198.17164,187.62068c0.22277,-47.24961 12.85974,-84.99716 28.22542,-84.31217c15.36579,0.685 27.64146,39.54354 27.4187,86.79281c-0.22277,47.24961 -12.85969,84.99716 -28.22541,84.31217c-15.36579,-0.685 -27.64146,-39.54354 -27.4187,-86.79281z" fill="#000000" stroke="none" stroke-width="1.5" stroke-linecap="butt"/><path d="M244.27953,114.72219c0.20353,-4.88817 4.45264,-8.85847 9.77048,-8.85847c5.31783,0 9.27453,3.96607 9.27453,8.85847c0,4.8924 -3.88585,9.07104 -9.69964,9.14188c-5.52997,0.06739 -9.55792,-4.03692 -9.34537,-9.14188z" fill="#808080" stroke="#000000" stroke-width="1.4" stroke-linecap="butt"/><path d="M212.15582,136.31422c0,-15.60984 30.80076,-28.26407 68.79552,-28.26407c37.99475,0 68.79552,12.65424 68.79552,28.26407c0,15.60984 -30.80063,28.26407 -68.79552,28.26407c-37.99475,0 -68.79552,-12.65424 -68.79552,-28.26407z" fill="#000000" stroke="none" stroke-width="1.5" stroke-linecap="butt"/><path d="M217.15481,114.18928c0,0 0.06357,-9.01512 10.60111,-8.8249c9.47101,0.16586 9.55554,9.40723 9.55554,9.40723z" fill="#808080" stroke="#000000" stroke-width="1.15" stroke-linecap="butt"/><path d="M243.90187,114.32018c0,0 -0.24686,-9.4582 11.19813,-9.1032c9.71427,0.33347 9.54677,9.65229 9.54677,9.65229z" fill="#808080" stroke="#000000" stroke-width="1.15" stroke-linecap="butt"/><path d="M220.68466,104.17762c0,0 3.36963,-1.819 8.03244,-2.28178c5.16698,-0.51283 7.76823,-0.06628 7.76823,-0.06628l0.29508,4.13747c0,0 -3.83554,-0.68065 -8.01795,-0.52113c-5.59346,0.21333 -6.64488,1.43293 -10.89774,1.89119c-3.64408,0.39266 -6.73723,0.15884 -6.73723,0.15884l-0.02589,-1.23155c0,0 3.59517,0.07398 5.23371,-0.06836c1.35239,-0.11749 3.9757,-0.93808 3.9757,-0.93808z" fill="#000000" stroke="none" stroke-width="1.5" stroke-linecap="butt"/><path d="M268.64559,114.71365c1.0294,-5.97877 1.7913,-8.61483 3.73262,-8.35569c1.94131,0.25914 1.77649,4.24909 0.48013,9.99193c-1.23206,5.45797 -6.16417,8.97502 -6.16417,8.97502c0,0 0.92203,-4.6325 1.95143,-10.61127z" data-paper-data="{&quot;index&quot;:null}" fill="#808080" stroke="#000000" stroke-width="1" stroke-linecap="butt"/><path d="M269.05818,110.64659c0,0 2.57754,-0.80312 2.15675,2.28016c-0.75431,5.52723 -4.31816,8.45061 -4.31816,8.45061" data-paper-data="{&quot;index&quot;:null}" fill="none" stroke="#000000" stroke-width="0.25" stroke-linecap="round"/></g></g></svg>