<svg version="1.1" xmlns="http://www.w3.org/2000/svg" xmlns:xlink="http://www.w3.org/1999/xlink" width="477.67762" height="412.79002" viewBox="0,0,477.67762,412.79002"><g transform="translate(-2.69611,54.28939)"><g data-paper-data="{&quot;isPaintingLayer&quot;:true}" stroke-linejoin="miter" stroke-miterlimit="10" stroke-dasharray="" stroke-dashoffset="0" style="mix-blend-mode: normal"><path d="" fill="#3d3952" fill-rule="nonzero" stroke="#000000" stroke-width="0" stroke-linecap="butt"/><g fill-rule="nonzero" stroke="#000000" stroke-width="0" stroke-linecap="butt"><g><path d="M14.20179,48.26247l2.63107,-12.45235l6.84879,1.44709l-2.63107,12.45235z" fill="#a0a0a0"/><path d="M15.31219,48.72418l2.72503,-12.89708l1.24524,0.26311l-2.72503,12.89708z" fill="#d4d4d4"/><path d="M8.35287,70.66737c1.114,-5.27238 4.03553,-19.0994 4.60437,-21.79161c0.18799,-0.88974 1.16888,-1.51843 1.86915,-1.37047c1.10884,0.23429 4.46549,0.94352 6.40407,1.35312c0.84688,0.17894 1.23386,1.19645 1.02846,2.16854c-0.58788,2.78234 -3.46334,16.39136 -4.56678,21.61372c-0.26864,1.27142 -1.17492,1.88882 -2.21115,1.66988c-1.93971,-0.40984 -4.90806,-1.03703 -5.95934,-1.25915c-0.73364,-0.15501 -1.43747,-1.1123 -1.16877,-2.38402z" fill="#adadad"/><path d="M15.30395,34.69085c0.87366,-4.13487 3.15111,-14.91361 4.09315,-19.37212c0.25915,-1.22653 1.62037,-1.72643 2.01974,-1.64399c0.03992,0.00824 0.56191,0.27861 0.81565,0.60492c1.26138,1.62225 4.32992,6.40978 5.15298,7.65068c0.37451,0.56463 0.67471,1.6403 0.50765,2.43097c-0.54045,2.55785 -1.78438,8.44516 -2.62727,12.43439c-0.26864,1.27142 -1.22443,1.87836 -2.32975,1.64482c-2.06902,-0.43716 -5.23526,-1.10616 -6.35662,-1.34309c-0.78255,-0.16535 -1.54421,-1.13485 -1.27551,-2.40658z" fill="#ffffff"/><path d="M17.49276,48.95782l2.63107,-12.45235l3.55781,0.75173l-2.63107,12.45235z" fill="#ffffff"/><path d="M19.85804,37.76341l4.36005,-20.63532c0,0 2.62052,3.83253 3.25043,4.96004c0.27377,0.49004 0.52774,1.78488 0.52774,1.78488l-2.69246,13.1827c0,0 -0.23482,0.64447 -0.724,1.05959c-0.37089,0.31474 -0.99346,0.43585 -1.16393,0.39983c-0.79062,-0.16705 -3.55781,-0.75173 -3.55781,-0.75173z" fill="#a7a7a7"/><path d="M21.23583,48.8328c0.16878,0.03566 0.52459,0.19602 0.73193,0.55043c0.27827,0.47566 0.39051,1.17338 0.39051,1.17338l-3.60832,17.07751l-4.15403,-4.96602l3.08211,-14.58704c0,0 2.7672,0.58468 3.55782,0.75173z" data-paper-data="{&quot;index&quot;:null}" fill="#cccccc"/><path d="M17.71773,37.33917l4.7923,-22.68106l0.98213,1.50834l-4.52919,21.43583z" fill="#bdbdbd"/><path d="M16.78295,47.91995l-2.96935,14.05337l-1.03851,-1.24151l2.76262,-13.07497z" data-paper-data="{&quot;index&quot;:null}" fill="#ffffff"/></g><g data-paper-data="{&quot;index&quot;:null}"><path d="M84.71317,63.16087l2.63107,-12.45235l6.84879,1.44709l-2.63107,12.45235z" fill="#c7c7c7"/><path d="M89.1145,64.31793l2.72503,-12.89708l1.24524,0.26311c0,0 -1.38092,6.53564 -1.88398,8.91655c-0.33612,1.5908 -0.84105,3.98052 -0.84105,3.98052z" fill="#ffffff"/><path d="M87.84769,87.46389c-0.2687,1.27172 -1.29962,1.86248 -2.03326,1.70746c-1.05128,-0.22213 -4.01962,-0.84931 -5.95934,-1.25915c-1.03623,-0.21895 -1.6153,-1.15019 -1.34666,-2.42161c1.10344,-5.22236 3.9789,-18.83138 4.56678,-21.61372c0.2054,-0.9721 0.9709,-1.7461 1.81778,-1.56716c1.93858,0.4096 5.29523,1.11883 6.40407,1.35312c0.70027,0.14796 1.343,1.11971 1.155,2.00945c-0.56884,2.69221 -3.49036,16.51924 -4.60437,21.79161z" fill="#ffffff"/><path d="M96.04402,51.75048c-0.2687,1.27172 -1.35745,1.85026 -2.14,1.68491c-1.12136,-0.23693 -4.2876,-0.90593 -6.35662,-1.34309c-1.10533,-0.23355 -1.7339,-1.17525 -1.46526,-2.44667c0.84289,-3.98924 2.08682,-9.87654 2.62727,-12.43439c0.16706,-0.79066 0.87674,-1.65296 1.44764,-2.01783c1.25469,-0.8019 5.99761,-3.93893 7.80742,-4.91227c0.36405,-0.19578 0.9508,-0.23188 0.99064,-0.22327c0.39858,0.08616 1.44123,1.09397 1.18207,2.3205c-0.94204,4.4585 -3.21949,15.23725 -4.09315,19.37212z" fill="#a2a2a2"/><path d="M84.71317,63.16087l2.63107,-12.45235l3.55782,0.75173l-2.63107,12.45235z" fill="#bdbdbd"/><path d="M90.63627,52.71818c0,0 -2.76719,-0.58468 -3.55781,-0.75173c-0.17048,-0.03602 -0.69084,-0.39863 -0.9027,-0.83649c-0.27945,-0.57752 -0.23351,-1.2619 -0.23351,-1.2619l2.87036,-13.14511c0,0 0.75605,-1.08144 1.20465,-1.41885c1.03217,-0.77633 4.97906,-3.22122 4.97906,-3.22122l-4.36005,20.63532z" fill="#ffffff"/><path d="M88.45624,63.03586l-3.08211,14.58704l-5.80785,2.86117l3.60832,-17.07751c0,0 0.38489,-0.59269 0.83179,-0.91513c0.33298,-0.24024 0.72325,-0.24296 0.89202,-0.2073c0.79062,0.16705 3.55782,0.75173 3.55782,0.75173z" data-paper-data="{&quot;index&quot;:null}" fill="#d2d2d2"/><path d="M91.52004,52.93292l4.52919,-21.43583l1.50834,-0.98213l-4.7923,22.68106z" fill="#c5c5c5"/><path d="M90.58523,63.51369l-2.76262,13.07497l-1.45196,0.71529l2.96935,-14.05337z" data-paper-data="{&quot;index&quot;:null}" fill="#afafaf"/></g><g><path d="M17.36519,64.07356c1.98474,-9.9309 8.49269,-10.32289 16.67294,-12.2626c8.12437,-1.92645 19.75043,0.83883 19.75043,0.83883c0,0 12.72513,2.22878 17.6956,6.75794c7.59481,6.92049 12.32661,7.77797 9.47545,21.39726c-0.93921,4.48636 -3.39973,9.85942 -8.191,11.34942c-5.00709,1.55711 -12.4296,-0.90032 -17.14571,-2.29799c-5.46486,-1.61959 -8.2675,-8.08979 -8.2675,-8.08979c0,0 -2.37584,3.67437 -8.46378,4.29517c-3.2745,0.33391 -7.93518,-1.4115 -13.17444,-2.39396c-8.8618,-1.66175 -9.87931,-11.95206 -8.35197,-19.59429z" fill="#363636"/><path d="M22.25697,55.72896c0,0 0.65095,-0.78263 1.84929,-1.22603c2.50528,-0.927 6.97986,-1.99197 9.93191,-2.69196c8.12437,-1.92645 19.75043,0.83883 19.75043,0.83883c0,0 12.72513,2.22878 17.6956,6.75794c7.59481,6.92049 12.32661,7.77797 9.47545,21.39726c-0.10272,0.49066 -0.36381,1.49758 -0.36381,1.49758z" fill="#525252"/><g><path d="M23.75147,83.12856l12.51772,-31.6714c0,0 1.95569,-0.2237 3.16109,-0.24134c1.66159,-0.02432 5.88674,0.10891 5.88674,0.10891l-13.6574,33.67917c0,0 -5.30386,-1.15501 -6.65209,-1.47473c-0.59158,-0.14029 -1.25606,-0.4006 -1.25606,-0.4006z" fill="#828282"/><path d="M32.72435,60.49458l3.54485,-9.03741c0,0 1.97637,-0.32154 3.18176,-0.33918c2.77918,0.0074 5.86606,0.20675 5.86606,0.20675l-5.11313,12.58994z" fill="#b0b0b0"/><path d="M37.18572,86.12029l15.31069,-33.76422l3.52224,0.74422l-14.53208,32.49783c0,0 -1.10545,0.25348 -1.73704,0.34409c-0.77813,0.11163 -2.56382,0.17809 -2.56382,0.17809z" fill="#828282"/><path d="M46.12541,66.54551l6.37096,-14.18946l3.52224,0.74422l-6.73202,14.93084z" fill="#b0b0b0"/></g></g><g data-paper-data="{&quot;index&quot;:null}"><path d="M81.55803,88.50365c-0.27498,1.30144 -1.85221,1.83089 -3.23642,1.53842c-0.8145,-0.1721 -1.62259,-0.34284 -2.13469,-0.45104c-1.00653,-0.21267 -2.43475,-1.37627 -2.15959,-2.67855c0.87743,-4.15272 2.78031,-13.15867 3.32642,-15.74333c0.41748,-1.97584 0.50439,-2.85901 3.11994,-2.30637c0.8326,0.17592 1.67931,0.37586 2.22364,0.46983c0.39578,0.06833 0.73193,0.15307 1.01522,0.25703c1.43799,0.5277 1.5142,1.55067 1.11553,3.4375c-0.55615,2.63218 -2.40748,11.39416 -3.27004,15.47649z" fill="#1f1f1f"/><path d="M75.35073,89.32469l4.35626,-20.61737l1.61057,0.23809l-4.41828,20.91089z" fill="#525252"/></g><g><path d="M13.36616,74.09533c0.86256,-4.08233 2.71388,-12.84431 3.27004,-15.47649c0.47721,-2.25855 1.07598,-3.10989 3.44315,-2.51682c0.53582,0.13425 1.39104,0.29391 2.22364,0.46983c2.61555,0.55264 2.33778,1.39548 1.9203,3.37132c-0.54611,2.58466 -2.44899,11.59061 -3.32642,15.74333c-0.27516,1.30228 -2.05201,1.78867 -3.05854,1.576c-0.5121,-0.1082 -1.32019,-0.27894 -2.13469,-0.45104c-1.38421,-0.29247 -2.61246,-1.41469 -2.33748,-2.71613z" fill="#1f1f1f"/><path d="M17.07944,77.21689l4.41828,-20.91089l1.56923,0.43377l-4.35626,20.61737z" fill="#525252"/></g></g><g fill-rule="nonzero" stroke="none" stroke-linecap="butt"><g><path d="M100.01799,64.01376l4.29443,-13.63602c0,0 8.56608,-3.84325 33.15217,2.14614c24.58609,5.9894 30.56458,11.65539 30.56458,11.65539l-1.51336,14.82554c0,0 -7.089,5.82637 -36.40281,-1.3536c-20.16632,-4.93943 -30.09502,-13.63745 -30.09502,-13.63745z" fill="#7a7a7a" stroke-width="0"/><path d="M111.52262,67.49718l4.14376,-18.38101c0,0 12.32366,0.8379 20.9481,3.00937c10.22697,2.57496 19.99623,6.22099 19.99623,6.22099l-4.14376,18.38101z" fill="#8a8a8a" stroke-width="NaN"/><path d="M102.55057,77.51379l-0.61661,-13.63492l4.76663,-9.61273c0,0 10.18065,-1.94538 26.93615,1.67545c19.72888,4.26337 29.93816,10.83204 29.93816,10.83204l0.6016,12.2267l-6.67674,10.74399c0,0 -3.66803,0.44932 -6.37622,0.50228c-3.42277,0.06693 -12.52328,-0.1327 -12.52328,-0.1327c0,0 -3.92077,-3.00491 -8.44076,-3.94556c-4.00402,-0.82824 -7.54672,0.65048 -7.54672,0.65048c0,0 -7.96864,-2.90209 -11.4198,-4.50277c-3.22024,-1.49357 -8.6424,-4.80226 -8.6424,-4.80226z" fill="#919191" stroke-width="0"/></g><path d="M102.07136,69.2604l-0.1328,-5.47377l13.66898,-10.10935l7.83441,0.61457z" fill="#d9d9d9" stroke-width="0"/><path d="M102.25045,74.15443l26.50116,-19.30016l15.2162,3.74774l-33.0925,23.78151l-8.18715,-4.7526z" fill="#d9d9d9" stroke-width="0"/><path d="M138.52456,90.18206l24.76733,-23.46779l0.93523,12.14541l-6.90846,11.31935c0,0 -4.92973,0.20525 -7.79733,0.20571c-3.32822,0.00054 -10.99677,-0.20269 -10.99677,-0.20269z" fill="#707070" stroke-width="0"/></g><g data-paper-data="{&quot;index&quot;:null}" fill-rule="nonzero"><path d="M85.51718,23.71935c-2.05497,10.40061 -15.03094,16.59731 -28.98263,13.84071c-13.9517,-2.7566 -23.5959,-13.42263 -21.54093,-23.82324c2.05497,-10.4006 10.91738,5.47548 24.86908,8.23208c13.9517,2.7566 27.70946,-8.65016 25.65449,1.75045z" fill="#322e2b" stroke="none" stroke-width="0" stroke-linecap="butt"/><path d="M33.37026,6.91385c0,0 1.59381,-1.46126 2.353,-2.48695c0.8134,-1.09892 2.14998,-0.67861 4.07499,2.22661c3.81056,5.75088 13.97598,14.99666 19.16228,16.1428c5.83076,1.28856 16.26227,-3.82081 23.23453,-7.16864c3.11611,-1.49625 4.85341,-0.92478 5.20065,0.31769c0.32872,1.17622 1.61057,2.6477 1.61057,2.6477c0,0 -9.93274,8.74514 -18.85749,16.5537c-6.72198,5.88129 -12.18794,11.56451 -16.23679,10.71457c-3.63865,-0.76383 -6.52029,-7.8233 -10.02331,-15.19546c-5.26756,-11.08567 -10.51842,-23.75203 -10.51842,-23.75203z" fill="#adadad" stroke="none" stroke-width="0" stroke-linecap="butt"/><path d="M39.01325,22.21784l5.98904,-10.25945c0,0 9.50457,8.7436 14.18514,9.6684c5.19552,1.02654 15.60469,-3.78247 15.60469,-3.78247l2.45988,12.61537c0,0 -16.93551,17.21251 -23.66821,15.76136c-5.90454,-1.27264 -14.57055,-24.00321 -14.57055,-24.00321z" fill="#c7c7c7" stroke="none" stroke-width="0" stroke-linecap="butt"/><path d="M44.53539,39.38675l9.8463,-23.51547l11.43929,2.26019l0.49733,26.30803c0,0 -9.35632,5.09135 -13.22024,4.19507c-3.31149,-0.76813 -8.56268,-9.24783 -8.56268,-9.24783z" fill="#e0e0e0" stroke="none" stroke-width="0" stroke-linecap="butt"/><path d="M54.9779,42.53633l3.43798,-17.4003" fill="none" stroke="#000000" stroke-width="8" stroke-linecap="round"/></g><g fill-rule="nonzero" stroke="none" stroke-width="0" stroke-linecap="butt"><path d="M107.13272,162.1079c0.72736,-3.80935 3.01795,-15.80562 3.01795,-15.80562l52.55141,10.03424c0,0 -2.05286,10.75124 -2.78872,14.60509c-0.48206,2.52465 -3.49247,5.82947 -7.08146,5.14419c-11.10972,-2.12131 -34.61212,-6.60889 -40.77601,-7.78583c-2.8976,-0.55327 -5.33503,-4.03516 -4.92318,-6.19207z" fill="#808080"/><path d="M107.15734,161.69236l2.18812,-11.45964l52.69738,10.06211l-2.18812,11.45964z" fill="#4d4d4d"/><path d="M101.69578,145.3893c2.81589,-14.74742 7.83749,-41.04661 9.27557,-48.57809c0.85743,-4.49052 5.06915,-7.37397 8.59393,-6.70095c7.79483,1.48835 38.56097,7.36288 54.01429,10.31356c5.42064,1.03502 7.91547,7.16574 7.14593,11.19595c-1.44854,7.5863 -6.35884,33.30256 -9.05603,47.42832c-1.0845,5.67977 -6.45052,8.59982 -10.76834,7.77537c-8.11805,-1.55007 -36.20784,-6.91357 -51.30001,-9.79529c-5.86825,-1.12049 -9.20197,-4.84816 -7.90534,-11.63888z" fill="#808080"/><path d="M107.5381,114.52766l2.74425,-14.37222l14.50085,-9.03362l16.49159,3.20445z" fill="#adadad"/><path d="M104.32701,131.97991l1.63611,-8.56864l47.2146,-27.09321l9.43218,2.0347z" fill="#adadad"/><path d="M107.94973,142.35038c2.38915,-12.51249 6.64974,-34.8261 7.86988,-41.21621c0.72749,-3.81 4.26192,-6.26391 7.21359,-5.70031c6.52744,1.24636 32.29123,6.16573 45.23196,8.63665c4.53928,0.86674 6.61697,6.0609 5.96406,9.48034c-1.22902,6.43663 -5.39517,28.25564 -7.68361,40.24068c-0.92015,4.81901 -5.42171,7.30633 -9.0375,6.61592c-6.79811,-1.29804 -30.3207,-5.78948 -42.959,-8.20265c-4.91412,-0.93831 -7.6995,-4.09282 -6.59937,-9.85442z" fill="#000000"/></g><g fill-rule="nonzero" stroke="none" stroke-width="0" stroke-linecap="butt"><path d="M285.87329,44.75676c0,0 2.19897,-29.52705 5.55201,-32.1213c7.85612,-6.07828 28.41968,-10.15018 34.51256,-9.09706c5.10192,0.88184 16.23327,4.20039 30.67988,15.48613c8.25041,6.44524 22.93732,20.38896 23.6857,22.62777c0.69695,2.08494 -6.59554,14.32246 -14.02679,13.86189c-4.38147,-0.27155 -23.48347,-4.84423 -40.88528,-7.23633c-20.57806,-2.82872 -39.51808,-3.52111 -39.51808,-3.52111z" fill="#8c8c8c"/><path d="M291.562,12.65909c7.85612,-6.07828 28.41968,-10.15018 34.51256,-9.09706c5.10192,0.88184 16.23327,4.20039 30.67988,15.48613c3.09428,2.41727 7.09392,5.88926 10.92406,9.40294c1.98847,1.82418 -14.07805,-9.1197 -26.36443,-10.45123c-12.28638,-1.33153 6.79509,8.94786 2.4905,7.8639c-8.05538,-2.02846 -18.97708,-6.22171 -27.02702,-8.18591c-13.2411,-3.23085 -26.40984,-4.09475 -25.21554,-5.01878z" fill="#ffffff"/><path d="M285.87329,44.75676c0,0 8.41653,-1.98475 29.42587,-0.32451c8.05796,0.63676 28.29259,4.59474 35.3638,5.29236c1.67497,0.16524 -10.55514,-4.53 -8.72276,-4.25299c14.1511,2.13933 31.55333,7.16954 29.91607,8.2622c-1.76128,1.17543 -3.66585,1.89898 -5.57963,1.78037c-4.38147,-0.27155 -23.48347,-4.84423 -40.88528,-7.23633c-20.57806,-2.82872 -39.51808,-3.52111 -39.51808,-3.52111z" fill="#3d3d3d"/></g><g fill-rule="nonzero" stroke="none" stroke-width="0" stroke-linecap="butt"><path d="M69.85315,105.79527c0,0 7.01041,-0.52728 12.2848,2.28321c5.46652,2.91287 12.22296,6.29338 9.13406,33.30062c-1.03733,9.06973 -27.98283,-7.71555 -35.40577,-8.90608c-9.7252,-1.55978 -32.22187,1.85172 -34.4359,-5.86552c-0.11482,-0.40026 -0.37694,-2.57702 -0.03415,-3.87463c0.43992,-1.66536 5.59668,-14.11382 10.81089,-19.04976c6.67469,-6.31847 14.0108,-5.09371 17.73759,-4.19244c2.3359,0.56491 4.44067,1.40434 6.15495,2.39064c3.15736,1.81656 13.75352,3.91396 13.75352,3.91396z" fill="#a6a6a6"/><path d="M91.95782,134.01325c-0.12297,2.25639 -0.33372,4.72699 -0.64346,7.43517c-1.03733,9.06973 -27.98283,-7.71555 -35.40577,-8.90608c-9.7252,-1.55978 -32.22187,1.85172 -34.4359,-5.86552c-0.11482,-0.40026 -0.37694,-2.57702 -0.03415,-3.87463c0.17077,-0.64647 1.05234,-2.91791 2.37215,-5.74403c1.00088,-2.14318 22.02282,0.98915 41.32915,6.26321c12.92296,3.53027 26.90502,9.09478 26.81797,10.69188z" fill="#7a7a7a"/><path d="M14.92596,135.28795c0,0 -0.98965,1.47402 -0.80799,-0.4255c0.38625,-4.03903 2.81596,-13.22032 8.45796,-13.1976c4.86877,0.01961 21.24748,1.70501 34.5108,4.69479c13.26332,2.98977 26.02468,6.69471 35.63739,13.30113c3.28005,2.25425 -0.45006,12.54614 -0.45006,12.54614c0,0 -42.99921,-13.1804 -54.36709,-15.06582c-9.3554,-1.55164 -22.981,-1.85317 -22.981,-1.85317z" fill="#ffffff"/><path d="M16.10495,138.79996c0,0 -10.68792,0.63981 -11.85521,-2.63778c-1.66187,-4.66631 15.5729,-8.46608 51.08898,0.74401c34.51101,8.76021 43.44853,15.41395 45.13558,20.25951c0.44348,1.27381 -0.21887,2.27639 -0.33122,3.33314c-0.42926,4.03777 -10.1892,-3.83951 -10.1892,-3.83951c0,0 -11.648,-8.38227 -37.06146,-13.43283c-25.89074,-6.60517 -36.78746,-4.42653 -36.78746,-4.42653z" fill="#4f4f4f"/></g><g fill-rule="nonzero"><path d="" fill="#fe084b" stroke="none" stroke-width="0" stroke-linecap="butt"/><path d="" fill="#8c1d3e" stroke="none" stroke-width="0" stroke-linecap="butt"/><path d="" fill="#8c1d3e" stroke="none" stroke-width="0" stroke-linecap="butt"/><path d="" fill="#8c1d3e" stroke="none" stroke-width="0" stroke-linecap="butt"/><path d="" fill="#8c1d3e" stroke="none" stroke-width="0" stroke-linecap="butt"/><path d="" fill="#8c1d3e" stroke="none" stroke-width="0" stroke-linecap="butt"/><path d="" fill="#8c1d3e" stroke="none" stroke-width="0" stroke-linecap="butt"/><path d="" fill="#8c1d3e" stroke="none" stroke-width="0" stroke-linecap="butt"/><path d="" fill="#8c1d3e" stroke="none" stroke-width="0" stroke-linecap="butt"/><path d="" fill="#8c1d3e" stroke="none" stroke-width="0" stroke-linecap="butt"/><path d="" fill="#3b277c" stroke="none" stroke-width="0" stroke-linecap="butt"/><path d="" fill="#3b277c" stroke="none" stroke-width="0" stroke-linecap="butt"/><path d="" fill="#3b277c" stroke="none" stroke-width="0" stroke-linecap="butt"/><path d="" fill="#3b277c" stroke="none" stroke-width="0" stroke-linecap="butt"/><path d="M155.92389,2.53375c12.94276,3.63302 21.65938,7.82605 27.87243,13.21122c1.22452,1.06136 3.71993,8.99808 5.09008,17.8452c0.4104,2.64997 0.574,13.11437 0.75543,13.78656c1.07027,3.96526 -3.83861,3.84469 -15.8569,3.10773c-16.54078,-1.0143 -38.81026,-1.72319 -53.73863,-6.15184c-3.41935,-1.01439 -10.18046,-3.52242 -10.18046,-3.52242c0,0 -1.39557,-1.62257 2.06323,-12.57955c3.4588,-10.957 7.58828,-17.56366 8.55246,-21.04944c1.18071,-4.26856 18.94723,-9.27761 35.44235,-4.64744z" fill="#ffffff" stroke="none" stroke-width="0" stroke-linecap="butt"/><path d="M158.79942,48.10436l29.19527,-5.88166c0,0 -2.50679,-0.41626 -2.28141,-0.26678c2.47153,1.63925 20.14163,12.72121 16.49589,14.34928c-12.27917,5.48347 -30.13215,0.36375 -38.60654,-4.06195c-5.31508,-2.77577 -4.80322,-4.13891 -4.80322,-4.13891z" fill="#8c8c8c" stroke="none" stroke-width="0" stroke-linecap="butt"/><path d="M159.08437,47.4911l29.03568,-4.88766" fill="none" stroke="#737373" stroke-width="4.5" stroke-linecap="round"/><path d="" fill="#180f4e" stroke="none" stroke-width="0" stroke-linecap="butt"/><path d="" fill="#180f4e" stroke="none" stroke-width="0" stroke-linecap="butt"/><path d="" fill="#180f4e" stroke="none" stroke-width="0" stroke-linecap="butt"/><g stroke="none" stroke-width="0" stroke-linecap="butt"><path d="" fill="#8c1d3e"/><path d="" fill="#8c1d3e"/><path d="" fill="#8c1d3e"/><path d="" fill="#8c1d3e"/><path d="" fill="#8c1d3e"/><path d="" fill="#8c1d3e"/><path d="" fill="#8c1d3e"/><path d="" fill="#8c1d3e"/><path d="" fill="#8c1d3e"/><path d="" fill="#8c1d3e"/><path d="" fill="#3b277c"/><path d="" fill="#3b277c"/><path d="" fill="#3b277c"/><path d="" fill="#3b277c"/><path d="" fill="#3b277c"/><path d="" fill="#3b277c"/><path d="" fill="#3b277c"/></g></g><path d="" fill="#0022ff" fill-rule="nonzero" stroke="#0022ff" stroke-width="2" stroke-linecap="butt"/><g fill-rule="nonzero" stroke-linecap="butt"><path d="M188.36617,137.03974l9.31053,-33.13179l66.43295,44.5479z" fill="#c2c2c2" stroke="#000000" stroke-width="0"/><path d="M188.50125,137.22277l77.00016,-22.92957l-0.84563,34.40763z" data-paper-data="{&quot;index&quot;:null}" fill="#949494" stroke="#000000" stroke-width="0"/><path d="M188.3021,136.9529l43.869,-34.87811l31.87448,46.29421z" fill="#707070" stroke="#000000" stroke-width="0"/><path d="M187.80015,139.78518l0.57824,-3.83652l76.86746,11.58551l-0.57824,3.83652z" fill="#ffffff" stroke="#000000" stroke-width="0"/><path d="M206.49107,140.36019l15.47391,-8.23756l8.53523,-12.52662l5.46923,14.47708l11.92191,12.38683z" fill="#ffffff" stroke="#000000" stroke-width="0"/><path d="M227.46443,139.73773c-2.95126,-0.44482 -4.99238,-3.13653 -4.55897,-6.01211c0.43341,-2.87559 3.17723,-4.84612 6.12848,-4.4013c2.95126,0.44482 4.99239,3.13654 4.55898,6.01212c-0.43341,2.87558 -3.17724,4.84611 -6.12849,4.40129z" fill="#ffffff" stroke="#c2c2c2" stroke-width="6"/><path d="M231.72331,105.70886c-2.02045,-0.30452 -3.40612,-2.2249 -3.09497,-4.28927c0.31114,-2.06437 2.20128,-3.49102 4.22173,-3.18649c2.02045,0.30452 3.40612,2.2249 3.09497,4.28927c-0.31114,2.06437 -2.20128,3.49102 -4.22173,3.18649z" fill="#c2c2c2" stroke="#001ac1" stroke-width="0"/><path d="M264.34857,118.59707c-1.97654,-0.2979 -3.33733,-2.1417 -3.03943,-4.11822c0.2979,-1.97653 2.1417,-3.33732 4.11823,-3.03942c1.97653,0.2979 3.33732,2.14169 3.03942,4.11822c-0.2979,1.97653 -2.14169,3.33732 -4.11822,3.03942z" fill="#c2c2c2" stroke="none" stroke-width="0"/><path d="M197.92634,107.60987c-2.1083,-0.31776 -3.55981,-2.28448 -3.24205,-4.39278c0.31776,-2.1083 2.28448,-3.55981 4.39278,-3.24205c2.1083,0.31776 3.55981,2.28448 3.24204,4.39278c-0.31776,2.1083 -2.28447,3.55982 -4.39277,3.24205z" fill="#ffffff" stroke="none" stroke-width="0"/></g><g fill-rule="nonzero"><path d="M410.44275,155.18611l0.75493,-1.4174c0,0 3.68507,-0.967 8.04868,-0.42098c4.34948,0.54425 7.29793,1.7819 7.29793,1.7819l-1.07342,4.25477c0,0 -3.00628,-1.36739 -7.00149,-2.01871c-2.98241,-0.75171 -17.38444,-0.68075 -17.38444,-0.68075l0.26348,-1.30221z" fill="#000000" stroke="none" stroke-width="1.5" stroke-linecap="butt"/><path d="M451.63554,158.99681c0,0 2.39773,1.12675 3.61577,1.76837c1.26328,0.66545 3.83312,2.15546 3.83312,2.15546l-0.32163,1.57129c0,0 -6.71763,-4.66712 -14.46527,-5.71825c-6.19482,-0.84044 -10.03869,0.45394 -10.03869,0.45394l1.25418,-4.41462c0,0 5.20885,-0.45336 8.47807,0.05657c3.26922,0.50991 7.49755,2.43522 7.49755,2.43522z" data-paper-data="{&quot;index&quot;:null}" fill="#000000" stroke="none" stroke-width="1.5" stroke-linecap="butt"/><path d="M405.70747,164.07457c1.0503,-4.73063 6.11384,-7.63039 11.30976,-6.47679c5.19591,1.1536 8.55659,5.9237 7.50629,10.65434c-1.0503,4.73063 -6.11384,7.63039 -11.30976,6.47679c-5.19591,-1.1536 -8.55659,-5.9237 -7.50629,-10.65434z" fill="#ffffff" stroke="#000000" stroke-width="1.5" stroke-linecap="butt"/><path d="M410.05294,164.78573c0.60506,-2.72526 3.30482,-4.44401 6.03008,-3.83895c2.72526,0.60506 4.44401,3.30482 3.83895,6.03008c-0.60506,2.72526 -3.30481,4.44402 -6.03008,3.83895c-2.72526,-0.60506 -4.44401,-3.30482 -3.83895,-6.03008z" fill="#000000" stroke="none" stroke-width="1.5" stroke-linecap="butt"/><path d="M431.93201,169.89697c1.0503,-4.73063 6.07013,-7.6401 11.21213,-6.49847c5.14199,1.14163 8.45897,5.90203 7.40867,10.63267c-1.0503,4.73063 -6.07013,7.6401 -11.21213,6.49847c-5.14199,-1.14163 -8.45897,-5.90203 -7.40867,-10.63267z" fill="#ffffff" stroke="#000000" stroke-width="1.5" stroke-linecap="butt"/><path d="M436.29918,170.61293c0.60506,-2.72526 3.30482,-4.44401 6.03008,-3.83895c2.72526,0.60506 4.44401,3.30482 3.83895,6.03008c-0.60506,2.72526 -3.30481,4.44402 -6.03008,3.83895c-2.72526,-0.60506 -4.44401,-3.30482 -3.83895,-6.03008z" fill="#000000" stroke="none" stroke-width="1.5" stroke-linecap="butt"/><path d="M405.57194,163.65596c0,0 1.79665,-9.03327 12.01155,-6.88227c8.90629,1.87546 7.41827,11.19609 7.41827,11.19609z" fill="#ffffff" stroke="#000000" stroke-width="1" stroke-linecap="butt"/><path d="M431.56283,169.03748c0,0 2.10951,-9.46937 12.68882,-6.76036c9.93804,2.54479 7.82115,11.314 7.82115,11.314z" fill="#ffffff" stroke="#000000" stroke-width="1" stroke-linecap="butt"/><path d="M400.42542,172.12459c-0.8096,1.33963 -3.4045,-3.95815 -3.4899,-9.26861c-0.08539,-5.31046 0.87179,-9.02915 3.20356,-8.53889c2.20484,0.46356 1.47984,4.11316 1.31094,7.88107c-0.18098,4.0372 -0.0578,8.32669 -1.0246,9.92643z" data-paper-data="{&quot;index&quot;:null}" fill="#ffffff" stroke="#000000" stroke-width="1" stroke-linecap="butt"/><path d="M401.56083,168.84244c0,0 -2.84758,-2.8626 -2.39518,-8.31106c0.25236,-3.03933 2.82712,-1.70851 2.82712,-1.70851" fill="none" stroke="#000000" stroke-width="0.5" stroke-linecap="round"/><path d="M471.26099,160.43297c0,0 -3.7455,20.98408 -31.79122,21.56811c-7.41607,0.15443 -17.48423,-1.19964 -24.42534,-2.92597c-15.28619,-3.80185 -24.94191,-8.2058 -34.33702,-18.54425c-2.84374,-3.12927 -1.59721,-9.28944 -1.59721,-9.28944l38.4694,-19.72374z" fill="#ffffff" stroke="none" stroke-width="1.5" stroke-linecap="butt"/><path d="M471.19383,160.16248c0,0 -5.1052,16.59271 -33.15092,17.17673c-2.52261,0.05253 -5.04419,-0.03069 -7.54675,-0.23134c-21.05694,-1.68829 -40.7671,-11.68991 -48.4118,-19.08281c-0.69832,-0.67531 -3.64527,-2.86274 -3.28537,-6.13335c0.33518,-3.04608 4.31449,-5.12891 4.31449,-5.12891l35.03605,-21.50839z" fill="#e6e6e6" stroke="none" stroke-width="1.5" stroke-linecap="butt"/><path d="M471.04249,161.99826c0,0 -36.76018,2.7311 -71.86708,-12.18292c-6.22834,-2.64591 -5.91644,-8.77187 -5.91644,-8.77187c0,0 6.96494,-22.64381 16.56562,-30.00618c7.32918,-5.62045 23.72669,-7.86636 33.3179,-5.49208c13.85899,3.43076 28.13274,15.41764 30.45037,26.30115c2.00562,9.41829 -2.55036,30.1519 -2.55036,30.1519z" fill="#ffffff" stroke="none" stroke-width="1.5" stroke-linecap="butt"/><path d="M457.23344,158.07968c0,0 1.86401,-6.08877 2.57426,-9.28783c0.61147,-2.75413 1.43548,-8.7724 1.43548,-8.7724c0,0 5.19614,0.55787 8.06699,0.37272c3.19089,-0.20579 4.85372,-1.47342 4.85372,-1.47342c0,0 0.23351,4.32588 -0.37397,9.56897c-0.37163,3.20762 -1.77825,8.77562 -1.77825,8.77562c0,0 -1.72797,1.53182 -5.64939,1.75121c-3.88684,0.21747 -9.12884,-0.93488 -9.12884,-0.93488z" fill="#e6e6e6" stroke="none" stroke-width="0" stroke-linecap="butt"/><path d="M450.70622,108.59909c-0.34448,1.23556 -3.18889,1.49845 -6.35319,0.58719c-3.1643,-0.91127 -5.45022,-2.65163 -5.10575,-3.88719c0.34448,-1.23556 3.18889,-1.49845 6.35319,-0.58719c3.1643,0.91127 5.45022,2.65163 5.10575,3.88719z" fill="#ffffff" stroke="none" stroke-width="1.5" stroke-linecap="butt"/></g><g fill-rule="nonzero" stroke="none" stroke-width="0" stroke-linecap="butt"><path d="M3.33233,193.05003c4.06612,-18.29136 29.15094,-16.74827 58.99897,-10.52422c29.84797,6.22408 53.65459,16.28713 48.23514,35.65872c-4.76955,17.04856 -17.31997,21.96148 -59.48112,14.07961c-42.15754,-7.88119 -51.09259,-24.6609 -47.75299,-39.21412z" fill="#808080"/><path d="M52.729,226.92172c-31.13565,-5.087 -55.58166,-21.84367 -48.0708,-38.20356c7.63216,-13.49043 37.31409,-17.69476 66.29639,-9.39081c28.98225,8.30396 46.28995,25.97187 38.65772,39.46226c-7.63222,13.49038 -27.1799,12.98512 -56.8833,8.13211z" fill="#e6e6e6"/><path d="M98.23513,206.3478c0,0 -26.44515,3.75545 -42.92019,0.71911c-16.47504,-3.03634 -36.71001,-15.39492 -36.71001,-15.39492c0,0 9.08515,-30.71515 22.92201,-33.0256c15.8176,-2.64121 12.75114,3.22297 21.64332,4.87869c7.41752,1.38114 10.6811,-3.8305 22.68915,2.3716c9.75958,5.04077 12.37572,40.45113 12.37572,40.45113z" fill="#ffffff"/><path d="M21.30652,183.83517c0,0 -0.07257,11.87842 35.30637,18.51902c36.86152,6.91888 40.98242,-2.03627 40.98242,-2.03627c0,0 2.33308,7.3845 -0.70373,10.72078c-2.70429,2.97096 -12.68298,6.92739 -42.18275,0.4054c-36.86452,-8.15023 -34.9318,-12.65372 -36.87221,-17.13443c-1.18088,-2.72685 3.46989,-10.47449 3.46989,-10.47449z" fill="#c7c7c7"/></g><g fill-rule="nonzero"><g><path d="M121.53719,237.93502l5.88952,-23.01881l94.41972,24.15794l-5.88952,23.01881c0,0 -38.32957,12.22081 -53.66042,8.29831c-16.10431,-4.1204 -40.7593,-32.45624 -40.7593,-32.45624z" fill="#000000" stroke="none" stroke-width="0" stroke-linecap="butt"/><path d="M136.95595,208.34272c0,0 -2.36621,0.0697 -3.22664,-0.12672c-0.93084,-0.21249 -2.16382,-1.1038 -2.16382,-1.1038l7.48198,-4.27508l50.78128,-32.86543c0,0 26.45039,48.20313 25.30007,52.69906c-0.56554,2.21038 1.80836,18.17443 1.80836,18.17443l-5.6757,-6.79503c0,0 0.08902,9.91097 -4.12712,19.55064c-3.94894,9.02872 -11.89645,15.19563 -11.89645,15.19563l-0.56904,-2.51234c0,0 -1.53722,1.81523 -2.9456,2.65649c-1.40839,0.84125 -4.12261,1.55425 -4.12261,1.55425l0.84761,-3.23028c0,0 -10.68237,7.74556 -26.8671,3.33076c-15.98955,-4.36155 -22.96131,-15.58672 -22.96131,-15.58672l-0.65035,1.78949c0,0 -3.27412,-5.7353 -4.11358,-11.474c-1.08969,-7.44926 0.1778,-11.49307 0.1778,-11.49307c0,0 -3.09298,0.901 -6.09682,0.6651c-3.50237,-0.27505 -6.52959,-1.30506 -6.52959,-1.30506l9.0077,-5.32425c0,0 -2.78433,0.41166 -4.09565,0.30895c-1.2137,-0.09504 -3.50206,-0.904 -3.50206,-0.904c0,0 7.4676,-5.83511 9.92027,-9.11878c2.24114,-3.00047 4.21842,-9.81031 4.21842,-9.81031z" fill="#000000" stroke="none" stroke-width="1.5" stroke-linecap="butt"/><path d="M155.39118,214.48978l0.7999,-1.39251c0,0 3.71413,-0.84858 8.05803,-0.1632c4.32984,0.68316 7.23717,2.01453 7.23717,2.01453l-1.20902,4.21824c0,0 -2.96098,-1.4629 -6.93331,-2.24173c-2.95682,-0.84677 -17.35375,-1.23673 -17.35375,-1.23673l0.30501,-1.29311z" fill="#000000" stroke="none" stroke-width="1.5" stroke-linecap="butt"/><path d="M196.4408,219.61672c0,0 2.36045,1.2029 3.55733,1.88317c1.24133,0.70554 3.76218,2.27702 3.76218,2.27702l-0.37175,1.56019c0,0 -6.56484,-4.8797 -14.27487,-6.17823c-6.16475,-1.03825 -10.04807,0.13245 -10.04807,0.13245l1.39481,-4.37222c0,0 5.22069,-0.28643 8.47192,0.32785c3.25123,0.61427 7.41578,2.6739 7.41578,2.6739z" data-paper-data="{&quot;index&quot;:null}" fill="#000000" stroke="none" stroke-width="1.5" stroke-linecap="butt"/><path d="M150.37381,223.22216c1.20114,-4.6946 6.35489,-7.43084 11.51123,-6.11155c5.15633,1.31928 8.36264,6.19449 7.1615,10.8891c-1.20114,4.6946 -6.35489,7.43084 -11.51123,6.11155c-5.15633,-1.31928 -8.36264,-6.19449 -7.1615,-10.8891z" fill="#3f1010" stroke="#000000" stroke-width="1.5" stroke-linecap="butt"/><path d="M176.39867,229.88079c1.20114,-4.6946 6.31151,-7.44193 11.41435,-6.13634c5.10283,1.30559 8.26576,6.1697 7.06462,10.86431c-1.20114,4.6946 -6.31151,7.44193 -11.41435,6.13634c-5.10283,-1.30559 -8.26576,-6.1697 -7.06462,-10.86431z" fill="#ffffff" stroke="#000000" stroke-width="1.5" stroke-linecap="butt"/><path d="M180.69308,230.92215c0.69197,-2.7045 3.44534,-4.33598 6.14984,-3.64401c2.7045,0.69197 4.33598,3.44534 3.64401,6.14984c-0.69197,2.7045 -3.44533,4.33598 -6.14984,3.64401c-2.7045,-0.69197 -4.33598,-3.44534 -3.64401,-6.14984z" fill="#000000" stroke="none" stroke-width="1.5" stroke-linecap="butt"/><path d="M176.05714,229.00991c0,0 2.41146,-9.39701 12.89866,-6.35084c9.85152,2.86152 7.45508,11.55849 7.45508,11.55849z" fill="#ffffff" stroke="#000000" stroke-width="1.25" stroke-linecap="butt"/><path d="M144.83686,231.09899c-0.85206,1.31304 -3.27609,-4.06507 -3.1915,-9.37554c0.0846,-5.31048 1.16028,-8.99663 3.47517,-8.432c2.18887,0.53388 1.34746,4.15841 1.05806,7.91898c-0.31008,4.02934 -0.32424,8.32057 -1.34173,9.88856z" data-paper-data="{&quot;index&quot;:null}" fill="#ffffff" stroke="#000000" stroke-width="1" stroke-linecap="butt"/><path d="M199.81317,234.65436c1.55226,-3.43746 2.55501,-7.02071 4.73133,-6.43773c2.3016,0.61654 1.47475,4.36636 -1.00153,9.06491c-2.47629,4.69855 -7.18541,8.25157 -7.30215,6.69067c-0.1394,-1.86398 1.90915,-5.6347 3.57236,-9.31784z" data-paper-data="{&quot;index&quot;:null}" fill="#ffffff" stroke="#000000" stroke-width="1" stroke-linecap="butt"/><path d="M146.07677,227.85487c0,0 -2.75452,-2.95226 -2.12799,-8.38346c0.3495,-3.0297 2.88035,-1.61716 2.88035,-1.61716" fill="none" stroke="#000000" stroke-width="0.5" stroke-linecap="round"/><path d="M201.30595,231.0184c0,0 2.38281,0.18872 1.29798,3.03028c-1.94473,5.09392 -5.17078,6.17194 -5.17078,6.17194" data-paper-data="{&quot;index&quot;:null}" fill="none" stroke="#000000" stroke-width="0.5" stroke-linecap="round"/><path d="M134.40954,234.67497c0,0 2.96748,-10.80619 6.20046,-15.93966c5.34716,-8.4905 22.86765,-30.21621 22.86765,-30.21621l43.15276,12.40347l-1.50891,51.16328c0,0 -18.93705,3.03125 -32.22146,1.6654c-1.87702,-0.19299 -3.64119,-0.47376 -5.22315,-0.86327c-10.21304,-2.51468 -33.26735,-18.213 -33.26735,-18.213z" fill="#040404" stroke="none" stroke-width="0" stroke-linecap="butt"/><path d="M152.77574,263.12444l9.82674,6.82894l-1.67943,4.33919l-7.38476,-3.0249l-35.25367,-39.4499l1.2943,-5.80026l30.61865,-45.51005l38.13072,-22.96692l28.52954,39.89995l7.53083,46.08264l-3.35975,19.80554l-60.20042,12.07515l1.73396,-4.55233l48.47952,-10.75932l-26.96901,-63.67261l-57.86163,33.33871l2.97961,6.89377l21.54244,24.8144z" fill="#999999" stroke="none" stroke-width="0" stroke-linecap="round"/><path d="M150.72435,266.74923l9.82674,6.82894l-1.67943,4.33919l-7.38476,-3.02489l-35.25367,-39.4499l1.2943,-5.80027l67.87554,-44.17486l36.93418,61.68048l-3.35975,19.80554l-59.37904,11.83112l1.8575,-4.29363l47.53459,-10.774l-26.96901,-63.67261l-57.86162,33.3387l2.97961,6.89378l21.54244,24.81439z" fill="#dedede" stroke="none" stroke-width="0" stroke-linecap="round"/></g><path d="M159.03313,279.54829c-2.94281,-0.75294 -4.7913,-3.46266 -4.12871,-6.05233c0.66258,-2.58967 3.58534,-4.07864 6.52814,-3.3257c2.94281,0.75294 4.7913,3.46266 4.12871,6.05233c-0.66258,2.58967 -3.58534,4.07864 -6.52814,3.3257z" fill="#b5b5b5" stroke="none" stroke-width="0" stroke-linecap="butt"/><path d="M159.96019,275.92496c-2.11883,-0.54212 -3.5679,-2.03125 -3.23661,-3.32609c0.33129,-1.29484 2.31751,-1.90503 4.43633,-1.36292c2.11883,0.54212 3.5679,2.03125 3.23661,3.32609c-0.33129,1.29484 -2.31751,1.90503 -4.43633,1.36292z" fill="#ffffff" stroke="none" stroke-width="0" stroke-linecap="butt"/><path d="M159.14719,278.21493c-0.70628,-0.18071 -1.19337,-0.66119 -1.08796,-1.07318c0.10541,-0.41199 0.76342,-0.59949 1.46969,-0.41878c0.70628,0.18071 1.19337,0.66119 1.08796,1.07318c-0.10541,0.41199 -0.76342,0.59949 -1.46969,0.41878z" fill="#ffffff" stroke="none" stroke-width="0" stroke-linecap="butt"/></g><g fill-rule="nonzero" stroke-linecap="butt"><path d="M350.0997,145.09429c0,0 1.45588,0.5523 4.03009,1.76153c2.35124,1.1045 4.12225,2.41772 4.12225,2.41772l0.00986,1.18646c0,0 -6.67163,-4.22412 -14.54422,-4.80175c-6.29474,-0.46184 -10.28023,1.22135 -10.28023,1.22135l0.69772,-4.1184c0,0 3.35532,-1.19469 8.05699,-0.60427c4.86855,0.61138 7.89913,1.84799 7.89913,1.84799z" data-paper-data="{&quot;index&quot;:null}" fill="#000000" stroke="none" stroke-width="1.5"/><path d="M304.80339,152.21316c0,0 1.47119,-8.89449 11.84962,-7.06037c9.32881,1.64345 7.96855,10.78455 7.96855,10.78455z" fill="#ffffff" stroke="#000000" stroke-width="1.15"/><path d="M331.20158,156.52104c0,0 1.23379,-9.38063 12.48279,-7.24198c9.54289,1.847 7.9216,11.02523 7.9216,11.02523z" fill="#ffffff" stroke="#000000" stroke-width="1.15"/><path d="M309.85398,142.87589c0,0 3.61243,-1.27024 8.29029,-0.99888c5.18365,0.30069 7.6832,1.14814 7.6832,1.14814l-0.35493,4.13277c0,0 -3.68211,-1.27151 -7.83809,-1.76735c-5.55811,-0.66314 -6.78715,0.37723 -11.05938,0.16545c-3.66068,-0.18146 -6.67932,-0.89564 -6.67932,-0.89564l0.16683,-1.22047c0,0 3.53947,0.63473 5.18013,0.75012c1.35414,0.09523 4.07344,-0.30545 4.07344,-0.30545z" fill="#000000" stroke="none" stroke-width="1.5"/><path d="M298.54227,113.67212c3.71108,-5.10179 7.53493,-11.31489 13.5933,-14.10218c9.09653,-4.18508 32.67395,-4.80913 42.05216,-3.32579c9.51294,1.50465 8.74373,11.48768 13.65666,18.02638c4.58194,6.09821 1.34625,10.43044 2.4431,17.56232c0.60435,3.92955 2.71902,8.92034 2.09607,12.85889c-2.96587,18.75134 -19.38111,7.25121 -42.65447,3.5701c-23.27336,-3.68111 -43.51407,2.02119 -40.5482,-16.73015c0.97478,-6.16293 4.81655,-11.61162 9.36137,-17.85958z" fill="#dbdbdb" stroke="none" stroke-width="0"/><path d="M285.84754,151.67097c0,0 -1.12231,-0.77873 -1.19436,-2.66882c-0.12048,-3.1608 0.80392,-8.35149 0.97547,-10.31457c0.15275,-1.74785 1.72489,-4.24954 1.72489,-4.24954c0,0 13.22987,-1.8569 21.87806,-0.30464c4.03363,0.724 10.01745,2.00788 17.68334,3.12124c8.46664,1.22965 18.79405,2.34384 26.54084,4.33499c12.30034,3.16155 18.51282,6.71383 18.51282,6.71383c0,0 1.09258,4.73617 0.58304,6.86587c-0.34465,1.44054 -0.57165,5.06543 -1.35038,7.3834c-0.87494,2.60435 -2.28891,3.83522 -2.28891,3.83522c0,0 -6.23505,-2.2043 -17.01782,-4.71735c-7.92225,-1.84638 -16.57879,-3.38713 -25.11872,-4.6303c-7.98439,-1.1623 -16.56728,-3.11257 -20.95572,-3.90025c-8.32919,-1.49502 -19.97253,-1.46911 -19.97253,-1.46911z" fill="#adadad" stroke="none" stroke-width="0"/><path d="M320.57205,145.21588c0.45298,-2.8639 4.80015,-4.55603 9.70968,-3.7795c4.90953,0.77653 8.52228,3.72768 8.0693,6.59157c-0.45298,2.8639 -4.80015,4.55603 -9.70968,3.7795c-4.90953,-0.77653 -8.52228,-3.72768 -8.0693,-6.59157z" fill="#ffffff" stroke="none" stroke-width="0.5"/></g><g fill-rule="nonzero" stroke="none" stroke-width="0" stroke-linecap="butt"><path d="M228.4574,209.05932c0,0 11.41951,-7.95015 15.47725,-14.89678c5.4273,-9.29123 14.94472,-28.31244 14.94472,-28.31244c0,0 5.15718,-6.65218 29.08127,-1.40236c23.65316,5.19037 27.12714,12.9084 27.12714,12.9084c0,0 2.7882,18.12745 3.37586,28.65928c0.4157,7.45006 9.61644,20.90886 9.61644,20.90886c0,0 -7.30502,7.35849 -19.72025,7.31451c-9.4526,-0.03349 -20.67785,-2.36742 -31.46921,-4.43084c-11.69554,-2.23631 -22.79614,-4.24954 -28.2719,-5.23149c-15.95498,-2.86115 -20.16133,-15.51713 -20.16133,-15.51713z" fill="#ffffff"/><path d="M234.89771,204.25928l9.14291,-9.98033c0,0 8.0658,6.97982 16.77207,8.63081c7.87624,1.49358 29.40686,7.88981 43.25066,8.99242c10.45002,0.83231 14.00656,-4.15236 14.00656,-4.15236l6.28738,13.65536c0,0 -3.68589,2.89352 -8.99553,4.45924c-3.19066,0.94088 -7.58129,1.18326 -10.3867,0.64557c-9.69557,-1.85826 -34.8516,-3.95508 -52.1377,-9.84182c-10.67936,-3.63683 -17.93965,-12.40888 -17.93965,-12.40888z" fill="#c5c5c5"/><path d="M304.14591,203.96315l-0.13154,-9.45219c0,0 4.68605,0.63834 7.02006,0.33444c2.10755,-0.27441 6.37408,-2.07839 6.37408,-2.07839l0.69455,10.20843c0,0 -4.67043,1.47289 -6.96547,1.6353c-2.35576,0.16671 -6.99169,-0.64761 -6.99169,-0.64761z" fill="#bfbfbf"/><path d="M258.275,166.6676c0,0 0.9886,-7.5046 29.56637,-1.73341c30.12315,6.08327 27.13855,13.07103 27.13855,13.07103c0,0 -19.49719,-0.84302 -28.9799,-2.739c-9.41849,-1.88314 -27.72501,-8.59861 -27.72501,-8.59861z" fill="#d9d9d9"/></g><g fill-rule="nonzero" stroke="none" stroke-width="0" stroke-linecap="butt"><path d="M100.14003,291.1194c-1.8115,8.9989 -5.5698,7.12767 -6.44314,-0.14156c-1.51828,-12.63719 1.8763,-40.5642 -29.82553,-46.56091c-31.66804,-5.99031 -40.67514,23.99187 -45.10661,32.8686c-1.92532,3.85664 -7.06611,3.79671 -5.56363,-3.6671c4.96068,-24.64301 25.86863,-39.90375 52.19677,-34.60385c27.17199,5.46977 39.70284,27.4618 34.74216,52.10481z" data-paper-data="{&quot;index&quot;:null}" fill="#474747"/><g data-paper-data="{&quot;index&quot;:null}"><path d="M87.60138,318.38561c-0.907,0.32811 -3.53184,-0.49421 -3.53184,-0.49421l4.02824,-21.80106c0,0 1.46982,0.36196 2.32021,0.55715c3.19011,0.73227 2.47312,2.93021 2.47312,2.93021l-3.20798,16.8312c0,0 -0.34595,1.34879 -2.08176,1.97671z" fill="#adadad"/><path d="M95.90355,298.3243l7.04232,-34.98389c0,0 0.17486,-1.84061 1.77055,-1.26081c1.60277,0.58237 1.14477,1.84767 1.14477,1.84767l-7.04232,34.98389z" fill="#ffffff"/><path d="M84.13202,319.08234c0,0 -1.09768,3.94919 -5.27565,3.17554c-3.457,-0.64014 -3.65055,-6.13564 -3.65055,-6.13564l4.63043,-20.66793c0,0 0.32692,-5.51044 4.85782,-4.65621c4.50997,0.85029 3.94814,5.87916 3.94814,5.87916l-4.51018,22.40508z" fill="#dbdbdb"/><path d="M87.67002,310.09148l5.51229,-27.38322l7.67637,7.61219l-4.65093,21.4897z" fill="#7a7a7a"/></g><g data-paper-data="{&quot;index&quot;:null}"><path d="M14.00204,303.49376c-1.35765,-1.25065 -1.15477,-2.62823 -1.15477,-2.62823l3.55428,-16.76149c0,0 0.18929,-2.30416 3.41426,-1.74506c0.85967,0.14904 2.35507,0.38399 2.35507,0.38399l-4.72088,21.66163c0,0 -2.73856,-0.25736 -3.44797,-0.91083z" fill="#adadad"/><path d="M11.19342,281.19584l7.04232,-34.9839c0,0 0.06724,-1.34396 1.77051,-1.26082c1.69574,0.08278 1.14482,1.84768 1.14482,1.84768l-7.04232,34.9839z" fill="#ffffff"/><path d="M20.56762,310.4481c-4.15188,-0.90317 -3.63604,-4.96949 -3.63604,-4.96949l4.51018,-22.40508c0,0 1.42773,-4.85455 5.91542,-3.8936c4.50853,0.96541 2.67785,6.17315 2.67785,6.17315l-3.72715,20.84974c0,0 -2.30485,4.99258 -5.74026,4.24526z" fill="#dbdbdb"/><path d="M8.61022,294.10042l4.02623,-21.61545l10.02381,-4.04911l-5.51229,27.38322z" fill="#7a7a7a"/></g></g><g fill-rule="nonzero" stroke="none" stroke-width="0" stroke-linecap="butt"><g fill="#bababa"><path d="M29.46338,341.28063c-4.23016,-0.89206 -8.18805,-2.07916 -9.6659,-4.64146c-1.81217,-3.14191 -0.42111,-7.75594 0.11621,-10.97619c0.80245,-4.8092 1.74465,-7.80281 3.70245,-8.53817c4.02669,-1.51245 30.52184,5.86137 30.52184,5.86137l-3.63182,10.33603c0,0 -1.16727,0.22486 -2.88095,1.79711c-1.34431,1.23337 -3.15736,3.79132 -4.118,4.39597c-6.59919,4.15371 -7.80438,3.08112 -14.04383,1.76534z"/><path d="M53.40995,341.95631c-0.53063,-1.00342 -0.82497,-4.12489 -1.37426,-5.86462c-0.70023,-2.21773 -1.59947,-2.99519 -1.59947,-2.99519l2.01182,-10.76922c0,0 26.63933,6.83458 29.37371,10.15496c1.32947,1.6144 0.65175,4.67872 -1.05327,9.24657c-1.14167,3.05863 -2.23923,7.75115 -5.37773,9.56924c-2.55951,1.48268 -6.58166,0.53589 -10.69247,-0.80246c-6.06343,-1.97406 -7.64311,-1.64615 -11.28834,-8.53927z" data-paper-data="{&quot;index&quot;:null}"/></g><path d="M23.63728,335.16605c-4.16549,-2.81842 1.97009,-14.55659 1.97009,-14.55659c0,0 20.53233,3.19878 22.73925,5.9327c1.29959,1.60991 -4.48861,8.64867 -10.26347,11.00801c-5.77486,2.35935 -11.78499,-0.58375 -14.44588,-2.38413z" fill="#000000"/><path d="M58.25983,342.94551c-3.82651,-4.92679 -5.329,-13.91511 -3.39934,-14.6615c3.27692,-1.26751 22.66544,6.20872 22.66544,6.20872c0,0 -0.54205,13.23391 -5.55832,13.59708c-3.20435,0.23199 -9.88127,-0.21749 -13.70779,-5.14429z" data-paper-data="{&quot;index&quot;:null}" fill="#000000"/><path d="M48.62265,326.61598c0.44109,0.54642 0.06568,1.71823 -0.84858,3.1202c-1.77943,2.72867 -5.60007,6.32924 -9.4149,7.88781c-5.29451,2.1631 -10.12091,-0.64339 -10.12091,-0.64339c0,0 11.37266,-12.18735 12.69074,-13.32661c3.73071,0.93366 6.89928,1.97793 7.69363,2.96198z" fill="#666666"/><path d="M77.85102,334.59382c0,0 -0.54205,13.23391 -5.55832,13.59708c-3.04204,0.22023 -9.21375,-0.1737 -13.10517,-4.42956c1.3208,-0.69 11.04969,-12.29786 11.04969,-12.29786z" data-paper-data="{&quot;index&quot;:null}" fill="#666666"/></g><g fill-rule="nonzero" stroke-linecap="butt"><path d="M167.03416,338.7089c0,0 1.45725,0.5487 4.03443,1.75155c2.35397,1.09868 4.12822,2.40751 4.12822,2.40751l0.0128,1.18643c0,0 -6.68206,-4.2076 -14.55606,-4.76574c-6.29586,-0.44626 -10.27717,1.24679 -10.27717,1.24679l0.68752,-4.12011c0,0 3.35235,-1.20299 8.05548,-0.62421c4.87005,0.59933 7.90368,1.82844 7.90368,1.82844z" data-paper-data="{&quot;index&quot;:null}" fill="#000000" stroke="none" stroke-width="1.5"/><path d="M126.1081,347.27518c0.46371,-2.71947 3.04417,-4.54809 5.76362,-4.08438c2.71947,0.46371 4.54809,3.04417 4.08439,5.76362c-0.46371,2.71947 -3.04416,4.54809 -5.76362,4.08438c-2.71947,-0.46371 -4.54809,-3.04417 -4.08438,-5.76362z" fill="#000000" stroke="none" stroke-width="1.5"/><path d="M153.01055,351.43005c0.43342,-2.78492 3.04241,-4.69119 5.82733,-4.25776c2.78492,0.43342 4.69118,3.04241 4.25776,5.82734c-0.43342,2.78492 -3.04239,4.69119 -5.82733,4.25776c-2.78492,-0.43342 -4.69119,-3.04241 -4.25776,-5.82734z" fill="#000000" stroke="none" stroke-width="1.5"/><path d="M121.7556,345.93985c0,0 1.44917,-8.8981 11.83211,-7.08967c9.33285,1.62036 7.99522,10.76479 7.99522,10.76479z" fill="#ffffff" stroke="#000000" stroke-width="1.15"/><path d="M148.16437,350.1824c0,0 1.21057,-9.38366 12.46483,-7.27285c9.54744,1.82338 7.94887,11.00559 7.94887,11.00559z" fill="#ffffff" stroke="#000000" stroke-width="1.15"/><path d="M126.78307,336.59009c0,0 3.60928,-1.27918 8.28779,-1.0194c5.18438,0.28785 7.68602,1.12912 7.68602,1.12912l-0.3447,4.13363c0,0 -3.68525,-1.26239 -7.84244,-1.74794c-5.55973,-0.64938 -6.78619,0.39402 -11.05894,0.19282c-3.66111,-0.17241 -6.68152,-0.87911 -6.68152,-0.87911l0.16381,-1.22088c0,0 3.54103,0.62597 5.18197,0.7373c1.35437,0.09188 4.07267,-0.31553 4.07267,-0.31553z" fill="#000000" stroke="none" stroke-width="1.5"/><g stroke="none"><path d="M197.20902,336.07629c-0.54983,3.53288 -9.20742,17.25445 -25.79438,21.77618c-3.57277,0.97397 -16.35206,0.99693 -28.93108,-0.95395c-10.53859,-1.63443 -21.08777,-4.98071 -24.50566,-7.16231c-15.1334,-9.65951 -21.81689,-26.0088 -21.30367,-29.30644c0.37852,-2.43215 3.49814,-6.56694 12.59732,-7.13419c9.35015,-0.5829 24.86512,2.46437 38.93489,4.65409c17.51445,2.72582 35.61995,3.98666 44.28014,8.2039c5.06696,2.46744 5.00573,8.10246 4.72244,9.92273z" fill="#707070" stroke-width="0"/><path d="M185.61247,334.34261c0,0 -5.64807,6.12356 -16.88573,7.91037c-7.91676,1.25878 -18.29141,-0.75654 -26.68028,-2.09191c-6.89465,-1.09751 -13.95807,-3.85737 -19.03443,-6.98313c-7.19261,-4.42883 -11.11436,-9.36275 -11.11436,-9.36275c0,0 -0.7845,-1.28037 0.36485,-4.52612c3.2937,-9.30131 11.81464,-29.07204 17.05256,-36.85361c1.63865,-2.43442 5.0475,-1.86689 5.8899,-1.73579c1.39112,0.2165 11.80226,9.72808 21.433,10.17901c2.13169,0.09981 7.5034,-0.30089 11.65463,-1.52735c2.94045,-0.86874 5.01594,-2.69745 6.01562,-2.63321c2.08659,0.13407 3.9011,0.53943 4.42401,1.12421c3.55937,3.9805 4.11995,10.97423 5.07454,18.538c1.68032,13.31403 1.80568,27.96229 1.80568,27.96229z" fill="#919191" stroke-width="NaN"/><path d="M184.25345,323.55974l2.52735,9.87741c0,0 -7.5086,6.08943 -18.21977,8.40477c-8.07315,1.74511 -18.9305,0.02567 -24.34748,-0.64859c-5.36298,-0.66755 -13.0598,-2.26739 -19.11566,-5.69537c-8.3506,-4.72695 -14.15183,-13.18577 -14.15183,-13.18577l3.0213,-10.70744c0,0 2.65741,2.97064 4.92603,5.2015c0.86526,0.85086 1.95659,1.63809 2.4068,2.04718c1.82728,1.66032 4.6488,3.10323 7.02013,4.3924c5.48616,2.98254 13.54786,4.29722 17.9501,5.046c5.35712,0.9112 15.1771,2.35861 22.55237,1.14321c9.14435,-1.50693 15.43066,-5.87531 15.43066,-5.87531z" data-paper-data="{&quot;index&quot;:null}" fill="#e8e8e8" stroke-width="0"/></g></g><g fill-rule="evenodd" stroke="none" stroke-width="1" stroke-linecap="butt"><path d="M329.97538,338.18767c0.19553,1.28075 0.4265,2.56106 0.69631,3.84155c-0.0724,0.25511 -0.21701,0.40485 -0.43726,0.44854c-1.18581,-0.48308 -2.10394,-1.24488 -2.75501,-2.282c0.6254,-0.92593 1.45718,-1.59415 2.49595,-2.00809z" fill="#404040" opacity="0.891"/><g><path d="M372.33514,293.07903c-1.10568,5.91919 -2.212,11.84179 -3.31769,17.76098c-1.12242,-1.12516 -2.19475,-2.32934 -3.21482,-3.60505c-1.91678,-2.87125 -3.87127,-5.65412 -5.86476,-8.34175c3.97006,-1.30857 7.63871,-3.27434 10.99914,-5.8986c0.47187,-0.08506 0.94041,-0.05763 1.39813,0.08442z" fill="#d1d1d1"/><path d="M372.33514,293.07903c1.4129,1.40565 2.64748,2.99007 3.70652,4.75733c1.71085,1.684 3.40311,3.35392 5.07275,5.01254c-0.10039,0.51852 -0.40324,0.87199 -0.90642,1.06785c-3.85576,2.09695 -7.58822,4.40429 -11.19054,6.92326c1.10568,-5.91919 2.212,-11.84179 3.31769,-17.76098z" fill="#e6e6e6"/><path d="M359.93786,298.89321c1.99349,2.68764 3.94799,5.47051 5.86476,8.34176c1.02008,1.27572 2.0924,2.47989 3.21482,3.60505c-0.1914,1.02467 -0.38281,2.04934 -0.57421,3.07401c-11.41875,-2.54654 -22.68992,-2.11755 -33.81968,1.28232c-3.32575,2.13587 -4.15498,4.98551 -2.48084,8.5502c1.84835,2.36714 4.24436,3.1081 7.18398,2.22564c8.93654,-2.23659 17.94251,-2.49842 27.01108,-0.78677c-0.68077,3.64442 -1.36089,7.28542 -2.04165,10.92983c-0.45427,-0.08486 -0.91196,-0.17035 -1.36623,-0.25521c-4.50315,-0.73866 -9.02825,-1.11381 -13.57594,-1.12204c-2.40414,-0.14864 -4.78888,-0.00379 -7.15015,0.43175c-4.34989,-0.10205 -8.42602,0.90392 -12.22842,3.01791c-1.03878,0.41394 -1.87055,1.08216 -2.49595,2.00809c-1.87835,-3.1716 -2.76202,-6.6346 -2.65379,-10.39303c-0.09233,-2.06034 -0.18826,-4.08245 -0.2816,-6.06167c0.02106,-0.11272 0.04275,-0.22884 0.0638,-0.34156c0.38409,-2.05617 0.65418,-4.12657 0.80688,-6.21183c0.14265,-0.83937 0.04141,-1.56523 -0.3003,-2.17695c0.68076,-3.64441 1.36089,-7.28542 2.04165,-10.92984c0.96768,-1.07408 1.31796,-2.3059 1.04337,-3.69333c0.36932,-0.86066 0.65175,-1.74814 0.85197,-2.66866c0.79583,0.14866 1.59507,0.29795 2.3909,0.44661c9.38838,2.74344 18.88668,2.98715 28.49556,0.72769z" fill="#a3a3a3" opacity="0.999"/><path d="M381.11441,302.84891c7.90347,5.31862 16.59873,8.59359 26.08981,9.82213c1.05312,-0.03658 2.09884,0.04212 3.13782,0.23266c0.11279,2.32926 -0.08734,4.64956 -0.59292,6.95875c-0.63968,2.85678 -1.05844,5.72301 -1.25349,8.60273c-1.75375,7.42058 -4.53893,14.43995 -8.35277,21.06215c-0.94384,1.28708 -1.94022,2.51486 -2.98574,3.68398c-2.75834,-4.3646 -6.52313,-7.54218 -11.29779,-9.53337c-5.71008,-3.09557 -11.75837,-5.40243 -18.14763,-6.92466c-0.45427,-0.08486 -0.91196,-0.17035 -1.36623,-0.25521c-0.68311,-0.1276 -1.36623,-0.25521 -2.04934,-0.38281c0.68076,-3.64441 1.36089,-7.28542 2.04165,-10.92983c9.41156,1.99487 18.0111,5.78218 25.80269,11.35915c4.22031,1.32561 7.07825,-0.08464 8.56699,-4.23206c0.3317,-1.56756 0.00907,-2.98164 -0.97407,-4.24692c-9.11525,-7.57391 -19.54487,-12.29338 -31.29016,-14.15156c0.1914,-1.02467 0.38281,-2.04934 0.57421,-3.07401c3.60233,-2.51898 7.33478,-4.82632 11.19054,-6.92327c0.50317,-0.19586 0.80602,-0.54932 0.90642,-1.06785z" fill="#d4d4d4" opacity="0.999"/><path d="M368.44323,313.91402c-0.10655,0.57039 -0.21246,1.13739 -0.31901,1.70778c-10.66304,-1.74792 -21.23281,-1.30809 -31.70653,1.32358c-3.89434,2.17104 -3.9675,4.45497 -0.21947,6.85177c12.6718,-2.93155 25.23795,-2.70508 37.69506,0.67875c-2.3909,-0.44661 -4.7818,-0.89322 -7.1727,-1.33984c-0.1276,0.68311 -0.25521,1.36623 -0.38281,2.04934c-9.06858,-1.71165 -18.07455,-1.44982 -27.01108,0.78677c-2.93962,0.88247 -5.33563,0.1415 -7.18398,-2.22564c-1.67413,-3.56469 -0.8449,-6.41433 2.48084,-8.5502c11.12976,-3.39987 22.40093,-3.82887 33.81968,-1.28232z" fill="#878787"/><path d="M368.44323,313.91402c11.74528,1.85818 22.17492,6.57764 31.29016,14.15156c0.98315,1.26528 1.30577,2.67935 0.97407,4.24692c-1.48874,4.14741 -4.34669,5.55768 -8.56699,4.23206c-7.79159,-5.57697 -16.39113,-9.36427 -25.8027,-11.35915c0.1276,-0.68311 0.25521,-1.36623 0.38281,-2.04934c2.3909,0.44661 4.7818,0.89322 7.17269,1.33983c7.16462,2.63204 13.95452,6.02122 20.36968,10.16754c3.42033,-0.22004 4.55622,-1.89188 3.41173,-5.0183c-8.69141,-7.0423 -18.54043,-11.70986 -29.55047,-14.00332c0.10655,-0.57039 0.21246,-1.13739 0.31901,-1.70778z" fill="#a3a3a3"/><path d="M368.12423,315.62182c11.01004,2.29346 20.85905,6.96103 29.55046,14.00333c1.14449,3.12642 0.0086,4.79826 -3.41173,5.0183c-0.77264,-0.49938 -1.55072,-0.98778 -2.33424,-1.4652c-2.19467,-1.33727 -4.432,-2.58838 -6.71197,-3.75331c-0.67668,-0.34575 -1.35712,-0.6839 -2.04132,-1.01447c-3.02082,-1.45949 -6.11487,-2.77101 -9.28215,-3.93456c-12.45709,-3.38383 -25.02325,-3.6103 -37.69506,-0.67875c-3.74803,-2.39681 -3.67489,-4.68073 0.21947,-6.85177c10.47373,-2.63166 21.0435,-3.0715 31.70653,-1.32358z" fill="#030001"/></g></g><g fill-rule="nonzero" stroke="none" stroke-width="0" stroke-linecap="butt"><path d="M207.05675,80.65905l3.45469,-3.25342c0,0 2.7031,-0.11327 4.10365,-1.704c2.5222,-2.86471 8.58951,-12.20281 8.58951,-12.20281l0.90513,-10.90946c0,0 0.71714,-4.31956 20.72973,-4.24174c24.57374,0.09555 50.63253,12.32575 50.63253,12.32575c0,0 3.32724,6.65399 -2.26578,15.59376c-2.73536,4.37214 -8.77837,11.1671 -8.77837,11.1671c0,0 -10.98635,7.19337 -35.34051,5.62385c-1.56708,-0.10099 -3.10199,-0.24626 -4.60518,-0.4063c-29.25726,-3.11486 -37.42539,-11.99273 -37.42539,-11.99273z" fill="#cccccc"/><path d="M210.28967,77.32258c0,0 3.04676,-3.33693 4.89028,-5.35602c2.39896,-2.62743 8.28108,-9.06975 8.28108,-9.06975c0,0 -1.01586,7.4622 22.16924,8.28895c32.94897,1.17493 48.078,-0.76246 48.078,-0.76246c0,0 -4.40914,11.82464 -22.9019,16.715c-6.67987,1.76647 -15.92448,1.53745 -26.43841,1.05588c-0.42894,-0.01965 -0.85412,-0.04904 -1.27652,-0.06972c-26.53478,-1.29878 -32.80175,-10.80188 -32.80175,-10.80188z" fill="#f5f5f5"/><path d="M297.28391,59.1402c0,0 -0.00517,-2.13697 0.06948,-3.48063c0.08628,-1.55291 0.41835,-5.30028 0.41835,-5.30028c0,0 3.1501,-0.74875 2.92697,7.80525c-0.23019,8.82445 -3.76324,11.15036 -3.76324,11.15036c0,0 -1.61394,-3.6071 -1.55367,-5.36682c0.05549,-1.62033 1.90212,-4.80788 1.90212,-4.80788z" fill="#a1a1a1"/><path d="M249.38565,87.38776l13.11642,-15.91138l16.20046,0.02507l-13.06922,16.00578c0,0 -3.95708,1.30327 -9.02811,1.26797c-6.95745,-0.04843 -7.21955,-1.38744 -7.21955,-1.38744z" fill="#ffffff"/><path d="M233.92701,87.31255l13.88043,-16.24177l10.32145,0.31121l-14.49989,16.24177c0,0 -0.87515,0.94741 -4.76259,0.08685c-5.34772,-1.18381 -4.9394,-0.39806 -4.9394,-0.39806z" fill="#ffffff"/></g><g fill-rule="nonzero"><path d="M391.15166,51.84414v-30.44153" fill="#ffffff" stroke="#595959" stroke-width="1" stroke-linecap="round"/><path d="M389.29134,73.99881c0,0 -1.82891,-5.97168 -2.43025,-9.08774c-0.63683,-3.29994 -1.29038,-10.1919 -1.29038,-10.1919l7.94862,-8.11774c0,0 1.63631,6.75501 2.59441,10.71028c1.18985,4.91195 4.00125,16.51798 4.00125,16.51798z" fill="#f5f5f5" stroke="none" stroke-width="0" stroke-linecap="butt"/><path d="M396.67622,74.50617c0,0 -2.09626,-8.15779 -2.75923,-12.88147c-0.81048,-5.77467 -1.75063,-19.25127 -1.75063,-19.25127c0,0 -0.75085,-36.26298 38.05192,-36.92445c37.59796,-0.64093 38.89752,36.92445 38.89752,36.92445l-0.464,7.12317c0,0 5.67425,3.58043 6.10467,5.58292c0.34243,1.5931 0.13871,6.0012 -0.8082,9.90031c-1.15522,4.75686 -3.14128,8.9626 -3.14128,8.9626l-14.37363,0.29328c0,0 8.07407,-13.04556 8.11325,-29.35834c0.0408,-16.99313 -6.96722,-37.39661 -36.32946,-36.06374c-20.78499,0.94351 -30.86183,15.4236 -31.16359,30.85448c-0.32873,16.8101 8.57696,34.78422 8.57696,34.78422z" fill="#cccccc" stroke="none" stroke-width="0" stroke-linecap="butt"/><path d="M398.9102,74.81124l-1.86031,-32.07636l-0.14093,-2.45224c0,0 3.30858,13.99367 4.94221,19.48858c1.44326,4.8546 4.19025,14.50447 4.19025,14.50447z" fill="#a1a1a1" stroke="none" stroke-width="0" stroke-linecap="butt"/><path d="M454.40964,74.47301c0,0 2.3028,-8.28072 3.94612,-13.52957c1.64333,-5.24886 5.49639,-16.6301 5.49639,-16.6301c0,0 0.39482,12.78854 -0.26775,18.21649c-0.52808,4.32618 -3.39651,11.80224 -3.39651,11.80224z" fill="#a1a1a1" stroke="none" stroke-width="0" stroke-linecap="butt"/><path d="M465.12053,69.39942c0,-1.16752 0.94647,-2.11399 2.11399,-2.11399c1.16753,0 2.11399,0.94647 2.11399,2.11399c0,1.16752 -0.94647,2.114 -2.11399,2.114c-1.16753,0 -2.11399,-0.94647 -2.11399,-2.114z" fill="#595959" stroke="none" stroke-width="0.5" stroke-linecap="butt"/></g><g fill-rule="nonzero" stroke="none" stroke-width="0" stroke-linecap="butt"><path d="M421.67989,260.15424c0.14171,9.6188 -23.87797,18.07107 -53.64944,18.87869c-29.77148,0.80763 -54.02089,-6.33525 -54.1626,-15.95404c-0.14171,-9.6188 23.87796,-18.07108 53.64944,-18.8787c29.77147,-0.80763 54.02089,6.33526 54.1626,15.95405z" fill="#a6a6a6"/><path d="M420.34656,258.22461c0.13995,8.05957 -23.58267,15.14171 -52.98596,15.81841c-29.40329,0.6767 -53.35282,-5.30829 -53.49277,-13.36786c-0.13995,-8.05956 23.58267,-15.14171 52.98596,-15.81841c29.40329,-0.6767 53.35282,5.30829 53.49277,13.36786z" fill="#d1d1d1"/><path d="M400.38949,248.17267c0.19034,10.96101 -69.27435,12.5597 -69.46469,1.5987c-0.19034,-10.961 -3.41445,-41.19264 33.26224,-41.64262c37.1177,-0.45539 36.01211,29.08292 36.20245,40.04392z" fill="#e3e3e3"/><path d="M327.44646,253.93913l2.85979,-10.57707c0,0 13.4155,5.17723 37.1154,4.98539c20.56635,-0.16648 32.34929,-6.58409 32.34929,-6.58409l4.23879,10.4137c0,0 -12.26922,8.91942 -38.39325,9.05902c-21.72652,0.11611 -38.17002,-7.29696 -38.17002,-7.29696z" fill="#000000"/></g><g fill-rule="nonzero" stroke="none" stroke-width="0" stroke-linecap="butt"><path d="M429.12374,269.2243v-9.5c0,0 5.55549,-1.02828 11.44907,-3.28566c4.7977,-1.83764 9.56647,-4.99576 13.80093,-4.96434c6.95014,0.05158 11.40543,3.99981 16.26543,6.11393c4.55151,1.97992 9.48456,1.63607 9.48456,1.63607l0.25,10c0,0 -0.66167,15.36033 -23.5,15.5c-28.84894,0.17643 -27.75,-15.5 -27.75,-15.5z" fill="#cccccc"/><path d="M429.12374,270.9743v-9.5c0,0 5.55549,-1.02828 11.44907,-3.28566c4.7977,-1.83764 9.56647,-4.99576 13.80093,-4.96434c6.95014,0.05158 11.40543,3.99981 16.26543,6.11393c4.55151,1.97992 9.48456,1.63607 9.48456,1.63607l0.25,10c0,0 -0.66167,15.36033 -23.5,15.5c-28.84894,0.17643 -27.75,-15.5 -27.75,-15.5z" fill="#8f8f8f"/><path d="M454.87374,286.7243c-30.60862,-1.16466 -25.5,-18.25 -25.5,-18.25c0,0 0.0652,12.91319 26.4981,12.88308c19.57049,-0.0223 23.7519,-12.63308 23.7519,-12.63308c0,0 2.9536,19.05413 -24.75,18z" fill="#6b6b6b"/></g><path d="" fill="#aeaaa7" fill-rule="nonzero" stroke="none" stroke-width="0.5" stroke-linecap="butt"/><g fill-rule="nonzero" stroke="none" stroke-linecap="butt"><path d="M231.65579,289.18917c0,0 3.20284,-11.73439 4.14178,-15.28793c0.71933,-2.72239 4.51581,-5.36324 10.19851,-5.21752c6.85177,0.17571 16.79196,-1.08042 26.04449,-0.85942c11.37291,0.27164 21.8531,2.00872 26.06374,2.04216c4.32171,0.03431 7.03034,3.34003 7.86084,6.99969c1.15785,5.10215 2.44063,10.57302 2.44063,10.57302z" fill="#4c4641" stroke-width="0"/><path d="M225.25928,339.73452c0.11939,-4.5974 0.37443,-10.87184 0.91622,-15.45051c1.28001,-10.81736 5.98029,-37.60879 5.98029,-37.60879h4.25l-3,65.25c0,0 -4.15391,-1.51757 -5.52375,-3.04784c-1.03519,-1.15643 -2.7149,-5.59477 -2.62276,-9.14285z" fill="#4c4641" stroke-width="0"/><path d="M231.68522,332.24773c-0.09078,-0.4377 -0.14471,-0.88182 -0.12452,-1.33607c0.01031,-0.23194 0.05322,-0.45419 0.11619,-0.67071c-0.70911,-0.4091 -1.1741,-1.35877 -1.11217,-2.43464c0.01729,-0.30048 0.07429,-0.58633 0.16382,-0.84933l0.93764,-2.93475l0.06605,0.03329l0.00804,-0.23932c0.18891,-0.37908 0.34894,-0.75607 0.48964,-1.12864l0.12305,-2.13767c0.04894,-0.85014 0.41561,-1.58322 0.93797,-2.01263c0.0028,-0.0607 0.00494,-0.12166 0.00659,-0.1828c-0.3692,-0.38578 -0.62053,-0.94708 -0.68571,-1.5839l-0.06329,-0.53114l-0.11787,-0.23406c-0.22765,-0.44123 -0.34683,-0.98349 -0.31351,-1.56227c0.01495,-0.25959 0.0595,-0.50826 0.12908,-0.74071l-0.02448,-0.20547l0.10341,-0.0244c0.01945,-0.04999 0.04011,-0.09906 0.06191,-0.14714c-0.05827,-0.55583 -0.02337,-1.10829 0.15465,-1.6556c0.27081,-0.83261 0.92431,-1.39774 1.68808,-1.69358c0.09098,-0.50742 0.20381,-1.00923 0.35559,-1.50901c-0.3279,-0.37324 -0.55248,-0.89079 -0.62032,-1.47438l-0.40366,-3.01879l0.48529,-0.12624l-0.37553,-1.24169c0.58827,-0.65434 1.38827,-1.08763 1.7648,-1.96301c0.25427,-0.59114 -0.03986,-1.33396 -0.05979,-2.00093c0,0 0.14564,-2.53007 2.0969,-2.41464c1.95126,0.11543 1.80561,2.64551 1.80561,2.64551c-0.13644,1.35708 0.04112,2.82177 -0.40932,4.07124c-0.06327,0.17549 -0.15509,0.32004 -0.2653,0.44465c0.37999,0.52447 0.71044,1.10819 0.96984,1.7311c0.2077,-0.07412 0.44653,-0.11026 0.72113,-0.09401c1.95126,0.11543 1.80561,2.64551 1.80561,2.64551l-0.15525,2.52825c-0.2248,1.65054 -0.703,3.24836 -0.86302,4.90913c-0.18688,1.93958 0.50056,4.45852 -0.08574,6.30886c-0.31451,0.99257 -1.33421,1.34824 -1.80185,2.23835c-0.82075,1.56222 -0.0764,5.3125 -0.17558,6.9352c-0.12205,1.99688 -0.79857,3.89226 -1.13751,5.85479c-0.42067,2.43579 0.52659,7.40668 -0.84072,9.38161c-0.11283,0.16298 -0.23121,0.31757 -0.3543,0.46501l0.09051,0.09233l-1.49419,2.42119c-0.28586,0.4755 -0.69423,0.81974 -1.15649,0.95371c-0.2881,1.05903 -1.09041,1.80241 -1.98931,1.74923c-1.07764,-0.06375 -1.88604,-1.24819 -1.80561,-2.64551l0.14564,-2.53008c0.03181,-0.30138 0.10021,-0.60679 0.16027,-0.91127c-0.18645,-0.50966 -0.17557,-1.14499 -0.0907,-1.80866c-0.39348,-0.90439 -1.21615,-1.63235 -1.1308,-2.65183c0.08491,-1.01433 0.61387,-1.8701 1.18228,-2.66696c-0.02085,-0.17401 -0.0294,-0.34963 -0.01898,-0.52781c0.06807,-1.16381 0.61186,-2.22155 0.79541,-3.36855c0.11333,-0.70815 0.21519,-1.42659 0.31056,-2.15078z" fill="#7f7976" stroke-width="0.5"/><path d="M311.47667,346.14134c-1.36984,1.53027 -5.52375,3.04784 -5.52375,3.04784c0,0 -4.31658,-45.6982 -4.81529,-56.54514c-0.20529,-4.46515 1.81529,-8.70486 1.81529,-8.70486h4.75c0,0 4.20027,26.79144 5.48029,37.6088c0.54179,4.57867 0.79683,10.85311 0.91622,15.45051c0.09214,3.54808 -1.58756,7.98642 -2.62276,9.14285z" data-paper-data="{&quot;index&quot;:null}" fill="#4c4641" stroke-width="0"/><path d="M307.98405,331.66245c0.18355,1.147 0.72734,2.20473 0.79541,3.36855c0.01042,0.17817 0.00187,0.35379 -0.01898,0.52781c0.56842,0.79685 1.09736,1.65263 1.18228,2.66696c0.08535,1.01948 -0.73732,1.74743 -1.1308,2.65183c0.08487,0.66368 0.09575,1.299 -0.0907,1.80866c0.06006,0.30448 0.12846,0.60989 0.16027,0.91127l0.14564,2.53008c0.08044,1.39732 -0.72796,2.58176 -1.80561,2.64551c-0.89891,0.05318 -1.70121,-0.6902 -1.98931,-1.74923c-0.46226,-0.13396 -0.87063,-0.47821 -1.15649,-0.95371l-1.49419,-2.42119l0.09051,-0.09233c-0.12309,-0.14744 -0.24147,-0.30203 -0.3543,-0.46501c-1.36732,-1.97493 -0.42005,-6.94582 -0.84072,-9.38161c-0.33894,-1.96254 -1.01547,-3.85791 -1.13751,-5.85479c-0.09918,-1.6227 0.64518,-5.37297 -0.17558,-6.9352c-0.46765,-0.89011 -1.48735,-1.24578 -1.80185,-2.23835c-0.5863,-1.85034 0.10114,-4.36928 -0.08574,-6.30886c-0.16002,-1.66077 -0.63822,-3.2586 -0.86302,-4.90913l-0.15525,-2.52825c0,0 -0.14564,-2.53007 1.80561,-2.6455c0.27459,-0.01624 0.51343,0.0199 0.72113,0.09401c0.25939,-0.62292 0.58986,-1.20663 0.96984,-1.7311c-0.11021,-0.12461 -0.20204,-0.26916 -0.26531,-0.44465c-0.45045,-1.24947 -0.27288,-2.71416 -0.40932,-4.07124c0,0 -0.14565,-2.53007 1.80561,-2.6455c1.95126,-0.11543 2.0969,2.41464 2.0969,2.41464c-0.01993,0.66698 -0.31406,1.4098 -0.05979,2.00093c0.37653,0.87538 1.17653,1.30867 1.7648,1.96301l-0.37552,1.24169l0.48529,0.12624l-0.40366,3.01879c-0.06784,0.5836 -0.29242,1.10115 -0.62032,1.47438c0.15177,0.49978 0.26461,1.00159 0.35559,1.50901c0.76377,0.29583 1.41726,0.86097 1.68808,1.69358c0.17802,0.5473 0.21292,1.09977 0.15465,1.6556c0.0218,0.04808 0.04245,0.09715 0.06191,0.14714l0.10341,0.0244l-0.02448,0.20547c0.06958,0.23244 0.11414,0.48112 0.12908,0.74071c0.03332,0.57879 -0.08587,1.12105 -0.31351,1.56227l-0.11787,0.23406l-0.06329,0.53114c-0.06518,0.63682 -0.31652,1.19812 -0.68572,1.5839c0.00164,0.06114 0.00378,0.1221 0.00659,0.1828c0.52236,0.42942 0.88904,1.16249 0.93797,2.01263l0.12305,2.13767c0.1407,0.37256 0.30074,0.74956 0.48964,1.12864l0.00804,0.23932l0.06605,-0.03329l0.93764,2.93475c0.08953,0.263 0.14652,0.54885 0.16382,0.84933c0.06193,1.07587 -0.40307,2.02554 -1.11218,2.43464c0.06297,0.21652 0.10588,0.43877 0.11619,0.67071c0.02019,0.45425 -0.03374,0.89837 -0.12452,1.33607c0.09537,0.72419 0.19724,1.44263 0.31056,2.15078z" data-paper-data="{&quot;index&quot;:null}" fill="#7f7976" stroke-width="0.5"/><g stroke-width="0.5"><path d="M296.17607,310.83137l-2.60905,-2.59043c-1.01638,0.05447 -2.11361,0.63287 -2.76355,0.87246c-2.63788,-0.24246 -2.15538,0.27982 -4.73269,0.02372c-0.10491,-0.01042 -0.21188,-0.01804 -0.32033,-0.02369c-1.00306,0.31982 -2.28952,-2.34284 -3.31503,-2.48748c-1.41758,-0.19993 -2.89678,-0.94389 -4.28077,-1.22815c-2.21558,-0.45506 -4.54535,0.87473 -6.61759,0.76851c-0.57056,-0.02925 -1.06706,-0.2342 -1.55912,-0.44968c-0.66579,0.24196 -1.39951,0.40239 -2.33249,0.33759c-0.38129,-0.02648 -0.77146,-0.17691 -1.16757,-0.39174c-0.37766,0.07059 -0.75602,0.11986 -1.13378,0.10559c-1.29154,-0.04879 -2.29962,-1.33285 -3.53461,-1.05317c-0.52288,0.11841 -0.75212,0.58125 -1.25239,0.73977c-0.98698,0.31274 -2.04404,0.55301 -3.1194,0.64551c-0.73364,0.0631 -1.4575,-0.25173 -2.19116,-0.18872c-1.29364,0.11111 -2.29699,0.87734 -3.5291,1.17663c-0.5875,0.14271 -1.28637,0.0533 -1.82588,0.26807c-0.94257,0.37523 -1.52466,1.09667 -2.22617,1.68961c-0.15376,0.45627 -0.41926,0.86696 -0.89489,1.12215c-2.62615,1.40905 -8.01814,0.58035 -9.51272,-1.2953c-0.17971,-0.22553 -0.30184,-0.46725 -0.37933,-0.72004c-1.11918,-1.19411 -0.7397,-3.1659 -1.66072,-4.41874c0,0 -0.24632,-0.35215 -0.20396,-0.77683c-0.34389,-0.08614 -0.63584,-0.2026 -0.80109,-0.38363c-0.69779,-0.76443 -0.56805,-1.80663 -0.36029,-2.7048c0.12398,-0.53597 0.98078,-0.87731 1.30416,-1.37565c0.5946,-0.91632 -0.90423,-1.40502 -1.01386,-2.25787c-0.08293,-0.64515 0.58519,-1.25655 0.6362,-1.90484c0.04163,-0.52913 -0.38141,-1.03502 -0.36324,-1.56448c0.01558,-0.45384 0.50374,-0.87769 0.46258,-1.33011c-0.04702,-0.51681 -0.74178,-0.9497 -0.71717,-1.46808c0.07086,-1.49262 1.27676,-3.17511 1.40857,-4.7568c0.08354,-2.61125 0.80072,-4.21149 4.76696,-5.30456c1.29828,-0.3578 3.012,0.12411 4.13619,-0.44787c0.66212,-0.33688 0.69578,-1.15162 1.45969,-1.36364c0.85584,-0.23754 1.81548,-0.06236 2.7495,0.01093c0.09455,-0.31987 0.15392,-0.6531 0.52876,-0.81037c0.91454,-0.38371 2.10832,-0.2717 3.17403,-0.30973c0.35938,-0.01282 0.82415,0.3526 1.04878,0.15906c0.54338,-0.46816 -0.0481,-1.46139 0.74887,-1.70786c1.05184,-0.32529 2.22476,0.44658 3.37279,0.43319c0.60796,-0.00709 1.07979,-0.45879 1.68653,-0.4922c0.95692,-0.05269 1.90804,0.07722 2.86056,0.16308c0.79943,-0.59152 1.96227,-1.00294 3.11252,-1.13638c1.09387,-0.12691 2.11571,0.44985 3.21476,0.52431c1.40797,0.09538 2.83445,0.03571 4.25203,0.0089c1.87203,-0.0354 3.0977,-0.82568 5.13345,-0.50955c0.92076,0.14299 1.5647,0.71216 2.29812,1.11181c0.23299,0.12695 0.31477,0.55153 0.58664,0.46008c0.50494,-0.16985 0.40758,-0.80392 0.91778,-0.96614c1.40699,-0.44738 4.72836,-0.40306 6.15861,-0.06806c0.56529,0.1324 0.78579,0.73645 1.38415,0.76935c0.59245,0.03258 0.96766,-0.57661 1.56198,-0.60735c1.406,-0.07271 2.87406,-0.01223 4.19176,0.3098c0.78848,0.19269 1.13171,0.85171 1.83167,1.16222c1.35334,0.60037 3.12359,0.66554 4.50301,1.23832c1.55802,0.64693 2.85183,1.88693 3.9674,2.7986c0.05518,0.72756 0.21952,1.45377 0.16555,2.18269c-0.02382,0.32162 -0.56273,0.63254 -0.39616,0.93171c0.30675,0.55092 1.63892,0.75799 1.66655,1.34985c0.03792,0.81235 -1.01877,1.48422 -1.49921,2.2348c-0.55192,0.86226 -0.83463,1.7905 -1.28453,2.67869c-0.19715,0.38921 -0.7803,0.72464 -0.73084,1.13204c0.05068,0.41743 0.86115,0.64121 0.99566,1.04896c0.2357,0.71444 0.1545,1.4693 0.07726,2.20331c-0.1318,1.25255 -0.20443,3.69467 -0.62513,4.84556c-0.21844,0.59759 -0.81384,1.10615 -1.28851,1.63337c-0.19381,0.21528 -0.77171,0.33903 -0.70869,0.58497c0.09362,0.36531 0.89066,0.48351 1.07187,0.83227c0.91837,1.76752 1.45691,6.03855 -0.72875,7.48873c-0.94443,0.62663 -2.1466,1.24769 -3.4531,1.30935c-0.40121,0.01893 -0.74856,-0.09797 -1.0804,-0.26118c-1.08756,0.15455 -1.22168,-0.00043 -1.22168,-0.00043z" fill="#7f7976"/><g fill="#aeaaa7"><path d="M264.29352,279.8445c-0.45245,0.18742 -0.21064,0.76085 -0.03086,1.31024c-1.14569,0.10867 -2.26927,0.42362 -3.36163,0.75565c-0.08236,0.02503 -0.16431,0.05102 -0.24589,0.07789c-0.04547,0.00324 -0.09069,0.00791 -0.13562,0.01419c-1.59554,0.22278 -3.08834,0.89355 -4.52314,1.55554c-0.1599,0.07377 -0.30849,0.16664 -0.45015,0.27079c-0.42784,-0.26431 -0.82246,-0.63385 -1.31549,-0.75735c-0.53596,-0.13425 -4.16305,-0.38175 -5.99574,-0.4396c0.05972,-0.04381 0.12094,-0.08554 0.18389,-0.12483c0.69917,-0.43631 1.98511,-0.99184 3.2861,-1.46429c0.19242,-0.00048 0.38487,-0.01771 0.57738,-0.05611c0.21034,-0.04195 0.36662,-0.16214 0.50161,-0.31518c0.82859,-0.26883 1.59527,-0.4778 2.13936,-0.57009c0.83682,-0.14193 1.71755,0.24109 2.54914,0.076c1.25022,-0.2482 2.55125,-0.58919 3.56119,-1.28907c0.52754,-0.36558 0.94743,-0.85129 1.27683,-1.38166c0.98652,0.89462 4.2116,-0.01538 5.89398,0.51124c2.97761,0.93205 5.81544,2.14433 9.19387,1.48266c0.87527,-0.17142 1.49511,-0.95586 2.36901,-1.13282c1.42877,-0.28932 2.75855,0.84154 4.0863,1.36915c0,0 1.16428,0.455 2.20588,-0.02256c0.43099,0.6361 0.85154,1.28408 1.49565,1.67763c-1.20639,0.74769 -2.40372,1.89552 -3.42451,1.25516c-1.09563,-0.6873 -1.7015,-1.83428 -2.55226,-2.75141c-1.11102,0.92839 -2.39954,1.71633 -3.33305,2.78518c-0.02714,0.03108 -0.04656,0.07098 -0.05987,0.11722c-0.1278,0.02008 -0.25585,0.04034 -0.38405,0.06047c-0.10099,-0.60143 -0.13795,-1.22747 -0.70437,-1.41525c-0.94985,-0.31489 -1.79877,1.07805 -2.81718,1.06879c-0.47697,-0.00433 -0.28675,-0.87026 -0.6828,-1.10061c-1.18476,-0.68909 -2.45446,-1.59441 -3.88128,-1.55399c-1.17962,0.03342 -1.81352,1.4626 -2.95153,1.74759c-0.11035,0.02764 -0.22016,0.0339 -0.3297,0.02496c-0.10088,-0.01494 -0.2008,-0.03396 -0.2996,-0.05782c-0.1277,-0.03688 -0.25536,-0.08684 -0.3834,-0.14003c-0.63645,-0.41437 -0.75535,-1.87877 -1.45811,-1.58767z"/><path d="M300.19254,280.36706l1.45175,1.68337c-0.52411,-0.03123 -1.10218,-0.04938 -1.73829,-0.05307c-0.93896,-0.00545 -1.40276,0.78594 -1.7991,1.69047c-0.51323,-1.04655 -1.00592,-2.16851 -2.05268,-2.78167c-0.09659,-0.05657 -0.21866,-0.10657 -0.36212,-0.15047c0.25142,-0.22995 0.50568,-0.45231 0.7737,-0.64307c0.34325,-0.2443 0.69757,-0.47787 1.06134,-0.70013c0.76304,0.57418 1.61644,0.95856 2.66541,0.95458z"/><path d="M297.67474,279.33608l-0.0689,0.02858c0.02122,-0.01283 0.04248,-0.02561 0.06376,-0.03836z"/><path d="M243.54135,285.02601c-0.46999,-0.31445 -0.72802,-0.57739 -0.06372,0.0354c-1.24756,0.69148 -2.44686,1.25825 -3.78902,1.60992c0.68311,-1.47137 -1.05904,-3.33536 1.81707,-2.52979c0.79999,0.14552 1.60433,0.49102 2.40518,0.67615c-0.12378,0.07057 -0.2469,0.14004 -0.36952,0.20832z"/></g></g></g><g fill-rule="nonzero" stroke="none" stroke-width="0" stroke-linecap="butt"><path d="M410.3246,208.60955l4.01117,-19.94258l58.05878,23.33156l-11.14309,17.38447l-20.00478,-8.47034c0,0 0.68889,-8.05982 -2.67278,-9.42145c-3.73236,-0.73982 -8.80502,5.04981 -8.80502,5.04981z" fill="#000000"/><path d="M413.7238,189.8067l0.82427,-1.18406l57.95153,23.17502l-0.22397,1.43096z" fill="#ffffff"/></g><g fill-rule="nonzero"><path d="M98.19464,-3.21426c0,0 -0.03615,-1.85567 0.91753,-2.98624c1.85105,-2.19439 9.41581,-9.26376 9.41581,-9.26376l8,1.66667l-10.16667,17.25c0,0 -3.72988,-1.97847 -5.09252,-3.09083c-1.35958,-1.10986 -3.07415,-3.57584 -3.07415,-3.57584z" fill="#929292" stroke="#c3c3c3" stroke-width="2" stroke-linecap="butt"/><path d="M138.18003,-10.06746v-11.44444h41v11.44444z" fill="#000000" stroke="none" stroke-width="0" stroke-linecap="butt"/><path d="M107.86334,-15.14678l7,-23c0,0 2.94217,-9.29302 14.71616,-14.06668c5.39372,-2.18684 12.83841,-2.0425 22.35223,-2.07557c28.13181,-0.09779 34.18161,19.64226 34.18161,19.64226l-0.25,26.75l-10.54249,-0.75075c0,0 5.71748,-19.33251 -12.50931,-20.23957c-17.19148,-0.85554 -15.85173,18.45902 -15.85173,18.45902c0,0 -11.84434,-0.52867 -17.7829,-1.24542c-6.93762,-0.83733 -21.31357,-3.47328 -21.31357,-3.47328z" fill="#c3c3c3" stroke="none" stroke-width="0" stroke-linecap="butt"/><path d="M173.75308,-12.34968l-24.53135,-1.17557" fill="none" stroke="#7b7b7b" stroke-width="6" stroke-linecap="round"/><path d="M146.93363,-10.50683c0,0 -1.13246,-1.97855 -0.94116,-3.22587c0.25377,-1.65459 2.33005,-5.82968 2.33005,-5.82968l1.5,1.25l-1.875,8.25z" fill="#000000" stroke="none" stroke-width="0" stroke-linecap="butt"/><path d="M139.36361,-42.8651c0,0.9665 -0.67157,1.75 -1.5,1.75c-0.82843,0 -1.5,-0.7835 -1.5,-1.75c0,-0.9665 0.67157,-1.75 1.5,-1.75c0.82843,0 1.5,0.7835 1.5,1.75z" fill="#ffffff" stroke="none" stroke-width="0" stroke-linecap="butt"/></g><g fill-rule="nonzero"><path d="M198.09106,-2.41175c0,0 2.66761,-16.20881 4.51516,-23.45692c1.75922,-6.90157 6.31817,-19.04308 6.31817,-19.04308c0,0 2.93778,-5.86435 11.33906,-5.63451c1.39981,0.03829 6.35357,0.34868 10.46675,1.11549c3.80193,0.70878 6.81286,1.88035 7.35204,1.87052c6.28372,-0.11453 9.40189,-4.34187 14.68745,-3.24235c8.21686,1.70929 10.98804,8.22417 10.98804,8.22417c0,0 5.36216,12.33504 7.08942,18.64218c1.91915,7.00781 3.91058,21.52449 3.91058,21.52449z" fill="#9a9393" stroke="none" stroke-width="0" stroke-linecap="butt"/><path d="M286.54751,-1.19448c0,2.34721 1.71717,5.10175 -51.25,4.58334c-38.21508,-0.37403 -47.01031,-0.31549 -48.8839,-1.6065c-0.52758,-0.36353 -0.19943,-1.29443 -0.19943,-1.81016c0,-2.34721 20.77874,-5.41667 49.08333,-5.41667c28.3046,0 51.25,1.90279 51.25,4.25z" fill="#000000" stroke="none" stroke-width="0" stroke-linecap="butt"/><path d="M198.49435,-3.90504c0,0 17.72984,-2.30668 27.1557,-2.56563c10.64719,-0.29251 33.01096,0.39896 33.01096,0.39896" fill="none" stroke="#ffffff" stroke-width="1.5" stroke-linecap="round"/></g></g></g></svg>