<svg version="1.1" xmlns="http://www.w3.org/2000/svg" xmlns:xlink="http://www.w3.org/1999/xlink" width="117.48999" height="205.03327" viewBox="0,0,117.48999,205.03327"><g transform="translate(-196.12513,-111.83597)"><g stroke="none" stroke-miterlimit="10"><g stroke-width="1"><path d="M299.08106,222.40367c0.46303,0.66555 0.69518,1.8899 0.69645,3.67308l-0.13439,13.03472c0.04612,4.91 -0.03449,8.64587 -0.24185,11.2076c-0.08099,3.34031 -0.55232,8.47006 -1.41399,15.38925l-3.62564,23.73374c-1.26904,4.90999 -2.42033,8.4261 -3.45386,10.54833c-0.61243,1.3311 -1.1772,2.32942 -1.69434,2.99497l-2.85056,3.0138c-3.33898,2.90079 -5.91018,4.96651 -7.71359,6.19715c-3.01713,2.10967 -5.88224,3.44704 -8.59536,4.01213l-5.68146,0.48975c-17.25436,0.56509 -31.3008,-0.26999 -42.1393,-2.50522c-5.0487,-1.0046 -8.83219,-2.45499 -11.35045,-4.35118c-1.6242,-1.10507 -2.80717,-2.21641 -3.5489,-3.33403c-1.28597,-1.23064 -2.46144,-2.85056 -3.5264,-4.85976c-1.41465,-2.78777 -2.09651,-7.07617 -2.04557,-12.86519c-0.06083,-5.68856 0.15193,-10.48555 0.63829,-14.39094c0.60927,-5.78902 2.65602,-15.15066 6.14026,-28.08492c1.197,-4.23189 2.19357,-7.35244 2.9897,-9.36164c3.33582,-7.35871 5.5757,-12.99077 6.71963,-16.89616c0.40317,-1.44412 0.81369,-2.49895 1.23158,-3.1645c0.69918,-1.23064 1.55209,-1.90246 2.55874,-2.01548c0.46722,-0.059 0.97993,0.0052 1.53818,0.1926c12.33654,7.69359 25.71193,13.22408 41.67684,13.43071c7.02423,0.09091 15.33624,0.39872 22.49298,-2.25874c3.42396,-1.2714 7.2534,-2.67735 10.88109,-4.4879c0.17021,0.19431 0.32086,0.41359 0.45193,0.65786z" fill="#cccccc"/><path d="M304.36368,218.39153c-0.72093,5.78902 -1.57624,19.33232 -2.56594,40.6299c-0.12154,3.56634 -0.32743,6.96315 -0.61767,10.19044c0.0413,0.56509 0.01346,1.23692 -0.0835,2.01549l-0.16655,1.33738c-0.84184,10.24694 -1.98688,18.99327 -3.43514,26.23896l-0.35516,1.50691c-0.41881,1.56969 -0.83095,2.68731 -1.23642,3.35286c-1.07483,1.55714 -2.49315,2.3357 -4.25498,2.3357c-1.73367,-0.22604 -2.83855,-1.11761 -3.31462,-2.67475c-0.21156,-0.89159 -0.13607,-1.89619 0.22643,-3.01381l1.37761,-7.17663c0.65621,-1.68271 1.14531,-2.96985 1.46726,-3.86144c0.98901,-2.56173 1.70558,-5.62577 2.14971,-9.19212c0.08288,-0.66555 0.4227,-3.8426 1.01945,-9.53117c0.27616,-3.11427 0.46178,-6.39807 0.55684,-9.85138l2.04409,-37.63493c-5.04543,3.35286 -10.58081,5.80786 -16.60612,7.36499c-7.15769,1.78317 -15.98714,1.94642 -26.48835,0.48974c-10.47462,-1.67015 -18.55159,-4.06236 -24.23089,-7.17663c-3.18992,-1.78317 -5.96707,-3.79237 -8.33144,-6.02761c-6.34904,14.71743 -11.27772,30.43319 -14.78601,47.14726c0.26462,0.56509 0.27887,1.79573 0.04273,3.69191c-1.00118,5.34951 -1.81314,11.42107 -2.43584,18.2147c-0.01345,1.0046 -0.04685,2.56802 -0.10021,4.69024c0.408,2.90079 0.44399,4.85349 0.10796,5.85809c-0.48668,1.21808 -1.14984,2.10966 -1.98947,2.67475c-0.41787,0.66555 -1.08135,1.11134 -1.99041,1.33738c-1.27231,0.55253 -2.37066,0.10674 -3.29506,-1.33738c-0.08351,-0.22604 -0.15999,-0.50858 -0.22944,-0.84763c-0.26618,-0.55253 -0.45627,-1.21808 -0.57023,-1.99665c0.04222,-0.33905 0.02158,-0.6216 -0.06194,-0.84763c-0.27039,-4.00585 0.10257,-9.24234 1.11887,-15.70947c1.31894,-9.69441 3.50488,-20.17368 6.5578,-31.43778c3.02311,-10.92506 6.84365,-22.12637 11.46166,-33.60396c0.35484,-1.00093 0.73953,-1.84178 1.15409,-2.52254c0.00661,0.00204 0.01321,0.00407 0.01982,0.00611c1.45468,0.44836 2.99964,0.52953 4.58085,0.4507c13.02437,8.50606 27.11325,14.79041 44.15157,15.01093c7.02423,0.09091 15.33624,0.39872 22.49298,-2.25874c5.32219,-1.97625 11.62408,-4.27761 16.62513,-7.91827c-0.00316,0.02534 -0.00632,0.05071 -0.00948,0.0761z" fill="#000000"/></g><path d="" fill="#000000" stroke-width="1"/><path d="" fill="#000000" stroke-width="1"/><path d="" fill="#000000" stroke-width="1"/><path d="" fill="#000000" stroke-width="1"/><path d="" fill="#000000" stroke-width="1"/><g stroke-width="1"><path d="" fill="#000000"/><path d="" fill="#000000"/><path d="" fill="#000000"/><path d="" fill="#000000"/><path d="" fill="#e16f6f"/><path d="" fill="#c2e16f"/><path d="" fill="#6f7ce1"/></g><path d="M305.30926,183.45294c1.71234,5.19318 2.85823,12.0234 3.43767,20.49069c0.08212,3.71837 0.0795,5.94317 -0.00787,6.67444c-0.07,1.48702 -0.46148,3.462 -1.17444,5.92495c-1.75666,6.69279 -4.10393,11.67012 -7.04176,14.93196c-2.819,3.16836 -7.76846,6.34539 -14.84838,9.53106l-4.86604,2.12826c-5.64314,1.8739 -12.99209,2.05462 -22.04688,0.54212c-1.26203,-0.15078 -3.1372,-0.47651 -5.62552,-0.97717c-2.99319,-0.68061 -7.34537,-2.00212 -13.05654,-3.96452c-1.6382,-0.50676 -3.12238,-1.0011 -4.45251,-1.48303c1.4236,0.60075 2.89509,1.20125 4.41447,1.80149l5.93331,2.30596c3.55541,1.38182 6.00496,2.20685 7.34867,2.47506c1.23808,0.3513 3.2135,0.68899 5.92628,1.0131l15.86975,1.89605c1.93647,-0.18734 4.08898,-0.88123 6.45754,-2.08167c2.81852,-1.36201 4.65918,-2.09914 5.52197,-2.21139c2.42112,-0.30413 4.08694,0.27599 4.99743,1.74038c-0.17112,0.10905 -0.33667,0.21426 -0.49627,0.31483c-1.41787,0.89347 -2.98337,0.8332 -4.22788,1.79615c-0.20244,0.15663 -0.51008,0.5517 -0.86211,1.0653c-2.16363,0.45693 -4.24052,0.71313 -5.66907,0.6529c-3.11939,-0.13153 -6.32699,2.09107 -9.43382,1.88749c-5.19494,-0.34042 -10.59448,-0.41707 -15.97506,-0.75611c-5.92503,-2.74414 -12.89199,-3.12519 -18.8175,-5.90379c-1.81699,-0.85202 -4.90083,-1.00789 -6.42925,-2.36755c-4.23783,-3.76993 -8.66827,-7.12416 -12.94137,-10.77416c-0.08089,-0.16934 -0.1676,-0.33559 -0.25992,-0.49842c0.57282,-0.69644 1.24102,-1.04204 2.00463,-1.03679c0.85011,-0.0061 1.86179,0.43776 3.03503,1.33162c-2.60526,-2.22536 -4.70138,-4.70689 -6.28837,-7.44464c-1.30518,-2.39302 -2.49833,-5.72373 -3.57944,-9.99211l-0.78688,-4.0777c-0.04415,-0.53166 0.11556,-2.31899 0.47913,-5.36202l1.01177,-5.76493c1.16391,-6.23725 2.25174,-10.88651 3.26349,-13.94779c1.65091,-5.00668 3.89223,-9.14729 6.72392,-12.4218c0.97411,-1.04403 3.19547,-3.16527 6.66407,-6.36369c1.08167,-1.04314 4.02257,-3.87994 8.82266,-8.51035c1.22447,-1.33712 2.17462,-2.18065 2.85046,-2.53057c0.34241,-0.16246 1.66055,-0.53135 3.95441,-1.10667c5.82579,-0.79933 10.17873,-1.23631 13.05876,-1.31093c7.13058,-0.10511 13.91145,0.91439 20.34262,3.0585c2.23655,0.80556 4.1953,1.73343 5.87624,2.78364l2.94415,2.09237c8.86069,7.54261 14.8435,15.69244 17.94841,24.4495z" fill="#cccccc" stroke-width="1"/><path d="M282.28139,150.75218c6.62421,3.2319 12.42885,8.01678 17.41388,14.35462c4.59937,5.8611 8.14904,12.54786 10.64898,20.06027c2.5357,7.3133 3.59708,14.45045 3.18411,21.41146c-0.47593,11.09269 -4.33607,20.72233 -11.58041,28.88891c-1.46303,1.63162 -2.97233,3.15006 -4.52793,4.55527c-0.04349,0.364 -0.08753,0.73261 -0.13211,1.10579c-2.19047,1.09646 -4.19899,2.43883 -5.68777,3.37699c-0.37311,0.23511 -0.75643,0.40418 -1.14145,0.54324l0.00638,-0.13265c-0.20598,0.11315 -0.41282,0.22461 -0.62054,0.33437c-0.87201,0.26615 -1.72932,0.47634 -2.47225,1.05118c-0.07789,0.06027 -0.17137,0.15585 -0.27697,0.27991c-1.01282,0.44718 -2.04505,0.85682 -3.09666,1.22895c-1.2055,0.16739 -2.2987,0.24555 -3.15756,0.20933c-3.11939,-0.13153 -6.32699,2.09107 -9.43382,1.88749c-4.5034,-0.2951 -9.16056,-0.39198 -13.82583,-0.63342c-1.11532,-0.19721 -2.25471,-0.42051 -3.41814,-0.6699c-3.8447,-1.54404 -8.04942,-2.27257 -12.08257,-3.40027c-5.83396,-2.00038 -10.65864,-4.18536 -14.47403,-6.55495c-3.43568,-2.90072 -6.94934,-5.62756 -10.3626,-8.54309c-0.1095,-0.22923 -0.22965,-0.45277 -0.35994,-0.6699c-0.19077,-1.50521 -1.35972,-3.04659 -2.81235,-4.29576c-1.24121,-2.07573 -2.22974,-4.27283 -2.96559,-6.5913c-1.58082,-5.3928 -1.63966,-13.36123 -0.17652,-23.90532c1.13813,-7.72374 2.54162,-13.6632 4.21044,-17.81835c3.13233,-7.59316 8.37584,-14.13255 15.73055,-19.61817c6.40685,-4.76146 14.04422,-8.25737 22.91212,-10.48772c5.03771,-1.3122 9.22505,-1.71513 12.56207,-1.20878c1.67485,0.2001 3.53099,0.68506 5.56845,1.45486zM290.66915,164.65647c-6.35553,-6.38196 -13.69504,-10.2855 -22.01852,-11.71064c-4.98789,-0.90697 -9.83468,-0.79219 -14.54035,0.34435c-5.33079,1.06186 -10.88306,3.52683 -16.6568,7.39493c-4.49384,2.96826 -8.05002,6.04857 -10.66851,9.24089c-4.83205,5.799 -8.19219,14.84834 -10.08041,27.14805c-1.2255,8.45501 -0.92971,15.29134 0.88736,20.50899c2.34267,6.22553 6.71666,11.41969 13.12199,15.58247c4.63091,2.99375 10.90519,5.54979 18.82287,7.66814c9.66113,2.74536 17.67607,3.64911 24.0448,2.71127c6.68629,-0.79223 12.83622,-3.35329 18.44979,-7.68316c5.61217,-4.31807 9.69627,-9.61425 12.25231,-15.88855c4.09477,-10.24163 3.96504,-21.62202 -0.38916,-34.14117z" fill="#000000" stroke-width="1"/><path d="M234.74824,207.35873c1.66818,4.66153 3.71778,7.93305 6.14879,9.81458c2.99271,2.48698 8.29221,4.34036 15.89853,5.56018c2.59305,0.52514 5.25187,0.95047 7.97645,1.27599c1.46254,0.17473 3.09065,0.31543 4.88434,0.42205c0.86278,-0.11225 2.17528,-0.43397 3.93751,-0.96513c2.28029,-0.3616 4.19539,-0.82066 5.7453,-1.3772c0.02537,-0.2123 0.09746,-0.36518 0.2163,-0.45865l3.05479,-1.53715c0.34471,-0.28182 0.9454,-0.9039 1.80209,-1.86627l1.41474,-2.37909c0.95016,-0.84352 1.53113,-1.30048 1.74291,-1.37088c0.5134,-0.69233 1.39171,-1.33509 2.63495,-1.92826c0.99378,-0.40764 1.86855,-0.62015 2.62429,-0.63752c1.48791,-0.03756 2.54113,0.45912 3.15966,1.49007c0.63122,0.92479 0.49641,1.60255 -0.40443,2.03325c-0.03663,0.30666 -0.1738,0.55347 -0.41146,0.74041c-2.72553,3.2872 -5.05982,5.5026 -7.00288,6.64621c-2.90589,2.09329 -7.4683,3.83311 -13.68725,5.21954l-3.2245,0.40432c-0.98161,0.20573 -3.20035,0.10214 -6.6562,-0.31075c-7.23014,-0.86383 -12.78893,-1.89883 -16.67638,-3.10498c-6.25551,-1.81209 -10.84817,-4.27489 -13.77798,-7.38839c-1.32443,-1.33062 -2.32434,-2.72415 -2.99972,-4.18058c-0.78151,-1.46912 -1.54072,-3.5756 -2.27761,-6.31944l-0.12251,-0.17613c0.02537,-0.2123 -0.17425,-0.34382 -0.59886,-0.39455l-0.36565,-0.99476l-0.74041,-0.41146c0.01268,-0.10615 -0.08713,-0.1719 -0.29943,-0.19727l-0.89964,-0.43048l-1.00391,-0.90952l-0.24447,-0.65727l0.51645,-2.97093l0.39455,-0.59886l0.53398,-0.56425l0.47768,0.05707c1.03095,-0.61853 2.15884,-0.74697 3.38372,-0.38529c0.53076,0.06342 0.98424,0.27311 1.36041,0.6291c0.81206,0.31235 1.35571,1.11901 1.63094,2.41998l0.89891,3.14003l1.00391,0.90952l0.04508,0.97439z" fill="#000000" stroke-width="1"/><path d="M279.64256,184.85459l1.66971,-0.60801l0.95671,-0.0472l0.49459,-0.08446c0.75664,-0.12493 1.36978,0.05001 1.83942,0.52482l0.59886,0.39455c0.28041,0.3565 0.41426,0.58784 0.40159,0.69398l0.42405,0.35572l0.10215,0.49671l0.00915,1.27516l0.12118,0.33748l-0.07398,0.61922l0.02817,1.11593c0.16246,0.34241 0.12442,0.66087 -0.11415,0.95536l-0.21418,0.44097l-0.3565,0.28041l-0.19727,0.29943l-0.6932,0.54523l-0.69398,0.40159l-0.65727,0.24447l-3.14918,-0.37625l-0.6002,-0.23321l-0.28041,-0.3565c-0.10615,-0.01268 -0.29943,-0.19727 -0.57983,-0.55378l-0.54523,-0.6932l-0.1874,-1.13496l-0.15923,-0.01903l0.35723,-2.98995l0.2163,-0.45865z" fill="#000000" stroke-width="1"/><path d="M244.84708,177.50323l1.25614,0.15008l0.6002,0.23321l0.59886,0.39455c0.36349,0.46214 0.59832,0.69954 0.70447,0.71222l0.24236,0.67495l0.15923,0.01903c-0.11884,0.09347 -0.08408,0.25315 0.10427,0.47901l-0.03805,0.31845l0.08314,0.65594l-0.23321,0.6002l-0.05707,0.47768l-0.21418,0.44097l-0.15923,-0.01903l-0.25435,0.77712l-0.15923,-0.01903l-0.39243,0.58117l-0.4149,0.91943l-0.33536,0.10348l-0.71301,0.56082l-2.12758,0.53537l-1.25614,-0.15008c-0.62512,-0.07468 -1.08493,-0.23131 -1.37943,-0.46987l-0.58117,-0.39243c-0.28041,-0.3565 -0.4737,-0.5411 -0.57983,-0.55378l-0.12118,-0.33748l0.03593,-0.30076l-0.26271,-0.35439l0.11203,-0.93769l-0.12118,-0.33748c0.1442,-0.30578 0.22828,-0.55892 0.25224,-0.75943l0.07609,-0.63691l0.57202,-0.88272c0.42461,0.05073 0.66228,-0.13621 0.71301,-0.56082l0.15923,0.01903c0.3433,-0.27002 0.52763,-0.51119 0.553,-0.72349l0.51573,-0.26138l2.16563,-0.85383z" fill="#000000" stroke-width="1"/><g stroke-width="1"><path d="M230.77608,168.66222l-0.33748,0.12118c-0.09347,-0.11884 -0.12752,-0.2844 -0.10215,-0.49671c0.08079,0.22499 0.22733,0.35016 0.43964,0.37553M274.54733,150.15116c-0.18084,0.61243 -0.57443,1.25328 -1.18077,1.92255l0.1402,0.17825c-0.22499,0.08079 -0.46265,0.26772 -0.71301,0.56082c-1.36298,0.7942 -2.51319,1.55999 -3.45067,2.29737c-0.67444,0.33814 -1.3024,0.68779 -1.88389,1.04899c-0.10615,-0.01268 -0.20642,-0.02466 -0.30076,-0.03593l-1.16955,0.32682l-1.84929,0.90955l-0.35439,0.26271l-0.49671,0.10215l-4.04953,1.9028l-2.90815,0.46005c-0.23626,0.17516 -0.37342,0.42194 -0.41146,0.74041c-0.33113,0.0681 -0.66272,0.18999 -0.99476,0.36565l-0.43964,-0.37553l-1.75285,-0.04792l-1.13496,0.1874l-0.17613,0.12251l-0.31845,-0.03805l-6.65692,2.39879l-0.03805,0.31845c-0.01268,0.10615 -0.031,0.25948 -0.05495,0.46c-0.41282,-0.04932 -0.84421,0.00681 -1.29419,0.16838l-0.16055,0.14232l-0.31845,-0.03805c-0.75664,0.12493 -1.41301,0.26185 -1.96914,0.41073l-1.47032,0.29089c-0.6378,0.03147 -1.20984,-0.03688 -1.71612,-0.20503l-2.24955,0.05424c0.23766,-0.18694 0.52208,-0.31446 0.85321,-0.38256c-0.85011,0.0061 -1.58138,-0.08126 -2.19381,-0.26211c-0.7191,-0.28929 -1.34684,-0.84281 -1.88318,-1.66056c-0.45696,-0.58097 -0.86041,-1.20938 -1.21033,-1.88523c-0.69932,-1.25594 -1.11495,-2.63349 -1.24687,-4.13266c-0.11225,-0.86278 -0.17425,-3.04747 -0.18595,-6.55404c0.01268,-0.10615 0.02537,-0.2123 0.03805,-0.31845c0.01268,-0.10615 -0.03405,-0.16557 -0.1402,-0.17825c-0.07603,-2.86825 -0.15418,-5.31804 -0.23449,-7.3494l0.22562,-12.55219l1.80149,-4.41447l1.17942,-1.76121l1.65285,-8.57742c0.35509,-0.26862 0.60474,-0.55581 0.74893,-0.86159c0.11884,-0.09347 0.23742,-0.23483 0.35572,-0.42405c0.11884,-0.09347 0.2971,-0.23368 0.53475,-0.42061c0.1442,-0.30578 0.44103,-0.58733 0.89049,-0.84468l0.33748,-0.12118l0.15923,0.01903c0.3565,-0.28041 0.69443,-0.45537 1.01378,-0.52488l4.07698,1.92267c-0.01268,0.10615 0.03405,0.16557 0.1402,0.17825l-0.01903,0.15923c-0.01268,0.10615 0.03405,0.16557 0.1402,0.17825l0.15923,0.01903l2.30723,2.01627c0.18783,0.13011 0.4877,0.27359 0.89964,0.43048l0.12118,0.33748l1.56605,1.46118l6.12987,4.71606c0.75006,0.83132 1.49377,1.71572 2.23113,2.65319c2.35632,2.50665 5.76491,6.41907 10.22577,11.73725c4.41813,4.77473 6.77373,7.28728 7.06683,7.53764c1.34323,2.07457 1.88707,3.73064 1.63155,4.96819M248.6303,125.86215c-2.35632,-2.50665 -4.65016,-4.63499 -6.88153,-6.38499c-0.67966,-0.61954 -1.41987,-1.13268 -2.22066,-1.53939c-0.14368,0.40154 -0.30031,0.86135 -0.46987,1.37943l-0.35439,0.26271c-0.10615,-0.01268 -0.33748,0.12118 -0.69398,0.40159l-0.31979,0.12329c-0.65008,1.83642 -1.31891,3.87995 -2.00652,6.1306c0.10615,0.01268 0.15288,0.0721 0.1402,0.17825c-0.53123,1.74295 -0.96267,3.55166 -1.29429,5.42613c-0.12401,1.03793 -0.19284,3.41634 -0.20648,7.13521l0.3275,6.57095l0.29931,5.45503c0.10568,1.81904 0.29023,3.37834 0.55367,4.67791c0.13103,1.60675 0.35293,2.85348 0.6657,3.74022l0.42061,0.53475c0.2123,0.02537 0.53755,-0.04345 0.97573,-0.20643c3.0562,-1.54895 6.83661,-2.95155 11.34125,-4.20781l2.94621,-0.7785l8.88533,-2.27612c3.26281,-0.67489 5.7065,-1.60316 7.3311,-2.78481c0.34382,-0.17425 0.58784,-0.41426 0.73203,-0.72004c0.03663,-0.30666 -0.08525,-0.63824 -0.36565,-0.99476c-1.98102,-2.0431 -3.72793,-3.8429 -5.24072,-5.3994c-2.7175,-3.08814 -4.81997,-5.51661 -6.3074,-7.28541c-0.75006,-0.83132 -1.34088,-1.64361 -1.77247,-2.43689c-1.68705,-1.90032 -3.19278,-3.51578 -4.51723,-4.84639c-0.63122,-0.92479 -1.28709,-1.64317 -1.96764,-2.15516M248.89046,158.22933c0.44856,-0.14979 0.84475,-0.3118 1.18857,-0.48605c-0.33113,0.0681 -0.66861,0.18928 -1.01244,0.36353c-2.04352,0.28222 -3.45556,0.58605 -4.23616,0.9115c-0.56882,0.25504 -0.96571,0.42296 -1.19069,0.50374c1.74953,-0.42501 3.49977,-0.85593 5.25071,-1.29274z" fill="#000000"/><path d="M239.05824,119.31722c0.16957,-0.51808 0.3262,-0.97788 0.46987,-1.37943c0.80079,0.40671 1.541,0.91984 2.22066,1.53939l-5.925,6.93649c0.01268,-0.10615 -0.03405,-0.16557 -0.1402,-0.17825c0.68761,-2.25064 1.35645,-4.29418 2.00652,-6.1306l0.31979,-0.12329c0.3565,-0.28041 0.58784,-0.41426 0.69398,-0.40159l0.35439,-0.26271M255.11517,132.86371l-19.6117,22.81517c-0.26343,-1.29956 -0.44801,-2.85885 -0.55367,-4.67791l-0.29931,-5.45503l15.94745,-17.52863c1.32443,1.33062 2.83018,2.94609 4.51723,4.84639M268.06939,149.7002c-1.62459,1.18165 -4.06829,2.10992 -7.3311,2.78481l-8.88533,2.27612l11.34209,-12.17511c1.51279,1.5565 3.25969,3.35629 5.24072,5.3994c0.28041,0.3565 0.40229,0.68808 0.36565,0.99476c-0.1442,0.30578 -0.3882,0.54579 -0.73203,0.72004z" fill="#e16f6f"/><path d="M263.19505,142.586l-11.34209,12.17511l-2.94621,0.7785c-4.50464,1.25625 -8.28507,2.65886 -11.34125,4.20781c-0.43819,0.16298 -0.76342,0.2318 -0.97573,0.20643l-0.42061,-0.53475c-0.31276,-0.88674 -0.53466,-2.13348 -0.6657,-3.74022l19.6117,-22.81517c0.4316,0.79328 1.02243,1.60557 1.77247,2.43689c1.48742,1.7688 3.58989,4.19727 6.3074,7.28541z" fill="#c2e16f"/><path d="M234.65049,145.54595l-0.3275,-6.57095c0.01364,-3.71887 0.08248,-6.09728 0.20648,-7.13521c0.33162,-1.87446 0.76306,-3.68318 1.29429,-5.42613l5.925,-6.93649c2.23139,1.75001 4.52522,3.87835 6.88153,6.38499c0.68054,0.51197 1.33642,1.23037 1.96764,2.15516z" fill="#6f7ce1"/></g><path d="M295.19553,217.40774c-1.66785,3.11909 -7.31831,6.38906 -10.16856,8.32305c-2.83807,1.92574 -4.67369,6.27027 -7.36325,8.5756c-3.35294,2.87395 -11.05561,2.376 -14.70066,2.44148c-8.64422,0.15528 -25.00891,-4.05581 -30.78689,-11.45897c-2.78361,-3.56656 -3.10565,-8.33933 -3.71169,-12.58128c-0.42784,-2.99461 -1.82688,-7.42496 -1.0678,-10.46127c0.4803,-1.92118 2.64846,-2.2418 4.15049,-1.3835c2.44582,1.39761 3.47145,11.20758 4.9965,13.95347c2.15307,3.87666 9.27881,6.96797 12.76482,9.45039c2.39646,1.70655 6.22785,0.99415 8.91407,1.66571c3.94773,0.98693 9.52307,2.12568 13.7721,2.05337c0.52944,-0.00901 0.74742,-0.79086 1.23342,-1.00108c1.79073,-0.77459 3.9246,-0.75808 5.71838,-1.47165c0.99384,-0.39535 1.51531,-2.59518 2.31507,-3.21996c3.07273,-2.40045 6.62002,-4.6581 9.38323,-7.4213c0.30994,-1.02849 1.26451,-1.77757 2.39403,-1.77757c1.14021,0 2.10214,0.76332 2.40265,1.80683c0.30695,0.69561 0.26978,1.54229 -0.2459,2.50668z" fill="#000000" stroke-width="0.5"/></g></g></svg>