<svg version="1.1" xmlns="http://www.w3.org/2000/svg" xmlns:xlink="http://www.w3.org/1999/xlink" width="351.7895" height="439.88061" viewBox="0,0,351.7895,439.88061"><g transform="translate(-144.10525,39.94031)"><g data-paper-data="{&quot;isPaintingLayer&quot;:true}" fill-rule="nonzero" stroke-linejoin="miter" stroke-miterlimit="10" stroke-dasharray="" stroke-dashoffset="0" style="mix-blend-mode: normal"><path d="M147.60288,397.4403c0,0 -24.27654,-183.07661 166.68189,-179.26744c190.95843,3.80917 178.96047,179.26744 178.96047,179.26744z" fill="#ffffff" stroke="#000000" stroke-width="5" stroke-linecap="butt"/><g stroke="#000000" stroke-width="5"><path d="M335.62507,333.63143c0,11.95201 -10.90825,18.32269 -23.3677,23.94325c-4.59313,2.07201 -23.61497,5.0311 -35.63793,0.73053c-18.20013,-6.51012 -19.75895,-25.94683 -19.75895,-25.94683c0,0 18.5693,5.30669 29.26649,1.27303c4.9348,-1.8608 5.19121,-11.14627 8.10577,-16.14549c3.40333,-5.8376 9.51052,-7.33732 16.87349,-7.33732c13.6685,0 24.51881,11.5308 24.51881,23.48281z" fill="#ff0000" stroke-linecap="butt"/><path d="M320.89076,324.19227c0,0 -9.5945,17.40201 -19.56901,16.5761" fill="none" stroke-linecap="round"/><path d="M413.46372,355.27651c0,0 -28.15137,1.4493 -45.93839,-8.08564c-17.78702,-9.53492 -21.98516,-19.67649 -14.99323,-29.02042c6.99193,-9.34391 27.07925,-9.18909 44.86627,0.34585c17.78702,9.53494 16.06535,36.76021 16.06535,36.76021z" fill="#ff0000" stroke-linecap="butt"/><path d="M380.55497,334.32969c-7.71697,-3.57779 -24.98272,-16.86799 -24.98272,-16.86799" fill="none" stroke-linecap="round"/><path d="M365.42252,322.79227c-1.33209,11.54157 -14.06775,19.5526 -28.44588,17.89311c-14.37813,-1.65949 -24.95401,-12.36107 -23.62192,-23.90264c1.33209,-11.54157 14.06775,-19.5526 28.44588,-17.89311c14.37813,1.65949 24.95401,12.36107 23.62192,23.90264z" fill="#ff0000" stroke-linecap="butt"/><path d="M327.10679,301.86058c10.29217,2.03302 14.96453,22.33169 14.96453,22.33169" fill="none" stroke-linecap="round"/></g><path d="M446.85329,62.27941c0,14.88637 -14.25578,32.03915 -46.91731,35.9058c-14.04012,1.66216 -34.27525,2.5774 -43.5903,-2.23348c-15.86117,-8.19171 -21.5784,-22.09537 -21.5784,-22.09537l-38.20524,0.91255c0,0 -7.68413,10.76201 -18.9674,18.81816c-4.55749,3.254 -7.33415,5.66356 -14.63863,7.96879c-7.30448,2.30524 -32.36583,4.19983 -42.37245,3.58147c-39.00467,-2.41039 -58.94441,-33.61476 -57.36574,-63.90696c1.9285,-37.00463 54.6702,-78.67068 128.92522,-78.67068c37.47849,0 82.06184,10.96468 111.5573,31.54205c28.94301,20.19195 43.15297,49.8254 43.15297,68.17766z" fill="#ffffff" stroke="#000000" stroke-width="5" stroke-linecap="butt"/><path d="M283.59851,103.68095l10.21357,-30.8081l45.54241,-0.66975l8.70663,31.47785z" fill="#ffffff" stroke="#000000" stroke-width="5" stroke-linecap="butt"/><path d="M454.42046,213.45471c-0.84433,26.12244 -27.14776,48.44733 -66.32,68.9025c-14.47278,7.55749 -26.72627,31.35988 -45.7989,31.35988c-20.5008,0 -30.62156,-11.76892 -49.69691,-19.8731c-22.15843,-9.41405 -47.02603,-15.8639 -64.38236,-28.56493c-19.2261,-14.0693 -29.81048,-34.55461 -29.81048,-47.91055c0,-18.21997 14.85044,-34.68385 38.75739,-46.45822c2.08194,-1.02538 -3.46743,-3.02809 -4.72853,-7.04166c-2.01945,-6.42709 -0.60536,-16.2099 3.81293,-21.83645c4.77605,-6.08216 14.48744,-9.37447 21.5481,-9.45934c3.55001,-0.04267 6.42994,4.85405 7.67556,2.28794c10.86164,-22.37626 21.36171,-47.79215 53.80195,-46.76283c17.98183,0.57057 32.4884,18.13525 44.38763,35.78518c1.30089,1.92962 2.10299,-3.42166 11.46134,-0.78611c8.01454,2.25709 14.50145,8.39727 17.55411,12.72534c2.50189,3.54719 6.45562,10.25386 5.30277,14.55126c-1.35132,5.03729 -7.91089,7.45304 -4.9988,7.89446c33.66689,5.10339 62.58533,19.57276 61.43421,55.18662z" data-paper-data="{&quot;index&quot;:null}" fill="#ffdebc" stroke="#000000" stroke-width="5" stroke-linecap="butt"/><path d="M261.74366,160.15951c-2.20952,8.92015 -25.13132,11.02432 -25.13132,11.02432" fill="none" stroke="#000000" stroke-width="5" stroke-linecap="round"/><path d="M390.64853,157.62549c0,0 -16.89812,3.23821 -22.33169,-14.04364" fill="none" stroke="#000000" stroke-width="5" stroke-linecap="round"/><path d="M290.96171,124.01284c0,0 3.06768,-2.15758 5.05558,-3.29879c2.14428,-1.23096 7.37649,-3.83814 7.37649,-3.83814" fill="none" stroke="#000000" stroke-width="5" stroke-linecap="round"/><path d="M328.25793,111.58077c0,0 5.60281,2.66761 7.80515,4.32903c2.17145,1.63812 5.31759,5.57058 5.31759,5.57058" fill="none" stroke="#000000" stroke-width="5" stroke-linecap="round"/><path d="M324.80458,144.96319c-0.55069,9.85191 4.48192,20.77212 10.40738,25.62558c6.75795,5.53537 14.49374,6.86643 21.74399,11.67423c7.40594,4.91104 16.9398,13.82763 13.20268,23.47922c-2.36158,6.0991 -12.1484,5.89402 -20.38735,10.76378c-13.89151,8.21082 -11.50426,15.52412 -28.42005,15.02126c-17.61387,-0.52362 -17.4198,-9.03963 -32.59029,-15.43542c-10.54899,-4.4474 -16.7775,1.23186 -21.51226,-9.1985c-4.4829,-9.87552 13.11829,-27.89796 27.16639,-17.03655" fill="none" stroke="#000000" stroke-width="5" stroke-linecap="round"/><path d="M376.52514,41.22757c0,0 -5.42701,35.57093 -60.77338,34.69289c-46.41048,-0.73627 -52.07805,-30.507 -52.07805,-30.507" fill="#ffffff" stroke="#000000" stroke-width="5" stroke-linecap="round"/><path d="M208.02508,395.89397l3.68358,-45.12383" fill="none" stroke="#000000" stroke-width="5" stroke-linecap="round"/><path d="M438.24868,346.16568l8.28805,50.64919" fill="none" stroke="#000000" stroke-width="5" stroke-linecap="round"/><path d="M292.3,153.05l0.02925,-0.50655l-0.90096,-2.70288l0.12329,-0.0411l-0.2193,-0.34902c-0.01582,-2.47526 0.29294,-4.61271 0.73082,-6.93041c-2.34612,-0.18357 -4.72035,-0.142 -7.0569,0.02144c-0.0761,0.00532 -3.61814,0.47261 -4.08528,0.91183c-3.33007,3.13105 -3.50862,7.97408 -3.62093,12.09669c-0.00924,0.33934 -0.51703,2.02102 0.33293,2.38498c1.4683,0.62874 3.79486,0.05743 5.26558,-0.21679c3.28637,-2.01983 6.50499,-2.71825 9.90295,-3.10117c-0.50145,-0.71038 -0.50145,-1.56703 -0.50145,-1.56703zM297.99783,144.55h0.80218v2.5c-0.03024,1.05578 0.43291,2.25005 -0.09071,3.16733c-0.11091,0.19429 -0.23181,0.38108 -0.36103,0.56162l0.09547,0.05728l-1.15086,1.9181l0.00713,0.29566c0,0 0,0.58676 -0.28426,1.19175c0.66904,-0.05453 1.34781,-0.11221 2.03792,-0.17958c1.74564,-0.17042 5.51869,1.1574 5.75681,-1.74074c0.16779,-2.04216 -3.12438,-5.43004 -4.27824,-7.00366l-1.73223,-1.26777c0,0 -0.17693,-0.13269 -0.38607,-0.37177c-0.25451,-0.07788 -0.51017,-0.15162 -0.76687,-0.22138zM303.81319,141.58776l0.25458,0.19446c1.18924,1.56173 2.22781,3.233 3.30685,4.87279c2.75485,4.18645 3.76356,9.95436 -2.28405,12.26668c-0.97169,0.37153 -4.29361,-0.01222 -5.54423,0.11613c-5.62442,0.57719 -9.8474,0.40722 -14.84485,3.34397c-2.77732,0.57747 -7.09977,1.58855 -9.73442,-0.21679c-3.05143,-2.09092 -2.60536,-3.58907 -2.66707,-6.61502c-0.10303,-5.05198 0.61853,-8.40798 3.35627,-12.78624c0.6567,-1.05022 1.07663,-2.31772 2.02281,-3.11707c1.532,-1.29428 5.00586,-1.93052 6.91472,-2.08817c5.94353,-0.49087 12.08563,-0.02629 17.63468,2.17029c0,0 1.37312,0.54925 1.58471,1.85896z" fill="#000000" stroke="none" stroke-width="0.5" stroke-linecap="butt"/><path d="M297.62115,143.41408c0.2567,0.06976 0.5165,0.14125 0.77101,0.21913c0.20914,0.23908 0.38768,0.37103 0.38768,0.37103l1.747,1.26381c1.15386,1.57362 4.48875,5.04448 4.32096,7.08664c-0.23812,2.89814 -4.06531,1.58413 -5.81095,1.75455c-0.69011,0.06737 -1.38136,0.11848 -2.0504,0.17301c0.28426,-0.60499 0.28094,-1.19437 0.28094,-1.19437l-0.00852,-0.2969l1.14589,-1.92343l-0.09647,-0.05856c0.12922,-0.18054 0.2476,-0.37102 0.35851,-0.56531c0.52362,-0.91728 0.06487,-2.17028 0.09511,-3.22606l0.01601,-2.51247l-0.75202,0.08623z" data-paper-data="{&quot;noHover&quot;:false,&quot;origItem&quot;:[&quot;Path&quot;,{&quot;applyMatrix&quot;:true,&quot;segments&quot;:[[297.99783,144.55],[298.80001,144.55],[[298.80001,147.05],[0,0],[-0.03024,1.05578]],[[298.7093,150.21733],[0.52362,-0.91728],[-0.11091,0.19429]],[[298.34827,150.77895],[0.12922,-0.18054],[0,0]],[298.44374,150.83623],[297.29288,152.75433],[297.30001,153.04999],[[297.01575,154.24174],[0.28426,-0.60499],[0.66904,-0.05453]],[[299.05367,154.06216],[-0.69011,0.06737],[1.74564,-0.17042]],[[304.81048,152.32142],[-0.23812,2.89814],[0.16779,-2.04216]],[[300.53224,145.31776],[1.15386,1.57362],[0,0]],[298.80001,144.04999],[[298.41394,143.67822],[0.20914,0.23908],[-0.25451,-0.07788]],[[297.64707,143.45684],[0.2567,0.06976],[0,0]]],&quot;closed&quot;:true,&quot;fillColor&quot;:[0,0,0,1]}]}" fill="#ffffff" stroke="none" stroke-width="0.5" stroke-linecap="butt"/><path d="M292.34683,153.0675c0,0 -0.00302,0.86324 0.49843,1.57362c-3.39796,0.38292 -6.67386,1.10539 -9.96023,3.12522c-1.47072,0.27422 -3.81848,0.83341 -5.28678,0.20467c-0.84996,-0.36396 -0.34879,-2.05346 -0.33955,-2.3928c0.11231,-4.12261 0.30671,-9.03689 3.63678,-12.16794c0.46714,-0.43922 4.03484,-0.91346 4.11094,-0.91878c2.33655,-0.16344 4.74422,-0.19198 7.09034,-0.00841c-0.43788,2.3177 -0.73075,4.48543 -0.71493,6.96069l0.2196,0.35185l-0.12327,0.04134l0.89893,2.72103l-0.03026,0.50954z" data-paper-data="{&quot;noHover&quot;:false,&quot;origItem&quot;:[&quot;Path&quot;,{&quot;applyMatrix&quot;:true,&quot;segments&quot;:[[292.3,153.05],[292.32925,152.54345],[291.42829,149.84057],[291.55158,149.79947],[[291.33228,149.45045],[0,0],[-0.01582,-2.47526]],[[292.0631,142.52004],[-0.43788,2.3177],[-2.34612,-0.18357]],[[285.0062,142.54148],[2.33655,-0.16344],[-0.0761,0.00532]],[[280.92092,143.45331],[0.46714,-0.43922],[-3.33007,3.13105]],[[277.29999,155.55],[0.11231,-4.12261],[-0.00924,0.33934]],[[277.63292,157.93498],[-0.84996,-0.36396],[1.4683,0.62874]],[[282.8985,157.71819],[-1.47072,0.27422],[3.28637,-2.01983]],[[292.80145,154.61702],[-3.39796,0.38292],[-0.50145,-0.71038]],[292.3,153.04999]],&quot;closed&quot;:true,&quot;fillColor&quot;:[0,0,0,1]}]}" fill="#ffffff" stroke="none" stroke-width="0.5" stroke-linecap="butt"/><path d="M352.8,145.95541c0,-0.21294 0,-1.19247 0,-1.40541c0,0 0,-0.16713 0.04321,-0.41497c-2.99766,-0.14402 -6.20099,0.24765 -8.36958,0.82251c-0.75157,0.19923 -2.66898,0.95498 -3.25426,1.69434c-0.87885,1.11021 -0.7972,2.7349 -0.93155,4.14448c-0.06385,0.66995 -0.79436,3.11467 -0.57855,4.08632c0.46498,2.09345 2.51049,1.67822 4.09071,1.66733c3.13255,-0.02158 4.7968,-0.39972 7.77143,-1.48953c0.40952,0.0742 0.81977,0.15765 1.22857,0.25191c0,-0.14015 0,-0.235 0,-0.26238c0,-0.27778 0,-0.55556 0,-0.83333c-0.53349,-0.64018 0,-0.83333 0,-1.66667c0,-1 0,-2 0,-3l-0.42536,-1.39366c0,0 -0.31731,-1.26926 0.42536,-2.20093zM357.8,155.05v2.18942c0.04623,0.02793 0.09227,0.05615 0.13813,0.08467c0.64448,0.40083 1.17109,1.51696 1.8891,1.27102c1.04481,-0.35788 1.38464,-1.72203 2.03452,-2.61498c2.37956,-3.26955 0.23308,-5.87351 -2.56175,-7.93013l-1.5,-1.125c0,2.70833 0,5.41667 0,8.125zM362.68456,144.35096c4.4211,3.55708 7.67499,9.58702 3.12476,14.69784c-1.49058,1.67422 -2.87174,3.8743 -5.03654,4.45609c-2.64804,0.71166 -6.16809,-2.82173 -8.7442,-3.46536c-3.8495,1.73139 -11.27711,3.09564 -14.84949,-0.08622c-3.95887,-3.5261 -2.71714,-12.72066 0.20155,-16.50518c3.49368,-4.53008 10.45385,-3.89813 15.41938,-3.89813c0.70614,0 5.27934,-0.02386 5.66733,0.09071c1.14574,0.33833 2.07927,1.17704 3.11891,1.76556c0,0 1.82268,1.09361 1.09832,2.9447z" fill="#000000" stroke="none" stroke-width="0.5" stroke-linecap="butt"/><path d="M357.78007,146.87914l1.50915,1.12203c2.79483,2.05662 4.97351,4.75458 2.59395,8.02413c-0.64988,0.89295 -1.01555,2.26173 -2.06036,2.61961c-0.71801,0.24594 -1.26358,-0.8758 -1.90806,-1.27663c-0.04586,-0.02852 -0.09328,-0.0575 -0.13951,-0.08543l-0.01252,-2.19954c0,-2.70833 0.01736,-5.49584 0.01736,-8.20417z" data-paper-data="{&quot;noHover&quot;:false,&quot;origItem&quot;:[&quot;Path&quot;,{&quot;applyMatrix&quot;:true,&quot;segments&quot;:[[[357.8,155.05],[0,-2.70833],[0,0]],[[357.8,157.23942],[0,0],[0.04623,0.02793]],[[357.93813,157.32409],[-0.04586,-0.02852],[0.64448,0.40083]],[[359.82723,158.59511],[-0.71801,0.24594],[1.04481,-0.35788]],[[361.86175,155.98013],[-0.64988,0.89295],[2.37956,-3.26955]],[[359.3,148.05],[2.79483,2.05662],[0,0]],[[357.8,146.925],[0,0],[0,2.70833]]],&quot;closed&quot;:true,&quot;fillColor&quot;:[0,0,0,1]}]}" fill="#ffffff" stroke="none" stroke-width="0.5" stroke-linecap="butt"/><path d="M352.84149,145.92755c-0.74267,0.93167 -0.4198,2.21194 -0.4198,2.21194l0.42792,1.40447c0,1 -0.00224,2.022 -0.00224,3.022c0,0.83334 -0.53784,1.03599 -0.00435,1.67617c0,0.27777 -0.00244,0.55928 -0.00244,0.83706c0,0.02738 -0.00077,0.12327 -0.00077,0.26342c-0.4088,-0.09426 -0.82147,-0.17476 -1.23099,-0.24896c-2.97463,1.08981 -4.6947,1.48126 -7.82725,1.50284c-1.58022,0.01089 -3.64842,0.4081 -4.1134,-1.68535c-0.21581,-0.97165 0.50594,-3.44109 0.56979,-4.11104c0.13435,-1.40958 0.06225,-3.0676 0.9411,-4.17781c0.58528,-0.73936 2.5273,-1.513 3.27887,-1.71223c2.16859,-0.57486 5.42399,-0.95337 8.42165,-0.80935c-0.04321,0.24784 -0.04216,0.41612 -0.04216,0.41612c0,0.21294 0.00409,1.19776 0.00409,1.4107z" data-paper-data="{&quot;noHover&quot;:false,&quot;origItem&quot;:[&quot;Path&quot;,{&quot;applyMatrix&quot;:true,&quot;segments&quot;:[[[352.8,145.95541],[0,0],[0,-0.21294]],[[352.8,144.55],[0,0.21294],[0,0]],[[352.84321,144.13503],[-0.04321,0.24784],[-2.99766,-0.14402]],[[344.47363,144.95754],[2.16859,-0.57486],[-0.75157,0.19923]],[[341.21937,146.65188],[0.58528,-0.73936],[-0.87885,1.11021]],[[340.28782,150.79636],[0.13435,-1.40958],[-0.06385,0.66995]],[[339.70927,154.88268],[-0.21581,-0.97165],[0.46498,2.09345]],[[343.79998,156.55001],[-1.58022,0.01089],[3.13255,-0.02158]],[[351.57141,155.06048],[-2.97463,1.08981],[0.40952,0.0742]],[[352.79998,155.31239],[-0.4088,-0.09426],[0,-0.14015]],[[352.79998,155.05001],[0,0.02738],[0,-0.27778]],[[352.79998,154.21668],[0,0.27777],[-0.53349,-0.64018]],[[352.79998,152.55001],[0,0.83334],[0,-1]],[[352.79998,149.55001],[0,1],[0,0]],[352.37462,148.15635],[[352.79998,145.95542],[-0.74267,0.93167],[0,0]]],&quot;closed&quot;:true,&quot;fillColor&quot;:[0,0,0,1]}]}" fill="#ffffff" stroke="none" stroke-width="0.5" stroke-linecap="butt"/><path d="M357.08732,236.85316c0,0 -0.14759,-0.59037 0.1751,-1.05025c-2.12877,0.00048 -4.25754,0.00076 -6.38631,0.00055c-7.1015,1.42099 -13.98518,0.85157 -21.16745,0.49484c-0.57084,-0.02835 -1.13952,-0.0537 -1.70619,-0.07728c0.04753,0.18762 0.04753,0.32896 0.04753,0.32896c0,4.09376 -0.33185,8.13624 -0.45485,12.2108c0.27137,0.00761 0.54083,0.02157 0.80795,0.04346c4.90933,0.40231 9.57889,1.89703 14.44589,2.48153c2.89212,0.34733 6.03349,0.01421 8.95101,0.01421c2.19161,0.00508 4.45396,0.15462 6.74598,0.33338c-0.02467,-5.02819 -0.20087,-9.85193 -1.45866,-14.78021zM359.51268,236.24683c1.27712,5.20188 1.49678,10.28027 1.53131,15.58665c4.74136,0.3797 9.54526,0.70682 14.05578,-0.01734c1.54281,-0.2477 1.67523,-1.05773 3.41304,-1.4827c1.26865,-0.31024 3.36045,0.64666 4.35009,-0.61069c1.66692,-2.11782 0.6871,-6.58922 0.6871,-9.17275c0,-2.25668 0,-4.51337 0,-6.77005c-1.1671,0.38658 -2.54712,0.18753 -3.59284,0.83337c-0.45563,0.2814 -0.67753,0.90312 -1.17881,1.09154c-2.00882,0.75506 -5.84423,0.09515 -7.97835,0.09515c-3.83198,0 -7.66396,0.00137 -11.49594,0.00241c0.15437,0.22745 0.20862,0.44442 0.20862,0.44442zM325.55,236.55c0,0 0,-0.18973 0.07392,-0.42135c-7.00088,-0.2625 -13.72273,-0.52032 -20.46263,-3.17348c-2.24545,-0.85921 -4.41451,-1.0466 -6.71077,-1.70502c-0.31204,-0.08947 -0.6124,-0.21229 -0.90736,-0.35037c0.00908,4.85826 0.36195,9.89846 0.47344,14.86041c3.62422,0.83984 7.27992,1.463 11.18052,1.51726c3.2407,0.06066 6.65344,0.99437 9.80311,1.5387c1.94593,0.3363 4.03545,0.12786 6.09319,0.0065c0.12158,-4.09598 0.45658,-8.15844 0.45658,-12.27265zM254.05,215.55c0,0 0,-1.25 1.25,-1.25c1.25,0 1.25,1.25 1.25,1.25c0,5.4213 -0.34758,10.24558 -2.06415,15.39528l0.06415,0.10472c0,0 0,0.01771 -0.00211,0.04891c3.55277,1.91665 7.29829,3.45582 10.95234,4.71724c2.06145,0.04651 2.94261,1.26299 4.9525,1.49322c0.72235,0.08275 1.48602,-0.17787 2.18094,0.03599c0.49335,0.15183 0.95886,0.38631 1.41633,0.64225c0,-4.44497 0,-9.02277 0,-13.33162c-0.90442,-0.33493 -1.78146,-0.65295 -2.60655,-0.90792c-1.9206,-0.59352 -3.96243,-2.47507 -5.76984,-3.41015c-2.02495,-1.19138 -4.31769,-1.86219 -6.1661,-3.32125c-1.15269,-0.90989 -2.22235,-2.14465 -3.4384,-2.95262c-2.77002,-1.84047 -5.93838,-2.95355 -8.5616,-5.04738c-2.40243,-1.91759 -4.4577,-4.17634 -6.54612,-6.42055c-0.20878,2.91632 -0.94855,5.79159 -1.42754,8.6541c-0.4624,2.76334 -0.33378,5.67784 -0.08917,8.57955c1.53925,1.14574 2.92166,2.70659 4.51247,3.65691c0.48646,0.2906 1.16088,0.21373 1.60158,0.56993c0.84085,0.67963 1.18413,1.85806 2.03374,2.52671c1.47312,1.15936 3.03088,2.22142 4.6443,3.19636c1.52413,-4.75251 1.81322,-9.20375 1.81322,-14.22969zM276.98317,239.31349c4.01844,0.62982 7.56451,2.98763 11.64151,4.02941c2.33808,0.59744 4.6165,1.2285 6.88795,1.80625c-0.10609,-5.15417 -0.40503,-10.32441 -0.46031,-15.37251c-0.01315,-0.00342 -0.02632,-0.00678 -0.03951,-0.01008c-0.70886,-0.17722 -1.49919,0.17295 -2.19116,-0.06171c-0.49236,-0.16697 -0.67375,-0.83212 -1.13752,-1.0671c-2.94487,-1.49206 -7.352,-1.42355 -10.53686,-1.84712c-1.47109,-0.19564 -3.04139,-0.67324 -4.59727,-1.21951c0,4.54943 0,9.09887 0,13.6483c0.14195,0.03918 0.28618,0.07103 0.43317,0.09407zM270.11415,271.15471l0.5,-1.5c1.84941,-5.53713 0.63217,-11.38595 2.5,-17c0,0 0.05636,-0.16907 0.19035,-0.35826c-1.85297,-1.10229 -3.69565,-2.17752 -5.62037,-2.65871c-2.86141,-2.72634 -6.22401,-4.43691 -9.54129,-6.52444c-0.18865,-0.11871 -0.37736,-0.24035 -0.56606,-0.36467c-1.98591,3.78979 -4.18881,7.55399 -5.54573,11.56213c1.98891,2.63429 4.36114,5.06365 6.65284,7.35535c1.64242,1.64242 3.52949,4.58231 5.31804,5.84957c0.56123,0.39765 1.41565,0.15284 1.99662,0.52105c0.73793,0.46768 1.1133,1.36943 1.81259,1.89313c0.66917,0.50115 1.45699,0.92298 2.27859,1.31735c0.01308,-0.05846 0.02443,-0.0925 0.02443,-0.0925zM272.98586,270.44528l-0.5,1.5c0,0 -0.05107,0.15321 -0.17157,0.33113c0.54371,0.25825 1.06866,0.52493 1.54957,0.81548c1.60233,0.96809 2.84125,2.49431 4.48533,3.3352c2.1286,1.0887 5.31146,0.62758 7.60354,0.88226c2.44627,0.27181 4.7709,0.93463 7.16937,1.53064c2.70516,0.54792 5.29734,0.31715 8.02631,0.70181c1.65576,0.23338 3.20189,1.00279 4.85182,1.27432c1.60424,0.26402 3.25348,-0.09136 4.87744,-0.01373c4.22313,0.2019 8.44616,0.3222 12.67233,0.39373v-0.64614c0,-5.56647 0.41328,-11.61996 1.77367,-17.1115c-5.23422,-0.28043 -10.44657,-0.77451 -15.62677,-1.64276c-4.44908,0.00999 -9.46658,-0.41753 -14.16785,-1.38976c-0.18987,4.87733 -1.57044,10.48387 -3.04319,15.0393l-0.5,1.5c0,0 -0.39528,1.18585 -1.58114,0.79057c-1.18585,-0.39528 -0.79057,-1.58114 -0.79057,-1.58114l0.5,-1.5c1.4917,-4.30666 2.93407,-10.20942 2.93749,-14.82079c-1.28102,-0.32856 -2.52466,-0.70161 -3.71131,-1.12152c-0.53517,-0.18937 -0.85178,-0.82853 -1.40256,-0.96605c-0.83719,-0.20903 -1.76281,0.22023 -2.58848,-0.03045c-1.24108,-0.3768 -2.11292,-1.61263 -3.36364,-1.95609c-1.38074,-0.37917 -2.83715,-0.51677 -4.164,-1.05498c-0.80225,-0.32541 -1.58994,-0.72468 -2.3697,-1.15699c-1.82231,5.57044 -0.62148,11.35314 -2.46609,16.89743zM249.41612,255.43388c-0.35752,-0.35752 -0.42582,-0.71504 -0.38037,-1.01407c-0.27579,-0.39981 -0.54256,-0.80397 -0.79906,-1.21265c-0.77688,-1.23779 -1.08091,-2.75194 -1.95074,-3.92628c-4.52818,-6.11335 -8.73595,-13.34163 -8.73595,-21.23089c0.02819,-2.27029 -0.20756,-4.6421 -0.42894,-7.03835c-0.08962,-0.19645 -0.13556,-0.43715 -0.06512,-0.71302c-0.28589,-3.17986 -0.49817,-6.38922 0.01021,-9.44886c0.58585,-3.5259 1.47781,-6.96412 1.5173,-10.58696l0.0523,-0.10816c-0.07301,-0.07376 -0.14621,-0.14735 -0.21962,-0.22076c0,0 -0.88388,-0.88388 0,-1.76777c0.49633,-0.49633 0.99266,-0.43525 1.33248,-0.28626c0.17844,-0.26795 0.71524,-0.89547 1.61042,-0.44789c1.11803,0.55902 0.55902,1.67705 0.55902,1.67705l-0.28656,0.54935c2.42209,2.55882 4.71161,5.21992 7.46101,7.42495c2.5595,2.05273 5.72171,3.13594 8.4384,4.95262c1.25782,0.84112 2.38233,2.08911 3.5616,3.04738c1.66828,1.35564 3.92823,1.97715 5.78894,3.06573c1.53546,0.79617 3.66752,2.77211 5.27512,3.20288c2.88092,0.77196 6.25661,2.60552 9.29618,2.95744c3.52907,0.40859 8.19053,0.53659 11.46314,2.15288c0.37971,0.18754 0.45985,0.80159 0.86248,0.9329c0.57357,0.18706 1.22355,-0.20803 1.80884,-0.06171c1.25201,0.313 2.32103,1.16322 3.56229,1.51641c2.36641,0.67335 4.58761,0.89973 6.91449,1.77398c7.7611,3.08445 15.56112,2.76987 23.76872,3.17756c7.06464,0.35092 13.80934,0.91082 20.7941,-0.48545c6.72431,-0.03135 13.44884,-0.01594 20.17321,-0.01594c1.47731,0 5.68802,0.68373 7.02165,0.09515c2.73553,-1.20729 6.11495,-3.51559 9.24855,-4.07385c2.04032,-0.36349 3.67261,-0.42155 5.72411,-0.91445c1.99291,-1.34058 3.84109,-2.10423 6,-3c2.00634,-0.83246 3.53984,-3.18798 5.52734,-4.01171c0.4619,-0.19144 1.05072,0.21943 1.5,0c0.52966,-0.2587 0.73816,-0.92839 1.18587,-1.31183c1.42395,-1.21955 3.1049,-1.70538 4.63532,-2.59664c0.99508,-0.5795 2.04788,-2.09301 2.86468,-2.90336l1.57054,-1.0542c0.20977,-0.16106 0.51506,-0.30777 0.89097,-0.24101c0.23595,0.02138 0.48987,0.12119 0.71953,0.37334c0.25215,0.22966 0.35197,0.48357 0.37334,0.71953c0.06658,0.37494 -0.07919,0.67962 -0.23976,0.88934c-2.17098,3.26847 -3.32836,7.19743 -4.30946,11.08286c-0.30336,1.20138 -0.11337,2.51855 -0.55783,3.67518c-0.16909,0.44004 -0.80742,0.56973 -1,1c-0.3478,0.77706 0.09515,3.13902 0.09515,4.02165c0,2.76648 0.01821,5.5335 -0.01614,8.29977c1.28955,3.86865 1.09404,8.20979 2.38238,12.09943c0.0886,0.05601 0.17812,0.1274 0.26765,0.21692c0.88388,0.88388 0,1.76777 0,1.76777c-1.45354,1.44208 -3.04082,1.97694 -4.653,3.13017c-1.76461,1.26227 -3.16969,2.97753 -5.11848,4.07565c-4.78575,2.69672 -10.15109,4.6209 -15.09009,7.04594c-2.62336,1.28806 -5.01126,2.63215 -7.77232,3.52149c0,0.44762 0,0.89525 0,1.34287v0.5c0,0 0,1.25 -1.25,1.25c-1.25,0 -1.25,-1.25 -1.25,-1.25c0,-0.3165 0,-0.65103 0,-0.99674c-1.85799,0.57902 -3.76046,0.87712 -5.5681,1.60088c-1.46007,0.5846 -2.71274,1.71788 -4.25035,2.04852c-1.88102,0.40448 -3.8472,0.25036 -5.73133,0.5812c-2.29711,0.40335 -4.49112,1.26303 -6.73595,1.9789c0.06052,1.88173 0.15813,3.75026 0.76958,5.58702l0.01614,2.20023c0,0 0,1.25 -1.25,1.25c-1.25,0 -1.25,-1.25 -1.25,-1.25l0.01614,-1.79977c-0.58051,-1.73923 -0.69955,-3.51228 -0.76222,-5.29616c-0.60867,0.14111 -1.22478,0.257 -1.85119,0.33657c-4.18235,0.53127 -8.37114,0.50937 -12.65273,0.50937c-9.88611,0 -19.73068,-0.04307 -29.57767,-0.50242c-0.44271,-0.02065 -4.82504,0.03396 -5.12256,-0.01373c-1.63347,-0.26179 -3.16024,-1.03764 -4.79868,-1.26628c-2.79785,-0.39044 -5.43802,-0.18683 -8.2261,-0.73816c-2.32479,-0.57913 -4.55654,-1.22531 -6.92772,-1.48878c-2.65375,-0.29486 -5.91626,0.10325 -8.39646,-1.11774c-1.76193,-0.86739 -2.98466,-2.42801 -4.67492,-3.4383c-1.93292,-1.15533 -4.46421,-1.96781 -6.25916,-3.30054c-0.63678,-0.4728 -0.93621,-1.33129 -1.60669,-1.75495c-0.61828,-0.39068 -1.52098,-0.16393 -2.11196,-0.5948c-1.93124,-1.40801 -3.91271,-4.38118 -5.68196,-6.15043c-2.37898,-2.37898 -4.81547,-4.9044 -6.88134,-7.63368c-0.1983,-0.04592 -0.40848,-0.15614 -0.61866,-0.36632zM247.981,234.99431c-3.19074,-2.75068 -5.09765,-6.60683 -8.04063,-9.53633c0.06023,0.87731 0.10157,1.74297 0.10963,2.59202c0,7.3979 4.07334,14.02145 8.26405,19.76911c0.37761,0.5179 1.52328,3.14766 1.9856,3.96571c1.43411,-3.60117 3.42228,-7.03095 5.2176,-10.4907c-2.61269,-1.95785 -5.18082,-4.26923 -7.53626,-6.2998zM327.53386,267.25022c-0.76511,4.5147 -1.48386,8.64569 -1.48386,13.29977v0.68301c4.74371,0.06012 9.49218,0.06699 14.25,0.06699c4.19015,0 8.2556,0.0121 12.34727,-0.49063c0.69998,-0.086 1.38633,-0.21772 2.06334,-0.37976c-0.03199,-0.57588 -0.0779,-1.15176 -0.15125,-1.72688c-0.59821,-4.69079 -0.50937,-9.38576 -0.50937,-14.15273c0,0 0,-0.40196 0.22794,-0.75c-1.82598,0 -3.65196,0 -5.47794,0c-6.9563,0 -13.90111,0.04377 -20.81093,-0.23646c-0.18358,1.2216 -0.24714,2.45887 -0.45522,3.68668zM356.55,264.55c0,4.66698 -0.07237,9.25725 0.49063,13.84727c0.05436,0.44321 0.09289,0.8864 0.12172,1.32931c2.14014,-0.69075 4.23731,-1.50204 6.43741,-1.91044c1.85807,-0.34492 3.74964,-0.19258 5.62629,-0.56185c1.38741,-0.273 2.47536,-1.38463 3.78976,-1.90595c2.14367,-0.85022 4.37038,-1.12858 6.53417,-1.93246c0,-0.65416 0,-1.28988 0,-1.86588c0,-1.94335 0.7825,-6.39373 -0.90716,-7.93669c-0.57851,-0.52828 -1.55942,0.18669 -2.34284,0.18669c-2,0 -4,0 -6,0c-4.65931,0 -9.31863,0 -13.97794,0c0.22794,0.34804 0.22794,0.75 0.22794,0.75zM239.91612,223.66611c0.03859,-0.03859 0.07717,-0.0738 0.11568,-0.10587c-0.08854,-0.07889 -0.17708,-0.15786 -0.26573,-0.23668c0.01403,0.1541 0.02785,0.30798 0.04137,0.4616c0.03281,-0.03963 0.06896,-0.07934 0.10867,-0.11905z" fill="#000000" stroke="none" stroke-width="0.5" stroke-linecap="butt"/><path d="M359.26096,235.77707c3.83198,-0.00104 7.70176,-0.02679 11.53374,-0.02679c2.13413,0 6.00995,0.67403 8.01877,-0.08103c0.50128,-0.18842 0.7234,-0.80992 1.17903,-1.09132c1.04571,-0.64584 2.43001,-0.44193 3.59711,-0.82851c0,2.25668 0.00937,4.53382 0.00937,6.79051c0,2.58353 0.97383,7.09053 -0.69309,9.20836c-0.98965,1.25735 -3.09002,0.31119 -4.35867,0.62143c-1.73781,0.42497 -1.88602,1.24513 -3.42884,1.49283c-4.51052,0.72416 -9.37135,0.38275 -14.11272,0.00305c-0.03453,-5.30638 -0.25947,-10.44136 -1.53659,-15.64324c0,0 -0.05374,-0.21784 -0.20812,-0.44529z" data-paper-data="{&quot;noHover&quot;:false,&quot;origItem&quot;:[&quot;Path&quot;,{&quot;applyMatrix&quot;:true,&quot;segments&quot;:[[[359.51268,236.24683],[0,0],[1.27712,5.20188]],[[361.04399,251.83348],[-0.03453,-5.30638],[4.74136,0.3797]],[[375.09978,251.81614],[-4.51052,0.72416],[1.54281,-0.2477]],[[378.51281,250.33343],[-1.73781,0.42497],[1.26865,-0.31024]],[[382.86291,249.72274],[-0.98965,1.25735],[1.66692,-2.11782]],[[383.55,240.55],[0,2.58353],[0,-2.25668]],[[383.55,233.77994],[0,2.25668],[-1.1671,0.38658]],[[379.95717,234.61331],[1.04571,-0.64584],[-0.45563,0.2814]],[[378.77836,235.70484],[0.50128,-0.18842],[-2.00882,0.75506]],[[370.8,235.8],[2.13413,0],[-3.83198,0]],[[359.30406,235.80241],[3.83198,-0.00104],[0.15437,0.22745]]],&quot;closed&quot;:true}]}" fill="#ffffff" stroke="none" stroke-width="0.5" stroke-linecap="butt"/><path d="M356.28041,263.77234c4.65931,0 9.37431,-0.02033 14.03363,-0.02033c2,0 4.0224,0.01375 6.0224,0.01375c0.78342,0 1.76789,-0.71072 2.3464,-0.18244c1.68966,1.54295 0.91716,6.02323 0.91716,7.96658c0,0.576 -0.00063,1.21971 -0.00063,1.87387c-2.1638,0.80388 -4.4,1.10451 -6.54367,1.95474c-1.31441,0.52132 -2.43189,1.65171 -3.81931,1.9247c-1.87665,0.36926 -3.80747,0.2088 -5.66554,0.55371c-2.2001,0.40841 -4.30835,1.20892 -6.44849,1.89967c-0.02883,-0.44292 -0.06984,-0.88973 -0.12421,-1.33294c-0.563,-4.59002 -0.49081,-9.23278 -0.49081,-13.89975c0,0 0.001,-0.40352 -0.22694,-0.75156z" data-paper-data="{&quot;noHover&quot;:false,&quot;origItem&quot;:[&quot;Path&quot;,{&quot;applyMatrix&quot;:true,&quot;segments&quot;:[[[356.55,264.55],[0,0],[0,4.66698]],[[357.04064,278.39727],[-0.563,-4.59002],[0.05436,0.44321]],[[357.16236,279.72658],[-0.02883,-0.44292],[2.14014,-0.69075]],[[363.59978,277.81614],[-2.2001,0.40841],[1.85807,-0.34492]],[[369.22607,277.25429],[-1.87665,0.36926],[1.38741,-0.273]],[[373.01583,275.34834],[-1.31441,0.52132],[2.14367,-0.85022]],[[379.55,273.41587],[-2.1638,0.80388],[0,-0.65416]],[[379.55,271.55],[0,0.576],[0,-1.94335]],[[378.64284,263.61331],[1.68966,1.54295],[-0.57851,-0.52828]],[[376.3,263.8],[0.78342,0],[-2,0]],[[370.3,263.8],[2,0],[-4.65931,0]],[[356.32206,263.8],[4.65931,0],[0.22794,0.34804]]],&quot;closed&quot;:true}]}" fill="#ffffff" stroke="none" stroke-width="0.5" stroke-linecap="butt"/><path d="M327.94842,263.53444c6.90981,0.28023 13.9302,0.22976 20.8865,0.22976c1.82598,0 3.65952,0.00941 5.4855,0.00941c-0.22794,0.34804 -0.2271,0.75141 -0.2271,0.75141c0,4.76697 -0.08643,9.50713 0.51178,14.19793c0.07334,0.57512 0.11719,1.15514 0.14918,1.73102c-0.67701,0.16204 -1.36573,0.29758 -2.06571,0.38359c-4.09167,0.50273 -8.19886,0.51243 -12.38901,0.51243c-4.75782,0 -9.54845,-0.0307 -14.29215,-0.09082l-0.0009,-0.68454c0,-4.65408 0.71588,-8.82842 1.48099,-13.34312c0.20808,-1.22782 0.27735,-2.47548 0.46093,-3.69708z" data-paper-data="{&quot;noHover&quot;:false,&quot;origItem&quot;:[&quot;Path&quot;,{&quot;applyMatrix&quot;:true,&quot;segments&quot;:[[[327.53386,267.25022],[0.20808,-1.22782],[-0.76511,4.5147]],[[326.05,280.55],[0,-4.65408],[0,0]],[[326.05,281.23301],[0,0],[4.74371,0.06012]],[[340.3,281.3],[-4.75782,0],[4.19015,0]],[[352.64727,280.80936],[-4.09167,0.50273],[0.69998,-0.086]],[[354.71061,280.4296],[-0.67701,0.16204],[-0.03199,-0.57588]],[[354.55937,278.70272],[0.07334,0.57512],[-0.59821,-4.69079]],[[354.05,264.55],[0,4.76697],[0,0]],[[354.27794,263.8],[-0.22794,0.34804],[-1.82598,0]],[[348.8,263.8],[1.82598,0],[-6.9563,0]],[[327.98908,263.56354],[6.90981,0.28023],[-0.18358,1.2216]]],&quot;closed&quot;:true}]}" fill="#ffffff" stroke="none" stroke-width="0.5" stroke-linecap="butt"/><path d="M358.5905,251.65615c-2.29203,-0.17877 -4.56114,-0.31828 -6.75275,-0.32337c-2.91752,0 -6.0981,0.35031 -8.99022,0.00298c-4.867,-0.5845 -9.58234,-2.11281 -14.49167,-2.51513c-0.26712,-0.02189 -0.53688,-0.03674 -0.80825,-0.04435c0.123,-4.07456 0.45726,-8.15407 0.45726,-12.24783c0,0 0.00036,-0.14208 -0.04717,-0.3297c0.56667,0.02358 1.1364,0.04692 1.70725,0.07528c7.18227,0.35673 14.14477,0.91482 21.24627,-0.50616c2.12877,0.00021 4.2661,0.01117 6.39487,0.01069c-0.32269,0.45988 -0.17387,1.05261 -0.17387,1.05261c1.25779,4.92828 1.4336,9.79678 1.45827,14.82498z" data-paper-data="{&quot;noHover&quot;:false,&quot;origItem&quot;:[&quot;Path&quot;,{&quot;applyMatrix&quot;:true,&quot;segments&quot;:[[[357.08732,236.85316],[1.25779,4.92828],[0,0]],[[357.26243,235.80292],[-0.32269,0.45988],[-2.12877,0.00048]],[[350.87612,235.80347],[2.12877,0.00021],[-7.1015,1.42099]],[[329.70867,236.29831],[7.18227,0.35673],[-0.57084,-0.02835]],[[328.00248,236.22103],[0.56667,0.02358],[0.04753,0.18762]],[[328.05,236.55],[0,0],[0,4.09376]],[[327.59515,248.7608],[0.123,-4.07456],[0.27137,0.00761]],[[328.4031,248.80425],[-0.26712,-0.02189],[4.90933,0.40231]],[[342.84899,251.28578],[-4.867,-0.5845],[2.89212,0.34733]],[[351.8,251.3],[-2.91752,0],[2.19161,0.00508]],[[358.54599,251.63338],[-2.29203,-0.17877],[-0.02467,-5.02819]]],&quot;closed&quot;:true}]}" fill="#ffffff" stroke="none" stroke-width="0.5" stroke-linecap="butt"/><path d="M325.13521,248.85009c-2.05774,0.12136 -4.15697,0.3407 -6.1029,0.0044c-3.14967,-0.54433 -6.60997,-1.46885 -9.85067,-1.52951c-3.9006,-0.05426 -7.58678,-0.70527 -11.211,-1.54511c-0.1115,-4.96194 -0.46043,-10.04892 -0.46951,-14.90718c0.29496,0.13809 0.59567,0.26038 0.90771,0.34985c2.29626,0.65842 4.47318,0.83659 6.71863,1.69581c6.7399,2.65316 13.54382,2.93467 20.5447,3.19718c-0.07392,0.23162 -0.07358,0.42265 -0.07358,0.42265c0,4.1142 -0.34179,8.21594 -0.46337,12.31192z" data-paper-data="{&quot;noHover&quot;:false,&quot;origItem&quot;:[&quot;Path&quot;,{&quot;applyMatrix&quot;:true,&quot;segments&quot;:[[[325.55,236.55],[0,4.1142],[0,0]],[[325.62392,236.12865],[-0.07392,0.23162],[-7.00088,-0.2625]],[[305.16129,232.95517],[6.7399,2.65316],[-2.24545,-0.85921]],[[298.45052,231.25015],[2.29626,0.65842],[-0.31204,-0.08947]],[[297.54316,230.89977],[0.29496,0.13809],[0.00908,4.85826]],[[298.0166,245.76018],[-0.1115,-4.96194],[3.62422,0.83984]],[[309.19712,247.27743],[-3.9006,-0.05426],[3.2407,0.06066]],[[319.00023,248.81614],[-3.14967,-0.54433],[1.94593,0.3363]],[[325.09342,248.82264],[-2.05774,0.12136],[0.12158,-4.09598]]],&quot;closed&quot;:true}]}" fill="#ffffff" stroke="none" stroke-width="0.5" stroke-linecap="butt"/><path d="M276.50369,239.23827c0,-4.54943 0.01152,-9.15363 0.01152,-13.70307c1.55589,0.54627 3.13621,1.01634 4.6073,1.21198c3.18486,0.42356 7.64892,0.36023 10.59379,1.85229c0.46377,0.23498 0.6514,0.9064 1.14376,1.07337c0.69197,0.23466 1.48632,-0.10994 2.19518,0.06728c0.01319,0.0033 0.02643,0.00678 0.03958,0.0102c0.05528,5.0481 0.34649,10.28057 0.45258,15.43474c-2.27144,-0.57775 -4.5692,-1.19717 -6.90728,-1.79461c-4.077,-1.04178 -7.68434,-3.42713 -11.70278,-4.05695c-0.14699,-0.02304 -0.29172,-0.05605 -0.43366,-0.09523z" data-paper-data="{&quot;noHover&quot;:false,&quot;origItem&quot;:[&quot;Path&quot;,{&quot;applyMatrix&quot;:true,&quot;segments&quot;:[[[276.98317,239.31349],[-0.14699,-0.02304],[4.01844,0.62982]],[[288.62469,243.3429],[-4.077,-1.04178],[2.33808,0.59744]],[[295.51263,245.14915],[-2.27144,-0.57775],[-0.10609,-5.15417]],[[295.05232,229.77664],[0.05528,5.0481],[-0.01315,-0.00342]],[[295.01281,229.76656],[0.01319,0.0033],[-0.70886,-0.17722]],[[292.82165,229.70484],[0.69197,0.23466],[-0.49236,-0.16697]],[[291.68413,228.63775],[0.46377,0.23498],[-2.94487,-1.49206]],[[281.14727,226.79063],[3.18486,0.42356],[-1.47109,-0.19564]],[[276.55,225.57112],[1.55589,0.54627],[0,4.54943]],[[276.55,239.21942],[0,-4.54943],[0.14195,0.03918]]],&quot;closed&quot;:true}]}" fill="#ffffff" stroke="none" stroke-width="0.5" stroke-linecap="butt"/><path d="M275.40892,253.5224c0.77976,0.43231 1.56766,0.83121 2.36992,1.15662c1.32686,0.5382 2.78492,0.67325 4.16566,1.05241c1.25072,0.34346 2.12308,1.57855 3.36416,1.95535c0.82567,0.25068 1.75448,-0.18258 2.59167,0.02645c0.55078,0.13752 0.86792,0.77608 1.40309,0.96545c1.18665,0.41991 2.49758,0.86639 3.77861,1.19495c-0.00342,4.61136 -1.43782,10.44233 -2.92953,14.74899l-0.50217,1.49757c0,0 -0.39994,1.18155 0.78591,1.57684c1.18585,0.39528 1.52058,-0.71106 1.52058,-0.71106l0.49819,-1.50136c1.47275,-4.55543 2.86283,-10.24653 3.0527,-15.12385c4.70127,0.97223 9.78462,1.42215 14.2337,1.41216c5.1802,0.86825 10.39751,1.3778 15.63174,1.65823c-1.3604,5.49154 -1.77901,11.57589 -1.77901,17.14235l-0.00048,0.64703c-4.22617,-0.07153 -8.45944,-0.17902 -12.68257,-0.38092c-1.62397,-0.07764 -3.28305,0.28464 -4.88729,0.02062c-1.64993,-0.27153 -3.21022,-1.03593 -4.86597,-1.26932c-2.72897,-0.38466 -5.35279,-0.15822 -8.05795,-0.70614c-2.39847,-0.59601 -4.74043,-1.27305 -7.1867,-1.54486c-2.29208,-0.25468 -5.4811,0.19611 -7.60969,-0.8926c-1.64408,-0.84089 -2.88601,-2.37617 -4.48834,-3.34426c-0.48091,-0.29056 -1.00628,-0.55931 -1.55,-0.81756c0.1205,-0.17792 0.17147,-0.33167 0.17147,-0.33167l0.49961,-1.50265c1.84461,-5.54429 0.6504,-11.35835 2.47271,-16.92879z" data-paper-data="{&quot;noHover&quot;:false,&quot;origItem&quot;:[&quot;Path&quot;,{&quot;applyMatrix&quot;:true,&quot;segments&quot;:[[[272.98586,270.44528],[1.84461,-5.54429],[0,0]],[272.48586,271.94528],[[272.31429,272.27641],[0.1205,-0.17792],[0.54371,0.25825]],[[273.86386,273.0919],[-0.48091,-0.29056],[1.60233,0.96809]],[[278.34919,276.4271],[-1.64408,-0.84089],[2.1286,1.0887]],[[285.95273,277.30936],[-2.29208,-0.25468],[2.44627,0.27181]],[[293.12211,278.84001],[-2.39847,-0.59601],[2.70516,0.54792]],[[301.14842,279.54181],[-2.72897,-0.38466],[1.65576,0.23338]],[[306.00023,280.81614],[-1.64993,-0.27153],[1.60424,0.26402]],[[310.87767,280.80241],[-1.62397,-0.07764],[4.22313,0.2019]],[[323.55,281.19614],[-4.22617,-0.07153],[0,0]],[[323.55,280.55],[0,0],[0,-5.56647]],[[325.32368,263.4385],[-1.3604,5.49154],[-5.23422,-0.28043]],[[309.6969,261.79574],[5.1802,0.86825],[-4.44908,0.00999]],[[295.52905,260.40598],[4.70127,0.97223],[-0.18987,4.87733]],[[292.48586,275.44528],[1.47275,-4.55543],[0,0]],[291.98586,276.94528],[[290.40472,277.73585],[1.18585,0.39528],[-1.18585,-0.39528]],[289.61415,276.15471],[[290.11415,274.65471],[0,0],[1.4917,-4.30666]],[[293.05164,259.83392],[-0.00342,4.61136],[-1.28102,-0.32856]],[[289.34033,258.71241],[1.18665,0.41991],[-0.53517,-0.18937]],[[287.93777,257.74636],[0.55078,0.13752],[-0.83719,-0.20903]],[[285.34929,257.71591],[0.82567,0.25068],[-1.24108,-0.3768]],[[281.98565,255.75982],[1.25072,0.34346],[-1.38074,-0.37917]],[[277.82165,254.70484],[1.32686,0.5382],[-0.80225,-0.32541]],[[275.45195,253.54785],[0.77976,0.43231],[-1.82231,5.57044]]],&quot;closed&quot;:true}]}" fill="#ffffff" stroke="none" stroke-width="0.5" stroke-linecap="butt"/><path d="M270.11282,271.29156c-0.8216,-0.39437 -1.61403,-0.81408 -2.28321,-1.31523c-0.69929,-0.5237 -1.07869,-1.42404 -1.81662,-1.89173c-0.58098,-0.36821 -1.44354,-0.12166 -2.00477,-0.51932c-1.78855,-1.26726 -3.71437,-4.21872 -5.35679,-5.86114c-2.2917,-2.2917 -4.67995,-4.77134 -6.66886,-7.40563c1.35692,-4.00814 3.59148,-7.80718 5.57739,-11.59697c0.18871,0.12432 0.37874,0.24551 0.56739,0.36422c3.31728,2.08753 6.72354,3.80432 9.58494,6.53066c1.92473,0.48118 3.78498,1.57751 5.63795,2.67981c-0.134,0.18919 -0.18992,0.35928 -0.18992,0.35928c-1.86783,5.61405 -0.67018,11.52441 -2.51958,17.06154l-0.50331,1.50191c0,0 -0.01152,0.03413 -0.02461,0.0926z" data-paper-data="{&quot;noHover&quot;:false,&quot;origItem&quot;:[&quot;Path&quot;,{&quot;applyMatrix&quot;:true,&quot;segments&quot;:[[270.11415,271.15471],[[270.61415,269.65471],[0,0],[1.84941,-5.53713]],[[273.11415,252.65471],[-1.86783,5.61405],[0,0]],[[273.3045,252.29645],[-0.134,0.18919],[-1.85297,-1.10229]],[[267.68413,249.63775],[1.92473,0.48118],[-2.86141,-2.72634]],[[258.14284,243.11331],[3.31728,2.08753],[-0.18865,-0.11871]],[[257.57678,242.74863],[0.18871,0.12432],[-1.98591,3.78979]],[[252.03105,254.31077],[1.35692,-4.00814],[1.98891,2.63429]],[[258.68389,261.66611],[-2.2917,-2.2917],[1.64242,1.64242]],[[264.00193,267.51568],[-1.78855,-1.26726],[0.56123,0.39765]],[[265.99855,268.03673],[-0.58098,-0.36821],[0.73793,0.46768]],[[267.81114,269.92987],[-0.69929,-0.5237],[0.66917,0.50115]],[[270.08972,271.24721],[-0.8216,-0.39437],[0.01308,-0.05846]]],&quot;closed&quot;:true}]}" fill="#ffffff" stroke="none" stroke-width="0.5" stroke-linecap="butt"/><path d="M255.56455,241.31034c-1.79532,3.45975 -3.8212,6.92237 -5.25531,10.52354c-0.46232,-0.81805 -1.6144,-3.44698 -1.99201,-3.96488c-4.19072,-5.74766 -8.29661,-12.46156 -8.29661,-19.85947c-0.00806,-0.84905 -0.04547,-1.71728 -0.1057,-2.59459c2.94298,2.92951 4.87881,6.77881 8.06956,9.52949c2.35543,2.03058 4.96739,4.40806 7.58008,6.36591z" data-paper-data="{&quot;noHover&quot;:false,&quot;origItem&quot;:[&quot;Path&quot;,{&quot;applyMatrix&quot;:true,&quot;segments&quot;:[[[247.981,234.99431],[2.35543,2.03058],[-3.19074,-2.75068]],[[239.94037,225.45798],[2.94298,2.92951],[0.06023,0.87731]],[[240.05,228.05],[-0.00806,-0.84905],[0,7.3979]],[[248.31406,247.81911],[-4.19072,-5.74766],[0.37761,0.5179]],[[250.29966,251.78482],[-0.46232,-0.81805],[1.43411,-3.60117]],[[255.51726,241.29412],[-1.79532,3.45975],[-2.61269,-1.95785]]],&quot;closed&quot;:true}]}" fill="#ffffff" stroke="none" stroke-width="0.5" stroke-linecap="butt"/><path d="M252.21575,229.82504c-1.61342,-0.97494 -3.19119,-2.05382 -4.66431,-3.21317c-0.84961,-0.66865 -1.19919,-1.85954 -2.04004,-2.53917c-0.4407,-0.3562 -1.11626,-0.2832 -1.60272,-0.5738c-1.59082,-0.95032 -2.97472,-2.52473 -4.51397,-3.67047c-0.24461,-2.90171 -0.36745,-5.83823 0.09495,-8.60157c0.47899,-2.86251 1.22981,-5.75184 1.43859,-8.66816c2.08842,2.24421 4.14537,4.50153 6.54781,6.41912c2.62322,2.09382 5.8185,3.19597 8.58852,5.03644c1.21605,0.80797 2.32321,2.05493 3.4759,2.96482c1.84841,1.45906 4.15819,2.16772 6.18314,3.3591c1.80741,0.93508 3.84794,2.82774 5.76853,3.42126c0.82509,0.25498 1.70194,0.57378 2.60636,0.90871c0,4.30885 -0.01343,8.91013 -0.01343,13.3551c-0.45748,-0.25595 -0.92385,-0.4896 -1.4172,-0.64143c-0.69492,-0.21386 -1.46128,0.04911 -2.18363,-0.03364c-2.00989,-0.23024 -2.89778,-1.44212 -4.95923,-1.48862c-3.65405,-1.26142 -7.43384,-2.79492 -10.98662,-4.71157c0.00211,-0.0312 0.00208,-0.04891 0.00208,-0.04891l-0.06452,-0.10479c1.71657,-5.1497 2.07313,-10.07299 2.07313,-15.49429c0,0 0.01181,-1.15121 -1.23819,-1.15121c-1.25,0 -1.23694,1.24509 -1.23694,1.24509c0,5.02594 -0.33407,9.47864 -1.8582,14.23115z" data-paper-data="{&quot;noHover&quot;:false,&quot;origItem&quot;:[&quot;Path&quot;,{&quot;applyMatrix&quot;:true,&quot;segments&quot;:[[[254.05,215.55],[0,5.02594],[0,0]],[[255.3,214.3],[-1.25,0],[1.25,0]],[[256.55,215.55],[0,0],[0,5.4213]],[[254.48586,230.94528],[1.71657,-5.1497],[0,0]],[254.55,231.05],[[254.5479,231.0989],[0.00211,-0.0312],[3.55277,1.91665]],[[265.50023,235.81614],[-3.65405,-1.26142],[2.06145,0.04651]],[[270.45273,237.30936],[-2.00989,-0.23024],[0.72235,0.08275]],[[272.63367,237.34535],[-0.69492,-0.21386],[0.49335,0.15183]],[[274.05,237.98761],[-0.45748,-0.25595],[0,-4.44497]],[[274.05,224.65599],[0,4.30885],[-0.90442,-0.33493]],[[271.44346,223.74807],[0.82509,0.25498],[-1.9206,-0.59352]],[[265.67361,220.33792],[1.80741,0.93508],[-2.02495,-1.19138]],[[259.50752,217.01667],[1.84841,1.45906],[-1.15269,-0.90989]],[[256.06912,214.06405],[1.21605,0.80797],[-2.77002,-1.84047]],[[247.50752,209.01667],[2.62322,2.09382],[-2.40243,-1.91759]],[[240.9614,202.59612],[2.08842,2.24421],[-0.20878,2.91632]],[[239.53386,211.25022],[0.47899,-2.86251],[-0.4624,2.76334]],[[239.44469,219.82977],[-0.24461,-2.90171],[1.53925,1.14574]],[[243.95717,223.48668],[-1.59082,-0.95032],[0.48646,0.2906]],[[245.55875,224.05661],[-0.4407,-0.3562],[0.84085,0.67963]],[[247.59249,226.58332],[-0.84961,-0.66865],[1.47312,1.15936]],[[252.23679,229.77968],[-1.61342,-0.97494],[1.52413,-4.75251]]],&quot;closed&quot;:true}]}" fill="#ffffff" stroke="none" stroke-width="0.5" stroke-linecap="butt"/><path d="M382.51612,215.39111c0.88388,-0.88388 1.76777,0 1.76777,0l0.847,0.86983c3.22009,1.60516 6.63954,0.94273 10.15728,0.75145c2.61321,-0.79394 5.43644,-1.17548 6.72619,-4.00972c1.6619,-3.65205 2.07071,-7.9682 3.73079,-11.70603c0.27523,-0.6197 0.25354,-1.43233 0.75476,-1.88902c3.44933,-3.14282 9.81126,-1.52743 10.15009,3.11737c0,0 0,1.25 -1.25,1.25c-1.25,0 -1.25,-1.25 -1.25,-1.25c0.47144,-2.46847 -4.40694,-2.65177 -5.84991,-1.38263c-0.70517,0.62022 -0.63283,1.76975 -1.00429,2.63228c-1.39001,3.22759 -1.50274,7.1491 -3.01016,10.27267c-1.77969,3.68776 -5.04983,4.38521 -8.56294,5.42702c-4.39776,0.26928 -8.04074,0.82542 -12.05358,-1.18529l-1.153,-1.13017c0,0 -0.88388,-0.88388 0,-1.76777z" fill="#000000" stroke="none" stroke-width="0.5" stroke-linecap="butt"/><path d="M253.29893,189.76739c-0.4924,1.14893 -1.64133,0.65653 -1.64133,0.65653l-1.8148,-0.77999c-1.85123,-1.05828 -2.28699,-1.20421 -4.01181,-2.67463c-0.75096,-0.6402 -1.01152,-1.75368 -1.794,-2.35495c-0.79956,-0.61439 -1.99379,0.30317 -2.99146,0.44952c-3.48669,0.51147 -7.23429,2.16765 -7.14554,6.21111c0,0 0,1.25 -1.25,1.25c-1.25,0 -1.25,-1.25 -1.25,-1.25c0.08323,-5.37801 4.42092,-7.93808 9.27381,-8.68332c0.57543,-0.08837 3.78128,-0.60173 4.58919,-0.15605c0.56329,0.31074 0.71022,1.07606 1.12226,1.57011c1.23811,1.48452 2.92157,2.45769 4.57194,3.40032l1.6852,0.72001c0,0 1.14893,0.4924 0.65653,1.64133z" fill="#000000" stroke="none" stroke-width="0.5" stroke-linecap="butt"/><path d="M242.4,258.02499c-0.75,1 -1.75,0.25 -1.75,0.25l-1.069,-0.80568c-0.80286,-0.80577 -1.51672,-1.70539 -2.14768,-2.65183c-7.96844,-7.91973 -10.23466,-19.23151 -13.23523,-29.44908c0,0 -0.3434,-1.2019 0.8585,-1.54531c1.2019,-0.3434 1.54531,0.8585 1.54531,0.8585c2.77441,9.93808 5.11234,20.85489 12.76477,28.55092c0.553,0.8295 1.14566,1.64495 1.85232,2.34817l0.931,0.69432c0,0 1,0.75 0.25,1.75z" fill="#000000" stroke="none" stroke-width="0.5" stroke-linecap="butt"/><path d="M416.15,247.27499c-1.25,0 -1.25,-1.25 -1.25,-1.25v-0.75c0,-8.09344 1.12264,-13.88286 7.11612,-19.88388c0,0 0.88388,-0.88388 1.76777,0c0.88388,0.88388 0,1.76777 0,1.76777c-5.54884,5.54137 -6.38388,10.66437 -6.38388,18.11612v0.75c0,0 0,1.25 -1.25,1.25z" fill="#000000" stroke="none" stroke-width="0.5" stroke-linecap="butt"/><path d="M313.4,293.02499c0,-1.25 1.25,-1.25 1.25,-1.25h0.25c0.76206,0.00411 1.52815,-0.07629 2.27465,-0.22952c2.04768,-0.34128 3.83313,-1.3417 5.87225,-1.51622c4.51314,-0.38626 9.29789,0.24574 13.8531,0.24574c2.93224,0 6.56283,0.89688 8.5,-1.75c0,0 0.75,-1 1.75,-0.25c1,0.75 0.25,1.75 0.25,1.75c-2.21849,2.90436 -4.84402,2.75 -8.25,2.75c-5.23808,0 -10.69667,-0.59706 -15.8969,-0.25426c-1.87605,0.12367 -3.706,1.16349 -5.62775,1.48378c-0.89595,0.17519 -1.81245,0.26644 -2.72535,0.27048h-0.25c0,0 -1.25,0 -1.25,-1.25z" fill="#000000" stroke="none" stroke-width="0.5" stroke-linecap="butt"/></g></g></svg>