<svg version="1.1" xmlns="http://www.w3.org/2000/svg" xmlns:xlink="http://www.w3.org/1999/xlink" width="34.17311" height="34.17311" viewBox="0,0,34.17311,34.17311"><defs><linearGradient x1="240.47221" y1="167.75245" x2="238.21618" y2="188.42886" gradientUnits="userSpaceOnUse" id="color-1"><stop offset="0" stop-color="#40200a"/><stop offset="1" stop-color="#391e09"/></linearGradient><radialGradient cx="239.51448" cy="183.79401" r="14.4106" gradientUnits="userSpaceOnUse" id="color-2"><stop offset="0" stop-color="#402f25"/><stop offset="1" stop-color="#392a21"/></radialGradient><linearGradient x1="240.82858" y1="179.79759" x2="239.32213" y2="193.6041" gradientUnits="userSpaceOnUse" id="color-3"><stop offset="0" stop-color="#391e09"/><stop offset="1" stop-color="#40200a"/></linearGradient></defs><g transform="translate(-222.91345,-162.91346)"><g data-paper-data="{&quot;isPaintingLayer&quot;:true}" stroke-miterlimit="10" stroke-dasharray="" stroke-dashoffset="0" style="mix-blend-mode: normal"><path d="M229.98312,162.91346h20.03379c3.9166,0 7.06966,3.15307 7.06966,7.06966v20.03379c0,3.91659 -3.15306,7.06966 -7.06966,7.06966h-20.03379c-3.91659,0 -7.06966,-3.15307 -7.06966,-7.06966v-20.03379c0,-3.91659 3.15307,-7.06966 7.06966,-7.06966z" fill-opacity="0.35" fill="#4d4d4d" fill-rule="evenodd" stroke="none" stroke-width="4.43922" stroke-linecap="round" stroke-linejoin="round"/><g fill-rule="nonzero" stroke-linejoin="miter"><g><path d="M225.90333,187.08539c0,0 -2.30797,-7.40839 0.15735,-12.80232c1.10475,-2.41712 4.95013,-4.63072 7.29056,-5.17572c3.55069,-0.82684 9.42032,-1.35561 12.65188,-0.70416c2.25199,0.45397 3.23899,1.87768 4.8099,4.01195c1.7093,2.3223 2.47382,8.95286 2.47382,8.95286z" fill="url(#color-1)" stroke="none" stroke-width="0" stroke-linecap="butt"/><path d="M235.49675,175.96816c0.16564,-1.5181 1.53059,-2.61449 3.04869,-2.44885c1.5181,0.16564 2.61449,1.53059 2.44885,3.04869c-0.16564,1.5181 -1.53059,2.61449 -3.04869,2.44885c-1.5181,-0.16564 -2.61449,-1.53059 -2.44885,-3.04869z" fill="#ffffff" stroke="#000000" stroke-width="1.5" stroke-linecap="butt"/><path d="M237.91446,173.39492l-0.17684,-1.11272" fill="none" stroke="#000000" stroke-width="1.5" stroke-linecap="round"/><path d="M238.33477,179.26688l0.04663,1.18986" fill="none" stroke="#000000" stroke-width="1.5" stroke-linecap="round"/><path d="M241.44688,173.88291l-0.93496,0.73742" fill="none" stroke="#000000" stroke-width="1.5" stroke-linecap="round"/><path d="M235.9682,178.15802l-0.93496,0.73742" fill="none" stroke="#000000" stroke-width="1.5" stroke-linecap="round"/><path d="M240.94636,177.37206l1.12177,0.39947" fill="none" stroke="#000000" stroke-width="1.5" stroke-linecap="round"/><path d="M234.41198,175.00681l1.12177,0.39947" fill="none" stroke="#000000" stroke-width="1.5" stroke-linecap="round"/><path d="M225.90333,187.08539c0,0 -1.70118,-5.46066 -0.62237,-10.41899c0.95393,2.00155 3.14037,3.62861 5.36022,3.59175c2.12494,0.2338 4.588,-0.41149 6.62691,-0.98109c1.81337,-0.67874 3.84012,-1.06904 5.76537,-1.24642c2.00288,-0.55826 4.093,-0.54945 6.06841,-1.28195c0.98551,-0.28062 2.12873,-1.53549 2.53411,-2.74822c1.13397,2.88468 1.65085,7.36751 1.65085,7.36751z" fill-opacity="0.06275" fill="#000000" stroke="none" stroke-width="0" stroke-linecap="butt"/><path d="M225.90333,187.08539c0,0 -0.95395,-3.0621 -0.98014,-6.68234c1.35047,0.51641 2.08861,0.90743 3.50446,1.20034c2.97029,0.61449 4.78561,-0.04022 7.70742,-0.8546c7.78353,-3.12703 12.6311,-1.13424 16.18248,-4.59422c0.66153,2.54439 0.96928,5.21343 0.96928,5.21343z" fill-opacity="0.06275" fill="#000000" stroke="none" stroke-width="0" stroke-linecap="butt"/><path d="M225.90333,187.08539c0,0 -0.56642,-1.81817 -0.83832,-4.30887c0.88221,0.77707 1.86586,1.15315 3.21576,1.29787c1.80474,-0.05972 3.86077,-0.78133 5.50722,-1.49783c1.71561,-0.63592 3.39612,-1.19809 5.13783,-1.72903c1.66431,-0.50911 3.45371,-0.69522 5.18552,-0.79075c1.82141,-0.02966 3.79064,-0.47777 5.52254,-1.01773c1.73189,-0.53996 2.04038,-0.8154 3.04197,-1.34876c0.41511,1.97896 0.61098,3.67771 0.61098,3.67771z" fill-opacity="0.06275" fill="#000000" stroke="none" stroke-width="0" stroke-linecap="butt"/></g><path d="M225.27959,188.9379l-0.4786,-3.15183c0,0 1.17464,-1.51474 14.68426,-4.72808c3.97378,-0.94518 10.76068,-2.04469 13.01072,-2.369c0.44476,-0.06411 1.05584,-0.06043 1.05584,-0.06043c0,0 0.26117,0.73279 0.35889,1.16137c0.18632,0.81719 0.33839,1.81828 0.33839,1.81828z" fill="url(#color-2)" stroke="none" stroke-width="0" stroke-linecap="butt"/><path d="M223.60691,191.88865c0,0 -0.49382,0.03471 -0.54936,-1.73748c-0.02398,-0.76534 0.2113,-1.37491 0.2113,-1.37491c0,0 4.08694,-3.43231 18.1262,-6.1698c9.1685,-1.78775 14.78114,-1.13423 14.78114,-1.13423c0,0 0.34559,0.96452 0.43415,1.36492c0.14161,0.64022 0.33381,2.10714 0.33381,2.10714c0,0 -10.45031,1.13874 -15.82225,2.25775c-5.71876,1.19126 -17.51499,4.68661 -17.51499,4.68661z" fill="url(#color-3)" stroke="none" stroke-width="0" stroke-linecap="butt"/><path d="M223.60691,191.88865c0,0 -0.49382,0.03471 -0.54936,-1.73748c-0.00649,-0.20693 0.00599,-0.40247 0.02763,-0.57766c1.89338,0.21546 3.75819,-0.23296 5.48461,-1.06884c2.16362,-0.65843 4.24327,-1.74419 6.49266,-2.12942c2.39026,-0.72648 4.85187,-0.87409 7.27952,-1.40076c2.57631,-0.57132 5.30035,-1.1722 7.93059,-1.36251c1.86153,-0.13647 4.36328,-0.8906 5.9447,-2.02364c0.09426,0.26853 0.32334,0.93355 0.39307,1.24881c0.14161,0.64022 0.33381,2.10714 0.33381,2.10714c0,0 -10.45031,1.13874 -15.82225,2.25775c-5.71876,1.19126 -17.51499,4.68661 -17.51499,4.68661z" fill-opacity="0.06275" fill="#000000" stroke="none" stroke-width="0" stroke-linecap="butt"/><path d="M223.60691,191.88865c0,0 -0.45508,0.03199 -0.54064,-1.53321c1.91486,-0.18809 3.90447,-0.61479 5.70409,-1.28185c1.97792,-0.60364 3.89617,-1.32909 5.89425,-1.88525c2.01832,-0.56505 4.02178,-0.64851 6.05176,-1.21501c1.92549,-0.41659 3.72613,-1.12691 5.74964,-1.37293c2.00567,-0.24385 3.80157,-0.33585 5.53961,-0.98893c1.54703,-0.13761 3.06444,-0.62879 4.4343,-1.364c0.07152,0.22216 0.1381,0.44351 0.17043,0.58967c0.14161,0.64022 0.33381,2.10714 0.33381,2.10714c0,0 -10.45031,1.13874 -15.82225,2.25775c-5.71876,1.19126 -17.51499,4.68661 -17.51499,4.68661z" fill-opacity="0.06275" fill="#000000" stroke="none" stroke-width="0" stroke-linecap="butt"/><path d="M223.60691,191.88865c0,0 -0.27414,0.01927 -0.43688,-0.70394c5.94397,-1.79699 9.28721,-2.8472 15.35644,-4.1603c5.1319,-1.11179 7.89248,-2.0207 13.09543,-2.72906c1.59565,-0.14709 3.44718,-1.01041 5.07566,-1.00404c0.12232,0.70447 0.24659,1.65298 0.24659,1.65298c0,0 -10.45031,1.13874 -15.82225,2.25775c-5.71876,1.19126 -17.51499,4.68661 -17.51499,4.68661z" fill-opacity="0.06275" fill="#000000" stroke="none" stroke-width="0" stroke-linecap="butt"/></g></g></g></svg>