<svg version="1.1" xmlns="http://www.w3.org/2000/svg" xmlns:xlink="http://www.w3.org/1999/xlink" width="181.9592" height="253.22501" viewBox="0,0,181.9592,253.22501"><g transform="translate(-258.79861,-53.38749)"><g data-paper-data="{&quot;isPaintingLayer&quot;:true}" fill-rule="nonzero" stroke="none" stroke-linecap="butt" stroke-linejoin="miter" stroke-miterlimit="10" stroke-dasharray="" stroke-dashoffset="0" style="mix-blend-mode: normal"><path d="M274.40898,306.61251v-253.22501h91.18203v253.22501z" data-paper-data="{&quot;index&quot;:null}" fill-opacity="0.01" fill="#000000" stroke-width="0"/><path d="M344.78793,142.04498c0,0 -0.039,0.15601 -0.14881,0.32491c0.01412,0.00705 0.0283,0.01406 0.04252,0.02101c4.86665,2.38 10.60345,3.59321 15.29123,6.04537c1.88557,0.98633 3.40566,3.21175 5.18596,4.4251c2.19212,3.28819 6.07608,5.79795 8.59872,8.96099c3.33743,4.18468 5.31796,10.05582 6.96337,15.03838c0.05867,7.40857 0.42467,15.24313 -2.18126,22.18282c-0.9366,2.49421 -1.02049,5.27078 -2.51188,7.52354c-0.60503,2.48317 -2.02452,4.08241 -3.26227,6.1626c-4.49298,7.55103 -10.40546,15.25882 -18.06362,19.85276c-4.69638,3.51273 -10.68911,6.47402 -16.22041,8.35067c-1.23296,0.41832 -2.58544,0.37887 -3.83309,0.75111c-3.63508,1.08452 -7.55392,2.7983 -11.34459,3.15027c-1.76792,0.16416 -3.638,0.0033 -5.41394,0.0033c-10.64764,0 -21.58941,0.57924 -30.9867,-5.06705c-8.76973,-2.87347 -15.25932,-11.72073 -20.11665,-19.09457c-2.79685,-4.66043 -5.1874,-9.11329 -6.72157,-14.2248c-0.35806,-1.19298 -0.97281,-2.33178 -1.10131,-3.57068c-0.36799,-3.54805 -0.00563,-7.36109 -0.00563,-10.92938c0,-2.58956 -0.28084,-5.36779 0.00725,-7.94162c0.54795,-4.89548 2.82502,-9.44805 4.69838,-13.78635c1.05632,-2.44619 1.65926,-5.09011 2.86431,-7.50908c1.91762,-3.81996 3.62598,-7.68687 6.14813,-11.18663c2.74573,-3.81001 6.94846,-7.43365 11.18178,-10.09803c1.49433,-0.4589 2.83955,-1.2585 3.94501,-2.30819c3.06705,-2.02494 6.48607,-3.24601 9.72535,-4.92539c3.17374,-1.64541 6.22479,-4.17765 9.82666,-5.06236c1.26163,-0.30989 2.74975,-0.3231 4.25035,-0.25559c-0.07511,-0.2527 -0.06196,-0.58104 0.26638,-0.90937c0.68408,-0.68408 1.36817,0 1.36817,0l-0.32847,0.07226c0.71122,0 1.42244,0 2.13366,0c3.86921,0 7.52057,1.40567 11.03852,2.91852c0.38988,0.16766 1.99619,0.60294 2.27205,0.78207c1.52277,0.98878 3.0409,2.25765 4.62293,3.20049c2.45148,1.46102 5.13196,2.88482 7.43316,4.6025c1.0486,0.42645 1.80533,1.08345 2.58021,1.70771l0.1961,-0.78293c0.51975,0.45577 1.08714,0.85853 1.69374,1.19984zM316.11177,131.04267c-2.46732,0 -5.91673,-0.63866 -8.31237,-0.02588c-3.44348,0.88081 -6.33173,3.30165 -9.37628,4.89472c-3.40545,1.78192 -7.02849,3.00856 -10.2038,5.26471c-5.06799,2.58375 -10.66173,6.8761 -14.0182,11.54219c-2.44025,3.39238 -4.09529,7.15297 -5.94261,10.86118c-1.1993,2.38905 -1.79148,4.99724 -2.82544,7.42654c-1.77909,4.17994 -4.02815,8.52583 -4.54748,13.24c-0.27495,2.49594 0.00725,5.19376 0.00725,7.70521c0,3.50854 -0.33953,7.22957 -0.00563,10.72089c0.15666,1.63807 0.52743,1.54398 1.03235,3.22784c1.48146,4.94047 3.79779,9.2333 6.50625,13.74839c4.63799,7.13939 10.8976,15.52676 19.28579,18.36445c9.1819,5.5015 19.77917,4.89003 30.1782,4.89003c1.72618,0 3.53509,0.15281 5.25435,0.0033c3.64262,-0.31678 7.45736,-2.04263 10.95321,-3.07676c1.22462,-0.36226 2.5525,-0.31654 3.76139,-0.72828c5.36003,-1.8256 11.21666,-4.70467 15.76343,-8.12437c7.4649,-4.47988 13.07347,-11.94037 17.49736,-19.26433c1.2206,-2.02076 2.52229,-3.51902 3.1387,-5.92813c1.47816,-2.2013 1.54753,-4.95773 2.46666,-7.41207c2.49533,-6.66323 2.01596,-14.08997 2.08606,-21.20158c-1.86559,-5.51077 -4.13667,-11.39997 -7.97224,-15.89967c-2.11692,-2.48346 -5.27485,-4.38155 -7.04812,-7.04146c-1.62607,-1.05642 -3.06783,-3.3057 -4.77111,-4.10953c-4.76329,-2.24794 -10.43529,-3.57644 -15.29123,-6.04537c-1.62015,-0.82373 -2.47452,-2.14011 -4.26463,-2.84337c-2.31691,-1.74626 -5.03135,-3.15226 -7.50245,-4.64335c-1.58969,-0.95925 -3.11657,-2.16435 -4.62293,-3.20049c-0.5755,-0.39585 -1.35292,-0.36598 -1.99527,-0.64038c-2.66209,-1.13719 -5.40031,-2.25084 -8.26431,-2.63257c-0.02584,0.92814 -0.9669,0.92814 -0.9669,0.92814z" fill="#006db0" stroke-width="0.5"/><path d="" fill="#d60000" stroke-width="0.5"/><path d="M325.347,132.70859c0.64235,0.2744 1.42123,0.2447 1.99674,0.64056c1.50635,1.03613 3.03696,2.24196 4.62665,3.20121c2.4711,1.49109 5.19178,2.89919 7.5087,4.64546c1.79011,0.70325 2.64808,2.02141 4.26823,2.84515c4.85593,2.46892 10.53728,3.80481 15.30058,6.05275c1.70328,0.80383 3.14787,3.05653 4.77394,4.11296c1.77328,2.65992 4.93469,4.56374 7.0516,7.04719c3.83558,4.49971 6.11019,10.4 7.97577,15.91077c-0.07009,7.11162 0.40894,14.55229 -2.08639,21.21552c-0.91913,2.45434 -0.9899,5.21578 -2.46806,7.41709c-0.61642,2.40912 -1.91985,3.91152 -3.14044,5.93228c-4.42388,7.32395 -10.04376,14.7982 -17.50866,19.27807c-4.54677,3.41971 -10.41426,6.30458 -15.77429,8.13018c-1.20889,0.41174 -2.5393,0.3668 -3.76392,0.72906c-3.49586,1.03413 -7.31832,2.76124 -10.96095,3.07802c-1.71926,0.14951 -3.53178,-0.00325 -5.25796,-0.00325c-10.39903,0 -21.01547,0.60563 -30.19737,-4.89586c-8.3882,-2.83769 -14.65987,-11.23695 -19.29786,-18.37633c-2.70847,-4.51509 -5.02896,-8.81661 -6.51042,-13.75708c-0.50493,-1.68386 -0.87632,-1.59183 -1.03298,-3.2299c-0.3339,-3.49131 0.00442,-7.21903 0.00442,-10.72757c0,-2.51146 -0.28234,-5.21431 -0.00738,-7.71026c0.51932,-4.71417 2.76985,-9.06919 4.54894,-13.24913c1.03396,-2.42929 1.628,-5.0426 2.82731,-7.43165c1.84731,-3.70822 3.50663,-7.47611 5.94688,-10.86849c3.35647,-4.66609 8.95918,-8.96716 14.02717,-11.5509c3.17532,-2.25615 6.80541,-3.48668 10.21086,-5.2686c3.04453,-1.59307 5.93968,-4.01608 9.38316,-4.89688c2.39564,-0.61278 5.85065,0.02509 8.31797,0.02509c0,0 0.94178,-0.00004 0.96761,-0.92821c2.864,0.38172 5.60807,1.49555 8.27017,2.63274z" data-paper-data="{&quot;noHover&quot;:false,&quot;origItem&quot;:[&quot;Path&quot;,{&quot;applyMatrix&quot;:true,&quot;segments&quot;:[[[482.05349,216.74637],[7.40097,0.98643],[-0.06673,2.39851]],[[479.55489,219.14488],[0,0],[-6.37588,0]],[[458.07464,219.078],[6.19063,-1.5835],[-8.8984,2.27612]],[[433.8451,231.7266],[7.86749,-4.1167],[-8.80015,4.60472]],[[407.47711,245.33131],[8.20545,-5.83019],[-13.09636,6.67673]],[[371.25223,275.15788],[8.67356,-12.05781],[-6.30591,8.76635]],[[355.89575,303.22462],[4.7737,-9.58252],[-3.09917,6.17363]],[[348.59443,322.41577],[2.6719,-6.27761],[-4.59739,10.80153]],[[336.84315,356.62969],[1.342,-12.18204],[-0.71053,6.44985]],[[336.86188,376.54098],[0,-6.48993],[0,9.06652]],[[336.84732,404.24517],[-0.86284,-9.02201],[0.40483,4.23297]],[[339.51507,412.58633],[-1.3048,-4.35131],[3.82831,12.76684]],[[356.32809,448.11399],[-6.99903,-11.66761],[11.98518,18.44913]],[[406.16514,495.57018],[-21.67621,-7.33298],[23.72724,14.2166]],[[484.1496,508.20666],[-26.87247,0],[4.46068,0]],[[497.72755,508.21518],[-4.4428,0.38637],[9.41303,-0.81861]],[[526.03211,500.26441],[-9.03376,2.67234],[3.16458,-0.93614]],[[535.75202,498.38244],[-3.12392,1.06399],[13.85103,-4.7176]],[[576.48682,477.38798],[-11.74947,8.83699],[19.2903,-11.5766]],[[621.70232,427.6064],[-11.43191,18.92607],[3.15419,-5.22191]],[[629.81315,412.28731],[-1.59291,6.22547],[3.81975,-5.68846]],[[636.18733,393.13353],[-2.37516,6.34234],[6.44826,-17.21868]],[[641.57798,338.34582],[-0.18113,18.37737],[-4.82094,-14.24057]],[[620.97665,297.25896],[9.91163,11.62783],[-5.4704,-6.41759]],[[602.76338,279.06289],[4.58238,6.87357],[-4.20198,-2.72994]],[[590.4342,268.44331],[4.40151,2.0772],[-12.30897,-5.80897]],[[550.91964,252.82127],[12.54838,6.38002],[-4.18668,-2.12865]],[[539.89926,245.47364],[4.62588,1.81731],[-5.98721,-4.51258]],[[520.51194,233.4746],[6.38565,3.85319],[-4.10798,-2.47881]],[[508.56568,225.20411],[3.89263,2.6775],[-1.48718,-1.02294]],[[503.40964,223.54929],[1.65992,0.70908],[-6.87922,-2.93865]]],&quot;closed&quot;:true}]}" fill="#009dff" stroke-width="0.5"/><path d="M317.7416,178.96529c-2.87016,0.20622 -6.31023,-0.66002 -8.26242,-2.24755c-2.85449,-2.32128 -3.87404,-6.47266 -4.96456,-9.74421c-0.60938,-2.47997 -0.89861,-6.12765 -0.36958,-8.62442c0.36155,-1.70634 1.62855,-3.11815 2.70124,-4.37067c2.92233,-3.41225 6.15475,-7.50853 10.8606,-8.49514c2.34468,-0.49158 5.00446,-0.38055 7.41335,-0.36582c3.99894,0.98032 6.59717,3.46028 9.45612,6.32148c1.82731,1.82874 3.92118,3.32003 5.43489,5.45256c2.52003,3.55023 2.72942,8.01241 2.646,12.16746c-1.71091,3.53439 -3.94373,6.64788 -6.65846,9.35206c-0.70772,0.70497 -1.12866,1.70909 -1.95352,2.27253c-2.59587,1.77318 -5.95953,2.278 -9.04325,2.27815c-2.36276,0.00011 -3.33686,0.03666 -5.49766,-1.2357c-0.67952,-0.8518 -1.28017,-1.77996 -1.76277,-2.76073z" fill="#ffffff" stroke-width="0.5"/><path d="M326.68834,169.80415c0.00482,0.09994 -0.00577,0.21093 -0.03655,0.33402c-0.23464,0.93856 -1.1732,0.70392 -1.1732,0.70392c-1.66359,-0.42542 -2.86382,-0.12626 -4.29041,-1.25723c-1.5168,-1.20248 -2.70879,-5.65774 -1.70289,-7.51937c0.37969,-0.70268 1.05019,-1.20909 1.64448,-1.7427c3.42449,-3.07483 9.85622,-2.81683 12.98862,0.26283c2.13161,1.64446 6.41243,7.11114 2.27775,9.14488c-0.19918,0.09797 -3.36063,0.07364 -3.57071,0.07364c-2.01512,0 -4.03024,0 -6.04537,0z" fill="#000000" stroke-width="0.5"/><path d="M381.0198,163.49887c0.3593,0.89825 -0.53895,1.25754 -0.53895,1.25754l-0.34822,0.13813c2.0186,-0.08491 4.11819,0.12984 6.03428,0.12984c6.82101,0 13.60593,-0.35561 20.4266,-0.35561c3.8539,0.00597 7.69988,-0.65717 11.56002,-0.71105c6.87818,-0.096 13.76444,-0.00017 20.64365,-0.00017h1.06683v0.32496l0.8938,0.27225c-0.15601,0.27098 -0.32368,0.52441 -0.50189,0.76214l0.29218,0.29218l-0.71122,0.71122l-0.23924,-0.23924c-2.22393,2.25587 -5.57869,2.85621 -8.54958,4.33355c-1.16508,0.57936 -2.0677,1.42421 -3.32838,1.83046c-0.57831,0.18636 -1.24638,0.02953 -1.80181,0.27584c-0.48696,0.21594 -0.74104,0.78503 -1.20006,1.05534c-1.10887,0.65299 -2.4586,0.81165 -3.58275,1.43798c-3.89994,2.17292 -7.61141,4.61988 -11.60258,6.68851c-0.74879,0.37538 -1.49403,0.72316 -2.25077,1.04338c1.7219,0.47081 3.50004,0.92943 5.1536,1.53183c8.23208,2.99894 15.96864,7.83693 24.49871,9.94503l0.03072,0.02525l0.00473,-0.01419l1.04567,0.34856c0.39532,0.12158 0.68267,0.48966 0.68267,0.92485c0,0.53431 -0.43314,0.96744 -0.96744,0.96744h-1.06683v-0.02318c-10.30614,3.65039 -22.38397,2.51245 -33.07172,2.51245c-7.40891,0 -14.75972,-0.25948 -22.16353,-0.33514c-0.05468,1.78402 -0.25685,3.49568 -0.74454,5.00778l-0.35561,1.06683c0,0 -0.30593,0.91779 -1.22373,0.61186c-0.91779,-0.30593 -0.61186,-1.22373 -0.61186,-1.22373l0.35561,-1.06683c0.47538,-1.36716 0.37726,-2.92648 0.32621,-4.41279c-0.25766,-0.00118 -0.51538,-0.00207 -0.7732,-0.00268c-0.13806,0.19197 -0.3721,0.3547 -0.76888,0.3547c-0.96744,0 -0.96744,-0.96744 -0.96744,-0.96744l0.96744,-1.32305c0.5076,0 1.01486,0.00122 1.52183,0.0035c0,-2.76064 0,-5.52127 0,-8.28191c0,-5.08933 -0.47738,-10.65744 -3.09165,-15.20103c-0.74048,-1.28696 -1.95157,-2.43533 -2.71019,-3.68348c-0.1018,-0.10534 -0.1626,-0.226 -0.19762,-0.34425c-0.54083,-0.98616 -0.95182,-2.05441 -1.63046,-2.9498c0,0 -0.58047,-0.77395 0.19349,-1.35442c0.77395,-0.58047 1.35442,0.19349 1.35442,0.19349c0.3625,0.48778 0.71305,0.97687 1.05158,1.46766c0.91707,-1.19218 2.22643,-1.77557 3.76944,-2.81023l1.86915,-0.75326c0,0 0.89825,-0.3593 1.25754,0.53895z" fill="#fbff00" stroke-width="0.5"/><path d="M347.59939,203.24589c0.7962,0.54955 0.24664,1.34576 0.24664,1.34576l-0.82124,1.18982c-1.10715,1.60349 -2.27646,3.12544 -3.31137,4.77736c-1.32032,1.6506 -2.83296,3.68766 -4.77318,4.66502c-2.54239,1.28071 -5.71222,0.80959 -8.44724,0.80959c-6.83194,0 -14.98958,1.18723 -21.53037,-0.70971c-0.33023,-2.93065 1.55877,-4.60863 1.55877,-7.36994c0,-0.81234 0.62825,-1.9011 0.01772,-2.43696c-0.17309,-0.15193 -0.42963,0.18585 -0.65887,0.20802c-1.24673,0.12057 -2.51193,-0.00305 -3.75443,0.15528c-5.8893,0.75046 -11.0887,4.45827 -16.50183,6.57976c-1.79133,0.01594 -5.39159,0.31097 -6.65754,-1.45114c-0.22215,-0.30921 -0.18261,-2.17386 -0.18261,-2.69934c0,-2.45029 -0.51952,-5.65779 0.02588,-8.04569c0.82065,-3.59299 4.71518,-6.015 7.55601,-7.7195c0,0 0.82958,-0.49775 1.32732,0.33183c0.49775,0.82958 -0.33183,1.32732 -0.33183,1.32732c-2.32373,1.39424 -6.02264,3.48501 -6.66838,6.5049c-0.48402,2.26357 0.02588,5.28222 0.02588,7.60114c0,0.5262 -0.53208,1.1746 -0.18261,1.56798c0.81949,0.92251 3.58471,0.67007 4.72198,0.68252c5.43948,-2.23335 10.66292,-5.8331 16.62206,-6.599c1.03628,-0.13319 4.97375,-0.73509 5.84721,0.02888c0.54949,0.48062 0.58966,1.34977 0.72169,2.06776c0.47488,2.58241 -0.52398,5.92306 -1.99008,8.03949c6.03263,0.03337 12.06639,0.00152 18.09916,0.00152c2.91042,0 6.82399,0.72716 9.53203,-0.61285c1.62175,-0.80248 2.95109,-2.67904 4.04523,-4.04651c1.02951,-1.64522 2.19532,-3.16015 3.29702,-4.75685l0.82124,-1.18982c0,0 0.54955,-0.7962 1.34576,-0.24664z" fill="#006db0" stroke-width="0.5"/></g></g></svg>