<svg version="1.1" xmlns="http://www.w3.org/2000/svg" xmlns:xlink="http://www.w3.org/1999/xlink" width="189.35905" height="59.07324" viewBox="0,0,189.35905,59.07324"><g transform="translate(-99.77141,-127.71361)"><g data-paper-data="{&quot;isPaintingLayer&quot;:true}" fill-rule="nonzero" stroke-linejoin="miter" stroke-miterlimit="10" stroke-dasharray="" stroke-dashoffset="0" style="mix-blend-mode: normal"><g><path d="M100.77122,178.78875c0,0 -0.03615,-1.85567 0.91753,-2.98624c1.85105,-2.19439 9.41581,-9.26376 9.41581,-9.26376l8,1.66667l-10.16667,17.25c0,0 -3.72988,-1.97847 -5.09252,-3.09083c-1.35958,-1.10986 -3.07415,-3.57584 -3.07415,-3.57584z" fill="#929292" stroke="#c3c3c3" stroke-width="2" stroke-linecap="butt"/><path d="M140.75661,171.93555v-11.44444h41v11.44444z" fill="#000000" stroke="none" stroke-width="0" stroke-linecap="butt"/><path d="M110.43992,166.85623l7,-23c0,0 2.94217,-9.29302 14.71616,-14.06668c5.39372,-2.18684 12.83841,-2.0425 22.35223,-2.07557c28.13181,-0.09779 34.18161,19.64226 34.18161,19.64226l-0.25,26.75l-10.54249,-0.75075c0,0 5.71748,-19.33251 -12.50931,-20.23957c-17.19148,-0.85554 -15.85173,18.45902 -15.85173,18.45902c0,0 -11.84434,-0.52867 -17.7829,-1.24542c-6.93762,-0.83733 -21.31357,-3.47328 -21.31357,-3.47328z" fill="#c3c3c3" stroke="none" stroke-width="0" stroke-linecap="butt"/><path d="M176.32966,169.65333l-24.53135,-1.17557" fill="none" stroke="#7b7b7b" stroke-width="6" stroke-linecap="round"/><path d="M149.51021,171.49618c0,0 -1.13246,-1.97855 -0.94116,-3.22587c0.25377,-1.65459 2.33005,-5.82968 2.33005,-5.82968l1.5,1.25l-1.875,8.25z" fill="#000000" stroke="none" stroke-width="0" stroke-linecap="butt"/><path d="M141.94019,139.13791c0,0.9665 -0.67157,1.75 -1.5,1.75c-0.82843,0 -1.5,-0.7835 -1.5,-1.75c0,-0.9665 0.67157,-1.75 1.5,-1.75c0.82843,0 1.5,0.7835 1.5,1.75z" fill="#ffffff" stroke="none" stroke-width="0" stroke-linecap="butt"/></g><g><path d="M200.66764,179.59126c0,0 2.66761,-16.20881 4.51516,-23.45692c1.75922,-6.90157 6.31817,-19.04308 6.31817,-19.04308c0,0 2.93778,-5.86435 11.33906,-5.63451c1.39981,0.03829 6.35357,0.34868 10.46675,1.11549c3.80193,0.70878 6.81286,1.88035 7.35204,1.87052c6.28372,-0.11453 9.40189,-4.34187 14.68745,-3.24235c8.21686,1.70929 10.98804,8.22417 10.98804,8.22417c0,0 5.36216,12.33504 7.08942,18.64218c1.91915,7.00781 3.91058,21.52449 3.91058,21.52449z" fill="#9a9393" stroke="none" stroke-width="0" stroke-linecap="butt"/><path d="M289.12409,180.80853c0,2.34721 1.71717,5.10175 -51.25,4.58334c-38.21508,-0.37403 -47.01031,-0.31549 -48.8839,-1.6065c-0.52758,-0.36353 -0.19943,-1.29443 -0.19943,-1.81016c0,-2.34721 20.77874,-5.41667 49.08333,-5.41667c28.3046,0 51.25,1.90279 51.25,4.25z" fill="#000000" stroke="none" stroke-width="0" stroke-linecap="butt"/><path d="M201.07093,178.09797c0,0 17.72984,-2.30668 27.1557,-2.56563c10.64719,-0.29251 33.01096,0.39896 33.01096,0.39896" fill="none" stroke="#ffffff" stroke-width="1.5" stroke-linecap="round"/></g></g></g></svg>