<svg version="1.1" xmlns="http://www.w3.org/2000/svg" xmlns:xlink="http://www.w3.org/1999/xlink" width="961.16918" height="370.37261" viewBox="0,0,961.16918,370.37261"><defs><linearGradient x1="320" y1="228.5" x2="320" y2="351.50001" gradientUnits="userSpaceOnUse" id="color-1"><stop offset="0" stop-color="#000000" stop-opacity="0"/><stop offset="1" stop-color="#000000"/></linearGradient></defs><g transform="translate(159.43789,5.5)"><g data-paper-data="{&quot;isPaintingLayer&quot;:true}" fill-rule="nonzero" stroke-linecap="butt" stroke-linejoin="miter" stroke-miterlimit="10" stroke-dasharray="" stroke-dashoffset="0" style="mix-blend-mode: normal"><path d="M75,351.50001v-123h490v123z" fill="url(#color-1)" stroke="none" stroke-width="0"/><path d="M-157.55571,364.8726v-128.64526h959.28699v128.64527z" fill="#ff0000" stroke="none" stroke-width="0"/><path d="M-159.43789,55.08069v-60.58069h956.98477v60.58069z" fill="#ff0000" stroke="none" stroke-width="0"/><path d="M362,124.50001z" fill="#ffffff" stroke="none" stroke-width="0"/><text transform="translate(219.10001,17.25921) scale(0.33125,0.33125)" font-size="40" xml:space="preserve" fill="#800000" fill-rule="nonzero" stroke="none" stroke-width="1" stroke-linecap="butt" stroke-linejoin="miter" stroke-miterlimit="10" stroke-dasharray="" stroke-dashoffset="0" font-family="Sans Serif" font-weight="normal" text-anchor="start" style="mix-blend-mode: normal"><tspan x="0" dy="0">&lt;--- Credits and stuff</tspan><tspan x="0" dy="46.15px">        (Turn on "dark mode" </tspan><tspan x="0" dy="46.15px">        For a surprise)</tspan></text><path d="M367.2401,341.85704v-45.81504h164.26362v45.81504z" fill="#0096ff" stroke="#000000" stroke-width="0"/><text transform="translate(367.75935,337.07348) scale(0.61787,1.18321)" font-size="40" xml:space="preserve" fill="#ff0000" fill-rule="nonzero" stroke="none" stroke-width="1" stroke-linecap="butt" stroke-linejoin="miter" stroke-miterlimit="10" stroke-dasharray="" stroke-dashoffset="0" font-family="Sans Serif" font-weight="normal" text-anchor="start" style="mix-blend-mode: normal"><tspan x="0" dy="0">LOUD BUNCH</tspan></text><path d="M109.93227,277.98615c0,-11.42198 9.25934,-20.68132 20.68132,-20.68132c11.42198,0 20.68132,9.25934 20.68132,20.68132c0,11.42198 -9.25934,20.68132 -20.68132,20.68132c-11.42198,0 -20.68132,-9.25934 -20.68132,-20.68132z" fill="none" stroke="#00bbff" stroke-width="2"/><path d="M149.17772,277.98616c0,-11.42198 9.25934,-20.68133 20.68132,-20.68133c11.42198,0 20.68133,9.25934 20.68133,20.68133c0,11.42198 -9.25935,20.68133 -20.68133,20.68133c-11.42198,0 -20.68132,-9.25934 -20.68132,-20.68133z" fill="none" stroke="#00bbff" stroke-width="2"/><path d="M309.32123,277.98616c0,-11.42198 9.25934,-20.68133 20.68133,-20.68133c11.42198,0 20.68132,9.25934 20.68132,20.68133c0,11.42198 -9.25934,20.68133 -20.68132,20.68133c-11.42198,0 -20.68133,-9.25934 -20.68133,-20.68133z" fill="none" stroke="#00bbff" stroke-width="2"/><path d="M228.76024,277.98616c0,-11.42198 9.25934,-20.68133 20.68132,-20.68133c11.42198,0 20.68132,9.25934 20.68132,20.68133c0,11.42198 -9.25934,20.68133 -20.68132,20.68133c-11.42198,0 -20.68132,-9.25934 -20.68132,-20.68133z" fill="none" stroke="#00bbff" stroke-width="2"/><path d="M348.78633,277.98616c0,-11.42198 9.25935,-20.68133 20.68133,-20.68133c11.42198,0 20.68132,9.25934 20.68132,20.68133c0,11.42198 -9.25934,20.68133 -20.68132,20.68133c-11.42198,0 -20.68133,-9.25934 -20.68133,-20.68133z" fill="none" stroke="#00bbff" stroke-width="2"/><path d="M387.92528,277.98616c0,-11.42198 9.25934,-20.68133 20.68133,-20.68133c11.42198,0 20.68132,9.25934 20.68132,20.68133c0,11.42198 -9.25934,20.68133 -20.68132,20.68133c-11.42198,0 -20.68133,-9.25934 -20.68133,-20.68133z" fill="none" stroke="#00bbff" stroke-width="2"/><path d="M130.03223,317.54707c0,-11.42198 9.25934,-20.68133 20.68133,-20.68133c11.42198,0 20.68133,9.25934 20.68133,20.68133c0,11.42198 -9.25935,20.68133 -20.68133,20.68133c-11.42198,0 -20.68133,-9.25934 -20.68133,-20.68133z" fill="none" stroke="#00bbff" stroke-width="2"/><text transform="translate(112.40957,253.88188) scale(0.1417,0.1417)" font-size="40" xml:space="preserve" fill="#00bbff" fill-rule="nonzero" stroke="none" stroke-width="1" stroke-linecap="butt" stroke-linejoin="miter" stroke-miterlimit="10" stroke-dasharray="" stroke-dashoffset="0" font-family="Sans Serif" font-weight="normal" text-anchor="start" style="mix-blend-mode: normal"><tspan x="0" dy="0">TH3P0L0M4N</tspan></text><text transform="translate(158.19719,253.64808) scale(0.2067,0.2067)" font-size="40" xml:space="preserve" fill="#00bbff" fill-rule="nonzero" stroke="none" stroke-width="1" stroke-linecap="butt" stroke-linejoin="miter" stroke-miterlimit="10" stroke-dasharray="" stroke-dashoffset="0" font-family="Sans Serif" font-weight="normal" text-anchor="start" style="mix-blend-mode: normal"><tspan x="0" dy="0">Lunar</tspan></text><text transform="translate(233.77714,252.77397) scale(0.22585,0.22585)" font-size="40" xml:space="preserve" fill="#00bbff" fill-rule="nonzero" stroke="none" stroke-width="1" stroke-linecap="butt" stroke-linejoin="miter" stroke-miterlimit="10" stroke-dasharray="" stroke-dashoffset="0" font-family="Sans Serif" font-weight="normal" text-anchor="start" style="mix-blend-mode: normal"><tspan x="0" dy="0">Iguana</tspan></text><text transform="translate(312.6375,253.87899) scale(0.1417,0.1417)" font-size="40" xml:space="preserve" fill="#00bbff" fill-rule="nonzero" stroke="none" stroke-width="1" stroke-linecap="butt" stroke-linejoin="miter" stroke-miterlimit="10" stroke-dasharray="" stroke-dashoffset="0" font-family="Sans Serif" font-weight="normal" text-anchor="start" style="mix-blend-mode: normal"><tspan x="0" dy="0">LemonBoi03</tspan></text><text transform="translate(356.12941,252.85846) scale(0.19927,0.19927)" font-size="40" xml:space="preserve" fill="#00bbff" fill-rule="nonzero" stroke="none" stroke-width="1" stroke-linecap="butt" stroke-linejoin="miter" stroke-miterlimit="10" stroke-dasharray="" stroke-dashoffset="0" font-family="Sans Serif" font-weight="normal" text-anchor="start" style="mix-blend-mode: normal"><tspan x="0" dy="0">Ylli_idk</tspan></text><text transform="translate(392.51511,253.71318) scale(0.19928,0.19927)" font-size="40" xml:space="preserve" fill="#00bbff" fill-rule="nonzero" stroke="none" stroke-width="1" stroke-linecap="butt" stroke-linejoin="miter" stroke-miterlimit="10" stroke-dasharray="" stroke-dashoffset="0" font-family="Sans Serif" font-weight="normal" text-anchor="start" style="mix-blend-mode: normal"><tspan x="0" dy="0">Mathias</tspan></text><path d="M470.07082,277.61107c0,-11.42198 9.25934,-20.68133 20.68133,-20.68133c11.42198,0 20.68132,9.25934 20.68132,20.68133c0,11.42198 -9.25934,20.68133 -20.68132,20.68133c-11.42198,0 -20.68133,-9.25934 -20.68133,-20.68133z" fill="none" stroke="#00bbff" stroke-width="2"/><text transform="translate(480.26241,253.55612) scale(0.19928,0.19927)" font-size="40" xml:space="preserve" fill="#00bbff" fill-rule="nonzero" stroke="none" stroke-width="1" stroke-linecap="butt" stroke-linejoin="miter" stroke-miterlimit="10" stroke-dasharray="" stroke-dashoffset="0" font-family="Sans Serif" font-weight="normal" text-anchor="start" style="mix-blend-mode: normal"><tspan x="0" dy="0">Mezz</tspan></text><text transform="translate(135.30655,348.1413) scale(0.19928,0.19927)" font-size="40" xml:space="preserve" fill="#00bbff" fill-rule="nonzero" stroke="none" stroke-width="1" stroke-linecap="butt" stroke-linejoin="miter" stroke-miterlimit="10" stroke-dasharray="" stroke-dashoffset="0" font-family="Sans Serif" font-weight="normal" text-anchor="start" style="mix-blend-mode: normal"><tspan x="0" dy="0">Kwacker</tspan></text><path d="M249.18492,317.54707c0,-11.42198 9.25934,-20.68133 20.68133,-20.68133c11.42198,0 20.68133,9.25934 20.68133,20.68133c0,11.42198 -9.25935,20.68133 -20.68133,20.68133c-11.42198,0 -20.68133,-9.25934 -20.68133,-20.68133z" fill="none" stroke="#00bbff" stroke-width="2"/><text transform="translate(246.7094,348.1413) scale(0.19928,0.19927)" font-size="40" xml:space="preserve" fill="#00bbff" fill-rule="nonzero" stroke="none" stroke-width="1" stroke-linecap="butt" stroke-linejoin="miter" stroke-miterlimit="10" stroke-dasharray="" stroke-dashoffset="0" font-family="Sans Serif" font-weight="normal" text-anchor="start" style="mix-blend-mode: normal"><tspan x="0" dy="0">ThatOneBird</tspan></text></g></g></svg>