<svg version="1.1" xmlns="http://www.w3.org/2000/svg" xmlns:xlink="http://www.w3.org/1999/xlink" width="107.34019" height="243.25225" viewBox="0,0,107.34019,243.25225"><g transform="translate(-267.02833,-58.53604)"><g stroke-miterlimit="10"><path d="M327.28625,154.1342l34.0192,13.14378l10.82428,133.37075l-103.99052,0.38658l8.50479,-134.65936l31.31312,-11.98404z" fill="#c2b851" stroke="#121212" stroke-width="1.5" stroke-linecap="round"/><g fill="#000000" stroke="none" stroke-width="0" stroke-linecap="butt"><path d="M313.51752,174.39178l-5.49672,-8.48556l5.49672,-8.70885h10.0773l5.86317,8.70885l-5.86317,8.48556z"/><path d="M312.48688,218.15936l-4.46608,-8.37215l4.46608,-40.08482h12.05841l4.24278,39.57741l-4.24278,8.87954z"/></g><path d="M334.84048,157.1248l26.24771,10.14117c0,0 0.89558,11.03485 1.67926,20.69104c1.82883,22.53395 9.14502,112.67971 9.14502,112.67971l-103.99052,0.38657l8.50479,-134.65936l24.77674,-9.48246c0,0 2.00453,19.68355 6.02893,31.99557c4.02441,12.31202 11.72886,22.33147 11.72886,22.33147c0,0 8.56656,-13.27234 11.19328,-22.2188c2.62672,-8.94647 4.68593,-31.86491 4.68593,-31.86491z" fill="#333333" stroke="#121212" stroke-width="1.5" stroke-linecap="round"/><path d="M291.32437,301.03532l5.41216,-117.13431" fill="none" stroke="#121212" stroke-width="1.5" stroke-linecap="round"/><path d="M347.91119,300.60619l-5.41213,-117.13429" fill="none" stroke="#121212" stroke-width="1.5" stroke-linecap="round"/><path d="M318.9627,210.56702l1.33982,89.76819" fill="none" stroke="#121212" stroke-width="1.75" stroke-linecap="round"/><path d="M267.02833,301.78056l4.52873,-71.50334c0,0 7.97565,1.9667 11.44313,1.83562c3.51873,-0.133 10.63428,-2.85122 10.63428,-2.85122c0,0 21.28216,-0.71587 29.28699,-3.31961c8.94235,-2.90867 21.86671,-13.31915 21.86671,-13.31915c0,0 6.4602,1.44065 9.78421,1.34945c3.10225,-0.08512 11.10368,-1.8797 11.10368,-1.8797l7.2956,89.24133z" fill-opacity="0.50196" fill="#000000" stroke="none" stroke-width="1.5" stroke-linecap="butt"/><path d="" fill="#d8d8d8" stroke="#8d8d8d" stroke-width="1.5" stroke-linecap="butt"/><path d="M367.27848,122.09261c-3.31929,25.76207 -26.17422,44.04833 -51.04797,40.84349c-24.87375,-3.20484 -42.34706,-26.68712 -39.02778,-52.4492c3.31929,-25.76207 26.17421,-44.04833 51.04797,-40.84349c24.87375,3.20484 42.34705,26.68715 39.02778,52.44922z" fill="#000000" stroke="#fff477" stroke-width="1.5" stroke-linecap="butt"/><path d="M350.59679,149.02635c0,0 -4.07502,-9.74337 -10.38356,-19.85429c-3.8533,-6.17579 -10.25422,-12.6185 -12.06775,-16.6832c-3.2978,-7.39143 -3.48408,-21.59213 -3.48408,-21.59213c0,0 5.17135,12.49663 8.66633,20.33c0.91377,2.04806 10.22628,10.54557 11.56905,13.50116c5.6457,12.42659 5.7,24.29845 5.7,24.29845z" fill="#ded468" stroke="#ded468" stroke-width="1.5" stroke-linecap="round"/><path d="M323.95977,63.24239c3.63312,0.49548 7.57591,1.31837 11.14714,0.71507c0.77988,-0.60184 1.47181,-0.42858 2.29839,-0.80142c1.71244,-0.77243 6.53245,-3.27125 7.85067,-0.09712c1.42063,3.42071 -5.16087,2.47138 -6.66218,2.34564c-0.0968,0.75131 1.52362,0.09172 2.25328,0.29521c0.6009,0.16759 2.45071,0.96015 2.8642,1.31015c2.88208,2.43961 7.80371,3.13166 10.17581,6.25442c2.69429,1.78457 6.89687,4.19031 8.29864,7.3043c0.04723,0.10492 0.37667,0.66175 0.70637,1.2674c-0.0055,-0.13517 -0.00847,-0.27183 -0.0095,-0.40734l-0.15505,0.01819l-0.129,-1.09905c-0.00832,-0.0596 -0.00892,-0.12127 -0.00086,-0.18384c0.04866,-0.37765 0.39425,-0.64437 0.77192,-0.59571c0.1437,0.01851 0.27131,0.08002 0.37165,0.16992l0.73308,0.63795l-0.03036,0.0349l0.12359,0.06397c0.87531,1.81424 2.53803,3.59618 3.80952,5.28155c0.26816,1.36767 0.70826,2.17278 0.72376,3.66648c0.01325,1.27666 -0.61024,2.57282 -0.04327,3.82975c1.43125,3.17309 3.01446,6.33313 3.72454,9.95478c0.90739,4.62783 2.83811,6.74398 0.40094,11.47885l0.25073,0.1398l-0.66371,1.19033c-0.13043,0.24722 -0.40461,0.39991 -0.69811,0.36209c-0.30761,-0.03964 -0.54162,-0.27626 -0.59155,-0.56677l-0.16251,-0.82889l0.03843,-0.00754l-0.05094,-0.10255c0.09269,-0.71941 -0.34483,-1.53137 -0.73483,-2.20294c-0.009,1.14451 0.09705,2.30244 -0.24836,3.44824c-0.87324,2.8968 -2.06994,5.72039 -3.10175,8.59753c-0.91201,0.67718 -2.81912,1.34617 -3.63156,-0.11506c-0.50738,-0.91256 0.22199,-1.3904 0.42396,-2.10955c0.48478,-1.72623 0.22188,-3.66451 0.69552,-5.39818c0.03609,-0.13215 0.80822,-1.74546 0.60235,-1.94556c-0.41101,-0.39939 -1.29304,0.39057 -1.71922,0.00743c-0.2786,-0.25046 -0.5088,-1.10665 -0.65452,-1.93745c-0.26281,0.82588 -0.78842,1.35923 -2.08193,0.84001c-1.34253,-0.53891 -2.99896,-3.59022 -4.62139,-3.57503c-0.56859,0.00533 -0.77182,0.88215 -1.29007,1.11611c-1.29355,0.58396 -2.81553,1.57373 -4.18019,1.9753c-1.19205,0.35077 -2.4487,-0.06253 -3.3938,0.66679c-0.95994,-0.086 -3.56251,0.08368 -4.03546,-1.12569c-0.23814,-0.60902 1.19327,-3.36053 1.52022,-3.84698c0.27129,-0.4036 1.33895,-1.35756 0.89995,-1.14833c-1.98027,0.94391 -5.19257,0.91108 -7.15437,-0.22233c-0.33305,-0.19244 -0.73984,-0.35475 -1.07975,-0.53598c0.08833,0.88907 0.50508,1.58734 0.53341,2.69932c-1.84799,0.14268 -4.3075,0.07541 -6.0979,-0.50596c-0.95179,-0.30905 -1.257,-0.61718 -1.78553,-1.47621c-0.0791,-0.12859 -0.00292,-0.55741 -0.09991,-0.44172c-0.83671,0.99797 -3.96556,4.43316 -5.90584,4.21158c-2.26255,-0.2584 -0.5585,-2.41489 -0.27668,-3.87372c-0.42205,0.23863 -0.96269,0.48418 -1.26581,0.59014c-1.36951,0.47875 -2.71971,1.37647 -4.22089,1.43861c-3.60763,0.14934 -7.81762,0.46001 -11.55254,0.08792l0.00429,0.11583l-1.36502,0.05055c-0.04152,0.00226 -0.08386,0.0008 -0.12658,-0.00471c-0.37766,-0.04867 -0.64439,-0.39426 -0.59573,-0.77193c0.02433,-0.18883 0.12289,-0.34991 0.2626,-0.45774l0.5802,-0.44774c1.09942,-1.13308 2.08163,-2.14321 2.99018,-3.27068c-0.5075,0.31966 -0.97219,0.58821 -1.1912,0.6945c-0.56199,0.27279 -1.39325,-0.18312 -1.8596,0.2325c-0.49982,0.44546 -0.85895,1.15263 -1.50427,1.331c-1.48127,0.40947 -2.5291,0.17128 -3.60084,1.3806c-1.66893,0.24305 -1.80561,0.98311 -3.29905,1.54258c-3.33239,1.24839 -7.88606,0.87884 -11.33018,0.81192c-1.44557,-0.0281 -3.06262,-0.72867 -4.49679,-0.5946c-1.13202,0.10583 -1.75161,0.60427 -2.9629,0.46002c-1.37091,-0.17664 -2.20913,0.00741 -2.64684,-1.65794c-0.34003,-1.29363 0.59734,-3.08266 0.54733,-4.40981c-0.14181,-3.76286 -2.112,-2.51568 -0.28634,-6.29618c0.57827,-3.30842 4.33334,-6.50492 6.19163,-9.2677c1.61891,-2.40688 2.18569,-5.26624 3.46595,-7.98062c0.73413,-1.49563 2.03263,-2.11232 2.96676,-3.33048c2.91126,-3.79643 7.02844,-6.03368 10.98439,-8.96306c1.21789,-0.23878 1.59329,-1.18429 2.69693,-1.58685c2.27301,-0.82904 4.45251,-2.72978 6.77481,-3.77815c1.39543,-0.62994 2.64144,-0.40948 4.0159,-0.88767c0.49036,-0.1706 2.01668,0.18031 1.19889,-0.10144c-0.88716,-0.80764 -3.12641,-5.54901 0.24907,-4.09066c0.36184,0.15631 1.12573,1.55005 1.62347,1.82619c2.3634,1.31109 5.25498,1.64838 7.8243,2.60335z" fill="#8f8100" stroke="none" stroke-width="1.5" stroke-linecap="butt"/><path d="M318.70673,122.42885c-0.48489,3.76339 -1.92269,7.11374 -3.96104,9.71465c-3.0482,3.88946 -19.65213,1.75588 -21.72455,-2.04667c-1.79283,-3.28953 -2.40644,-6.8592 -1.8452,-11.21515c0.24111,-1.87134 0.71783,-3.64056 1.38685,-5.26629c2.05899,-5.00339 18.13005,-3.65758 24.61931,0.79396c1.98367,1.36077 1.61286,7.33454 1.52461,8.0195z" fill="#fff477" stroke="none" stroke-width="1.5" stroke-linecap="butt"/><path d="M330.21311,116.20571c7.40569,-2.66124 23.29303,0.11057 24.01652,5.47247c0.23507,1.7422 0.24776,3.57449 0.00665,5.44584c-0.56123,4.35595 -2.05965,7.6535 -4.62774,10.38115c-2.96859,3.15303 -19.5711,1.00817 -21.53383,-3.52691c-1.31251,-3.03265 -1.85409,-6.63803 -1.3692,-10.40142c0.08826,-0.68499 1.2438,-6.55762 3.50762,-7.37113z" fill="#fff477" stroke="none" stroke-width="1.5" stroke-linecap="butt"/><g fill-opacity="0.75686" fill="#ffffff" stroke="none" stroke-width="0" stroke-linecap="butt"><path d="M298.77841,121.2087c-0.67494,5.23846 -2.51274,9.3188 -4.10482,9.11367c-1.59208,-0.20513 -2.33557,-4.61803 -1.66062,-9.85652c0.67494,-5.23846 2.51274,-9.3188 4.10481,-9.11367c1.59208,0.20513 2.33558,4.61803 1.66063,9.85652z"/><path d="M303.89448,117.93547c-0.38379,2.97873 -1.42883,5.29892 -2.33411,5.18228c-0.9053,-0.11664 -1.32807,-2.62595 -0.94428,-5.60467c0.38379,-2.97873 1.42883,-5.29893 2.33411,-5.18229c0.9053,0.11664 1.32807,2.62595 0.94428,5.60468z"/></g><g fill-opacity="0.75686" fill="#ffffff" stroke="none" stroke-width="0" stroke-linecap="butt"><path d="M334.65765,126.24771c-0.67494,5.23846 -2.51274,9.3188 -4.10481,9.11367c-1.59208,-0.20513 -2.33558,-4.61803 -1.66063,-9.85652c0.67494,-5.23846 2.51274,-9.3188 4.10482,-9.11367c1.59208,0.20513 2.33557,4.61804 1.66062,9.85652z"/><path d="M339.77373,122.97448c-0.38379,2.97873 -1.42883,5.29892 -2.33411,5.18228c-0.9053,-0.11664 -1.32807,-2.62595 -0.94428,-5.60467c0.38379,-2.97873 1.42883,-5.29893 2.33411,-5.18229c0.9053,0.11664 1.32807,2.62595 0.94428,5.60468z"/></g><path d="M337.78158,151.07065c-0.62781,3.55256 -7.03553,3.38919 -20.06931,2.04015c-13.03378,-1.34905 -19.12873,-2.53268 -18.50092,-6.08522c0.62781,-3.55256 7.20826,-5.11611 20.24206,-3.76706c13.03378,1.34905 18.956,4.25959 18.32817,7.81215z" fill="#000000" stroke="#fff477" stroke-width="1.5" stroke-linecap="butt"/><path d="M331.44738,148.0143l-3.77779,3.46174l-2.53118,-4.78639" fill="none" stroke="#fff477" stroke-width="1.5" stroke-linecap="round"/></g></g></svg>