<svg version="1.1" xmlns="http://www.w3.org/2000/svg" xmlns:xlink="http://www.w3.org/1999/xlink" width="159.70465" height="340.72556" viewBox="0,0,159.70465,340.72556"><g transform="translate(-159.81681,-55.13777)"><g data-paper-data="{&quot;isPaintingLayer&quot;:true}" fill-rule="nonzero" stroke-linejoin="miter" stroke-miterlimit="10" stroke-dasharray="" stroke-dashoffset="0" style="mix-blend-mode: normal"><path d="M193.68188,304.45395l1.45783,-249.31618l91.17841,0.40828l-1.45783,249.31618z" fill-opacity="0.01" fill="#000000" stroke="none" stroke-width="0" stroke-linecap="butt"/><g stroke="none" stroke-width="0.5" stroke-linecap="butt"><path d="M211.12523,295.11084c-0.34262,-0.55801 -0.64616,-1.15324 -0.90693,-1.79661c-0.00783,0.75232 0.03156,1.49496 0.12656,2.21344c0.04885,-0.02828 0.10149,-0.04367 0.15635,-0.04367c0.05509,0 0.10793,0.01553 0.15695,0.04402l0.60732,0.32734l-0.0391,0.18968c0.14545,0.11128 0.27064,0.26395 0.35948,0.47816c0.17612,0.42465 -0.31056,-0.89194 -0.44423,-1.35532c-0.00548,-0.019 -0.01095,-0.03802 -0.01639,-0.05705zM212.70085,297.17607c-0.11766,-0.12764 -0.23288,-0.25689 -0.3456,-0.38797c-0.18502,1.23797 -0.81107,1.46043 -1.22255,0.82636l-0.08078,0.64961c0.17063,0.41151 0.37008,0.8042 0.60071,1.17399l0.20587,0.33287c0,0 0.32798,0.53033 0,1.06066c-0.32798,0.53033 -0.65596,0 -0.65596,0l-0.20587,-0.33287c-0.2055,-0.33469 -0.39002,-0.68391 -0.55474,-1.04571c-0.14012,-0.03984 -0.25856,-0.18137 -0.32516,-0.37578l-0.45977,-1.28624l0.01062,-0.00993l-0.03201,-0.05757c-0.19338,-0.9305 -0.65358,-3.56217 -0.5535,-5.37938c-0.04437,-0.10589 -0.07408,-0.24765 -0.07408,-0.43745c0,-0.38934 0.12499,-0.57657 0.24521,-0.6666c0.02429,-0.07803 0.05128,-0.15103 0.08115,-0.21847l-0.19718,-0.68133c-0.03065,-0.10013 -0.04787,-0.21292 -0.04787,-0.33221c0,-0.41422 0.20767,-0.75 0.46384,-0.75c0.0512,0 0.10046,0.01342 0.14651,0.03818c0.10451,-0.58704 0.22765,-1.16827 0.36656,-1.73893c0.0358,-0.14472 0.07379,-0.31804 0.11406,-0.51152c-4.31186,0.56069 -8.89322,0.01315 -12.85161,-2.05936c-2.72145,-1.42489 -6.0968,-3.45346 -8.4902,-6.02593c-2.4638,-2.64813 -4.53939,-6.32449 -6.62008,-9.68281c-4.05345,-6.55826 -7.47392,-15.02725 -10.01413,-23.24202c-0.90871,-2.93869 -1.93325,-5.92778 -2.49688,-9.09862c-0.07101,-0.39951 -0.5032,-3.32703 -0.49361,-3.34994c0.29693,-0.70959 2.6318,-0.44198 3.15644,-0.46612c2.76712,-0.12734 5.36718,0.39412 8.10883,0.97551c0.76479,0.16218 1.52842,0.31201 2.29121,0.45159c-0.90368,-8.2209 -1.54121,-16.4329 -2.84586,-24.55316c-0.84621,-5.29667 -1.56075,-10.95531 -2.99184,-15.9832c-1.05828,-3.7181 -2.37454,-7.29127 -3.46509,-11.01393c-1.53274,-5.23211 -2.93313,-11.34304 -4.92703,-16.14496c-1.21845,-2.93439 -2.43546,-6.28379 -3.29076,-9.52359c-1.08572,-4.21332 -2.79803,-7.86368 -4.19529,-11.81746c-0.13992,-0.39592 -1.29509,-2.96671 -1.23536,-3.23651c0.25512,-1.1523 1.52078,-0.90816 1.99669,-0.91056c1.75109,-0.00879 3.50228,0 5.25338,0c6.24269,0.01384 12.42577,3.823 18.61792,4.71437c6.09163,0.87691 12.17816,2.42994 18.2604,3.74123c6.27602,1.35307 12.57353,2.49176 18.84251,3.75884c6.27626,1.26855 12.58279,2.24187 18.86106,2.96155c6.33679,0.73015 12.77208,1.64355 19.08409,2.82047c6.0092,1.12046 12.08938,1.49841 18.14054,2.11977c6.3276,0.64974 12.69532,0.52856 19.03354,0.79826c6.28849,0.26783 12.59684,0.94222 18.86816,1.72522c0.15897,0.03665 2.19061,0.30505 2.30209,0.49839c1.1647,2.02011 -0.28275,5.4689 -0.79463,7.32685c-1.57281,5.70865 -3.50061,11.28231 -5.50037,16.64941c-1.20866,2.44841 -2.2227,5.44522 -3.53041,7.71984c-2.67797,4.65806 -6.27337,9.31849 -9.49035,12.966c-4.77265,5.40199 -9.49964,11.51775 -12.50273,19.69082c-1.23906,3.6574 -3.19977,7.53603 -3.2268,11.96111l-0.44829,1.49458c0,0 -0.03661,0.11839 -0.10983,0.23083c3.20933,0.75961 6.7021,0.21243 9.91868,0.68072c4.08638,0.60109 8.10749,0.73882 12.2154,0.73882c2.16299,0 3.67013,-0.6348 5.00499,2.55806c1.62646,3.97136 4.15665,7.73335 4.71323,12.68746c0.48743,4.33859 -0.5207,9.01672 -1.26855,13.1147c-3.60594,8.85207 -8.71291,12.70484 -14.42443,17.33752c-5.68962,4.59992 -11.15441,9.17825 -17.15227,12.69045c-1.43089,0.57587 -2.82305,1.13986 -4.245,1.68584c-0.05438,6.47577 -0.05447,12.96337 0.76407,19.27853c0.78729,3.82765 1.11734,7.91994 1.93029,11.69007c1.05911,4.91178 3.37828,9.33311 5.28176,13.43734c1.92829,3.91454 4.13695,7.45412 6.16283,11.29148c1.58905,3.00993 2.84012,6.50644 4.53103,9.37182c2.60151,4.80637 5.18561,9.7562 7.66127,14.77134c0.6774,1.37227 1.32008,2.74568 1.99869,4.12608c0.18723,0.38086 0.57106,0.69226 0.53524,1.17533c-0.14106,1.90232 -1.10784,1.3274 -1.76381,1.24641c-6.03221,-1.18914 -12.13447,-1.8279 -18.24419,-1.8279c-6.2829,0 -12.58952,-0.07772 -18.8099,0.85973c-5.99769,0.88163 -11.94264,2.58218 -17.9299,3.13442c-2.86378,0.00094 -6.07158,-0.64836 -8.90457,-0.00833c-3.10182,0.70076 -6.28041,1.34012 -9.43569,1.34012c-2.98988,0 -5.94334,1.04231 -8.93324,1.33055c-2.95719,0.28509 -5.99492,0.25964 -8.95986,0.3666c-4.90542,0.52977 -9.67327,0.09892 -14.55767,-0.36685c-1.54881,-0.14769 -3.07594,0.09582 -4.61948,-0.2494c-0.40264,-0.31723 -1.04759,-0.27546 -1.20791,-0.95169c-0.11481,-0.48426 1.14234,-3.78481 1.35982,-4.31359c2.50888,-6.10004 4.14241,-13.13538 6.3457,-19.5443c2.66493,-9.05958 4.34568,-18.42579 6.45291,-27.79582c2.01528,-8.95989 3.4288,-18.83216 3.91921,-28.34776c0.1953,-3.76943 0.32314,-7.83493 0.70366,-11.57834c0.16156,-1.58937 0.38416,-3.19528 0.58007,-4.81346z" fill="#ffffff"/><path d="M194.18632,236.15155c1.63699,-0.0951 3.27244,-0.24091 4.88817,-0.25146c2.84251,0 6.29188,-0.91756 9.05681,0.01781c2.82069,0.95423 5.69885,1.72278 8.59479,2.1282c6.15873,0.86595 12.06605,1.51558 18.27287,1.51558c6.18995,0 12.26459,-0.58909 18.4359,-1.31664c1.53384,-0.81637 3.42505,-0.34771 5.03254,-0.34771c4.22677,0 8.25354,0.47063 12.4233,1.70608c6.15954,0.99174 12.01514,4.95936 16.71398,11.47746c1.07062,1.75491 2.28278,3.57878 2.80074,5.97436c0.68472,3.16685 0.17665,7.72197 -0.21588,10.89245c-0.13396,1.08202 -0.4203,3.88967 -0.99015,4.6032c-0.26558,0.33254 -0.67568,0.01371 -1.00489,0.12152c-1.2196,0.39939 -1.98215,1.01064 -3.27236,1.01064c-6.03479,0 -12.11644,-0.44961 -18.09769,0.77122c-6.01012,1.21008 -11.80668,2.13527 -17.86196,1.43785c-6.02385,-0.69574 -12.0441,-0.54471 -18.0808,-0.54471c-4.1163,0 -8.55406,0.77543 -12.64104,-0.0163c-1.75833,-0.34062 -3.54011,-0.90837 -5.30428,-1.10334c-3.3036,-0.38155 -7.02851,-0.3895 -10.23423,-1.6999c-2.40113,-0.98151 -5.08109,-2.98226 -7.53091,-3.25639c-1.17546,-0.37829 -2.1664,-1.11533 -3.2957,-1.597c-0.75418,-0.32167 -1.6999,-0.08999 -2.41314,-0.7636c-0.78949,-0.74561 -1.52195,-2.99834 -2.0008,-4.23554c-0.56449,-1.45845 -1.4968,-2.87781 -1.89473,-4.46814c-0.52869,-2.1129 -0.23312,-5.17656 -0.23312,-7.40797c0,-2.9535 -0.33981,-7.07471 0.44893,-9.78319c0.50479,-1.73341 1.95349,-2.37712 2.9305,-2.87166c0.84396,-0.4272 1.611,-0.85272 2.38613,-1.23091c0.02774,-0.68046 0.46245,-0.68046 0.46245,-0.68046h0.20586c0.32047,0 0.64123,-0.00547 0.96214,-0.01502c0.32963,-0.11652 0.66982,-0.22054 1.02597,-0.30913c0,0 0.2736,-0.06806 0.43059,0.24274z" fill="#000000"/></g><path d="M194.29108,258.63653v-149.99391h91.18203v149.99391z" fill-opacity="0.01" fill="#000000" stroke="none" stroke-width="0" stroke-linecap="butt"/><path d="M200.03778,257.32099c0,0 -0.63536,-55.90682 -0.79335,-69.90258c-0.05451,-4.82907 8.18688,-21.77498 40.20201,-21.86964c31.60235,-0.09344 39.85672,17.46619 39.84884,21.85521c-0.07659,27.39117 0.65429,69.88746 0.65429,69.88746l-10.49667,0.05695l-0.15882,-68.02554c0,0 0.07549,-1.83582 -2.81625,-1.86831c-3.43441,-0.03858 -2.94538,1.84549 -2.94538,1.84549l0.20548,68.04143l-48.21366,0.04278l-0.30539,-68.25653c0,0 0.27949,-1.72902 -2.8856,-1.73816c-3.11083,-0.00897 -2.81569,1.7231 -2.81569,1.7231l0.35311,68.15803z" fill="#ffffff" stroke="#000000" stroke-width="2" stroke-linecap="butt"/><path d="M254.63495,195.68395c-0.57113,0 -1.03411,-0.27424 -1.03411,-0.61254c0,-0.3383 0.46299,-0.61255 1.03411,-0.61255c0.57113,0 1.03411,0.27425 1.03411,0.61255c0,0.3383 -0.46299,0.61254 -1.03411,0.61254z" fill="#000000" stroke="none" stroke-width="1.5" stroke-linecap="butt"/><path d="M249.37507,198.19284c-4.4635,-0.18622 -6.55245,-1.0626 -6.16985,-1.52829c0.11788,-0.14349 2.84645,0.62998 6.97038,0.77288c6.40897,0.22208 8.51033,-0.3742 8.51033,-0.3742v0.79738c0,0 -2.4135,0.62001 -9.31086,0.33223z" fill="#000000" stroke="#000000" stroke-width="0" stroke-linecap="butt"/><path d="M221.56232,195.07141c0,-0.3383 0.46299,-0.61255 1.03411,-0.61255c0.57113,0 1.03413,0.27425 1.03413,0.61255c0,0.3383 -0.463,0.61254 -1.03413,0.61254c-0.57113,0 -1.03411,-0.27424 -1.03411,-0.61254z" fill="#000000" stroke="none" stroke-width="1.5" stroke-linecap="butt"/><path d="M227.85631,198.19284c-6.89736,0.28779 -9.31086,-0.33223 -9.31086,-0.33223v-0.79738c0,0 2.10136,0.59628 8.51033,0.3742c4.12393,-0.14291 6.85251,-0.91637 6.97039,-0.77288c0.3826,0.46568 -1.70634,1.34206 -6.16985,1.52829z" fill="#000000" stroke="#000000" stroke-width="0" stroke-linecap="butt"/><path d="M239.13677,231.69041c-0.81895,0 -1.48284,-0.39324 -1.48284,-0.87834c0,-0.48509 0.66389,-0.87834 1.48284,-0.87834c0.81895,0 1.48284,0.39324 1.48284,0.87834c0,0.48509 -0.66389,0.87834 -1.48284,0.87834z" data-paper-data="{&quot;index&quot;:null}" fill="#000000" stroke="none" stroke-width="1.5" stroke-linecap="butt"/><path d="M215.07351,257.32954v-70.60714c0,0 0.75721,-5.76404 0.75721,-8.6714c0,-2.66432 -0.75721,-8.1074 -0.75721,-8.1074c0,0 2.67319,-1.39375 4.6557,-2.22011c1.98251,-0.82637 5.17197,-1.66073 5.17197,-1.66073c0,0 -0.6016,23.75796 14.55952,23.71629c15.43477,-0.04242 13.83154,-23.71629 13.83154,-23.71629c0,0 3.91276,0.90011 6.16585,1.74534c2.25309,0.84523 4.75379,2.1355 4.75379,2.1355c0,0 -0.75721,5.58253 -0.75721,8.40642c0,2.86804 0.75721,8.6714 0.75721,8.6714v70.30813z" fill="#79ff00" stroke="#000000" stroke-width="2" stroke-linecap="butt"/><path d="M194.93429,138.55111c0,0 6.16329,-3.50773 6.29161,-4.02054c0.33654,-1.34497 -0.16776,-23.79595 35.96775,-24.62561c44.63633,-0.54117 39.01489,20.93827 41.53088,24.99077c3.44981,5.5566 6.15664,10.30671 6.15664,10.30671c0,0 -2.76715,-1.21636 -4.0797,-1.85636c-1.2242,-0.59691 -3.80143,-1.8634 -3.80143,-1.8634c0,0 3.09111,6.12954 1.31092,12.25835c-1.5623,5.61591 -7.29782,10.20322 -7.29782,10.20322l-1.15522,-1.39042c0,0 -1.02266,1.30192 -2.16005,1.9741c-1.1374,0.67218 -3.43873,1.72531 -3.43873,1.72531l-0.09205,-2.19413c0,0 -7.0601,6.52631 -24.35066,6.43959c-16.30625,-0.15132 -26.07151,-6.32329 -26.07151,-6.32329l-0.1162,1.57255c0,0 -3.89477,-1.95042 -6.18145,-5.75011c-2.72545,-4.52879 -3.23946,-7.25209 -3.23946,-7.25209c0,0 -2.33908,1.12494 -5.71704,1.64337c-4.23278,0.64963 -6.94665,0.20451 -6.94665,0.20451c0,0 3.60795,-1.60947 5.58396,-2.82537c1.76007,-1.08302 2.64658,-2.00044 2.64658,-2.00044c0,0 -2.10758,0.64251 -4.23277,0.95837c-2.21739,0.32957 -4.03008,0.31449 -4.03008,0.31449c0,0 4.97492,-2.98375 7.03074,-6.44122c1.94102,-3.2644 2.09972,-6.49039 2.09972,-6.49039c0,0 -1.36165,0.39191 -3.33013,0.47098c-1.24776,0.05013 -2.37785,-0.02897 -2.37785,-0.02897z" fill="#000000" stroke="none" stroke-width="1.5" stroke-linecap="butt"/><path d="M211.72018,145.2573c-0.57709,-4.32003 0.335,-10.16119 0.335,-10.16119c0,0 3.41059,-0.02443 13.91429,-1.86244c8.0696,-1.41209 20.54731,-5.61961 20.54731,-5.61961c0,0 -2.16005,1.77998 -3.40781,2.6419c-1.32651,0.91632 -3.99292,2.7028 -3.99292,2.7028c0,0 7.838,-0.98778 14.67476,-2.80133c8.56837,-2.09435 10.59252,-3.58545 12.95042,-2.72041c2.7829,1.02096 1.03006,13.73191 0.71846,17.02406c-0.42163,3.35807 -2.53327,5.62699 -3.15031,7.41634c-0.61704,1.78935 -0.4096,3.63493 -2.20622,9.50087c-1.12121,3.66075 -4.16183,5.28638 -10.01942,8.6841c-5.85759,3.39773 -9.05378,5.48072 -13.01359,5.52158c-3.81077,0.03933 -8.93565,-3.02102 -13.93542,-6.14988c-5.32393,-3.33173 -8.87489,-5.0213 -9.71551,-8.9678c-0.75707,-3.55424 -0.77653,-5.86916 -1.12266,-9.03212c-0.25298,-2.31172 -2.26119,-3.81762 -2.57636,-6.17687z" fill="#ffffff" stroke="#000000" stroke-width="1.5" stroke-linecap="butt"/><path d="M259.70611,138.20541c0,0 1.23145,0.91787 3.37306,2.67709c1.95611,1.60685 3.35554,3.09908 3.35554,3.09908l-0.17343,0.69897c0,0 -5.38292,-5.19794 -12.41213,-8.75032c-5.62039,-2.84038 -9.48256,-3.48159 -9.48256,-3.48159l1.26381,-2.12743c0,0 3.21732,0.67007 7.37758,2.93538c4.30792,2.34572 6.85795,4.3073 6.85795,4.3073z" data-paper-data="{&quot;index&quot;:null}" fill="#000000" stroke="none" stroke-width="1.5" stroke-linecap="butt"/><path d="M247.02605,161.76399c0.5704,0.12549 3.08357,0.82892 6.02385,1.53762c2.9637,0.71434 7.21362,1.35819 7.19412,1.45744c-0.02476,0.12596 -10.43477,0.13442 -13.67937,0.3745c-2.71902,0.20118 -6.68867,0.41797 -6.68867,0.41797c0,0 -7.10401,-0.68811 -13.27235,-1.44838c-4.94371,-0.60933 -10.39929,-0.98391 -10.40995,-1.03932c-0.01439,-0.07471 3.86835,-0.42098 6.82417,-0.82611c1.14585,-0.29416 5.43971,-0.87969 5.43971,-0.87969c0,0 4.95585,-0.16447 7.60826,0.34296c2.84203,0.54371 2.83546,1.44859 3.0831,1.46251c0,0 1.18436,-1.03618 2.36886,-1.24663c1.18451,-0.21044 5.08219,-0.24661 5.50828,-0.15287z" fill="#ffffff" stroke="#000000" stroke-width="1.4" stroke-linecap="butt"/><path d="M228.37806,178.82963c5.09114,0.60817 11.91756,1.6629 11.91756,1.6629c0,0 5.78976,-0.92158 8.44678,-1.08658c2.05992,-0.12792 11.216,-0.41851 11.26026,-0.1977c0.04328,0.21589 -9.03119,7.64131 -21.14808,7.37287c-13.76954,-0.25813 -22.86459,-8.96533 -22.82675,-9.06551c0.03784,-0.10018 7.2591,0.70586 12.35024,1.31403z" fill="#ffffff" stroke="#000000" stroke-width="1.9" stroke-linecap="butt"/><path d="M239.35232,162.68798c-1.03376,0 -3.5381,-1.93126 -3.7867,-3.1771c-0.22243,-1.11469 1.31512,-2.26745 3.7867,-2.26745c2.47159,0 4.2021,0.2907 4.02999,2.48101c-0.14607,1.85885 -1.55841,2.96355 -4.02999,2.96355z" fill="#ffffff" stroke="#000000" stroke-width="1.15" stroke-linecap="butt"/><path d="M242.95443,144.86243c0,0 0.1026,2.35143 0.00576,4.22134c-0.19174,3.70276 -1.08147,16.44362 -1.08147,16.44362l-2.98167,0.00512c0,0 -0.80294,-2.47166 -1.12322,-5.62705c-0.43353,-4.2711 -0.4495,-9.65103 -0.76344,-11.62888c-0.29758,-1.87482 -0.89593,-3.38491 -0.89593,-3.38491" fill="#ffffff" stroke="#000000" stroke-width="1.3" stroke-linecap="round"/><path d="M213.41982,151.25363c0,0 -4.93211,-2.08327 -6.16417,-5.31621c-1.29636,-3.40168 -1.46118,-5.76507 0.48013,-5.91856c1.94131,-0.1535 2.70321,1.40793 3.73262,4.94936c1.0294,3.54143 1.95143,6.28542 1.95143,6.28542z" data-paper-data="{&quot;index&quot;:null}" fill="#ffffff" stroke="#000000" stroke-width="1" stroke-linecap="butt"/><path d="M213.21723,148.91535c0,0 -3.56385,-1.73162 -4.31816,-5.00559c-0.42079,-1.82633 2.15675,-1.35062 2.15675,-1.35062" fill="none" stroke="#000000" stroke-width="0.25" stroke-linecap="round"/><path d="M216.23063,144.97283c0.07093,-2.89763 4.83834,-5.29315 10.21137,-5.24702c5.37302,0.04614 9.02724,2.51647 8.95632,5.41411c-0.07093,2.89763 -4.12352,5.20922 -9.49655,5.16308c-5.37302,-0.04614 -9.74207,-2.43254 -9.67114,-5.33018z" fill="#ffffff" stroke="#000000" stroke-width="1.4" stroke-linecap="butt"/><path d="M216.69785,146.69704c0.03999,-1.63391 2.30855,-2.93924 5.06696,-2.91555c2.75843,0.02369 4.96213,1.36743 4.92214,3.00134c-0.03999,1.63391 -2.30854,2.93924 -5.06696,2.91555c-2.75843,-0.02369 -4.96213,-1.36743 -4.92214,-3.00134z" fill="#000000" stroke="none" stroke-width="1.5" stroke-linecap="butt"/><path d="M243.28691,144.97327c0.20353,-2.89543 4.45264,-5.24718 9.77048,-5.24718c5.31783,0 9.27453,2.34924 9.27453,5.24718c0,2.89794 -3.88585,5.37309 -9.69964,5.41505c-5.52997,0.03992 -9.55792,-2.39121 -9.34537,-5.41505z" fill="#ffffff" stroke="#000000" stroke-width="1.4" stroke-linecap="butt"/><path d="M252.8527,146.34742c0,-1.66947 2.2848,-3.02283 5.10325,-3.02283c2.81845,0 5.10325,1.35337 5.10325,3.02283c0,1.66947 -2.28479,3.02283 -5.10325,3.02283c-2.81845,0 -5.10325,-1.35337 -5.10325,-3.02283z" fill="#000000" stroke="none" stroke-width="1.5" stroke-linecap="butt"/><path d="M216.1622,144.6576c0,0 0.06357,-5.33997 10.60111,-5.22729c9.47101,0.09824 9.55554,5.57223 9.55554,5.57223z" fill="#ffffff" stroke="#000000" stroke-width="1.15" stroke-linecap="butt"/><path d="M242.90926,144.73514c0,0 -0.24686,-5.60242 11.19813,-5.39214c9.71427,0.19753 9.54677,5.71738 9.54677,5.71738z" fill="#ffffff" stroke="#000000" stroke-width="1.15" stroke-linecap="butt"/><path d="M219.85535,140.03137c0,0 2.67222,-2.31831 6.84957,-4.40798c4.62902,-2.31563 7.12396,-3.09776 7.12396,-3.09776l1.23711,2.13609c0,0 -3.68398,1.14115 -7.4906,2.8764c-5.0909,2.32067 -5.77249,3.399 -9.57412,5.32464c-3.25744,1.64999 -6.15481,2.7418 -6.15481,2.7418l-0.31131,-0.66024c0,0 3.32143,-1.37668 4.79411,-2.09996c1.21549,-0.59697 3.43489,-2.07761 3.43489,-2.07761z" fill="#000000" stroke="none" stroke-width="1.5" stroke-linecap="butt"/><path d="M267.65298,144.96821c1.0294,-3.54143 1.7913,-5.10286 3.73262,-4.94936c1.94131,0.1535 1.77649,2.51688 0.48013,5.91856c-1.23206,3.23294 -6.16417,5.31621 -6.16417,5.31621c0,0 0.92203,-2.74399 1.95143,-6.28542z" data-paper-data="{&quot;index&quot;:null}" fill="#ffffff" stroke="#000000" stroke-width="1" stroke-linecap="butt"/><path d="M268.06557,142.55915c0,0 2.57754,-0.47572 2.15675,1.35062c-0.75431,3.27397 -4.31816,5.00559 -4.31816,5.00559" data-paper-data="{&quot;index&quot;:null}" fill="none" stroke="#000000" stroke-width="0.25" stroke-linecap="round"/><path d="" fill="#000000" stroke="none" stroke-width="0.5" stroke-linecap="butt"/><path d="" fill="#000000" stroke="none" stroke-width="0.5" stroke-linecap="butt"/><path d="" fill="#000000" stroke="none" stroke-width="0.5" stroke-linecap="butt"/></g></g></svg>