<svg version="1.1" xmlns="http://www.w3.org/2000/svg" xmlns:xlink="http://www.w3.org/1999/xlink" width="94.58464" height="271.48081" viewBox="0,0,94.58464,271.48081"><g transform="translate(-192.08092,-44.42503)"><g data-paper-data="{&quot;isPaintingLayer&quot;:true}" fill-rule="nonzero" stroke-linejoin="miter" stroke-miterlimit="10" stroke-dasharray="" stroke-dashoffset="0" style="mix-blend-mode: normal"><g stroke-linecap="butt"><path d="M193.33444,315.90584v-259.19333h93.33112v259.19333z" fill-opacity="0.01" fill="#000000" stroke="none" stroke-width="0"/><path d="M201.54497,313.82102c0,0 -0.65033,-96.60843 -0.81205,-120.79346c-0.05579,-8.34476 8.37984,-37.62773 41.14954,-37.7913c32.34719,-0.16147 40.79611,30.18203 40.78805,37.76636c-0.0784,47.33265 0.66971,120.76733 0.66971,120.76733l-10.74407,0.09841l-0.16256,-117.54987c0,0 0.07727,-3.17235 -2.88263,-3.22849c-3.51536,-0.06668 -3.0148,3.18905 -3.0148,3.18905l0.21032,117.57735l-49.35002,0.07392l-0.31259,-117.94905c0,0 0.28608,-2.9878 -2.95361,-3.00359c-3.18415,-0.01551 -2.88205,2.97755 -2.88205,2.97755l0.36143,117.77884z" fill="#ffffff" stroke="#000000" stroke-width="2"/><path d="M257.42898,207.3107c-0.58459,0 -1.05848,-0.4739 -1.05848,-1.05848c0,-0.58459 0.4739,-1.0585 1.05848,-1.0585c0.58459,0 1.05848,0.47391 1.05848,1.0585c0,0.58459 -0.4739,1.05848 -1.05848,1.05848z" fill="#000000" stroke="none" stroke-width="1.5"/><path d="M252.0451,211.64612c-4.5687,-0.3218 -6.70689,-1.8362 -6.31527,-2.64092c0.12066,-0.24795 2.91354,1.08862 7.13467,1.33555c6.56002,0.38377 8.71091,-0.64662 8.71091,-0.64662v1.37789c0,0 -2.47038,1.07139 -9.53031,0.57411z" fill="#000000" stroke="#000000" stroke-width="0"/><path d="M223.57686,206.25221c0,-0.58459 0.4739,-1.0585 1.05848,-1.0585c0.58459,0 1.0585,0.47391 1.0585,1.0585c0,0.58459 -0.47391,1.05848 -1.0585,1.05848c-0.58459,0 -1.05848,-0.4739 -1.05848,-1.05848z" fill="#000000" stroke="none" stroke-width="1.5"/><path d="M230.01919,211.64612c-7.05993,0.4973 -9.53031,-0.57411 -9.53031,-0.57411v-1.37789c0,0 2.15089,1.03039 8.71091,0.64662c4.22113,-0.24695 7.01402,-1.5835 7.13468,-1.33555c0.39162,0.80471 -1.74656,2.31911 -6.31527,2.64092z" fill="#000000" stroke="#000000" stroke-width="0"/><path d="M241.56552,269.53067c-0.83825,0 -1.51779,-0.67954 -1.51779,-1.51779c0,-0.83825 0.67954,-1.51779 1.51779,-1.51779c0.83825,0 1.51779,0.67954 1.51779,1.51779c0,0.83825 -0.67954,1.51779 -1.51779,1.51779z" data-paper-data="{&quot;index&quot;:null}" fill="#000000" stroke="none" stroke-width="1.5"/><path d="M217.38936,313.15938v-108.56657h-17.68488c0,0 0.97116,-21.39743 4.14263,-29.96344c5.78391,-15.62216 23.50579,-17.67993 23.50579,-17.67993c0,0 -1.63348,23.77463 13.73723,23.7033c15.64815,-0.07261 15.04632,-23.7033 15.04632,-23.7033c0,0 20.04791,4.77933 24.16436,18.29106c3.67657,12.06791 4.1902,28.53629 4.1902,28.53629l-17.28395,0.30425v109.07835z" fill="#ffffff" stroke="#000000" stroke-width="1.5"/></g><path d="M260.0608,120.45437c0,0 9.8934,6.14509 3.9911,10.58811c-6.23002,4.68972 -10.54194,-6.0844 -10.54194,-6.0844" fill="none" stroke="#000000" stroke-width="1" stroke-linecap="round"/><path d="M269.55986,116.99851c-22.00093,10.24005 -60.49294,0 -60.49294,0c0,0 -6.43737,3.65844 -7.09634,-0.50855c-0.74572,-4.71554 -0.96933,-16.89141 -0.74781,-18.68383c0.08437,-0.68271 -2.88829,1.09375 -2.88829,1.09375c0,0 1.83825,-13.6612 2.63493,-17.9045c0.45381,-2.41707 1.72646,-5.69084 1.72646,-5.69084c0,0 -1.75824,-0.41428 -1.71288,-0.83073c0.10487,-0.96301 4.21365,-1.48549 6.87345,-2.46147c3.91208,-1.43548 6.83291,-2.82308 6.82194,-2.96906c-0.09179,-1.2211 -3.70977,-0.02249 -3.35629,-0.966c0.35278,-0.94168 3.97381,-1.55083 7.491,-2.64943c4.51462,-1.41015 9.1233,-3.22899 9.24523,-3.369c1.30265,-1.49577 -4.25782,-1.51542 -4.15492,-1.64226c0.94932,-1.17011 14.38767,-0.44418 15.20527,-0.37971c1.13856,0.08978 18.69281,2.99407 18.29988,3.46307c-0.10311,0.12308 -10.20907,0.07972 -10.28721,0.7162c-0.0221,0.17999 8.42049,3.59858 15.98309,6.1298c6.54431,2.19039 12.32682,3.5106 12.64164,3.98595c0.44648,0.67415 -1.79998,0.82872 -1.79998,0.82872c0,0 1.74391,3.21268 1.62276,5.09171c-0.13761,2.13441 -1.16467,10.31057 -1.41093,13.20939c-0.05376,0.63291 0.24908,10.69755 0.24908,10.69755c0,0 -1.46528,-0.61759 -1.61592,-0.00521c-0.15064,0.61238 -2.16565,12.34849 -3.23123,12.84445z" fill="#000000" stroke="#000000" stroke-width="0.5" stroke-linecap="round"/><path d="M207.3587,118.61891c-0.59069,-7.46513 0.3429,-17.5588 0.3429,-17.5588c0,0 -1.37098,-14.88397 9.38029,-18.0601c13.20354,-3.90062 26.65933,5.685 38.20098,4.40809c12.56612,-1.00969 9.79515,17.95458 9.12909,29.83491c-0.43157,5.80284 -2.59298,9.72359 -3.22456,12.81563c-0.63158,3.09204 -0.41925,6.28126 -2.25822,16.41774c-1.14764,6.32587 -4.25992,9.13501 -10.25557,15.00635c-5.99565,5.87136 -9.26717,9.47083 -13.32031,9.54144c-3.90059,0.06795 -9.14626,-5.22041 -14.26387,-10.62715c-5.44941,-5.75731 -9.08406,-8.67693 -9.9445,-15.49658c-0.77491,-6.14181 -0.79483,-10.14207 -1.14912,-15.60774c-0.25894,-3.99471 -2.31448,-6.59694 -2.63708,-10.67379z" fill="#ffffff" stroke="#000000" stroke-width="1.5" stroke-linecap="butt"/><path d="M259.51676,138.11044c0,0.00713 0.04618,2.18211 -0.18733,2.36249c-1.00806,0.77873 -0.32588,4.13972 -0.63667,6.4179c-0.64756,4.74675 -47.35713,1.41482 -47.60033,-1.5126c-0.29852,-3.59323 0.38487,-5.20688 0.38487,-5.38372c0,-0.1063 -0.84037,-5.51959 -1.44357,-9.78563c-0.65227,-4.613 -3.2524,-8.1486 -2.76678,-10.73621c0.02385,-0.12705 -6.29753,-21.80003 12.41836,-29.8045c1.52014,-0.65015 3.28134,-3.92189 5.45161,-4.0135c3.40585,-0.14377 7.54356,3.13484 11.22941,2.92817c3.21191,-0.18011 3.25827,-1.40111 6.09179,-1.62735c6.99097,-0.55819 15.61255,0.14664 18.68966,2.50728c6.62965,5.08602 4.82323,16.37902 5.67004,16.75255c0.36571,0.16132 -2.8245,13.5533 -3.97386,23.22931c-0.8721,7.34177 -2.57354,5.73236 -2.57354,6.0281z" fill="#2d2945" stroke="#2d2945" stroke-width="0.5" stroke-linecap="butt"/><path d="M256.56163,103.14219c0,0 1.56022,0.32557 4.35611,1.13646c2.55372,0.74066 4.55422,1.78514 4.55422,1.78514l0.1997,1.19793c0,0 -7.4205,-3.20374 -15.47207,-2.52883c-6.43784,0.53967 -10.19801,2.87869 -10.19801,2.87869l0.04683,-4.27527c0,0 3.20119,-1.74438 8.049,-1.8993c5.01987,-0.16041 8.28153,0.60519 8.28153,0.60519z" data-paper-data="{&quot;index&quot;:null}" fill="#000000" stroke="none" stroke-width="1.5" stroke-linecap="butt"/><path d="M243.49668,147.14291c0.58384,0.21685 3.15625,1.4324 6.16583,2.65704c3.03355,1.23439 7.38364,2.34698 7.36368,2.51849c-0.02534,0.21766 -10.68071,0.23229 -14.00178,0.64714c-2.78311,0.34765 -6.84632,0.72227 -6.84632,0.72227c0,0 -7.27145,-1.18907 -13.58517,-2.50284c-5.06023,-1.05294 -10.64439,-1.70023 -10.6553,-1.79596c-0.01473,-0.1291 3.95952,-0.72746 6.98501,-1.42754c1.17286,-0.50831 5.56792,-1.52013 5.56792,-1.52013c0,0 5.07266,-0.2842 7.78758,0.59265c2.90901,0.93954 2.90229,2.5032 3.15577,2.52725c0,0 1.21227,-1.79055 2.42469,-2.15421c1.21243,-0.36365 5.20197,-0.42614 5.63811,-0.26416z" fill="#ffffff" stroke="#000000" stroke-width="1.4" stroke-linecap="butt"/><path d="M224.40919,151.80378c5.21113,1.05094 12.19845,2.87353 12.19845,2.87353c0,0 5.92622,-1.59252 8.64586,-1.87764c2.10847,-0.22105 11.48035,-0.72319 11.52566,-0.34164c0.0443,0.37306 -9.24405,13.20438 -21.64652,12.74051c-14.09408,-0.44605 -23.40349,-15.49232 -23.36476,-15.66544c0.03873,-0.17312 7.43019,1.21974 12.64133,2.27069z" fill="#ffffff" stroke="#000000" stroke-width="1.9" stroke-linecap="butt"/><path d="M235.6421,148.73957c-1.05812,0 -3.62149,-3.33727 -3.87595,-5.49012c-0.22767,-1.92621 1.34612,-3.91821 3.87595,-3.91821c2.52984,0 4.30114,0.50234 4.12497,4.28725c-0.14951,3.21214 -1.59514,5.12109 -4.12497,5.12109z" fill="#ffffff" stroke="#000000" stroke-width="1.15" stroke-linecap="butt"/><path d="M239.32911,117.93658c0,0 0.10502,4.06332 0.0059,7.29459c-0.19626,6.39846 -1.10696,28.415 -1.10696,28.415l-3.05195,0.00884c0,0 -0.82186,-4.27109 -1.14969,-9.72369c-0.44375,-7.38058 -1.67929,-34.7619 -2.00063,-38.17967" fill="#ffffff" stroke="#000000" stroke-width="1.3" stroke-linecap="round"/><path d="M209.09839,128.98073c0,0 -5.04836,-3.59994 -6.30945,-9.18655c-1.32691,-5.87819 -1.49562,-9.96219 0.49145,-10.22743c1.98707,-0.26526 2.76692,2.43294 3.82059,8.55263c1.05366,6.11969 1.99742,10.86137 1.99742,10.86137z" data-paper-data="{&quot;index&quot;:null}" fill="#2d2945" stroke="#000000" stroke-width="1" stroke-linecap="butt"/><path d="M208.89103,124.94013c0,0 -3.64785,-2.99228 -4.41994,-8.64978c-0.43071,-3.15594 2.20758,-2.3339 2.20758,-2.3339" fill="none" stroke="#000000" stroke-width="0.25" stroke-linecap="round"/><path d="M211.97544,118.12736c0.0726,-5.00718 4.95238,-9.14671 10.45204,-9.06698c5.49966,0.07974 9.24001,4.34853 9.16741,9.35572c-0.0726,5.00718 -4.22071,9.00167 -9.72038,8.92194c-5.49966,-0.07974 -9.97168,-4.20349 -9.89908,-9.21068z" fill="#ffffff" stroke="#000000" stroke-width="1.4" stroke-linecap="butt"/><path d="M214.53248,118.24809c0.04093,-2.82344 2.36296,-5.07908 5.18638,-5.03815c2.82344,0.04093 5.07908,2.36296 5.03815,5.18638c-0.04093,2.82344 -2.36295,5.07908 -5.18638,5.03815c-2.82344,-0.04093 -5.07908,-2.36296 -5.03815,-5.18638z" fill="#000000" stroke="none" stroke-width="1.5" stroke-linecap="butt"/><path d="M239.66943,118.12811c0.20833,-5.00338 4.55759,-9.06726 10.00076,-9.06726c5.44317,0 9.49312,4.05955 9.49312,9.06726c0,5.00771 -3.97744,9.28484 -9.92825,9.35735c-5.66031,0.06898 -9.78319,-4.13207 -9.56563,-9.35735z" fill="#ffffff" stroke="#000000" stroke-width="1.4" stroke-linecap="butt"/><path d="M243.05716,118.21567c0,-2.88488 2.33865,-5.22353 5.22353,-5.22353c2.88488,0 5.22353,2.33865 5.22353,5.22353c0,2.88488 -2.33864,5.22353 -5.22353,5.22353c-2.88488,0 -5.22353,-2.33865 -5.22353,-5.22353z" fill="#000000" stroke="none" stroke-width="1.5" stroke-linecap="butt"/><path d="M211.90541,117.58263c0,0 0.06507,-9.2276 10.85097,-9.0329c9.69423,0.16977 9.78076,9.62895 9.78076,9.62895z" fill="#2d2945" stroke="#000000" stroke-width="1.15" stroke-linecap="butt"/><path d="M239.28287,117.71662c0,0 -0.25268,-9.68112 11.46206,-9.31776c9.94323,0.34133 9.77178,9.87979 9.77178,9.87979z" fill="#2d2945" stroke="#000000" stroke-width="1.15" stroke-linecap="butt"/><path d="M215.51844,107.33501c0,0 3.44905,-1.86187 8.22176,-2.33556c5.28876,-0.52492 7.95132,-0.06784 7.95132,-0.06784l0.30203,4.23499c0,0 -3.92594,-0.69669 -8.20693,-0.53341c-5.72529,0.21836 -6.80149,1.4667 -11.15459,1.93576c-3.72997,0.40191 -6.89602,0.16258 -6.89602,0.16258l-0.0265,-1.26058c0,0 3.67991,0.07572 5.35706,-0.06997c1.38426,-0.12026 4.0694,-0.96019 4.0694,-0.96019z" fill="#000000" stroke="none" stroke-width="1.5" stroke-linecap="butt"/><path d="M264.60978,118.11936c1.05366,-6.11969 1.83352,-8.81787 3.82059,-8.55263c1.98707,0.26525 1.81836,4.34924 0.49145,10.22743c-1.2611,5.58661 -6.30945,9.18655 -6.30945,9.18655c0,0 0.94376,-4.74168 1.99742,-10.86137z" data-paper-data="{&quot;index&quot;:null}" fill="#2d2945" stroke="#000000" stroke-width="1" stroke-linecap="butt"/><path d="M265.03202,113.95644c0,0 2.63829,-0.82205 2.20758,2.3339c-0.77209,5.6575 -4.41994,8.64978 -4.41994,8.64978" data-paper-data="{&quot;index&quot;:null}" fill="none" stroke="#000000" stroke-width="0.25" stroke-linecap="round"/><path d="M236.52442,84.04604c0,0 7.98878,4.3197 13.45665,5.50401c6.35898,1.37732 16.22685,0.78363 16.22685,0.78363c0,0 -3.71323,4.38955 -19.02953,3.57172c-5.58551,-0.54614 -13.87091,-6.78865 -13.87091,-6.78865c0,0 1.37528,2.23587 2.97335,3.75784c1.4602,1.39066 6.53123,5.0156 6.53123,5.0156c0,0 -6.74624,-2.20747 -9.27647,-3.69215c-3.20601,-1.88122 -8.41666,-6.68976 -8.41666,-6.68976c0,0 -2.3611,2.08139 -5.2426,4.55792c-2.31298,1.98791 -5.06529,4.23046 -6.41749,5.85548c-2.33071,2.80094 -5.00946,9.61931 -5.00946,9.61931c0,0 -1.64957,-5.4759 -0.89977,-11.37405c0.73779,-5.80365 3.85563,-12.01613 6.21542,-13.82285c4.59463,-3.51776 22.75939,3.70195 22.75939,3.70195z" fill="#000000" stroke="#000000" stroke-width="0.5" stroke-linecap="round"/><path d="M236.4942,165.02899l-0.83746,-10.04959" fill="none" stroke="#000000" stroke-width="0.5" stroke-linecap="round"/><path d="M237.23863,155.25849l0.83746,9.58433" fill="none" stroke="#000000" stroke-width="0.5" stroke-linecap="round"/><path d="M237.78516,141.1668l-4.02876,-0.11591c0,0 -0.14311,-6.01842 -0.22553,-8.13905c-0.23011,-5.91985 -0.11171,-15.95461 -0.11171,-15.95461c0,0 -0.23834,-0.63106 -0.31227,-1.06239c-0.41252,-2.40683 -2.32589,-10.32741 0.27268,-10.35535c4.11241,-0.04421 5.6614,11.04092 5.6614,11.04092c0,0 0.31894,1.33083 0.1822,2.72868c-0.23077,2.35885 -0.7267,10.1197 -0.7267,10.1197z" fill="#2d2945" stroke="#2d2945" stroke-width="0.5" stroke-linecap="butt"/><g><path d="M207.87717,76.32265l0.03454,-0.83995c0,0 1.51903,-1.29232 3.70147,-2.02482c2.17537,-0.73013 3.84713,-0.81526 3.84713,-0.81526l0.45901,2.25076c0,0 -1.72848,0.03704 -3.76101,0.63629c-1.57751,0.32208 -8.35562,3.62334 -8.35562,3.62334l-0.17117,-0.6741z" fill="#000000" stroke="none" stroke-width="1.5" stroke-linecap="butt"/><path d="M228.17462,68.7738c0,0 1.38679,-0.01249 2.10699,0.01383c0.74695,0.0273 2.29736,0.14712 2.29736,0.14712l0.2048,0.81424c0,0 -4.22802,-0.67751 -8.12149,0.58454c-3.11311,1.00912 -4.63278,2.49191 -4.63278,2.49191l-0.41,-2.36718c0,0 2.35442,-1.39575 4.01239,-1.89697c1.65796,-0.50122 4.08954,-0.55236 4.08954,-0.55236z" data-paper-data="{&quot;index&quot;:null}" fill="#000000" stroke="none" stroke-width="1.5" stroke-linecap="butt"/><path d="M207.66006,81.59022c-0.57789,-2.47 1.15291,-4.98687 3.86584,-5.62161c2.71293,-0.63473 5.38067,0.85305 5.95856,3.32305c0.57789,2.47 -1.15291,4.98687 -3.86584,5.62161c-2.71293,0.63473 -5.38067,-0.85305 -5.95856,-3.32305z" fill="#ffffff" stroke="#000000" stroke-width="1.5" stroke-linecap="butt"/><path d="M209.87141,80.93973c-0.33292,-1.42294 0.55072,-2.84633 1.97366,-3.17925c1.42294,-0.33292 2.84633,0.55072 3.17925,1.97366c0.33292,1.42294 -0.55071,2.84633 -1.97366,3.17925c-1.42294,0.33292 -2.84633,-0.55072 -3.17925,-1.97366z" fill="#000000" stroke="none" stroke-width="1.5" stroke-linecap="butt"/><path d="M221.35265,78.38667c-0.57789,-2.47 1.13008,-4.98154 3.81486,-5.60968c2.68478,-0.62814 5.3297,0.86498 5.90759,3.33498c0.57789,2.47 -1.13008,4.98154 -3.81486,5.60968c-2.68478,0.62814 -5.3297,-0.86498 -5.90759,-3.33498z" fill="#ffffff" stroke="#000000" stroke-width="1.5" stroke-linecap="butt"/><path d="M223.57532,77.73352c-0.33292,-1.42294 0.55072,-2.84633 1.97366,-3.17925c1.42294,-0.33292 2.84633,0.55072 3.17925,1.97366c0.33292,1.42294 -0.55071,2.84633 -1.97366,3.17925c-1.42294,0.33292 -2.84633,-0.55072 -3.17925,-1.97366z" fill="#000000" stroke="none" stroke-width="1.5" stroke-linecap="butt"/><path d="M207.50114,81.42349c0,0 -1.20206,-4.66912 4.10491,-5.97213c4.62711,-1.13606 6.03996,3.59859 6.03996,3.59859z" fill="#ffffff" stroke="#000000" stroke-width="1" stroke-linecap="butt"/><path d="M220.98347,78.06496c0,0 -1.15341,-4.94585 4.45208,-6.06828c5.2657,-1.05441 6.25677,3.56281 6.25677,3.56281z" fill="#ffffff" stroke="#000000" stroke-width="1" stroke-linecap="butt"/><path d="M206.99477,86.58633c-0.07798,0.81567 -2.50418,-1.09479 -3.7494,-3.58064c-1.24521,-2.48585 -1.63742,-4.45734 -0.42616,-4.75512c1.14532,-0.28158 1.63139,1.60462 2.40664,3.42047c0.83066,1.94562 1.86204,3.94125 1.76892,4.9153z" data-paper-data="{&quot;index&quot;:null}" fill="#ffffff" stroke="#000000" stroke-width="1" stroke-linecap="butt"/><path d="M206.78569,84.78034c0,0 -1.99287,-0.70433 -3.01569,-3.37731c-0.57057,-1.49107 0.94604,-1.44746 0.94604,-1.44746" fill="none" stroke="#000000" stroke-width="0.5" stroke-linecap="round"/><path d="M237.75884,64.99833c0,0 2.9943,10.74915 -10.10384,17.38818c-3.46351,1.75554 -8.52043,3.4012 -12.18662,4.16172c-8.07393,1.67488 -13.62829,1.78815 -20.40623,-0.9573c-2.05157,-0.83101 -2.86124,-4.01991 -2.86124,-4.01991l13.67277,-18.03336z" fill="#005e19" stroke="none" stroke-width="1.5" stroke-linecap="butt"/><path d="M237.66578,64.88597c0,0 1.35645,8.98602 -11.74167,15.62504c-1.17813,0.59716 -2.38657,1.13004 -3.61269,1.60321c-10.31674,3.98133 -21.88441,3.73522 -27.16825,1.98216c-0.48265,-0.16013 -2.36921,-0.5234 -2.94152,-2.14798c-0.53302,-1.51305 0.87163,-3.39853 0.87163,-3.39853l11.64815,-18.09624z" fill="#007a21" stroke="none" stroke-width="1.5" stroke-linecap="butt"/><path d="M238.01092,65.78633c0,0 -16.72204,9.62921 -36.66777,10.55916c-3.53859,0.16498 -4.78141,-2.79573 -4.78141,-2.79573c0,0 -1.8521,-12.26261 1.00654,-17.9142c2.18229,-4.31444 9.40827,-9.09451 14.47167,-10.15066c7.31645,-1.5261 16.76992,0.89005 20.33272,5.49852c3.08314,3.98803 5.63826,14.80291 5.63826,14.80291z" fill="#5c7a64" stroke="none" stroke-width="1.5" stroke-linecap="butt"/><path d="M230.60735,67.07099c0,0 -0.50217,-3.29533 -0.89297,-4.96565c-0.33645,-1.43801 -1.31325,-4.46411 -1.31325,-4.46411c0,0 2.57787,-0.91582 3.89019,-1.65455c1.45862,-0.82109 1.95545,-1.79638 1.95545,-1.79638c0,0 1.09169,1.98776 1.99475,4.59904c0.55248,1.59753 1.15227,4.54341 1.15227,4.54341c0,0 -0.46761,1.11472 -2.26777,2.10798c-1.78429,0.98451 -4.51868,1.63028 -4.51868,1.63028z" fill="#007a21" stroke="none" stroke-width="0" stroke-linecap="butt"/><path d="M216.30107,45.20939c0.11783,0.66104 -1.16437,1.43045 -2.86391,1.71853c-1.69953,0.28808 -3.17281,-0.01427 -3.29064,-0.67531c-0.11783,-0.66104 1.16437,-1.43045 2.86391,-1.71853c1.69953,-0.28808 3.17281,0.01427 3.29064,0.67531z" fill="#007a21" stroke="none" stroke-width="1.5" stroke-linecap="butt"/></g></g></g></svg>