<svg version="1.1" xmlns="http://www.w3.org/2000/svg" xmlns:xlink="http://www.w3.org/1999/xlink" width="91.18203" height="266.37353" viewBox="0,0,91.18203,266.37353"><g transform="translate(-189.75355,-40.23898)"><g data-paper-data="{&quot;isPaintingLayer&quot;:true}" fill-rule="nonzero" stroke-linejoin="miter" stroke-miterlimit="10" stroke-dasharray="" stroke-dashoffset="0" style="mix-blend-mode: normal"><path d="M189.75355,306.61251v-253.22501h91.18203v253.22501z" fill-opacity="0.01" fill="#000000" stroke="none" stroke-width="0" stroke-linecap="butt"/><path d="M192.37548,304.8916c0,0 0.18282,-94.88387 0.02483,-118.51201c-0.05451,-8.15261 8.37851,-38.56088 41.99367,-38.914c33.41367,-0.351 42.00823,31.47993 42.00035,38.88963c-0.07659,46.24274 0.09369,118.48648 0.09369,118.48648l-13.3733,0.09614l0.05547,-115.34311c0,0 -0.61301,-1.61748 -1.67443,-1.62419c-1.13177,-0.00716 -1.66339,1.58567 -1.66339,1.58567l0.07215,115.36995l-50.6827,0.07222l-0.18039,-115.73309c0,0 -0.59593,-1.45279 -1.68917,-1.45824c-0.87895,-0.00438 -1.51211,1.43279 -1.51211,1.43279l0.0122,115.5668z" data-paper-data="{&quot;index&quot;:null}" fill="#362975" stroke="#000000" stroke-width="0" stroke-linecap="butt"/><path d="M192.37548,304.88246c0,0 0.18282,-75.65131 0.02483,-101.30286c-0.00001,-0.00168 2.31474,5.90839 5.5453,9.78665c3.48007,4.1778 7.89454,6.34617 7.89454,6.34617l0.0122,85.07781z" fill-opacity="0.10196" fill="#000000" stroke="#000000" stroke-width="0" stroke-linecap="butt"/><path d="M263.01115,304.79024l0.0122,-85.07781c0,0 4.41447,-2.16837 7.89454,-6.34617c3.23056,-3.87826 5.54531,-9.78833 5.5453,-9.78665c-0.15799,25.65156 0.02483,101.30287 0.02483,101.30287z" data-paper-data="{&quot;index&quot;:null}" fill-opacity="0.10196" fill="#000000" stroke="#000000" stroke-width="0" stroke-linecap="butt"/><path d="M192.37548,304.88246c0,0 0.18282,-46.77339 0.02483,-72.42495c-0.00001,-0.00184 1.34081,4.64315 4.87532,7.80145c3.16498,2.8281 8.56453,4.20596 8.56453,4.20596l0.0122,60.32531z" fill-opacity="0.10196" fill="#000000" stroke="#000000" stroke-width="0" stroke-linecap="butt"/><path d="M263.01115,304.79024l0.0122,-60.32531c0,0 5.39954,-1.37786 8.56453,-4.20596c3.5345,-3.1583 4.87532,-7.80328 4.87532,-7.80145c-0.15799,25.65156 0.02483,72.42495 0.02483,72.42495z" data-paper-data="{&quot;index&quot;:null}" fill-opacity="0.10196" fill="#000000" stroke="#000000" stroke-width="0" stroke-linecap="butt"/><path d="M192.37548,304.88246c0,0 0.18282,-22.88941 0.02483,-48.54096c-0.00002,-0.00349 1.94598,4.47012 5.1938,6.84789c3.46507,2.53682 8.24604,2.98824 8.24604,2.98824l0.0122,38.6126z" fill-opacity="0.10196" fill="#000000" stroke="#000000" stroke-width="0" stroke-linecap="butt"/><path d="M263.01115,304.79024l0.0122,-38.61259c0,0 4.78096,-0.45142 8.24604,-2.98824c3.24782,-2.37777 5.19383,-6.85138 5.1938,-6.84789c-0.15799,25.65155 0.02483,48.54096 0.02483,48.54096z" data-paper-data="{&quot;index&quot;:null}" fill-opacity="0.10196" fill="#000000" stroke="#000000" stroke-width="0" stroke-linecap="butt"/><path d="M234.22732,238.82951c11.07568,-0.27523 19.4178,-7.49444 25.62945,-16.80489l0.04775,82.8954l-50.6827,0.0784l-0.12134,-84.51765c6.33225,10.3945 14.62118,18.6098 25.12684,18.34874z" fill-opacity="0.10196" fill="#000000" stroke="#000000" stroke-width="0" stroke-linecap="butt"/><path d="M234.97732,259.18519c10.92348,-0.00495 18.96876,-5.1859 24.89352,-12.75364l0.03369,58.48848l-50.6827,0.0784l-0.08576,-59.73266c6.1148,8.20471 14.45842,13.92457 25.84126,13.91942z" fill-opacity="0.10196" fill="#000000" stroke="#000000" stroke-width="0" stroke-linecap="butt"/><path d="M234.72732,284.15477c11.05972,-0.00501 19.18583,-6.54065 25.15598,-16.07637l0.02123,36.84158l-50.6827,0.0784l-0.05397,-37.59244c6.06699,9.9076 14.32394,16.75391 25.55947,16.74883z" fill-opacity="0.10196" fill="#000000" stroke="#000000" stroke-width="0" stroke-linecap="butt"/><path d="M276.39498,203.62174c0.00134,-0.27608 0.00381,-0.26572 0,0z" fill-opacity="0.10196" fill="#000000" stroke="#000000" stroke-width="0" stroke-linecap="butt"/><path d="M276.39546,197.30627c0.00225,-0.31639 0.00643,-0.30223 0,0z" fill-opacity="0.10196" fill="#000000" stroke="#000000" stroke-width="0" stroke-linecap="butt"/><path d="M234.23271,239.85123l-13.26606,-65.14738l13.82133,-16.20365l13.23026,16.24152z" fill="#e6e6e6" stroke="#000000" stroke-width="0" stroke-linecap="butt"/><path d="M229.1216,240.18456l1.33333,-55.11111l2.95276,-11.06444l2.04515,-0.0335l2.89098,11.09794l0.88889,55.22222l-5.12228,12.71905z" fill="#ff0000" stroke="#000000" stroke-width="0" stroke-linecap="butt"/><path d="M229.1216,240.18456c0,0 1.02471,-42.35512 1.21655,-50.28447c0.00155,-0.06393 -0.23296,4.46412 3.82958,4.38118c4.14372,-0.0846 4.25225,-4.47584 4.25371,-4.38534c0.12778,7.93797 0.81127,50.39973 0.81127,50.39973l-5.12228,12.71905z" fill-opacity="0.10196" fill="#000000" stroke="#000000" stroke-width="0" stroke-linecap="butt"/><path d="M229.1216,240.18456c0,0 0.63218,-25.08256 0.87946,-35.30376c0.00078,-0.03218 -0.28488,5.12699 4.0017,5.04476c4.97922,-0.09553 4.59408,-5.11578 4.59517,-5.04784c0.15519,9.64124 0.63478,35.41796 0.63478,35.41796l-5.12228,12.71905z" fill-opacity="0.10196" fill="#000000" stroke="#000000" stroke-width="0" stroke-linecap="butt"/><path d="M229.1216,240.18456c0,0 0.24178,-9.99375 0.4382,-18.11244c0.00227,-0.09378 0.22579,5.72882 4.43555,5.67893c4.31761,-0.05116 4.94749,-5.46323 4.94927,-5.35281c0.12915,8.02337 0.28809,17.89742 0.28809,17.89742l-5.12228,12.71905z" fill-opacity="0.10196" fill="#000000" stroke="#000000" stroke-width="0" stroke-linecap="butt"/><path d="M234.78826,159.0734l7.88889,9.22222l-8.33333,8.33333l-8.06788,-8.26709z" fill="#ff0000" stroke="#000000" stroke-width="0" stroke-linecap="butt"/><path d="M234.67715,158.29566l-13.70609,16.42987c0,0 -2.00437,-9.86605 -2.18279,-10.7632c-1.05317,-5.29559 -5.1321,-16.44524 16.11111,-16c19.3212,0.40496 17.19618,5.26687 15.12443,16.8034c-0.27325,1.52158 -2.00556,9.97598 -2.00556,9.97598z" fill="#e6e6e6" stroke="#000000" stroke-width="0" stroke-linecap="butt"/><path d="M221.1216,176.85123l-0.33333,-2.55556l14.13637,-16.83473l13.14979,17.30128l-0.61339,2.74884l-12.56166,-18.2154z" fill="#000000" stroke="none" stroke-width="0" stroke-linecap="butt"/><path d="M198.96878,92.74878c0,0 4.94209,-6.42758 5.04498,-7.36726c0.26986,-2.46454 -0.13452,-43.60387 28.84106,-45.12413c35.79203,-0.99164 31.28443,38.36742 33.3019,45.79326c2.76626,10.18194 4.93676,18.8861 4.93676,18.8861c0,0 -2.21886,-2.22888 -3.27134,-3.4016c-0.98164,-1.09379 -3.04821,-3.4145 -3.04821,-3.4145c0,0 2.47863,11.23181 1.05117,22.46229c-1.25274,10.29063 -5.85182,18.69644 -5.85182,18.69644l-0.92632,-2.54781c0,0 -0.82003,2.38564 -1.73206,3.61735c-0.91203,1.2317 -2.75738,3.16147 -2.75738,3.16147l-0.07381,-4.02054c0,0 -5.6612,11.95886 -19.52579,11.79995c-13.07531,-0.27729 -20.90567,-11.58684 -20.90567,-11.58684l-0.09318,2.88156c0,0 -3.12306,-3.57395 -4.95665,-10.53654c-2.18543,-8.29859 -2.59759,-13.28879 -2.59759,-13.28879c0,0 -1.87561,2.06134 -4.58426,3.01133c-3.39409,1.19039 -5.57023,0.37474 -5.57023,0.37474c0,0 2.89307,-2.94921 4.47755,-5.17723c1.41133,-1.98454 2.12218,-3.66563 2.12218,-3.66563c0,0 -1.68998,1.17733 -3.39408,1.75612c-1.77803,0.60392 -3.23156,0.57627 -3.23156,0.57627c0,0 3.98918,-5.46745 5.63766,-11.80293c1.55642,-5.98171 1.68368,-11.89304 1.68368,-11.89304c0,0 -1.09185,0.71813 -2.67029,0.86303c-1.00053,0.09186 -1.9067,-0.05308 -1.9067,-0.05308z" fill="#000000" stroke="none" stroke-width="1.5" stroke-linecap="butt"/><path d="M212.4287,105.03723c-0.46274,-7.91606 0.26862,-18.61944 0.26862,-18.61944c0,0 2.73481,-0.04476 11.1573,-3.41275c6.47068,-2.58752 16.47604,-10.29741 16.47604,-10.29741c0,0 -1.73206,3.26165 -2.73258,4.84104c-1.06367,1.67907 -3.20176,4.95264 -3.20176,4.95264c0,0 6.28497,-1.81002 11.76709,-5.13318c6.87062,-3.8377 8.49371,-6.57001 10.38441,-4.98491c2.23149,1.87081 0.82596,25.16245 0.5761,31.19501c-0.33809,6.15336 -2.03132,10.31094 -2.5261,13.58976c-0.49478,3.27881 -0.32844,6.66067 -1.76908,17.40946c-0.89905,6.70799 -3.3372,9.68681 -8.03416,15.91281c-4.69696,6.22602 -7.25985,10.04291 -10.43506,10.11779c-3.0557,0.07206 -7.16513,-5.53575 -11.17424,-11.26908c-4.26904,-6.10508 -7.11641,-9.20106 -7.79047,-16.43265c-0.60706,-6.51281 -0.62267,-10.7547 -0.90021,-16.55053c-0.20285,-4.23601 -1.81316,-6.99543 -2.06588,-11.31854z" fill="#4dffdd" stroke="#000000" stroke-width="1.5" stroke-linecap="butt"/><g stroke="none" stroke-linecap="butt"><path d="M215.79899,136.28104c0,0 3.46777,-0.25297 6.16139,-1.17807c2.78335,-0.95591 4.96387,-2.34121 6.64853,-2.5255c1.02151,-0.11174 5.5155,2.94999 5.5155,2.94999c0,0 3.37304,-2.80744 5.5085,-2.44254c1.75929,0.30062 4.96637,2.51806 7.90367,3.74956c2.82903,1.1861 4.6349,1.35887 4.6349,1.35887c0,0 -0.57395,3.66664 -0.88347,5.81342c-0.5233,3.62945 -1.19328,9.67712 -4.47824,14.04338c-2.46361,3.27454 -6.186,5.58226 -12.23955,5.63488c-5.29571,0.04603 -8.63291,-1.54066 -10.9361,-3.31966c-4.40448,-3.59472 -5.81045,-11.1405 -6.66547,-16.79792c-0.50791,-3.36072 -1.16966,-7.28641 -1.16966,-7.28641z" fill="#000000" stroke-width="NaN"/><path d="M219.05353,138.11167c0,0 2.40691,-0.18411 4.75381,-0.98628c1.30348,-0.44553 2.50833,-1.35496 3.58614,-1.72725c0.32354,-0.11175 0.72141,-0.09772 0.9992,-0.10552c0.46135,-0.01297 1.15076,0.01025 1.74932,0.18698c2.11778,0.6253 4.54613,2.19249 4.54613,2.19249c0,0 3.28035,-2.25371 5.29082,-2.01162c1.49041,0.17947 3.65496,1.96019 5.85755,2.93208c1.90321,0.83979 3.9759,0.90068 3.9759,0.90068c0,0 -5.25959,1.75096 -15.07806,1.51444c-6.3603,-0.19424 -15.68081,-2.896 -15.68081,-2.896z" fill="#4dffdd" stroke-width="0"/><path d="M221.34363,141.64237c1.22475,1.03154 2.77147,6.63342 5.20332,9.22174c1.59666,1.69939 5.5548,1.94619 7.38836,2.05218c2.39624,0.13851 5.80107,0.24402 7.85642,-1.60696c2.77625,-2.5002 3.58075,-5.6558 4.81141,-7.23933c1.94602,-2.50398 3.35497,-2.3356 3.35497,-2.3356c0,0 0.17783,5.22809 -1.85306,10.36625c-1.79675,4.54579 -5.1922,9.07988 -13.86533,9.00543c-1.72653,0.06249 -7.39983,0.08017 -10.93852,-4.1273c-3.0983,-3.68384 -4.18762,-11.55231 -4.52188,-12.86931c-0.59454,-2.34255 -0.93437,-4.33158 -0.93437,-4.33158c0,0 1.27639,-0.00724 3.49869,1.86449z" fill="#4dffdd" stroke-width="0"/><path d="M234.30253,145.12691c-7.03592,-0.42159 -9.80363,-3.14743 -9.80363,-3.14743c0,0 6.74544,1.02526 10.01755,1.21312c1.75193,0.10058 4.42265,-0.11441 6.44371,-0.17384c1.60504,-0.04719 2.80035,0.06657 2.80035,0.06657c0,0 -2.99429,2.42887 -9.45799,2.04157z" fill="#ffffff" stroke-width="0"/><path d="M225.86492,147.00007c0,0 4.44778,1.83174 8.35694,1.88946c3.98756,0.05887 8.90274,-1.43914 8.90274,-1.43914c0,0 -0.94174,3.65918 -8.79067,3.54775c-6.45178,-0.09159 -8.46901,-3.99807 -8.46901,-3.99807z" fill="#ffffff" stroke-width="0"/></g><path d="M250.97405,88.62564c0,0 1.22227,0.34523 3.41255,1.20511c2.00057,0.7854 3.56775,1.89297 3.56775,1.89297l0.15644,1.2703c0,0 -5.81318,-3.39726 -12.12074,-2.68158c-5.04337,0.57227 -7.98907,3.05257 -7.98907,3.05257l0.03669,-4.53352c0,0 2.5078,-1.84975 6.30555,-2.01403c3.93254,-0.1701 6.48771,0.64174 6.48771,0.64174z" data-paper-data="{&quot;index&quot;:null}" fill="#000000" stroke="none" stroke-width="1.5" stroke-linecap="butt"/><path d="M234.58577,136.97733c-0.82893,0 -2.83706,-3.53885 -3.0364,-5.82175c-0.17836,-2.04257 1.05454,-4.15489 3.0364,-4.15489c1.98187,0 3.36949,0.53268 3.23148,4.54622c-0.11713,3.40617 -1.24962,5.43043 -3.23148,5.43043z" fill="#4dffdd" stroke="#000000" stroke-width="1.15" stroke-linecap="butt"/><path d="M237.47415,104.3137c0,0 0.08227,4.30877 0.00462,7.73522c-0.15375,6.78496 -0.86719,30.1314 -0.86719,30.1314l-2.39088,0.00938c0,0 -0.64384,-4.52908 -0.90066,-10.31105c-0.34763,-7.8264 -0.36044,-17.68461 -0.61217,-21.30884c-0.23862,-3.43543 -0.71841,-6.20254 -0.71841,-6.20254" fill="#4dffdd" stroke="#000000" stroke-width="1.3" stroke-linecap="round"/><path d="M213.79157,116.02496c0,0 -3.95486,-3.8174 -4.94279,-9.74147c-1.0395,-6.23327 -1.17166,-10.56396 0.385,-10.84522c1.55666,-0.28128 2.16759,2.5799 2.99303,9.06925c0.82543,6.48934 1.56477,11.51745 1.56477,11.51745z" data-paper-data="{&quot;index&quot;:null}" fill="#4dffdd" stroke="#000000" stroke-width="1" stroke-linecap="butt"/><path d="M213.62912,111.74028c0,0 -2.8577,-3.17303 -3.46255,-9.17227c-0.33741,-3.34657 1.72941,-2.47488 1.72941,-2.47488" fill="none" stroke="#000000" stroke-width="0.25" stroke-linecap="round"/><path d="M216.04544,104.51599c0.05688,-5.30964 3.87967,-9.69921 8.18808,-9.61467c4.3084,0.08455 7.23857,4.6112 7.1817,9.92085c-0.05688,5.30964 -3.30648,9.54541 -7.61489,9.46087c-4.3084,-0.08455 -7.81176,-4.4574 -7.75489,-9.76705z" fill="#ffffff" stroke="#000000" stroke-width="1.4" stroke-linecap="butt"/><path d="M219.6038,104.644c0.03207,-2.99399 1.85113,-5.38589 4.06299,-5.34248c2.21187,0.04341 3.97893,2.5057 3.94686,5.49967c-0.03207,2.99399 -1.85112,5.38589 -4.06299,5.34248c-2.21187,-0.04341 -3.97893,-2.5057 -3.94686,-5.49967z" fill="#000000" stroke="none" stroke-width="1.5" stroke-linecap="butt"/><path d="M237.74076,104.51679c0.1632,-5.30561 3.57039,-9.61496 7.83455,-9.61496c4.26415,0 7.43686,4.30476 7.43686,9.61496c0,5.3102 -3.1159,9.84569 -7.77774,9.92258c-4.43426,0.07314 -7.6641,-4.38166 -7.49367,-9.92258z" fill="#ffffff" stroke="#000000" stroke-width="1.4" stroke-linecap="butt"/><path d="M241.43151,104.60963c0,-3.05914 1.83209,-5.53906 4.09209,-5.53906c2.26,0 4.09209,2.47992 4.09209,5.53906c0,3.05914 -1.83208,5.53906 -4.09209,5.53906c-2.26,0 -4.09209,-2.47992 -4.09209,-5.53906z" fill="#000000" stroke="none" stroke-width="1.5" stroke-linecap="butt"/><path d="M215.99057,103.93835c0,0 0.05097,-9.78499 8.50059,-9.57853c7.59441,0.18002 7.66219,10.21059 7.66219,10.21059z" fill="#4dffdd" stroke="#000000" stroke-width="1.15" stroke-linecap="butt"/><path d="M237.43793,104.08044c0,0 -0.19795,-10.26591 8.97932,-9.88059c7.78947,0.36195 7.65516,10.47657 7.65516,10.47657z" fill="#4dffdd" stroke="#000000" stroke-width="1.15" stroke-linecap="butt"/><path d="M218.82101,93.07174c0,0 2.70197,-1.97434 6.44088,-2.47664c4.14319,-0.55662 6.22902,-0.07194 6.22902,-0.07194l0.23661,4.4908c0,0 -3.07556,-0.73878 -6.42926,-0.56563c-4.48517,0.23155 -5.32826,1.5553 -8.73845,2.05269c-2.92204,0.42619 -5.40231,0.1724 -5.40231,0.1724l-0.02076,-1.33672c0,0 2.88282,0.0803 4.1967,-0.0742c1.08443,-0.12752 3.18795,-1.01819 3.18795,-1.01819z" fill="#000000" stroke="none" stroke-width="1.5" stroke-linecap="butt"/><path d="M257.2789,104.5075c0.82543,-6.48934 1.43637,-9.35052 2.99303,-9.06925c1.55666,0.28127 1.42449,4.61195 0.385,10.84522c-0.98794,5.92407 -4.94279,9.74147 -4.94279,9.74147c0,0 0.73934,-5.02811 1.56477,-11.51745z" data-paper-data="{&quot;index&quot;:null}" fill="#4dffdd" stroke="#000000" stroke-width="1" stroke-linecap="butt"/><path d="M257.60974,100.09315c0,0 2.06682,-0.8717 1.72941,2.47488c-0.60485,5.99924 -3.46255,9.17227 -3.46255,9.17227" data-paper-data="{&quot;index&quot;:null}" fill="none" stroke="#000000" stroke-width="0.25" stroke-linecap="round"/><g stroke-width="0"><path d="M212.38677,107.59977l-0.35482,-9.12173c0,0 13.86625,-1.04247 22.99389,-1.04247c9.69236,0 22.87308,1.04247 22.87308,1.04247l-0.35482,9.12173c0,0 -14.67544,-1.47372 -22.59438,-1.47372c-7.89355,0 -22.56295,1.47372 -22.56295,1.47372z" fill="#000000" stroke="none" stroke-linecap="butt"/><path d="M222.5347,98.53993c5.30328,0.30735 11.70937,2.74011 11.53631,8.46361c-0.17306,5.7235 -4.1394,12.73413 -12.16299,12.26303c-5.30316,-0.31137 -9.58043,-5.85131 -9.40738,-11.57481c0.17306,-5.7235 4.73078,-9.45918 10.03406,-9.15182z" fill="#000000" stroke="#9966ff" stroke-linecap="butt"/><path d="M257.4405,107.83971c0.17306,5.7235 -4.10422,11.26346 -9.40738,11.57482c-8.02359,0.4711 -11.98994,-6.53952 -12.16299,-12.26303c-0.17306,-5.7235 6.23303,-8.15627 11.53631,-8.46361c5.30328,-0.30735 9.861,3.42832 10.03406,9.15182z" data-paper-data="{&quot;index&quot;:null}" fill="#000000" stroke="#9966ff" stroke-linecap="butt"/><path d="M230.41736,113.54276c-3.56499,4.8657 -8.83229,3.41114 -8.83229,3.41114c0,0 4.6196,-2.15776 7.03788,-6.11237c2.92352,-4.78083 4.01949,-8.97603 4.01949,-8.97603c0,0 1.00739,7.26541 -2.22509,11.67726z" fill="#e6e6e6" stroke="#ffffff" stroke-linecap="round"/><path d="M253.86341,113.98329c-3.56499,4.8657 -8.75274,2.86048 -8.75274,2.86048c0,0 3.98322,-1.82735 6.87879,-5.45156c3.00307,-5.11124 4.09904,-9.08618 4.09904,-9.08618c0,0 1.00739,7.26541 -2.22509,11.67726z" fill="#e6e6e6" stroke="#ffffff" stroke-linecap="round"/></g></g></g></svg>