<svg version="1.1" xmlns="http://www.w3.org/2000/svg" xmlns:xlink="http://www.w3.org/1999/xlink" width="109.38824" height="215.81742" viewBox="0,0,109.38824,215.81742"><g transform="translate(-192.74303,-101.05182)"><g stroke="none" stroke-miterlimit="10"><path d="" fill="#000000"/><path d="" fill="#000000"/><path d="" fill="#000000"/><path d="" fill="#000000"/><path d="" fill="#000000"/><g><path d="" fill="#000000"/><path d="" fill="#000000"/><path d="" fill="#000000"/><path d="" fill="#000000"/><path d="" fill="#e16f6f"/><path d="" fill="#c2e16f"/><path d="" fill="#6f7ce1"/></g><g><path d="M287.31691,222.40367c0.54591,0.66555 0.93054,1.8899 1.15387,3.67308l1.48887,13.03472c0.65758,4.91 1.04221,8.64587 1.15387,11.2076c0.33499,3.34031 0.50249,8.47006 0.50249,15.38925l-0.66999,23.73374c-0.65758,4.90999 -1.371,8.4261 -2.14024,10.54833c-0.44666,1.3311 -0.88711,2.32942 -1.32137,2.99497l-2.47524,3.0138c-2.97773,2.90079 -5.29168,4.96651 -6.94184,6.19715c-2.7544,2.10967 -5.45297,3.44704 -8.09571,4.01213l-5.62047,0.48975c-17.18399,0.56509 -31.33442,-0.26999 -42.45128,-2.50522c-5.17381,-1.0046 -9.13792,-2.45499 -11.89232,-4.35118c-1.76182,-1.10507 -3.08319,-2.21641 -3.9641,-3.33403c-1.43923,-1.23064 -2.81643,-2.85056 -4.1316,-4.85976c-1.76182,-2.78777 -2.97773,-7.07617 -3.64772,-12.86519c-0.76925,-5.68856 -1.15387,-10.48555 -1.15387,-14.39094c-0.11166,-5.78902 0.76925,-15.15066 2.64274,-28.08492c0.66999,-4.23189 1.27794,-7.35244 1.82386,-9.36164c2.41941,-7.35871 3.95791,-12.99077 4.61549,-16.89616c0.22333,-1.44412 0.50249,-2.49895 0.83749,-3.1645c0.54592,-1.23064 1.31517,-1.90246 2.30774,-2.01548c0.45987,-0.059 0.98058,0.0052 1.56217,0.1926c13.29465,7.69359 27.35877,13.22408 43.34942,13.43071c7.03555,0.09091 15.38589,0.39872 22.21169,-2.25874c3.26563,-1.2714 6.91998,-2.67735 10.3222,-4.4879c0.19441,0.19431 0.37237,0.41359 0.53386,0.65786z" fill="#cccccc"/><path d="M292.09988,218.39153c0,5.78902 0.83129,19.33232 2.49385,40.6299c0.32259,3.56634 0.53972,6.96315 0.65138,10.19044c0.11167,0.56509 0.1675,1.23692 0.1675,2.01549v1.33738c0.43425,10.24694 0.37842,18.99327 -0.1675,26.23896l-0.1675,1.50691c-0.22333,1.56969 -0.49629,2.68731 -0.81888,3.35286c-0.88091,1.55714 -2.20228,2.3357 -3.96411,2.3357c-1.76182,-0.22604 -2.97773,-1.11761 -3.64772,-2.67475c-0.32259,-0.89159 -0.37221,-1.89619 -0.14889,-3.01381l0.48388,-7.17663c0.44666,-1.68271 0.77546,-2.96985 0.98638,-3.86144c0.66999,-2.56173 1.00498,-5.62577 1.00498,-9.19212c0,-0.66555 -0.05583,-3.8426 -0.1675,-9.53117c-0.11167,-3.11427 -0.335,-6.39807 -0.66999,-9.85138l-2.64273,-37.63493c-4.62789,3.35286 -9.85754,5.80786 -15.68893,7.36499c-6.93563,1.78317 -15.74475,1.94642 -26.42736,0.48974c-10.68261,-1.67015 -19.05749,-4.06236 -25.12462,-7.17663c-3.41198,-1.78317 -6.43935,-3.79237 -9.08208,-6.02761c-4.51622,14.71743 -7.48776,30.43319 -8.91459,47.14726c0.33499,0.56509 0.5025,1.79573 0.5025,3.69191c-0.33499,5.34951 -0.39083,11.42107 -0.1675,18.2147c0.11166,1.0046 0.27296,2.56802 0.48388,4.69024c0.76925,2.90079 1.04841,4.85349 0.83749,5.85809c-0.33499,1.21808 -0.88712,2.10966 -1.65637,2.67475c-0.33499,0.66555 -0.94295,1.11134 -1.82386,1.33738c-1.2035,0.55253 -2.35737,0.10674 -3.46161,-1.33738c-0.11166,-0.22604 -0.22333,-0.50858 -0.335,-0.84763c-0.33499,-0.55253 -0.60796,-1.21808 -0.81888,-1.99665c0,-0.33905 -0.05583,-0.6216 -0.1675,-0.84763c-0.76925,-4.00585 -1.04841,-9.24234 -0.83749,-15.70947c0.11166,-9.69441 0.99258,-20.17368 2.64274,-31.43778c1.66257,-10.92506 4.08817,-22.12637 7.27683,-33.60396c0.23019,-1.00093 0.51017,-1.84178 0.83995,-2.52254c0.00686,0.00204 0.01372,0.00407 0.02058,0.00611c1.51052,0.44836 3.06558,0.52953 4.63698,0.4507c14.08366,8.50606 28.95515,14.79041 46.02094,15.01093c7.03555,0.09091 15.38589,0.39872 22.21169,-2.25874c5.07608,-1.97625 11.09137,-4.27761 15.63904,-7.91827c0,0.02534 0,0.05071 0,0.0761z" fill="#000000"/></g><g><path d="M291.0758,164.16267c2.31632,4.95336 4.2644,11.59942 5.84425,19.93817c0.52266,3.68236 0.78399,5.89177 0.78399,6.62824c0.10691,1.48482 -0.04751,3.4923 -0.46326,6.02243c-0.95028,6.85393 -2.6905,12.07456 -5.22063,15.66189c-2.42323,3.48042 -6.96084,7.22217 -13.61284,11.22525l-4.57919,2.6905c-5.38099,2.53013 -12.65661,3.58139 -21.82687,3.15376c-1.27101,0 -3.17158,-0.10097 -5.70171,-0.3029c-3.05279,-0.32072 -7.53101,-1.11659 -13.43466,-2.38759c-1.68676,-0.30884 -3.21909,-0.62362 -4.59701,-0.94435c1.48482,0.42763 3.01716,0.84932 4.59701,1.26507l6.16498,1.58579c3.69423,0.95028 6.22437,1.47888 7.5904,1.58579c1.27101,0.20194 3.27255,0.3029 6.00462,0.3029h15.98261c1.90057,-0.41575 3.95556,-1.3601 6.16498,-2.83304c2.63704,-1.68676 4.37725,-2.63704 5.22063,-2.85086c2.36795,-0.58921 4.09082,-0.2108 5.16861,1.13523c-0.15697,0.12858 -0.30888,0.25269 -0.45541,0.37148c-1.30186,1.05536 -2.86346,1.18124 -3.98494,2.28503c-0.18242,0.17954 -0.44103,0.60832 -0.72965,1.16006c-2.09414,0.71038 -4.12598,1.21115 -5.55158,1.32082c-3.11296,0.23946 -6.03424,2.82689 -9.14329,2.99331c-5.19864,0.27827 -10.56915,0.84272 -15.95195,1.14439c-6.20873,-2.02186 -13.1717,-1.57372 -19.385,-3.62974c-1.90523,-0.63045 -4.98579,-0.41938 -6.66471,-1.58812c-4.65513,-3.24057 -9.45221,-6.04552 -14.12814,-9.16281c-0.1004,-0.15855 -0.20623,-0.31333 -0.31721,-0.46407c0.48615,-0.75948 1.10864,-1.18191 1.86747,-1.26728c0.84338,-0.10691 1.90057,0.21381 3.17158,0.96216c-2.85086,-1.90057 -5.22657,-4.11592 -7.12714,-6.64606c-1.57985,-2.22129 -3.1597,-5.38693 -4.73955,-9.49691l-1.26507,-3.95556c-0.10691,-0.52266 -0.16036,-2.31632 -0.16036,-5.38099l0.32072,-5.84425c0.41575,-6.33128 0.94435,-11.07676 1.58579,-14.23646c1.04531,-5.16718 2.77958,-9.54443 5.20281,-13.13176c0.84338,-1.15222 2.7974,-3.522 5.86207,-7.10932c0.95028,-1.1641 3.53387,-4.32974 7.75076,-9.49691c1.05719,-1.47294 1.90057,-2.42323 2.53013,-2.85086c0.32072,-0.20194 1.58579,-0.72459 3.7952,-1.56797c5.68983,-1.48482 9.96018,-2.43511 12.81103,-2.85086c7.06775,-0.95028 13.92168,-0.74241 20.5618,0.62362c2.31632,0.53454 4.37131,1.22349 6.16498,2.06687l3.17158,1.72833c9.69291,6.43818 16.6003,13.82071 20.72216,22.14759z" fill="#cccccc"/><path d="M264.33119,134.42467c6.96084,2.42323 13.29212,6.4857 18.99383,12.18741c5.2622,5.27408 9.58006,11.49251 12.95358,18.65529c3.38539,6.96084 5.28596,13.92168 5.70171,20.88252c0.84338,11.07082 -1.84712,21.0904 -8.07149,30.05871c-1.25913,1.79366 -2.57765,3.48042 -3.95556,5.06027c0,0.3666 0,0.73782 0,1.11366c-2.04493,1.34858 -3.88001,2.91974 -5.24698,4.02789c-0.34258,0.27771 -0.70314,0.49107 -1.06894,0.67481l-0.00941,-0.13246c-0.1911,0.13679 -0.38326,0.272 -0.5765,0.40563c-0.83428,0.36771 -1.6606,0.67813 -2.33008,1.33705c-0.0702,0.06909 -0.15167,0.17508 -0.2418,0.31079c-0.95262,0.56417 -1.92896,1.09338 -2.929,1.58764c-1.17713,0.30922 -2.25334,0.51652 -3.11043,0.58245c-3.11296,0.23946 -6.03424,2.82689 -9.14329,2.99331c-4.5066,0.24123 -9.14237,0.69752 -13.80334,1.01124c-1.13084,-0.0635 -2.28867,-0.15006 -3.47347,-0.25966c-4.00072,-1.07704 -8.26217,-1.3016 -12.40063,-1.94287c-6.03007,-1.29416 -11.07989,-2.89135 -15.14945,-4.79158c-3.75554,-2.47266 -7.56788,-4.7634 -11.30291,-7.25342c-0.13591,-0.21462 -0.28174,-0.42232 -0.43687,-0.62246c-0.36799,-1.47195 -1.71153,-2.86377 -3.30211,-3.93178c-1.47869,-1.91382 -2.72089,-3.97813 -3.72659,-6.19294c-2.20941,-5.16718 -3.21315,-13.07236 -3.01122,-23.71556c0.21381,-7.80422 0.90277,-13.86823 2.06687,-18.19202c2.20941,-7.91113 6.64012,-15.02639 13.29212,-21.34578c5.79674,-5.4879 12.96546,-9.86515 21.50614,-13.13176c4.84646,-1.90057 8.95644,-2.7974 12.32995,-2.6905c1.68676,0 3.58733,0.26133 5.70171,0.78399zM274.3092,147.23571c-7.06775,-5.58293 -14.81851,-8.5882 -23.25229,-9.01583c-5.06027,-0.30884 -9.85921,0.38011 -14.39682,2.06687c-5.16718,1.68676 -10.38781,4.793 -15.66189,9.31874c-4.10998,3.48042 -7.27562,6.96084 -9.49691,10.44126c-4.10998,6.33128 -6.37285,15.71534 -6.7886,28.1522c-0.21381,8.54069 0.89089,15.29365 3.31412,20.2589c3.06467,5.90365 8.02397,10.54223 14.8779,13.91574c4.95336,2.42323 11.48657,4.21689 19.59963,5.38099c9.9186,1.57985 17.98415,1.5264 24.19664,-0.16036c6.54509,-1.57985 12.34777,-4.85239 17.40804,-9.81764c5.06027,-4.95336 8.48724,-10.69665 10.2809,-17.22986c2.85086,-10.65507 1.37197,-21.93971 -4.43664,-33.85391z" fill="#000000"/><path d="M223.84905,196.27043c2.20941,4.43071 4.63264,7.43598 7.26968,9.01583c3.26661,2.11439 8.74856,3.326 16.44588,3.63484c2.63704,0.21381 5.32754,0.32072 8.07149,0.32072c1.47294,0 3.10624,-0.05345 4.89991,-0.16036c0.84338,-0.21381 2.10844,-0.68896 3.7952,-1.42543c2.22129,-0.62956 4.06841,-1.31258 5.54135,-2.04905c0,-0.21381 0.05345,-0.37417 0.16036,-0.48108l2.85086,-1.88869c0.30884,-0.32072 0.8315,-1.00968 1.56797,-2.06687l1.12252,-2.53013c0.84338,-0.95028 1.36604,-1.47294 1.56797,-1.56797c0.42763,-0.74835 1.22349,-1.49076 2.38759,-2.22723c0.93841,-0.52266 1.78178,-0.83744 2.53013,-0.94435c1.47294,-0.21381 2.57765,0.15442 3.31412,1.10471c0.73647,0.84338 0.68302,1.53234 -0.16036,2.06687c0,0.30884 -0.10691,0.57017 -0.32072,0.78399c-2.31632,3.58733 -4.37131,6.06401 -6.16498,7.43004c-2.63704,2.42323 -6.96084,4.69203 -12.97139,6.80642l-3.15376,0.78399c-0.95028,0.32072 -3.16564,0.48108 -6.64606,0.48108c-7.28156,0 -12.92388,-0.36824 -16.92696,-1.10471c-6.42631,-1.05719 -11.2787,-2.95776 -14.55718,-5.70171c-1.47294,-1.1641 -2.6311,-2.42917 -3.47448,-3.7952c-0.95028,-1.36604 -1.95402,-3.36757 -3.01122,-6.00462l-0.14254,-0.16036c0,-0.21381 -0.21381,-0.32072 -0.64144,-0.32072l-0.48108,-0.94435l-0.78399,-0.32072c0,-0.10691 -0.10691,-0.16036 -0.32072,-0.16036l-0.94435,-0.32072l-1.10471,-0.78399l-0.32072,-0.62362l0.16036,-3.01122l0.32072,-0.64144l0.46326,-0.62362h0.48108c0.95028,-0.73647 2.05499,-0.9978 3.31412,-0.78399c0.53454,0 1.00968,0.15442 1.42543,0.46326c0.84338,0.21381 1.47888,0.95028 1.90651,2.20941l1.26507,3.01122l1.10471,0.78399l0.16036,0.96216z" fill="#000000"/><path d="M265.75663,168.59931l1.58579,-0.8018l0.94435,-0.16036l0.48108,-0.14254c0.73647,-0.21381 1.36604,-0.11285 1.88869,0.3029l0.64144,0.32072c0.32072,0.32072 0.48108,0.53454 0.48108,0.64144l0.46326,0.3029l0.16036,0.48108l0.16036,1.26507l0.16036,0.32072v0.62362l0.16036,1.10471c0.20194,0.32072 0.20194,0.64144 0,0.96216l-0.16036,0.46326l-0.32072,0.32072l-0.16036,0.32072l-0.62362,0.62362l-0.64144,0.48108l-0.62362,0.32072h-3.17158l-0.62362,-0.16036l-0.32072,-0.32072c-0.10691,0 -0.32072,-0.16036 -0.64144,-0.48108l-0.62362,-0.62362l-0.32072,-1.10471h-0.16036v-3.01122l0.16036,-0.48108z" fill="#000000"/><path d="M230.33475,165.42773h1.26507l0.62362,0.16036l0.64144,0.32072c0.41575,0.41575 0.67708,0.62362 0.78399,0.62362l0.32072,0.64144h0.16036c-0.10691,0.10691 -0.05345,0.26133 0.16036,0.46326v0.32072l0.16036,0.64144l-0.16036,0.62362v0.48108l-0.16036,0.46326h-0.16036l-0.16036,0.8018h-0.16036l-0.32072,0.62362l-0.3029,0.96216l-0.32072,0.14254l-0.64144,0.64144l-2.04905,0.78399h-1.26507c-0.62956,0 -1.10471,-0.10097 -1.42543,-0.3029l-0.62362,-0.32072c-0.32072,-0.32072 -0.53454,-0.48108 -0.64144,-0.48108l-0.16036,-0.32072v-0.3029l-0.3029,-0.32072v-0.94435l-0.16036,-0.32072c0.10691,-0.32072 0.16036,-0.58205 0.16036,-0.78399v-0.64144l0.46326,-0.94435c0.42763,0 0.64144,-0.21381 0.64144,-0.64144h0.16036c0.30884,-0.30884 0.46326,-0.57017 0.46326,-0.78399l0.48108,-0.32072l2.04905,-1.10471z" fill="#000000"/><g><path d="M215.3143,158.31841l-0.32072,0.16036c-0.10691,-0.10691 -0.16036,-0.26727 -0.16036,-0.48108c0.10691,0.21381 0.26727,0.32072 0.48108,0.32072M256.58044,134.7454c-0.10691,0.62956 -0.42169,1.31258 -0.94435,2.04905l0.16036,0.16036c-0.21381,0.10691 -0.42763,0.32072 -0.64144,0.64144c-1.25913,0.95028 -2.31038,1.84712 -3.15376,2.6905c-0.62956,0.41575 -1.21161,0.83744 -1.74615,1.26507c-0.10691,0 -0.20788,0 -0.3029,0l-1.12252,0.46326l-1.72833,1.12252l-0.32072,0.3029l-0.48108,0.16036l-3.7952,2.36977l-2.83304,0.8018c-0.21381,0.20194 -0.32072,0.46326 -0.32072,0.78399c-0.32072,0.10691 -0.6355,0.26727 -0.94435,0.48108l-0.48108,-0.32072l-1.74615,0.16036l-1.10471,0.32072l-0.16036,0.14254h-0.32072l-6.32534,3.17158v0.32072c0,0.10691 0,0.26133 0,0.46326c-0.41575,0 -0.83744,0.10691 -1.26507,0.32072l-0.14254,0.16036h-0.32072c-0.73647,0.21381 -1.37197,0.42763 -1.90651,0.64144l-1.42543,0.46326c-0.62956,0.10691 -1.20568,0.10691 -1.72833,0l-2.22723,0.32072c0.21381,-0.21381 0.48108,-0.37417 0.8018,-0.48108c-0.84338,0.10691 -1.57985,0.10691 -2.20941,0c-0.74835,-0.20194 -1.43731,-0.67708 -2.06687,-1.42543c-0.52266,-0.52266 -0.9978,-1.09877 -1.42543,-1.72833c-0.84338,-1.1641 -1.41949,-2.48262 -1.72833,-3.95556c-0.21381,-0.84338 -0.53454,-3.00528 -0.96216,-6.4857c0,-0.10691 0,-0.21381 0,-0.32072c0,-0.10691 -0.05345,-0.16036 -0.16036,-0.16036c-0.41575,-2.83898 -0.78399,-5.2622 -1.10471,-7.26968l-1.26507,-12.49031l1.26507,-4.59701l0.96216,-1.88869l0.62362,-8.71293c0.32072,-0.30884 0.53454,-0.62362 0.64144,-0.94435c0.10691,-0.10691 0.20788,-0.26133 0.3029,-0.46326c0.10691,-0.10691 0.26727,-0.26727 0.48108,-0.48108c0.10691,-0.32072 0.36824,-0.6355 0.78399,-0.94435l0.32072,-0.16036h0.16036c0.32072,-0.32072 0.6355,-0.53454 0.94435,-0.64144l4.27628,1.42543c0,0.10691 0.05345,0.16036 0.16036,0.16036v0.16036c0,0.10691 0.05345,0.16036 0.16036,0.16036h0.16036l2.53013,1.72833c0.20194,0.10691 0.51672,0.21381 0.94435,0.32072l0.16036,0.32072l1.72833,1.26507l6.64606,3.95556c0.84338,0.73647 1.68676,1.5264 2.53013,2.36977c2.63704,2.20941 6.4857,5.68983 11.54597,10.44126c4.95336,4.21689 7.5904,6.43224 7.91113,6.64606c1.57985,1.90057 2.31632,3.48042 2.20941,4.73955M227.96497,113.70251c-2.63704,-2.20941 -5.16718,-4.05059 -7.5904,-5.52353c-0.74835,-0.53454 -1.54421,-0.95623 -2.38759,-1.26507c-0.09503,0.41575 -0.196,0.89089 -0.3029,1.42543l-0.32072,0.3029c-0.10691,0 -0.32072,0.16036 -0.64144,0.48108l-0.3029,0.16036c-0.42763,1.90057 -0.84932,4.00902 -1.26507,6.32534c0.10691,0 0.16036,0.05345 0.16036,0.16036c-0.32072,1.79366 -0.53454,3.64078 -0.64144,5.54135c0,1.04531 0.21381,3.41509 0.64144,7.10932l1.10471,6.4857l0.94435,5.38099c0.32072,1.79366 0.68896,3.32006 1.10471,4.57919c0.32072,1.57985 0.68896,2.79146 1.10471,3.63484l0.48108,0.48108c0.21381,0 0.5286,-0.10691 0.94435,-0.32072c2.85086,-1.90057 6.43818,-3.74175 10.76198,-5.52353l2.83304,-1.12252l8.55257,-3.31412c3.1597,-1.05719 5.47602,-2.26881 6.94896,-3.63484c0.32072,-0.21381 0.53454,-0.48108 0.64144,-0.8018c0,-0.30884 -0.16036,-0.62362 -0.48108,-0.94435c-2.20941,-1.79366 -4.1575,-3.37351 -5.84425,-4.73955c-3.06467,-2.74395 -5.44038,-4.90585 -7.12714,-6.4857c-0.84338,-0.73647 -1.5264,-1.47294 -2.04905,-2.20941c-1.90057,-1.68676 -3.58733,-3.11219 -5.06027,-4.27628c-0.73647,-0.84338 -1.47294,-1.47888 -2.20941,-1.90651M232.06308,145.81026c0.42763,-0.20194 0.8018,-0.40981 1.12252,-0.62362c-0.32072,0.10691 -0.64144,0.26727 -0.96216,0.48108c-1.9956,0.52266 -3.36163,0.99186 -4.09811,1.40761c-0.53454,0.32072 -0.90871,0.53454 -1.12252,0.64144c1.68676,-0.62956 3.37351,-1.26507 5.06027,-1.90651z" fill="#000000"/><path d="M217.68407,108.33934c0.10691,-0.53454 0.20788,-1.00968 0.3029,-1.42543c0.84338,0.30884 1.63924,0.73053 2.38759,1.26507l-5.06027,7.5904c0,-0.10691 -0.05345,-0.16036 -0.16036,-0.16036c0.41575,-2.31632 0.83744,-4.42477 1.26507,-6.32534l0.3029,-0.16036c0.32072,-0.32072 0.53454,-0.48108 0.64144,-0.48108l0.32072,-0.3029M235.23466,119.88531l-16.7666,24.98063c-0.41575,-1.25913 -0.78399,-2.78552 -1.10471,-4.57919l-0.94435,-5.38099l13.75538,-19.29673c1.47294,1.1641 3.1597,2.58953 5.06027,4.27628M250.09474,135.06612c-1.47294,1.36604 -3.78926,2.57765 -6.94896,3.63484l-8.55257,3.31412l9.81764,-13.43466c1.68676,1.36604 3.63484,2.94588 5.84425,4.73955c0.32072,0.32072 0.48108,0.6355 0.48108,0.94435c-0.10691,0.32072 -0.32072,0.58799 -0.64144,0.8018z" fill="#e16f6f"/><path d="M244.41085,128.58041l-9.81764,13.43466l-2.83304,1.12252c-4.3238,1.78178 -7.91113,3.62296 -10.76198,5.52353c-0.41575,0.21381 -0.73053,0.32072 -0.94435,0.32072l-0.48108,-0.48108c-0.41575,-0.84338 -0.78399,-2.05499 -1.10471,-3.63484l16.7666,-24.98063c0.52266,0.73647 1.20568,1.47294 2.04905,2.20941c1.68676,1.57985 4.06247,3.74175 7.12714,6.4857z" fill="#c2e16f"/><path d="M216.41901,134.90576l-1.10471,-6.4857c-0.42763,-3.69423 -0.64144,-6.06401 -0.64144,-7.10932c0.10691,-1.90057 0.32072,-3.74769 0.64144,-5.54135l5.06027,-7.5904c2.42323,1.47294 4.95336,3.31412 7.5904,5.52353c0.73647,0.42763 1.47294,1.06313 2.20941,1.90651z" fill="#6f7ce1"/></g></g></g></g></svg>