<svg version="1.1" xmlns="http://www.w3.org/2000/svg" xmlns:xlink="http://www.w3.org/1999/xlink" width="34.17311" height="34.17311" viewBox="0,0,34.17311,34.17311"><g transform="translate(-222.91346,-162.91346)"><g data-paper-data="{&quot;isPaintingLayer&quot;:true}" stroke-miterlimit="10" stroke-dasharray="" stroke-dashoffset="0" style="mix-blend-mode: normal"><path d="M229.98313,162.91347h20.03379c3.9166,0 7.06966,3.15307 7.06966,7.06966v20.03379c0,3.91659 -3.15306,7.06966 -7.06966,7.06966h-20.03379c-3.91659,0 -7.06966,-3.15307 -7.06966,-7.06966v-20.03379c0,-3.91659 3.15307,-7.06966 7.06966,-7.06966z" fill="#9966ff" fill-rule="evenodd" stroke="none" stroke-width="4.43922" stroke-linecap="round" stroke-linejoin="round"/><g fill-rule="nonzero" stroke="#000000" stroke-width="0.5" stroke-linejoin="miter"><g stroke-linecap="butt"><path d="M254.92248,180.00001c0,7.71219 -6.68102,13.96415 -14.92248,13.96415c-8.24146,0 -14.92248,-6.25197 -14.92248,-13.96415c0,-7.71219 6.68102,-13.96415 14.92248,-13.96415c8.24146,0 14.92248,6.25197 14.92248,13.96415z" fill="#242424"/><path d="M251.53561,187.38685c0,3.29724 -5.11936,5.97018 -11.43442,5.97018c-6.31505,0 -11.43442,-2.67294 -11.43442,-5.97018c0,-3.29724 5.11936,-5.97018 11.43442,-5.97018c6.31505,0 11.43442,2.67294 11.43442,5.97018z" fill="#9966ff"/></g><path d="M227.15264,175.20175l0.02959,8.71077" fill="none" stroke-linecap="round"/><path d="M252.03854,174.57119l0.02959,8.71077" fill="none" stroke-linecap="round"/></g></g></g></svg>