<svg version="1.1" xmlns="http://www.w3.org/2000/svg" xmlns:xlink="http://www.w3.org/1999/xlink" width="91.18203" height="253.22501" viewBox="0,0,91.18203,253.22501"><g transform="translate(-194.40898,-53.38749)"><g data-paper-data="{&quot;isPaintingLayer&quot;:true}" fill-rule="nonzero" stroke-linejoin="miter" stroke-miterlimit="10" stroke-dasharray="" stroke-dashoffset="0" style="mix-blend-mode: normal"><g stroke-linecap="butt"><path d="M194.40899,306.61251v-253.22501h91.18203v253.22501z" fill-opacity="0.01" fill="#000000" stroke="none" stroke-width="0"/><path d="M200.40569,304.3916c0,0 -0.63536,-94.38387 -0.79335,-118.01201c-0.05451,-8.15261 8.18688,-36.76129 40.20201,-36.9211c31.60235,-0.15775 39.85672,29.48704 39.84884,36.89673c-0.07659,46.24274 0.65429,117.98648 0.65429,117.98648l-10.49667,0.09614l-0.15882,-114.84311c0,0 0.07549,-3.0993 -2.81625,-3.15415c-3.43441,-0.06514 -2.94538,3.11562 -2.94538,3.11562l0.20548,114.86995l-48.21366,0.07222l-0.30539,-115.23309c0,0 0.27949,-2.919 -2.8856,-2.93443c-3.11083,-0.01515 -2.81569,2.90899 -2.81569,2.90899l0.35311,115.0668z" fill="#ffffff" stroke="#000000" stroke-width="2"/><path d="M255.00288,200.33384c-0.57113,0 -1.03411,-0.46299 -1.03411,-1.03411c0,-0.57113 0.46299,-1.03413 1.03411,-1.03413c0.57113,0 1.03411,0.463 1.03411,1.03413c0,0.57113 -0.46299,1.03411 -1.03411,1.03411z" fill="#000000" stroke="none" stroke-width="1.5"/><path d="M249.74298,204.56943c-4.4635,-0.31439 -6.55245,-1.79392 -6.16985,-2.58011c0.11788,-0.24224 2.84645,1.06355 6.97038,1.3048c6.40897,0.37493 8.51033,-0.63173 8.51033,-0.63173v1.34616c0,0 -2.4135,1.04672 -9.31086,0.56089z" fill="#000000" stroke="#000000" stroke-width="0"/><path d="M221.93025,199.29973c0,-0.57113 0.46299,-1.03413 1.03411,-1.03413c0.57113,0 1.03413,0.463 1.03413,1.03413c0,0.57113 -0.463,1.03411 -1.03413,1.03411c-0.57113,0 -1.03411,-0.46299 -1.03411,-1.03411z" fill="#000000" stroke="none" stroke-width="1.5"/><path d="M228.22424,204.56943c-6.89736,0.48585 -9.31086,-0.56089 -9.31086,-0.56089v-1.34616c0,0 2.10136,1.00666 8.51033,0.63173c4.12393,-0.24126 6.85251,-1.54704 6.97039,-1.3048c0.3826,0.78618 -1.70634,2.26571 -6.16985,2.58011z" fill="#000000" stroke="#000000" stroke-width="0"/><path d="M239.5047,261.12111c-0.81895,0 -1.48284,-0.66389 -1.48284,-1.48284c0,-0.81895 0.66389,-1.48284 1.48284,-1.48284c0.81895,0 1.48284,0.66389 1.48284,1.48284c0,0.81895 -0.66389,1.48284 -1.48284,1.48284z" data-paper-data="{&quot;index&quot;:null}" fill="#000000" stroke="none" stroke-width="1.5"/><path d="M215.88523,303.74521v-106.06666h-17.27766c0,0 0.9488,-20.90472 4.04724,-29.27349c5.65073,-15.26244 22.96453,-17.27282 22.96453,-17.27282c0,0 -1.59587,23.22718 13.42091,23.1575c15.28783,-0.07094 14.69986,-23.1575 14.69986,-23.1575c0,0 19.58628,4.66928 23.60794,17.86988c3.59191,11.79003 4.09371,27.8792 4.09371,27.8792l-16.88596,0.29724v106.56666z" fill="#ffffff" stroke="#000000" stroke-width="1.5"/></g><g><path d="M263.57669,116.99494c0,0 9.66559,6.00359 3.8992,10.3443c-6.08656,4.58173 -10.2992,-5.9443 -10.2992,-5.9443" fill="none" stroke="#000000" stroke-width="1" stroke-linecap="round"/><path d="M272.67293,113.61866c-21.49433,10.00426 -59.1,0 -59.1,0c0,0 -6.28914,3.5742 -6.93294,-0.49684c-0.72855,-4.60696 -0.94701,-16.50246 -0.73059,-18.25361c0.08243,-0.66699 -2.82178,1.06856 -2.82178,1.06856c0,0 1.79592,-13.34663 2.57426,-17.49222c0.44336,-2.36141 1.68671,-5.5598 1.68671,-5.5598c0,0 -1.71775,-0.40474 -1.67344,-0.8116c0.10246,-0.94084 4.11662,-1.45128 6.71518,-2.40479c3.822,-1.40243 6.67557,-2.75807 6.66485,-2.90069c-0.08968,-1.19298 -3.62435,-0.02197 -3.27901,-0.94376c0.34466,-0.92 3.88231,-1.51512 7.31851,-2.58842c4.41066,-1.37768 8.91322,-3.15464 9.03234,-3.29142c1.27265,-1.46133 -4.15978,-1.48053 -4.05925,-1.60444c0.92746,-1.14317 14.05637,-0.43395 14.85515,-0.37097c1.11234,0.08771 18.26238,2.92513 17.8785,3.38333c-0.10074,0.12025 -9.97399,0.07788 -10.05033,0.69971c-0.02159,0.17585 8.2266,3.51572 15.61506,5.98865c6.39362,2.13995 12.04298,3.42976 12.35055,3.89417c0.4362,0.65863 -1.75853,0.80964 -1.75853,0.80964c0,0 1.70375,3.1387 1.58539,4.97447c-0.13444,2.08526 -1.13785,10.07315 -1.37844,12.90522c-0.05252,0.61834 0.24334,10.45122 0.24334,10.45122c0,0 -1.43154,-0.60337 -1.57871,-0.00509c-0.14717,0.59828 -2.11578,12.06415 -3.15683,12.54869z" fill="#000000" stroke="#000000" stroke-width="0.5" stroke-linecap="round"/><path d="M212.08811,115.20175c-0.57709,-7.29323 0.335,-17.15448 0.335,-17.15448c0,0 -1.33941,-14.54124 9.16429,-17.64424c12.89951,-3.8108 26.04546,5.55409 37.32134,4.30659c12.27677,-0.98644 9.5696,17.54115 8.91888,29.14792c-0.42163,5.66922 -2.53327,9.49969 -3.15031,12.52053c-0.61704,3.02084 -0.4096,6.13662 -2.20622,16.0397c-1.12121,6.18021 -4.16183,8.92466 -10.01942,14.66081c-5.85759,5.73616 -9.05378,9.25275 -13.01359,9.32173c-3.81077,0.06639 -8.93565,-5.1002 -13.93542,-10.38244c-5.32393,-5.62474 -8.87489,-8.47713 -9.71551,-15.13975c-0.75707,-6.00039 -0.77653,-9.90853 -1.12266,-15.24835c-0.25298,-3.90273 -2.26119,-6.44504 -2.57636,-10.42801z" fill="#ffffff" stroke="#000000" stroke-width="1.5" stroke-linecap="butt"/><path d="M260.15807,100.0814c0,0 1.52429,0.31807 4.2558,1.11029c2.49492,0.72361 4.44935,1.74403 4.44935,1.74403l0.1951,1.17035c0,0 -7.24963,-3.12997 -15.1158,-2.4706c-6.2896,0.52724 -9.96319,2.8124 -9.96319,2.8124l0.04575,-4.17683c0,0 3.12748,-1.70421 7.86366,-1.85557c4.90428,-0.15672 8.09084,0.59125 8.09084,0.59125z" data-paper-data="{&quot;index&quot;:null}" fill="#000000" stroke="none" stroke-width="1.5" stroke-linecap="butt"/><path d="M247.39397,143.06894c0.5704,0.21186 3.08357,1.39942 6.02385,2.59586c2.9637,1.20597 7.21362,2.29294 7.19412,2.4605c-0.02476,0.21265 -10.43477,0.22694 -13.67937,0.63224c-2.71902,0.33964 -6.68867,0.70564 -6.68867,0.70564c0,0 -7.10401,-1.16169 -13.27235,-2.44521c-4.94371,-1.02869 -10.39929,-1.66108 -10.40995,-1.75461c-0.01439,-0.12613 3.86835,-0.71071 6.82417,-1.39467c1.14585,-0.49661 5.43971,-1.48513 5.43971,-1.48513c0,0 4.95585,-0.27766 7.60826,0.579c2.84203,0.91791 2.83546,2.44556 3.0831,2.46906c0,0 1.18436,-1.74932 2.36886,-2.10461c1.18451,-0.35528 5.08219,-0.41633 5.50828,-0.25808z" fill="#ffffff" stroke="#000000" stroke-width="1.4" stroke-linecap="butt"/><path d="M228.74599,147.62248c5.09114,1.02674 11.91756,2.80736 11.91756,2.80736c0,0 5.78976,-1.55585 8.44678,-1.8344c2.05992,-0.21596 11.216,-0.70654 11.26026,-0.33377c0.04328,0.36447 -9.03119,12.90033 -21.14808,12.44714c-13.76954,-0.43578 -22.86459,-15.13559 -22.82675,-15.30472c0.03784,-0.16913 7.2591,1.19165 12.35024,2.2184z" fill="#ffffff" stroke="#000000" stroke-width="1.9" stroke-linecap="butt"/><path d="M239.72024,144.62883c-1.03376,0 -3.5381,-3.26042 -3.7867,-5.3637c-0.22243,-1.88186 1.31512,-3.82799 3.7867,-3.82799c2.47159,0 4.2021,0.49077 4.02999,4.18853c-0.14607,3.13818 -1.55841,5.00317 -4.02999,5.00317z" fill="#ffffff" stroke="#000000" stroke-width="1.15" stroke-linecap="butt"/><path d="M243.32236,114.53513c0,0 0.1026,3.96976 0.00576,7.12662c-0.19174,6.25113 -1.08147,27.7607 -1.08147,27.7607l-2.98167,0.00864c0,0 -0.80294,-4.17274 -1.12322,-9.49979c-0.43353,-7.21063 -1.64062,-33.96145 -1.95456,-37.30053" fill="#ffffff" stroke="#000000" stroke-width="1.3" stroke-linecap="round"/><path d="M213.78775,125.32497c0,0 -4.93211,-3.51705 -6.16417,-8.97502c-1.29636,-5.74284 -1.46118,-9.7328 0.48013,-9.99193c1.94131,-0.25915 2.70321,2.37692 3.73262,8.35569c1.0294,5.97877 1.95143,10.61127 1.95143,10.61127z" data-paper-data="{&quot;index&quot;:null}" fill="#ffffff" stroke="#000000" stroke-width="1" stroke-linecap="butt"/><path d="M213.58516,121.37741c0,0 -3.56385,-2.92338 -4.31816,-8.45061c-0.42079,-3.08327 2.15675,-2.28016 2.15675,-2.28016" fill="none" stroke="#000000" stroke-width="0.25" stroke-linecap="round"/><path d="M216.59856,114.72151c0.07093,-4.89188 4.83834,-8.93609 10.21137,-8.8582c5.37302,0.0779 9.02724,4.2484 8.95632,9.14029c-0.07093,4.89188 -4.12352,8.79439 -9.49655,8.7165c-5.37302,-0.0779 -9.74207,-4.1067 -9.67114,-8.99859z" fill="#ffffff" stroke="#000000" stroke-width="1.4" stroke-linecap="butt"/><path d="M221.0362,114.83946c0.03999,-2.75843 2.30855,-4.96213 5.06696,-4.92214c2.75843,0.03999 4.96213,2.30855 4.92214,5.06696c-0.03999,2.75843 -2.30854,4.96213 -5.06696,4.92214c-2.75843,-0.03999 -4.96213,-2.30855 -4.92214,-5.06696z" fill="#000000" stroke="none" stroke-width="1.5" stroke-linecap="butt"/><path d="M243.65484,114.72225c0.20353,-4.88817 4.45264,-8.85847 9.77048,-8.85847c5.31783,0 9.27453,3.96607 9.27453,8.85847c0,4.8924 -3.88585,9.07104 -9.69964,9.14188c-5.52997,0.06739 -9.55792,-4.03692 -9.34537,-9.14188z" fill="#ffffff" stroke="#000000" stroke-width="1.4" stroke-linecap="butt"/><path d="M248.25758,114.80779c0,-2.81845 2.2848,-5.10325 5.10325,-5.10325c2.81845,0 5.10325,2.2848 5.10325,5.10325c0,2.81845 -2.28479,5.10325 -5.10325,5.10325c-2.81845,0 -5.10325,-2.2848 -5.10325,-5.10325z" fill="#000000" stroke="none" stroke-width="1.5" stroke-linecap="butt"/><path d="M216.53013,114.18933c0,0 0.06357,-9.01512 10.60111,-8.8249c9.47101,0.16586 9.55554,9.40723 9.55554,9.40723z" fill="#ffffff" stroke="#000000" stroke-width="1.15" stroke-linecap="butt"/><path d="M243.27719,114.32023c0,0 -0.24686,-9.4582 11.19813,-9.1032c9.71427,0.33347 9.54677,9.65229 9.54677,9.65229z" fill="#ffffff" stroke="#000000" stroke-width="1.15" stroke-linecap="butt"/><path d="M220.05997,104.17767c0,0 3.36963,-1.819 8.03244,-2.28178c5.16698,-0.51283 7.76823,-0.06628 7.76823,-0.06628l0.29508,4.13747c0,0 -3.83554,-0.68065 -8.01795,-0.52113c-5.59346,0.21333 -6.64488,1.43293 -10.89774,1.89119c-3.64408,0.39266 -6.73723,0.15884 -6.73723,0.15884l-0.02589,-1.23155c0,0 3.59517,0.07398 5.23371,-0.06836c1.35239,-0.11749 3.9757,-0.93808 3.9757,-0.93808z" fill="#000000" stroke="none" stroke-width="1.5" stroke-linecap="butt"/><path d="M268.0209,114.7137c1.0294,-5.97877 1.7913,-8.61483 3.73262,-8.35569c1.94131,0.25914 1.77649,4.24909 0.48013,9.99193c-1.23206,5.45797 -6.16417,8.97502 -6.16417,8.97502c0,0 0.92203,-4.6325 1.95143,-10.61127z" data-paper-data="{&quot;index&quot;:null}" fill="#ffffff" stroke="#000000" stroke-width="1" stroke-linecap="butt"/><path d="M268.43342,110.64664c0,0 2.57754,-0.80312 2.15675,2.28016c-0.75431,5.52723 -4.31816,8.45061 -4.31816,8.45061" data-paper-data="{&quot;index&quot;:null}" fill="none" stroke="#000000" stroke-width="0.25" stroke-linecap="round"/><path d="M240.58226,81.42497c0,0 7.80483,4.22023 13.14679,5.37727c6.21255,1.34561 15.8532,0.76559 15.8532,0.76559c0,0 -3.62773,4.28847 -18.59135,3.48948c-5.4569,-0.53356 -13.55151,-6.63233 -13.55151,-6.63233c0,0 1.34361,2.18439 2.90488,3.67131c1.42658,1.35864 6.38084,4.90011 6.38084,4.90011c0,0 -6.5909,-2.15664 -9.06287,-3.60713c-3.13219,-1.8379 -8.22285,-6.53572 -8.22285,-6.53572c0,0 -2.30673,2.03346 -5.12188,4.45297c-2.25972,1.94214 -4.94865,4.13305 -6.26972,5.72065c-2.27704,2.73644 -4.89411,9.39781 -4.89411,9.39781c0,0 -1.61159,-5.34981 -0.87905,-11.11215c0.7208,-5.67001 3.76685,-11.73944 6.0723,-13.50456c4.48883,-3.43676 22.23532,3.61671 22.23532,3.61671z" fill="#000000" stroke="#000000" stroke-width="0.5" stroke-linecap="round"/><path d="M239.73455,150.72499l0.81818,9.81818" fill="none" stroke="#000000" stroke-width="0.5" stroke-linecap="round"/><path d="M241.28001,150.99766l0.81818,9.36364" fill="none" stroke="#000000" stroke-width="0.5" stroke-linecap="round"/></g></g></g></svg>