<svg version="1.1" xmlns="http://www.w3.org/2000/svg" xmlns:xlink="http://www.w3.org/1999/xlink" width="35.12501" height="35.12434" viewBox="0,0,35.12501,35.12434"><g transform="translate(-222.4375,-162.43783)"><g data-paper-data="{&quot;isPaintingLayer&quot;:true}" stroke="none" stroke-miterlimit="10" stroke-dasharray="" stroke-dashoffset="0" style="mix-blend-mode: normal"><path d="M257.56251,169.8317v20.49804c0,4.00745 -3.22497,7.23243 -7.23242,7.23243h-20.5c-3.66107,0 -6.66147,-2.69385 -7.1543,-6.21484c0.7952,3.03475 3.54108,5.26367 6.83204,5.26367h20.0332c3.9166,0 7.07032,-3.15372 7.07032,-7.07031v-20.03321c0,-3.2976 -2.23906,-6.0451 -5.28321,-6.83398c3.52994,0.48496 6.23438,3.49081 6.23438,7.15821z" fill-opacity="0.29839" fill="#000000" fill-rule="evenodd" stroke-width="4.54219" stroke-linecap="round" stroke-linejoin="round"/><path d="M229.50718,162.43783h20.03378c3.9166,0 7.06966,3.15307 7.06966,7.06966v20.03379c0,3.91659 -3.15307,7.06966 -7.06966,7.06966h-20.03378c-3.91659,0 -7.06967,-3.15307 -7.06967,-7.06966v-20.03379c0,-3.91659 3.15308,-7.06966 7.06967,-7.06966z" fill-opacity="0.35" fill="#4d4d4d" fill-rule="evenodd" stroke-width="4.43922" stroke-linecap="round" stroke-linejoin="round"/><g fill-rule="nonzero" stroke-width="1" stroke-linecap="butt" stroke-linejoin="miter"><path d="M250.99529,182.82396c0.15905,1.26839 0.11447,2.88684 -0.13374,4.85532c-0.14854,0.85669 -0.24928,1.36695 -0.30224,1.53077c-0.08299,0.33798 -0.2617,0.77342 -0.53611,1.30633c-0.70424,1.45626 -1.46676,2.4924 -2.28753,3.10843c-0.7893,0.59993 -2.06772,1.10596 -3.83525,1.51807l-1.21207,0.26919c-1.37889,0.17586 -3.07289,-0.11349 -5.08198,-0.86804c-0.28272,-0.0914 -0.69823,-0.25053 -1.24651,-0.47738c-0.656,-0.29086 -1.59492,-0.78993 -2.81673,-1.49718c-0.35299,-0.19 -0.67121,-0.3702 -0.95466,-0.54063c0.29953,0.2019 0.61006,0.40589 0.93159,0.61198l1.25732,0.79606c0.75341,0.47703 1.2782,0.77656 1.57438,0.89857c0.2682,0.13631 0.70617,0.30271 1.3139,0.49917l3.55518,1.1493c0.45266,0.04419 0.97769,-0.0181 1.57507,-0.18687c0.70788,-0.18558 1.16331,-0.27182 1.36629,-0.25874c0.5691,0.03922 0.92512,0.24728 1.06807,0.6242c-0.04416,0.01731 -0.08688,0.034 -0.12802,0.04988c-0.36548,0.14114 -0.72189,0.05684 -1.05072,0.22172c-0.05349,0.02682 -0.14185,0.1036 -0.24572,0.20558c-0.51691,0.00743 -1.00488,-0.02729 -1.32988,-0.10541c-0.70967,-0.17058 -1.54555,0.1949 -2.24909,0.00834c-1.1764,-0.31194 -2.41161,-0.57256 -3.63066,-0.89254c-1.23568,-0.89621 -2.81676,-1.29723 -4.05101,-2.20137c-0.37847,-0.27724 -1.07889,-0.45181 -1.3683,-0.83252c-0.80247,-1.05559 -1.66783,-2.02448 -2.48379,-3.05413c-0.01093,-0.04249 -0.02334,-0.08453 -0.03719,-0.12604c0.16276,-0.13398 0.33159,-0.18318 0.50653,-0.1476c0.19529,0.03687 0.40739,0.18423 0.6363,0.44209c-0.49748,-0.62777 -0.86662,-1.29139 -1.10745,-1.99087c-0.19169,-0.60771 -0.31548,-1.42548 -0.37136,-2.45332l0.00304,-0.97085c0.0138,-0.12395 0.1309,-0.52677 0.35128,-1.20848l0.49159,-1.27694c0.54776,-1.37844 1.00659,-2.39602 1.37649,-3.05274c0.60409,-1.07423 1.30463,-1.92319 2.10162,-2.54691c0.27046,-0.19565 0.87552,-0.58228 1.81519,-1.15986c0.29509,-0.19061 1.09742,-0.70899 2.407,-1.55515c0.34108,-0.25162 0.59701,-0.40236 0.76781,-0.45221c0.08587,-0.02185 0.40485,-0.04714 0.95696,-0.07586c1.37242,0.07887 2.39066,0.17456 3.0547,0.28708c1.64049,0.29685 3.15014,0.83595 4.52894,1.6173c0.47681,0.28547 0.88438,0.5865 1.22272,0.90308l0.5812,0.61252c1.69314,2.12913 2.69875,4.26801 3.01684,6.41665z" fill="#cccccc"/><path d="M247.18464,174.28582c1.37412,1.03958 2.49033,2.39852 3.34862,4.07682c0.79128,1.55158 1.30458,3.2453 1.53991,5.08118c0.2525,1.79182 0.17472,3.47687 -0.23335,5.05514c-0.6085,2.52325 -1.92748,4.55854 -3.95694,6.10587c-0.40906,0.30844 -0.82365,0.58883 -1.24376,0.84117c-0.02636,0.08155 -0.05305,0.16413 -0.08008,0.24773c-0.55185,0.15293 -1.07304,0.37046 -1.45679,0.51866c-0.09617,0.03714 -0.19172,0.05867 -0.2863,0.07324l0.00743,-0.03015c-0.05235,0.01668 -0.10481,0.03295 -0.15741,0.04878c-0.21202,0.0218 -0.41815,0.03143 -0.61445,0.12986c-0.02059,0.01032 -0.04633,0.02804 -0.07613,0.05175c-0.25247,0.05699 -0.50771,0.10451 -0.7657,0.14254c-0.28408,-0.01586 -0.53838,-0.04715 -0.73377,-0.09411c-0.70967,-0.17058 -1.54555,0.1949 -2.24909,0.00834c-1.0198,-0.27041 -2.0838,-0.50226 -3.14315,-0.76765c-0.24698,-0.09545 -0.49831,-0.19796 -0.75397,-0.30754c-0.81248,-0.52727 -1.74425,-0.88366 -2.6187,-1.32389c-1.24828,-0.7215 -2.2567,-1.43991 -3.0253,-2.15524c-0.65758,-0.82008 -1.34087,-1.60378 -1.99264,-2.42624c-0.0148,-0.05751 -0.0323,-0.1142 -0.05241,-0.16988c0.02399,-0.35388 -0.17479,-0.7601 -0.4518,-1.11204c-0.1913,-0.53205 -0.31917,-1.08055 -0.38361,-1.64554c-0.1199,-1.30827 0.22529,-3.13888 1.03556,-5.49185c0.60876,-1.72061 1.19807,-3.01995 1.76793,-3.89803c1.06035,-1.60088 2.55758,-2.86499 4.49168,-3.79234c1.68407,-0.8039 3.59344,-1.26208 5.72814,-1.37455c1.21472,-0.07426 2.19344,0.02179 2.93616,0.28816c0.3752,0.1213 0.77918,0.31609 1.21192,0.5844zM248.48292,177.85303c-1.17069,-1.75011 -2.67867,-2.97596 -4.52394,-3.67755c-1.10341,-0.43258 -2.22043,-0.62441 -3.35107,-0.57551c-1.27068,0.00364 -2.65534,0.31918 -4.15395,0.94663c-1.1645,0.47864 -2.11894,1.02519 -2.86333,1.63965c-1.36951,1.11279 -2.54766,3.03747 -3.53447,5.77404c-0.66171,1.88442 -0.90158,3.466 -0.71961,4.74473c0.25718,1.53359 1.02677,2.92202 2.30878,4.16529c0.92757,0.89522 2.25185,1.764 3.97281,2.60636c2.09269,1.06466 3.89066,1.63277 5.39386,1.7043c1.5695,0.11923 3.09558,-0.19145 4.57824,-0.93204c1.48181,-0.73795 2.6571,-1.76906 3.52589,-3.09334c1.40035,-2.16512 1.88285,-4.78163 1.44752,-7.84953z" fill="#000000"/><path d="M233.73245,185.1318c0.17285,1.14445 0.49577,1.9872 0.96875,2.52825c0.57459,0.70523 1.70687,1.36894 3.39686,1.99115c0.57121,0.23719 1.16201,0.45445 1.77237,0.65176c0.32764,0.10592 0.69479,0.21148 1.10147,0.31668c0.20298,0.01308 0.51855,-0.00164 0.94671,-0.04416c0.53938,0.01969 0.99937,0.00059 1.37997,-0.05732c0.01538,-0.04756 0.03879,-0.07938 0.07027,-0.09548l0.76996,-0.21512c0.09176,-0.04914 0.25756,-0.1648 0.49741,-0.347l0.43164,-0.48209c0.25593,-0.15073 0.40978,-0.2294 0.46153,-0.23602c0.14893,-0.13572 0.37935,-0.24363 0.69125,-0.32374c0.24633,-0.04878 0.45657,-0.05815 0.63072,-0.02812c0.34302,0.05836 0.56227,0.21971 0.65776,0.48405c0.10317,0.24056 0.04175,0.38997 -0.18429,0.44823c-0.02221,0.0687 -0.06479,0.11914 -0.12772,0.15133c-0.77321,0.63141 -1.40842,1.03455 -1.90563,1.20943c-0.76084,0.3494 -1.88578,0.54315 -3.37482,0.58126l-0.7579,-0.05239c-0.23444,0.00301 -0.73877,-0.12063 -1.51296,-0.3709c-1.61972,-0.52362 -2.84832,-1.01126 -3.68581,-1.46294c-1.35345,-0.69727 -2.29615,-1.46898 -2.8281,-2.3151c-0.24393,-0.36486 -0.41059,-0.72955 -0.49996,-1.09405c-0.11315,-0.3722 -0.19249,-0.8896 -0.23802,-1.55221l-0.02018,-0.04592c0.01538,-0.04756 -0.0245,-0.08672 -0.11962,-0.11747l-0.0391,-0.24465l-0.15133,-0.12771c0.00769,-0.02378 -0.01225,-0.04336 -0.05981,-0.05874l-0.187,-0.13925l-0.18936,-0.25383l-0.0265,-0.16178l0.25221,-0.65829l0.11747,-0.11962l0.14789,-0.1054l0.10702,0.03459c0.26434,-0.09548 0.52886,-0.07418 0.79357,0.06393c0.11891,0.03844 0.2135,0.10695 0.28377,0.20555c0.17222,0.1082 0.26062,0.31772 0.2652,0.62856l0.06487,0.76079l0.18936,0.25383l-0.03352,0.22556z" fill="#000000"/><path d="M245.04423,181.99016l0.4104,-0.06432l0.22159,0.03224l0.11726,0.00288c0.17919,0.0054 0.31198,0.07313 0.39834,0.2032l0.11962,0.11746c0.04828,0.0944 0.06857,0.1535 0.06089,0.17728l0.08127,0.10069l0.00108,0.11855l-0.0553,0.29293l0.01261,0.08288l-0.04484,0.13871l-0.04377,0.25727c0.02185,0.08587 -0.00121,0.15721 -0.06919,0.21402l-0.06898,0.09151l-0.0944,0.04828l-0.05874,0.05981l-0.18356,0.09387l-0.17728,0.06089l-0.16178,0.0265l-0.70549,-0.22807l-0.12719,-0.08051l-0.04827,-0.0944c-0.02378,-0.00769 -0.05981,-0.05873 -0.10809,-0.15314l-0.09387,-0.18356l0.0081,-0.2688l-0.03567,-0.01153l0.21653,-0.66982l0.07027,-0.09548z" fill="#000000"/><path d="M237.39302,178.7375l0.28141,0.09097l0.12718,0.08051l0.11962,0.11747c0.06259,0.12238 0.10577,0.18741 0.12955,0.1951l0.02522,0.16574l0.03567,0.01153c-0.03147,0.0161 -0.03069,0.05429 0.00235,0.11458l-0.02306,0.07134l-0.01046,0.15421l-0.08051,0.12719l-0.03459,0.10701l-0.06899,0.09151l-0.03567,-0.01153l-0.09333,0.16682l-0.03567,-0.01153l-0.11618,0.11566l-0.13657,0.19224l-0.08159,0.00864l-0.18881,0.09656l-0.51217,0.02705l-0.2814,-0.09097c-0.14004,-0.04527 -0.23848,-0.1019 -0.2953,-0.16988l-0.11566,-0.11619c-0.04828,-0.0944 -0.08431,-0.14545 -0.10809,-0.15314l-0.0126,-0.08287l0.02178,-0.06738l-0.04431,-0.09312l0.06791,-0.21006l-0.01261,-0.08287c0.04684,-0.06366 0.07753,-0.11794 0.09205,-0.16286l0.04613,-0.14269l0.17096,-0.17675c0.09512,0.03075 0.15805,-0.00143 0.18881,-0.09655l0.03567,0.01153c0.0909,-0.04649 0.14404,-0.09351 0.15942,-0.14108l0.13008,-0.03675l0.53524,-0.09838z" fill="#000000"/><g><path d="M234.56308,176.07599l-0.08287,0.01261c-0.0161,-0.03147 -0.01645,-0.07098 -0.00108,-0.11854c0.00841,0.05525 0.03638,0.09056 0.08394,0.10594M245.43749,173.79981c-0.06905,0.13235 -0.18819,0.26165 -0.35741,0.38789l0.02414,0.0472c-0.05525,0.00841 -0.11819,0.04059 -0.18881,0.09655c-0.34841,0.12084 -0.64674,0.24474 -0.89499,0.3717c-0.16994,0.04721 -0.32973,0.09915 -0.47939,0.15583c-0.02378,-0.00769 -0.04624,-0.01495 -0.06737,-0.02178l-0.28301,0.02233l-0.46517,0.12541l-0.09312,0.04432l-0.11854,0.00107l-1.01461,0.25423l-0.68785,-0.02537c-0.06208,0.02955 -0.10465,0.07998 -0.12771,0.15133c-0.07903,0.00072 -0.16058,0.01375 -0.24465,0.0391l-0.08395,-0.10593l-0.39995,-0.08989l-0.2688,-0.0081l-0.04592,0.02017l-0.07134,-0.02307l-1.63509,0.25064l-0.02306,0.07134c-0.00769,0.02378 -0.01879,0.05813 -0.03331,0.10305c-0.09248,-0.0299 -0.19397,-0.03644 -0.30446,-0.01963l-0.04324,0.02542l-0.07134,-0.02306c-0.17919,-0.0054 -0.33593,-0.00353 -0.47021,0.00558l-0.35039,0.00054c-0.14773,-0.02149 -0.27588,-0.06292 -0.38445,-0.12428l-0.51849,-0.08882c0.06294,-0.03218 0.13392,-0.04863 0.21295,-0.04935c-0.19529,-0.03687 -0.35912,-0.08983 -0.49147,-0.15888c-0.15194,-0.09874 -0.27103,-0.25396 -0.35726,-0.4657c-0.07868,-0.15384 -0.14294,-0.31616 -0.19279,-0.48695c-0.10389,-0.31959 -0.13723,-0.65431 -0.10001,-1.00416c0.01308,-0.20298 0.09721,-0.70694 0.25236,-1.51188c0.00769,-0.02378 0.01537,-0.04756 0.02306,-0.07134c0.00769,-0.02378 -0.00036,-0.03951 -0.02414,-0.0472c0.11167,-0.6614 0.20401,-1.22691 0.27703,-1.69652l0.61677,-2.86933l0.61197,-0.93159l0.34984,-0.35094l0.76526,-1.89326c0.09355,-0.04564 0.16375,-0.10028 0.21059,-0.16394c0.03147,-0.0161 0.06504,-0.04318 0.10069,-0.08127c0.03147,-0.0161 0.07867,-0.04023 0.1416,-0.07242c0.04684,-0.06366 0.12761,-0.11488 0.2423,-0.15369l0.08288,-0.0126l0.03567,0.01153c0.0944,-0.04828 0.1798,-0.07321 0.25619,-0.07477l0.84872,0.62458c-0.00769,0.02378 0.00036,0.03951 0.02414,0.0472l-0.01153,0.03567c-0.00769,0.02378 0.00036,0.03951 0.02414,0.0472l0.03567,0.01153l0.43852,0.5664c0.03723,0.03831 0.09957,0.08472 0.187,0.13925l0.0126,0.08288l0.29348,0.40568l1.19392,1.3578c0.13465,0.22447 0.26544,0.46083 0.39239,0.70908c0.42771,0.68109 1.03354,1.73203 1.81748,3.15283c0.7986,1.29421 1.22588,1.97661 1.28185,2.04724c0.21475,0.53637 0.26497,0.94076 0.15064,1.21315M240.58542,167.06128c-0.42771,-0.68109 -0.85812,-1.27259 -1.29123,-1.77448c-0.12803,-0.17272 -0.27473,-0.32375 -0.44012,-0.45309c-0.05104,0.08564 -0.10766,0.18408 -0.16988,0.29529l-0.09313,0.04431c-0.02378,-0.00769 -0.08287,0.01261 -0.17728,0.06089l-0.07891,0.01389c-0.23179,0.39201 -0.47721,0.83069 -0.73625,1.31605c0.02378,0.00769 0.03183,0.02343 0.02414,0.0472c-0.20032,0.37592 -0.38071,0.77142 -0.54116,1.1865c-0.07517,0.23252 -0.19801,0.77503 -0.36855,1.62753l-0.22065,1.52212l-0.17688,1.26486c-0.05764,0.42204 -0.08549,0.78806 -0.08356,1.09804c-0.04226,0.37448 -0.04748,0.67048 -0.01565,0.88798l0.07242,0.1416c0.04756,0.01538 0.12527,0.01423 0.23313,-0.00343c0.77081,-0.21776 1.70119,-0.36935 2.7911,-0.45477l0.7109,-0.04597l2.14076,-0.12219c0.77887,-0.00795 1.38124,-0.1109 1.80711,-0.30884c0.08671,-0.0245 0.1535,-0.06857 0.20034,-0.13223c0.02221,-0.0687 0.00917,-0.15025 -0.03911,-0.24465c-0.36248,-0.55786 -0.68221,-1.04937 -0.95918,-1.47453c-0.48439,-0.83075 -0.85739,-1.48247 -1.11899,-1.9552c-0.13465,-0.22447 -0.23362,-0.43741 -0.29692,-0.63881c-0.30147,-0.51188 -0.57417,-0.95024 -0.81811,-1.3151c-0.10317,-0.24056 -0.2213,-0.43489 -0.35437,-0.58297M239.18815,174.49806c0.10965,-0.01417 0.20783,-0.0335 0.29454,-0.058c-0.07903,0.00072 -0.1619,0.01333 -0.24862,0.03782c-0.48149,-0.02724 -0.81909,-0.0211 -1.01281,0.01842c-0.14196,0.0329 -0.24057,0.05355 -0.29582,0.06196c0.42048,-0.01874 0.84137,-0.03881 1.2627,-0.0602z" fill="#000000"/><path d="M238.68418,165.129c0.06222,-0.11121 0.11884,-0.20964 0.16988,-0.29529c0.16539,0.12935 0.3121,0.28038 0.44013,0.45309l-1.67143,1.32453c0.00769,-0.02378 -0.00036,-0.03951 -0.02414,-0.0472c0.25904,-0.48535 0.50447,-0.92403 0.73625,-1.31605l0.07891,-0.01389c0.0944,-0.04828 0.1535,-0.06857 0.17728,-0.06089l0.09312,-0.04431M241.75789,168.95935l-5.52593,4.35104c-0.00194,-0.30998 0.02591,-0.67599 0.08355,-1.09804l0.17688,-1.26486l4.44738,-3.30324c0.24393,0.36486 0.51663,0.80324 0.8181,1.3151M243.97174,173.40477c-0.42587,0.19795 -1.02824,0.30089 -1.80711,0.30884l-2.14076,0.12219l3.14993,-2.28243c0.27697,0.42515 0.5967,0.91666 0.95918,1.47453c0.04828,0.0944 0.06132,0.17595 0.03911,0.24465c-0.04684,0.06366 -0.11363,0.10773 -0.20034,0.13223z" fill="#e16f6f"/><path d="M243.17379,171.55335l-3.14992,2.28244l-0.7109,0.04597c-1.08991,0.08542 -2.02029,0.23701 -2.7911,0.45477c-0.10786,0.01766 -0.18556,0.01881 -0.23313,0.00343l-0.07242,-0.1416c-0.03184,-0.2175 -0.02661,-0.5135 0.01565,-0.88798l5.52592,-4.35103c0.0633,0.2014 0.16228,0.41434 0.29692,0.63881c0.2616,0.47272 0.6346,1.12445 1.11899,1.9552z" fill="#c2e16f"/><path d="M236.4924,170.94749l0.22065,-1.52212c0.17053,-0.8525 0.29337,-1.39501 0.36855,-1.62753c0.16045,-0.41508 0.34083,-0.81058 0.54116,-1.1865l1.67143,-1.32453c0.43311,0.50189 0.86351,1.09339 1.29122,1.77448c0.13307,0.14808 0.2512,0.34241 0.35437,0.58297z" fill="#6f7ce1"/></g></g></g></g></svg>