<svg version="1.1" xmlns="http://www.w3.org/2000/svg" xmlns:xlink="http://www.w3.org/1999/xlink" width="112.5394" height="260.77486" viewBox="0,0,112.5394,260.77486"><g transform="translate(-190.66561,-44.72503)"><g data-paper-data="{&quot;isPaintingLayer&quot;:true}" fill-rule="nonzero" stroke-linejoin="miter" stroke-miterlimit="10" stroke-dasharray="" stroke-dashoffset="0" style="mix-blend-mode: normal"><path d="M216.41114,85.72538c0,0 7.06839,-4.80549 7.33995,-5.63749c0.71224,-2.18214 6.56573,-39.63336 42.42507,-34.95961c44.15839,6.57823 32.54057,41.38605 33.87468,48.55247c1.82927,9.82625 3.15417,18.18573 3.15417,18.18573c0,0 -2.38396,-2.48812 -3.49692,-3.77323c-1.03805,-1.1986 -3.22059,-3.73832 -3.22059,-3.73832c0,0 1.31356,10.71973 -2.17511,20.62206c-3.12878,9.08518 -10.08081,15.75915 -10.08081,15.75915l-0.74559,-2.50773c0,0 -1.37647,1.99553 -2.68792,2.92371c-1.31146,0.92818 -3.87815,2.29539 -3.87815,2.29539l0.52989,-3.66727c0,0 -8.80638,9.67926 -25.82797,6.63783c-16.03293,-2.98401 -23.91428,-14.89263 -23.91428,-14.89263l-0.55939,2.59784c0,0 -3.288,-3.89879 -4.46754,-10.60602c-1.40587,-7.99424 -1.14227,-12.61294 -1.14227,-12.61294c0,0 -2.62423,1.4804 -6.10108,1.77728c-4.3567,0.37202 -6.90629,-0.82355 -6.90629,-0.82355c0,0 4.01221,-2.07423 6.30423,-3.76684c2.04154,-1.50765 3.17503,-2.88604 3.17503,-2.88604c0,0 -2.25954,0.71623 -4.44403,0.88587c-2.27927,0.17701 -4.06206,-0.15182 -4.06206,-0.15182c0,0 5.7486,-4.13251 8.75336,-9.54255c2.83697,-5.10795 3.90596,-10.4506 3.90596,-10.4506c0,0 -1.45326,0.42413 -3.41628,0.22592c-1.2443,-0.12563 -2.33605,-0.44662 -2.33605,-0.44662z" fill="#000000" stroke="none" stroke-width="1.5" stroke-linecap="butt"/><path d="M190.66561,304.45083v-253.22501h91.18203v253.22501z" fill-opacity="0.01" fill="#000000" stroke="none" stroke-width="0" stroke-linecap="butt"/><path d="M201.03047,304.39162c0,0 -0.63536,-94.38387 -0.79335,-118.01201c-0.05451,-8.15261 8.18688,-36.76129 40.20201,-36.9211c31.60235,-0.15775 39.85672,29.48704 39.84884,36.89673c-0.07659,46.24274 0.65429,117.98648 0.65429,117.98648l-10.49667,0.09614l-0.15882,-114.84311c0,0 0.07549,-3.0993 -2.81625,-3.15415c-3.43441,-0.06514 -2.94538,3.11562 -2.94538,3.11562l0.20548,114.86995l-48.21366,0.07222l-0.30539,-115.23309c0,0 0.27949,-2.919 -2.8856,-2.93443c-3.11083,-0.01515 -2.81569,2.90899 -2.81569,2.90899l0.35311,115.0668z" fill="#ffffff" stroke="#000000" stroke-width="2" stroke-linecap="butt"/><path d="M255.62765,200.33384c-0.57113,0 -1.03411,-0.46299 -1.03411,-1.03411c0,-0.57113 0.46299,-1.03413 1.03411,-1.03413c0.57113,0 1.03411,0.463 1.03411,1.03413c0,0.57113 -0.46299,1.03411 -1.03411,1.03411z" fill="#000000" stroke="none" stroke-width="1.5" stroke-linecap="butt"/><path d="M250.36776,204.56944c-4.4635,-0.31439 -6.55245,-1.79392 -6.16985,-2.58011c0.11788,-0.24224 2.84645,1.06355 6.97038,1.3048c6.40897,0.37493 8.51033,-0.63173 8.51033,-0.63173v1.34616c0,0 -2.4135,1.04672 -9.31086,0.56089z" fill="#000000" stroke="#000000" stroke-width="0" stroke-linecap="butt"/><path d="M222.55501,199.29973c0,-0.57113 0.46299,-1.03413 1.03411,-1.03413c0.57113,0 1.03413,0.463 1.03413,1.03413c0,0.57113 -0.463,1.03411 -1.03413,1.03411c-0.57113,0 -1.03411,-0.46299 -1.03411,-1.03411z" fill="#000000" stroke="none" stroke-width="1.5" stroke-linecap="butt"/><path d="M228.849,204.56944c-6.89736,0.48585 -9.31086,-0.56089 -9.31086,-0.56089v-1.34616c0,0 2.10136,1.00666 8.51033,0.63173c4.12393,-0.24126 6.85251,-1.54704 6.97039,-1.3048c0.3826,0.78618 -1.70634,2.26571 -6.16985,2.58011z" fill="#000000" stroke="#000000" stroke-width="0" stroke-linecap="butt"/><path d="M240.12945,261.12113c-0.81895,0 -1.48284,-0.66389 -1.48284,-1.48284c0,-0.81895 0.66389,-1.48284 1.48284,-1.48284c0.81895,0 1.48284,0.66389 1.48284,1.48284c0,0.81895 -0.66389,1.48284 -1.48284,1.48284z" data-paper-data="{&quot;index&quot;:null}" fill="#000000" stroke="none" stroke-width="1.5" stroke-linecap="butt"/><path d="M216.0662,304.40603v-119.20147c0,0 0.75721,-9.73105 0.75721,-14.63937c0,-4.498 -0.75721,-13.6872 -0.75721,-13.6872c0,0 2.67319,-2.35297 4.6557,-3.74807c1.98251,-1.3951 5.17197,-2.80371 5.17197,-2.80371c0,0 -0.6016,40.10902 14.55952,40.03867c15.43477,-0.07162 13.83154,-40.03867 13.83154,-40.03867c0,0 3.91276,1.51959 6.16585,2.94655c2.25309,1.42695 4.75379,3.60523 4.75379,3.60523c0,0 -0.75721,9.42463 -0.75721,14.19201c0,4.84193 0.75721,14.63937 0.75721,14.63937v118.69667z" fill="#ffffff" stroke="#000000" stroke-width="2" stroke-linecap="butt"/><path d="M199.56071,104.42625c0,0 7.06839,-4.80549 7.33995,-5.63749c0.71224,-2.18214 6.56573,-39.63336 42.42507,-34.95961c44.15839,6.57823 32.54057,41.38605 33.87468,48.55247c1.82927,9.82625 3.15417,18.18573 3.15417,18.18573c0,0 -2.38396,-2.48812 -3.49692,-3.77323c-1.03805,-1.1986 -3.22059,-3.73832 -3.22059,-3.73832c0,0 1.31356,10.71973 -2.17511,20.62206c-3.12878,9.08518 -10.08081,15.75915 -10.08081,15.75915l-0.74559,-2.50773c0,0 -1.37647,1.99553 -2.68792,2.92371c-1.31146,0.92818 -3.87815,2.29539 -3.87815,2.29539l0.52989,-3.66727c0,0 -8.80638,9.67926 -25.82797,6.63783c-16.03293,-2.98401 -23.91428,-14.89263 -23.91428,-14.89263l-0.55939,2.59784c0,0 -3.288,-3.89879 -4.46754,-10.60602c-1.40587,-7.99424 -1.14227,-12.61294 -1.14227,-12.61294c0,0 -2.62423,1.4804 -6.10108,1.77728c-4.3567,0.37202 -6.90629,-0.82355 -6.90629,-0.82355c0,0 4.01221,-2.07423 6.30423,-3.76684c2.04154,-1.50765 3.17503,-2.88604 3.17503,-2.88604c0,0 -2.25954,0.71623 -4.44403,0.88587c-2.27927,0.17701 -4.06206,-0.15182 -4.06206,-0.15182c0,0 5.7486,-4.13251 8.75336,-9.54255c2.83697,-5.10795 3.90596,-10.4506 3.90596,-10.4506c0,0 -1.45326,0.42413 -3.41628,0.22592c-1.2443,-0.12563 -2.33605,-0.44662 -2.33605,-0.44662z" fill="#000000" stroke="none" stroke-width="1.5" stroke-linecap="butt"/><path d="M215.0322,103.49637c-0.59637,-8.94567 0.28966,-21.04669 0.28966,-21.04669c0,0 3.41047,-0.06165 13.90593,-3.90256c8.06327,-2.95085 20.52216,-11.70583 20.52216,-11.70583c0,0 -2.1521,3.69365 -3.39601,5.48288c-1.32241,1.90215 -3.98085,5.61092 -3.98085,5.61092c0,0 7.83356,-2.07129 14.66221,-5.84964c8.55899,-4.36554 10.57648,-7.46044 12.93824,-5.67645c2.78745,2.10556 1.09133,28.43784 0.79443,35.25747c-0.40665,6.95654 -2.50815,11.66271 -3.11721,15.37076c-0.60906,3.70805 -0.39336,7.5299 -2.1638,19.68511c-1.10488,7.58569 -4.13823,10.96252 -9.98063,18.0188c-5.84241,7.05629 -9.02929,11.38089 -12.98891,11.47835c-3.81058,0.0938 -8.94911,-6.22809 -13.96282,-12.69228c-5.33877,-6.88332 -8.89727,-10.3712 -9.7555,-18.54236c-0.77293,-7.35899 -0.80272,-12.15355 -1.16296,-18.70347c-0.26329,-4.78716 -2.27822,-7.89961 -2.60393,-12.78502z" fill="#ffffff" stroke="#000000" stroke-width="1.5" stroke-linecap="butt"/><g stroke-width="0" stroke-linecap="butt"><path d="M225.55142,162.62416c-5.46979,1.24741 -12.44413,2.14388 -12.59668,-2.1125c-0.15507,-4.32691 3.55411,-11.10781 6.53062,-16.84289c3.05731,-5.89079 5.85397,-11.22206 5.85397,-11.22206c0,0 20.43687,-11.33252 26.2482,-12.90603c2.61039,-0.7068 7.13976,0.89128 7.13976,0.89128c0,0 8.16365,-4.82973 10.61316,-4.86632c2.23657,-0.0334 5.4183,1.51539 8.01424,2.73205c2.18335,1.02327 4.00219,1.74581 4.00219,1.74581c0,0 -3.73543,3.62025 -8.58305,8.8304c-6.20945,6.67381 -14.68229,15.91306 -24.1506,23.0322c-7.87255,5.9193 -17.74283,9.50274 -23.07177,10.71802z" fill="#000000" stroke="#000000"/><path d="M227.21165,133.7834c0,0 3.86893,-1.02767 4.35352,1.32447c0.9954,4.8316 -10.4091,17.64083 5.16372,13.57816c13.53251,-3.5304 21.38562,-13.3659 31.13615,-20.56492c5.06685,-3.74095 8.59276,-5.19639 8.59276,-5.19639c0,0 -5.03993,5.41037 -10.6949,11.33522c-5.14439,5.38989 -11.94415,11.98976 -17.14465,15.50011c-5.20052,3.51037 -12.7008,7.07798 -19.04842,8.75632c-3.22583,0.85291 -12.38319,2.383 -12.66805,-0.88248c-0.32432,-3.71793 2.8973,-9.51241 5.68263,-14.84361c2.45794,-4.70459 4.62726,-9.00685 4.62726,-9.00685z" fill="#ffffff" stroke="none"/><path d="M230.79181,131.29884c0,0 12.92116,-7.16262 17.29867,-8.50038c3.91516,-1.19646 7.73448,0.85029 7.73448,0.85029c0,0 8.82047,-5.27954 11.92152,-5.57796c3.10104,-0.29841 8.27788,3.63414 8.27788,3.63414c0,0 -15.26191,3.42275 -22.81741,5.02528c-7.52186,1.5954 -22.41513,4.56862 -22.41513,4.56862z" fill="#ffffff" stroke="none"/><path d="M251.53031,139.61723c0,0 -3.63339,4.26181 -12.7783,6.52189c-9.56122,2.36295 -6.65103,-2.2349 -6.65103,-2.2349c0,0 2.57014,1.09836 8.20473,-0.33776c5.6346,-1.43612 11.22459,-3.94921 11.22459,-3.94921z" fill="#ffffff" stroke="none"/><path d="M266.94987,125.31781c0,0 -4.07271,3.124 -17.28036,6.49033c-8.22921,2.09743 -12.17599,0.35231 -12.17599,0.35231c0,0 5.76416,-0.6529 13.99337,-2.75033c8.22921,-2.09743 15.463,-4.09231 15.463,-4.09231z" fill="#ffffff" stroke="none"/></g><path d="M246.04044,139.34374c-0.91087,0.48887 -4.65932,-1.19965 -5.87301,-2.93532c-1.08591,-1.55295 -0.65148,-3.99483 1.52627,-5.16363c2.17776,-1.16881 3.93463,-1.55474 5.53164,1.78481c1.35533,2.83418 0.99285,5.14535 -1.1849,6.31416z" fill="#ffffff" stroke="#ffffff" stroke-width="1.15" stroke-linecap="butt"/><path d="M249.21154,117.53389c0,0 -0.38818,3.95206 -0.87394,7.07283c-0.96186,6.17966 -4.49976,27.41493 -4.49976,27.41493l-2.95993,-0.35946c0,0 -0.28175,-4.23994 0.05795,-9.56579c0.45981,-7.209 1.56504,-16.2241 1.66566,-19.57639c0.09537,-3.17765 -0.18373,-5.78142 -0.18373,-5.78142" fill="#ffffff" stroke="#000000" stroke-width="1.3" stroke-linecap="round"/><path d="M300.08083,134.01567c0,0 -6.00897,-0.76654 -9.67563,-4.99301c-3.85802,-4.44707 -5.8901,-7.88475 -4.30212,-9.03111c1.58797,-1.14639 3.50588,0.81599 7.24027,5.59718c3.73438,4.78119 6.73749,8.42694 6.73749,8.42694z" data-paper-data="{&quot;index&quot;:null}" fill="#ffffff" stroke="#000000" stroke-width="1" stroke-linecap="butt"/><path d="M283.87864,113.14529c0,0 -4.52263,-0.89049 -7.80108,-5.40392c-1.82884,-2.51773 0.82206,-3.02901 0.82206,-3.02901" fill="none" stroke="#000000" stroke-width="0.25" stroke-linecap="round"/><path d="M212.57214,131.05486c-0.89489,-4.80986 2.98165,-9.71457 8.26458,-10.6975c5.28293,-0.98291 9.68764,2.38531 10.58254,7.19517c0.89489,4.80986 -2.3088,9.43473 -7.59173,10.41766c-5.28293,0.9829 -10.3605,-2.10547 -11.25539,-6.91534z" fill="#ffffff" stroke="#000000" stroke-width="1.4" stroke-linecap="butt"/><path d="M217.10123,131.40257c-0.50461,-2.71218 1.28497,-5.31987 3.99712,-5.82448c2.71218,-0.50461 5.31987,1.28497 5.82448,3.99712c0.50461,2.71218 -1.28496,5.31986 -3.99712,5.82448c-2.71218,0.50461 -5.31987,-1.28496 -5.82448,-3.99711z" fill="#000000" stroke="none" stroke-width="1.5" stroke-linecap="butt"/><path d="M247.57992,122.45089c-2.13227,-4.4033 -0.26586,-9.911 4.41978,-12.4258c4.68563,-2.5148 10.04749,-0.89134 12.3611,3.41944c2.31361,4.31078 0.8658,9.83025 -4.22333,12.64201c-4.84068,2.6745 -10.3307,0.96293 -12.55755,-3.63565z" fill="#ffffff" stroke="#000000" stroke-width="1.4" stroke-linecap="butt"/><path d="M250.81575,123.68011c-1.33284,-3.87183 -0.40015,-8.69514 2.08324,-10.77316c2.48338,-2.07803 5.57704,-0.62386 6.90988,3.24797c1.33284,3.87183 0.40015,8.69512 -2.08324,10.77316c-2.48338,2.07803 -5.57704,0.62386 -6.90988,-3.24797z" fill="#000000" stroke="none" stroke-width="1.5" stroke-linecap="butt"/><path d="M251.3934,95.14934c-4.7269,-3.80286 -6.66145,-5.74883 -5.49231,-7.32014c1.16914,-1.5713 4.57717,0.51009 8.9682,4.43177c4.17321,3.72715 4.85312,9.74655 4.85312,9.74655c0,0 -3.60211,-3.05532 -8.32901,-6.85818z" data-paper-data="{&quot;index&quot;:null}" fill="#ffffff" stroke="#000000" stroke-width="1" stroke-linecap="butt"/><path d="M260.92761,108.98096c0,0 1.89132,-1.92656 2.97863,0.98916c1.94919,5.22684 0.19148,9.48803 0.19148,9.48803" data-paper-data="{&quot;index&quot;:null}" fill="none" stroke="#000000" stroke-width="0.25" stroke-linecap="round"/><text transform="translate(219.55167,214.33) scale(0.23581,0.5)" font-size="40" xml:space="preserve" fill="#000000" fill-rule="nonzero" stroke="none" stroke-width="1" stroke-linecap="butt" stroke-linejoin="miter" stroke-miterlimit="10" stroke-dasharray="" stroke-dashoffset="0" font-family="Sans Serif" font-weight="normal" text-anchor="start" style="mix-blend-mode: normal"><tspan x="0" dy="0">now i see</tspan></text><text transform="translate(218.67218,251.77739) scale(0.11404,0.09476)" font-size="40" xml:space="preserve" fill="#000000" fill-rule="nonzero" stroke="none" stroke-width="1" stroke-linecap="butt" stroke-linejoin="miter" stroke-miterlimit="10" stroke-dasharray="" stroke-dashoffset="0" font-family="Sans Serif" font-weight="normal" text-anchor="start" style="mix-blend-mode: normal"><tspan x="0" dy="0">no you cant</tspan><tspan x="0" dy="48px">do that that not</tspan><tspan x="0" dy="48px">how the game work</tspan></text><text transform="translate(224.09158,291.29964) scale(0.11404,0.09476)" font-size="40" xml:space="preserve" fill="#000000" fill-rule="nonzero" stroke="none" stroke-width="1" stroke-linecap="butt" stroke-linejoin="miter" stroke-miterlimit="10" stroke-dasharray="" stroke-dashoffset="0" font-family="Sans Serif" font-weight="normal" text-anchor="start" style="mix-blend-mode: normal"><tspan x="0" dy="0">pain in my dih.</tspan></text><path d="M238.11939,302.78307c-0.32466,-0.22057 -5.04631,-4.92459 -2.74425,-6.07562c0.69357,-0.34678 1.76377,0.61847 2.67924,1.72091c0.12191,-1.2364 0.3512,-2.41257 0.54203,-3.12302c0.0145,-0.21652 0.08413,-0.41794 0.19498,-0.59035c0.22235,-0.34581 0.61052,-0.57488 1.05219,-0.57488c0.53471,0 0.991,0.33573 1.16957,0.8079c0.0674,0.12928 0.09597,0.29332 0.07797,0.52112c-0.00269,0.03407 -0.00643,0.06957 -0.01123,0.10658c-0.14618,1.12703 -1.45347,3.91688 -0.45218,3.3793c1.04628,-0.56173 3.11864,-4.41592 4.12672,-1.39167c0.52819,1.58456 -5.12717,5.85781 -5.55175,5.74201c-0.20797,-0.05672 -0.38449,-0.16989 -0.53326,-0.3292c-0.03875,-0.00459 -0.07696,-0.01096 -0.11455,-0.01902c-0.14802,-0.02293 -0.29524,-0.07878 -0.4355,-0.17407z" fill="#000000" stroke="none" stroke-width="0.5" stroke-linecap="butt"/></g></g></svg>