<svg version="1.1" xmlns="http://www.w3.org/2000/svg" xmlns:xlink="http://www.w3.org/1999/xlink" width="108.25847" height="259.18065" viewBox="0,0,108.25847,259.18065"><g transform="translate(-182.57834,-47.43186)"><g data-paper-data="{&quot;isPaintingLayer&quot;:true}" fill-rule="nonzero" stroke-linejoin="miter" stroke-miterlimit="10" stroke-dasharray="" stroke-dashoffset="0" style="mix-blend-mode: normal"><path d="M195.2837,306.61251v-253.22501h91.18203v253.22501z" fill-opacity="0.01" fill="#000000" stroke="none" stroke-width="0" stroke-linecap="butt"/><path d="M225.63289,297.44334c0,0 -0.28262,-94.38387 -0.35289,-118.01201c-0.02425,-8.15261 3.64164,-36.76129 17.88244,-36.9211c14.05718,-0.15775 17.72885,29.48704 17.72534,36.89673c-0.03407,46.24274 0.29104,117.98648 0.29104,117.98648l-4.66907,0.09614l-0.07065,-114.84311c0,0 0.03358,-3.0993 -1.25271,-3.15415c-1.52768,-0.06514 -1.31015,3.11562 -1.31015,3.11562l0.0914,114.86995l-21.44613,0.07222l-0.13584,-115.23309c0,0 0.12432,-2.919 -1.28356,-2.93443c-1.38374,-0.01515 -1.25246,2.90899 -1.25246,2.90899l0.15707,115.0668z" fill="#808080" stroke="#000000" stroke-width="2" stroke-linecap="butt"/><path d="M243.02469,254.17289c-0.36428,0 -0.65959,-0.66389 -0.65959,-1.48284c0,-0.81895 0.29531,-1.48284 0.65959,-1.48284c0.36428,0 0.65959,0.66389 0.65959,1.48284c0,0.81895 -0.29531,1.48284 -0.65959,1.48284z" data-paper-data="{&quot;index&quot;:null}" fill="#000000" stroke="none" stroke-width="1.5" stroke-linecap="butt"/><path d="M232.321,297.45778v-119.20147c0,0 0.33682,-9.73105 0.33682,-14.63937c0,-4.498 -0.33682,-13.6872 -0.33682,-13.6872c0,0 1.18907,-2.35297 2.07092,-3.74807c0.88185,-1.3951 2.30057,-2.80371 2.30057,-2.80371c0,0 -0.2676,40.10902 6.47628,40.03867c6.86561,-0.07162 6.15247,-40.03867 6.15247,-40.03867c0,0 1.74045,1.51959 2.74266,2.94655c1.00221,1.42695 2.11455,3.60523 2.11455,3.60523c0,0 -0.33682,9.42463 -0.33682,14.19201c0,4.84193 0.33682,14.63937 0.33682,14.63937v118.69667z" fill="#808080" stroke="#000000" stroke-width="2" stroke-linecap="butt"/><path d="M255.62756,200.33376c-0.57113,0 -1.03411,-0.46299 -1.03411,-1.03411c0,-0.57113 0.46299,-1.03413 1.03411,-1.03413c0.57113,0 1.03411,0.463 1.03411,1.03413c0,0.57113 -0.46299,1.03411 -1.03411,1.03411z" fill="#000000" stroke="none" stroke-width="1.5" stroke-linecap="butt"/><path d="M250.36768,204.56935c-4.4635,-0.31439 -6.55245,-1.79392 -6.16985,-2.58011c0.11788,-0.24224 2.84645,1.06355 6.97038,1.3048c6.40897,0.37493 8.51033,-0.63173 8.51033,-0.63173v1.34616c0,0 -2.4135,1.04672 -9.31086,0.56089z" fill="#000000" stroke="#000000" stroke-width="0" stroke-linecap="butt"/><path d="M222.55493,199.29965c0,-0.57113 0.46299,-1.03413 1.03411,-1.03413c0.57113,0 1.03413,0.463 1.03413,1.03413c0,0.57113 -0.463,1.03411 -1.03413,1.03411c-0.57113,0 -1.03411,-0.46299 -1.03411,-1.03411z" fill="#000000" stroke="none" stroke-width="1.5" stroke-linecap="butt"/><path d="M228.84892,204.56935c-6.89736,0.48585 -9.31086,-0.56089 -9.31086,-0.56089v-1.34616c0,0 2.10136,1.00666 8.51033,0.63173c4.12393,-0.24126 6.85251,-1.54704 6.97039,-1.3048c0.3826,0.78618 -1.70634,2.26571 -6.16985,2.58011z" fill="#000000" stroke="#000000" stroke-width="0" stroke-linecap="butt"/><path d="M248.01866,143.0689c0.5704,0.21186 3.08357,1.39942 6.02385,2.59586c2.9637,1.20597 7.21362,2.29294 7.19412,2.4605c-0.02476,0.21265 -10.43477,0.22694 -13.67937,0.63224c-2.71902,0.33964 -6.68867,0.70564 -6.68867,0.70564c0,0 -7.10401,-1.16169 -13.27235,-2.44521c-4.94371,-1.02869 -10.39929,-1.66108 -10.40995,-1.75461c-0.01439,-0.12613 3.86835,-0.71071 6.82417,-1.39467c1.14585,-0.49661 5.43971,-1.48513 5.43971,-1.48513c0,0 4.95585,-0.27766 7.60826,0.579c2.84203,0.91791 2.83546,2.44556 3.0831,2.46906c0,0 1.18436,-1.74932 2.36886,-2.10461c1.18451,-0.35528 5.08219,-0.41633 5.50828,-0.25808z" fill="#808080" stroke="#000000" stroke-width="1.4" stroke-linecap="butt"/><path d="M230.36952,300.65687v-253.22501h22.0739v253.22501z" fill-opacity="0.01" fill="#000000" stroke="none" stroke-width="0" stroke-linecap="butt"/><path d="M239.8636,130.60075c0.43346,6.58857 1.01467,18.01477 1.01467,18.01477c0,0 0.49294,-9.98386 0.71917,-11.77131c0.17538,-1.38581 0.95494,-4.53385 0.95871,-2.1418c0.00368,2.3388 -0.76892,82.78115 -1.80056,79.87304c-1.17235,-2.79639 -1.94671,-97.12477 -1.94349,-98.21008c0.00322,-1.0853 0.61805,7.64679 1.05151,14.23543z" fill="#808080" stroke="#000000" stroke-width="1.9" stroke-linecap="butt"/><path d="M186.54659,114.79875c0,0 7.14612,-5.92187 7.2949,-6.78761c0.3902,-2.27063 -0.19451,-40.17317 41.70333,-41.57382c51.75424,-0.91362 45.23638,35.34872 48.15358,42.1903c3.99993,9.38084 7.13841,17.40016 7.13841,17.40016c0,0 -3.20841,-2.05351 -4.73027,-3.13397c-1.41942,-1.00773 -4.40763,-3.14585 -4.40763,-3.14585c0,0 3.58403,10.3481 1.51997,20.69498c-1.81143,9.48098 -8.46156,17.22543 -8.46156,17.22543l-1.33944,-2.34735c0,0 -1.18574,2.19794 -2.5045,3.33274c-1.31878,1.13479 -3.98709,2.91273 -3.98709,2.91273l-0.10673,-3.70421c0,0 -8.18593,11.01795 -28.23373,10.87154c-18.90652,-0.25547 -30.22899,-10.6752 -30.22899,-10.6752l-0.13473,2.65484c0,0 -4.51585,-3.29276 -7.16717,-9.70754c-3.16006,-7.64567 -3.75604,-12.24324 -3.75604,-12.24324c0,0 -2.71208,1.89916 -6.6287,2.7744c-4.90776,1.09673 -8.0544,0.34526 -8.0544,0.34526c0,0 4.18329,-2.71717 6.47441,-4.76989c2.04074,-1.8284 3.06861,-3.37722 3.06861,-3.37722c0,0 -2.44366,1.0847 -4.90774,1.61795c-2.57099,0.5564 -4.67274,0.53093 -4.67274,0.53093c0,0 5.76824,-5.03728 8.15189,-10.87429c2.25054,-5.51108 2.43455,-10.95731 2.43455,-10.95731c0,0 -1.57879,0.66163 -3.86117,0.79513c-1.44673,0.08463 -2.75703,-0.0489 -2.75703,-0.0489z" fill="#000000" stroke="none" stroke-width="1.5" stroke-linecap="butt"/><path d="M224.72907,116.19431c-0.31408,-7.29323 0.18232,-17.15448 0.18232,-17.15448c0,0 1.85618,-0.04124 7.57272,-3.14424c4.3918,-2.38394 11.18268,-9.48722 11.18268,-9.48722c0,0 -1.17559,3.00503 -1.85467,4.46015c-0.72194,1.54696 -2.17311,4.56297 -2.17311,4.56297c0,0 4.26576,-1.66761 7.9866,-4.72931c4.66326,-3.53575 5.76488,-6.05309 7.04814,-4.5927c1.51457,1.72362 0.5606,23.1827 0.39102,28.74062c-0.22947,5.66922 -1.37871,9.49969 -1.71453,12.52053c-0.33582,3.02084 -0.22292,6.13662 -1.20071,16.0397c-0.61021,6.18021 -2.26504,8.92466 -5.45298,14.66081c-3.18794,5.73616 -4.92743,9.25275 -7.08252,9.32173c-2.07398,0.06639 -4.86314,-5.1002 -7.58422,-10.38244c-2.8975,-5.62474 -4.83008,-8.47713 -5.28758,-15.13975c-0.41203,-6.00039 -0.42262,-9.90853 -0.611,-15.24835c-0.13768,-3.90273 -1.23063,-6.44504 -1.40216,-10.42801z" fill="#808080" stroke="#000000" stroke-width="1.5" stroke-linecap="butt"/><path d="M250.89072,101.07395c0,0 0.82958,0.31807 2.31618,1.11029c1.35784,0.72361 2.42152,1.74403 2.42152,1.74403l0.10618,1.17035c0,0 -3.94554,-3.12997 -8.22663,-2.4706c-3.42306,0.52724 -5.42237,2.8124 -5.42237,2.8124l0.0249,-4.17683c0,0 1.7021,-1.70421 4.27972,-1.85557c2.66911,-0.15672 4.40336,0.59125 4.40336,0.59125z" data-paper-data="{&quot;index&quot;:null}" fill="#000000" stroke="none" stroke-width="1.5" stroke-linecap="butt"/><path d="M239.7676,145.62141c-0.56261,0 -1.92558,-3.26042 -2.06088,-5.3637c-0.12106,-1.88186 0.71574,-3.82799 2.06088,-3.82799c1.34514,0 2.28695,0.49077 2.19328,4.18853c-0.0795,3.13818 -0.84815,5.00317 -2.19328,5.00317z" fill="#808080" stroke="#000000" stroke-width="1.15" stroke-linecap="butt"/><path d="M241.72802,115.52769c0,0 0.05584,3.96976 0.00313,7.12662c-0.10435,6.25113 -0.58858,27.7607 -0.58858,27.7607l-1.62275,0.00864c0,0 -0.43699,-4.17274 -0.6113,-9.49979c-0.23594,-7.21063 -0.24464,-16.29321 -0.4155,-19.63229c-0.16196,-3.16513 -0.4876,-5.71453 -0.4876,-5.71453" fill="#808080" stroke="#000000" stroke-width="1.3" stroke-linecap="round"/><path d="M225.65408,126.31753c0,0 -2.68425,-3.51705 -3.35479,-8.97502c-0.70553,-5.74284 -0.79523,-9.7328 0.26131,-9.99193c1.05654,-0.25915 1.4712,2.37692 2.03144,8.35569c0.56024,5.97877 1.06205,10.61127 1.06205,10.61127z" data-paper-data="{&quot;index&quot;:null}" fill="#808080" stroke="#000000" stroke-width="1" stroke-linecap="butt"/><path d="M225.54382,122.36997c0,0 -1.93959,-2.92338 -2.35012,-8.45061c-0.22901,-3.08327 1.17379,-2.28016 1.17379,-2.28016" fill="none" stroke="#000000" stroke-width="0.25" stroke-linecap="round"/><path d="M227.18384,115.71407c0.0386,-4.89188 2.63322,-8.93609 5.55744,-8.8582c2.92422,0.0779 4.91299,4.2484 4.87439,9.14029c-0.0386,4.89188 -2.24419,8.79439 -5.16841,8.7165c-2.92422,-0.0779 -5.30203,-4.1067 -5.26343,-8.99859z" fill="#808080" stroke="#000000" stroke-width="1.4" stroke-linecap="butt"/><path d="M204.75034,115.83201c0.12124,-2.75843 6.99879,-4.96213 15.36142,-4.92214c8.36269,0.03999 15.04361,2.30855 14.92237,5.06696c-0.12124,2.75843 -6.99876,4.96213 -15.36142,4.92214c-8.36269,-0.03999 -15.04361,-2.30855 -14.92237,-5.06696z" fill="#000000" stroke="none" stroke-width="1.5" stroke-linecap="butt"/><path d="M241.90897,115.7148c0.11077,-4.88817 2.42331,-8.85847 5.31749,-8.85847c2.89418,0 5.04758,3.96607 5.04758,8.85847c0,4.8924 -2.11484,9.07104 -5.27894,9.14188c-3.00963,0.06739 -5.20181,-4.03692 -5.08613,-9.14188z" fill="#808080" stroke="#000000" stroke-width="1.4" stroke-linecap="butt"/><path d="M244.41397,138.96117c0,-15.60983 1.24348,-28.26407 2.7774,-28.26407c1.53391,0 2.7774,12.65424 2.7774,28.26407c0,15.60983 -1.24348,28.26407 -2.7774,28.26407c-1.53391,0 -2.7774,-12.65424 -2.7774,-28.26407z" fill="#000000" stroke="none" stroke-width="1.5" stroke-linecap="butt"/><path d="M227.1466,115.18189c0,0 0.0346,-9.01512 5.76955,-8.8249c5.15451,0.16586 5.20051,9.40723 5.20051,9.40723z" fill="#808080" stroke="#000000" stroke-width="1.15" stroke-linecap="butt"/><path d="M241.70343,115.31279c0,0 -0.13435,-9.4582 6.09448,-9.1032c5.2869,0.33347 5.19574,9.65229 5.19574,9.65229z" fill="#808080" stroke="#000000" stroke-width="1.15" stroke-linecap="butt"/><path d="M229.06768,105.17023c0,0 1.83389,-1.819 4.37158,-2.28178c2.81208,-0.51283 4.22779,-0.06628 4.22779,-0.06628l0.16059,4.13747c0,0 -2.08746,-0.68065 -4.36369,-0.52113c-3.04419,0.21333 -3.61641,1.43293 -5.93099,1.89119c-1.98326,0.39266 -3.66667,0.15884 -3.66667,0.15884l-0.01409,-1.23155c0,0 1.95664,0.07398 2.8484,-0.06836c0.73603,-0.11749 2.16374,-0.93808 2.16374,-0.93808z" fill="#000000" stroke="none" stroke-width="1.5" stroke-linecap="butt"/><path d="M255.16997,115.70626c0.56024,-5.97877 0.9749,-8.61483 2.03144,-8.35569c1.05654,0.25914 0.96684,4.24909 0.26131,9.99193c-0.67054,5.45797 -3.35479,8.97502 -3.35479,8.97502c0,0 0.50181,-4.6325 1.06205,-10.61127z" data-paper-data="{&quot;index&quot;:null}" fill="#808080" stroke="#000000" stroke-width="1" stroke-linecap="butt"/><path d="M255.39452,111.6392c0,0 1.4028,-0.80312 1.17379,2.28016c-0.41053,5.52723 -2.35012,8.45061 -2.35012,8.45061" data-paper-data="{&quot;index&quot;:null}" fill="none" stroke="#000000" stroke-width="0.25" stroke-linecap="round"/></g></g></svg>