<svg version="1.1" xmlns="http://www.w3.org/2000/svg" xmlns:xlink="http://www.w3.org/1999/xlink" width="110.66186" height="355.10541" viewBox="0,0,110.66186,355.10541"><g transform="translate(-184.66907,21.44382)"><g data-paper-data="{&quot;isPaintingLayer&quot;:true}" fill-rule="nonzero" stroke-linejoin="miter" stroke-miterlimit="10" stroke-dasharray="" stroke-dashoffset="0" style="mix-blend-mode: normal"><path d="M184.66907,333.66159v-307.32317h110.66186v307.32317z" fill-opacity="0.01" fill="#000000" stroke="none" stroke-width="0" stroke-linecap="butt"/><path d="M201.03039,303.71105c0,0 -0.63536,-123.30503 -0.79335,-154.17331c-0.05451,-10.65074 8.18688,-48.0257 40.20201,-48.23448c31.60235,-0.20609 39.85672,38.52247 39.84884,48.20265c-0.07659,60.41247 0.65429,154.13996 0.65429,154.13996l-10.49667,0.1256l-0.15882,-150.0334c0,0 0.07549,-4.04899 -2.81625,-4.12065c-3.43441,-0.0851 -2.94538,4.07031 -2.94538,4.07031l0.20548,150.06846l-48.21366,0.09435l-0.30539,-150.54288c0,0 0.27949,-3.81344 -2.8856,-3.8336c-3.11083,-0.01979 -2.81569,3.80036 -2.81569,3.80036l0.35311,150.32563z" fill="#ffffff" stroke="#000000" stroke-width="2" stroke-linecap="butt"/><path d="M255.62756,167.76777c-0.57113,0 -1.03411,-0.60486 -1.03411,-1.35098c0,-0.74614 0.46299,-1.35101 1.03411,-1.35101c0.57113,0 1.03411,0.60487 1.03411,1.35101c0,0.74614 -0.46299,1.35098 -1.03411,1.35098z" fill="#000000" stroke="none" stroke-width="1.5" stroke-linecap="butt"/><path d="M250.36768,173.30125c-4.4635,-0.41073 -6.55245,-2.34361 -6.16985,-3.37071c0.11788,-0.31647 2.84645,1.38944 6.97038,1.70462c6.40897,0.48982 8.51033,-0.82531 8.51033,-0.82531v1.75865c0,0 -2.4135,1.36746 -9.31086,0.73276z" fill="#000000" stroke="#000000" stroke-width="0" stroke-linecap="butt"/><path d="M222.55493,166.41679c0,-0.74614 0.46299,-1.35101 1.03411,-1.35101c0.57113,0 1.03413,0.60487 1.03413,1.35101c0,0.74614 -0.463,1.35098 -1.03413,1.35098c-0.57113,0 -1.03411,-0.60486 -1.03411,-1.35098z" fill="#000000" stroke="none" stroke-width="1.5" stroke-linecap="butt"/><path d="M228.84892,173.30125c-6.89736,0.63472 -9.31086,-0.73276 -9.31086,-0.73276v-1.75865c0,0 2.10136,1.31512 8.51033,0.82531c4.12393,-0.31519 6.85251,-2.02108 6.97039,-1.70462c0.3826,1.02708 -1.70634,2.95997 -6.16985,3.37071z" fill="#000000" stroke="#000000" stroke-width="0" stroke-linecap="butt"/><path d="M240.12938,247.18164c-0.81895,0 -1.48284,-0.86732 -1.48284,-1.93721c0,-1.06989 0.66389,-1.93721 1.48284,-1.93721c0.81895,0 1.48284,0.86732 1.48284,1.93721c0,1.06989 -0.66389,1.93721 -1.48284,1.93721z" data-paper-data="{&quot;index&quot;:null}" fill="#000000" stroke="none" stroke-width="1.5" stroke-linecap="butt"/><path d="M216.06612,303.7299v-155.72725c0,0 0.75721,-12.71284 0.75721,-19.12517c0,-5.87628 -0.75721,-17.88124 -0.75721,-17.88124c0,0 2.67319,-3.07397 4.6557,-4.89656c1.98251,-1.82259 5.17197,-3.66282 5.17197,-3.66282c0,0 -0.6016,52.39925 14.55952,52.30734c15.43477,-0.09357 13.83154,-52.30734 13.83154,-52.30734c0,0 3.91276,1.98522 6.16585,3.84943c2.25309,1.8642 4.75379,4.70995 4.75379,4.70995c0,0 -0.75721,12.31253 -0.75721,18.54073c0,6.3256 0.75721,19.12517 0.75721,19.12517v155.06777z" fill="#ffffff" stroke="#000000" stroke-width="2" stroke-linecap="butt"/><path d="M195.9269,41.7587c0,0 6.16329,-7.73645 6.29161,-8.86747c0.33654,-2.9664 -0.16776,-52.48305 35.96775,-54.31289c44.63633,-1.19357 39.01489,46.18029 41.53088,55.11827c3.44981,12.25532 6.15664,22.73193 6.15664,22.73193c0,0 -2.76715,-2.68275 -4.0797,-4.09428c-1.2242,-1.31652 -3.80143,-4.1098 -3.80143,-4.1098c0,0 3.09111,13.51897 1.31092,27.03635c-1.5623,12.38615 -7.29782,22.50366 -7.29782,22.50366l-1.15522,-3.06663c0,0 -1.02266,2.87143 -2.16005,4.35396c-1.1374,1.48251 -3.43873,3.80525 -3.43873,3.80525l-0.09205,-4.83926c0,0 -7.0601,14.39408 -24.35066,14.2028c-16.30625,-0.33375 -26.07151,-13.9463 -26.07151,-13.9463l-0.1162,3.46834c0,0 -3.89477,-4.30173 -6.18145,-12.68213c-2.72545,-9.98846 -3.23946,-15.99482 -3.23946,-15.99482c0,0 -2.33908,2.4811 -5.71704,3.62453c-4.23278,1.43279 -6.94665,0.45105 -6.94665,0.45105c0,0 3.60795,-3.54977 5.58396,-6.23148c1.76007,-2.38866 2.64658,-4.41207 2.64658,-4.41207c0,0 -2.10758,1.41707 -4.23277,2.11372c-2.21739,0.72689 -4.03008,0.69362 -4.03008,0.69362c0,0 4.97492,-6.58081 7.03074,-14.2064c1.94102,-7.19979 2.09972,-14.31485 2.09972,-14.31485c0,0 -1.36165,0.86437 -3.33013,1.03877c-1.24776,0.11056 -2.37785,-0.06388 -2.37785,-0.06388z" fill="#000000" stroke="none" stroke-width="1.5" stroke-linecap="butt"/><path d="M213.04779,33.80766c0,0 3.41059,-0.05388 13.91429,-4.1077c8.0696,-3.11443 20.54731,-12.3943 20.54731,-12.3943c0,0 -2.16005,3.92583 -3.40781,5.82683c-1.32651,2.02098 -3.99292,5.96116 -3.99292,5.96116c0,0 7.838,-2.1786 14.67476,-6.17847c8.56837,-4.61918 10.59252,-7.90788 12.95042,-6c2.7829,2.25177 2.16525,8.59169 1.85365,15.85267c-0.83571,14.68016 17.31125,40.03263 15.28875,54.5968c-1.12121,8.07395 -25.94229,16.0689 -31.79988,23.56272c-5.85759,7.49384 -9.05378,12.08798 -13.01359,12.1781c-3.81077,0.08673 -8.93565,-6.66301 -13.93542,-13.56383c-5.32393,-7.34828 -34.66403,-16.4196 -35.50465,-25.12378c-1.37021,-14.18777 22.95188,-30.87318 22.09012,-45.10089z" fill="#ffffff" stroke="#000000" stroke-width="1.5" stroke-linecap="butt"/><g stroke="none" stroke-width="0" stroke-linecap="butt"><g><path d="M207.77657,198.37651c-9.9428,-24.99434 -11.82348,-63.34976 -13.58893,-88.58448c-0.89043,-12.7278 -3.55516,-24.70304 -3.55516,-24.70304c0,0 9.32371,-12.75448 18.29212,-23.75354c5.20187,-6.37964 10.92737,-14.43041 12.96338,-14.58642c4.36197,-0.33419 18.96839,11.61411 18.96839,11.61411c0,0 11.88766,-14.79229 17.66332,-11.06481c4.75269,3.06727 11.62775,14.99912 17.42533,24.96763c4.86424,8.36364 9.13669,15.25421 9.13669,15.25421c0,0 -1.82121,23.63339 -2.01489,35.57559c-0.40765,25.1377 -3.00213,52.06316 -12.69733,73.92215c-6.45323,14.54967 -17.05233,22.21209 -29.6208,22.0953c-12.96343,-0.12047 -27.04919,-5.84751 -32.97217,-20.73669z" fill="#000000"/><path d="M210.55701,190.67121c-7.17137,-19.18282 -9.28972,-52.09542 -11.15321,-74.49462c-0.829,-9.96474 -3.22124,-22.99443 -3.22124,-22.99443c0,0 4.87101,-0.12628 9.13628,10.27894c4.33129,10.56625 7.55465,29.46741 10.40434,42.71722c3.31174,15.39811 6.86845,24.48465 22.81149,24.67198c32.06475,0.37672 22.5775,-41.82437 31.62444,-64.1131c4.24372,-10.45511 9.74602,-10.86619 9.74602,-10.86619c0,0 -1.89232,15.27562 -2.26093,30.8633c-0.47166,19.94558 -1.35973,42.87676 -9.54509,61.48219c-8.18536,18.60543 -17.72223,21.23083 -27.82956,21.34026c-14.62123,0.15834 -25.62322,-7.94696 -29.71252,-18.88562z" fill="#ffffff"/><path d="M198.81537,84.305c0,0 15.46554,-23.68704 22.73916,-27.07048c6.65757,-3.09694 21.06925,10.44654 21.06925,10.44654c0,0 9.86862,-13.60143 14.01777,-11.44533c6.13578,3.18846 21.66377,31.15374 21.66377,31.15374c0,0 -6.05588,1.70495 -14.37273,-1.76364c-7.5648,-3.15493 -14.72929,-11.85159 -22.69181,-12.04528c-5.67992,-0.13817 -15.5824,7.47796 -23.25398,9.62804c-10.68848,2.99557 -19.1714,1.09635 -19.1714,1.09635z" fill="#ffffff"/><path d="M218.73538,138.17877c0,0 2.00173,0.96904 3.27783,2.43193c3.52471,4.04061 9.93425,11.6467 17.83198,11.4569c8.79708,-0.21139 14.4807,-6.8078 17.53389,-10.59776c1.31705,-1.63489 2.72032,-2.52219 2.72032,-2.52219c0,0 -0.52217,11.40837 -7.07548,17.90735c-2.98995,2.96514 -6.68941,2.56884 -13.13146,3.7316c-6.59484,1.19033 -11.30779,-1.24128 -14.45229,-5.14834c-5.34206,-6.63746 -6.70474,-17.25946 -6.70474,-17.25946z" fill="#ffffff"/><path d="M219.46368,91.3007c0,0 12.80207,-8.09332 20.98682,-8.28997c8.18473,-0.19665 21.0943,11.09808 21.0943,11.09808l-42.08112,-2.80816z" fill="#ffffff"/></g><path d="M238.68629,126.83462c0.42924,-0.01438 2.63368,6.68464 2.63368,6.68464c0,0 -0.02392,-6.74406 0.61683,-6.74093c7.57404,0.0376 13.63176,1.41468 13.64817,4.37197c0.01779,3.20745 -7.07792,7.05907 -15.53589,7.26231c-8.45797,0.20324 -15.59449,-3.3064 -15.74655,-7.32107c-0.11488,-3.03286 6.48666,-3.99264 14.38377,-4.25701z" fill="#ffffff"/></g><path d="M240.34493,94.99367c-1.03376,0 -3.5381,-4.25948 -3.7867,-7.00725c-0.22243,-2.4585 1.31512,-5.00096 3.7867,-5.00096c2.47159,0 4.2021,0.64115 4.02999,5.47198c-0.14607,4.09978 -1.55841,6.53624 -4.02999,6.53624z" fill="#ffffff" stroke="#000000" stroke-width="1.15" stroke-linecap="butt"/><path d="M243.94704,55.34774c0,0 0.1026,5.18618 0.00576,9.31036c-0.19174,8.1666 -1.08147,36.26715 -1.08147,36.26715l-2.98167,0.01129c0,0 -0.80294,-5.45135 -1.12322,-12.41072c-0.43353,-9.42012 -0.4495,-21.28578 -0.76344,-25.64803c-0.29758,-4.13499 -0.89593,-7.46558 -0.89593,-7.46558" fill="#ffffff" stroke="#000000" stroke-width="1.3" stroke-linecap="round"/><path d="M200.63095,65.53578c0,0 -0.90337,-6.67992 2.66237,-12.97644c3.75185,-6.62515 6.92775,-10.76178 8.64399,-9.79337c1.71626,0.96839 0.12315,4.11519 -4.03054,10.8096c-4.15369,6.6944 -7.27583,11.96023 -7.27583,11.96023z" data-paper-data="{&quot;index&quot;:null}" fill="#ffffff" stroke="#000000" stroke-width="1" stroke-linecap="butt"/><path d="M203.74253,61.41806c0,0 -0.33647,-5.21285 3.65618,-11.27659c2.22722,-3.38256 3.55616,-0.93747 3.55616,-0.93747" fill="none" stroke="#000000" stroke-width="0.25" stroke-linecap="round"/><path d="M273.36536,52.49231c-3.41902,-7.09777 -4.66881,-10.396 -2.8594,-11.1766c1.80941,-0.78059 4.52789,3.67 7.5547,10.65622c2.87666,6.63968 1.26878,13.18584 1.26878,13.18584c0,0 -2.54506,-5.56771 -5.96409,-12.66548z" data-paper-data="{&quot;index&quot;:null}" fill="#ffffff" stroke="#000000" stroke-width="1" stroke-linecap="butt"/><path d="M270.79895,47.82168c0,0 1.58116,-2.29008 3.43644,1.30995c3.32589,6.45358 2.43754,11.60119 2.43754,11.60119" data-paper-data="{&quot;index&quot;:null}" fill="none" stroke="#000000" stroke-width="0.25" stroke-linecap="round"/></g></g></svg>