<svg version="1.1" xmlns="http://www.w3.org/2000/svg" xmlns:xlink="http://www.w3.org/1999/xlink" width="291.92685" height="239.48066" viewBox="0,0,291.92685,239.48066"><g transform="translate(-91.23647,-61.13467)"><g data-paper-data="{&quot;isPaintingLayer&quot;:true}" fill-rule="nonzero" stroke-linejoin="miter" stroke-miterlimit="10" stroke-dasharray="" stroke-dashoffset="0" style="mix-blend-mode: normal"><g fill="#ffffff" stroke="#000000"><path d="M196.61522,298.68887v-83.20475h9.66485v83.20475z" stroke-width="3" stroke-linecap="butt"/><path d="M273.93379,299.36533v-83.20475h9.66485v83.20475z" stroke-width="2.5" stroke-linecap="butt"/><path d="M281.01275,180.15637c2.82652,8.17216 3.2741,36.01187 3.2741,36.01187c0,0 -6.60172,0.00426 -9.88739,0.00639c-1.19772,0.00077 2.97753,-17.95316 -4.12383,-17.94857c-7.10136,0.00459 -5.34802,17.95488 -5.34802,17.95488l0.67447,81.83149l-50.10636,0.27618l0.66242,-81.3649c0,0 1.13388,-18.47445 -4.22465,-18.61307c-6.63577,-0.17165 -3.32535,18.43301 -4.41678,18.40477c-3.44393,-0.08909 -11.28024,-0.29181 -11.28024,-0.29181c0,0 -2.01978,-19.70771 1.87736,-32.91985c3.89716,-13.21214 21.73657,-27.2069 42.5347,-28.04671c20.79814,-0.83981 37.53769,16.52717 40.36419,24.69933z" stroke-width="4" stroke-linecap="round"/></g><g><path d="M269.23206,132.52038c-1.23988,4.00289 -3.15055,10.48607 -3.01543,12.01173c0.3211,3.62599 0.33787,9.24786 -1.7688,13.86136c-5.52288,12.09477 -14.51563,19.3814 -19.53284,22.28053c-3.53847,2.04466 -8.02152,1.03804 -8.98649,0.08279c-3.00554,-2.97529 -8.11749,-8.80945 -11.6382,-13.02769c-5.54372,-6.64205 -9.65821,-13.79623 -9.96729,-15.46534c-0.85669,-4.62614 -2.68116,-32.234 -3.13741,-39.27668c-0.01344,-0.20732 -2.50862,-23.4812 17.2837,-26.33223c71.715,-10.33036 41.34845,43.97468 40.76276,45.86556z" fill="#ffffff" stroke="#000000" stroke-width="3.5" stroke-linecap="round"/><g fill="#ffffff" stroke="#000000" stroke-linecap="butt"><path d="M264.34864,161.55679c-0.02625,0.22753 -11.06061,0.24282 -14.49981,0.67647c-2.88209,0.3634 -7.08983,0.75501 -7.08983,0.75501c0,0 -7.53008,-1.24296 -14.06837,-2.61628c-5.24022,-1.10066 -11.023,-1.77729 -11.0343,-1.87736c-0.01525,-0.13495 12.99942,-3.08127 12.99942,-3.08127c0,0 5.25308,-0.29709 8.06458,0.61951c3.01248,0.98213 3.00552,2.61665 3.26801,2.6418c0,0 1.2554,-1.8717 2.51093,-2.25185c1.25556,-0.38014 5.387,-0.44546 5.83864,-0.27614c0,0 14.03139,5.23083 14.01072,5.41011z" stroke-width="1.4"/><path d="M230.57153,161.01882c5.39648,1.09857 12.63233,3.00377 12.63233,3.00377c0,0 6.13701,-1.6647 8.95339,-1.96274c2.18347,-0.23107 11.88869,-0.75597 11.93561,-0.35712c0.04588,0.38997 -9.57285,13.80285 -22.41646,13.31795c-14.59538,-0.46627 -24.23592,-16.19449 -24.19581,-16.37545c0.04011,-0.18096 7.69447,1.27502 13.09096,2.3736z" stroke-width="3"/></g><path d="M246.11765,152.18022c0,3.035 -4.42018,5.49535 -4.42018,5.49535c0,0 -4.42018,-2.93821 -4.42018,-5.97321c0,-3.035 1.97898,-5.0175 4.42018,-5.0175c2.4412,0 4.42018,2.46035 4.42018,5.49535z" fill="#ffffff" stroke="#000000" stroke-width="1.5" stroke-linecap="butt"/><path d="M246.08768,121.1591l-2.10779,41.11487l-3.59979,0.4165l-3.0374,-51.37623" fill="#ffffff" stroke="#000000" stroke-width="1.5" stroke-linecap="round"/><path d="M238.02982,125.57703c0,5.84108 -4.97488,10.57622 -11.11172,10.57622c-6.13684,0 -11.11172,-4.73513 -11.11172,-10.57622c0,-5.84108 4.97488,-10.57622 11.11172,-10.57622c6.13684,0 11.11172,4.73513 11.11172,10.57622z" fill="#ffffff" stroke="#000000" stroke-width="2.5" stroke-linecap="butt"/><path d="M268.01804,124.73826c0,5.84108 -4.97488,10.57622 -11.11172,10.57622c-6.13684,0 -11.11172,-4.73513 -11.11172,-10.57622c0,-5.84108 4.97488,-10.57622 11.11172,-10.57622c6.13684,0 11.11172,4.73513 11.11172,10.57622z" fill="#ffffff" stroke="#000000" stroke-width="2.5" stroke-linecap="butt"/><path d="M233.21421,125.88818c0,3.05977 -2.77226,5.54021 -6.192,5.54021c-3.41975,0 -6.192,-2.48044 -6.192,-5.54021c0,-3.05977 2.77226,-5.54021 6.192,-5.54021c3.41975,0 6.192,2.48044 6.192,5.54021z" fill="#000000" stroke="none" stroke-width="1.5" stroke-linecap="butt"/><path d="M210.60166,115.22432l10.53738,-2.36688l0.35961,-1.89729l16.69698,-1.18713l-0.25,5.41995c0,0 -6.2989,-1.61596 -9.93103,-1.443c-4.41429,0.2102 -16.88303,3.04299 -16.88303,3.04299z" fill="#000000" stroke="none" stroke-width="1.5" stroke-linecap="butt"/><path d="M245.67696,112.18346l-0.46857,-4.45138c0,0 1.66592,-0.88295 3.06057,-1.03371c0.94109,-0.10174 2.92202,-0.69052 4.87896,-0.80773c4.30658,-0.25796 9.39744,-0.03282 9.39744,-0.03282l0.5447,2.57352l10.212,2.45048l-0.2282,1.39595l-10.5285,-1.5c0,0 -5.77015,-1.00294 -8.40189,-0.78363c-2.95381,0.24615 -8.46651,2.18933 -8.46651,2.18933z" fill="#000000" stroke="none" stroke-width="1.5" stroke-linecap="butt"/><path d="M222.79154,95.46105c-2.43017,2.48241 -8.04347,8.99103 -8.04347,8.99103c0,0 -3.73748,8.63237 -4.60502,12.6873c-0.67856,3.17165 -0.17399,9.65004 -0.17399,9.65004c0,0 -5.40814,-4.05035 -6.12747,-3.67632c-0.85853,0.44639 -0.4686,-19.7642 -0.4686,-19.7642c0,0 -3.16569,1.91083 -3.79406,1.51896c-0.79889,-0.49822 4.34046,-28.12268 4.34046,-28.12268c0,0 14.41414,-4.27623 13.89788,-5.05486c-0.27207,-0.41033 -4.62837,-0.01179 -4.62837,-0.01179l-0.54588,-2.83749c0,0 16.84147,-2.65183 17.48106,-4.47024c0.03426,-0.09741 -3.64461,-0.77239 -3.64461,-0.77239l-0.62788,-2.46374l38.57117,3.07745l-0.70167,3.34039l-8.46998,-0.56946l1.30262,2.37468c0,0 15.59193,3.72809 20.45936,5.30498c2.80053,0.90728 6.14921,3.31537 6.14921,3.31537c0,0 0.05179,31.5152 -0.57816,31.9919c-0.63367,0.47953 -2.18356,17.2336 -4.09855,15.22945c-1.79514,-1.87873 -5.94156,11.55339 -7.92438,6.08865c-2.16695,-5.97216 1.24526,-20.23539 0.57437,-29.90936c-0.44459,-6.41089 -5.31023,-8.71888 -5.31023,-8.71888c0,0 -10.26551,-0.84771 -11.09444,0.13099c-0.87159,1.02908 14.42662,3.03324 14.42662,3.03324c0,0 -3.54045,2.18849 -5.10487,2.87554c-2.05746,0.90358 -5.45848,0.88454 -5.45848,0.88454c0,0 -8.49339,-0.51904 -11.42872,-1.99424c-4.50049,-2.26183 -4.16327,-3.94775 -4.43564,-3.9097c-5.02495,0.70199 5.79471,7.25765 5.79471,7.25765c0,0 -4.77428,-1.19419 -7.064,-2.23776c-3.953,-1.8016 -13.58907,-7.28975 -13.58907,-7.28975c0,0 -2.73139,1.65166 -5.07994,4.0507z" fill="#000000" stroke="none" stroke-width="1.5" stroke-linecap="butt"/><path d="M210.72185,124.17939c0,3.96799 2.28005,7.80943 0.46857,7.80943c-1.81148,0 -4.52948,-4.15382 -4.52948,-8.12182c0,-3.96799 -0.09339,-9.99608 1.71808,-9.99608c1.81148,0 2.34283,6.34048 2.34283,10.30847z" fill="#ffffff" stroke="#000000" stroke-width="1.5" stroke-linecap="butt"/><path d="M272.09506,132.03272c0,0 1.92525,4.47032 0.63619,6.40392c-1.28906,1.93361 -5.59233,1.92351 -5.59233,1.92351" fill="none" stroke="#000000" stroke-width="3" stroke-linecap="round"/><path d="M272.82734,115.21019c1.81147,0 1.71808,6.02809 1.71808,9.99608c0,3.968 -2.718,8.12182 -4.52948,8.12182c-1.81148,0 0.46857,-3.84144 0.46857,-7.80943c0,-3.96799 0.53135,-10.30847 2.34283,-10.30847z" data-paper-data="{&quot;index&quot;:null}" fill="#ffffff" stroke="#000000" stroke-width="1.5" stroke-linecap="butt"/><path d="M263.06998,124.86946c0,3.05977 -2.77226,5.54021 -6.192,5.54021c-3.41975,0 -6.192,-2.48045 -6.192,-5.54021c0,-3.05976 2.77226,-5.5402 6.192,-5.5402c3.41975,0 6.192,2.48044 6.192,5.54021z" fill="#000000" stroke="none" stroke-width="1.5" stroke-linecap="butt"/><path d="M238.02982,125.04153c0,0.70812 -22.22344,0.74298 -22.22344,0c0,-5.84108 4.97488,-10.57622 11.11172,-10.57622c6.13684,0 11.11172,4.73513 11.11172,10.57622z" fill="#ffffff" stroke="#000000" stroke-width="1.5" stroke-linecap="butt"/><path d="M268.01804,124.40495c0,0.70812 -22.22344,0.74298 -22.22344,0c0,-5.84108 4.97488,-10.57622 11.11172,-10.57622c6.13684,0 11.11172,4.73513 11.11172,10.57622z" fill="#ffffff" stroke="#000000" stroke-width="1.5" stroke-linecap="butt"/><path d="M210.60834,128.83821c0,0 -1.76754,-2.97419 -1.76754,-5.09936c0,-2.12517 1.76754,-5.15064 1.76754,-5.15064" fill="none" stroke="#000000" stroke-width="0.5" stroke-linecap="round"/><path d="M270.50748,120.08821c0,0 1.76754,3.02547 1.76754,5.15064c0,2.12517 -1.76754,5.09936 -1.76754,5.09936" data-paper-data="{&quot;index&quot;:null}" fill="none" stroke="#000000" stroke-width="0.5" stroke-linecap="round"/><path d="M240.77748,173.99507v-11.33333" fill="none" stroke="#000000" stroke-width="1" stroke-linecap="round"/><path d="M243.24414,174.3284l-0.33333,-11" fill="none" stroke="#000000" stroke-width="1" stroke-linecap="round"/></g><g><path d="M369.23207,133.52038c-1.23988,4.00289 -3.15055,10.48607 -3.01543,12.01173c0.3211,3.62599 0.33787,9.24786 -1.7688,13.86136c-5.52288,12.09477 -14.51563,19.3814 -19.53284,22.28053c-3.53847,2.04466 -8.02152,1.03804 -8.98649,0.08279c-3.00554,-2.97529 -8.11749,-8.80945 -11.6382,-13.02769c-5.54372,-6.64205 -9.65821,-13.79623 -9.96729,-15.46534c-0.85669,-4.62614 -2.68116,-32.234 -3.13741,-39.27668c-0.01344,-0.20732 -2.50862,-23.4812 17.2837,-26.33223c71.715,-10.33036 41.34845,43.97468 40.76276,45.86556z" fill="#ffffff" stroke="#000000" stroke-width="3.5" stroke-linecap="round"/><g fill="#ffffff" stroke="#000000" stroke-linecap="butt"><path d="M364.34865,162.55679c-0.02625,0.22753 -11.06061,0.24282 -14.49981,0.67647c-2.88209,0.3634 -7.08983,0.75501 -7.08983,0.75501c0,0 -7.53008,-1.24296 -14.06837,-2.61628c-5.24022,-1.10066 -11.023,-1.77729 -11.0343,-1.87736c-0.01525,-0.13495 12.99942,-3.08127 12.99942,-3.08127c0,0 5.25308,-0.29709 8.06458,0.61951c3.01248,0.98213 3.00552,2.61665 3.26801,2.6418c0,0 1.2554,-1.8717 2.51093,-2.25185c1.25556,-0.38014 5.387,-0.44546 5.83864,-0.27614c0,0 14.03139,5.23083 14.01072,5.41011z" stroke-width="1.4"/><path d="M330.57153,162.01882c5.39648,1.09857 12.63233,3.00377 12.63233,3.00377c0,0 6.13701,-1.6647 8.95339,-1.96274c2.18347,-0.23107 11.88869,-0.75597 11.93561,-0.35712c0.04588,0.38997 -9.57285,13.80285 -22.41646,13.31795c-14.59538,-0.46627 -24.23592,-16.19449 -24.19581,-16.37545c0.04011,-0.18096 7.69447,1.27502 13.09096,2.3736z" stroke-width="3"/></g><path d="M346.11765,153.18022c0,3.035 -4.42018,5.49535 -4.42018,5.49535c0,0 -4.42018,-2.93821 -4.42018,-5.97321c0,-3.035 1.97898,-5.0175 4.42018,-5.0175c2.4412,0 4.42018,2.46035 4.42018,5.49535z" fill="#ffffff" stroke="#000000" stroke-width="1.5" stroke-linecap="butt"/><path d="M346.08768,122.1591l-2.10779,41.11487l-3.59979,0.4165l-3.0374,-51.37623" fill="#ffffff" stroke="#000000" stroke-width="1.5" stroke-linecap="round"/><path d="M338.02982,126.57703c0,5.84108 -4.97488,10.57622 -11.11172,10.57622c-6.13684,0 -11.11172,-4.73513 -11.11172,-10.57622c0,-5.84108 4.97488,-10.57622 11.11172,-10.57622c6.13684,0 11.11172,4.73513 11.11172,10.57622z" fill="#ffffff" stroke="#000000" stroke-width="2.5" stroke-linecap="butt"/><path d="M368.01805,125.73826c0,5.84108 -4.97488,10.57622 -11.11172,10.57622c-6.13684,0 -11.11172,-4.73513 -11.11172,-10.57622c0,-5.84108 4.97488,-10.57622 11.11172,-10.57622c6.13684,0 11.11172,4.73513 11.11172,10.57622z" fill="#ffffff" stroke="#000000" stroke-width="2.5" stroke-linecap="butt"/><path d="M333.21421,126.88818c0,3.05977 -2.77226,5.54021 -6.192,5.54021c-3.41975,0 -6.192,-2.48044 -6.192,-5.54021c0,-3.05977 2.77226,-5.54021 6.192,-5.54021c3.41975,0 6.192,2.48044 6.192,5.54021z" fill="#000000" stroke="none" stroke-width="1.5" stroke-linecap="butt"/><path d="M310.60166,116.22432l10.53738,-2.36688l0.35961,-1.89729l16.69698,-1.18713l-0.25,5.41995c0,0 -6.2989,-1.61596 -9.93103,-1.443c-4.41429,0.2102 -16.88303,3.04299 -16.88303,3.04299z" fill="#000000" stroke="none" stroke-width="1.5" stroke-linecap="butt"/><path d="M345.67696,113.18346l-0.46857,-4.45138c0,0 1.66592,-0.88295 3.06057,-1.03371c0.94109,-0.10174 2.92202,-0.69052 4.87896,-0.80773c4.30658,-0.25796 9.39744,-0.03282 9.39744,-0.03282l0.5447,2.57352l10.212,2.45048l-0.2282,1.39595l-10.5285,-1.5c0,0 -5.77015,-1.00294 -8.40189,-0.78363c-2.95381,0.24615 -8.46651,2.18933 -8.46651,2.18933z" fill="#000000" stroke="none" stroke-width="1.5" stroke-linecap="butt"/><path d="M322.79154,96.46105c-2.43017,2.48241 -8.04347,8.99103 -8.04347,8.99103c0,0 -3.73748,8.63237 -4.60502,12.6873c-0.67856,3.17165 -0.17399,9.65004 -0.17399,9.65004c0,0 -5.40814,-4.05035 -6.12747,-3.67632c-0.85853,0.44639 -0.4686,-19.7642 -0.4686,-19.7642c0,0 -3.16569,1.91083 -3.79406,1.51896c-0.79889,-0.49822 4.34046,-28.12268 4.34046,-28.12268c0,0 14.41414,-4.27623 13.89788,-5.05486c-0.27207,-0.41033 -4.62837,-0.01179 -4.62837,-0.01179l-0.54588,-2.83749c0,0 16.84147,-2.65183 17.48106,-4.47024c0.03426,-0.09741 -3.64461,-0.77239 -3.64461,-0.77239l-0.62788,-2.46374l38.57117,3.07745l-0.70167,3.34039l-8.46998,-0.56946l1.30262,2.37468c0,0 15.59193,3.72809 20.45936,5.30498c2.80053,0.90728 6.14921,3.31537 6.14921,3.31537c0,0 0.05179,31.5152 -0.57816,31.9919c-0.63367,0.47953 -2.18356,17.2336 -4.09855,15.22945c-1.79514,-1.87873 -5.94156,11.55339 -7.92438,6.08865c-2.16695,-5.97216 1.24526,-20.23539 0.57437,-29.90936c-0.44459,-6.41089 -5.31023,-8.71888 -5.31023,-8.71888c0,0 -10.26551,-0.84771 -11.09444,0.13099c-0.87159,1.02908 14.42662,3.03324 14.42662,3.03324c0,0 -3.54045,2.18849 -5.10487,2.87554c-2.05746,0.90358 -5.45848,0.88454 -5.45848,0.88454c0,0 -8.49339,-0.51904 -11.42872,-1.99424c-4.50049,-2.26183 -4.16327,-3.94775 -4.43564,-3.9097c-5.02495,0.70199 5.79471,7.25765 5.79471,7.25765c0,0 -4.77428,-1.19419 -7.064,-2.23776c-3.953,-1.8016 -13.58907,-7.28975 -13.58907,-7.28975c0,0 -2.73139,1.65166 -5.07994,4.0507z" fill="#000000" stroke="none" stroke-width="1.5" stroke-linecap="butt"/><path d="M310.72184,125.17939c0,3.96799 2.28005,7.80943 0.46857,7.80943c-1.81148,0 -4.52948,-4.15382 -4.52948,-8.12182c0,-3.96799 -0.09339,-9.99608 1.71808,-9.99608c1.81148,0 2.34283,6.34048 2.34283,10.30847z" fill="#ffffff" stroke="#000000" stroke-width="1.5" stroke-linecap="butt"/><path d="M372.09507,133.03272c0,0 1.92525,4.47032 0.63619,6.40392c-1.28906,1.93361 -5.59233,1.92351 -5.59233,1.92351" fill="none" stroke="#000000" stroke-width="3" stroke-linecap="round"/><path d="M372.82735,116.21019c1.81147,0 1.71808,6.02809 1.71808,9.99608c0,3.968 -2.718,8.12182 -4.52948,8.12182c-1.81148,0 0.46857,-3.84144 0.46857,-7.80943c0,-3.96799 0.53135,-10.30847 2.34283,-10.30847z" data-paper-data="{&quot;index&quot;:null}" fill="#ffffff" stroke="#000000" stroke-width="1.5" stroke-linecap="butt"/><path d="M363.06999,125.86946c0,3.05977 -2.77226,5.54021 -6.192,5.54021c-3.41975,0 -6.192,-2.48045 -6.192,-5.54021c0,-3.05976 2.77226,-5.5402 6.192,-5.5402c3.41975,0 6.192,2.48044 6.192,5.54021z" fill="#000000" stroke="none" stroke-width="1.5" stroke-linecap="butt"/><path d="M338.02982,126.04153c0,0.70812 -22.22344,0.74298 -22.22344,0c0,-5.84108 4.97488,-10.57622 11.11172,-10.57622c6.13684,0 11.11172,4.73513 11.11172,10.57622z" fill="#ffffff" stroke="#000000" stroke-width="1.5" stroke-linecap="butt"/><path d="M368.01805,125.40495c0,0.70812 -22.22344,0.74298 -22.22344,0c0,-5.84108 4.97488,-10.57622 11.11172,-10.57622c6.13684,0 11.11172,4.73513 11.11172,10.57622z" fill="#ffffff" stroke="#000000" stroke-width="1.5" stroke-linecap="butt"/><path d="M310.60834,129.83821c0,0 -1.76754,-2.97419 -1.76754,-5.09936c0,-2.12517 1.76754,-5.15064 1.76754,-5.15064" fill="none" stroke="#000000" stroke-width="0.5" stroke-linecap="round"/><path d="M370.50748,121.08821c0,0 1.76754,3.02547 1.76754,5.15064c0,2.12517 -1.76754,5.09936 -1.76754,5.09936" data-paper-data="{&quot;index&quot;:null}" fill="none" stroke="#000000" stroke-width="0.5" stroke-linecap="round"/><path d="M340.77748,174.99507v-11.33333" fill="none" stroke="#000000" stroke-width="1" stroke-linecap="round"/><path d="M343.24414,175.3284l-0.33333,-11" fill="none" stroke="#000000" stroke-width="1" stroke-linecap="round"/></g><g fill="#ffffff" stroke="#000000"><path d="M93.61523,298.68887v-83.20475h9.66485v83.20475z" stroke-width="3" stroke-linecap="butt"/><path d="M170.93379,299.36533v-83.20475h9.66485v83.20475z" stroke-width="2.5" stroke-linecap="butt"/><path d="M178.01276,180.15637c2.82652,8.17216 3.2741,36.01187 3.2741,36.01187c0,0 -6.60172,0.00426 -9.88739,0.00639c-1.19772,0.00077 2.97753,-17.95316 -4.12383,-17.94857c-7.10136,0.00459 -5.34802,17.95488 -5.34802,17.95488l0.67447,81.83149l-50.10636,0.27618l0.66242,-81.3649c0,0 1.13388,-18.47445 -4.22465,-18.61307c-6.63577,-0.17165 -3.32535,18.43301 -4.41678,18.40477c-3.44393,-0.08909 -11.28024,-0.29181 -11.28024,-0.29181c0,0 -2.01978,-19.70771 1.87736,-32.91985c3.89716,-13.21214 21.73657,-27.2069 42.5347,-28.04671c20.79814,-0.83981 37.53769,16.52717 40.36419,24.69933z" stroke-width="4" stroke-linecap="round"/></g><g fill="#ffffff" stroke="#000000" stroke-linecap="butt"><path d="M362.84865,211.05679c-0.02625,0.22753 -11.06061,0.24282 -14.49981,0.67647c-2.88209,0.3634 -7.08983,0.75501 -7.08983,0.75501c0,0 -7.53008,-1.24296 -14.06837,-2.61628c-5.24022,-1.10066 -11.023,-1.77729 -11.0343,-1.87736c-0.01525,-0.13495 12.99942,-3.08127 12.99942,-3.08127c0,0 5.25308,-0.29709 8.06458,0.61951c3.01248,0.98213 3.00552,2.61665 3.26801,2.6418c0,0 1.2554,-1.8717 2.51093,-2.25185c1.25556,-0.38014 5.387,-0.44546 5.83864,-0.27614c0,0 14.03139,5.23083 14.01072,5.41011z" stroke-width="1.4"/><path d="M329.07153,210.51882c5.39648,1.09857 12.63233,3.00377 12.63233,3.00377c0,0 6.13701,-1.6647 8.95339,-1.96274c2.18347,-0.23107 11.88869,-0.75597 11.93561,-0.35712c0.04588,0.38997 -9.57285,13.80285 -22.41646,13.31795c-14.59538,-0.46627 -24.23592,-16.19449 -24.19581,-16.37545c0.04011,-0.18096 7.69447,1.27502 13.09096,2.3736z" stroke-width="3"/></g><path d="M339.27748,212.16174v11.33333" fill="none" stroke="#000000" stroke-width="1" stroke-linecap="round"/><path d="M341.74414,223.8284l-0.33333,-11" fill="none" stroke="#000000" stroke-width="1" stroke-linecap="round"/></g></g></svg>