<svg version="1.1" xmlns="http://www.w3.org/2000/svg" xmlns:xlink="http://www.w3.org/1999/xlink" width="109.84219" height="266.33635" viewBox="0,0,109.84219,266.33635"><g transform="translate(-185.07891,-46.83183)"><g data-paper-data="{&quot;isPaintingLayer&quot;:true}" fill-rule="nonzero" stroke-linejoin="miter" stroke-miterlimit="10" stroke-dasharray="" stroke-dashoffset="0" style="mix-blend-mode: normal"><path d="" data-paper-data="{&quot;index&quot;:null}" fill="#382615" stroke="none" stroke-width="0" stroke-linecap="butt"/><path d="" data-paper-data="{&quot;index&quot;:null}" fill="#382615" stroke="none" stroke-width="0" stroke-linecap="butt"/><g><g stroke-linecap="butt"><g><path d="M199.72638,309.94131c0,0 -0.63536,-94.38387 -0.79335,-118.01201c-0.05451,-8.15261 8.18688,-36.76129 40.20201,-36.9211c31.60235,-0.15775 39.85672,29.48704 39.84884,36.89673c-0.07659,46.24274 0.65429,117.98648 0.65429,117.98648l-10.49667,0.09614l-0.15882,-114.84311c0,0 0.07549,-3.0993 -2.81625,-3.15415c-3.43441,-0.06514 -2.94538,3.11562 -2.94538,3.11562l0.20548,114.86995l-48.21366,0.07222l-0.30539,-115.23309c0,0 0.27949,-2.919 -2.8856,-2.93443c-3.11083,-0.01515 -2.81569,2.90899 -2.81569,2.90899c0,0 0.08841,28.81052 0.13995,45.60549c0.0636,20.72727 0.21316,69.46131 0.21316,69.46131z" fill="#000815" stroke="#000815" stroke-width="2"/><path d="M196.9799,251.76242l1.61063,-7.499c0,0 3.46563,2.27133 5.95975,3.90595c0.22964,0.15051 0.45105,0.29561 0.66076,0.43305c3.21163,2.10486 9.42711,7.234 9.42711,7.234v10.72026c0,0 -5.39999,-1.35622 -11.27671,-5.90436c-5.61085,-4.34238 -6.38154,-8.88991 -6.38154,-8.88991z" fill="#795331" stroke="none" stroke-width="0"/><path d="M267.87,295.64414v-35.08449l12.55197,-10.72026v35.08448z" data-paper-data="{&quot;index&quot;:null}" fill="#ddb277" stroke="none" stroke-width="0"/><path d="M267.95216,286.88289v-10.72026l12.46782,-11.57301v10.72026z" data-paper-data="{&quot;index&quot;:null}" fill="#795331" stroke="none" stroke-width="0"/><path d="M198.74379,308.90139l-0.23077,-24.15943l11.96671,-11.36852l0.07692,24.15943z" fill="#ddb277" stroke="none" stroke-width="0"/><path d="M198.57212,301.37736v-9.34165l11.96671,-11.36852v9.34165z" fill="#795331" stroke="none" stroke-width="0"/><path d="M197.148,248.06503l1.61063,-3.31137c0,0 3.1435,2.27133 5.63762,3.90595c0.22965,0.15051 0.45105,0.29561 0.66076,0.43305c3.21163,2.10486 9.42711,7.23401 9.42711,7.23401v3.95562c0,0 -4.5974,-1.42792 -10.0889,-4.56906c-5.83838,-3.33955 -7.24723,-7.6482 -7.24723,-7.6482z" fill="#382615" stroke="none" stroke-width="0"/><path d="M196.01154,241.05913l2.25488,-11.54594l11.69483,10.72026c0,0 4.83189,1.61772 4.83189,2.43631c0,1.78161 0,13.96489 0,13.96489c0,0 -3.91041,-0.5413 -10.61562,-4.56868c-6.91975,-4.15624 -8.16597,-11.00684 -8.16597,-11.00684z" fill="#ddb277" stroke="none" stroke-width="0"/><path d="M275.5799,258.56556c-5.87672,4.54815 -11.27671,5.90436 -11.27671,5.90436v-10.72026c0,0 6.21548,-5.12914 9.42711,-7.23401c0.20971,-0.13744 0.43111,-0.28255 0.66076,-0.43305c2.49412,-1.63462 5.95975,-3.90595 5.95975,-3.90595l1.61063,7.49901c0,0 -0.77069,4.54752 -6.38154,8.88991z" data-paper-data="{&quot;index&quot;:null}" fill="#795331" stroke="none" stroke-width="0"/><path d="M274.54607,253.62646c-5.49149,3.14114 -10.0889,4.56905 -10.0889,4.56905v-3.95562c0,0 6.21548,-5.12914 9.42711,-7.23401c0.20971,-0.13744 0.43111,-0.28255 0.66076,-0.43305c2.49412,-1.63462 5.63762,-3.90595 5.63762,-3.90595l1.61063,3.31137c0,0 -1.40884,4.30865 -7.24722,7.6482z" data-paper-data="{&quot;index&quot;:null}" fill="#382615" stroke="none" stroke-width="0"/><path d="M275.08592,249.97919c-6.70521,4.02738 -10.61562,4.56868 -10.61562,4.56868c0,0 0,-12.18328 0,-13.96489c0,-0.81859 4.83189,-2.4363 4.83189,-2.4363l11.69482,-10.72026l2.25488,11.54594c0,0 -1.24622,6.8506 -8.16597,11.00684z" data-paper-data="{&quot;index&quot;:null}" fill="#ddb277" stroke="none" stroke-width="0"/></g><path d="M193.80774,215.96187c0.93329,-4.52538 3.88058,-18.81629 3.88058,-18.81629h82.20957c0,0 2.59201,15.28971 3.44108,19.34853c0.49892,2.38496 0.1424,7.48833 -1.7729,10.28789c-6.49448,9.49287 -22.98728,27.47839 -42.6113,27.86275c-20.62422,0.40395 -37.3083,-19.73469 -43.63995,-28.59671c-1.78108,-2.49287 -2.03378,-7.5323 -1.50708,-10.08617z" fill="#000815" stroke="#000815" stroke-width="2"/><path d="M198.70663,182.3897c1.56252,-1.83214 4.72808,-5.54391 4.72808,-5.54391l73.10737,-2.18021c0,0 3.4982,5.81546 4.89039,8.12985c1.03754,1.72482 2.32975,5.89534 1.38977,8.33074c-2.0674,5.35643 -6.81262,15.81837 -16.01409,27.9329c-7.79474,10.26244 -15.74452,17.41109 -21.16626,21.8176c-2.53435,2.0598 -5.44794,2.69611 -8.09295,1.96267c0.35623,-5.44051 0.71469,-10.88086 1.07736,-16.32093c0,0 0.33259,-4.98892 -4.65633,-5.32152c-4.98892,-0.33259 -5.79672,-2.47167 -5.79672,-2.47167l-0.20167,20.19945c0,0 -10.10721,-11.70529 -16.34781,-19.43902c-8.45952,-10.48356 -13.70701,-22.03671 -16.04913,-27.88648c-0.96503,-2.41028 1.59601,-7.40845 3.13199,-9.20946z" fill="#ddb277" stroke="none" stroke-width="0"/><path d="M199.0584,179.40836c0,0 8.48776,-28.33032 40.43733,-28.31326c33.95446,0.01813 41.12176,27.89068 41.12176,27.89068c0,0 -6.50801,14.54449 -14.20989,25.84503c-7.32173,10.74277 -16.43049,18.74054 -21.82366,22.96703c-1.66768,1.30692 -3.62433,2.00062 -5.58536,1.93796c-1.35648,-0.04334 -2.71506,-0.44858 -3.98153,-1.26311c-4.71231,-3.03071 -12.32617,-8.99898 -20.76298,-19.82815c-10.26996,-13.18212 -15.19567,-29.23618 -15.19567,-29.23618z" fill="#000815" stroke="#000815" stroke-width="0.5"/><path d="M282.70574,191.49696c-2.0674,5.35643 -6.81262,15.81837 -16.01409,27.9329c-7.79474,10.26245 -15.74452,17.41109 -21.16626,21.8176c-2.53435,2.0598 -5.44794,2.69611 -8.09295,1.96267c0.04834,-0.73819 5.94413,-15.60763 9.89083,-17.80767c0.50164,-0.16655 0.28492,5.74792 3.93898,4.98844c2.28384,-0.47468 7.2675,-5.48654 11.22137,-10.26839c11.34009,-13.71484 19.22884,-31.93024 19.74347,-34.9267c0.69031,1.98038 1.14448,4.57607 0.47866,6.30115z" fill="#795331" stroke="none" stroke-width="0"/><path d="M238.82537,266.67086c-0.81895,0 -1.48284,-0.66389 -1.48284,-1.48284c0,-0.81895 0.66389,-1.48284 1.48284,-1.48284c0.81895,0 1.48284,0.66389 1.48284,1.48284c0,0.81895 -0.66389,1.48284 -1.48284,1.48284z" data-paper-data="{&quot;index&quot;:null}" fill="#000000" stroke="none" stroke-width="1.5"/><path d="M248.45231,245.20741c0,-1.70589 1.38291,-3.0888 3.0888,-3.0888c1.70589,0 3.0888,1.3829 3.0888,3.0888c0,1.70589 -1.38291,3.0888 -3.0888,3.0888c-1.70589,0 -3.0888,-1.38291 -3.0888,-3.0888z" fill="#ddb277" stroke="none" stroke-width="0"/><path d="M247.73347,259.4634c0,-2.23079 1.80841,-4.0392 4.0392,-4.0392c2.23079,0 4.03919,1.80841 4.03919,4.0392c0,2.23079 -1.8084,4.03919 -4.03919,4.03919c-2.23079,0 -4.0392,-1.8084 -4.0392,-4.03919z" fill="#795331" stroke="none" stroke-width="0"/><path d="M249.63427,273.98116c0,-1.31223 1.06377,-2.376 2.376,-2.376c1.31223,0 2.376,1.06377 2.376,2.376c0,1.31223 -1.06377,2.37599 -2.376,2.37599c-1.31223,0 -2.376,-1.06376 -2.376,-2.37599z" fill="#ddb277" stroke="none" stroke-width="0"/><path d="M227.85509,239.5391c0,0 -10.10721,-12.43622 -16.34781,-20.16995c-8.45952,-10.48356 -13.70701,-22.03671 -16.04913,-27.88648c-0.57834,-1.44447 0.10973,-3.81839 1.08462,-5.87659c0.32611,1.02757 4.82306,13.55238 12.22897,24.78844c4.02466,6.10612 12.20609,18.50184 14.75268,15.27926c1.79812,-2.27542 -0.31309,-6.78719 -0.24574,-6.77199l4.73048,4.61853z" fill="#795331" stroke="none" stroke-width="0"/></g><path d="M194.98716,108.47855c0,0 6.16329,-5.92187 6.29161,-6.78761c0.33654,-2.27063 -0.16776,-40.17317 35.96775,-41.57382c44.63633,-0.91362 39.01489,35.34872 41.53088,42.1903c0.6962,1.89312 -2.39279,2.7055 -1.17146,3.79511c5.19309,4.63299 7.97236,10.06167 7.97236,10.06167l-8.52538,-2.73644c0,0 2.22362,5.89957 3.01445,11.87741c0.95078,7.18691 1.16778,15.34228 1.16778,15.34228c0,0 -4.6489,-7.42654 -4.80406,-6.52471c-0.2738,9.80311 -3.75444,19.80244 -3.75444,19.80244l-2.76585,-4.92436c0,0 -1.02266,2.19794 -2.16005,3.33274c-1.1374,1.13479 -3.43873,4.84548 -3.43873,4.84548l-0.09205,-5.63696c0,0 -7.0601,11.01795 -24.35066,10.87154c-16.30625,-0.25547 -26.07151,-10.6752 -26.07151,-10.6752l-2.04895,4.90972c0,0 -3.35212,-3.94667 -4.04316,-7.90442c-0.59597,-3.41329 -0.20554,-5.99076 -0.20554,-5.99076c0,0 -1.48325,0.57274 -2.60205,1.7066c-1.46525,1.48497 -3.61341,2.76143 -3.61341,2.76143c0,0 1.46698,-5.57426 1.8642,-8.42103c0.3792,-2.71766 1.1118,-6.35748 1.1118,-6.35748c0,0 -3.00248,1.01951 -4.37888,2.17858c-1.70159,1.43292 -5.06355,5.77296 -5.06355,5.77296c0,0 0.80575,-4.72331 1.59102,-6.75794c0.8748,-2.2666 3.41826,-6.22105 3.41826,-6.22105c0,0 -2.10758,1.0847 -4.23277,1.61795c-2.21739,0.5564 -4.03008,0.53093 -4.03008,0.53093c0,0 4.97492,-5.03728 7.03074,-10.87429c1.94102,-5.51108 2.09972,-10.95731 2.09972,-10.95731c0,0 -1.36165,0.66163 -3.33013,0.79513c-1.24776,0.08463 -2.37785,-0.0489 -2.37785,-0.0489z" fill="#000000" stroke="none" stroke-width="1.5" stroke-linecap="butt"/><path d="M211.77305,119.80017c-0.57709,-7.29323 0.335,-17.15448 0.335,-17.15448c0,0 3.41059,-0.04124 13.91429,-3.14424c8.0696,-2.38394 20.54731,-9.48722 20.54731,-9.48722c0,0 -2.16005,3.00503 -3.40781,4.46015c-1.32651,1.54696 -3.99292,4.56297 -3.99292,4.56297c0,0 7.838,-1.66761 14.67476,-4.72931c8.56837,-3.53575 10.59252,-6.05309 12.95042,-4.5927c2.7829,1.72362 1.03006,23.1827 0.71846,28.74062c-0.42163,5.66922 -2.53327,9.49969 -3.15031,12.52053c-0.61704,3.02084 -0.4096,6.13662 -2.20622,16.0397c-1.12121,6.18021 -4.16183,8.92466 -10.01942,14.66081c-5.85759,5.73616 -9.05378,9.25275 -13.01359,9.32173c-3.81077,0.06639 -8.93565,-5.1002 -13.93542,-10.38244c-5.32393,-5.62474 -8.87489,-8.47713 -9.71551,-15.13975c-0.75707,-6.00039 -0.77653,-9.90853 -1.12266,-15.24835c-0.25298,-3.90273 -2.26119,-6.44504 -2.57636,-10.42801z" fill="#ffffff" stroke="#000000" stroke-width="1.5" stroke-linecap="butt"/><path d="M213.4727,129.92339c0,0 -4.93211,-3.51705 -6.16417,-8.97502c-1.29636,-5.74284 -1.46118,-9.7328 0.48013,-9.99193c1.94131,-0.25915 2.70321,2.37692 3.73262,8.35569c1.0294,5.97877 1.95143,10.61127 1.95143,10.61127z" data-paper-data="{&quot;index&quot;:null}" fill="#ffffff" stroke="#000000" stroke-width="1" stroke-linecap="butt"/><path d="M213.2701,125.97583c0,0 -3.56385,-2.92338 -4.31816,-8.45061c-0.42079,-3.08327 2.15675,-2.28016 2.15675,-2.28016" fill="none" stroke="#000000" stroke-width="0.25" stroke-linecap="round"/><path d="M267.70583,119.31212c1.0294,-5.97877 1.7913,-8.61483 3.73262,-8.35569c1.94131,0.25914 1.77649,4.24909 0.48013,9.99193c-1.23206,5.45797 -6.16417,8.97502 -6.16417,8.97502c0,0 0.92203,-4.6325 1.95143,-10.61127z" data-paper-data="{&quot;index&quot;:null}" fill="#ffffff" stroke="#000000" stroke-width="1" stroke-linecap="butt"/><path d="M268.11843,115.24506c0,0 2.57754,-0.80312 2.15675,2.28016c-0.75431,5.52723 -4.31816,8.45061 -4.31816,8.45061" data-paper-data="{&quot;index&quot;:null}" fill="none" stroke="#000000" stroke-width="0.25" stroke-linecap="round"/><g stroke="none" stroke-width="0" stroke-linecap="butt"><g><path d="M202.72345,73.73921c3.76525,-13.48374 9.15933,-26.27448 14.9849,-26.48621c13.45982,-0.48919 14.04225,7.06018 22.69058,7.06842c0.01802,0.00001 0.06852,17.48317 0.10596,31.4382c-0.82123,0.03949 -1.63312,0.11314 -2.43415,0.21952c-12.87363,0.09353 -28.23495,2.05255 -39.83963,7.28561c1.0374,-5.44836 2.55112,-12.57381 4.49235,-19.52553z" fill="#795331"/><path d="M281.58796,93.18648c-11.60469,-5.23305 -26.966,-7.19208 -39.83962,-7.28561c-0.80104,-0.10637 -1.61292,-0.18002 -2.43415,-0.21951c0.03744,-13.95504 0.08793,-31.43819 0.10595,-31.4382c8.64833,-0.00825 9.23076,-7.55761 22.69058,-7.06842c5.82558,0.21173 11.21964,13.00248 14.98489,26.48622c1.94122,6.95172 3.45494,14.07717 4.49235,19.52553z" data-paper-data="{&quot;index&quot;:null}" fill="#795331"/><path d="M198.27422,93.28948l2.54793,-11.94223c0,0 10.68698,-7.37109 38.89627,-7.40892c31.55087,-0.04232 39.27118,7.44776 39.27118,7.44776l2.7354,11.9034c0,0 -15.64807,-7.27976 -41.4442,-7.21918c-26.25389,0.06166 -42.00658,7.21918 -42.00658,7.21918z" fill="#000815"/><path d="M216.50479,57.13798c6.09653,-4.1216 11.90044,0.14395 16.93503,2.39377c3.0277,1.353 7.08195,1.27743 7.08195,1.27743v8.66822c-2.02119,-0.03558 -7.38376,0.03477 -12.68475,0.45882c-5.10092,0.40805 -15.62096,2.76916 -17.57582,3.31987c-0.59236,-0.51357 1.95539,-8.66804 2.59866,-10.79349c0.5711,-1.88699 0.98233,-3.52456 3.64493,-5.32462z" fill="#cd9459"/><path d="M269.33598,72.56842c-1.95486,-0.55071 -11.18638,-2.26757 -16.2873,-2.67562c-5.30099,-0.42405 -10.66356,-0.4944 -12.68475,-0.45882v-8.66823c0,0 4.05424,0.07557 7.08195,-1.27743c5.03459,-2.24983 10.8385,-6.51537 16.93504,-2.39377c1.39609,0.94383 2.95003,3.58318 3.4703,6.36718c0.48147,2.57643 2.07713,8.59312 1.48477,9.10669z" data-paper-data="{&quot;index&quot;:null}" fill="#cd9459"/></g><path d="M294.64107,100.46268c0,3.77921 -7.70097,8.16128 -16.58587,6.50375c-2.20991,-0.41227 -1.65558,-5.41174 -5.36317,-6.74156c-6.16365,-2.21074 -24.74647,-3.60486 -32.54983,-3.60486c-8.95497,0 -25.22128,0.63704 -31.75772,2.7537c-3.04396,0.98571 -4.23588,5.69877 -6.23446,6.06609c-8.49486,1.5613 -17.0711,-1.29184 -17.0711,-4.97713c0,-8.04046 24.52633,-14.55855 54.78108,-14.55855c30.25475,0 54.78107,6.51808 54.78107,14.55855z" fill="#ddb277"/></g><path d="M294.92109,102.15876c0,0.27372 -5.8818,7.23086 -17.34415,4.99466c-1.12585,-1.90901 0.07099,-10.50159 -36.72678,-10.32236c-14.65852,0.47299 -22.21472,-6.2718 -0.01113,-6.42379c45.51011,-0.48813 54.08207,10.84426 54.08207,11.75148z" fill="#795331" stroke="none" stroke-width="0" stroke-linecap="butt"/><path d="M185.81463,102.00474c0,-0.90722 8.57196,-12.23961 54.08207,-11.75148c22.20359,0.15199 14.64739,6.89678 -0.01113,6.42379c-36.79777,-0.17923 -35.60093,8.41335 -36.72678,10.32236c-11.46236,2.2362 -17.34415,-4.72094 -17.34415,-4.99466z" data-paper-data="{&quot;index&quot;:null}" fill="#795331" stroke="none" stroke-width="0" stroke-linecap="butt"/><g fill="#3a0f19" stroke="none" stroke-width="0" stroke-linecap="butt"><path d="M232.11709,57.66912l3.28081,-4.56579c1.33164,0.6564 2.83052,1.02515 4.41552,1.02515c0.60032,0 1.18828,-0.0529 1.75947,-0.15429c1.3523,-0.24003 2.61066,-0.75186 3.71658,-1.47699c2.90272,-1.32932 6.01473,-3.64755 7.56462,-4.19191c0.94961,-0.33353 2.49033,-0.52758 4.25512,-0.66805l-12.9588,18.67858z"/><path d="M231.92913,57.93071c2.38772,-3.32291 7.01711,-4.08104 10.34002,-1.69331c3.32291,2.38772 4.08104,7.01711 1.69331,10.34002c-2.38772,3.32291 -7.01711,4.08104 -10.34002,1.69331c-3.32291,-2.38772 -4.08104,-7.01711 -1.69331,-10.34002z"/></g><g data-paper-data="{&quot;index&quot;:null}" fill="#3a0f19" stroke="none" stroke-width="0" stroke-linecap="butt"><path d="M218.62902,64.48036l-10.59688,6.32373l-2.90219,-4.86329c0.3219,-0.71617 0.56197,-1.47709 0.70831,-2.27084c0.22194,-0.73422 0.46118,-1.50264 0.78539,-2.31316c1.24083,-3.10207 3.29453,-6.58327 4.93146,-9.81001z"/><path d="M209.33665,60.94946c2.92625,-1.74625 6.71405,-0.78968 8.4603,2.13657c1.74625,2.92625 0.78968,6.71406 -2.13657,8.46031c-2.92625,1.74625 -6.71406,0.78967 -8.46031,-2.13658c-1.74625,-2.92625 -0.78967,-6.71405 2.13658,-8.4603z"/></g><g fill="#3a0f19" stroke="none" stroke-width="0" stroke-linecap="butt"><path d="M259.88857,61.48534l-9.34347,-5.57575l5.1801,-8.68047c3.15833,0.41102 6.28163,-1.31779 8.52899,0.32771c0.09369,0.0686 2.63357,1.99408 2.94868,2.64683z"/><path d="M260.62219,60.25594c-1.5397,2.58013 -4.87948,3.42356 -7.45961,1.88386c-2.58013,-1.5397 -3.42356,-4.87948 -1.88386,-7.45961c1.5397,-2.58013 4.87948,-3.42356 7.45961,-1.88386c2.58013,1.5397 3.42356,4.87948 1.88386,7.45961z"/></g><path d="M236.2381,61.1867c0,-1.95696 1.58643,-3.54338 3.54338,-3.54338c1.95696,0 3.54338,1.58643 3.54338,3.54338c0,1.95696 -1.58643,3.54338 -3.54338,3.54338c-1.95696,0 -3.54338,-1.58643 -3.54338,-3.54338z" fill="#61141b" stroke="none" stroke-width="0" stroke-linecap="butt"/><path d="M253.98697,59.04506c0,-0.7248 0.58757,-1.31236 1.31236,-1.31236c0.7248,0 1.31236,0.58757 1.31236,1.31236c0,0.7248 -0.58757,1.31236 -1.31236,1.31236c-0.7248,0 -1.31236,-0.58757 -1.31236,-1.31236z" fill="#61141b" stroke="none" stroke-width="0" stroke-linecap="butt"/><path d="M254.94141,54.51144c0,-1.51549 1.22855,-2.74403 2.74403,-2.74403c1.51549,0 2.74403,1.22855 2.74403,2.74403c0,1.51549 -1.22855,2.74403 -2.74403,2.74403c-1.51549,0 -2.74403,-1.22855 -2.74403,-2.74403z" fill="#61141b" stroke="none" stroke-width="0" stroke-linecap="butt"/><path d="M207.92298,65.83356c0,-2.49067 2.01909,-4.50976 4.50976,-4.50976c2.49067,0 4.50976,2.01909 4.50976,4.50976c0,2.49067 -2.01909,4.50976 -4.50976,4.50976c-2.49067,0 -4.50976,-2.01909 -4.50976,-4.50976z" fill="#61141b" stroke="none" stroke-width="0" stroke-linecap="butt"/><path d="M217.98489,120.8736v15.13991" fill="none" stroke="#000000" stroke-width="3" stroke-linecap="round"/><path d="M220.56189,125.38336v5.79826" fill="none" stroke="#000000" stroke-width="2.5" stroke-linecap="round"/><path d="M216.65579,140.48405c0,-0.80057 0.64899,-1.44957 1.44957,-1.44957c0.80057,0 1.44957,0.64899 1.44957,1.44957c0,0.80057 -0.64899,1.44957 -1.44957,1.44957c-0.80057,0 -1.44957,-0.64899 -1.44957,-1.44957z" fill="#000000" stroke="none" stroke-width="0" stroke-linecap="butt"/><g fill="none" stroke="#000000" stroke-linecap="round"><path d="M252.46576,137.30201v-10.95227" stroke-width="3"/><path d="M254.6938,133.65124v-5.01979" stroke-width="2.5"/></g><path d="M243.33979,119.32067c0.20353,-4.88817 4.45264,-8.85847 9.77048,-8.85847c5.31783,0 9.27453,3.96607 9.27453,8.85847c0,4.8924 -3.88585,9.07104 -9.69964,9.14188c-5.52997,0.06739 -9.55792,-4.03692 -9.34537,-9.14188z" fill="#ffffff" stroke="#000000" stroke-width="1.4" stroke-linecap="butt"/><path d="M250.53975,122.00341c0,-2.81845 2.2848,-5.10325 5.10325,-5.10325c2.81845,0 5.10325,2.2848 5.10325,5.10325c0,2.81845 -2.28479,5.10325 -5.10325,5.10325c-2.81845,0 -5.10325,-2.2848 -5.10325,-5.10325z" fill="#000000" stroke="none" stroke-width="1.5" stroke-linecap="butt"/><path d="M216.28351,119.31992c0.07093,-4.89188 4.83834,-8.93609 10.21137,-8.8582c5.37302,0.0779 9.02724,4.2484 8.95632,9.14029c-0.07093,4.89188 -4.12352,8.79439 -9.49655,8.7165c-5.37302,-0.0779 -9.74207,-4.1067 -9.67114,-8.99859z" fill="#ffffff" stroke="#000000" stroke-width="1.4" stroke-linecap="butt"/><path d="M223.31832,122.03508c0.03999,-2.75843 2.30855,-4.96213 5.06696,-4.92214c2.75843,0.03999 4.96213,2.30855 4.92214,5.06696c-0.03999,2.75843 -2.30854,4.96213 -5.06696,4.92214c-2.75843,-0.03999 -4.96213,-2.30855 -4.92214,-5.06696z" fill="#000000" stroke="none" stroke-width="1.5" stroke-linecap="butt"/><g stroke="none" stroke-width="0" stroke-linecap="butt"><path d="M229.21515,144.66072c1.37494,-0.08751 9.93523,3.19276 9.93523,3.19276c0,0 4.91281,-2.81529 7.82843,-2.35089c1.84689,0.29418 13.54978,7.28441 13.54978,7.28441c0,0 -0.65395,2.10681 -4.25373,5.50762c-3.88799,3.67309 -11.32811,8.96839 -16.69192,8.59568c-8.19248,-0.56927 -13.59771,-5.77359 -17.4938,-9.42404c-6.30496,-5.90745 -5.43391,-8.29542 -5.43391,-8.29542c0,0 1.36317,-0.01788 2.73658,-0.48019c1.11065,-0.37385 3.15031,-1.08439 4.4842,-1.82235c2.69025,-1.48835 3.11791,-2.06621 5.33913,-2.20758z" fill="#000000"/><path d="M218.5498,151.12453c0,0 8.83555,1.12481 12.49323,1.91496c3.5013,0.75637 9.70604,2.98356 9.70604,2.98356c0,0 4.45009,-1.73382 7.28405,-2.04649c2.82742,-0.31195 10.70701,0.0896 10.70701,0.0896c0,0 -2.25029,2.55852 -5.6182,5.05979c-3.27293,2.43072 -8.60548,5.05009 -13.13216,4.99079c-13.50784,-0.17697 -21.43998,-12.99221 -21.43998,-12.99221z" fill="#ffffff"/><path d="M229.2099,146.90081c2.40557,-0.07952 10.78601,2.78139 10.78601,2.78139c0,0 5.05052,-2.80249 7.42361,-2.24339c2.39327,0.56386 7.98107,4.75266 7.98107,4.75266c0,0 -6.58403,-0.06891 -8.76157,0.11467c-2.35358,0.19841 -5.93665,1.13657 -5.93665,1.13657c0,0 -6.87174,-1.92047 -9.89323,-2.55097c-3.22608,-0.6732 -9.64652,-1.06328 -9.64652,-1.06328c0,0 5.64171,-2.84812 8.04728,-2.92764z" fill="#ffffff"/></g><path d="M239.40522,149.22726c-1.03376,0 -3.5381,-3.26042 -3.7867,-5.3637c-0.22243,-1.88186 1.31512,-3.82799 3.7867,-3.82799c2.47159,0 4.2021,0.49077 4.02999,4.18853c-0.14607,3.13818 -1.55841,5.00317 -4.02999,5.00317z" fill="#ffffff" stroke="#000000" stroke-width="1.15" stroke-linecap="butt"/><path d="M243.00731,119.13354c0,0 0.1026,3.96976 0.00576,7.12662c-0.19174,6.25113 -1.08147,27.7607 -1.08147,27.7607l-2.98167,0.00864c0,0 -0.80294,-4.17274 -1.12322,-9.49979c-0.43353,-7.21063 -0.4495,-16.29321 -0.76344,-19.63229c-0.29758,-3.16513 -0.89593,-5.71453 -0.89593,-5.71453" fill="#ffffff" stroke="#000000" stroke-width="1.3" stroke-linecap="round"/><path d="M259.84307,102.46498c0,0 1.52429,0.31807 4.2558,1.11029c2.49492,0.72361 4.44935,1.74403 4.44935,1.74403l0.1951,1.17035c0,0 -7.24963,-3.61694 -15.1158,-2.95757c-6.2896,0.52724 -9.96319,3.29937 -9.96319,3.29937l0.04575,-4.17683c0,0 3.12748,-2.19119 7.86366,-2.34255c4.90428,-0.15672 8.09084,1.07822 8.09084,1.07822z" data-paper-data="{&quot;index&quot;:null}" fill="#000000" stroke="none" stroke-width="1.5" stroke-linecap="butt"/><path d="M219.74493,109.10074c0,0 3.36963,-2.4683 8.03244,-2.93108c5.16698,-0.51283 7.76823,0.58302 7.76823,0.58302l0.29508,4.13747c0,0 -3.83554,-1.32995 -8.01795,-1.17043c-5.59346,0.21333 -6.64488,2.08223 -10.89774,2.54049c-3.64408,0.39266 -6.73723,0.15884 -6.73723,0.15884l-0.02589,-1.23155c0,0 3.59517,0.07398 5.23371,-0.06836c1.35239,-0.11749 3.9757,-0.93808 3.9757,-0.93808z" fill="#000000" stroke="none" stroke-width="1.5" stroke-linecap="butt"/><g stroke="none" stroke-width="0" stroke-linecap="butt"><path d="M233.47819,312.92017v-106.44476c0,0 8.88766,-7.13907 12.04888,-15.13867c3.29152,-8.32934 5.50311,-31.22939 10.14796,-47.22563c3.6341,-12.51536 10.23217,-19.69875 10.23217,-19.69875c0,0 7.96026,6.59242 10.73181,8.88771c1.75256,1.45141 2.5098,4.90423 0.32639,7.72238c-2.05668,2.65457 -4.47009,6.61142 -6.08743,11.96856c-4.88151,16.16909 -7.40079,41.29127 -11.25467,50.53305c-3.65213,8.75797 -14.2651,18.63294 -14.2651,18.63294v90.76317z" data-paper-data="{&quot;index&quot;:null}" fill="#795331"/><path d="M233.25099,313.16818v-106.44476c0,0 8.88766,-7.13907 12.04888,-15.13867c3.29152,-8.32934 5.50312,-31.22939 10.14796,-47.22563c3.6341,-12.51536 10.23217,-19.69875 10.23217,-19.69875l4.61671,2.49419c0,0 -5.41156,8.19989 -9.23397,20.70182c-3.45157,11.28901 -5.16872,26.34899 -8.2478,37.35965c-2.79047,9.97859 -5.13541,17.41492 -4.77647,19.63633c0.59088,3.65684 1.51104,6.50201 5.05038,8.90036c-3.94146,4.91519 -7.95786,8.6523 -7.95786,8.6523v90.76317z" data-paper-data="{&quot;index&quot;:null}" fill="#382615"/><path d="M233.63737,311.24658c0,0 0,-71.67211 0,-83.38981c0,-3.12941 -2.15475,-5.97233 -5.11248,-7.85611c-3.03508,-1.93305 -7.86609,-7.72463 -11.13162,-15.55551c-3.14413,-7.53976 -6.94787,-35.12627 -11.56404,-52.88618c-1.31194,-5.04743 -3.06635,-8.92428 -4.5755,-11.63607c-1.76119,-3.16467 -1.07593,-6.2916 0.48495,-7.43614c2.74367,-2.01185 11.34968,-8.32239 11.34968,-8.32239c0,0 5.90098,7.08622 8.77878,18.62515c4.0038,16.05377 5.71272,38.94791 9.17259,47.55117c1.98911,4.94609 6.41829,8.9541 9.8574,11.4853c2.59113,1.90708 4.62023,6.23354 4.62023,9.87399c0,13.82937 0,99.5466 0,99.5466z" fill="#ddb277"/><path d="M233.41016,311.01938c0,0 0,-71.67211 0,-83.38981c0,-3.12941 -2.15475,-5.97233 -5.11248,-7.85611c-3.03508,-1.93305 -7.86609,-7.72463 -11.13162,-15.55551c-3.14413,-7.53976 -6.94786,-35.12628 -11.56403,-52.88619c-1.31194,-5.04743 -3.06635,-8.92428 -4.5755,-11.63607c-1.76119,-3.16467 -1.07593,-6.2916 0.48495,-7.43614c0.28723,-0.21062 2.53951,-1.89395 2.93863,-2.18661c1.84339,3.00763 3.15202,6.4813 4.41663,9.6509c4.39434,11.01393 10.89547,58.68077 16.31994,69.26884c1.95369,3.81342 5.60912,7.47681 8.91249,10.1985c3.24757,2.67571 3.14078,4.10835 4.49498,8.26815c0.10117,0.63084 0.65231,83.56006 0.65231,83.56006z" fill="#795331"/><g fill="#61141b"><path d=""/><path d="M219.17079,154.44218l4.20734,-4.95239c1.48262,3.17646 1.56951,8.01288 2.00899,11.62207z"/><path d="M217.81548,155.79385c1.80876,-2.12907 4.55382,-1.93284 6.94277,-0.72842c0.65754,3.07643 1.17919,5.58237 1.55087,8.40598c0.02123,0.16133 0.04403,0.32948 0.06855,0.50351c-2.17089,2.02648 -5.56402,2.14843 -7.88218,0.17902c-2.49635,-2.12079 -2.8008,-5.86374 -0.68001,-8.3601z"/></g><g fill="#61141b"><path d="M220.43189,165.49821l5.32881,-6.27246c0.19906,1.55215 0.36196,3.07273 0.54842,4.4893c0.181,1.37509 -0.0119,3.24668 0.49369,5.01909l-0.79095,1.50459z"/><path d="M219.59533,166.48292c1.30906,-1.54087 3.61938,-1.72879 5.16025,-0.41973c0.91932,0.78101 1.35704,1.91844 1.28259,3.03622c-0.05034,0.75573 -0.33481,1.50248 -0.86285,2.12403c-1.30906,1.54087 -3.61938,1.72879 -5.16025,0.41974c-1.54087,-1.30906 -1.72879,-3.61938 -0.41974,-5.16025z"/></g><path d="M235.41318,207.68382c0,-1.61472 1.30899,-2.92371 2.92371,-2.92371c1.61472,0 2.92371,1.30899 2.92371,2.92371c0,1.61472 -1.30899,2.92371 -2.92371,2.92371c-1.61472,0 -2.92371,-1.30899 -2.92371,-2.92371z" fill="#61141b"/><path d="M229.32212,203.90736c0,-1.0092 0.81812,-1.82731 1.82731,-1.82731c1.0092,0 1.82732,0.81812 1.82732,1.82731c0,1.0092 -0.81812,1.82731 -1.82732,1.82731c-1.0092,0 -1.82731,-0.81812 -1.82731,-1.82731z" fill="#61141b"/></g><g stroke="none" stroke-width="0" stroke-linecap="butt"><path d="M215.60361,119.5073c0,0 -0.71905,-10.6496 11.28382,-10.12447c11.04013,0.48301 10.11409,10.93004 10.11409,10.93004c0,0 -3.02427,-3.63966 -10.35692,-3.64518c-7.33266,-0.00552 -11.04099,2.83962 -11.04099,2.83962z" fill="#61141b"/><path d="M220.48055,112.1848c1.88281,-1.25931 3.62147,-1.55106 6.25369,-1.60589c7.20279,-0.16459 8.40674,6.77685 8.40674,6.77685c0,0 0.13819,-1.84269 -8.79348,-2.12928c-7.75994,0.06515 -8.96258,1.77012 -8.96258,1.77012c0,0 -0.00355,-2.73894 3.09563,-4.8118z" fill="#61141b"/><path d="M242.22109,119.46366c0,0 -0.73369,-10.6496 11.51363,-10.12447c11.26497,0.48301 10.14553,10.27551 10.14553,10.27551l-1.65028,-0.42261c0,0 -3.91206,-2.56449 -8.74303,-2.56804c-7.48199,-0.00552 -11.26585,2.83961 -11.26585,2.83961z" fill="#000815"/><path d="M247.19735,112.14116c1.92117,-1.25931 3.69523,-1.55106 6.38105,-1.60589c7.34948,-0.16459 8.57795,6.77685 8.57795,6.77685c0,0 -0.94987,-1.66815 -9.05984,-2.12927c-7.91798,0.06515 -9.05784,1.77012 -9.05784,1.77012c0,0 -0.00362,-2.73894 3.15867,-4.8118z" fill="#000815"/></g></g></g></g></svg>