<svg version="1.1" xmlns="http://www.w3.org/2000/svg" xmlns:xlink="http://www.w3.org/1999/xlink" width="111.07046" height="236.59634" viewBox="0,0,111.07046,236.59634"><g transform="translate(-261.9012,-65.19194)"><g stroke-miterlimit="10"><path d="M327.28625,154.1342l34.0192,13.14378l10.82428,133.37075l-103.99052,0.38658l8.50479,-134.65936l31.31312,-11.98404z" fill="#c2b851" stroke="#121212" stroke-width="1.5" stroke-linecap="round"/><g fill="#000000" stroke="none" stroke-width="0" stroke-linecap="butt"><path d="M313.51752,174.39178l-5.49672,-8.48556l5.49672,-8.70885h10.0773l5.86317,8.70885l-5.86317,8.48556z"/><path d="M312.48688,218.15936l-4.46608,-8.37215l4.46608,-40.08482h12.05841l4.24278,39.57741l-4.24278,8.87954z"/></g><path d="M334.84048,157.1248l26.24771,10.14117c0,0 0.89558,11.03485 1.67926,20.69104c1.82883,22.53395 9.14502,112.67971 9.14502,112.67971l-103.99052,0.38657l8.50479,-134.65936l24.77674,-9.48246c0,0 2.00453,19.68355 6.02893,31.99557c4.02441,12.31202 11.72886,22.33147 11.72886,22.33147c0,0 8.56656,-13.27234 11.19328,-22.2188c2.62672,-8.94647 4.68593,-31.86491 4.68593,-31.86491z" fill="#333333" stroke="#121212" stroke-width="1.5" stroke-linecap="round"/><path d="M291.32437,301.03532l5.41216,-117.13431" fill="none" stroke="#121212" stroke-width="1.5" stroke-linecap="round"/><path d="M347.91119,300.60619l-5.41213,-117.13429" fill="none" stroke="#121212" stroke-width="1.5" stroke-linecap="round"/><path d="M318.9627,210.56702l1.33982,89.76819" fill="none" stroke="#121212" stroke-width="1.75" stroke-linecap="round"/><path d="M267.02833,301.78056l4.52873,-71.50334c0,0 7.97565,1.9667 11.44313,1.83562c3.51873,-0.133 10.63428,-2.85122 10.63428,-2.85122c0,0 21.28216,-0.71587 29.28699,-3.31961c8.94235,-2.90867 21.86671,-13.31915 21.86671,-13.31915c0,0 6.4602,1.44065 9.78421,1.34945c3.10225,-0.08512 11.10368,-1.8797 11.10368,-1.8797l7.2956,89.24133z" fill-opacity="0.50196" fill="#000000" stroke="none" stroke-width="1.5" stroke-linecap="butt"/><path d="" fill="#d8d8d8" stroke="#8d8d8d" stroke-width="1.5" stroke-linecap="butt"/><path d="M355.9177,122.19122c0,25.97502 -20.33081,47.03194 -45.41016,47.03194c-25.07936,0 -45.41016,-21.05691 -45.41016,-47.03194c0,-25.97502 20.3308,-47.03194 45.41016,-47.03194c25.07936,0 45.41016,21.05694 45.41016,47.03196z" fill="#000000" stroke="#fff477" stroke-width="1.5" stroke-linecap="butt"/><path d="M342.81458,151.03585c0,0 -5.2867,-9.14274 -12.83557,-18.36462c-4.6109,-5.63276 -11.78263,-11.20469 -14.10072,-15.00432c-4.2153,-6.90942 -6.21472,-20.96989 -6.21472,-20.96989c0,0 6.72587,11.73334 11.1932,19.05588c1.16799,1.9145 11.49003,9.15233 13.19949,11.9121c7.18738,11.60326 8.75831,23.37085 8.75831,23.37085z" fill="#ded468" stroke="#ded468" stroke-width="1.5" stroke-linecap="round"/><path d="M305.43382,69.35906c3.66665,0.02715 7.68227,0.33946 11.14713,-0.71526c0.69658,-0.69656 1.40497,-0.61314 2.17713,-1.08856c1.5997,-0.98492 6.06087,-4.0792 7.77389,-1.09955c1.84611,3.21113 -4.80275,3.11061 -6.30782,3.17775c0,0.75752 1.52285,-0.10374 2.27253,0.00484c0.61739,0.08943 2.55331,0.63911 3.00814,0.9334c3.17021,2.05132 8.13992,2.10877 10.89162,4.9028c2.90025,1.42565 7.3758,3.27462 9.16401,6.18396c0.06024,0.09803 0.45814,0.60819 0.86253,1.16675c-0.02272,-0.13336 -0.04314,-0.26851 -0.06147,-0.40279l-0.15146,0.03786l-0.26839,-1.07356c-0.01587,-0.05805 -0.02434,-0.11913 -0.02434,-0.18222c0,-0.38077 0.30868,-0.68947 0.68947,-0.68947c0.14489,0 0.27932,0.04469 0.39031,0.12103l0.80859,0.53904l-0.02564,0.03849l0.13074,0.04766c1.09997,1.68751 2.97677,3.24236 4.45321,4.75144c0.44073,1.32218 0.98011,2.06446 1.18636,3.54393c0.17629,1.2645 -0.27646,2.62971 0.44648,3.80388c1.82501,2.96418 3.79904,5.896 4.96611,9.39722c1.49133,4.47394 3.67664,6.32601 1.8645,11.33351l0.26654,0.10661l-0.50616,1.26539c-0.09777,0.26186 -0.35018,0.44833 -0.64612,0.44833c-0.31016,0 -0.57248,-0.20479 -0.65912,-0.48653l-0.2671,-0.80132l0.03716,-0.01239l-0.06362,-0.09521c0,-0.72536 -0.53769,-1.47476 -1.01031,-2.09097c0.13733,1.13628 0.39047,2.27116 0.19432,3.4517c-0.4959,2.98463 -1.32197,5.93801 -1.97766,8.9234c-0.81799,0.78818 -2.62398,1.69537 -3.61649,0.34995c-0.61984,-0.84024 0.0425,-1.40736 0.15091,-2.14643c0.26022,-1.77403 -0.24821,-3.66282 0,-5.44281c0.01891,-0.13567 0.57855,-1.83443 0.34879,-2.00658c-0.45867,-0.34359 -1.23253,0.5526 -1.70418,0.22707c-0.30832,-0.2128 -0.64604,-1.03256 -0.89673,-1.83793c-0.15512,0.85269 -0.60827,1.44884 -1.95753,1.09917c-1.40039,-0.36293 -3.43315,-3.17756 -5.04035,-2.95516c-0.56324,0.07795 -0.65276,0.97355 -1.13687,1.27182c-1.20833,0.74447 -2.59134,1.92062 -3.8935,2.49328c-1.13745,0.50022 -2.43662,0.25089 -3.28077,1.09502c-0.96306,0.03738 -3.52261,0.53825 -4.14622,-0.60078c-0.31401,-0.57359 0.75405,-3.48546 1.01616,-4.00971c0.21749,-0.43496 1.15449,-1.51753 0.74583,-1.25392c-1.84342,1.18923 -5.03358,1.56716 -7.12412,0.69373c-0.35491,-0.14831 -0.7791,-0.2573 -1.13939,-0.39361c0.20122,0.87049 0.70378,1.50978 0.87398,2.60902c-1.81461,0.37766 -4.26256,0.62523 -6.11257,0.27742c-0.98348,-0.18489 -1.32556,-0.45148 -1.95953,-1.23594c-0.09488,-0.11742 -0.07413,-0.55246 -0.15554,-0.42533c-0.70233,1.09671 -3.36655,4.90357 -5.31923,4.93173c-2.27702,0.03285 -0.86252,-2.32371 -0.76942,-3.8066c-0.3881,0.2906 -0.89293,0.60323 -1.18002,0.74705c-1.2971,0.64983 -2.52151,1.71273 -4.00245,1.96619c-3.55897,0.60912 -7.69474,1.45523 -11.44659,1.56347l0.01906,0.11433l-1.34737,0.22457c-0.0409,0.00755 -0.08307,0.01151 -0.12615,0.01151c-0.38078,0 -0.68949,-0.30868 -0.68949,-0.68947c0,-0.19039 0.07717,-0.36275 0.20195,-0.48754l0.51822,-0.51822c0.94562,-1.26428 1.79069,-2.39165 2.54772,-3.62597c-0.4625,0.38189 -0.88905,0.70762 -1.09268,0.84103c-0.52252,0.34237 -1.40523,-0.00358 -1.81464,0.46823c-0.4388,0.50568 -0.70461,1.25294 -1.32185,1.51232c-1.4168,0.59539 -2.48648,0.49306 -3.39489,1.82943c-1.62419,0.45433 -1.66517,1.20579 -3.07488,1.95151c-3.14554,1.66399 -7.7091,1.87938 -11.13354,2.25312c-1.43731,0.15686 -3.13063,-0.33133 -4.53591,-0.01509c-1.10922,0.24961 -1.66003,0.82315 -2.87982,0.83487c-1.38224,0 -2.19007,0.28965 -2.837,-1.30611c-0.50254,-1.23957 0.19852,-3.13372 -0.02068,-4.44359c-0.6215,-3.71389 -2.41616,-2.22517 -1.08856,-6.20798c0.15076,-3.35519 3.46657,-7.00533 4.95656,-9.98293c1.29806,-2.59402 1.49482,-5.50238 2.41772,-8.35809c0.53699,-1.57719 1.74603,-2.35474 2.51684,-3.68229c2.40226,-4.13733 6.19979,-6.88235 9.74897,-10.29324c1.17739,-0.39246 1.42889,-1.37819 2.47204,-1.91847c2.14843,-1.11271 4.06717,-3.27637 6.23646,-4.61291c1.30349,-0.8031 2.56746,-0.74367 3.86954,-1.39358c0.46454,-0.23186 2.02318,-0.07888 1.1761,-0.25382c-0.98309,-0.68765 -3.80987,-5.10399 -0.27571,-4.08895c0.37885,0.1088 1.31458,1.39349 1.84352,1.60375c2.51156,0.99833 5.42254,0.96334 8.09282,1.58216z" fill="#8f8100" stroke="none" stroke-width="1.5" stroke-linecap="butt"/><path d="M307.78713,128.73157c0,3.79449 -0.99788,7.30111 -2.68715,10.14117c-2.52618,4.2471 -19.26664,4.25277 -21.80798,0.74624c-2.19849,-3.03346 -3.26323,-6.49545 -3.26323,-10.88741c0,-1.88681 0.24673,-3.70245 0.70251,-5.40034c1.40274,-5.22549 17.51402,-5.94439 24.51893,-2.35859c2.1413,1.09613 2.53691,7.0683 2.53691,7.75893z" fill="#fff477" stroke="none" stroke-width="1.5" stroke-linecap="butt"/><path d="M318.40394,121.08908c7.0049,-3.58578 23.11619,-2.8669 24.51893,2.35859c0.45578,1.69788 0.70251,3.51353 0.70251,5.40034c0,4.39196 -1.06474,7.85395 -3.26322,10.88741c-2.54134,3.50653 -19.28181,3.50085 -21.80798,-0.74624c-1.68928,-2.84007 -2.68715,-6.34668 -2.68715,-10.14117c0,-0.69065 0.39562,-6.6628 2.53693,-7.75893z" fill="#fff477" stroke="none" stroke-width="1.5" stroke-linecap="butt"/><g fill-opacity="0.75686" fill="#ffffff" stroke="none" stroke-width="0" stroke-linecap="butt"><path d="M287.86627,130.06801c0,5.28177 -1.30131,9.5635 -2.90656,9.5635c-1.60524,0 -2.90655,-4.28172 -2.90655,-9.5635c0,-5.28177 1.30131,-9.5635 2.90655,-9.5635c1.60524,0 2.90656,4.28172 2.90656,9.5635z"/><path d="M292.52212,126.16784c0,3.00335 -0.73997,5.43806 -1.65275,5.43806c-0.91278,0 -1.65275,-2.43471 -1.65275,-5.43806c0,-3.00335 0.73997,-5.43807 1.65275,-5.43807c0.91278,0 1.65275,2.43471 1.65275,5.43807z"/></g><g fill-opacity="0.75686" fill="#ffffff" stroke="none" stroke-width="0" stroke-linecap="butt"><path d="M324.09527,130.48079c0,5.28177 -1.30131,9.5635 -2.90655,9.5635c-1.60524,0 -2.90656,-4.28172 -2.90656,-9.5635c0,-5.28177 1.30131,-9.5635 2.90656,-9.5635c1.60524,0 2.90655,4.28173 2.90655,9.5635z"/><path d="M328.75114,126.58062c0,3.00335 -0.73997,5.43806 -1.65275,5.43806c-0.91278,0 -1.65275,-2.43471 -1.65275,-5.43806c0,-3.00335 0.73997,-5.43807 1.65275,-5.43807c0.91278,0 1.65275,2.43471 1.65275,5.43807z"/></g><path d="M328.77453,160.33454c0,7.02001 -5.60471,7.99003 -17.16161,7.99003c-11.5569,0 -17.04629,-1.07271 -17.04629,-8.09272c0,-7.02001 5.48939,-11.3759 17.04629,-11.3759c11.5569,0 17.16161,4.45858 17.16161,11.4786z" fill="#000000" stroke="#fff477" stroke-width="1.5" stroke-linecap="butt"/><path d="M322.81151,151.17766l-2.75113,7.60015l-2.94764,-8.93213" fill="none" stroke="#fff477" stroke-width="1.5" stroke-linecap="round"/></g></g></svg>