<svg version="1.1" xmlns="http://www.w3.org/2000/svg" xmlns:xlink="http://www.w3.org/1999/xlink" width="93.36936" height="112.48568" viewBox="0,0,93.36936,112.48568"><g transform="translate(-272.31454,-117.80761)"><g data-paper-data="{&quot;isPaintingLayer&quot;:true}" fill-rule="nonzero" stroke-linejoin="miter" stroke-miterlimit="10" stroke-dasharray="" stroke-dashoffset="0" style="mix-blend-mode: normal"><path d="M275.73702,166.18601c0,0 6.16329,-5.92187 6.29161,-6.78761c0.33654,-2.27063 -0.16776,-40.17317 35.96775,-41.57382c44.63633,-0.91362 39.01489,35.34872 41.53088,42.1903c3.44981,9.38084 6.15664,17.40016 6.15664,17.40016c0,0 -2.76715,-2.05351 -4.0797,-3.13397c-1.2242,-1.00773 -3.80143,-3.14585 -3.80143,-3.14585c0,0 3.09111,10.3481 1.31092,20.69498c-1.5623,9.48098 -7.29782,17.22543 -7.29782,17.22543l-1.15522,-2.34735c0,0 -1.02266,2.19794 -2.16005,3.33274c-1.1374,1.13479 -3.43873,2.91273 -3.43873,2.91273l-0.09205,-3.70421c0,0 -7.0601,11.01795 -24.35066,10.87154c-16.30625,-0.25547 -26.07151,-10.6752 -26.07151,-10.6752l-0.1162,2.65484c0,0 -3.89477,-3.29276 -6.18145,-9.70754c-2.72545,-7.64567 -3.23946,-12.24324 -3.23946,-12.24324c0,0 -2.33908,1.89916 -5.71704,2.7744c-4.23278,1.09673 -6.94665,0.34526 -6.94665,0.34526c0,0 3.60795,-2.71717 5.58396,-4.76989c1.76007,-1.8284 2.64658,-3.37722 2.64658,-3.37722c0,0 -2.10758,1.0847 -4.23277,1.61795c-2.21739,0.5564 -4.03008,0.53093 -4.03008,0.53093c0,0 4.97492,-5.03728 7.03074,-10.87429c1.94102,-5.51108 2.09972,-10.95731 2.09972,-10.95731c0,0 -1.36165,0.66163 -3.33013,0.79513c-1.24776,0.08463 -2.37785,-0.0489 -2.37785,-0.0489z" fill="#000000" stroke="none" stroke-width="1.5" stroke-linecap="butt"/><path d="M292.64686,177.50763c-0.57709,-7.29323 0.335,-17.15448 0.335,-17.15448c0,0 3.41059,-0.04124 13.91429,-3.14424c8.0696,-2.38394 20.54731,-9.48722 20.54731,-9.48722c0,0 -2.16005,3.00503 -3.40781,4.46015c-1.32651,1.54696 -3.99292,4.56297 -3.99292,4.56297c0,0 7.838,-1.66761 14.67476,-4.72931c8.56837,-3.53575 10.59252,-6.05309 12.95042,-4.5927c2.7829,1.72362 1.03006,23.1827 0.71846,28.74062c-0.42163,5.66922 -2.53327,9.49969 -3.15031,12.52053c-0.61704,3.02084 -0.4096,6.13662 -2.20622,16.0397c-1.12121,6.18021 -4.16183,8.92466 -10.01942,14.66081c-5.85759,5.73616 -9.05378,9.25275 -13.01359,9.32173c-3.81077,0.06639 -8.93565,-5.1002 -13.93542,-10.38244c-5.32393,-5.62474 -8.87489,-8.47713 -9.71551,-15.13975c-0.75707,-6.00039 -0.77653,-9.90853 -1.12266,-15.24835c-0.25298,-3.90273 -2.26119,-6.44504 -2.57636,-10.42801z" fill="#ffffff" stroke="#000000" stroke-width="1.5" stroke-linecap="butt"/><path d="M294.22256,187.63085c0,0 -4.93211,-3.51705 -6.16417,-8.97502c-1.29636,-5.74284 -1.46118,-9.7328 0.48013,-9.99193c1.94131,-0.25915 2.70321,2.37692 3.73262,8.35569c1.0294,5.97877 1.95143,10.61127 1.95143,10.61127z" data-paper-data="{&quot;index&quot;:null}" fill="#ffffff" stroke="#000000" stroke-width="1" stroke-linecap="butt"/><path d="M294.01997,183.68329c0,0 -3.56385,-2.92338 -4.31816,-8.45061c-0.42079,-3.08327 2.15675,-2.28016 2.15675,-2.28016" fill="none" stroke="#000000" stroke-width="0.25" stroke-linecap="round"/><path d="M348.45572,177.01958c1.0294,-5.97877 1.7913,-8.61483 3.73262,-8.35569c1.94131,0.25914 1.77649,4.24909 0.48013,9.99193c-1.23206,5.45797 -6.16417,8.97502 -6.16417,8.97502c0,0 0.92203,-4.6325 1.95143,-10.61127z" data-paper-data="{&quot;index&quot;:null}" fill="#ffffff" stroke="#000000" stroke-width="1" stroke-linecap="butt"/><path d="M348.86828,172.95252c0,0 2.57754,-0.80312 2.15675,2.28016c-0.75431,5.52723 -4.31816,8.45061 -4.31816,8.45061" data-paper-data="{&quot;index&quot;:null}" fill="none" stroke="#000000" stroke-width="0.25" stroke-linecap="round"/><g><path d="M292.03182,177.76386c-0.45398,-5.73741 0.01362,-14.17963 0.23379,-17.04444c0.01003,-0.13058 2.73296,0.7542 5.70829,-0.32161c3.06321,-1.10758 6.5179,-2.07125 7.43116,-2.34105c0.24368,-0.07199 18.33354,-7.20878 18.33354,-7.20878l-5.03009,6.84209c0,0 26.98295,-10.6717 28.0683,-9.99947c2.7829,1.72362 1.30611,23.17113 0.99451,28.72905c-0.42163,5.66922 -2.53327,9.49969 -3.15031,12.52053c-0.61704,3.02084 3.75707,6.13662 1.96044,16.0397c-1.12121,6.18021 -8.32849,8.92466 -14.18608,14.66081c-5.85759,5.73616 -9.05378,9.25275 -13.01359,9.32173c-3.81077,0.06639 -8.93565,-5.1002 -13.93542,-10.38244c-5.32393,-5.62474 -8.87489,-8.47713 -9.71551,-15.13975c-0.36688,-2.90783 -0.56054,-5.32431 -0.7021,-7.65047c-0.15055,-2.47395 1.75783,-4.51243 1.57944,-7.26454c-0.25298,-3.90273 -4.26119,-6.77837 -4.57636,-10.76134z" fill="#ffffff" stroke="#000000" stroke-width="1.5" stroke-linecap="butt"/><path d="M338.91252,161.95779c0,0 1.55706,0.01389 4.39075,0.25671c2.58825,0.22181 4.70448,0.84037 4.70448,0.84037l0.42018,1.10962c0,0 -7.72171,-1.65203 -15.30711,0.5327c-6.0651,1.74688 -9.22096,4.70623 -9.22096,4.70623l-0.77184,-4.10515c0,0 2.73389,-2.28283 7.34905,-3.35734c4.77897,-1.11263 8.05027,-1.00217 8.05027,-1.00217z" data-paper-data="{&quot;index&quot;:null}" fill="#000000" stroke="none" stroke-width="1.5" stroke-linecap="butt"/><path d="M298.63102,162.54105c0,0 3.70809,-0.95564 8.34541,-0.28396c5.13875,0.7443 7.55637,1.80307 7.55637,1.80307l-0.70818,4.08707c0,0 -3.55945,-1.58271 -7.65757,-2.43328c-5.48072,-1.13753 -6.79449,-0.20645 -11.0328,-0.78397c-3.63162,-0.49486 -6.57785,-1.46538 -6.57785,-1.46538l0.27093,-1.20166c0,0 3.47196,0.93605 5.09667,1.19177c1.34097,0.21106 4.08462,0.04515 4.08462,0.04515z" fill="#000000" stroke="none" stroke-width="1.5" stroke-linecap="butt"/><path d="M295.21347,175.85498c0.07562,-5.21547 5.15838,-9.5272 10.88683,-9.44416c5.72844,0.08306 9.62438,4.52943 9.54877,9.74491c-0.07562,5.21547 -4.39628,9.37613 -10.12473,9.29309c-5.72844,-0.08306 -10.38649,-4.37835 -10.31087,-9.59383z" fill="#ffffff" stroke="#000000" stroke-width="1.4" stroke-linecap="butt"/><path d="M323.53079,175.75044c0.22149,-5.08452 4.84572,-9.2143 10.63303,-9.2143c5.7873,0 10.09329,4.12538 10.09329,9.2143c0,5.08893 -4.22889,9.43542 -10.55593,9.5091c-6.01815,0.07009 -10.4017,-4.19908 -10.17039,-9.5091z" fill="#ffffff" stroke="#000000" stroke-width="1.4" stroke-linecap="butt"/><path d="M298.94472,176.56286c0.04863,-2.98691 2.80788,-5.37315 6.16293,-5.32985c3.35507,0.04331 6.03542,2.49977 5.98678,5.48666c-0.04863,2.98691 -2.80786,5.37315 -6.16292,5.32985c-3.35507,-0.04331 -6.03542,-2.49976 -5.98679,-5.48666z" fill="#000000" stroke="none" stroke-width="1.5" stroke-linecap="butt"/><path d="M327.73471,176.67277c0,-3.02371 2.8616,-5.47491 6.39158,-5.47491c3.52998,0 6.39158,2.45119 6.39158,5.47491c0,3.02371 -2.86159,5.47492 -6.39157,5.47492c-3.52998,0 -6.39157,-2.4512 -6.39157,-5.47491z" fill="#000000" stroke="none" stroke-width="1.5" stroke-linecap="butt"/><path d="M295.75029,172.26841c0.96822,-2.79933 3.53033,-6.51638 10.30951,-6.38945c6.04014,0.10971 8.36641,3.94365 9.26214,6.83855c0.14489,0.46827 -4.858,-3.59774 -10.00671,-3.75249c-4.75482,-0.14291 -9.68721,3.65688 -9.56494,3.30339z" fill="#ffffff" stroke="#000000" stroke-width="1.15" stroke-linecap="butt"/><path d="M324.39702,172.4678c0.87705,-2.87282 3.42875,-6.84139 10.84061,-6.60437c6.24503,0.22101 8.44218,4.23672 9.21445,7.12151c0.00661,0.02474 -5.02206,-4.09509 -10.10777,-4.22606c-4.94711,-0.12741 -9.95512,3.73463 -9.94727,3.70892z" fill="#ffffff" stroke="#000000" stroke-width="1.15" stroke-linecap="butt"/><path d="M316.6915,202.99537c-1.02892,-0.09998 -3.2062,-3.58731 -3.25021,-5.70478c-0.03939,-1.89455 1.67917,-3.68286 4.13916,-3.44382c2.46,0.23904 4.13494,0.89487 3.60602,4.55865c-0.44888,3.10934 -2.03498,4.829 -4.49497,4.58997z" fill="#ffffff" stroke="#000000" stroke-width="1.15" stroke-linecap="butt"/><path d="M345.12343,202.76813c0,3.93503 -12.67797,22.25 -26.3125,22.25c-13.63453,0 -22.5625,-21.81497 -22.5625,-25.75c0,-3.93503 7.92797,6.125 21.5625,6.125c13.63453,0 27.3125,-6.56003 27.3125,-2.625z" fill="#000000" stroke="#000000" stroke-width="0" stroke-linecap="butt"/><path d="M340.14115,202.18571c0,0.1071 -2.3866,3.46361 -4.73787,5.43728c-1.66386,1.39666 -3.12279,1.28957 -4.53436,2.43894c-3.5494,2.89011 -4.66408,3.64298 -5.64726,4.06249c-2.1231,0.90591 -4.33325,0.6863 -5.89302,0.6863c-8.38782,0 -14.8125,-8.05393 -14.8125,-10.125c0,-2.07107 6.42468,-0.5 14.8125,-0.5c8.38782,0 20.8125,-4.07107 20.8125,-2z" fill="#ffffff" stroke="#000000" stroke-width="0.5" stroke-linecap="butt"/><path d="M333.09036,198.17402c5.31286,-0.58229 13.35038,1.55599 13.3403,1.64256c-0.01064,0.09136 -2.74403,3.24791 -6.82882,4.99736c-5.42246,2.32235 -12.74999,3.40371 -14.60054,3.63488c-2.71902,0.33964 -10.62287,0.79672 -14.92154,-0.58663c-2.82747,-0.90991 -5.59985,-2.88323 -8.26474,-4.43862c-4.57886,-2.67251 -6.93038,-7.93102 -6.9347,-7.96893c-0.0023,-0.02014 1.77554,0.73127 4.33717,1.8231c2.365,1.00802 5.3981,0.6812 8.31521,1.93027c5.18507,2.22018 10.00371,5.91022 10.05286,5.91489c0,0 1.18436,-1.74932 2.36886,-2.10461c0.59644,-0.1789 10.66869,-4.57386 13.13594,-4.84428z" fill="#fefefe" stroke="#000000" stroke-width="1.4" stroke-linecap="butt"/><path d="M320.70366,225.93573c-1.20539,0 -2.70313,-0.17015 -4.30761,-0.48243c-5.08259,-0.98921 -11.23623,-3.40454 -12.56062,-6.35478c-0.18593,-0.41418 2.97399,-4.51107 5.02086,-6.96254c0.11562,-0.13847 3.25522,2.9151 6.05286,4.40651c1.37358,0.73225 2.85447,0.42386 3.4851,0.46926c4.65773,0.33528 8.736,-3.75102 10.26774,-3.75102c4.97471,0 5.49582,4.29472 2.61685,7.90966c-2.13505,2.68085 -6.88593,4.76534 -10.57519,4.76534z" fill="#ffffff" stroke="none" stroke-width="0" stroke-linecap="butt"/><path d="M323.18718,173.39109c0,0 -0.28181,3.96107 -0.6835,7.09377c-0.7954,6.20328 -3.76121,27.52598 -3.76121,27.52598l-2.96853,-0.27976c0,0 -0.39562,-4.23084 -0.19921,-9.56389c0.26586,-7.21875 1.12837,-16.26031 1.13883,-19.6141c0.00993,-3.17907 -0.33906,-5.77439 -0.33906,-5.77439" fill="#ffffff" stroke="#000000" stroke-width="1.3" stroke-linecap="round"/><path d="M346.4643,199.94467c0.00788,0.06637 0.39856,7.3811 -1.10455,13.61041c-0.56043,2.32255 -1.28213,7.77217 -5.63637,10.95853c-4.81935,3.52671 -13.48862,4.69342 -18.1497,4.82968c-9.074,0.26525 -18.20484,-2.90918 -19.16968,-4.18694c-1.01373,-1.34251 -2.25427,-6.73331 -3.95949,-12.45407c-2.47674,-8.30908 -5.37901,-17.49919 -5.3717,-17.53186c0.01094,-0.0489 5.1694,6.12587 9.00003,12.10596c3.00165,4.68595 4.75376,9.34886 5.47337,10.16006c0.3625,0.40864 2.96632,2.52563 5.73959,3.10888c2.2397,0.47104 10.6726,2.28032 16.62735,-1.47293c9.34108,-5.88762 16.53371,-19.27463 16.55115,-19.12773z" fill="#ffffff" stroke="#000000" stroke-width="1.9" stroke-linecap="butt"/></g></g></g></svg>