<svg version="1.1" xmlns="http://www.w3.org/2000/svg" xmlns:xlink="http://www.w3.org/1999/xlink" width="120.24744" height="256.89886" viewBox="0,0,120.24744,256.89886"><defs><linearGradient x1="286.15781" y1="150.97742" x2="286.15781" y2="308.71639" gradientUnits="userSpaceOnUse" id="color-1"><stop offset="0" stop-color="#004036"/><stop offset="1" stop-color="#003831"/></linearGradient><linearGradient x1="351.95753" y1="149.62536" x2="351.95753" y2="307.04571" gradientUnits="userSpaceOnUse" id="color-2"><stop offset="0" stop-color="#004036"/><stop offset="1" stop-color="#003831"/></linearGradient><linearGradient x1="319.9392" y1="146.09179" x2="319.9392" y2="309.60387" gradientUnits="userSpaceOnUse" id="color-3"><stop offset="0" stop-color="#004d41"/><stop offset="1" stop-color="#00453b"/></linearGradient><linearGradient x1="320.57559" y1="230.60893" x2="320.57559" y2="266.63766" gradientUnits="userSpaceOnUse" id="color-4"><stop offset="0" stop-color="#004036"/><stop offset="1" stop-color="#003831"/></linearGradient><linearGradient x1="318.34821" y1="138.95484" x2="318.34821" y2="163.30766" gradientUnits="userSpaceOnUse" id="color-5"><stop offset="0" stop-color="#003831"/><stop offset="1" stop-color="#004036"/></linearGradient><linearGradient x1="326.22734" y1="197.66695" x2="326.22734" y2="203.13329" gradientUnits="userSpaceOnUse" id="color-6"><stop offset="0" stop-color="#c3c3c3"/><stop offset="1" stop-color="#d9d9d9"/></linearGradient><linearGradient x1="327.40387" y1="166.93629" x2="327.40387" y2="198.47141" gradientUnits="userSpaceOnUse" id="color-7"><stop offset="0" stop-color="#acacac"/><stop offset="1" stop-color="#bfbfbf"/></linearGradient><linearGradient x1="311.76147" y1="197.93384" x2="311.76147" y2="204.65745" gradientUnits="userSpaceOnUse" id="color-8"><stop offset="0" stop-color="#c3c3c3"/><stop offset="1" stop-color="#d9d9d9"/></linearGradient><linearGradient x1="310.89513" y1="167.39707" x2="310.89513" y2="199.03328" gradientUnits="userSpaceOnUse" id="color-9"><stop offset="0" stop-color="#acacac"/><stop offset="1" stop-color="#bfbfbf"/></linearGradient><linearGradient x1="336.18644" y1="134.50251" x2="362.69339" y2="135.0771" gradientUnits="userSpaceOnUse" id="color-10"><stop offset="0" stop-color="#ced3ff"/><stop offset="1" stop-color="#d7deff"/></linearGradient><linearGradient x1="273.29593" y1="134.00711" x2="299.75325" y2="134.58064" gradientUnits="userSpaceOnUse" id="color-11"><stop offset="0" stop-color="#d7deff"/><stop offset="1" stop-color="#ced3ff"/></linearGradient><linearGradient x1="321.5577" y1="79.64171" x2="319.89981" y2="156.12138" gradientUnits="userSpaceOnUse" id="color-12"><stop offset="0" stop-color="#bfbfff"/><stop offset="1" stop-color="#d9e1ff"/></linearGradient><linearGradient x1="378.42288" y1="88.96031" x2="377.92981" y2="111.70584" gradientUnits="userSpaceOnUse" id="color-13"><stop offset="0" stop-color="#d7deff"/><stop offset="1" stop-color="#ced3ff"/></linearGradient><linearGradient x1="322.08434" y1="57.98769" x2="320.62757" y2="125.18999" gradientUnits="userSpaceOnUse" id="color-14"><stop offset="0" stop-color="#d7deff"/><stop offset="1" stop-color="#ced3ff"/></linearGradient></defs><g transform="translate(-271.66588,-53.98217)"><g stroke-miterlimit="10"><g stroke-linecap="butt"><path d="M274.68902,307.20718v-253.22501h91.18203v253.22501z" fill-opacity="0.01" fill="#000000" stroke="none" stroke-width="0"/><path d="M277.49041,304.98627c0,0 2.30995,-94.38387 2.15196,-118.01201c-0.05451,-8.15261 8.18688,-36.76129 40.20201,-36.9211c31.60235,-0.15775 39.85672,29.48704 39.84884,36.89673c-0.07659,46.24274 3.16786,117.98648 3.16786,117.98648z" fill="#ffffff" stroke="#000000" stroke-width="2"/><g stroke="none"><g><g stroke-width="0"><g><g><path d="M272.63735,308.71639c0,0 -1.12431,-5.46654 -0.95389,-13.00174c0.13279,-5.87166 1.48592,-13.16223 1.94733,-19.04278c0.48638,-6.19883 1.97115,-5.63814 2.44515,-11.75842c0.25115,-3.24283 -0.69215,-6.27918 -0.55822,-8.84907c0.24115,-4.62726 1.49652,-8.05198 1.91169,-10.64583c0.39663,-2.478 -2.46665,-8.43514 -2.45723,-8.84546c0.26279,-11.44479 -0.26455,-15.04561 -0.06908,-20.60715c0.32461,-9.23602 1.55112,-15.84863 1.55112,-15.84863c0,0 -0.45337,-4.15326 -0.25044,-9.01058c0.23309,-5.5793 1.55758,-9.23721 2.07071,-12.23049c2.80819,-16.3811 21.40382,-27.89884 21.40382,-27.89884c0,0 1.48376,2.6407 1.60057,8.32547c0.14774,7.19045 -1.03738,18.824 -0.71423,31.41194c0.16964,6.60792 0.76925,13.91903 0.88564,21.08724c0.05563,3.42663 -1.83219,7.23338 -1.74564,10.67335c0.20883,8.3002 2.27942,17.04153 2.45946,24.65041c0.12748,5.38737 -1.76529,11.17357 -1.58012,15.75178c0.23598,5.83443 4.86958,22.59972 4.98109,25.80687c0.30278,8.70833 -0.45119,18.62506 -0.45119,18.62506c0,0 -3.35596,3.21889 -16.78169,3.55139c-10.62098,0.26304 -15.69486,-2.14454 -15.69486,-2.14454z" fill="url(#color-1)"/><path d="M336.84542,305.65094c0,0 2.60125,-5.7372 2.50377,-11.39161c-0.05417,-3.14192 -0.50997,-8.55127 -0.7373,-15.63807c-0.18842,-5.87399 3.66594,-9.04843 3.41039,-16.64468c-0.21137,-6.28286 -1.81945,-6.50377 -2.20046,-13.53606c-0.49036,-9.05042 1.35791,-14.71384 0.8083,-24.43647c-0.11162,-1.9745 0.76525,-2.76523 0.63933,-4.7557c-0.34599,-5.46933 0.3281,-16.6809 -0.13562,-22.112c-0.27416,-3.21089 -3.2673,-10.79429 -3.58941,-13.76702c-0.238,-2.19646 0.33548,-3.48504 0.12585,-5.46077c-0.98466,-9.28032 -3.25557,-16.43499 -3.88682,-21.1778c-0.63538,-4.7738 0.37212,-7.10542 0.37212,-7.10542c0,0 22.52851,8.63413 26.22214,24.96527c0.66275,2.9303 1.55376,7.69727 1.9283,12.87814c0.3193,4.41687 0.12715,9.10737 0.57561,13.5126c0.78535,7.71452 3.21175,16.56706 3.88404,25.37337c0.69544,9.10952 -2.15776,18.57195 -1.74771,27.54698c0.2891,6.32771 0.08476,12.55742 0.52214,18.26737c1.53873,20.08807 3.92056,33.38224 3.92056,33.38224c0,0 -5.47789,2.60533 -14.85812,3.03411c-9.32198,0.42612 -17.75709,-2.93449 -17.75709,-2.93449z" fill="url(#color-2)"/><path d="M271.68347,295.71468c0.13279,-5.87166 1.48592,-13.16223 1.94733,-19.04278c0.48638,-6.19883 1.97115,-5.63814 2.44515,-11.75842c0.05157,-0.66584 0.05278,-1.32298 0.0233,-1.96916c0.30152,0.11717 0.59046,0.21712 0.84537,0.30309c3.77278,1.27242 6.11373,0.84918 9.84421,-0.47313c3.88616,-3.76562 2.72304,-9.28145 1.17314,-13.92007c-0.40062,-1.19899 -1.26325,-2.35335 -1.46197,-3.59489c-0.4105,-2.56466 1.23781,-5.36955 1.8485,-7.81229c1.2546,-3.75576 0.61271,-7.22112 1.15767,-11.03512c0.29064,-2.03408 1.2136,-3.94339 1.49495,-5.9635c0.421,-3.0227 -0.17038,-7.5832 -1.12528,-10.4479c0.0204,-4.09183 -1.09048,-8.67897 -0.37509,-12.80792c0.82335,-4.7521 1.13819,-9.92381 1.13819,-14.78884c0,-1.35806 0.39282,-2.87374 0.37436,-4.16441c-0.05433,-3.79857 -2.96233,-10.31788 -6.71098,-11.42134c-0.30947,-0.0911 -0.60679,-0.13458 -0.8942,-0.14016c6.44534,-9.61509 16.27021,-15.70041 16.27021,-15.70041c0,0 1.48376,2.6407 1.60057,8.32547c0.14774,7.19045 -1.03738,18.824 -0.71423,31.41194c0.16964,6.60792 0.76925,13.91903 0.88564,21.08724c0.05563,3.42663 -1.83219,7.23338 -1.74564,10.67335c0.20883,8.3002 2.27942,17.04153 2.45946,24.65041c0.12748,5.38737 -1.76529,11.17357 -1.58012,15.75178c0.23598,5.83443 4.86958,22.59972 4.98109,25.80687c0.30278,8.70833 -0.45119,18.62506 -0.45119,18.62506c0,0 -3.35596,3.21889 -16.78169,3.55139c-10.61403,0.26287 -15.68821,-2.14139 -15.69485,-2.14454c-0.00228,-0.01109 -1.12413,-5.47417 -0.95389,-13.00172z" fill-opacity="0.06275" fill="#000000"/><path d="M336.84543,305.65094c0,0 2.60125,-5.7372 2.50377,-11.39161c-0.05417,-3.14192 -0.50997,-8.55127 -0.7373,-15.63807c-0.18842,-5.87399 3.66594,-9.04843 3.41039,-16.64468c-0.21137,-6.28286 -1.81945,-6.50377 -2.20046,-13.53606c-0.49036,-9.05042 1.35791,-14.71384 0.8083,-24.43647c-0.11162,-1.9745 0.76525,-2.76523 0.63933,-4.7557c-0.34599,-5.46933 0.3281,-16.6809 -0.13562,-22.112c-0.27416,-3.21089 -3.2673,-10.79429 -3.58941,-13.76702c-0.238,-2.19646 0.33548,-3.48504 0.12585,-5.46077c-0.98466,-9.28032 -3.25557,-16.43499 -3.88682,-21.1778c-0.63538,-4.7738 0.37212,-7.10542 0.37212,-7.10542c0,0 17.81362,6.82713 24.35743,19.82249c-3.04402,-3.00841 -8.26249,-5.4989 -10.8617,-0.18006c-1.2864,2.63238 0.30798,6.31355 0.96196,8.92645c1.71638,8.58191 1.7474,17.0058 1.79379,25.76932c0.53951,2.15804 0.06186,4.45246 0.25458,6.68559c0.13297,1.54079 0.87502,2.92875 1.03875,4.43701c0.31046,2.85998 -0.2982,5.76904 -0.52142,8.58996c-0.23111,2.92067 0.3062,6.16006 0.78619,9.0415c0.37733,2.26337 1.29919,5.16949 1.02855,7.47338c-0.15774,1.34277 -0.89422,2.5361 -1.03729,3.90362c-0.48018,4.58999 -0.3513,9.34471 0.56659,13.87367c0.74559,1.50426 1.29109,2.45409 2.8642,3.17436c1.22208,0.55955 3.79099,1.76878 5.13334,1.63746c1.52063,-0.14876 2.54278,-1.18817 3.65168,-2.02016c0.34555,-0.25926 0.68212,-0.52363 1.00936,-0.79369c0.06041,4.21896 0.06188,8.33042 0.35851,12.20283c1.53873,20.08807 3.92056,33.38224 3.92056,33.38224c0,0 -5.47789,2.60533 -14.85812,3.03411c-9.32198,0.42612 -17.75709,-2.93449 -17.75709,-2.93449z" fill-opacity="0.06275" fill="#000000"/><path d="M271.68347,295.71468c0.13279,-5.87166 1.48592,-13.16223 1.94733,-19.04278c0.34518,-4.39931 1.19323,-5.39403 1.82595,-7.78855c6.79145,4.21004 17.8274,2.73317 17.8274,-7.01546c1.15738,-3.3232 0.83533,-7.35073 0.32616,-10.75742c-0.30108,-2.0144 -1.63762,-3.86594 -1.95695,-5.87084c-0.4334,-2.72112 0.66523,-6.41759 0.66523,-9.2984c-0.01317,-2.07892 1.04063,-3.72424 1.29714,-5.74866c0.33935,-2.67821 -0.29503,-5.47261 0,-8.15395c0.207,-1.88125 1.60894,-3.80761 1.63828,-5.66687c0.02541,-1.61026 -0.47876,-4.167 -0.99139,-5.70487c0.06298,-9.72951 0.01291,-19.23021 0.01291,-28.86787c0,-5.60411 -0.76883,-12.72249 -6.01895,-16.18007c-1.06587,-0.70195 -2.31415,-0.65581 -3.49604,-0.84598c6.37907,-8.50686 14.91777,-13.79554 14.91777,-13.79554c0,0 1.48376,2.6407 1.60057,8.32547c0.14774,7.19045 -1.03738,18.824 -0.71423,31.41194c0.16964,6.60792 0.76925,13.91903 0.88564,21.08724c0.05563,3.42663 -1.83219,7.23338 -1.74564,10.67335c0.20883,8.3002 2.27942,17.04153 2.45946,24.65041c0.12748,5.38737 -1.76529,11.17357 -1.58012,15.75178c0.23598,5.83443 4.86958,22.59972 4.98109,25.80687c0.30278,8.70833 -0.45119,18.62506 -0.45119,18.62506c0,0 -3.35596,3.21889 -16.78169,3.55139c-10.61403,0.26287 -15.68821,-2.14138 -15.69485,-2.14453c-0.00228,-0.01108 -1.12413,-5.47418 -0.95389,-13.00173z" fill-opacity="0.06275" fill="#000000"/><path d="M336.84543,305.65094c0,0 2.60125,-5.7372 2.50377,-11.39161c-0.05417,-3.14192 -0.50997,-8.55127 -0.7373,-15.63807c-0.18842,-5.87399 3.66594,-9.04843 3.41039,-16.64468c-0.21137,-6.28286 -1.81945,-6.50377 -2.20046,-13.53606c-0.49036,-9.05042 1.35791,-14.71384 0.8083,-24.43647c-0.11162,-1.9745 0.76525,-2.76523 0.63933,-4.7557c-0.34599,-5.46933 0.3281,-16.6809 -0.13562,-22.112c-0.27416,-3.21089 -3.2673,-10.79429 -3.58941,-13.76702c-0.238,-2.19646 0.33548,-3.48504 0.12585,-5.46077c-0.98466,-9.28032 -3.25557,-16.43499 -3.88682,-21.1778c-0.63538,-4.7738 0.37212,-7.10542 0.37212,-7.10542c0,0 12.39019,4.74858 20.29982,13.86353c-2.44147,-0.04324 -4.94695,-0.04133 -7.15084,1.10392c-4.18391,2.17417 -3.81524,9.82473 -2.83626,13.74066c0.0143,3.54286 1.3111,7.18881 1.29907,10.70316c-0.01906,5.56867 0.64514,11.14317 0.6633,16.7321c0.9247,2.77411 0.21907,6.22468 0.65232,9.13242c0.2577,1.72959 1.26671,3.33713 1.29246,5.09672c0.01547,1.05717 -0.83502,2.37237 -0.97172,3.42718c-0.33996,2.62328 -0.65296,5.46033 0,8.07216c0,1.98811 1.32995,3.92387 1.29788,5.78703c-0.04881,2.83514 -0.98819,5.80769 -1.29788,8.6457c-0.44929,4.11738 -0.33365,8.3501 -0.33365,12.51618c0.03095,5.0739 5.45123,10.40219 10.76095,10.45829c2.60174,0.02749 5.23044,-0.92394 7.44693,-2.45674c0.04554,1.95245 0.11992,3.86442 0.26216,5.72143c1.53873,20.08807 3.92056,33.38224 3.92056,33.38224c0,0 -5.47789,2.60533 -14.85812,3.03411c-9.32198,0.42612 -17.75709,-2.93449 -17.75709,-2.93449z" fill-opacity="0.06275" fill="#000000"/><path d="M271.68347,295.71468c0.13176,-5.82602 1.46496,-13.04897 1.93641,-18.90539c0.26384,0.25264 0.53854,0.49599 0.82709,0.72763c2.82645,2.26902 7.95496,1.31105 11.20476,2.1235c2.88489,0.01515 6.907,-0.53186 9.23628,-2.50227c3.25309,-2.75189 4.60574,-10.54126 3.28852,-14.306c0.01749,-2.70256 -0.67142,-5.4608 -0.32074,-8.19774c0.21406,-1.6707 0.70158,-3.68875 0.65981,-5.34071c-0.05525,-2.18496 -1.63179,-3.99343 -1.31212,-6.40097c0.36952,-2.78295 1.62537,-4.91348 1.62537,-7.784c-1.08565,-3.25695 0.14282,-7.05766 -0.32616,-10.43705c-0.83852,-6.04226 -0.31325,-12.65552 -0.31325,-18.75697c0,-7.58143 1.91737,-15.37234 0.97098,-22.95323c-0.33099,-2.65134 -1.31005,-5.18698 -1.31005,-7.86579c-1.84499,-5.72954 -4.231,-12.10601 -9.58351,-14.51946c5.61099,-6.02611 11.41147,-9.61879 11.41147,-9.61879c0,0 1.48376,2.6407 1.60057,8.32547c0.14774,7.19045 -1.03738,18.824 -0.71423,31.41194c0.16964,6.60792 0.76925,13.91903 0.88564,21.08724c0.05563,3.42663 -1.83219,7.23338 -1.74564,10.67335c0.20883,8.3002 2.27942,17.04153 2.45946,24.65041c0.12748,5.38737 -1.76529,11.17357 -1.58012,15.75178c0.23598,5.83443 4.86958,22.59972 4.98109,25.80687c0.30278,8.70833 -0.45119,18.62506 -0.45119,18.62506c0,0 -3.35596,3.21889 -16.78169,3.55139c-10.61403,0.26287 -15.68821,-2.14138 -15.69485,-2.14453c-0.00228,-0.01108 -1.12413,-5.47418 -0.95389,-13.00173z" fill-opacity="0.06275" fill="#000000"/><path d="M336.84543,305.65094c0,0 2.60125,-5.7372 2.50377,-11.39161c-0.05417,-3.14192 -0.50997,-8.55127 -0.7373,-15.63807c-0.18842,-5.87399 3.66594,-9.04843 3.41039,-16.64468c-0.21137,-6.28286 -1.81945,-6.50377 -2.20046,-13.53606c-0.49036,-9.05042 1.35791,-14.71384 0.8083,-24.43647c-0.11162,-1.9745 0.76525,-2.76523 0.63933,-4.7557c-0.34599,-5.46933 0.3281,-16.6809 -0.13562,-22.112c-0.27416,-3.21089 -3.2673,-10.79429 -3.58941,-13.76702c-0.238,-2.19646 0.33548,-3.48504 0.12585,-5.46077c-0.98466,-9.28032 -3.25557,-16.43499 -3.88682,-21.1778c-0.63538,-4.7738 0.37212,-7.10542 0.37212,-7.10542c0,0 8.63178,3.30816 16.08537,9.70223c-2.59906,1.26626 -5.48471,1.81512 -7.51043,4.22491c-3.05168,3.63026 -1.78226,8.28783 -3.14917,12.54165c-0.03885,4.40669 1.82642,8.081 2.27768,12.35021c0.33404,3.16016 1.34038,6.24411 1.6267,9.41888c0.26094,2.89327 0.17219,5.59934 0.65232,8.4801c0.01578,2.29514 0.63636,4.58182 0.33566,6.93281c-0.34956,2.73298 -1.31802,5.98841 -0.98389,8.76247c0.18203,1.51127 1.6233,2.97976 1.6233,4.44403c0,1.9038 -0.97361,4.05119 -0.97361,6.09846c-0.66658,3.33292 0.17176,6.7293 -0.31811,10.04925c-0.93679,6.34881 -1.26292,13.27684 1.67999,19.09813c0.56832,2.26015 -0.24539,4.7108 0.66632,6.88505c1.11097,2.64945 2.71023,2.46337 4.45682,4.23832c4.34972,4.42032 9.19555,5.85742 15.46236,5.8303c1.49775,16.39818 3.37377,26.86918 3.37377,26.86918c0,0 -5.47789,2.60533 -14.85812,3.03411c-9.32198,0.42612 -17.75709,-2.93449 -17.75709,-2.93449z" fill-opacity="0.06275" fill="#000000"/><path d="M271.68347,295.71468c0.06212,-2.74695 0.39134,-5.80444 0.77139,-8.88283c1.05558,0.57932 2.25618,0.94387 3.66751,1.0441c1.52173,0.10807 2.90381,-0.82583 4.31766,-1.08803c1.9376,-0.35932 3.78669,0.48701 5.63147,0.85892c8.03956,1.32062 13.35369,-4.438 17.05612,-10.85224c1.19965,5.3109 2.38182,10.28915 2.43747,11.88988c0.30278,8.70833 -0.45119,18.62506 -0.45119,18.62506c0,0 -3.35596,3.21889 -16.78169,3.55139c-10.61403,0.26287 -15.68821,-2.14138 -15.69485,-2.14453c-0.00228,-0.01108 -1.12413,-5.47418 -0.95389,-13.00173z" fill-opacity="0.06275" fill="#000000"/><path d="M336.84543,305.65094c0,0 2.60125,-5.7372 2.50377,-11.39161c-0.05417,-3.14192 -0.50997,-8.55127 -0.7373,-15.63807c-0.05071,-1.58102 0.19145,-2.96646 0.56752,-4.2952c2.78137,3.96807 6.42287,7.17869 11.24658,8.56441c3.80736,1.63723 7.87334,3.71468 12.13401,3.70109c1.466,-0.00468 2.85544,-0.43594 4.21152,-1.01325c1.32874,12.38008 2.68912,19.97301 2.68912,19.97301c0,0 -5.47789,2.60533 -14.85812,3.03411c-9.32198,0.42612 -17.75709,-2.93449 -17.75709,-2.93449z" fill-opacity="0.06275" fill="#000000"/><path d="M305.56509,288.68449c0.30278,8.70833 -0.45119,18.62506 -0.45119,18.62506c0,0 -3.35596,3.21889 -16.78169,3.55139c-10.61403,0.26287 -15.68821,-2.14138 -15.69485,-2.14453c-0.0009,-0.00436 -0.175,-0.85221 -0.37556,-2.3374c3.99409,-0.78628 7.90789,-2.0602 11.76647,-3.34761c7.9182,-3.24703 16.49387,-7.26688 21.53447,-14.40347c0.00094,0.0193 0.00173,0.03815 0.00237,0.05656z" fill-opacity="0.06275" fill="#000000"/><path d="M336.84543,305.65094c0,0 2.60125,-5.7372 2.50377,-11.39161c-0.03292,-1.90962 -0.21421,-4.65684 -0.40239,-8.1092c4.08946,4.00253 9.435,6.93976 14.11909,9.74801c4.63747,2.31963 10.24397,4.81899 15.64897,4.98778c0.4502,3.01553 0.74579,4.66539 0.74579,4.66539c0,0 -5.47789,2.60533 -14.85812,3.03411c-9.32198,0.42612 -17.75709,-2.93449 -17.75709,-2.93449z" fill-opacity="0.06275" fill="#000000"/></g><path d="M297.69444,256.34718c2.74669,-3.57209 3.87437,-9.02764 4.20793,-13.45936c0.13443,1.44361 0.22911,2.85941 0.26173,4.23803c0.08366,3.53538 -0.70269,7.24251 -1.20089,10.6673c-4.64313,4.33467 -7.65505,5.17847 -14.86627,6.30046c5.02327,-2.34764 8.18293,-3.30575 11.5975,-7.74642z" fill-opacity="0.06275" fill="#000000"/><path d="M274.97218,236.57312c0.04221,-1.83817 0.06403,-3.47399 0.07174,-4.94809c1.19644,3.22481 1.27498,6.54988 3.66039,9.07992c3.43225,3.64034 9.18298,5.88045 9.18298,5.88045c0,0 -3.39517,-0.52836 -6.26474,-1.62647c-2.05464,-0.78626 -3.60144,-2.18245 -4.53858,-2.42052c-0.70107,-2.63793 -2.11843,-5.67639 -2.1118,-5.96528z" fill-opacity="0.06275" fill="#000000"/><path d="M276.20379,191.10678c0.14406,-3.44823 0.70501,-6.16253 1.23364,-8.43962c0.30686,5.88996 -0.22661,11.02631 2.05975,15.19835c1.89228,3.45292 6.25697,6.07451 9.7884,9.44447c-4.46564,-1.06091 -7.60245,-1.61265 -10.5848,-5.10165c-0.84711,-0.99102 -1.68194,-1.77485 -2.32151,-2.9029c-0.11935,-1.44041 -0.3246,-4.62945 -0.17549,-8.19865z" fill-opacity="0.06275" fill="#000000"/><path d="M339.82183,248.44058c-0.0212,-0.39131 -0.03803,-0.7763 -0.05087,-1.15555c1.29825,4.04564 2.89461,8.40533 5.58036,11.81491c2.74261,3.48177 5.26539,6.69774 10.09061,8.51472c-6.01185,-0.68971 -9.21309,-4.07345 -13.61561,-8.22507c-0.49537,-3.93792 -1.68401,-5.03392 -2.00449,-10.94901z" fill-opacity="0.06275" fill="#000000"/></g><path d="M282.88184,193.14026l0.00167,-0.00041l0.01394,-0.02438l0.12198,-0.06099l0.87861,-0.75309l0.59044,-0.0738l0.03388,-0.01311l0.03617,0.00335l1.64068,-0.25241l1.77369,-0.12669l0.01886,-0.00618l0.01959,0.00313l3.02918,-0.26341l1.91928,-0.08723l-1.16491,0.45302l-1.56901,0.48277l-1.50518,0.34734l-2.26262,0.23817h-1.61001l-0.08838,0.0221l-0.08974,-0.01574l-1.78622,0.12758z" fill-opacity="0.06275" fill="#000000"/><path d="M279.75835,174.43279h0.09405l0.19678,0.0492l0.8453,0.24151l0.62763,0.20921l1.31176,0.59625l1.21213,0.60607l1.11289,0.66773l1.76968,1.41575l1.46289,1.46289l0.27999,0.3111l-1.50116,-0.50038l-2.35367,-0.91532l-0.00475,-0.0006l-0.00392,-0.00275l-1.62858,-0.62638l-1.94923,-0.97461l-1.22888,-0.73732l-0.95317,-0.60657c0.1245,-0.40857 0.25812,-0.81354 0.40026,-1.2148c0.10157,0.01256 0.20503,0.01903 0.31,0.01903z" fill-opacity="0.06275" fill="#000000"/><path d="M288.73926,216.3225c5.38322,-1.87071 8.72062,-4.65906 12.61521,-8.15729c0.04277,1.21365 0.07617,2.42729 0.09581,3.63686c0.00693,0.42701 -0.01631,0.8599 -0.06216,1.29727c-2.09071,5.84174 -13.14748,7.5711 -18.27647,5.4466c-0.33657,-0.13942 -0.61063,-0.37742 -0.84791,-0.67184c2.64256,-0.27503 5.96029,-1.37255 6.47552,-1.55159z" fill-opacity="0.06275" fill="#000000"/></g><path d="M354.33644,224.12102c2.04588,-1.28491 4.17282,-1.94081 6.459,-2.25148c0.73626,-0.10005 3.18101,0.3991 3.18101,0.3991c0,0 -1.35702,1.56572 -2.08219,2.17457c-2.0282,1.70285 -4.50541,2.60124 -7.17928,2.27585c-1.80959,-0.51635 -2.81521,-0.99184 -2.81521,-0.99184c0,0 2.14407,-1.69499 2.43667,-1.60619z" fill-opacity="0.06275" fill="#000000" stroke-width="0.5"/><path d="M360.64716,212.29751c0.60125,-0.22306 2.74513,-0.21865 2.74513,-0.21865c0,0 -1.26941,2.14197 -2.28375,2.97527c-2.17973,1.79067 -7.52046,3.00426 -7.52046,3.00426c0,0 0.0665,-1.63528 2.15376,-2.85257z" fill-opacity="0.06275" fill="#000000" stroke-width="0.5"/><path d="M352.10495,178.27994c2.24861,1.17556 4.07325,3.44356 5.1609,5.58205c0.53927,1.06029 1.1954,3.00923 1.1954,3.00923c0,0 -2.13636,-0.38188 -2.79226,-0.61442c-3.94721,-1.39944 -6.2873,-8.75001 -6.2873,-8.75001l1.98274,0.16282c0,0 0.65372,0 0.74052,0.61032z" fill-opacity="0.06275" fill="#000000" stroke-width="0.5"/></g><g stroke-width="0"><path d="M295.10128,305.14932c0,0 -1.29652,-1.38748 -1.73139,-3.92716c-0.49754,-2.90568 -0.17618,-7.29151 -0.79904,-12.351c-0.29681,-2.41098 -1.17617,-4.74048 -1.3188,-7.47533c-0.23161,-4.44105 0.57559,-9.19051 0.94365,-14.13338c0.40007,-5.37269 0.36381,-10.99041 0.06979,-17.12081c-0.20326,-4.238 -1.47261,-8.53614 -1.61459,-12.82094c-0.11103,-3.35078 2.32024,-6.33341 2.20338,-9.64073c-0.24532,-6.94279 -1.6412,-13.714 -1.80316,-19.99527c-0.10512,-4.07709 1.25051,-7.31829 1.16025,-10.91069c-0.20015,-7.96599 -0.70555,-13.57347 -0.75578,-17.90702c-0.1233,-10.63646 1.91842,-22.72245 1.91842,-22.72245c0,0 10.90027,-10.89942 25.37142,-10c2.90653,0.18065 5.43387,1.06458 7.7891,1.51571c15.35079,2.94035 19.61938,10.12065 19.61938,10.12065c0,0 1.3691,-0.44314 1.59921,11.36196c0.05785,2.96754 -1.74473,13.52221 -1.56875,17.08912c0.20501,4.15526 2.82444,11.53295 2.91917,16.0096c0.14064,6.64603 -1.79851,11.75242 -1.6405,18.81861c0.09557,4.27392 0.55064,5.53005 0.63514,9.89419c0.04397,2.27055 0.62948,4.27402 0.665,6.54809c0.04179,2.67557 -2.00405,11.6827 -1.95545,14.27752c0.05584,2.9814 1.02062,5.71769 1.07584,8.54747c0.10905,5.58864 1.28755,10.83281 1.34599,15.53972c0.05598,4.50908 -1.3507,9.87125 -1.31349,13.18581c0.03615,3.2211 0.69238,6.42638 0.69238,8.18271c0,5.2945 -2.45455,7.91363 -2.45455,7.91363c0,0 -17.73873,4.45455 -26.31757,4.45455c-8.43631,0 -24.73506,-4.45455 -24.73506,-4.45455z" fill="url(#color-3)"/><path d="M294.14482,266.54866c0,0 1.36221,-5.78598 2.08647,-11.85753c0.58291,-4.88666 0.49287,-9.95829 0.93054,-12.34721c0.50507,-2.75681 2.46348,-5.70912 2.46348,-5.70912c0,0 4.85564,-5.97784 8.52184,-6.46042c2.78185,-0.36617 7.19959,0.34473 11.76654,0.48788c8.476,0.26567 17.46599,0.33511 17.46599,0.33511c0,0 1.30264,-0.03865 1.86981,1.06699c1.62613,3.16997 3.96226,10.54946 4.94916,14.65198c0.4667,1.94008 -0.3759,4.17102 0.0382,7.02349c0.72988,5.02775 2.59153,10.67316 2.59153,10.67316c0,0 -11.19692,6.14784 -24.62111,6.11846c-13.92855,-0.03049 -28.06244,-3.98279 -28.06244,-3.98279z" fill="url(#color-4)"/><path d="M294.14482,266.54866c0,0 1.36221,-5.78598 2.08647,-11.85753c0.58292,-4.88665 0.49286,-9.95829 0.93054,-12.34721c0.50507,-2.75681 2.46348,-5.70912 2.46348,-5.70912c0,0 4.85564,-5.97784 8.52184,-6.46042c2.78186,-0.36617 7.19959,0.34473 11.76654,0.48788c8.476,0.26567 17.46599,0.33511 17.46599,0.33511c0,0 1.30264,-0.03865 1.86981,1.06699c1.62613,3.16997 3.96227,10.54946 4.94916,14.65198c0.4667,1.94008 -0.3759,4.17102 0.0382,7.02349c0.72988,5.02775 2.59153,10.67316 2.59153,10.67316c0,0 -11.19692,6.14784 -24.62111,6.11846c-13.92855,-0.03049 -28.06244,-3.98279 -28.06244,-3.98279zM329.56836,233.2862c-2.19665,-0.07069 -9.90049,0.01816 -15.0264,-0.17378c-3.2977,-0.12348 -6.66362,-0.83459 -9.6356,1.02404c-1.2085,0.75416 -1.57124,0.92464 -0.37685,3.03112c0.69025,1.21735 4.64206,1.90253 5.94345,2.2924c5.60017,1.67768 9.40044,2.13366 15.45214,1.66528c4.21578,-0.60033 10.72272,-0.50914 13.18522,-4.33381c1.72304,-2.67617 -7.2884,-3.43272 -9.54197,-3.50524z" fill-opacity="0.06275" fill="#000000"/><path d="M294.14482,266.54866c0,0 1.36221,-5.78598 2.08647,-11.85753c0.58292,-4.88665 0.49286,-9.95829 0.93054,-12.34721c0.20615,-1.1252 0.6544,-2.28297 1.11279,-3.25928c0.81404,0.84332 1.63048,1.68433 2.45921,2.51235c4.09661,3.51445 8.84073,6.87228 14.40911,7.41954c3.12178,0.30681 6.31327,0.19172 9.44663,0.41156c6.0639,-0.34795 14.77901,-2.36482 18.04643,-8.28825c0.63753,2.05589 1.19415,4.04464 1.56265,5.57651c0.4667,1.94008 -0.3759,4.17102 0.0382,7.02349c0.72988,5.02775 2.59153,10.67316 2.59153,10.67316c0,0 -11.19692,6.14784 -24.62111,6.11846c-13.92855,-0.03049 -28.06244,-3.98279 -28.06244,-3.98279z" fill-opacity="0.06275" fill="#000000"/><path d="M294.14482,266.54866c0,0 1.36221,-5.78598 2.08647,-11.85753c0.11428,-0.95804 0.2027,-1.92319 0.27429,-2.87384c7.81131,5.45816 15.95765,7.53057 25.73133,7.53458c8.65015,-0.00354 14.85687,-0.87029 21.94772,-6.02775c0.01458,0.1371 0.03188,0.27566 0.05221,0.41572c0.72988,5.02775 2.59153,10.67316 2.59153,10.67316c0,0 -11.19692,6.14784 -24.62111,6.11846c-13.92855,-0.03049 -28.06244,-3.98279 -28.06244,-3.98279z" fill-opacity="0.06275" fill="#000000"/><path d="M295.10128,305.14932c0,0 -1.29652,-1.38748 -1.73139,-3.92716c-0.49754,-2.90568 -0.17618,-7.29151 -0.79904,-12.351c-0.29681,-2.41098 -1.17617,-4.74048 -1.3188,-7.47533c-0.23161,-4.44105 0.57559,-9.19051 0.94365,-14.13338c0.40007,-5.37269 0.36381,-10.99041 0.06979,-17.12081c-0.20326,-4.238 -1.47261,-8.53614 -1.61459,-12.82094c-0.11103,-3.35078 2.32024,-6.33341 2.20338,-9.64073c-0.24532,-6.94279 -1.6412,-13.714 -1.80316,-19.99527c-0.01894,-0.73445 0.00953,-1.44178 0.06841,-2.12892c1.20248,7.89942 3.33211,15.39019 10.02074,20.58523c4.31671,1.2867 7.41552,-1.12202 11.45719,-2.28905c4.34625,-1.25497 9.27005,-1.24007 13.75702,-1.24007c4.21341,-0.01422 6.53506,2.43466 10.29596,3.42368c2.65128,0.69722 6.60532,-0.12655 8.05695,-2.67162c1.07523,-1.88513 1.40553,-4.3965 1.92483,-6.48315c0.74794,-5.93202 0.85791,-11.65421 1.28778,-17.57563c0.12483,-1.71956 -0.08816,-3.42718 -0.22288,-5.139c0.68821,2.9072 1.35931,5.84981 1.40641,8.07539c0.14064,6.64603 -1.79851,11.75242 -1.6405,18.81861c0.09557,4.27392 0.55064,5.53005 0.63514,9.89419c0.04397,2.27055 0.62948,4.27402 0.665,6.54809c0.04179,2.67557 -2.00405,11.6827 -1.95545,14.27752c0.05584,2.9814 1.02062,5.71769 1.07584,8.54747c0.10905,5.58864 1.28755,10.83281 1.34599,15.53972c0.05598,4.50908 -1.3507,9.87125 -1.31349,13.18581c0.03615,3.2211 0.69238,6.42638 0.69238,8.18271c0,5.2945 -2.45455,7.91363 -2.45455,7.91363c0,0 -17.73873,4.45455 -26.31757,4.45455c-8.43631,0 -24.73506,-4.45455 -24.73506,-4.45455z" fill-opacity="0.06275" fill="#000000"/><path d="M291.45559,178.86699c-0.1233,-10.63646 1.91842,-22.72245 1.91842,-22.72245c0,0 10.90027,-10.89942 25.37142,-10c2.90653,0.18065 5.43387,1.06458 7.7891,1.51571c15.35079,2.94035 19.61938,10.12065 19.61938,10.12065c0,0 1.3691,-0.44314 1.59921,11.36196c0.03413,1.75062 -0.57919,6.14163 -1.05182,10.18082c-6.97423,-1.04757 -13.13047,6.29375 -18.88291,9.16826c-3.87579,1.5478 -9.65923,4.02211 -13.9087,2.38153c-2.7677,-1.06852 -4.74931,-3.5174 -7.08894,-5.19661c-4.25781,-3.55073 -9.83557,-5.60869 -15.33029,-5.24209c-0.017,-0.54102 -0.02902,-1.06304 -0.03487,-1.56779z" fill-opacity="0.06275" fill="#000000"/><path d="M295.10128,305.14932c0,0 -1.29652,-1.38748 -1.73139,-3.92716c-0.49754,-2.90568 -0.17618,-7.29151 -0.79904,-12.351c-0.29681,-2.41098 -1.17617,-4.74048 -1.3188,-7.47533c-0.23161,-4.44105 0.57559,-9.19051 0.94365,-14.13338c0.40007,-5.37269 0.36381,-10.99041 0.06979,-17.12081c-0.20326,-4.238 -1.47261,-8.53614 -1.61459,-12.82094c-0.11103,-3.35078 2.32024,-6.33341 2.20338,-9.64073c-0.03244,-0.91809 -0.085,-1.83317 -0.15216,-2.74452c1.6697,3.81622 4.73677,8.8877 9.04485,8.31895c1.83978,-0.24289 2.65132,-1.80321 3.8096,-2.9615c1.46495,-1.46495 3.1985,-2.35039 5.19035,-2.84247c4.78158,-1.36548 10.71026,-2.49286 15.70277,-1.94551c2.62295,0.28756 4.65583,1.68559 6.98364,2.57443c1.65979,1.11924 2.84983,2.88818 4.71966,3.69674c4.91743,2.12641 8.1508,-0.57421 9.76326,-4.38814c0.08391,0.99382 0.15367,2.10614 0.18195,3.56644c0.04397,2.27055 0.62948,4.27402 0.665,6.54809c0.04179,2.67557 -2.00405,11.6827 -1.95545,14.27752c0.05584,2.9814 1.02062,5.71769 1.07584,8.54747c0.10905,5.58864 1.28755,10.83281 1.34599,15.53972c0.05598,4.50908 -1.3507,9.87125 -1.31349,13.18581c0.03615,3.2211 0.69238,6.42638 0.69238,8.18271c0,5.2945 -2.45455,7.91363 -2.45455,7.91363c0,0 -17.73873,4.45455 -26.31757,4.45455c-8.43631,0 -24.73506,-4.45455 -24.73506,-4.45455z" fill-opacity="0.06275" fill="#000000"/><path d="M293.37401,156.14452c0,0 10.90027,-10.89942 25.37142,-10c2.90653,0.18065 5.43387,1.06458 7.7891,1.51571c15.35079,2.94035 19.61938,10.12065 19.61938,10.12065c0,0 1.3691,-0.44314 1.59921,11.36196c0.02263,1.16067 -0.23935,3.48199 -0.55623,6.09191c-6.08655,-1.69216 -10.62583,2.35052 -16.1249,5.09124c-4.7566,2.03621 -10.09495,5.03647 -15.2248,2.68041c-2.08092,-0.95573 -3.98191,-3.07937 -5.73459,-4.53833c-4.91783,-3.5094 -12.41902,-5.99654 -18.59317,-4.11278c0.34412,-9.26957 1.85458,-18.21076 1.85458,-18.21076z" fill-opacity="0.06275" fill="#000000"/><path d="M295.10128,305.14932c0,0 -1.29652,-1.38748 -1.73139,-3.92716c-0.49754,-2.90568 -0.17618,-7.29151 -0.79904,-12.351c-0.29681,-2.41098 -1.17617,-4.74048 -1.3188,-7.47533c-0.23161,-4.44105 0.57559,-9.19051 0.94365,-14.13338c0.39641,-5.32355 0.36444,-10.88766 0.07779,-16.95272c0.61336,0.57894 1.2986,1.09511 2.01128,1.56315c0.43845,0.402 0.92397,0.71486 1.45159,0.87784c0.15234,0.08568 0.30459,0.16969 0.45632,0.25215c1.41069,0.76668 2.41349,2.01942 3.94123,2.60373c2.94523,1.12645 6.8471,0.5079 9.89876,0.06551c4.32227,-0.02664 8.59214,-2.00319 12.93543,-2.36723c4.18051,-0.3504 8.58615,0.64047 12.52513,1.95438c4.5039,1.48884 8.19894,1.35663 11.62557,-0.44636c0.30535,1.8611 0.72872,3.66792 0.76475,5.51455c0.10905,5.58864 1.28755,10.83281 1.34599,15.53972c0.05598,4.50908 -1.3507,9.87125 -1.31349,13.18581c0.03615,3.2211 0.69238,6.42638 0.69238,8.18271c0,5.2945 -2.45455,7.91363 -2.45455,7.91363c0,0 -17.73873,4.45455 -26.31757,4.45455c-8.43631,0 -24.73506,-4.45455 -24.73506,-4.45455z" fill-opacity="0.06275" fill="#000000"/><path d="M293.37401,156.14452c0,0 10.90027,-10.89942 25.37142,-10c2.90653,0.18065 5.43387,1.06458 7.7891,1.51571c15.35079,2.94035 19.61938,10.12065 19.61938,10.12065c0,0 1.3691,-0.44314 1.59921,11.36196c0.00349,0.17917 0.0002,0.38599 -0.00902,0.61727c-5.88855,-2.21528 -12.0044,2.40244 -17.59552,5.18377c-2.52814,1.68543 -7.56214,4.69709 -10.77164,3.92529c-3.3985,-0.81724 -6.26701,-4.34764 -9.34374,-5.89693c-5.73289,-2.85558 -11.47087,-6.31405 -17.99902,-6.24486c0.56609,-6.00265 1.33983,-10.58286 1.33983,-10.58286z" fill-opacity="0.06275" fill="#000000"/><path d="M293.37401,156.14452c0,0 10.90027,-10.89942 25.37142,-10c2.90653,0.18065 5.43387,1.06458 7.7891,1.51571c15.35079,2.94035 19.61938,10.12065 19.61938,10.12065c0,0 1.3691,-0.44314 1.59921,11.36196c0.02188,1.12252 -0.41606,5.65418 -0.7188,8.15906c-6.75986,-2.55796 -11.63988,2.48543 -16.77861,6.15594c-4.49015,3.00298 -11.78492,4.42656 -16.91847,1.96423c-2.14893,-1.03075 -4.80267,-3.55601 -6.74734,-4.85485c-5.02173,-2.24894 -9.63905,-3.48462 -15.18894,-3.64534c0.19865,-9.86 1.97305,-20.77735 1.97305,-20.77735z" fill-opacity="0.06275" fill="#000000"/><path d="M293.37401,156.14452c0,0 10.90027,-10.89942 25.37142,-10c2.90653,0.18065 5.43387,1.06458 7.7891,1.51571c15.35079,2.94035 19.61938,10.12065 19.61938,10.12065c0,0 1.3691,-0.44314 1.59921,11.36196c0.01526,0.78249 -0.09884,2.09251 -0.27191,3.66283c-4.43067,-0.29958 -5.32485,-1.61035 -9.0545,0.02084c-1.76904,0.7737 -7.90165,4.14308 -9.23496,5.47891c-3.00832,2.52281 -9.5732,4.19402 -13.08175,2.02092c-2.15341,-1.33376 -4.55338,-3.22625 -6.48963,-4.83777c-4.68871,-3.35322 -11.76441,-7.00454 -17.86352,-5.51529c0.57664,-7.42674 1.61716,-13.82876 1.61716,-13.82876z" fill-opacity="0.06275" fill="#000000"/><path d="M295.10128,305.14932c0,0 -1.29652,-1.38748 -1.73139,-3.92716c-0.49754,-2.90568 -0.17618,-7.29151 -0.79904,-12.351c-0.29681,-2.41098 -1.17617,-4.74048 -1.3188,-7.47533c-0.23161,-4.44105 0.57559,-9.19051 0.94365,-14.13338c0.10804,-1.4509 0.18426,-2.91967 0.23217,-4.41158c2.09618,1.25438 4.26846,2.35541 6.448,3.21974c6.23679,1.1533 12.77423,1.14165 19.08764,0.74191c3.17293,-0.2009 6.25783,-0.98495 9.44497,-0.98679c3.71225,-0.45832 7.73199,-0.5465 11.48738,-0.562c2.11666,-0.00873 3.31857,0.40461 5.42609,-0.34189c1.34573,-0.47667 2.61359,-0.7107 3.74304,-1.22151c0.36151,4.33131 1.11802,8.41935 1.16455,12.16683c0.05598,4.50908 -1.3507,9.87125 -1.31349,13.18581c0.03615,3.2211 0.69238,6.42638 0.69238,8.18271c0,5.2945 -2.45455,7.91363 -2.45455,7.91363c0,0 -17.73873,4.45455 -26.31757,4.45455c-8.43631,0 -24.73506,-4.45455 -24.73506,-4.45455z" fill-opacity="0.06275" fill="#000000"/><path d="M295.10128,305.14932c0,0 -1.29652,-1.38748 -1.73139,-3.92716c-0.49754,-2.90568 -0.17618,-7.29151 -0.79904,-12.351c-0.29681,-2.41098 -1.17617,-4.74048 -1.3188,-7.47533c-0.14709,-2.82034 0.12478,-5.76505 0.43707,-8.8047c3.42209,2.23069 8.14224,3.81395 11.30687,4.08583c8.68531,1.06234 17.35444,1.14171 26.09729,1.1316c6.54537,-0.72726 14.34019,-1.10131 19.97081,-4.98432c0.09118,1.03693 0.15315,2.05183 0.16545,3.04292c0.05598,4.50908 -1.3507,9.87125 -1.31349,13.18581c0.03615,3.2211 0.69238,6.42638 0.69238,8.18271c0,5.2945 -2.45455,7.91363 -2.45455,7.91363c0,0 -17.73873,4.45455 -26.31757,4.45455c-8.43631,0 -24.73506,-4.45455 -24.73506,-4.45455z" fill-opacity="0.06275" fill="#000000"/></g><g stroke-width="0"><path d="M348.80059,153.02414c0,0 6.18323,6.83811 0.80736,9.40064c-1.01524,0.48394 -2.54075,1.51686 -4.35356,2.28249c-3.3955,1.43406 -7.79894,2.92991 -11.74501,5.15773c-5.17535,2.92183 -9.18892,6.79235 -13.2683,6.79235c-4.67788,0 -10.88773,-5.43299 -14.70638,-7.85404c-4.26232,-2.70235 -13.83726,-5.31592 -18.03776,-7.9099c-1.93654,-1.19589 -0.78203,-3.71884 -0.55607,-4.32907c0.97718,-2.63898 3.1467,-3.34096 3.1467,-3.34096c0,0 -3.06842,-2.69085 -1.90848,-5.59027c0.63533,-1.58809 4.21286,-3.16901 6.36386,-4.56687c4.72877,-3.07306 16.08494,-4.1114 23.80527,-4.1114c6.41892,0 14.01698,0.86792 20.31396,2.81679c4.63178,1.43349 8.55962,3.68043 10.79651,5.43288c3.08107,2.41381 -0.65809,5.81962 -0.65809,5.81962z" fill="url(#color-5)"/><path d="M342.83738,150.21497c0,1.34472 -5.07241,3.15272 -11.34945,5.84177c-3.56221,1.52603 -7.0602,3.38475 -11.36482,3.38475c-4.57152,0 -9.44692,-2.87094 -12.98689,-4.97404c-5.66699,-3.36677 -10.32024,-4.73367 -10.32024,-6.03107c0,-2.10784 10.60206,-6.55861 22.49194,-6.55861c11.88988,0 23.52946,6.22937 23.52946,8.33721z" fill-opacity="0.12549" fill="#000000"/><path d="M348.80059,153.02414c0,0 6.18323,6.83811 0.80736,9.40064c-1.01524,0.48394 -2.54075,1.51686 -4.35356,2.28249c-3.3955,1.43406 -7.79894,2.92991 -11.74501,5.15773c-5.17535,2.92183 -9.18892,6.79235 -13.2683,6.79235c-4.67788,0 -10.88773,-5.43299 -14.70638,-7.85404c-4.26232,-2.70235 -13.83726,-5.31592 -18.03776,-7.9099c-1.93654,-1.19589 -0.78203,-3.71884 -0.55607,-4.32907c0.97718,-2.63898 3.1467,-3.34096 3.1467,-3.34096c0,0 -3.06842,-2.69085 -1.90848,-5.59027c0.63533,-1.58809 4.21286,-3.16901 6.36386,-4.56687c1.40807,-0.91506 3.40376,-1.6497 5.7161,-2.23025c-3.92429,1.86613 -7.1719,5.02739 -7.13258,9.08561c1.26521,2.89606 4.87474,4.70067 7.61748,6.25516c-2.03345,-0.21141 -5.91497,-1.76271 -6.78252,0.0885c-0.64395,1.37408 2.44028,3.9171 3.93561,4.32492c1.4223,0.3879 2.82046,0.8818 4.22016,1.34747c2.77244,0.6941 5.63597,1.10884 8.19781,2.44919c5.0472,2.64069 8.06997,6.14605 13.71911,2.20705c2.02815,-1.21723 4.06475,-2.49544 6.33867,-3.22101c4.56445,-1.45644 11.92283,-2.60654 15.17418,-6.45138c-0.55483,-1.7168 -6.40101,-0.19255 -7.57091,-0.4098c1.87883,-0.81799 7.33588,-4.55975 8.02833,-6.28688c1.34301,-3.34977 -2.90848,-5.89504 -5.39389,-7.39937c-0.4504,-0.29947 -0.91469,-0.59223 -1.3906,-0.87622c4.38859,1.4366 8.09225,3.57362 10.23879,5.25529c3.08107,2.41381 -0.65809,5.81962 -0.65809,5.81962z" fill-opacity="0.06275" fill="#000000"/><path d="M348.80059,153.02414c0,0 6.18323,6.83811 0.80736,9.40064c-1.01524,0.48394 -2.54075,1.51686 -4.35356,2.28249c-3.3955,1.43406 -7.79894,2.92991 -11.74501,5.15773c-5.17535,2.92183 -9.18892,6.79235 -13.2683,6.79235c-4.67788,0 -10.88773,-5.43299 -14.70638,-7.85404c-4.26232,-2.70235 -13.83726,-5.31592 -18.03776,-7.9099c-1.93654,-1.19589 -0.78203,-3.71884 -0.55607,-4.32907c0.97718,-2.63898 3.1467,-3.34096 3.1467,-3.34096c0,0 -3.06842,-2.69085 -1.90848,-5.59027c0.3708,-0.92687 1.74381,-1.85129 3.25049,-2.7383c-0.23743,0.75324 -0.30028,1.58994 -0.13629,2.49059c0.63114,3.46631 3.21779,5.78969 6.06079,7.40601c-2.02294,-0.43149 -4.29991,-0.98158 -6.10799,-0.10616c-1.97745,0.95742 -1.85282,2.57008 -0.54238,4.04207c0.54247,0.60935 1.19891,1.03979 1.8784,1.47065c1.36138,0.86324 2.74323,1.67619 4.09025,2.56486c2.2952,0.92663 4.94712,0.73783 7.15826,1.70837c0.97265,0.42693 1.46619,1.80305 2.49021,2.08184c0.62639,0.17054 1.35696,0.16915 1.94465,-0.10665c0.46351,-0.21753 0.50528,-1.11041 1.01557,-1.15241c2.42738,-0.19979 4.81159,2.16072 6.07137,3.96099c2.11541,1.19161 5.54272,1.85846 7.66794,0.12911c0.60158,-0.48952 0.81729,-1.32076 1.28188,-1.9418c0.88759,-1.18646 3.05718,-1.8085 4.41064,-2.16442c1.08485,-0.28528 2.12626,0.71938 3.20738,1.01847c1.53355,0.42425 3.47108,-0.63105 4.84387,-1.18485c2.45577,-1.46436 4.84383,-2.74939 7.39036,-4.02247c0.97455,-0.4872 2.74307,-1.16536 3.11142,-2.33075c0.40735,-1.2888 -0.25149,-2.37433 -1.31778,-3.00295c-0.71602,-0.42212 -1.94217,-0.63847 -3.29105,-0.69721c3.34049,-1.89622 5.71885,-5.5552 4.98189,-9.13817c0.68953,0.44394 1.30022,0.8776 1.81971,1.28459c3.08107,2.41381 -0.65809,5.81962 -0.65809,5.81962z" fill-opacity="0.06275" fill="#000000"/><path d="M348.80059,153.02414c0,0 6.18323,6.83811 0.80736,9.40064c-1.01524,0.48394 -2.54075,1.51686 -4.35356,2.28249c-3.3955,1.43406 -7.79894,2.92991 -11.74501,5.15773c-5.17535,2.92183 -9.18892,6.79235 -13.2683,6.79235c-4.67788,0 -10.88773,-5.43299 -14.70638,-7.85404c-4.26232,-2.70235 -13.83726,-5.31592 -18.03776,-7.9099c-1.93654,-1.19589 -0.78203,-3.71884 -0.55607,-4.32907c0.97718,-2.63898 3.1467,-3.34096 3.1467,-3.34096c0,0 -3.06842,-2.69085 -1.90848,-5.59027c0.3708,-0.92686 1.74381,-1.85129 3.25049,-2.7383c-0.23742,0.75324 -0.30028,1.58995 -0.13629,2.49059c0.63114,3.46632 3.2178,5.78968 6.06079,7.406c-2.02294,-0.4315 -4.29991,-0.98158 -6.10799,-0.10617c-1.97744,0.95741 -1.85282,2.57008 -0.54237,4.04208c0.54248,0.60935 1.19891,1.03979 1.8784,1.47065c1.36138,0.86324 2.74323,1.67619 4.09026,2.56486c2.29521,0.92663 4.94712,0.73783 7.15826,1.70837c0.97265,0.42693 1.46619,1.80305 2.49021,2.08184c0.62639,0.17054 1.35696,0.16915 1.94465,-0.10665c0.46351,-0.21752 0.50527,-1.11041 1.01556,-1.15241c2.42737,-0.19979 4.81159,2.16072 6.07137,3.96099c2.11541,1.19162 5.54272,1.85846 7.66794,0.12911c0.60158,-0.48952 0.81729,-1.32076 1.28188,-1.9418c0.88759,-1.18646 3.05718,-1.80849 4.41064,-2.16441c1.08485,-0.28528 2.12626,0.71938 3.20739,1.01847c1.53355,0.42425 3.47108,-0.63105 4.84387,-1.18485c2.45577,-1.46436 4.84383,-2.74939 7.39036,-4.02247c0.97455,-0.4872 2.74307,-1.16537 3.11142,-2.33075c0.40735,-1.2888 -0.25149,-2.37432 -1.31778,-3.00295c-0.71602,-0.42212 -1.94217,-0.63847 -3.29105,-0.6972c3.34049,-1.89622 5.71885,-5.5552 4.98189,-9.13817c0.68953,0.44395 1.30022,0.8776 1.81971,1.28459c3.08107,2.41381 -0.65809,5.81962 -0.65809,5.81962z" fill-opacity="0.06275" fill="#000000"/><path d="M348.80059,153.02414c0,0 6.18323,6.83811 0.80736,9.40064c-1.01524,0.48394 -2.54075,1.51686 -4.35356,2.28249c-3.3955,1.43406 -7.79894,2.92991 -11.74501,5.15773c-5.17535,2.92183 -9.18892,6.79235 -13.2683,6.79235c-4.67788,0 -10.88773,-5.43299 -14.70638,-7.85404c-4.26232,-2.70235 -13.83726,-5.31592 -18.03776,-7.9099c-1.93654,-1.19589 -0.78203,-3.71884 -0.55607,-4.32907c0.97718,-2.63898 3.1467,-3.34096 3.1467,-3.34096c0,0 -3.06842,-2.69085 -1.90848,-5.59027c0.12804,-0.32006 0.37558,-0.63982 0.70687,-0.95785c-0.02018,2.69473 3.40912,5.0436 6.33481,6.70621c0.01571,0.01219 0.03145,0.02435 0.04722,0.03647c-2.29611,0.01722 -6.1222,0.20679 -7.2926,2.28286c-2.01267,3.5701 5.85199,7.12326 8.28282,8.13456c1.89619,0.51855 4.50855,0.29964 6.19276,1.34326c1.17768,0.72975 1.93907,2.79456 3.39523,3.08435c0.66424,0.13219 1.43514,0.0758 2.01269,-0.27792c0.59304,-0.3632 0.17147,-1.28898 0.81616,-1.5957c1.62527,-0.77324 4.53915,1.24048 4.79022,2.81968c-2.79213,4.58568 5.27066,5.34908 7.9963,4.55874c3.41425,-0.99002 1.91924,-2.59998 2.81144,-4.98397c0.62206,-1.66215 4.25308,-1.919 5.66226,-1.92371c1.26233,0.01665 0.63265,1.35942 2.46621,1.53479c1.00263,0.0959 2.35367,-0.93277 3.31589,-1.21131c3.70209,-1.07167 6.26234,-2.05397 9.52768,-4.0752c2.5181,-1.55869 4.76705,-2.09424 4.49223,-5.5368c-0.78576,-1.53778 -2.09582,-2.73711 -3.67604,-3.38006c1.17701,-0.88061 2.45971,-2.75354 2.8047,-3.49169c0.78402,-1.67751 0.45006,-2.92315 -0.27897,-4.14184c0.31355,0.22107 0.60468,0.43732 0.87171,0.64652c3.08107,2.41381 -0.65809,5.81962 -0.65809,5.81962z" fill-opacity="0.06275" fill="#000000"/><path d="M333.50935,169.86502c-5.17535,2.92183 -9.18892,6.79235 -13.2683,6.79235c-4.67788,0 -10.88773,-5.43299 -14.70638,-7.85404c-4.26232,-2.70235 -13.83726,-5.31592 -18.03776,-7.9099c-1.93654,-1.19589 -0.78203,-3.71884 -0.55607,-4.32907c0.13613,-0.36763 0.29539,-0.69767 0.46871,-0.99345c-0.72583,1.43571 -0.22745,2.87067 0.97735,4.52631c1.77513,1.44185 3.64957,2.1101 5.54983,2.68351c0.93479,0.46321 1.76864,0.82467 2.32145,1.05465c0.57545,0.15737 1.21685,0.24681 1.87826,0.32424c0.43326,0.18262 0.86505,0.38626 1.29451,0.619c3.25078,1.7617 6.25842,3.68472 9.58098,5.34021c2.99009,1.99651 6.0615,5.47352 9.95542,5.49207c3.88318,0.01849 7.57953,-3.45568 11.1146,-4.93752c1.6504,-0.44011 3.42086,-1.03516 5.20279,-1.7506c-0.59863,0.29952 -1.19201,0.61288 -1.77538,0.94224z" fill-opacity="0.06275" fill="#000000"/><path d="M348.80059,153.02414c0,0 6.18323,6.83811 0.80736,9.40064c-1.01524,0.48394 -2.54075,1.51686 -4.35356,2.28249c-1.77742,0.75068 -3.83104,1.51829 -5.95066,2.39896c2.44218,-1.23424 4.74455,-2.65472 6.60528,-4.16538c1.67185,-1.35731 3.41937,-1.65918 4.35109,-3.73669c0.25707,-1.76352 -0.11867,-3.52882 -1.54233,-4.78408c-0.26978,-0.23787 -0.77957,-0.56921 -1.19,-0.68938c0.20158,-0.15953 0.39977,-0.34579 0.50134,-0.47345c0.09225,-0.11595 1.22594,-1.91819 1.25887,-2.00688c0.44004,-1.18525 0.45967,-2.62097 0.22823,-4.00003c2.97649,2.41084 -0.71562,5.7738 -0.71562,5.7738z" fill-opacity="0.06275" fill="#000000"/><path d="M290.21772,152.12957c0.13551,0.08969 0.43146,0.3159 0.78046,0.5396c-0.38261,0.10191 -0.72466,0.24134 -1.05162,0.42181c-0.44287,-0.43212 -1.78935,-1.87542 -2.00123,-3.63654c0.36912,1.04234 1.16466,1.94197 2.27239,2.67513z" fill-opacity="0.06275" fill="#000000"/></g><path d="M308.41037,167.04863c0.0679,-0.74692 0.81482,-0.67902 0.81482,-0.67902c1.34381,0.14502 2.35911,0.81628 3.44181,1.6012l0.61176,0.40784c0.20678,0.13354 0.34365,0.36603 0.34365,0.63049c0,0.22494 -0.09903,0.42676 -0.25587,0.56423c-0.13747,0.15684 -0.33928,0.25587 -0.56423,0.25587c-0.04044,0 -0.08013,-0.0032 -0.11884,-0.00936l-0.96858,-0.13837l0.02759,-0.19311c-0.33405,-0.033 -0.60633,-0.12802 -0.92181,-0.29921c-0.2146,-0.09282 -0.45697,-0.21062 -0.74898,-0.35649l-0.00913,-0.01122l-0.00268,0.00491l-0.75769,-0.41328c-0.22009,-0.11454 -0.37623,-0.33503 -0.40084,-0.59386c-0.21634,-0.07465 -0.53648,-0.27029 -0.491,-0.77063z" fill-opacity="0.06275" fill="#000000" stroke-width="0.5"/><path d="M327.29906,169.5338c-0.1611,0.05743 -0.33686,0.11978 -0.53076,0.19022l-0.03256,-0.00181l0.00288,0.01056l-0.75449,0.20577c-0.06779,0.02014 -0.13959,0.03095 -0.21391,0.03095c-0.26776,0 -0.50276,-0.14032 -0.63545,-0.35144c-0.21979,-0.01089 -0.49364,-0.11043 -0.63163,-0.49679c-0.25225,-0.70631 0.45405,-0.95856 0.45405,-0.95856c0.32087,-0.1146 0.63571,-0.22494 0.94898,-0.33019l0.04537,-0.05774l0.03799,0.02985c0.19849,-0.06616 0.39651,-0.13024 0.59519,-0.19202c0.28683,-0.25805 0.60263,-0.47588 0.9471,-0.63449l0.03833,0.00062l-0.0043,-0.01289l1.03484,-0.34495c0.07926,-0.0285 0.16471,-0.04402 0.25378,-0.04402c0.3061,0 0.56936,0.18337 0.68594,0.44625c0.31953,0.08593 0.55473,0.37766 0.55473,0.72433c0,0.01175 -0.00027,0.02343 -0.0008,0.03505c0.00053,0.01162 0.0008,0.0233 0.0008,0.03505c0,0.26446 -0.13688,0.49695 -0.34365,0.63049l-0.83148,0.55432l-0.1104,-0.1656c-0.30183,0.21851 -0.60424,0.35972 -1.00496,0.51257c-0.12338,0.06864 -0.25231,0.14969 -0.38234,0.25188z" fill-opacity="0.06275" fill="#000000" stroke-width="0.5"/><g stroke-width="0"><path d="M324.21551,202.70849c0,0 0.17502,-1.22753 0.34962,-1.91798c0.22461,-0.88823 0.8862,-2.96909 0.8862,-2.96909l2.63336,0.46343c0,0 -0.50101,2.73992 -0.77061,3.74415c-0.19494,0.72611 -0.69692,1.72221 -0.69692,1.72221c0,0 -0.636,-0.02613 -1.52783,-0.47024c-0.60151,-0.29954 -0.87382,-0.57248 -0.87382,-0.57248z" fill="url(#color-6)"/><path d="M324.3282,197.85769c0,0 1.50072,-9.24011 1.74469,-14.19191c0.22503,-4.56728 -0.33311,-14.45869 -0.33311,-14.45869l3.63502,-2.02532c0,0 0.91564,10.69505 0.83835,15.12486c-0.10061,5.76632 -1.39071,16.53304 -1.39071,16.53304c0,0 -1.07894,0.2076 -2.89318,-0.10093c-1.26817,-0.21567 -1.60107,-0.88104 -1.60107,-0.88104z" fill="url(#color-7)"/><path d="M326.07291,183.66579c0.22503,-4.56728 -0.33311,-14.45869 -0.33311,-14.45869l3.63502,-2.02532c0,0 0.91564,10.69505 0.83835,15.12486c-0.04224,2.42111 -0.29418,5.72374 -0.57228,8.74082c-0.83557,-1.67354 -2.11887,-2.87011 -4.03503,-2.27941c0.21713,-1.84189 0.39575,-3.65519 0.46705,-5.10226z" fill-opacity="0.06275" fill="#000000"/><path d="M325.7398,169.20707l3.63502,-2.02532c0,0 0.62447,7.29411 0.79846,12.32982c-1.40681,-1.01431 -2.84,-1.26677 -4.06472,-0.51831c-0.07594,-4.59682 -0.36876,-9.78619 -0.36876,-9.78619z" fill-opacity="0.06275" fill="#000000"/></g><g stroke-width="0"><path d="M310.88917,204.81192c0,0 -0.28223,-1.65946 -0.40385,-2.64409c-0.15391,-1.24598 -0.44577,-4.23401 -0.44577,-4.23401l3.01899,-0.42481c0,0 0.65944,3.08934 0.79439,4.21935c0.09652,0.80823 0.28695,2.50427 0.28695,2.50427c0,0 -0.53987,0.43566 -1.5082,0.54267c-1.23959,0.13698 -1.7425,0.03662 -1.7425,0.03662z" fill="url(#color-8)"/><path d="M309.26354,199.647c0,0 -1.18687,-12.80024 -1.19716,-18.2902c-0.01017,-5.42287 1.13578,-14.45074 1.13578,-14.45074l3.44727,1.77983c0,0 -0.17839,11.9571 0.0311,17.03183c0.19913,4.82375 1.19636,12.70182 1.19636,12.70182c0,0 -0.25921,0.60071 -1.22117,0.89755c-2.43498,0.75139 -3.39219,0.32992 -3.39219,0.32992z" fill="url(#color-9)"/><path d="M308.06638,181.35684c-0.01017,-5.42287 1.13578,-14.45074 1.13578,-14.45074l3.44727,1.77983c0,0 -0.17839,11.9571 0.0311,17.03183c0.05182,1.25521 0.15767,2.71724 0.28594,4.19346c-1.47926,-0.96416 -3.05884,-0.73027 -4.47127,0.29749c-0.23067,-3.26118 -0.42468,-6.64641 -0.42882,-8.85187z" fill-opacity="0.06275" fill="#000000"/><path d="M309.10504,166.90605l3.44727,1.77983c0,0 -0.08266,5.54049 -0.06937,10.67921c-0.06948,-0.05227 -0.14139,-0.10265 -0.21584,-0.15103c-1.18658,-0.77102 -2.80008,-0.9761 -4.22733,-0.6021c0.2481,-5.26827 1.06526,-11.70591 1.06526,-11.70591z" fill-opacity="0.06275" fill="#000000"/></g><path d="M334.35159,223.43271c-4.24504,1.68739 -8.61591,2.97705 -13.15995,3.5828c-3.42966,0.4572 -6.83331,0.52453 -10.26514,0.11169c3.25196,-1.38666 6.4891,-2.76809 10.16774,-3.13235c4.4057,-0.43625 8.50516,-0.72779 12.9895,-0.71172c0.17384,0.00062 0.34531,0.0046 0.51448,0.01129c-0.12385,0.07436 -0.2115,0.12432 -0.24663,0.13829z" fill-opacity="0.06275" fill="#000000" stroke-width="0"/><path d="M320.26817,216.79731c-1.91042,0.74251 -3.81898,1.85527 -5.82543,2.30189c-2.52762,0.56263 -4.34202,0.305 -5.95235,0.73042c-0.82229,0.21724 -1.59137,0.61258 -2.37502,1.38619c0.37862,-0.63419 0.73808,-1.23275 1.09318,-1.59229c2.04485,-2.07047 4.91491,-2.61737 7.58792,-3.47695c2.22053,-0.71407 5.61059,-0.92632 7.96067,-0.93758c0.51413,-0.00246 1.4528,-0.33022 1.64725,0.03965c-1.43776,0.2688 -3.38164,1.2554 -4.13622,1.54868z" fill-opacity="0.06275" fill="#000000" stroke-width="0"/><path d="M344.21361,171.26947l0.29827,0.08023c1.5093,0.97169 1.36807,2.01032 -0.33298,2.70806c-2.2729,0.93229 -4.94657,1.23003 -7.34003,1.76191c-1.09807,0.12326 -4.01524,0.88297 -4.41548,-0.85611c-0.17035,-0.74018 1.78782,-1.86371 2.2987,-2.15667c2.46166,-1.41161 6.75831,-2.94216 9.49152,-1.53742z" fill-opacity="0.06275" fill="#000000" stroke-width="0.5"/><path d="M294.5657,166.61408c0.20004,-0.11565 0.41571,-0.11565 0.41571,-0.11565c3.77121,0.02159 7.77826,2.51552 10.11564,5.36083c0.37636,0.45815 1.90775,1.9332 1.82175,2.50843c-0.32009,2.14099 -1.98382,1.17192 -3.13286,0.84363c-2.9657,-1.01176 -5.33226,-3.86413 -8.32877,-5.10877c-0.74373,-0.30892 -2.50436,-0.70477 -2.6196,-1.75425c-0.12566,-1.14437 0.81351,-1.62102 1.72813,-1.73421z" fill-opacity="0.06275" fill="#000000" stroke-width="0.5"/><path d="M340.93699,184.00184c0,0 1.62132,5.42404 0.22154,7.77331c-1.38223,2.31981 -4.17344,3.43656 -6.70049,3.80559c-1.0725,0.17541 -4.57436,0.04572 -4.57436,0.04572c0,0 6.32065,-4.34686 6.84953,-4.6718c2.21368,-1.36009 4.20378,-6.95282 4.20378,-6.95282z" fill-opacity="0.06275" fill="#000000" stroke-width="0.5"/><path d="M299.63604,197.64672c1.86464,1.60686 5.88361,2.87428 7.92189,4.03827l1.52062,1.49679c0,0 -6.64369,-0.73918 -9.94653,-3.02521c-1.19583,-0.82768 -2.95926,-2.25772 -3.11892,-3.86945c-0.19911,-2.00991 -1.51784,-5.80955 0.49988,-4.12016c0,0 1.25842,3.8729 3.12306,5.47976z" fill-opacity="0.06275" fill="#000000" stroke-width="0.5"/></g></g><g stroke="none" stroke-width="0" stroke-linecap="butt"><path d="M329.96643,151.81463l26.74116,-35.69955c0,0 1.81862,5.08306 3.25561,7.24211c1.38657,2.08329 5.14514,6.38712 5.14514,6.38712c0,0 -1.48778,0.38799 -2.8434,0.45901c-1.94942,0.10212 -3.21556,-0.06597 -3.21556,-0.06597c0,0 0.10356,2.31418 0.35101,3.38047c0.28338,1.22118 1.25616,3.54519 1.25616,3.54519c0,0 -1.0514,-0.01538 -1.92025,-0.52401c-0.93253,-0.54592 -1.96674,-0.99363 -1.96674,-0.99363c0,0 -0.16019,6.67282 0.74326,9.42461c1.00632,3.06522 5.0194,8.12805 5.0194,8.12805c0,0 -3.83831,1.30319 -6.55724,0.53956c-2.71387,-0.76219 -3.68757,-1.89583 -3.68757,-1.89583c0,0 0.381,1.16619 0.65607,1.71468c0.27803,0.55436 1.00337,1.59406 1.00337,1.59406c0,0 -0.9146,0.19072 -2.32508,0.03679c-1.50724,-0.16451 -3.49724,-0.89973 -3.49724,-0.89973l1.79791,3.22357c0,0 -7.88449,-1.43404 -11.38515,-2.39159c-5.78907,-1.58351 -8.57081,-3.20493 -8.57081,-3.20493z" fill="url(#color-10)"/><path d="M357.6413,121.17315c1.02704,2.17043 2.61947,3.89028 3.87633,5.88695c0.41461,0.65166 1.54644,1.95949 1.54644,1.95949c0,0 -0.89924,-0.16394 -1.34548,-0.22183c-0.77295,-0.10031 -1.4755,-0.48868 -2.21218,-0.68665c-0.30075,-0.15956 -1.67358,-0.93486 -1.97598,-0.76587c-0.57147,0.31934 -0.02385,4.54934 0.16697,5.1899c0.05426,0.23929 0.87923,1.68355 0.87923,1.68355c0,0 -1.48182,-1.02784 -2.64463,-0.79278c-0.51227,0.10355 -0.65319,1.22174 -0.80875,1.66035c-1.21753,2.32154 -0.46045,5.37155 -0.5143,7.85598c0.2256,1.28997 0.44122,2.49263 0.82815,3.74401c0.12264,0.39665 0.27311,0.81898 0.37772,1.22014c0.10331,0.39623 1.94569,2.72867 1.94569,2.72867c0,0 -3.21227,-0.78215 -4.46413,-1.37c-1.15762,-0.54361 -2.78645,-2.03479 -2.78645,-2.03479c0,0 0.13393,1.52335 0.2462,2.15748c0.08832,0.49884 0.69912,2.02887 0.69912,2.02887c0,0 -1.37177,-0.29638 -2.03324,-0.56396c-0.72896,-0.29487 -2.15772,-1.13129 -2.15772,-1.13129c0,0 0.41242,3.48872 0.1155,3.39035c-4.77373,-0.07321 -7.8095,-0.59366 -11.72362,-3.32743c-0.98739,-0.35955 -2.05573,-0.94294 -3.00787,-1.54995l23.71002,-31.65294c0.07667,1.58751 0.41291,3.22325 1.283,4.59174z" fill-opacity="0.06275" fill="#000000"/><path d="M357.05766,121.59555c0.32212,1.32632 1.04969,2.77253 1.89119,3.87176c0.4378,0.57189 1.46254,1.42109 0.80753,1.28665c-2.60653,-0.69574 -4.14933,-2.78115 -4.23618,1.22472c-0.02963,1.36726 0.1194,2.54396 0.68715,3.74015c-0.47911,-0.26081 -1.23813,-0.33326 -1.47628,-0.05789c-0.81531,0.94275 -1.31831,2.84718 -1.51892,4.04673c-0.43964,2.35261 -0.30725,4.80472 -0.34596,7.18511c0.17222,0.77985 0.49161,3.70008 1.22276,4.27502c-0.14219,-0.07429 -0.35093,-0.17986 -0.45273,-0.22882c-0.42994,-0.20678 -0.83188,-0.40922 -1.24228,-0.65455c-0.96223,-0.34987 -2.06059,-1.55848 -3.10218,-1.54326c-1.2003,0.01755 -1.46298,3.03483 -0.80744,3.71215c-0.48999,-0.03035 -2.07965,-0.60525 -2.41894,-0.40519c-1.55495,0.91683 0.96437,2.56616 -1.58562,2.5156c-1.72728,0.24953 -4.45994,-0.76637 -5.97384,-1.5648c-1.83591,-0.50149 -2.86505,-1.95103 -4.05656,-3.1691l21.7133,-28.98732c0.0392,1.64188 0.27853,3.11514 0.89499,4.753z" fill-opacity="0.06275" fill="#000000"/></g><g stroke="#000000" stroke-width="0"><path d="M274.35199,118.20907c0,0 3.2596,0.45152 6.22606,-0.27585c2.5284,-0.61996 4.31652,-1.54884 4.31652,-1.54884c0,0 11.28228,18.79763 13.82932,24.48559c1.23168,2.75054 0.63282,7.81079 0.63282,7.81079c0,0 -1.84817,2.47089 -7.90445,3.39348c-5.50679,0.83888 -11.70857,-2.08131 -11.70857,-2.08131l7.1277,-4.58369c0,0 -2.93193,0.22781 -5.13296,0.03389c-2.52416,-0.22241 -4.56211,-0.87581 -4.56211,-0.87581c0,0 2.51408,-2.48116 4.5578,-5.23105c1.48784,-2.00196 2.45288,-4.88308 2.45288,-4.88308c0,0 -1.80012,0.86139 -2.92106,1.08795c-2.97048,0.60039 -4.76794,0.24579 -4.76794,0.24579c0,0 0.87915,-1.0655 1.18808,-1.55596c0.25179,-0.39976 0.52939,-1.17075 0.52939,-1.17075c0,0 -2.10452,-0.30632 -3.45672,-3.30953c-1.42936,-3.17454 -1.25746,-5.08453 -1.25746,-5.08453c0,0 1.06132,-0.17929 2.42336,-0.97366c1.40469,-0.81925 2.37251,-1.68632 2.37251,-1.68632c0,0 -1.35092,-0.03288 -2.63225,-1.28211c-1.02182,-0.99623 -1.31291,-2.515 -1.31291,-2.515z" fill="url(#color-11)" stroke-linecap="round"/><path d="M283.25081,117.99115c2.18433,-0.62743 3.73054,-1.56154 3.73054,-1.56154c0,0 9.68299,18.76297 11.86469,24.443c0.65056,1.69376 0.6977,4.26779 0.63824,5.99241c-0.56394,0.36915 -1.15221,0.72283 -1.79087,1.07453c-1.97221,0.70829 -4.26366,1.73527 -6.31866,1.7017c-0.57182,0.2067 -2.82825,-0.26701 -4.02603,-0.28347c1.67281,-1.32241 3.4277,-3.96044 3.12145,-6.40967c-1.78942,-0.39384 -3.89489,-0.31494 -5.71217,-0.36542c0.20654,-0.12959 1.20954,-1.65764 1.41075,-1.92545c2.06595,-2.74976 2.26998,-8.31596 2.26998,-8.31596c0,0 -3.70343,1.55998 -6.17318,2.02875c0.53321,-0.8833 1.16805,-2.40668 1.16805,-2.40668c0,0 -2.24819,-1.41385 -3.24227,-2.2359c-0.83898,-1.01572 -1.81627,-3.86215 -1.81627,-3.86215c0,0 2.4496,-1.55749 3.25416,-2.32288c0.66354,-0.63121 1.23224,-1.94498 1.23224,-1.94498c0,0 -2.33904,-1.90499 -2.82992,-3.18115c0.95439,-0.00862 2.11021,-0.10658 3.2193,-0.42514z" fill-opacity="0.06275" fill="#000000" stroke-linecap="butt"/><path d="M283.25081,117.99115c2.18433,-0.62743 3.73055,-1.56154 3.73055,-1.56154c0,0 9.68298,18.76297 11.86468,24.443c0.37106,0.96603 0.54581,2.21842 0.61645,3.43623c-0.48953,0.4029 -0.39862,0.97548 -2.74361,1.89477c-2.93567,1.15083 -5.48099,1.10464 -5.48099,1.10464c0,0 0.25378,-0.93919 0.50717,-1.83889c0.44524,-1.58081 0.10233,-4.76896 0.10233,-4.76896l-4.34811,0.68005c0,0 1.27745,-3.87488 1.63873,-5.76681c0.3291,-1.72329 0.44144,-5.12619 0.44144,-5.12619c0,0 -1.09639,0.81239 -2.50261,1.41053c-0.90453,0.38476 -1.99283,0.50786 -2.81554,0.84338c0.15452,-1.05025 0.38918,-1.814 0.38918,-1.814c0,0 -1.85191,-0.43582 -2.9879,-1.56605c-1.05723,-1.05187 -1.48758,-3.13477 -1.48758,-3.13477c0,0 1.76426,-0.839 2.19608,-0.99475c0.8947,-0.33131 3.1508,-3.10108 3.1508,-3.10108c0,0 -2.30829,-2.55845 -3.01456,-3.95849c0.24831,-0.05044 0.49703,-0.11034 0.74344,-0.18111z" fill-opacity="0.06275" fill="#000000" stroke-linecap="butt"/></g><path d="M282.96224,118.71227c0.46139,-21.28429 17.47304,-39.52841 38.1455,-39.08028c20.67246,0.44812 37.80667,18.08198 37.34528,39.36629c-0.46139,21.28429 -14.43734,37.87467 -38.85313,37.11429c-28.31594,-0.88185 -37.09903,-16.11598 -36.63765,-37.40028z" fill="url(#color-12)" stroke="none" stroke-width="0" stroke-linecap="butt"/><g stroke="#000000" stroke-width="0"><path d="M364.16169,109.81506c0,0 5.56229,-5.29436 8.06145,-9.12121c1.8189,-2.7852 5.55208,-11.72456 5.55208,-11.72456c0,0 5.10724,-0.50832 9.72423,4.77433c5.7329,6.55945 4.23833,11.40457 4.23833,11.40457c0,0 -5.27246,4.813 -14.40196,6.15513c-7.93803,1.16696 -13.17412,-1.48825 -13.17412,-1.48825z" fill="url(#color-13)" stroke-linecap="round"/><path d="M364.16169,109.81506c0,0 3.57608,-3.40381 6.28179,-6.72569c0.22957,0.63448 0.65765,1.19227 1.22356,1.58602c1.92076,0.98979 3.85929,1.10027 6.11336,0.70691c2.48707,-0.58265 4.41598,-0.60977 6.58498,-2.1689c1.74112,-1.67809 3.49642,-2.33664 4.08725,-4.97424c0.21353,-0.95913 0.29722,-2.05255 0.17635,-3.10605c4.39582,5.84276 3.10879,10.01506 3.10879,10.01506c0,0 -5.27246,4.813 -14.40196,6.15513c-7.93803,1.16696 -13.17412,-1.48825 -13.17412,-1.48825z" fill-opacity="0.06275" fill="#000000" stroke-linecap="butt"/><path d="M364.16169,109.81506c0,0 1.08469,-1.03244 2.51128,-2.51501c1.68761,1.62643 4.87536,1.56919 7.00866,1.62568c2.78452,0.06036 5.25221,-0.50555 7.96942,-1.00361c2.32243,-1.09896 4.54113,-1.8773 6.65425,-3.39171c1.34054,-1.28753 2.47355,-2.42909 3.10771,-4.12474c0.88662,2.92115 0.32478,4.74253 0.32478,4.74253c0,0 -5.27246,4.813 -14.40196,6.15513c-7.93803,1.16696 -13.17412,-1.48825 -13.17412,-1.48825z" fill-opacity="0.06275" fill="#000000" stroke-linecap="butt"/></g><g fill-opacity="0.03137" fill="#000000" stroke="none" stroke-linecap="butt"><path d="M344.15612,137.19198c-0.08831,4.07387 -14.50519,2.1727 -26.29915,1.91704c-11.79395,-0.25567 -24.33765,1.71343 -24.24934,-2.36043c0.08831,-4.07387 12.77519,-12.648 24.56914,-12.39234c11.79395,0.25567 26.06766,8.76188 25.97935,12.83574z" stroke-width="0"/><path d="M338.54334,138.04107c-0.07389,-0.23883 0.16492,-0.31273 0.16492,-0.31273l0.13982,-0.01586c1.05296,-1.00256 2.18513,-1.93926 3.41353,-2.72088c0,0 0.21097,-0.13415 0.34511,0.07683c0.13414,0.21097 -0.07683,0.34511 -0.07683,0.34511c-1.20031,0.76254 -2.31028,1.67919 -3.33662,2.66069l-0.33719,0.13176c0,0 -0.23883,0.07389 -0.31273,-0.16493z" stroke-width="0.5"/><path d="M336.46356,138.40963c-0.1729,-0.18056 0.00767,-0.35347 0.00767,-0.35347l0.1168,-0.10594c1.69447,-1.10716 3.0391,-2.68452 4.7435,-3.76845c0,0 0.21097,-0.13415 0.34511,0.07683c0.13414,0.21097 -0.07683,0.34511 -0.07683,0.34511c-1.70197,1.08183 -3.04553,2.65892 -4.73827,3.76508l-0.04449,0.04851c0,0 -0.18057,0.17289 -0.35348,-0.00767z" stroke-width="0.5"/><path d="M334.09847,138.68803c0.02616,-0.12402 0.10194,-0.1719 0.17029,-0.18898c2.10543,-1.58794 4.19029,-3.27392 6.09392,-5.09676c0,0 0.18056,-0.17289 0.35347,0.00767c0.1729,0.18056 -0.00767,0.35348 -0.00767,0.35348c-1.93567,1.85352 -4.05701,3.56624 -6.19787,5.17948l-0.2191,0.04133c0,0 -0.24463,-0.0516 -0.19303,-0.29621z" stroke-width="0.5"/><path d="M331.33394,139.73386c-0.10694,-0.22597 0.11904,-0.33291 0.11904,-0.33291l0.0936,-0.0301c0.21117,-0.20179 0.43326,-0.39317 0.66745,-0.56772c2.24919,-1.67242 4.32638,-3.97762 6.77803,-5.31289c0,0 0.2197,-0.11931 0.33899,0.10039c0.1193,0.2197 -0.10039,0.33899 -0.10039,0.33899c-2.42889,1.31473 -4.49241,3.61965 -6.71829,5.27474c-0.21797,0.16165 -0.42419,0.33971 -0.61998,0.52762l-0.22555,0.12092c0,0 -0.22597,0.10693 -0.33291,-0.11904z" stroke-width="0.5"/><path d="M329.25473,138.69797c0.28615,-0.13758 0.50514,-0.32404 0.79025,-0.5072c2.43625,-1.56149 4.53823,-3.58425 6.96748,-5.12923c0,0 0.21098,-0.13414 0.34511,0.07683c0.13414,0.21097 -0.07683,0.3451 -0.07683,0.3451c-2.42864,1.54364 -4.53037,3.5672 -6.96595,5.12824c-0.38816,0.24818 -0.6657,0.48555 -1.10632,0.6453l-0.01761,-0.30649l-0.14939,-0.1648c0.04761,-0.0164 0.09308,-0.0341 0.13688,-0.05296l-0.00074,-0.01289c0,0 0.03176,-0.01504 0.07711,-0.02191z" stroke-width="0.5"/><path d="M327.58988,137.72594c0.21587,-0.12072 0.43253,-0.24006 0.64991,-0.35803c2.52623,-1.60242 4.6028,-3.55402 6.96166,-5.35944c0,0 0.19855,-0.15191 0.35047,0.04666c0.15192,0.19855 -0.04665,0.35047 -0.04665,0.35047c-2.3756,1.81667 -4.46691,3.78193 -7.01223,5.39345c-0.29584,0.16075 -0.59042,0.32387 -0.88365,0.48933l-0.00624,0.00052l0.00109,0.00215l-0.23969,0.12099c-0.03643,0.0193 -0.07816,0.02987 -0.12231,0.02891c-0.13804,-0.003 -0.24751,-0.11732 -0.24452,-0.25536c0.0015,-0.06902 0.03083,-0.13089 0.07704,-0.17515l0.24193,-0.23165c0,0 0.1289,-0.12343 0.27318,-0.0528z" stroke-width="0.5"/><path d="M324.85459,137.83668c0.69498,-0.43327 1.37681,-0.88984 2.08017,-1.30869c2.52431,-1.50261 4.43289,-3.60898 6.70292,-5.41897c0,0 0.19548,-0.15585 0.35132,0.03964c0.15586,0.19549 -0.03964,0.35132 -0.03964,0.35132c-2.28809,1.82399 -4.21429,3.94297 -6.75887,5.45766c-0.70059,0.41686 -1.37952,0.87197 -2.0716,1.30347l-0.26351,0.1643c-0.04047,0.02609 -0.08892,0.0408 -0.14069,0.03967c-0.13804,-0.003 -0.24751,-0.11732 -0.24452,-0.25536c0.0019,-0.08814 0.04922,-0.16462 0.11908,-0.20763l0.23693,-0.15066l0.00136,0.00212l0.02684,-0.01673l0.26453,0.4243l-0.00943,0.00135c-0.00914,0.00719 -0.015,0.01091 -0.015,0.01091l-0.00664,-0.00782l-0.57927,0.08278l0.31765,-0.4969c0,0 0.01054,-0.00669 0.0284,-0.01475z" stroke-width="0.5"/><path d="M325.92182,134.40444c2.26627,-1.44161 4.10344,-3.49028 6.35102,-4.92035c0,0 0.21097,-0.13415 0.34511,0.07682c0.13414,0.21097 -0.07683,0.34511 -0.07683,0.34511c-2.24359,1.42539 -4.07669,3.47483 -6.3394,4.91274c-1.28232,0.91939 -2.61476,1.75943 -3.91616,2.648c-0.03237,0.06537 -0.0864,0.10407 -0.0864,0.10407l-0.3327,0.23793c-0.06692,0.03731 -0.13944,0.07065 -0.21481,0.09717c-0.06218,0.04379 -0.12427,0.08774 -0.18624,0.13186l-0.01475,0.00274l-0.00093,0.00051l0.00243,0.00447l-0.43554,0.23651c-0.03788,0.02148 -0.08187,0.03335 -0.12858,0.03234c-0.13804,-0.003 -0.24751,-0.11732 -0.24452,-0.25536c0.00203,-0.09368 0.05534,-0.1742 0.13254,-0.21536l0.4328,-0.24076l0.00193,0.00346c1.54476,-1.10602 3.16574,-2.09489 4.71104,-3.20193z" stroke-width="0.5"/><path d="M319.22829,137.52672c1.33315,-0.92297 2.63698,-1.88234 3.9617,-2.82152c2.19872,-1.82496 4.36187,-3.76841 6.62329,-5.49855c0,0 0.19855,-0.15191 0.35047,0.04665c0.15192,0.19855 -0.04665,0.35047 -0.04665,0.35047c-2.26178,1.73035 -4.42214,3.67423 -6.62262,5.49805c-1.65244,1.17327 -3.27422,2.37574 -4.95931,3.50161l-0.00286,0.00078l0.00048,0.00076l-0.41906,0.26643c-0.04084,0.0268 -0.08992,0.04194 -0.14243,0.0408c-0.13804,-0.003 -0.24751,-0.11732 -0.24452,-0.25536c0.00163,-0.07527 0.03636,-0.14204 0.09001,-0.18673l0.3815,-0.32108l0.04172,0.04958l0.01106,-0.00703c0.21342,-0.21768 0.44456,-0.37545 0.80215,-0.61343l0.00994,-0.00661c0,0 0.07512,-0.05 0.16514,-0.04477z" stroke-width="0.5"/><path d="M322.17823,132.74906c2.23719,-1.73903 4.1984,-3.65307 6.23775,-5.60745c0,0 0.18057,-0.17289 0.35347,0.00767c0.1729,0.18056 -0.00767,0.35348 -0.00767,0.35348c-2.05595,1.96703 -4.03111,3.89623 -6.28536,5.64767c-2.03551,1.4452 -4.07788,2.87484 -6.01808,4.44348c-0.01787,0.10313 -0.10856,0.16712 -0.10856,0.16712l-0.06037,0.04261c-0.10243,0.07229 -0.21065,0.13592 -0.32278,0.19274c-0.03316,0.0275 -0.0663,0.05504 -0.09939,0.08263l0.01036,0.01522l-0.41066,0.2801c-0.04203,0.02944 -0.09346,0.04625 -0.14869,0.04505c-0.13804,-0.003 -0.24751,-0.11732 -0.24452,-0.25536c0.0018,-0.08281 0.04366,-0.15535 0.10667,-0.19948l0.31275,-0.22413c2.1341,-1.78895 4.41499,-3.38037 6.68507,-4.99132z" stroke-width="0.5"/><path d="M313.49441,136.77776c2.22067,-1.46873 4.36696,-2.98774 6.46867,-4.65528c2.17967,-1.7291 4.01688,-4.28131 6.38041,-5.69279c0,0 0.21482,-0.12787 0.3427,0.08695c0.12787,0.21482 -0.08695,0.3427 -0.08695,0.3427c-2.34014,1.38811 -4.16954,3.94464 -6.32542,5.65486c-2.65532,2.10604 -5.38103,3.97833 -8.23737,5.80879l0.00116,0.0017l-0.4109,0.27972c-0.042,0.02937 -0.09338,0.04613 -0.14852,0.04493c-0.13804,-0.003 -0.24751,-0.11732 -0.24452,-0.25536c0.00184,-0.08472 0.04562,-0.15869 0.11108,-0.20249l0.40942,-0.28128l0.00077,0.00111l0.00255,-0.00336c0.05632,-0.03609 0.11257,-0.07221 0.16879,-0.10833c0.2762,-0.30924 0.7255,-0.51508 1.06556,-0.75288l0.41607,-0.23871c0,0 0.03574,-0.02049 0.08654,-0.0303z" stroke-width="0.5"/><path d="M307.7609,137.96052c-0.1081,-0.22542 0.11732,-0.33351 0.11732,-0.33351l0.16707,-0.07984c1.64097,-0.88005 3.49601,-2.43313 5.16783,-3.07906c2.022,-1.28649 4.04239,-3.05889 5.75971,-4.69886c1.80877,-1.34683 3.49598,-2.86935 5.40647,-4.08886c0,0 0.21097,-0.13415 0.3451,0.07683c0.13414,0.21097 -0.07682,0.34511 -0.07682,0.34511c-1.89446,1.20022 -3.56242,2.71627 -5.35192,4.04875c-1.73998,1.67113 -3.80544,3.45929 -5.85967,4.76462c-1.6303,0.5854 -3.55774,2.21382 -5.15417,3.072l-0.1874,0.09015c0,0 -0.22542,0.1081 -0.33351,-0.11731z" stroke-width="0.5"/><path d="M303.0975,138.82903c-0.21104,-0.13402 -0.07701,-0.34506 -0.07701,-0.34506l0.19802,-0.31144c0.61072,-0.81289 1.46439,-1.64689 2.28503,-2.25243c2.78927,-2.05094 5.57943,-4.12991 8.32868,-6.24053c2.2493,-1.72681 4.46053,-3.54272 6.59955,-5.40424c0,0 0.18858,-0.16412 0.3527,0.02446c0.16412,0.18859 -0.02447,0.35271 -0.02447,0.35271c-2.14675,1.86823 -4.36591,3.69064 -6.62331,5.42367c-2.75199,2.11271 -5.54488,4.19375 -8.33695,6.24675c-0.77488,0.56752 -1.59637,1.36632 -2.16982,2.13376l-0.18737,0.29534c0,0 -0.13402,0.21104 -0.34506,0.07701z" stroke-width="0.5"/><path d="M298.8178,138.20656c-0.07389,-0.23883 0.16493,-0.31273 0.16493,-0.31273l0.20548,-0.06094c0.50547,-0.23829 0.92319,-0.59055 1.39416,-0.88728c1.73593,-1.66461 3.98589,-3.05147 5.95445,-4.46179c2.02443,-1.28808 4.16771,-3.30104 5.93793,-4.99358c1.71433,-1.08997 3.85458,-3.09829 5.87074,-3.47821c0,0 0.24615,-0.0437 0.28985,0.20245c0.0437,0.24616 -0.20244,0.28985 -0.20244,0.28985c-1.89218,0.30982 -4.04104,2.35664 -5.64961,3.37936c-1.7742,1.70149 -3.9315,3.72153 -5.96659,5.01447c-1.96416,1.40817 -4.18514,2.78784 -5.92613,4.44119c-0.50012,0.32054 -0.94971,0.6897 -1.48849,0.94552l-0.27154,0.08665c0,0 -0.23884,0.0739 -0.31273,-0.16492z" stroke-width="0.5"/><path d="M305.37434,139.19087c-0.20754,-0.13939 -0.06814,-0.34693 -0.06814,-0.34693l0.0122,-0.01815c0.09832,-0.14554 0.19667,-0.29105 0.29499,-0.43658c1.87366,-1.80407 3.79011,-3.47701 5.97378,-4.86047c2.04535,-0.96784 4.22994,-2.49763 5.66483,-4.27524c1.94367,-0.95479 3.11568,-3.07586 4.84216,-4.32543c0,0 0.20321,-0.14563 0.34883,0.05757c0.14563,0.20321 -0.05757,0.34883 -0.05757,0.34883c-1.71014,1.21149 -2.87551,3.43108 -4.82143,4.30975c-1.36998,1.80921 -3.71223,3.365 -5.73528,4.3223c-2.13111,1.36035 -3.99001,2.99084 -5.83265,4.74449c-0.08753,0.13119 -0.17505,0.26237 -0.26258,0.39355l-0.0122,0.01815c0,0 -0.13939,0.20753 -0.34693,0.06813z" stroke-width="0.5"/><path d="M297.23045,137.71709c-0.1729,-0.18056 0.00767,-0.35348 0.00767,-0.35348l0.12924,-0.11702c0.74232,-1.02323 2.48257,-2.06577 3.61896,-2.60805c2.20842,-1.26079 4.16782,-2.69077 6.00392,-4.44894c1.69353,-1.62165 3.98705,-4.42454 6.15829,-5.25061c0,0 0.23408,-0.0878 0.32188,0.14628c0.0878,0.23408 -0.14628,0.32187 -0.14628,0.32187c-2.08447,0.76878 -4.36423,3.58867 -5.98806,5.1436c-1.87015,1.79078 -3.8693,3.24706 -6.11868,4.53123c-1.00957,0.4733 -2.82106,1.51264 -3.44009,2.45094l-0.19335,0.19185c0,0 -0.18056,0.17289 -0.35347,-0.00767z" stroke-width="0.5"/><path d="M295.17259,137.24407c0.01598,-0.01016 0.03197,-0.02031 0.04795,-0.03047c2.1194,-1.49703 3.947,-3.46185 6.0971,-4.96497c2.29397,-1.40375 4.24184,-3.39431 6.17425,-5.24473c0,0 0.18057,-0.17289 0.35348,0.00767c0.1729,0.18056 -0.00767,0.35348 -0.00767,0.35348c-1.95562,1.87264 -3.92681,3.87799 -6.24602,5.30181c-2.15042,1.50408 -3.98815,3.43618 -6.09126,4.96109c-0.08201,0.05218 -0.16402,0.10435 -0.24603,0.15653l-0.16227,-0.33601l-0.10598,-0.08594c0.01645,-0.01046 0.0329,-0.02089 0.04934,-0.03134l-0.00747,-0.01548c0,0 0.06032,-0.05774 0.14459,-0.07165z" stroke-width="0.5"/><path d="M295.68391,135.12975c-0.14563,-0.20321 0.05757,-0.34883 0.05757,-0.34883l0.32656,-0.23392c0.43471,-0.27383 0.74156,-0.65589 1.19491,-0.91469c1.725,-1.65839 3.8839,-3.80842 5.89045,-5.09529c0,0 0.21097,-0.13415 0.3451,0.07682c0.13414,0.21097 -0.07683,0.34511 -0.07683,0.34511c-1.99658,1.25635 -4.14474,3.43824 -5.85963,5.07404c-0.46012,0.26268 -0.77297,0.64557 -1.21413,0.92836l-0.31516,0.22599c0,0 -0.20321,0.14563 -0.34883,-0.05757z" stroke-width="0.5"/></g><path d="M335.06529,125.23727l5.17168,-0.00675c0,0 0.74097,12.75465 -2.72204,12.50608c-3.73474,-0.26807 -2.44963,-12.49933 -2.44963,-12.49933z" fill="#000000" stroke="#000000" stroke-width="2" stroke-linecap="round"/><path d="M301.4315,118.30673c0,0 0.74097,12.75465 -2.72204,12.50607c-3.73474,-0.26806 -2.44962,-12.49932 -2.44962,-12.49932z" fill="#000000" stroke="#000000" stroke-width="2" stroke-linecap="round"/><g stroke="#000000" stroke-width="0"><path d="M355.71167,116.46646c0,0 0.29885,3.28706 -1.92972,6.26955c-0.71491,0.95676 -2.95989,1.45545 -2.95989,1.45545c0,0 -0.04977,-1.91428 -0.19583,-2.63328c-0.11404,-0.56138 -0.60845,-1.32608 -0.60845,-1.32608l-2.21855,2.62224c0,0 -0.82544,-2.06497 -1.49456,-2.9617c-0.64828,-0.86881 -2.45965,-2.33755 -2.45965,-2.33755c0,0 -1.23259,1.65023 -1.8682,2.25887c-0.50049,0.47924 -1.63788,1.09843 -1.63788,1.09843c0,0 -0.02382,-0.83762 -0.13457,-1.25965c-0.12289,-0.46833 -0.57017,-1.42596 -0.57017,-1.42596c0,0 -1.71501,3.46136 -3.01148,4.64164c-1.33974,1.21967 -4.90141,2.56206 -4.90141,2.56206c0,0 -0.82632,-2.72388 -1.72003,-3.76958c-1.12118,-1.31188 -4.48066,-3.48574 -4.48066,-3.48574l-3.50057,3.10311c0,0 -0.32466,-1.82229 -2.36241,-2.98312c-2.01215,-1.14624 -5.73192,-1.62681 -6.63209,-2.30276c-1.01444,-0.76174 -1.26599,-1.81985 -1.26599,-1.81985c0,0 -1.53817,1.68997 -2.49885,2.50001c-0.83501,0.70405 -2.56183,1.60325 -2.56183,1.60325c0,0 0.23909,-0.81959 0.31151,-1.20264c0.0712,-0.37667 0.11939,-1.07687 0.11939,-1.07687c0,0 -1.13816,0.43174 -1.86857,0.64143c-0.97987,0.28132 -3.4853,0.89558 -3.4853,0.89558c0,0 1.15235,-1.40708 1.73059,-2.19923c0.64897,-0.88908 1.97561,-2.87814 1.97561,-2.87814c0,0 -8.75777,5.51193 -12.63693,7.36164c-7.59854,3.62326 -11.52452,1.85004 -11.52452,1.85004l5.54265,-2.51963c0,0 -4.91796,0.60848 -7.78779,-0.49369c-4.79078,-0.96449 -4.74018,-3.24176 -4.74018,-3.24176c0,0 3.02549,-0.18741 4.2273,-0.34573c0.94761,-0.12483 2.40391,-0.52779 2.40391,-0.52779c0,0 -1.09823,-0.21221 -1.69172,-0.40439c-0.66178,-0.21428 -2.09647,-0.82218 -2.09647,-0.82218c0,0 1.64436,-0.29213 2.25212,-0.48786c0.46087,-0.14843 1.07727,-0.58439 1.07727,-0.58439c0,0 -3.02019,-2.86713 -3.53231,-5.53957c-1.21975,-6.36501 2.21723,-13.47675 2.21723,-13.47675l2.30905,1.35179c0,0 -0.91741,-1.43309 -1.10101,-2.16479c-0.21867,-0.87144 -0.12429,-2.71831 -0.12429,-2.71831c0,0 0.84278,1.21709 1.3405,1.54338c0.46189,0.30279 1.40356,0.81076 1.40356,0.81076c0,0 -0.44422,-1.93682 -0.55947,-2.84527c-0.10623,-0.83738 -0.10712,-2.40956 -0.10712,-2.40956c0,0 1.61617,1.69848 2.2625,2.37344c0.60329,0.63003 2.09394,1.49743 2.09394,1.49743c0,0 0.78722,-11.78909 3.87297,-17.58715c6.60277,-13.78686 17.29088,-14.90452 17.29088,-14.90452c0,0 6.09634,2.27762 8.21044,2.93152c1.41242,0.43687 3.53815,0.90565 3.53815,0.90565c0,0 5.17453,-3.68833 12.34168,-3.79679c12.32144,0.06495 20.70556,3.32145 20.70556,3.32145c0,0 -1.30284,16.81497 -1.59952,22.71541c-0.18682,3.71555 -0.00887,9.27334 -0.00887,9.27334c0,0 1.76306,-1.53869 2.62168,-2.01952c0.73495,-0.41157 2.21696,-0.69015 2.21696,-0.69015c0,0 -0.13706,3.42272 -0.01357,5.24558c0.13901,2.05214 0.56474,6.45584 0.56474,6.45584c0,0 0.79596,1.98173 3.69102,2.20824c2.89506,0.2265 4.67936,-2.05202 4.67936,-2.05202c0,0 0.01135,1.89267 -0.80906,4.05813c-0.50282,1.97508 -1.99632,3.75743 -1.99632,3.75743c0,0 0.58603,1.6186 1.3261,2.44144c0.96165,1.06921 6.00498,4.87858 6.00498,4.87858c0,0 -1.62376,2.1793 -5.11991,3.37121c-4.12347,1.40578 -5.94842,0.74276 -5.94842,0.74276z" fill="url(#color-14)" stroke-linecap="round"/><path d="M355.71167,116.46646c0,0 0.01892,0.20809 0.01174,0.56707c-0.01435,0.01455 -0.02967,0.02874 -0.04601,0.04254c0,0 -0.18057,0.1729 -0.00767,0.35347c0.01158,0.01209 0.02318,0.02259 0.03477,0.03167c-0.08094,1.20053 -0.45005,3.30414 -1.92255,5.2748c-0.71491,0.95676 -2.95989,1.45545 -2.95989,1.45545c0,0 -0.04977,-1.91428 -0.19583,-2.63328c-0.11404,-0.56138 -0.60845,-1.32608 -0.60845,-1.32608l-2.21855,2.62224c0,0 -0.82544,-2.06497 -1.49456,-2.9617c-0.64828,-0.86881 -2.45965,-2.33755 -2.45965,-2.33755c0,0 -1.23259,1.65023 -1.8682,2.25887c-0.50049,0.47924 -1.63788,1.09843 -1.63788,1.09843c0,0 -0.02382,-0.83762 -0.13457,-1.25965c-0.12289,-0.46833 -0.57017,-1.42596 -0.57017,-1.42596c0,0 -1.71501,3.46136 -3.01148,4.64164c-1.33974,1.21967 -4.90141,2.56206 -4.90141,2.56206c0,0 -0.82632,-2.72388 -1.72003,-3.76958c-1.12118,-1.31188 -4.48066,-3.48574 -4.48066,-3.48574l-3.50057,3.10311c0,0 -0.32466,-1.82229 -2.36241,-2.98312c-2.01215,-1.14624 -5.73192,-1.62681 -6.63209,-2.30276c-1.01444,-0.76174 -1.26599,-1.81985 -1.26599,-1.81985c0,0 -1.53817,1.68997 -2.49885,2.50001c-0.83501,0.70405 -2.56183,1.60325 -2.56183,1.60325c0,0 0.23909,-0.81959 0.31151,-1.20264c0.0712,-0.37667 0.11939,-1.07687 0.11939,-1.07687c0,0 -1.13816,0.43174 -1.86857,0.64143c-0.97987,0.28132 -3.4853,0.89558 -3.4853,0.89558c0,0 1.15235,-1.40708 1.73059,-2.19923c0.64897,-0.88908 1.97561,-2.87814 1.97561,-2.87814c0,0 -8.75777,5.51193 -12.63693,7.36164c-7.59854,3.62326 -11.52452,1.85004 -11.52452,1.85004l5.54265,-2.51963c0,0 -4.91796,0.60848 -7.78779,-0.49369c-4.79078,-0.96449 -4.74018,-3.24176 -4.74018,-3.24176c0,0 3.02549,-0.18741 4.2273,-0.34573c0.94761,-0.12483 2.40391,-0.52779 2.40391,-0.52779c0,0 -1.09823,-0.21221 -1.69172,-0.40439c-0.66178,-0.21428 -2.09647,-0.82218 -2.09647,-0.82218c0,0 1.64436,-0.29213 2.25212,-0.48786c0.46087,-0.14843 1.07727,-0.58439 1.07727,-0.58439c0,0 -3.02019,-2.86713 -3.53231,-5.53957c-0.17049,-0.88966 -0.25,-1.7939 -0.26064,-2.69128c0.67288,1.62338 1.62335,3.1095 2.72436,4.54838c0.69659,0.96853 2.14269,1.81092 3.30727,2.073c0.22707,0.0511 2.05993,0.67807 1.96401,0.88897c-0.12335,0.27123 -0.52132,0.28943 -0.77265,0.44947c-0.31681,0.15254 -1.80132,0.69614 -1.70927,1.20031c0.05106,0.27961 1.95866,0.84856 2.57693,0.96692c-0.21779,0.06137 -0.54486,0.20954 -0.56385,0.21852c-0.51761,0.24493 -0.88285,0.33077 -1.18554,0.65069l-0.07492,-0.05877l-0.20885,0.26626c-0.03322,0.0414 -0.05356,0.0937 -0.05481,0.15086c-0.003,0.13804 0.10649,0.25236 0.24452,0.25536l0.25718,0.00558c0.8023,0.15102 1.71962,0.17257 2.53479,0.19135c2.10372,0.0456 4.2183,0.00222 6.26085,-0.53668c-0.48049,0.48059 -0.94148,1.00504 -1.21849,1.60525c-0.00807,0.00384 -0.01614,0.00766 -0.02425,0.0115l-0.28115,0.13303c-0.08541,0.03825 -0.14574,0.12311 -0.14791,0.22287c-0.003,0.13804 0.10649,0.25236 0.24452,0.25536c0.04198,0.00092 0.08177,-0.00858 0.11689,-0.02611l0.2815,-0.1332c0.35877,-0.16977 0.68047,-0.33786 1.01735,-0.55204c1.9676,-0.94933 5.48958,-2.60386 6.56471,-4.49147c1.06669,-2.3177 3.31479,-3.18726 5.78961,-3.13361c2.23117,0.04836 3.50058,-0.39129 5.39502,-1.47394c0.08898,-0.05085 0.20112,-0.10876 0.32044,-0.1731c-0.14525,0.8287 -0.20135,2.08677 0.08423,2.30166c0.31248,0.23513 1.94843,-0.76467 2.05209,-0.46143c0.06566,0.19209 -0.06838,0.27541 -0.11096,0.39851c-0.00994,0.00931 -0.01982,0.01866 -0.02963,0.02805l0.00323,0.04766l-0.02514,-0.01326l-0.14527,0.27546c-0.01904,0.03434 -0.03024,0.07367 -0.03116,0.11566c-0.003,0.13804 0.10649,0.25236 0.24452,0.25536c0.09979,0.00216 0.18716,-0.05444 0.22908,-0.13811l0.13061,-0.24764c0.58242,-0.54255 1.34269,-0.92475 1.72763,-1.65463c0.40587,-0.38174 1.60827,-2.0728 2.10789,-2.11536c0.34309,-0.02923 2.51473,2.90739 3.02649,3.26471c1.71028,1.79768 4.07807,1.4204 5.72731,2.98019l0.08214,0.17359c0.03825,0.08541 0.12311,0.14574 0.22287,0.14791c0.09979,0.00216 0.18716,-0.05444 0.22908,-0.13811l0.1451,-0.27512c1.73661,-3.29281 1.79406,-1.34711 4.47595,0.06729c1.21076,0.63854 2.81891,1.05477 3.88791,1.90371c0.75715,0.60128 1.13169,1.38525 1.94767,1.78809c1.37593,-0.55024 1.97412,-1.43669 2.25431,-2.75929c0.00559,-0.02637 1.03652,0.53416 1.13324,0.56114c0.81076,0.22615 1.0976,0.52947 1.58426,-0.43469c0.00698,-0.16906 0.10452,-0.93973 0.01148,-1.37967c0.36961,0.21948 0.92704,0.50782 1.17077,0.70136c0.93632,0.74354 1.90083,1.2208 2.96839,1.78383c0.78828,0.41384 1.89616,0.91248 2.76339,0.93501c0.53936,0.01401 1.15992,-0.52747 1.6675,-0.39458c0.97248,0.25458 1.43363,0.84859 2.3981,1.18789c1.16832,0.03345 1.88258,-1.20037 2.97544,-0.92985c0.50855,0.12589 1.04173,0.79876 0.88563,1.29746z" fill-opacity="0.06275" fill="#000000" stroke-linecap="butt"/><path d="M355.71167,116.46646c0,0 0.01892,0.2081 0.01173,0.56706c-0.01435,0.01455 -0.02967,0.02874 -0.04601,0.04254c0,0 -0.18057,0.1729 -0.00767,0.35348c0.01159,0.01209 0.02318,0.02259 0.03477,0.03167c-0.08094,1.20053 -0.45005,3.30414 -1.92255,5.2748c-0.71491,0.95676 -2.95989,1.45545 -2.95989,1.45545c0,0 -0.04977,-1.91428 -0.19583,-2.63328c-0.11404,-0.56138 -0.60845,-1.32608 -0.60845,-1.32608l-2.21855,2.62224c0,0 -0.82544,-2.06497 -1.49456,-2.9617c-0.64828,-0.86881 -2.45965,-2.33755 -2.45965,-2.33755c0,0 -1.23259,1.65023 -1.8682,2.25887c-0.50049,0.47924 -1.63788,1.09843 -1.63788,1.09843c0,0 -0.02382,-0.83762 -0.13457,-1.25965c-0.12289,-0.46833 -0.57017,-1.42596 -0.57017,-1.42596c0,0 -1.71501,3.46136 -3.01148,4.64164c-1.33974,1.21967 -4.90141,2.56206 -4.90141,2.56206c0,0 -0.82632,-2.72388 -1.72003,-3.76958c-1.12118,-1.31188 -4.48066,-3.48574 -4.48066,-3.48574l-3.50057,3.10311c0,0 -0.32466,-1.82229 -2.36241,-2.98312c-2.01215,-1.14624 -5.73192,-1.62681 -6.63209,-2.30276c-1.01444,-0.76174 -1.26599,-1.81985 -1.26599,-1.81985c0,0 -1.53817,1.68997 -2.49885,2.50001c-0.83501,0.70405 -2.56183,1.60325 -2.56183,1.60325c0,0 0.23909,-0.81959 0.31151,-1.20264c0.0712,-0.37667 0.11939,-1.07687 0.11939,-1.07687c0,0 -1.13816,0.43174 -1.86857,0.64143c-0.97987,0.28132 -3.4853,0.89558 -3.4853,0.89558c0,0 1.15235,-1.40708 1.73059,-2.19923c0.64897,-0.88908 1.97561,-2.87814 1.97561,-2.87814c0,0 -8.75777,5.51193 -12.63693,7.36164c-7.59854,3.62326 -11.52452,1.85004 -11.52452,1.85004l5.54265,-2.51963c0,0 -4.91796,0.60848 -7.78779,-0.49369c-4.79078,-0.96449 -4.74018,-3.24176 -4.74018,-3.24176c0,0 3.02549,-0.18741 4.2273,-0.34573c0.94761,-0.12483 2.40391,-0.52779 2.40391,-0.52779c0,0 -1.09823,-0.21221 -1.69172,-0.40439c-0.66178,-0.21428 -2.09647,-0.82218 -2.09647,-0.82218c0,0 1.64436,-0.29213 2.25212,-0.48786c0.46087,-0.14843 1.07727,-0.58439 1.07727,-0.58439c0,0 -1.47912,-1.40415 -2.54267,-3.16309c1.00532,0.84228 2.22642,1.50838 3.2758,2.06516c0.22603,0.11777 1.29859,0.57001 1.76151,0.51935c-0.24758,0.1292 -0.66192,0.36033 -0.72693,0.40762c-0.57902,0.42118 -1.2532,0.58878 -1.9011,0.8967l-0.34718,0.10743c-0.10281,0.0292 -0.17911,0.12268 -0.18154,0.23511c-0.00216,0.09979 0.05444,0.18716 0.13811,0.22908l0.23448,0.12367l0.0779,-0.14767l0.00546,-0.00169c0.72704,0.14975 1.80248,-0.1879 1.98704,0.46508c0.29345,1.03826 -2.97159,1.60576 -3.48536,1.72291c-0.3998,-0.00722 -0.71791,0.10662 -1.11816,0.10158l-0.04606,0.03695l-0.00872,-0.01842l-0.23963,0.11339c-0.08541,0.03825 -0.14574,0.12311 -0.14791,0.22287c-0.00216,0.09979 0.05444,0.18716 0.13811,0.22908l0.23448,0.12367l0.01941,-0.03682c1.94271,1.35665 4.95482,0.70884 7.07103,1.42679c1.03898,-0.21956 2.07911,-0.15685 3.1139,-0.42632c0.14344,-0.03736 1.66267,-0.51985 1.62343,-0.30817c-0.11639,0.62794 -0.69362,1.13776 -0.97836,1.66432c-0.22784,0.432 -0.52602,0.77603 -0.75191,1.19376l-0.12385,0.23483c-0.01904,0.03434 -0.03024,0.07367 -0.03116,0.11566c-0.003,0.13804 0.10649,0.25236 0.24452,0.25536c0.04198,0.00092 0.08177,-0.00858 0.11689,-0.02611l0.23998,-0.11356l-0.01159,-0.0245c1.93083,-0.41251 4.13448,-1.80672 5.87745,-2.63149c2.20767,-1.04466 3.5929,-2.87993 5.58182,-4.14448c1.84094,-1.78468 4.01979,-2.11207 6.39548,-2.84266c0.18172,-0.05623 1.74506,-0.54902 2.24385,-0.85439c-0.13963,0.25902 -0.32811,0.71444 -0.36704,0.78805c-0.36772,0.69521 -0.79411,1.25018 -1.24377,1.89545l-0.00277,0.0161l-0.00491,-0.00259l-0.12385,0.23483c-0.01904,0.03434 -0.03024,0.07367 -0.03116,0.11566c-0.003,0.13804 0.10649,0.25236 0.24452,0.25536c0.04198,0.00092 0.08177,-0.00858 0.11689,-0.02611l0.23998,-0.11356l-0.0224,-0.04734c0.90962,-0.27531 1.69324,-0.92774 2.47396,-1.48713c-0.28689,0.50053 -0.57244,1.2147 -0.50805,1.39298c0.25756,0.71316 3.33984,-0.6228 4.0092,-0.93955c0.98945,-0.46819 1.44505,-1.18787 2.06943,-1.91479c0.40556,1.36682 4.56882,2.23584 5.24929,2.57717c2.11684,0.07205 4.01465,0.89946 2.91546,2.97517l-0.12385,0.23483c-0.01904,0.03434 -0.03024,0.07367 -0.03116,0.11566c-0.003,0.13804 0.10649,0.25236 0.24452,0.25536c0.02968,0.00064 0.05828,-0.00392 0.08489,-0.01283l0.35989,-0.11136l-0.00911,-0.02941c1.40347,-0.20402 2.57119,-0.82173 3.29485,-2.1173c0.99986,1.06781 4.82066,2.27123 5.63357,3.12671c0.19529,0.20053 1.26671,0.87831 1.23223,1.18096c-0.04207,0.36919 -0.36855,0.68537 -0.38084,1.12946l-0.10326,0.19579c-0.01904,0.03434 -0.03024,0.07367 -0.03116,0.11566c-0.003,0.13804 0.10649,0.25236 0.24452,0.25536c0.04198,0.00092 0.08177,-0.00858 0.11689,-0.02611l0.22727,-0.10754c2.92105,-0.34673 3.49834,-0.96292 4.81988,-3.57718c-0.20798,-0.83201 1.52792,0.91802 1.5768,0.93379c0.95937,0.30965 1.35427,-1.10871 1.4562,-1.92288c0.32281,0.23864 0.8211,0.45173 0.99423,0.52393c1.13596,0.47374 3.69737,0.07067 4.31133,1.4102c0.10867,0.28158 -0.21276,0.86937 0.076,1.08672c0.54268,0.40846 1.59005,-1.69952 2.14205,-1.50214c0.04303,0.01539 0.5416,0.93349 0.77123,1.08127c0.34619,0.2228 0.71385,0.15454 0.88455,0.5577c0.67103,0.70076 0.55039,0.89799 0.52322,1.75065l-0.1187,0.33194l0.10727,0.03837l-0.00788,0.25558c0.07557,-0.03612 0.15054,-0.07518 0.22489,-0.11695l0.08403,0.08775l0.24714,-0.23665l-0.03349,-0.03497c1.5071,-1.01484 2.72666,-3.11372 3.40196,-4.79376c0.29209,0.27355 0.48919,0.67841 0.38618,1.00748z" fill-opacity="0.06275" fill="#000000" stroke-linecap="butt"/><path d="M364.82173,102.66962c0,0 0.01135,1.89267 -0.80906,4.05813c-0.50282,1.97508 -1.99632,3.75743 -1.99632,3.75743c0,0 0.58603,1.6186 1.3261,2.44144c0.96165,1.06921 6.00498,4.87858 6.00498,4.87858c0,0 -1.62376,2.1793 -5.11991,3.37121c-2.77652,0.94659 -4.5109,0.95516 -5.34772,0.85978c1.11218,-0.57306 2.5802,-1.16655 3.497,-1.91363c1.4047,-1.14467 2.01929,-2.38416 2.01929,-2.38416c0,0 -2.3826,-2.38283 -3.39818,-3.6394c-0.95656,-1.18357 -2.52883,-3.69417 -2.52883,-3.69417c0,0 4.7146,-3.31846 4.43008,-6.23491c1.22707,-0.61217 1.92258,-1.50031 1.92258,-1.50031z" fill-opacity="0.06275" fill="#000000" stroke-linecap="butt"/><path d="M364.82289,102.61606c0,0 0.01135,1.89267 -0.80906,4.05813c-0.50282,1.97508 -1.99632,3.75743 -1.99632,3.75743c0,0 0.58603,1.6186 1.3261,2.44144c0.96165,1.06921 6.00498,4.87858 6.00498,4.87858c0,0 -1.62376,2.1793 -5.11991,3.37121c-2.00735,0.68435 -3.46998,0.87843 -4.44253,0.89738c1.45501,-0.39166 3.74615,-1.52881 4.81222,-2.24862c1.14532,-0.77332 2.83095,-2.15987 2.83095,-2.15987c0,0 -1.72293,-0.7311 -2.63888,-1.47464c-0.91595,-0.74352 -2.38044,-2.0488 -3.81235,-3.54418c-0.38672,-0.53962 -1.62211,-1.97236 -1.62211,-1.97236c0,0 1.91967,-1.20034 2.79793,-2.31561c1.26837,-1.61726 1.73719,-2.96967 1.84833,-4.8955c0.53256,-0.42547 0.82068,-0.79339 0.82068,-0.79339z" fill-opacity="0.06275" fill="#000000" stroke-linecap="butt"/></g><path d="M333.20771,119.51898l8.71476,0.18892" fill="none" stroke="#000000" stroke-width="2" stroke-linecap="round"/><g stroke="#000000" stroke-width="2" stroke-linecap="butt"><path d="M309.67454,155.01838c0,0 0.07178,-1.37763 1.74529,-13.66628c0.60857,-4.46872 13.59671,-3.03667 14.25901,0.3091c0.83229,4.20445 0.83996,13.72232 0.83996,13.72232z" fill="#000000"/><path d="M310.57974,154.78884l1.0804,-6.56698c0,0 0.86931,4.07946 6.56461,4.0752c5.94113,-0.00443 6.53695,-3.49579 6.53695,-3.49579l0.89082,6.56343z" fill="#ffffff"/></g></g></g></svg>