<svg version="1.1" xmlns="http://www.w3.org/2000/svg" xmlns:xlink="http://www.w3.org/1999/xlink" width="107.50265" height="222.6881" viewBox="0,0,107.50265,222.6881"><g transform="translate(-185.94529,-94.18112)"><g stroke="none" stroke-miterlimit="10"><path d="" fill="#000000"/><path d="" fill="#000000"/><path d="" fill="#000000"/><path d="" fill="#000000"/><path d="" fill="#000000"/><g><path d="" fill="#000000"/><path d="" fill="#000000"/><path d="" fill="#000000"/><path d="" fill="#000000"/><path d="" fill="#e16f6f"/><path d="" fill="#c2e16f"/><path d="" fill="#6f7ce1"/></g><g><path d="M277.9195,210.62128c0.61212,0.74856 1.11855,2.12562 1.51927,4.13121l2.78556,14.6605c1.14603,5.52241 1.9023,9.72424 2.2688,12.60549c0.66728,3.75694 1.34509,9.5265 2.03341,17.3087l1.69104,26.69397c-0.16914,5.5224 -0.53277,9.47706 -1.0909,11.86399c-0.31424,1.49712 -0.65538,2.61996 -1.02343,3.36852l-2.17543,3.3897c-2.68916,3.2626 -4.79761,5.58597 -6.32535,6.9701c-2.54453,2.3728 -5.11006,3.87698 -7.69658,4.51255l-5.57175,0.55083c-17.12778,0.63557 -31.36128,-0.30366 -42.7005,-2.81769c-5.27375,-1.1299 -9.38214,-2.76119 -12.32517,-4.89389c-1.87175,-1.2429 -3.30368,-2.49286 -4.29577,-3.74987c-1.56165,-1.38413 -3.1,-3.2061 -4.61505,-5.4659c-2.03915,-3.13548 -3.68167,-7.95876 -4.92755,-14.46982c-1.33515,-6.39808 -2.19697,-11.79338 -2.58548,-16.18588c-0.68755,-6.51107 -0.73793,-17.04035 -0.15114,-31.58786c0.249,-4.75972 0.54652,-8.26949 0.89257,-10.52929c1.68737,-8.27654 2.66559,-14.61107 2.93466,-19.00356c0.07967,-1.62424 0.2539,-2.81064 0.52269,-3.5592c0.4235,-1.38413 1.12591,-2.13975 2.10724,-2.26686c0.454,-0.06636 0.9811,0.00585 1.58133,0.21662c14.06001,8.65319 28.6743,14.87348 44.6855,15.10588c7.04459,0.10225 15.42555,0.44845 21.98699,-2.54047c3.13915,-1.42998 6.65364,-3.01129 9.87574,-5.04766c0.21374,0.21855 0.41351,0.46518 0.5993,0.73991z" fill="#cccccc"/><path d="M282.30334,206.10872c0.57589,6.51107 2.75446,21.74358 6.5357,45.69754c0.67737,4.01116 1.23241,7.83164 1.66512,11.46146c0.16788,0.63557 0.29055,1.3912 0.368,2.26688l0.13304,1.50419c1.45361,11.52501 2.26787,21.36224 2.44274,29.51166l-0.01759,1.69486c-0.06718,1.76547 -0.22896,3.02249 -0.48534,3.77105c-0.72601,1.75136 -1.96993,2.62702 -3.73176,2.62702c-1.78431,-0.25423 -3.08891,-1.25701 -3.9138,-3.00836c-0.41129,-1.0028 -0.56084,-2.1327 -0.4487,-3.38971l-0.23005,-8.07175c0.27926,-1.89259 0.48002,-3.34027 0.60225,-4.34307c0.41515,-2.88125 0.44533,-6.32745 0.09055,-10.33862c-0.06621,-0.74856 -0.43809,-4.32188 -1.11566,-10.71996c-0.42148,-3.5027 -0.97148,-7.19608 -1.65,-11.08011l-6.38664,-42.32901c-4.29435,3.77105 -9.27978,6.53226 -14.95626,8.2836c-6.75824,2.00558 -15.55112,2.18919 -26.37864,0.55082c-10.84876,-1.87846 -19.46161,-4.56905 -25.83855,-8.07175c-3.58937,-2.00558 -6.81661,-4.26538 -9.6817,-6.77941c-3.05213,16.55309 -4.46027,34.22902 -4.22439,53.02779c0.3912,0.63557 0.68114,2.01971 0.86977,4.15239c0.19718,6.01674 0.74533,12.84558 1.64449,20.48656c0.2116,1.1299 0.52843,2.88832 0.95046,5.27524c1.05782,3.2626 1.53123,5.45885 1.42025,6.58875c-0.21382,1.37001 -0.67725,2.37279 -1.39029,3.00836c-0.26878,0.74856 -0.83239,1.24995 -1.69082,1.50419c-1.14853,0.62145 -2.34675,0.12005 -3.59465,-1.50419c-0.13415,-0.25423 -0.27392,-0.57201 -0.41932,-0.95335c-0.38996,-0.62145 -0.72913,-1.37001 -1.01751,-2.24569c-0.03373,-0.38134 -0.11767,-0.69913 -0.25182,-0.95335c-1.16775,-4.50549 -1.96784,-10.39511 -2.40026,-17.66886c-0.85274,-10.90356 -1.01429,-22.68988 -0.48468,-35.35891c0.57575,-12.28771 1.88704,-24.88612 3.93392,-37.79527c0.13062,-1.12577 0.32695,-2.0715 0.58901,-2.83717c0.00706,0.00229 0.01412,0.00458 0.02119,0.00687c1.55512,0.50428 3.11826,0.59558 4.68182,0.50691c14.92984,9.56699 30.4265,16.63517 47.51422,16.8832c7.04459,0.10225 15.42555,0.44845 21.98699,-2.54047c4.87948,-2.22274 10.66583,-4.81114 14.85133,-8.90589c0.00252,0.0285 0.00504,0.05703 0.00757,0.08559z" fill="#000000"/></g><path d="M276.28248,150.42264c2.7423,4.73084 5.2664,11.18019 7.57233,19.34801c0.84397,3.62225 1.29828,5.80018 1.36295,6.5338c0.23687,1.4697 0.25932,3.48298 0.06732,6.03984c-0.34481,6.9109 -1.61992,12.26417 -3.82529,16.05979c-2.10828,3.67975 -6.29982,7.80546 -12.57464,12.37715l-4.32527,3.08218c-5.13805,2.99283 -12.29327,4.67886 -21.46566,5.05807c-1.2661,0.1116 -3.1682,0.17789 -5.70629,0.19891c-3.06916,-0.05144 -7.59997,-0.45103 -13.59241,-1.19875c-1.70736,-0.15955 -3.26142,-0.33857 -4.66218,-0.53707c1.51664,0.29561 3.08008,0.58112 4.69033,0.85655l6.28041,1.03835c3.7634,0.62224 6.33018,0.92664 7.70032,0.9132c1.28383,0.08956 3.28651,0.01438 6.00803,-0.22549l15.92088,-1.40334c1.85672,-0.58102 3.82086,-1.70216 5.89241,-3.3634c2.47875,-1.91179 4.1288,-3.01119 4.95015,-3.29824c2.30707,-0.79485 4.05651,-0.56917 5.24833,0.67702c-0.14507,0.14187 -0.2855,0.27883 -0.42104,0.41003c-1.20416,1.16559 -2.74868,1.4281 -3.76892,2.6261c-0.16596,0.19486 -0.38592,0.6447 -0.62498,1.21965c-2.02368,0.89151 -4.0037,1.56875 -5.41417,1.80317c-3.07991,0.51186 -5.76272,3.3458 -8.84515,3.78457c-5.15413,0.73365 -10.45433,1.76748 -15.78985,2.54062c-6.36228,-1.4689 -13.25901,-0.41111 -19.62883,-1.91364c-1.95322,-0.46073 -5.00336,0.02001 -6.77842,-0.9968c-4.92169,-2.81931 -9.94652,-5.19222 -14.87811,-7.88692c-0.11393,-0.14912 -0.23295,-0.29401 -0.35673,-0.43442c0.41759,-0.79923 1.00058,-1.27469 1.74899,-1.42635c0.83074,-0.18055 1.91201,0.0461 3.24381,0.67996c-3.00673,-1.64292 -5.56778,-3.64111 -7.68316,-5.9946c-1.76879,-2.07399 -3.62049,-5.08869 -5.55511,-9.04408l-1.6075,-3.82921c-0.15239,-0.51126 -0.36312,-2.2933 -0.63221,-5.34613l-0.19367,-5.84984c-0.14177,-6.34333 -0.03189,-11.11689 0.32965,-14.32072c0.58758,-5.23901 1.93081,-9.75163 4.02969,-13.53787c0.73895,-1.22182 2.47735,-3.75403 5.2152,-7.59658c0.8444,-1.24305 3.14006,-4.6233 6.88695,-10.14078c0.92378,-1.56007 1.68046,-2.58075 2.27004,-3.062c0.30175,-0.22932 1.51604,-0.86103 3.64287,-1.89515c5.53748,-1.97868 9.7079,-3.30025 12.51124,-3.96471c6.95701,-1.56719 13.80273,-1.96193 20.53714,-1.1842c2.35431,0.32909 4.46185,0.83495 6.32265,1.51758l3.31109,1.44318c10.22077,5.56223 17.7497,12.30976 22.58677,20.24256z" fill="#cccccc"/><path d="M247.03004,123.14778c7.14672,1.80268 13.81025,5.29355 19.99057,10.47261c5.70496,4.79167 10.55215,10.60695 14.54156,17.44586c3.98351,6.63671 6.48792,13.40378 7.51326,20.30123c1.81218,10.95401 0.01183,21.17112 -5.40104,30.65132c-1.09678,1.89729 -2.2621,3.6933 -3.49597,5.38804c0.03218,0.36519 0.06478,0.73497 0.09778,1.10935c-1.91862,1.52292 -3.60866,3.24915 -4.87305,4.47304c-0.31687,0.30671 -0.6573,0.55091 -1.00556,0.76606l-0.021,-0.13112c-0.17835,0.15304 -0.3579,0.3046 -0.53865,0.45468c-0.79877,0.43954 -1.59465,0.82132 -2.20368,1.53647c-0.06386,0.07499 -0.13571,0.18772 -0.21358,0.33082c-0.8994,0.64564 -1.82551,1.25852 -2.77829,1.83869c-1.14544,0.41138 -2.19928,0.71238 -3.04728,0.85331c-3.07991,0.51186 -5.76272,3.3458 -8.84515,3.78457c-4.46801,0.636 -9.04581,1.49756 -13.66124,2.21932c-1.13204,0.03604 -2.29301,0.05147 -3.48285,0.04633c-4.07984,-0.7216 -8.34454,-0.57112 -12.52333,-0.84654c-6.12042,-0.7597 -11.29097,-1.90733 -15.51166,-3.44289c-3.95814,-2.13336 -7.9569,-4.08051 -11.89614,-6.23296c-0.15423,-0.20186 -0.31774,-0.39596 -0.48983,-0.5817c-0.49581,-1.43395 -1.95637,-2.70243 -3.63459,-3.62665c-1.64102,-1.7766 -3.05968,-3.72386 -4.25596,-5.84181c-2.65458,-4.95322 -4.34854,-12.73974 -5.08191,-23.35957c-0.47226,-7.79285 -0.3184,-13.89394 0.46156,-18.30324c1.50625,-8.07457 5.29509,-15.55138 11.36653,-22.43044c5.29249,-5.97568 12.04918,-10.96546 20.27006,-14.96937c4.66087,-2.31877 8.67622,-3.573 12.0461,-3.76273c1.68025,-0.14811 3.59642,-0.05466 5.74853,0.28032zM258.09438,135.03324c-7.53065,-4.94079 -15.51535,-7.25391 -23.95411,-6.93936c-5.06785,0.13667 -9.78776,1.24432 -14.15974,3.32299c-4.99912,2.13394 -9.92684,5.68658 -14.78318,10.65792c-3.78851,3.82785 -6.63633,7.57278 -8.54345,11.2348c-3.53819,6.6677 -4.96836,16.2142 -4.2905,28.63953c0.53692,8.52648 2.23029,15.15636 5.08013,19.88967c3.5712,5.61176 8.91863,9.79697 16.0423,12.55565c5.147,1.97895 11.81247,3.19204 19.99641,3.63928c10.01901,0.70286 18.04871,-0.05858 24.08911,-2.2843c6.38109,-2.14843 11.87402,-5.91783 16.47878,-11.30822c4.6058,-5.37854 7.51526,-11.40055 8.72834,-18.06602c1.90429,-10.86424 -0.55973,-21.97544 -7.39202,-33.33361z" fill="#000000"/><path d="M209.48423,182.13404c2.76862,2.4035 5.63113,3.98751 8.58753,4.75204c3.67699,1.03634 9.62828,1.44964 17.85393,1.23991c2.82818,-0.01057 5.70325,-0.08447 8.62521,-0.22171c1.56849,-0.07367 3.30273,-0.18568 5.20273,-0.33605c0.87802,-0.16349 2.18056,-0.49637 3.9076,-0.9986c2.3063,-0.46831 4.20914,-0.94824 5.7085,-1.43979c-0.02007,-0.12131 0.0218,-0.21498 0.12561,-0.28099l2.85853,-1.21423c0.29878,-0.19742 0.79067,-0.61448 1.47568,-1.25117l0.95786,-1.49174c0.80889,-0.58137 1.3164,-0.90408 1.52251,-0.96809c0.38513,-0.44601 1.16293,-0.90706 2.33343,-1.38315c0.95022,-0.3435 1.81877,-0.56428 2.60563,-0.66237c1.54843,-0.19499 2.75936,-0.0413 3.63281,0.46106c0.86341,0.4417 0.87116,0.8353 0.02324,1.18077c0.02899,0.17524 -0.06033,0.32887 -0.26795,0.46088c-2.12987,2.15132 -4.0857,3.65937 -5.86752,4.52416c-2.58066,1.50684 -6.972,3.01041 -13.174,4.51073l-3.28476,0.60257c-0.98182,0.22951 -3.32585,0.43128 -7.03205,0.60536c-7.75392,0.36418 -13.79683,0.43743 -18.12873,0.21977c-6.94243,-0.27845 -12.28799,-1.11416 -16.03671,-2.50711c-1.67775,-0.58684 -3.02979,-1.24673 -4.05611,-1.97964c-1.14014,-0.72757 -2.39687,-1.81304 -3.77017,-3.25645l-0.16684,-0.08387c-0.02007,-0.12131 -0.25779,-0.17128 -0.71316,-0.1499l-0.60093,-0.51177l-0.86496,-0.14277c-0.01004,-0.06066 -0.12889,-0.08565 -0.35658,-0.07495l-1.03571,-0.13475l-1.24996,-0.38959l-0.40006,-0.33781l-0.11187,-1.7166l0.28132,-0.38l0.43478,-0.37702l0.51229,-0.02406c0.94281,-0.4654 2.09464,-0.66893 3.45553,-0.61059c0.56921,-0.02674 1.08968,0.03712 1.56138,0.19156c0.91816,0.07914 1.66402,0.46523 2.23757,1.15828l1.62978,1.6453l1.24996,0.38959l0.26107,0.53791z" fill="#000000"/><path d="M251.45065,157.06527l1.50926,-0.93794l0.92662,-0.24265l0.46671,-0.18423c0.71485,-0.27765 1.35086,-0.23236 1.90799,0.13589l0.66713,0.26316c0.34764,0.29132 0.52616,0.49023 0.53554,0.59672l0.48806,0.26106l0.20199,0.46514l0.27082,1.24611l0.18791,0.3054l0.05476,0.62121l0.25674,1.08636c0.22932,0.30175 0.25748,0.62123 0.08448,0.95844l-0.11907,0.47555l-0.29132,0.34764l-0.13158,0.33356l-0.56645,0.67597l-0.59672,0.53554l-0.59305,0.37424l-3.15933,0.27848l-0.63529,-0.10499l-0.34764,-0.29132c-0.10649,0.00939 -0.33356,-0.13158 -0.68121,-0.4229l-0.67597,-0.56645l-0.41648,-1.07228l-0.15974,0.01408l-0.2644,-2.99959l0.1175,-0.4933z" fill="#000000"/><path d="M215.8871,157.01612l1.26019,-0.11108l0.63529,0.10499l0.66713,0.26316c0.45065,0.37763 0.72922,0.56176 0.83572,0.55237l0.3758,0.6108l0.15974,-0.01408c-0.09711,0.11588 -0.0303,0.26501 0.20042,0.44739l0.02816,0.31948l0.21607,0.62488l-0.10499,0.63529l0.04224,0.47922l-0.11907,0.47555l-0.15974,0.01408l-0.08934,0.81278l-0.15974,0.01408l-0.26473,0.64937l-0.21725,0.98504l-0.30696,0.17015l-0.58264,0.69529l-1.9723,0.96088l-1.26019,0.11108c-0.62713,0.05527 -1.1093,-0.00358 -1.44652,-0.17657l-0.64937,-0.26473c-0.34764,-0.29132 -0.57471,-0.43228 -0.68121,-0.4229l-0.18791,-0.3054l-0.0266,-0.30173l-0.3299,-0.29288l-0.08292,-0.9407l-0.18791,-0.3054c0.07834,-0.32887 0.10864,-0.59389 0.0909,-0.79505l-0.05632,-0.63896l0.37856,-0.98138c0.42598,-0.03755 0.62019,-0.26931 0.58264,-0.69529l0.15974,-0.01408c0.28053,-0.33476 0.41141,-0.60865 0.39264,-0.82164l0.45106,-0.36172l1.94414,-1.28035z" fill="#000000"/><g><path d="M200.30044,151.25312l-0.3054,0.18791c-0.11588,-0.09711 -0.18321,-0.25216 -0.20199,-0.46514c0.12527,0.2036 0.2944,0.29601 0.50738,0.27725M239.33739,124.14782c-0.05122,0.63652 -0.30481,1.34453 -0.76079,2.12405l0.17382,0.14566c-0.2036,0.12527 -0.39782,0.35703 -0.58264,0.69529c-1.17082,1.05716 -2.13927,2.04285 -2.90535,2.95702c-0.59062,0.46943 -1.1334,0.94059 -1.62832,1.4135c-0.10649,0.00939 -0.20708,0.01825 -0.30173,0.0266l-1.07751,0.56003l-1.62309,1.26994l-0.29288,0.3299l-0.46514,0.20199l-3.57247,2.69385l-2.75169,1.04746c-0.19525,0.21993 -0.27881,0.48963 -0.25065,0.80913c-0.31009,0.13465 -0.60958,0.32203 -0.89847,0.56214l-0.50738,-0.27725l-1.72533,0.31306l-1.07228,0.41648l-0.14723,0.15607l-0.31948,0.02816l-6.02243,3.71472l0.02816,0.31948c0.00939,0.10649 0.02294,0.26032 0.04068,0.46147c-0.41414,0.03651 -0.82482,0.18003 -1.23202,0.43056l-0.12791,0.17226l-0.31948,0.02816c-0.71485,0.27765 -1.32912,0.54644 -1.84283,0.80636l-1.37925,0.58663c-0.61774,0.16178 -1.19164,0.21236 -1.72165,0.15175l-2.19047,0.51504c0.19421,-0.23176 0.44637,-0.41496 0.75647,-0.54962c-0.83074,0.18055 -1.56436,0.24521 -2.20087,0.19399c-0.76319,-0.13545 -1.49121,-0.54826 -2.18405,-1.23844c-0.56653,-0.47475 -1.09043,-1.00692 -1.57168,-1.5965c-0.94233,-1.08555 -1.63199,-2.34839 -2.06897,-3.78853c-0.28703,-0.82135 -0.79635,-2.94674 -1.52791,-6.37617c-0.00939,-0.10649 -0.01877,-0.21298 -0.02816,-0.31948c-0.00939,-0.10649 -0.06732,-0.15505 -0.17382,-0.14566c-0.66342,-2.79151 -1.24301,-5.17304 -1.73875,-7.14461l-2.35688,-12.33099l0.85655,-4.69033l0.79261,-1.96588l-0.14382,-8.73404c0.29237,-0.3358 0.47771,-0.66815 0.55604,-0.99702c0.09711,-0.11588 0.18413,-0.27858 0.26106,-0.48806c0.09711,-0.11588 0.24277,-0.2897 0.43698,-0.52146c0.07834,-0.32887 0.31102,-0.66538 0.69804,-1.00954l0.3054,-0.18791l0.15974,-0.01408c0.29132,-0.34764 0.58611,-0.58827 0.88439,-0.72188l4.38492,1.04445c0.00939,0.10649 0.06732,0.15505 0.17382,0.14566l0.01408,0.15974c0.00939,0.10649 0.06732,0.15505 0.17382,0.14566l0.15974,-0.01408l2.67211,1.4995c0.21055,0.08877 0.5335,0.16761 0.96886,0.23657l0.18791,0.3054l1.83274,1.10843l6.9677,3.35673c0.90478,0.65957 1.81427,1.3724 2.72843,2.13846c2.82085,1.96933 6.96024,5.09838 12.41816,9.38715c5.30449,3.76568 8.12586,5.74093 8.46412,5.92576c1.74063,1.75451 2.61297,3.2636 2.61703,4.52725M208.98478,105.69875c-2.82085,-1.96933 -5.50288,-3.58124 -8.04607,-4.83573c-0.79239,-0.46677 -1.62221,-0.81695 -2.48944,-1.05055c-0.05816,0.42249 -0.11701,0.90466 -0.17657,1.44652l-0.29288,0.3299c-0.10649,0.00939 -0.3054,0.18791 -0.59672,0.53554l-0.28765,0.18634c-0.2591,1.93078 -0.49403,4.06811 -0.7048,6.41199c0.10649,-0.00939 0.16444,0.03916 0.17382,0.14566c-0.16199,1.81489 -0.2128,3.67365 -0.1524,5.57627c0.09178,1.04127 0.51284,3.38313 1.26319,7.02554l1.66991,6.36365l1.41318,5.27729c0.47697,1.75857 0.97782,3.24674 1.50252,4.46451c0.4582,1.54558 0.9314,2.72019 1.4196,3.5238l0.52146,0.43698c0.21298,-0.01877 0.51717,-0.15291 0.91255,-0.4024c2.67297,-2.14355 6.08478,-4.2926 10.23543,-6.44714l2.72354,-1.36694l8.22854,-4.05227c3.05467,-1.33054 5.25566,-2.74086 6.60297,-4.23095c0.3007,-0.24115 0.49023,-0.52616 0.56856,-0.85502c-0.02712,-0.30765 -0.2145,-0.60713 -0.56214,-0.89847c-2.35837,-1.59274 -4.43765,-2.99543 -6.23783,-4.2081c-3.29376,-2.46426 -5.85012,-4.40921 -7.66909,-5.83486c-0.90478,-0.65957 -1.64984,-1.33323 -2.23513,-2.02096c-2.04133,-1.51337 -3.84674,-2.78519 -5.4162,-3.81545c-0.80768,-0.77545 -1.5971,-1.34384 -2.36828,-1.70515M215.88626,137.32267c0.40824,-0.23871 0.76272,-0.47863 1.06343,-0.71978c-0.31009,0.13465 -0.6155,0.32256 -0.9162,0.56371c-1.942,0.69586 -3.26156,1.28319 -3.95869,1.762c-0.50431,0.36641 -0.85826,0.61226 -1.06186,0.73752c1.62496,-0.77524 3.2494,-1.55639 4.87333,-2.34346z" fill="#000000"/><path d="M198.27269,101.259c0.05957,-0.54186 0.11842,-1.02404 0.17657,-1.44652c0.86724,0.23359 1.69705,0.58378 2.48944,1.05055l-4.37426,8.00539c-0.00939,-0.10649 -0.06732,-0.15505 -0.17382,-0.14566c0.21076,-2.34388 0.4457,-4.48121 0.7048,-6.41199l0.28765,-0.18634c0.29132,-0.34764 0.49023,-0.52616 0.59672,-0.53554l0.29288,-0.3299M216.76927,111.21937l-14.50845,26.35633c-0.5247,-1.21776 -1.02555,-2.70592 -1.50252,-4.46451l-1.41318,-5.27729l12.00792,-20.42998c1.56946,1.03027 3.37486,2.30209 5.4162,3.81545M232.9049,125.03677c-1.34731,1.49009 -3.5483,2.90041 -6.60297,4.23095l-8.22854,4.05227l8.6001,-14.2448c1.80019,1.21266 3.87947,2.61535 6.23783,4.2081c0.34764,0.29132 0.53502,0.5908 0.56214,0.89847c-0.07834,0.32887 -0.26786,0.61388 -0.56856,0.85502z" fill="#e16f6f"/><path d="M226.67348,119.07518l-8.6001,14.2448l-2.72354,1.36694c-4.15065,2.15454 -7.56247,4.30359 -10.23543,6.44714c-0.39537,0.24948 -0.69955,0.38362 -0.91255,0.4024l-0.52146,-0.43698c-0.48819,-0.80361 -0.9614,-1.97822 -1.4196,-3.5238l14.50845,-26.35633c0.58531,0.68773 1.33036,1.36139 2.23513,2.02096c1.81897,1.42564 4.37532,3.37059 7.66909,5.83486z" fill="#c2e16f"/><path d="M199.34515,127.83389l-1.66991,-6.36365c-0.75034,-3.64241 -1.17141,-5.98427 -1.26319,-7.02554c-0.06038,-1.90262 -0.00958,-3.76138 0.1524,-5.57627l4.37426,-8.00539c2.5432,1.25449 5.22522,2.8664 8.04607,4.83573c0.77117,0.36131 1.5606,0.9297 2.36828,1.70515z" fill="#6f7ce1"/></g></g></g></svg>