<svg version="1.1" xmlns="http://www.w3.org/2000/svg" xmlns:xlink="http://www.w3.org/1999/xlink" width="424.02212" height="298.80633" viewBox="0,0,424.02212,298.80633"><g transform="translate(-12.71339,-21.81417)"><g data-paper-data="{&quot;isPaintingLayer&quot;:true}" fill-rule="nonzero" stroke="#000000" stroke-width="0" stroke-linecap="butt" stroke-linejoin="miter" stroke-miterlimit="10" stroke-dasharray="" stroke-dashoffset="0" style="mix-blend-mode: normal"><g><path d="M18.06398,50.5504v-27.78396h27.78396v27.78396z" data-paper-data="{&quot;index&quot;:null}" fill="#adadad"/><path d="M18.06398,78.33425v-27.78396h27.78396v27.78396z" data-paper-data="{&quot;index&quot;:null}" fill="#808080"/><path d="M18.06398,106.1183v-27.78396h27.78396v27.78396z" data-paper-data="{&quot;index&quot;:null}" fill="#4d4d4d"/><path d="M18.06398,133.90227v-27.78396h27.78396v27.78396z" data-paper-data="{&quot;index&quot;:null}" fill="#333333"/><path d="M18.06398,161.68616v-27.78396h27.78396v27.78396z" data-paper-data="{&quot;index&quot;:null}" fill="#1f1f1f"/><path d="M45.46206,50.5504v-27.78396h27.78396v27.78396z" data-paper-data="{&quot;index&quot;:null}" fill="#e07b7b"/><path d="M45.46206,78.33425v-27.78396h27.78396v27.78396z" data-paper-data="{&quot;index&quot;:null}" fill="#c74848"/><path d="M45.46206,106.1183v-27.78396h27.78396v27.78396z" data-paper-data="{&quot;index&quot;:null}" fill="#ad1a1a"/></g><g><path d="M303.65333,52.48772v-27.78396h27.78396v27.78396z" data-paper-data="{&quot;index&quot;:null}" fill="#b0b0b0"/><path d="M303.65333,80.27157v-27.78396h27.78396v27.78396z" data-paper-data="{&quot;index&quot;:null}" fill="#828282"/><path d="M303.65333,108.05565v-27.78396h27.78396v27.78396z" data-paper-data="{&quot;index&quot;:null}" fill="#525252"/><path d="M303.65333,135.8396v-27.78396h27.78396v27.78396z" data-paper-data="{&quot;index&quot;:null}" fill="#363636"/><path d="M303.65333,163.6235v-27.78396h27.78396v27.78396z" data-paper-data="{&quot;index&quot;:null}" fill="#1f1f1f"/><path d="M331.05141,52.48772v-27.78396h27.78396v27.78396z" data-paper-data="{&quot;index&quot;:null}" fill="#5cc8ff"/><path d="M331.05141,80.27157v-27.78396h27.78396v27.78396z" data-paper-data="{&quot;index&quot;:null}" fill="#0eaefe"/><path d="M331.05141,108.05565v-27.78396h27.78396v27.78396z" data-paper-data="{&quot;index&quot;:null}" fill="#0284c6"/></g><g><path d="M236.93298,50.03923v-26.92941h26.92941v26.92941z" fill="#a3a3a3"/><path d="M236.93298,76.9686v-26.92941h26.92941v26.92941z" fill="#8a8a8a"/><path d="M236.93298,103.89804v-26.92941h26.92941v26.92941z" fill="#7a7a7a"/><path d="M236.93298,130.82745v-26.92941h26.92941v26.92941z" fill="#4d4d4d"/><path d="M236.93298,157.75687v-26.92941h26.92941v26.92941z" fill="#2b2b2b"/><path d="M263.48839,50.03923v-26.92941h26.92941v26.92941z" fill="#58da8a"/><path d="M263.48839,76.9686v-26.92941h26.92941v26.92941z" fill="#279239"/><path d="M263.48839,103.89804v-26.92941h26.92941v26.92941z" fill="#2f6f2b"/></g><g><path d="M164.6351,51.5504v-27.78396h27.78396v27.78396z" data-paper-data="{&quot;index&quot;:null}" fill="#d6d6d6"/><path d="M164.6351,79.33425v-27.78396h27.78396v27.78396z" data-paper-data="{&quot;index&quot;:null}" fill="#a6a6a6"/><path d="M164.6351,107.1183v-27.78396h27.78396v27.78396z" data-paper-data="{&quot;index&quot;:null}" fill="#8a8a8a"/><path d="M164.6351,134.90229v-27.78396h27.78396v27.78396z" data-paper-data="{&quot;index&quot;:null}" fill="#737373"/><path d="M164.6351,162.68616v-27.78396h27.78396v27.78396z" data-paper-data="{&quot;index&quot;:null}" fill="#545454"/><path d="M192.03319,51.5504v-27.78396h27.78396v27.78396z" data-paper-data="{&quot;index&quot;:null}" fill="#ded89c"/><path d="M192.03319,79.33425v-27.78396h27.78396v27.78396z" data-paper-data="{&quot;index&quot;:null}" fill="#aeb56a"/><path d="M192.03319,107.1183v-27.78396h27.78396v27.78396z" data-paper-data="{&quot;index&quot;:null}" fill="#909751"/></g><g><path d="M90.52442,49.59813v-27.78396h27.78396v27.78396z" data-paper-data="{&quot;index&quot;:null}" fill="#adadad"/><path d="M90.52442,77.38198v-27.78396h27.78396v27.78396z" data-paper-data="{&quot;index&quot;:null}" fill="#808080"/><path d="M90.52442,105.16603v-27.78396h27.78396v27.78396z" data-paper-data="{&quot;index&quot;:null}" fill="#4d4d4d"/><path d="M90.52442,132.95v-27.78396h27.78396v27.78396z" data-paper-data="{&quot;index&quot;:null}" fill="#333333"/><path d="M90.52442,160.73389v-27.78396h27.78396v27.78396z" data-paper-data="{&quot;index&quot;:null}" fill="#1f1f1f"/><path d="M117.9225,49.59813v-27.78396h27.78396v27.78396z" data-paper-data="{&quot;index&quot;:null}" fill="#e0997b"/><path d="M117.9225,77.38198v-27.78396h27.78396v27.78396z" data-paper-data="{&quot;index&quot;:null}" fill="#c76d48"/><path d="M117.9225,105.16603v-27.78396h27.78396v27.78396z" data-paper-data="{&quot;index&quot;:null}" fill="#ad451a"/></g><g><path d="M12.71339,209.48472v-27.78396h27.78396v27.78396z" data-paper-data="{&quot;index&quot;:null}" fill="#b0b0b0"/><path d="M12.71339,237.26857v-27.78396h27.78396v27.78396z" data-paper-data="{&quot;index&quot;:null}" fill="#828282"/><path d="M12.71339,265.05265v-27.78396h27.78396v27.78396z" data-paper-data="{&quot;index&quot;:null}" fill="#525252"/><path d="M12.71339,292.8366v-27.78396h27.78396v27.78396z" data-paper-data="{&quot;index&quot;:null}" fill="#363636"/><path d="M12.71339,320.6205v-27.78396h27.78396v27.78396z" data-paper-data="{&quot;index&quot;:null}" fill="#1f1f1f"/><path d="M40.11147,209.48472v-27.78396h27.78396v27.78396z" data-paper-data="{&quot;index&quot;:null}" fill="#7c5cff"/><path d="M40.11147,237.26857v-27.78396h27.78396v27.78396z" data-paper-data="{&quot;index&quot;:null}" fill="#3e0fff"/><path d="M40.11147,265.05265v-27.78396h27.78396v27.78396z" data-paper-data="{&quot;index&quot;:null}" fill="#2a02c7"/></g><g><path d="M381.55346,53.19904v-27.78396h27.78396v27.78396z" data-paper-data="{&quot;index&quot;:null}" fill="#adadad"/><path d="M381.55346,80.98289v-27.78396h27.78396v27.78396z" data-paper-data="{&quot;index&quot;:null}" fill="#808080"/><path d="M381.55346,108.76694v-27.78396h27.78396v27.78396z" data-paper-data="{&quot;index&quot;:null}" fill="#4d4d4d"/><path d="M381.55346,136.55091v-27.78396h27.78396v27.78396z" data-paper-data="{&quot;index&quot;:null}" fill="#333333"/><path d="M381.55346,164.3348v-27.78396h27.78396v27.78396z" data-paper-data="{&quot;index&quot;:null}" fill="#1f1f1f"/><path d="M408.95154,53.19904v-27.78396h27.78396v27.78396z" data-paper-data="{&quot;index&quot;:null}" fill="#7b97e0"/><path d="M408.95154,80.98289v-27.78396h27.78396v27.78396z" data-paper-data="{&quot;index&quot;:null}" fill="#4871c7"/><path d="M408.95154,108.76694v-27.78396h27.78396v27.78396z" data-paper-data="{&quot;index&quot;:null}" fill="#1a42ad"/></g><g><path d="M308.14281,209.13637v-27.78396h27.78396v27.78396z" data-paper-data="{&quot;index&quot;:null}" fill="#b0b0b0"/><path d="M308.14281,236.92022v-27.78396h27.78396v27.78396z" data-paper-data="{&quot;index&quot;:null}" fill="#828282"/><path d="M308.14281,264.7043v-27.78396h27.78396v27.78396z" data-paper-data="{&quot;index&quot;:null}" fill="#525252"/><path d="M308.14281,292.48825v-27.78396h27.78396v27.78396z" data-paper-data="{&quot;index&quot;:null}" fill="#363636"/><path d="M308.14281,320.27215v-27.78396h27.78396v27.78396z" data-paper-data="{&quot;index&quot;:null}" fill="#1f1f1f"/><path d="M335.54089,209.13637v-27.78396h27.78396v27.78396z" data-paper-data="{&quot;index&quot;:null}" fill="#ff5cbc"/><path d="M335.54089,236.92022v-27.78396h27.78396v27.78396z" data-paper-data="{&quot;index&quot;:null}" fill="#ff0f9c"/><path d="M335.54089,264.7043v-27.78396h27.78396v27.78396z" data-paper-data="{&quot;index&quot;:null}" fill="#c7027f"/></g><g><path d="M241.42247,207.68788v-26.92941h26.92941v26.92941z" fill="#a3a3a3"/><path d="M241.42247,234.61725v-26.92941h26.92941v26.92941z" fill="#8a8a8a"/><path d="M241.42247,261.54669v-26.92941h26.92941v26.92941z" fill="#7a7a7a"/><path d="M241.42247,288.4761v-26.92941h26.92941v26.92941z" fill="#4d4d4d"/><path d="M241.42247,315.40552v-26.92941h26.92941v26.92941z" fill="#2b2b2b"/><path d="M267.97788,207.68788v-26.92941h26.92941v26.92941z" fill="#d957c8"/><path d="M267.97788,234.61725v-26.92941h26.92941v26.92941z" fill="#912780"/><path d="M267.97788,261.54669v-26.92941h26.92941v26.92941z" fill="#702c64"/></g><g><path d="M169.12459,207.19904v-27.78396h27.78396v27.78396z" data-paper-data="{&quot;index&quot;:null}" fill="#d6d6d6"/><path d="M169.12459,234.98289v-27.78396h27.78396v27.78396z" data-paper-data="{&quot;index&quot;:null}" fill="#a6a6a6"/><path d="M169.12459,262.76694v-27.78396h27.78396v27.78396z" data-paper-data="{&quot;index&quot;:null}" fill="#8a8a8a"/><path d="M169.12459,290.55093v-27.78396h27.78396v27.78396z" data-paper-data="{&quot;index&quot;:null}" fill="#737373"/><path d="M169.12459,318.3348v-27.78396h27.78396v27.78396z" data-paper-data="{&quot;index&quot;:null}" fill="#545454"/><path d="M196.52268,207.19904v-27.78396h27.78396v27.78396z" data-paper-data="{&quot;index&quot;:null}" fill="#d09bde"/><path d="M196.52268,234.98289v-27.78396h27.78396v27.78396z" data-paper-data="{&quot;index&quot;:null}" fill="#a86bb5"/><path d="M196.52268,262.76694v-27.78396h27.78396v27.78396z" data-paper-data="{&quot;index&quot;:null}" fill="#8a5196"/></g><g><path d="M91.01391,207.24678v-27.78396h27.78396v27.78396z" data-paper-data="{&quot;index&quot;:null}" fill="#adadad"/><path d="M91.01391,235.03063v-27.78396h27.78396v27.78396z" data-paper-data="{&quot;index&quot;:null}" fill="#808080"/><path d="M91.01391,262.81468v-27.78396h27.78396v27.78396z" data-paper-data="{&quot;index&quot;:null}" fill="#4d4d4d"/><path d="M91.01391,290.59865v-27.78396h27.78396v27.78396z" data-paper-data="{&quot;index&quot;:null}" fill="#333333"/><path d="M91.01391,318.38254v-27.78396h27.78396v27.78396z" data-paper-data="{&quot;index&quot;:null}" fill="#1f1f1f"/><path d="M118.41199,207.24678v-27.78396h27.78396v27.78396z" data-paper-data="{&quot;index&quot;:null}" fill="#af7be0"/><path d="M118.41199,235.03063v-27.78396h27.78396v27.78396z" data-paper-data="{&quot;index&quot;:null}" fill="#8648c7"/><path d="M118.41199,262.81468v-27.78396h27.78396v27.78396z" data-paper-data="{&quot;index&quot;:null}" fill="#651aad"/></g><g><path d="M377.20287,206.13336v-27.78396h27.78396v27.78396z" data-paper-data="{&quot;index&quot;:null}" fill="#b0b0b0"/><path d="M377.20287,233.91721v-27.78396h27.78396v27.78396z" data-paper-data="{&quot;index&quot;:null}" fill="#828282"/><path d="M377.20287,261.70129v-27.78396h27.78396v27.78396z" data-paper-data="{&quot;index&quot;:null}" fill="#525252"/><path d="M377.20287,289.48524v-27.78396h27.78396v27.78396z" data-paper-data="{&quot;index&quot;:null}" fill="#363636"/><path d="M377.20287,317.26914v-27.78396h27.78396v27.78396z" data-paper-data="{&quot;index&quot;:null}" fill="#1f1f1f"/><path d="M404.60095,206.13336v-27.78396h27.78396v27.78396z" data-paper-data="{&quot;index&quot;:null}" fill="#ff5c85"/><path d="M404.60095,233.91721v-27.78396h27.78396v27.78396z" data-paper-data="{&quot;index&quot;:null}" fill="#ff0f4c"/><path d="M404.60095,261.70129v-27.78396h27.78396v27.78396z" data-paper-data="{&quot;index&quot;:null}" fill="#c70234"/></g></g></g></svg>