<svg version="1.1" xmlns="http://www.w3.org/2000/svg" xmlns:xlink="http://www.w3.org/1999/xlink" width="104.72243" height="276.20389" viewBox="0,0,104.72243,276.20389"><g transform="translate(-187.63881,-41.89806)"><g data-paper-data="{&quot;isPaintingLayer&quot;:true}" fill-rule="nonzero" stroke-linejoin="miter" stroke-miterlimit="10" stroke-dasharray="" stroke-dashoffset="0" style="mix-blend-mode: normal"><path d="M255.9619,317.10195v-99.44534h12.58043v99.44534z" fill="#9966ff" stroke="#000000" stroke-width="2" stroke-linecap="butt"/><path d="M213.52089,315.39757v-99.44534h12.58043v99.44534z" fill="#9966ff" stroke="#000000" stroke-width="2" stroke-linecap="butt"/><path d="M273.93869,170.00841c-0.85611,3.49898 11.99337,6.93952 13.12922,13.84545c0.74501,4.52966 -3.10722,9.17955 -3.03691,14.2833c0.06304,4.57567 10.19268,10.9079 6.53363,13.21506c-5.73435,3.6157 -5.95738,21.70697 -8.17556,21.16424c-5.30271,-1.29743 -30.95575,-53.70867 -27.65318,-67.20648c3.30257,-13.49781 -2.90099,-21.59096 2.40173,-20.29353c3.46615,0.84808 11.60626,8.17743 11.5919,8.61783c-0.11764,3.60955 6.22863,12.20761 5.20918,16.37413z" data-paper-data="{&quot;index&quot;:null}" fill="#242424" stroke="#000000" stroke-width="2" stroke-linecap="butt"/><path d="M206.06134,171.89844c-1.01945,-4.16652 5.32682,-12.76458 5.20918,-16.37413c-0.01436,-0.4404 8.12575,-7.76975 11.5919,-8.61783c5.30272,-1.29743 -0.90084,6.79572 2.40173,20.29353c3.30257,13.49781 -22.35047,65.90905 -27.65318,67.20648c-2.21818,0.54273 -2.44121,-17.54854 -8.17556,-21.16424c-3.65905,-2.30716 6.47059,-8.63939 6.53363,-13.21506c0.07031,-5.10375 -3.78192,-9.75364 -3.03691,-14.2833c1.13585,-6.90593 13.98533,-10.34647 13.12922,-13.84545z" fill="#242424" stroke="#000000" stroke-width="2" stroke-linecap="butt"/><path d="M204.16872,242.91033l14.34956,-69.01454c0,0 9.85162,-62.18142 21.866,-62.18142c12.12826,0 26.30752,60.8148 26.30752,60.8148l9.90803,70.38117z" fill="#242424" stroke="#000000" stroke-width="2" stroke-linecap="butt"/><path d="M194.85013,295.12307v-253.22501h91.18203v253.22501z" fill-opacity="0.01" fill="#000000" stroke="none" stroke-width="0" stroke-linecap="butt"/><g stroke="#000000" stroke-width="2"><g stroke-linecap="butt"><path d="M284.801,99.75407c0,22.82909 -19.7767,41.33571 -44.17248,41.33571c-24.39579,0 -44.17248,-18.50663 -44.17248,-41.33571c0,-22.82909 19.7767,-41.33571 44.17248,-41.33571c24.39579,0 44.17248,18.50663 44.17248,41.33571z" fill="#242424"/><path d="M274.77543,121.62007c0,9.76026 -15.15398,17.67252 -33.84736,17.67252c-18.69338,0 -33.84736,-7.91225 -33.84736,-17.67252c0,-9.76026 15.15398,-17.67252 33.84736,-17.67252c18.69338,0 33.84736,7.91225 33.84736,17.67252z" fill="#9966ff"/></g><path d="M202.68628,111.33561l-0.0876,-25.785" fill="none" stroke-linecap="round"/><path d="M276.35178,109.46906l-0.0876,-25.785" fill="none" stroke-linecap="round"/></g></g></g></svg>