<svg version="1.1" xmlns="http://www.w3.org/2000/svg" xmlns:xlink="http://www.w3.org/1999/xlink" width="70.69597" height="150.60623" viewBox="0,0,70.69597,150.60623"><g transform="translate(-204.65201,-104.88618)"><g data-paper-data="{&quot;isPaintingLayer&quot;:true}" fill-rule="nonzero" stroke-linejoin="miter" stroke-miterlimit="10" stroke-dasharray="" stroke-dashoffset="0" style="mix-blend-mode: normal"><path d="M241.90307,172.25368c21.31497,0.60332 24.8996,9.22893 28.38909,23.56295c0.86622,3.55824 0.80255,34.2116 0.60865,58.47382c-2.50086,0.00065 -5.00171,0.00314 -7.50256,0.00683l-0.13146,-50.05137c0,0 0.40271,-5.27497 -1.77524,-5.30648c-2.17795,-0.03152 -1.88457,5.25352 -1.88457,5.25352l0.11363,50.11057c-11.60935,0.02197 -23.21874,0.06328 -34.828,0.06031l0.03841,-49.67294c0,0 0.84796,-5.55568 -1.67781,-5.57758c-2.52578,-0.02191 -1.51884,5.54985 -1.51884,5.54985l-0.34741,49.69837c-2.73959,-0.00295 -5.47916,-0.00874 -8.21872,-0.01817c-0.20734,-24.02254 -0.27892,-54.4751 0.62963,-58.52671c3.338,-14.88544 8.53739,-24.11681 28.1052,-23.56295z" fill="#ffffff" stroke="#000000" stroke-width="1.5" stroke-linecap="round"/><g stroke-linecap="butt"><g><path d="M214.27624,254.43328c0,0 -0.45029,-51.24343 -0.56226,-64.07176c-0.03863,-4.42626 5.80212,-19.95866 28.49157,-20.04541c22.3969,-0.08565 28.24686,16.00928 28.24128,20.03219c-0.05428,25.10637 0.4637,64.0579 0.4637,64.0579l-7.4391,0.0522l-0.11255,-62.35128c0,0 0.0535,-1.68269 -1.9959,-1.71247c-2.434,-0.03536 -2.08742,1.69154 -2.08742,1.69154l0.14562,62.36585l-34.16951,0.03921l-0.21643,-62.56301c0,0 0.19808,-1.5848 -2.04505,-1.59318c-2.20468,-0.00823 -1.99551,1.57937 -1.99551,1.57937l0.25025,62.47273z" fill="#fa6100" stroke="#000000" stroke-width="2"/><path d="M234.59946,206.90471l7.92389,-26.70148l7.92389,26.70148z" fill="#1461f0" stroke="none" stroke-width="0"/><path d="M227.85259,173.92196l14.49358,-11.10318l14.49357,11.10318c0,0 -11.80384,11.10729 -14.49357,11.10318c-2.31216,-0.00353 -14.49358,-11.10318 -14.49358,-11.10318z" fill="#ffffff" stroke="none" stroke-width="0"/><path d="M212.75753,255.08935v-73.02351l16.10141,-11.60818l13.8416,33.18948l12.9075,-33.29904l15.79527,11.71774v73.02351z" fill="#fa6100" stroke="#000000" stroke-width="0"/><path d="M222.14794,254.81788v-63.25085h2.12613v63.25085z" fill="#c23c0a" stroke="none" stroke-width="0"/><path d="M222.13317,191.62738c0,-0.44978 0.47595,-0.81438 1.06307,-0.81438c0.58712,0 1.06306,0.36461 1.06306,0.81438c0,0.44978 -0.47595,0.81438 -1.06306,0.81438c-0.58712,0 -1.06307,-0.36461 -1.06307,-0.81438z" fill="#bf001d" stroke="none" stroke-width="0"/><path d="M260.0245,254.87821v-63.25085h2.12613v63.25085z" fill="#c23c0a" stroke="none" stroke-width="0"/><path d="M260.00973,191.68772c0,-0.44978 0.47595,-0.81438 1.06306,-0.81438c0.58711,0 1.06306,0.36461 1.06306,0.81438c0,0.44978 -0.47595,0.81438 -1.06306,0.81438c-0.58711,0 -1.06306,-0.36461 -1.06306,-0.81438z" fill="#bf001d" stroke="none" stroke-width="0"/><path d="M244.29513,255.08935c0,0 3.76574,-21.64492 3.45755,-30.68776c-0.2796,-8.20368 -5.22933,-21.29738 -5.22933,-21.29738c0,0 -2.69136,-5.37762 -2.40416,-5.81765c0.23283,-0.35674 3.99876,3.37448 3.99876,3.37448c0,0 5.64487,15.05576 6.08272,24.02278c0.44782,9.17115 -3.42506,30.40553 -3.42506,30.40553z" fill="#9e2410" stroke="none" stroke-width="0"/><path d="M242.169,223.59968c0,-0.74962 0.79326,-1.35732 1.77178,-1.35732c0.97852,0 1.77177,0.60769 1.77177,1.35732c0,0.74962 -0.79325,1.35732 -1.77177,1.35732c-0.97852,0 -1.77178,-0.60769 -1.77178,-1.35732z" fill="#1461f0" stroke="none" stroke-width="0.5"/><path d="M241.63747,216.54165c0,-0.74962 0.79325,-1.35732 1.77178,-1.35732c0.97852,0 1.77177,0.60769 1.77177,1.35732c0,0.74962 -0.79325,1.35732 -1.77177,1.35732c-0.97852,0 -1.77178,-0.60769 -1.77178,-1.35732z" fill="#1461f0" stroke="none" stroke-width="0.5"/><path d="" fill="#000000" stroke="none" stroke-width="0.5"/><path d="" fill="#000000" stroke="none" stroke-width="0.5"/><path d="" fill="#000000" stroke="none" stroke-width="0.5"/></g><path d="M240.5375,230.67495c-0.5804,0 -1.0509,-0.36044 -1.0509,-0.80507c0,-0.44463 0.4705,-0.80507 1.0509,-0.80507c0.5804,0 1.05091,0.36044 1.05091,0.80507c0,0.44463 -0.47051,0.80507 -1.05091,0.80507z" data-paper-data="{&quot;index&quot;:null}" fill="#1461f0" stroke="none" stroke-width="1.5"/><path d="M255.15755,184.24256c-2.46052,4.20249 -7.82549,11.50821 -10.28462,16.81746c-0.76539,1.65247 0.99092,4.33735 0.33355,5.10444c-1.68818,1.96993 -3.13176,-4.7022 -3.13176,-4.7022l12.33089,-34.6733l5.18802,1.99296l6.14639,16.0958c0,0 -6.8041,-7.08849 -10.58248,-0.63516z" data-paper-data="{&quot;index&quot;:null}" fill="#9e2410" stroke="#000000" stroke-width="0"/><path d="M221.62823,186.48799l3.94137,-16.42351l4.41434,-2.30744l14.18894,33.79713c0,0 1.09118,5.11993 -0.59086,3.26088c-2.75938,-3.04974 -9.24933,-14.32203 -12.62771,-19.6149c-3.95642,-6.19847 -9.32608,1.28782 -9.32608,1.28782z" fill="#9e2410" stroke="#000000" stroke-width="0"/><g><g><path d="" fill="#091f95" stroke="#000000" stroke-width="2"/><path d="" fill="#091f95" stroke="#000000" stroke-width="2"/><path d="" fill="#091f95" stroke="#000000" stroke-width="2"/><path d="" fill="#091f95" stroke="#000000" stroke-width="2"/><path d="" fill="#091f95" stroke="#000000" stroke-width="2"/><path d="" fill="#091f95" stroke="#000000" stroke-width="2"/><path d="M234.59946,206.90471l7.92389,-26.70148l7.92389,26.70148z" fill="#9e2410" stroke="none" stroke-width="0"/><path d="M227.85259,173.92196l14.49358,-11.10318l14.49357,11.10318c0,0 -11.80384,11.10729 -14.49357,11.10318c-2.31216,-0.00353 -14.49358,-11.10318 -14.49358,-11.10318z" fill="#ffffff" stroke="none" stroke-width="0"/><path d="M212.75753,182.06584l16.10141,-11.60818l13.8416,33.18948l12.9075,-33.29904l15.79527,11.71774c0,0 0.69781,19.64427 0.50638,19.78198c-0.83399,0.59991 -3.8962,9.5807 -5.33062,10.2038c-2.55104,1.10815 -3.78572,-6.01666 -5.49003,-4.02544c-2.20869,2.58051 -1.23576,6.9305 -3.27496,8.20825c-3.45052,2.16208 -6.8122,-1.95072 -9.49501,-0.21126c-1.80286,-0.35079 -3.57622,-0.70113 -5.31181,-1.03998c-1.62751,-0.31775 -3.76775,-3.20854 -5.94534,-1.87448c-1.98932,1.21871 -4.00981,6.68186 -5.69902,6.26249c-1.52486,-0.37857 -0.95085,-7.16024 -2.08647,-9.18854c-1.253,-2.23796 -4.2021,0.24854 -5.65962,-0.45429c-1.5437,-0.74439 -2.96418,-1.59626 -4.19805,-2.58181c-0.92278,-0.73707 -5.38227,8.85248 -6.26777,8.10138c-1.56997,-1.33167 -0.39345,-33.18207 -0.39345,-33.18207z" fill="#1461f0" stroke="#000000" stroke-width="0"/><path d="" fill="#fa6100" stroke="#000000" stroke-width="0"/><path d="" fill="#fa6100" stroke="#000000" stroke-width="0"/><path d="" fill="#fa6100" stroke="#000000" stroke-width="0"/><path d="" fill="#c23c0a" stroke="none" stroke-width="0"/><path d="" fill="#c23c0a" stroke="none" stroke-width="0"/><path d="M222.14794,191.56704h2.12613v18.46853c-0.73574,-0.33345 -1.4466,-0.68948 -2.12613,-1.07077z" fill="#091f95" stroke="none" stroke-width="0"/><path d="M222.13317,191.62738c0,-0.44978 0.47595,-0.81438 1.06307,-0.81438c0.58712,0 1.06306,0.36461 1.06306,0.81438c0,0.44978 -0.47595,0.81438 -1.06306,0.81438c-0.58712,0 -1.06307,-0.36461 -1.06307,-0.81438z" fill="#091f95" stroke="none" stroke-width="0"/><path d="M260.0245,191.62736h2.12613v15.63157c-0.7112,0.41224 -1.42138,0.82426 -2.12613,1.23873z" fill="#091f95" stroke="none" stroke-width="0"/><path d="" fill="#c23c0a" stroke="none" stroke-width="0"/><path d="M260.00973,191.68772c0,-0.44978 0.47595,-0.81438 1.06306,-0.81438c0.58711,0 1.06306,0.36461 1.06306,0.81438c0,0.44978 -0.47595,0.81438 -1.06306,0.81438c-0.58711,0 -1.06306,-0.36461 -1.06306,-0.81438z" fill="#091f95" stroke="none" stroke-width="0"/><path d="" fill="#9e2410" stroke="none" stroke-width="0"/><path d="M242.52335,203.1042c0,0 -2.69136,-5.37762 -2.40416,-5.81765c0.23283,-0.35674 3.99876,3.37448 3.99876,3.37448c0,0 2.81699,7.51334 4.62534,15.08595c-0.14141,0.0924 -0.28279,0.18445 -0.42424,0.27617c-0.65305,-0.12706 -1.30222,-0.25408 -1.94714,-0.3805c-1.55283,-6.46544 -3.84857,-12.53845 -3.84857,-12.53845z" fill="#091f95" stroke="none" stroke-width="0"/><path d="" fill="#1461f0" stroke="none" stroke-width="0.5"/><path d="" fill="#1461f0" stroke="none" stroke-width="0.5"/><path d="" fill="#000000" stroke="none" stroke-width="0.5"/><path d="" fill="#000000" stroke="none" stroke-width="0.5"/><path d="" fill="#000000" stroke="none" stroke-width="0.5"/></g><path d="M255.15755,184.24256c-2.46052,4.20249 -7.82549,11.50821 -10.28462,16.81746c-0.76539,1.65247 0.99092,4.33735 0.33355,5.10444c-1.68818,1.96993 -3.13176,-4.7022 -3.13176,-4.7022l12.33089,-34.6733l5.18802,1.99296l6.14639,16.0958c0,0 -6.8041,-7.08849 -10.58248,-0.63516z" data-paper-data="{&quot;index&quot;:null}" fill="#091f95" stroke="#000000" stroke-width="0"/><path d="M221.62823,186.48799l3.94137,-16.42351l4.41434,-2.30744l14.18894,33.79713c0,0 1.09118,5.11993 -0.59086,3.26088c-2.75938,-3.04974 -9.24933,-14.32203 -12.62771,-19.6149c-3.95642,-6.19847 -9.32608,1.28782 -9.32608,1.28782z" fill="#091f95" stroke="#000000" stroke-width="0"/></g></g><path d="M214.03716,136.18462c2.17957,-3.22224 -0.24345,-14.38806 10.17219,-24.86872c6.54788,-6.58875 24.95256,-8.18005 34.36782,-0.82099c9.9786,7.79937 8.96046,20.01092 10.16336,24.12749c2.06991,7.08371 5.23296,13.42872 5.23296,13.42872c0,0 -2.57577,-0.57643 -3.56846,-1.383c-0.86872,-0.70584 -2.44344,-2.21204 -2.44344,-2.21204c0,0 2.02157,7.33238 1.29225,11.23635c-1.55248,8.31035 -5.89476,16.0248 -5.89476,16.0248c0,0 -0.12292,-1.0365 -0.21188,-1.46719c-0.07709,-0.37319 -0.29141,-0.96921 -0.29141,-0.96921c0,0 -1.13762,1.7679 -1.9312,2.64965c-0.79097,0.87885 -2.82248,2.6322 -2.82248,2.6322c0,0 0.89756,-2.18605 1.14132,-3.06969c0.22406,-0.81228 0.26717,-2.03611 0.26717,-2.03611c0,0 -1.41979,2.12497 -2.3555,3.03315c-1.0471,1.01631 -3.63062,2.7769 -3.63062,2.7769l0.82871,-3.1162c0,0 -1.79836,2.66675 -2.89148,4.03753c-1.06887,1.34037 -3.59616,4.09795 -3.59616,4.09795c0,0 -0.16844,-1.59629 -0.41092,-2.32258c-0.25136,-0.75289 -1.07152,-2.11784 -1.07152,-2.11784c0,0 -1.00597,1.94619 -1.75444,3.55028c-0.74846,1.6041 -2.55995,3.74423 -2.55995,3.74423c0,0 -0.85826,-1.91465 -1.21886,-3.00068c-0.39345,-1.18493 -1.05189,-3.83812 -1.05189,-3.83812c0,0 -0.87195,1.46634 -1.24431,2.49514c-0.36852,1.01824 -0.97843,3.64632 -0.97843,3.64632c0,0 -0.46223,-1.32342 -0.67278,-2.33595c-0.2245,-1.07958 -0.63507,-3.95325 -0.63507,-3.95325c0,0 -0.48596,1.46257 -0.64908,2.248c-0.17962,0.86491 -0.38399,2.72602 -0.38399,2.72602c0,0 -1.41079,-2.8077 -1.53929,-3.87774c-0.12851,-1.07031 0.03948,-2.66475 0.03948,-2.66475c0,0 -0.68593,0.32537 -0.82768,1.06322c-0.15865,0.82584 -0.32215,2.98966 -0.32215,2.98966c0,0 -1.19599,-1.71132 -1.64285,-2.6461c-0.50373,-1.05372 -1.22939,-3.36227 -1.22939,-3.36227c0,0 -0.48185,1.2565 -0.63017,1.82009c-0.12864,0.48881 -0.20916,1.36918 -0.20916,1.36918c0,0 -2.20519,-1.99461 -3.46732,-3.32147c-0.90775,-0.95431 -1.81186,-3.21684 -1.81186,-3.21684l-0.70425,3.6973c0,0 -2.99053,-3.57097 -4.56298,-8.02957c-1.17923,-3.34366 -1.59919,-7.28781 -1.59919,-7.28781c0,0 -3.52326,1.27793 -5.10406,1.50786c-1.64449,0.23919 -4.57935,-0.09937 -4.57935,-0.09937c0,0 2.76602,-1.54769 3.93266,-2.48101c1.18068,-0.94454 3.10981,-3.15298 3.10981,-3.15298c0,0 -2.51156,1.04651 -3.65608,1.27542c-1.20031,0.24006 -3.38641,0.13307 -3.38641,0.13307c0,0 3.13486,-2.44777 5.00732,-6.26994c1.12431,-2.29503 1.85909,-8.34321 1.85909,-8.34321l-4.52871,0.55308c0,0 2.89614,-1.9983 4.65533,-4.59906z" fill="#000000" stroke="#000000" stroke-width="1.5" stroke-linecap="round"/><path d="M222.56011,136.61036c0,0 6.30743,-0.81121 10.21049,-2.19009c3.41347,-1.20591 11.93652,-5.63405 11.93652,-5.63405c0,0 -0.98007,1.7953 -1.71034,2.7289c-0.84079,1.0749 -3.04969,2.65229 -3.04969,2.65229c0,0 5.74244,-0.67329 11.09944,-2.87926c4.49218,-1.84984 8.71333,-4.64841 9.05006,-4.14941c1.11572,1.65338 1.84807,11.91055 -0.06182,23.76049c-0.35415,2.19734 -1.20132,3.65376 -1.64849,5.88032c-0.98665,4.91272 0.02217,10.24657 -2.41865,14.19831c-4.58097,7.41672 -10.48025,13.85766 -14.73048,13.87434c-4.82431,0.01893 -12.05372,-8.31503 -15.6403,-16.03253c-1.98055,-4.26167 -1.20371,-9.13196 -1.67403,-13.77267c-0.28919,-2.8535 -1.31113,-4.94721 -1.50142,-7.43223c-0.45803,-5.98172 0.13872,-11.00441 0.13872,-11.00441z" fill="#ffffff" stroke="#000000" stroke-width="1.5" stroke-linecap="round"/><path d="M222.31164,154.0356c0,0 -6.36211,-5.71813 -3.43172,-11.19825c1.68034,-3.14238 3.43173,11.19825 3.43173,11.19825z" fill="#ffffff" stroke="#000000" stroke-width="1.5" stroke-linecap="round"/><path d="M264.376,142.95727c2.93039,5.48013 -3.43173,11.19823 -3.43173,11.19823c0,0 1.75139,-14.34062 3.43173,-11.19823z" data-paper-data="{&quot;index&quot;:null}" fill="#ffffff" stroke="#000000" stroke-width="1.5" stroke-linecap="round"/><path d="M222.64419,142.11488c0,0 1.5696,-0.54339 2.37423,-0.73366c0.65726,-0.15542 2.10153,-0.32472 2.10153,-0.32472c0,0 0.00962,-0.61963 0.70296,-0.89639c0.8635,-0.34468 3.52442,-1.42828 5.35584,-1.59139c1.86089,-0.16574 5.991,0.17517 5.991,0.17517l-0.31732,3.0781c0,0 -3.75967,-0.59426 -7.36509,-0.14822c-4.0017,0.49507 -9.23307,1.18554 -9.23307,1.18554z" fill="#000000" stroke="#000000" stroke-width="1.5" stroke-linecap="round"/><path d="M262.05776,140.12954c0,0 -6.19205,-1.19367 -10.19375,-1.23128c-4.0017,-0.03761 -7.45659,2.06956 -7.45659,2.06956l-0.13433,-3.39832c0,0 4.49608,-1.11858 6.72294,-1.04433c2.6091,-0.15712 3.80616,0.10306 4.66964,0.44773c0.69333,0.27676 0.337,0.94214 0.337,0.94214c0,0 2.31343,0.53526 2.97071,0.69067c0.80464,0.19027 2.69445,0.7794 2.69445,0.7794z" data-paper-data="{&quot;index&quot;:null}" fill="#000000" stroke="#000000" stroke-width="1.5" stroke-linecap="round"/><path d="M241.7345,169.91624c0,0 -4.28082,-3.74515 -3.13477,-5.87057c1.14605,-2.12541 4.68368,-2.19803 6.04154,0.057c1.35787,2.25503 -2.90678,5.81356 -2.90678,5.81356z" fill="#ffffff" stroke="#000000" stroke-width="1.5" stroke-linecap="round"/><path d="M226.1827,169.85925c0,0 4.38493,0.69491 8.66393,1.65032c2.91717,0.65134 5.78513,1.63728 7.18089,1.76942c0.74418,0.07045 3.16047,-0.45823 5.75255,-0.82627c3.48535,-0.49489 7.24248,-0.8836 7.24248,-0.8836c0,0 -5.88755,8.96305 -14.07795,8.89133c-7.44912,-0.06523 -14.7619,-10.60121 -14.7619,-10.60121z" fill="#ffffff" stroke="#000000" stroke-width="1.5" stroke-linecap="round"/><path d="M226.52467,169.46027c0,0 4.04162,-2.00136 6.8395,-2.22284c1.68406,-0.13331 6.4659,0.89011 8.49127,1.049c1.69736,0.13316 4.68838,-0.7999 6.32762,-0.36505c4.45367,1.18141 6.9984,3.69265 6.9984,3.69265c0,0 -3.65263,0.0483 -7.06653,0.62472c-2.29888,0.38816 -4.59671,0.97686 -6.42574,0.86601c-1.88486,-0.11424 -4.1452,-1.37606 -6.75962,-2.03917c-4.0997,-1.03983 -8.40489,-1.60532 -8.40489,-1.60532z" fill="#ffffff" stroke="#000000" stroke-width="1.5" stroke-linecap="round"/><path d="M244.24231,148.02986l-1.53889,23.99522l-1.65287,-0.28498l-1.88086,-23.59624" fill="#ffffff" stroke="#000000" stroke-width="1.5" stroke-linecap="round"/><path d="M239.34234,148.34085c0,4.00156 -3.30629,7.24546 -7.38479,7.24546c-4.07851,0 -7.3848,-3.24391 -7.3848,-7.24546c0,-4.00156 3.30629,-7.24545 7.3848,-7.24545c4.07851,0 7.38479,3.2439 7.38479,7.24545z" fill="#ffffff" stroke="#000000" stroke-width="1.5" stroke-linecap="butt"/><path d="M258.88376,148.20513c0,4.00156 -3.30629,7.24546 -7.38479,7.24546c-4.07851,0 -7.3848,-3.24391 -7.3848,-7.24546c0,-4.00156 3.30629,-7.24546 7.3848,-7.24546c4.07851,0 7.38479,3.24391 7.38479,7.24546z" fill="#ffffff" stroke="#000000" stroke-width="1.5" stroke-linecap="butt"/><path d="M235.74963,148.6328c0,1.72379 -1.42778,3.1212 -3.18905,3.1212c-1.76127,0 -3.18905,-1.3974 -3.18905,-3.12119c0,-1.72379 1.42779,-3.12119 3.18905,-3.12119c1.76127,0 3.18905,1.3974 3.18905,3.1212z" fill="#000000" stroke="#000000" stroke-width="1.5" stroke-linecap="butt"/><path d="M239.27276,148.38786h-14.55808c0,0 -0.95165,-6.89089 7.27904,-7.04423c7.79639,-0.14524 7.27904,7.04423 7.27904,7.04423z" fill="#ffffff" stroke="#000000" stroke-width="1.5" stroke-linecap="butt"/><path d="M253.934,148.90423c0,1.72379 -1.42778,3.1212 -3.18904,3.1212c-1.76127,0 -3.18906,-1.39741 -3.18906,-3.1212c0,-1.72379 1.42779,-3.12119 3.18906,-3.12119c1.76127,0 3.18904,1.3974 3.18904,3.1212z" fill="#000000" stroke="#000000" stroke-width="1.5" stroke-linecap="butt"/><path d="M258.81417,148.25215h-14.55808c0,0 -0.95165,-6.8909 7.27904,-7.04424c7.79639,-0.14524 7.27904,7.04424 7.27904,7.04424z" fill="#ffffff" stroke="#000000" stroke-width="1.5" stroke-linecap="butt"/><g stroke="none" stroke-width="0" stroke-linecap="butt"><path d="M221.01065,156.21285l-2.77191,-14.92568h46.69605l-2.87853,15.13891l-16.20962,-0.29859c0,0 -1.7658,-5.77282 -4.47254,-5.78023c-2.79039,0.52632 -4.69192,5.947 -4.69192,5.947z" fill="#000000"/><path d="M218.13213,142.24668l0.24128,-1.04929l46.57822,-0.07855l0.24311,1.05321z" fill="#fa6100"/></g></g></g></svg>