<svg version="1.1" xmlns="http://www.w3.org/2000/svg" xmlns:xlink="http://www.w3.org/1999/xlink" width="94.62304" height="259.47011" viewBox="0,0,94.62304,259.47011"><g transform="translate(-191.84268,-47.14241)"><g stroke-miterlimit="10"><path d="M195.28369,306.61252v-253.22501h91.18203v253.22501z" fill-opacity="0.01" fill="#000000" stroke="none" stroke-width="0" stroke-linecap="butt"/><path d="M200.23704,186.37957c-0.05451,-8.15261 8.18688,-36.76129 40.20201,-36.9211c31.60235,-0.15775 39.85672,29.48704 39.84884,36.89673c-0.06732,40.64593 -6.14054,42.94147 -7.96833,42.95821c-0.85211,0.0078 -2.03287,-39.7187 -2.03287,-39.7187c0,0 0.07549,-3.0993 -2.81625,-3.15415c-3.43441,-0.06514 -2.94538,3.11562 -2.94538,3.11562c0,0 -17.5027,17.3243 -17.47931,30.39698c0.03786,21.16531 17.68479,84.47297 17.68479,84.47297c0,0 -16.13822,-51.92225 -24.18718,-51.91019c-8.02217,0.01202 -24.02648,51.98241 -24.02648,51.98241c0,0 17.05922,-62.02671 17.00305,-83.22082c-0.04014,-15.14759 -17.30844,-32.01227 -17.30844,-32.01227c0,0 0.27949,-2.919 -2.8856,-2.93443c-3.11083,-0.01515 -2.81569,2.90899 -2.81569,2.90899c0,0 -1.44008,41.30996 -3.04517,41.32383c-1.66997,0.01443 -7.07,-20.55594 -7.22799,-44.18408z" fill="#ffffff" stroke="#000000" stroke-width="2" stroke-linecap="butt"/><path d="M195.26516,120.86529c0,0 6.16329,-9.02422 6.29161,-10.34351c0.33654,-3.46017 -0.16776,-61.2191 35.96775,-63.35352c44.63633,-1.39225 39.01489,53.86722 41.53088,64.29297c3.44981,14.29528 6.15664,26.51576 6.15664,26.51576c0,0 -2.76715,-3.1293 -4.0797,-4.7758c-1.2242,-1.53566 -3.80143,-4.7939 -3.80143,-4.7939c0,0 3.09111,15.76927 1.31092,31.53667c-1.5623,14.44788 -7.29782,26.24949 -7.29782,26.24949l-1.15522,-3.57708c0,0 -1.02266,3.3494 -2.16005,5.0787c-1.1374,1.72928 -3.43873,4.43865 -3.43873,4.43865l-0.09205,-5.64477c0,0 -7.0601,16.79004 -24.35066,16.56693c-16.30625,-0.38931 -26.07151,-16.26773 -26.07151,-16.26773l-0.1162,4.04566c0,0 -3.89477,-5.01777 -6.18145,-14.79313c-2.72545,-11.65109 -3.23946,-18.65723 -3.23946,-18.65723c0,0 -2.33908,2.89409 -5.71704,4.22785c-4.23278,1.67129 -6.94665,0.52613 -6.94665,0.52613c0,0 3.60795,-4.14064 5.58396,-7.26874c1.76007,-2.78626 2.64658,-5.14648 2.64658,-5.14648c0,0 -2.10758,1.65295 -4.23277,2.46556c-2.21739,0.84789 -4.03008,0.80907 -4.03008,0.80907c0,0 4.97492,-7.67621 7.03074,-16.57112c1.94102,-8.39823 2.09972,-16.69763 2.09972,-16.69763c0,0 -1.36165,1.00824 -3.33013,1.21168c-1.24776,0.12897 -2.37785,-0.07452 -2.37785,-0.07452z" fill="#000000" stroke="none" stroke-width="1.5" stroke-linecap="butt"/><path d="M212.38192,106.84243c-0.57709,-7.29323 0.335,-17.15448 0.335,-17.15448c0,0 3.41059,-0.04124 13.91429,-3.14424c8.0696,-2.38394 20.54731,-9.48722 20.54731,-9.48722c0,0 -2.16005,3.00503 -3.40781,4.46015c-1.32651,1.54696 -3.99292,4.56297 -3.99292,4.56297c0,0 7.838,-1.66761 14.67476,-4.72931c8.56837,-3.53575 10.59252,-6.05309 12.95042,-4.5927c2.7829,1.72362 1.03006,23.1827 0.71846,28.74062c-0.42163,5.66922 -2.53327,9.49969 -3.15031,12.52053c-0.61704,3.02084 20.76601,3.82054 18.96939,13.72362c-0.99895,5.50632 -15.34065,40.91146 -22.59921,52.84055c-0.88834,1.45995 -1.67059,3.546 -2.30931,4.17148c-5.85759,5.73616 -12.36247,6.27493 -16.32228,6.34391c-3.81077,0.06639 -13.56781,-1.46064 -18.56758,-6.74288c-5.32393,-5.62474 -25.41834,-46.19619 -26.25896,-52.85881c-0.75707,-6.00039 17.42126,-12.88635 17.07513,-18.22617c-0.25298,-3.90273 -2.26119,-6.44504 -2.57636,-10.42801z" fill="#ffffff" stroke="#000000" stroke-width="1.5" stroke-linecap="butt"/><path d="M260.45192,91.72207c0,0 1.52429,0.31807 4.2558,1.11029c2.49492,0.72361 4.44935,1.74403 4.44935,1.74403l0.1951,1.17035c0,0 -7.24963,-3.12997 -15.1158,-2.4706c-6.2896,0.52724 -9.96319,2.8124 -9.96319,2.8124l0.04575,-4.17683c0,0 3.12748,-1.70421 7.86366,-1.85557c4.90428,-0.15672 8.09084,0.59125 8.09084,0.59125z" fill="#000000" stroke="none" stroke-width="1.5" stroke-linecap="butt"/><path d="M214.08156,116.96565c0,0 -4.93211,-3.51705 -6.16417,-8.97502c-1.29636,-5.74284 -1.46118,-9.7328 0.48013,-9.99193c1.94131,-0.25915 2.70321,2.37692 3.73262,8.35569c1.0294,5.97877 1.95143,10.61127 1.95143,10.61127z" fill="#ffffff" stroke="#000000" stroke-width="1" stroke-linecap="butt"/><path d="M213.87897,113.01809c0,0 -3.56385,-2.92338 -4.31816,-8.45061c-0.42079,-3.08327 2.15675,-2.28016 2.15675,-2.28016" fill="none" stroke="#000000" stroke-width="0.25" stroke-linecap="round"/><path d="M216.89237,106.36219c0.07093,-4.89188 4.83834,-8.93609 10.21137,-8.8582c5.37302,0.0779 9.02724,4.2484 8.95632,9.14029c-0.07093,4.89188 -4.12352,8.79439 -9.49655,8.7165c-5.37302,-0.0779 -9.74207,-4.1067 -9.67114,-8.99859z" fill="#ffffff" stroke="#000000" stroke-width="1.4" stroke-linecap="butt"/><path d="M219.47349,106.48013c0.03999,-2.75843 2.30855,-4.96213 5.06696,-4.92214c2.75843,0.03999 4.96213,2.30855 4.92214,5.06696c-0.03999,2.75843 -2.30854,4.96213 -5.06696,4.92214c-2.75843,-0.03999 -4.96213,-2.30855 -4.92214,-5.06696z" fill="#000000" stroke="none" stroke-width="1.5" stroke-linecap="butt"/><path d="M243.94865,106.36292c0.20353,-4.88817 4.45264,-8.85847 9.77048,-8.85847c5.31783,0 9.27453,3.96607 9.27453,8.85847c0,4.8924 -3.88585,9.07104 -9.69964,9.14188c-5.52997,0.06739 -9.55792,-4.03692 -9.34537,-9.14188z" fill="#ffffff" stroke="#000000" stroke-width="1.4" stroke-linecap="butt"/><path d="M250.18515,106.44847c0,-2.81845 2.2848,-5.10325 5.10325,-5.10325c2.81845,0 5.10325,2.2848 5.10325,5.10325c0,2.81845 -2.28479,5.10325 -5.10325,5.10325c-2.81845,0 -5.10325,-2.2848 -5.10325,-5.10325z" fill="#000000" stroke="none" stroke-width="1.5" stroke-linecap="butt"/><path d="M216.82394,105.83001c0,0 0.06357,-9.01512 10.60111,-8.8249c9.47101,0.16586 9.55554,9.40723 9.55554,9.40723z" fill="#ffffff" stroke="#000000" stroke-width="1.15" stroke-linecap="butt"/><path d="M243.571,105.96091c0,0 -0.24686,-9.4582 11.19813,-9.1032c9.71427,0.33347 9.54677,9.65229 9.54677,9.65229z" fill="#ffffff" stroke="#000000" stroke-width="1.15" stroke-linecap="butt"/><path d="M220.35379,95.81835c0,0 3.36963,-1.819 8.03244,-2.28178c5.16698,-0.51283 7.76823,-0.06628 7.76823,-0.06628l0.29508,4.13747c0,0 -3.83554,-0.68065 -8.01795,-0.52113c-5.59346,0.21333 -6.64488,1.43293 -10.89774,1.89119c-3.64408,0.39266 -6.73723,0.15884 -6.73723,0.15884l-0.02589,-1.23155c0,0 3.59517,0.07398 5.23371,-0.06836c1.35239,-0.11749 3.9757,-0.93808 3.9757,-0.93808z" fill="#000000" stroke="none" stroke-width="1.5" stroke-linecap="butt"/><path d="M268.31472,106.35438c1.0294,-5.97877 1.7913,-8.61483 3.73262,-8.35569c1.94131,0.25914 1.77649,4.24909 0.48013,9.99193c-1.23206,5.45797 -6.16417,8.97502 -6.16417,8.97502c0,0 0.92203,-4.6325 1.95143,-10.61127z" fill="#ffffff" stroke="#000000" stroke-width="1" stroke-linecap="butt"/><path d="M268.72731,102.28732c0,0 2.57754,-0.80312 2.15675,2.28016c-0.75431,5.52723 -4.31816,8.45061 -4.31816,8.45061" fill="none" stroke="#000000" stroke-width="0.25" stroke-linecap="round"/><g stroke="none" stroke-width="0" stroke-linecap="butt"><g><path d="M212.13639,214.35026c-8.34456,-16.36549 -9.92293,-41.4794 -11.40459,-58.00228c-0.74731,-8.33376 -2.98369,-16.17476 -2.98369,-16.17476c0,0 7.82499,-8.35122 15.35179,-15.55306c4.3657,-4.17718 9.17088,-9.44857 10.8796,-9.55072c3.66081,-0.21882 15.91933,7.60455 15.91933,7.60455c0,0 9.9768,-9.68552 14.82405,-7.24489c3.98873,2.00836 9.75866,9.82094 14.62431,16.348c4.08235,5.47624 7.66801,9.98797 7.66801,9.98797c0,0 -1.52846,15.47439 -1.69101,23.29376c-0.34212,16.45936 -2.51956,34.08928 -10.65632,48.40185c-5.41591,9.52666 -14.31128,14.54377 -24.85944,14.4673c-10.87963,-0.07888 -22.70122,-3.82875 -27.67211,-13.57772z" fill="#000000"/><path d="M214.46988,209.30508c-6.01862,-12.56029 -7.79645,-34.11041 -9.3604,-48.77668c-0.69575,-6.52459 -2.70345,-15.05601 -2.70345,-15.05601c0,0 4.08803,-0.08269 7.66767,6.73032c3.63507,6.91844 6.34029,19.29431 8.73192,27.96986c2.7794,10.08218 5.76439,16.03176 19.14469,16.15443c26.91055,0.24666 18.94832,-27.38526 26.54101,-41.97919c3.56157,-6.84566 8.17941,-7.11483 8.17941,-7.11483c0,0 -1.58815,10.00199 -1.89749,20.2083c-0.39584,13.05972 -1.14116,28.07433 -8.01078,40.25657c-6.86961,12.18224 -14.87349,13.90126 -23.35614,13.97291c-12.27095,0.10367 -21.50444,-5.20341 -24.93642,-12.36569z" fill="#ffffff"/><path d="M204.61564,139.6599c0,0 12.97956,-15.50951 19.08399,-17.72489c5.58741,-2.02778 17.68251,6.84007 17.68251,6.84007c0,0 8.28231,-8.90578 11.7645,-7.49404c5.14949,2.0877 18.18146,20.39848 18.18146,20.39848c0,0 -5.08242,1.11634 -12.06241,-1.15477c-6.34881,-2.06575 -12.36165,-7.76003 -19.04425,-7.88687c-4.76691,-0.09047 -13.07763,4.89632 -19.51604,6.30414c-8.97037,1.9614 -16.08972,0.71785 -16.08972,0.71785z" fill="#ffffff"/><path d="M221.33364,174.93471c0,0 1.67997,0.63449 2.75094,1.59235c2.95813,2.64566 8.33738,7.62588 14.9656,7.50161c7.38301,-0.13841 12.15303,-4.45753 14.71544,-6.93907c1.10534,-1.07048 2.28305,-1.65145 2.28305,-1.65145c0,0 -0.43824,7.46983 -5.93815,11.72515c-2.50933,1.94148 -5.61413,1.68199 -11.02067,2.44334c-5.53477,0.77939 -9.49013,-0.81275 -12.12917,-3.37097c-4.48336,-4.34599 -5.627,-11.30093 -5.627,-11.30093z" fill="#ffffff"/><path d="M221.94487,144.24046c0,0 10.74422,-5.29924 17.61333,-5.428c6.86909,-0.12876 17.70353,7.26666 17.70353,7.26666l-35.31685,-1.83868z" fill="#ffffff"/></g><path d="M238.07757,167.50693c0.36024,-0.00941 2.21033,4.37689 2.21033,4.37689c0,0 -0.02007,-4.41579 0.51768,-4.41375c6.35657,0.02462 11.44054,0.92628 11.45431,2.86262c0.01493,2.10013 -5.94019,4.62205 -13.03859,4.75513c-7.09841,0.13308 -13.08778,-2.16492 -13.2154,-4.7936c-0.09641,-1.98581 5.44398,-2.61427 12.07167,-2.78736z" fill="#ffffff"/></g><path d="M240.01406,178.62075c-1.03376,0 -3.5381,-3.26042 -3.7867,-5.3637c-0.22243,-1.88186 1.31512,-3.82799 3.7867,-3.82799c2.47159,0 4.2021,0.49077 4.02999,4.18853c-0.14607,3.13818 -1.55841,5.00317 -4.02999,5.00317z" fill="#ffffff" stroke="#000000" stroke-width="1.15" stroke-linecap="butt"/><path d="M243.61617,106.17581c0,0 0.1026,9.2393 0.00576,16.58665c-0.19174,14.54901 -1.08147,64.61085 -1.08147,64.61085l-2.98167,0.02011c0,0 -0.80294,-9.71172 -1.12322,-22.11002c-0.43353,-16.78218 -0.4495,-37.92117 -0.76344,-45.69261c-0.29758,-7.36659 -0.89593,-13.30012 -0.89593,-13.30012" fill="#ffffff" stroke="#000000" stroke-width="1.3" stroke-linecap="round"/></g></g></svg>