<svg version="1.1" xmlns="http://www.w3.org/2000/svg" xmlns:xlink="http://www.w3.org/1999/xlink" width="259.26344" height="184.6141" viewBox="0,0,259.26344,184.6141"><g transform="translate(-122.82339,-120.88476)"><g data-paper-data="{&quot;isPaintingLayer&quot;:true}" fill-rule="nonzero" stroke-linejoin="miter" stroke-miterlimit="10" stroke-dasharray="" stroke-dashoffset="0" style="mix-blend-mode: normal"><path d="M255.62757,200.33376c-0.57113,0 -1.03411,-0.46299 -1.03411,-1.03411c0,-0.57113 0.46299,-1.03413 1.03411,-1.03413c0.57113,0 1.03411,0.463 1.03411,1.03413c0,0.57113 -0.46299,1.03411 -1.03411,1.03411z" fill="#000000" stroke="none" stroke-width="1.5" stroke-linecap="butt"/><path d="M250.36768,204.56936c-4.4635,-0.31439 -6.55245,-1.79392 -6.16985,-2.58011c0.11788,-0.24224 2.84645,1.06355 6.97038,1.3048c6.40897,0.37493 8.51033,-0.63173 8.51033,-0.63173v1.34616c0,0 -2.4135,1.04672 -9.31086,0.56089z" fill="#000000" stroke="#000000" stroke-width="0" stroke-linecap="butt"/><path d="M222.55493,199.29965c0,-0.57113 0.46299,-1.03413 1.03411,-1.03413c0.57113,0 1.03413,0.463 1.03413,1.03413c0,0.57113 -0.463,1.03411 -1.03413,1.03411c-0.57113,0 -1.03411,-0.46299 -1.03411,-1.03411z" fill="#000000" stroke="none" stroke-width="1.5" stroke-linecap="butt"/><path d="M228.84893,204.56936c-6.89736,0.48585 -9.31086,-0.56089 -9.31086,-0.56089v-1.34616c0,0 2.10136,1.00666 8.51033,0.63173c4.12393,-0.24126 6.85251,-1.54704 6.97039,-1.3048c0.3826,0.78618 -1.70634,2.26571 -6.16985,2.58011z" fill="#000000" stroke="#000000" stroke-width="0" stroke-linecap="butt"/><path d="M135.19291,304.39158c0,0 -1.80656,-94.38387 -2.25578,-118.01201c-0.15499,-8.15261 23.27826,-36.76129 114.30883,-36.9211c89.85689,-0.15775 113.32705,29.48704 113.30465,36.89673c-0.21778,46.24274 1.86038,117.98648 1.86038,117.98648l-29.84582,0.09614l-0.45158,-114.84311c0,0 0.21465,-3.0993 -8.00761,-3.15415c-9.76527,-0.06514 -8.37478,3.11562 -8.37478,3.11562l0.58426,114.86995l-137.08885,0.07222l-0.86833,-115.23309c0,0 0.79469,-2.919 -8.2048,-2.93443c-8.84521,-0.01515 -8.00602,2.90899 -8.00602,2.90899l1.00402,115.0668z" fill="#808080" stroke="#000000" stroke-width="2" stroke-linecap="butt"/><path d="M246.36546,261.12113c-2.32857,0 -4.21625,-0.66389 -4.21625,-1.48284c0,-0.81895 1.88768,-1.48284 4.21625,-1.48284c2.32857,0 4.21625,0.66389 4.21625,1.48284c0,0.81895 -1.88768,1.48284 -4.21625,1.48284z" data-paper-data="{&quot;index&quot;:null}" fill="#000000" stroke="none" stroke-width="1.5" stroke-linecap="butt"/><path d="M177.94492,304.40602v-119.20147c0,0 2.15302,-9.73105 2.15302,-14.63937c0,-4.498 -2.15302,-13.6872 -2.15302,-13.6872c0,0 7.60084,-2.35297 13.23783,-3.74807c5.63699,-1.3951 14.70578,-2.80371 14.70578,-2.80371c0,0 -1.71057,40.10902 41.39797,40.03867c43.88663,-0.07162 39.32807,-40.03867 39.32807,-40.03867c0,0 11.12539,1.51959 17.53174,2.94655c6.40635,1.42695 13.51674,3.60523 13.51674,3.60523c0,0 -2.15302,9.42463 -2.15302,14.19201c0,4.84193 2.15302,14.63937 2.15302,14.63937v118.69667z" fill="#808080" stroke="#000000" stroke-width="2" stroke-linecap="butt"/><path d="M248.01866,143.06889c0.5704,0.21186 3.08357,1.39942 6.02385,2.59586c2.9637,1.20597 7.21362,2.29294 7.19412,2.4605c-0.02476,0.21265 -10.43477,0.22694 -13.67937,0.63224c-2.71902,0.33964 -6.68867,0.70564 -6.68867,0.70564c0,0 -7.10401,-1.16169 -13.27235,-2.44521c-4.94371,-1.02869 -10.39929,-1.66108 -10.40995,-1.75461c-0.01439,-0.12613 3.86835,-0.71071 6.82417,-1.39467c1.14585,-0.49661 5.43971,-1.48513 5.43971,-1.48513c0,0 4.95585,-0.27766 7.60826,0.579c2.84203,0.91791 2.83546,2.44556 3.0831,2.46906c0,0 1.18436,-1.74932 2.36886,-2.10461c1.18451,-0.35528 5.08219,-0.41633 5.50828,-0.25808z" fill="#808080" stroke="#000000" stroke-width="1.4" stroke-linecap="butt"/><path d="M240.34493,144.6288c-1.03376,0 -3.5381,-3.26042 -3.7867,-5.3637c-0.22243,-1.88186 1.31512,-3.82799 3.7867,-3.82799c2.47159,0 4.2021,0.49077 4.02999,4.18853c-0.14607,3.13818 -1.55841,5.00317 -4.02999,5.00317z" fill="#808080" stroke="#000000" stroke-width="1.15" stroke-linecap="butt"/><path d="M122.82339,191.47013v-70.58537h259.26344v70.58537z" fill-opacity="0.01" fill="#000000" stroke="none" stroke-width="0" stroke-linecap="butt"/><path d="M146.52587,137.7262c0,0 13.13044,-1.6507 13.40381,-1.89202c0.71697,-0.63293 -0.35739,-11.1981 76.62665,-11.58852c95.09442,-0.25467 83.11835,9.8533 88.47848,11.76036c7.34956,2.61487 13.11626,4.85022 13.11626,4.85022c0,0 -5.89521,-0.57241 -8.6915,-0.87358c-2.60807,-0.2809 -8.09866,-0.87689 -8.09866,-0.87689c0,0 6.58538,2.88449 2.79282,5.76864c-3.32837,2.64278 -15.54747,4.80151 -15.54747,4.80151l-2.46111,-0.65431c0,0 -2.1787,0.61267 -4.60183,0.92899c-2.42314,0.31632 -7.32596,0.81191 -7.32596,0.81191l-0.19611,-1.03253c0,0 -15.04102,3.07121 -51.87729,3.03039c-34.73927,-0.07121 -55.54343,-2.97567 -55.54343,-2.97567l-0.24755,0.74003c0,0 -8.29752,-0.91784 -13.16913,-2.70593c-5.80637,-2.1312 -6.90143,-3.41275 -6.90143,-3.41275c0,0 -4.98324,0.52938 -12.17973,0.77335c-9.01763,0.30571 -14.79933,0.09624 -14.79933,0.09624c0,0 7.68647,-0.7574 11.89622,-1.32959c3.7497,-0.50966 5.63834,-0.94139 5.63834,-0.94139c0,0 -4.49005,0.30236 -9.01761,0.451c-4.72398,0.15509 -8.58578,0.14799 -8.58578,0.14799c0,0 10.59869,-1.40412 14.97847,-3.03116c4.1352,-1.53619 4.4733,-3.0543 4.4733,-3.0543c0,0 -2.90089,0.18443 -7.09459,0.22164c-2.65826,0.02359 -5.06584,-0.01363 -5.06584,-0.01363z" fill="#000000" stroke="none" stroke-width="1.5" stroke-linecap="butt"/><path d="M216.68321,138.1152c-0.57709,-2.03296 0.335,-4.78174 0.335,-4.78174c0,0 3.41059,-0.0115 13.91429,-0.87644c8.0696,-0.66451 20.54731,-2.64452 20.54731,-2.64452c0,0 -2.16005,0.83764 -3.40781,1.24325c-1.32651,0.43121 -3.99292,1.27191 -3.99292,1.27191c0,0 7.838,-0.46484 14.67476,-1.31827c8.56837,-0.98557 10.59252,-1.68727 12.95042,-1.2802c2.7829,0.48045 1.03006,6.46208 0.71846,8.01132c-0.42163,1.58027 -2.53327,2.648 -3.15031,3.49004c-0.61704,0.84205 -0.4096,1.71056 -2.20622,4.471c-1.12121,1.72271 -4.16183,2.48771 -10.01942,4.08664c-5.85759,1.59893 -9.05378,2.57916 -13.01359,2.59839c-3.81077,0.01851 -8.93565,-1.42166 -13.93542,-2.89406c-5.32393,-1.56787 -8.87489,-2.36296 -9.71551,-4.22014c-0.75707,-1.67258 -0.77653,-2.76196 -1.12266,-4.25041c-0.25298,-1.08787 -2.26119,-1.79653 -2.57636,-2.90676z" fill="#808080" stroke="#000000" stroke-width="1.5" stroke-linecap="butt"/><path d="M264.75321,133.90047c0,0 1.52429,0.08866 4.2558,0.30949c2.49492,0.2017 4.44935,0.48614 4.44935,0.48614l0.1951,0.32623c0,0 -7.24963,-0.87247 -15.1158,-0.68867c-6.2896,0.14697 -9.96319,0.78394 -9.96319,0.78394l0.04575,-1.16427c0,0 3.12748,-0.47504 7.86366,-0.51723c4.90428,-0.04369 8.09084,0.16481 8.09084,0.16481z" data-paper-data="{&quot;index&quot;:null}" fill="#000000" stroke="none" stroke-width="1.5" stroke-linecap="butt"/><path d="M234.33371,144.06773c5.09114,1.83654 11.91756,5.02154 11.91756,5.02154c0,0 5.78976,-2.78296 8.44678,-3.2812c2.05992,-0.38629 11.216,-1.26379 11.26026,-0.59702c0.04328,0.65193 -9.03119,23.07489 -21.14808,22.26426c-13.76954,-0.77948 -22.86459,-27.07311 -22.82675,-27.37563c0.03784,-0.30252 7.2591,2.13151 12.35024,3.96806z" fill="#808080" stroke="#000000" stroke-width="1.9" stroke-linecap="butt"/><path d="M247.91746,137.92938c0,0 0.1026,1.10655 0.00576,1.98651c-0.19174,1.74248 -1.08147,7.73817 -1.08147,7.73817l-2.98167,0.00241c0,0 -0.80294,-1.16313 -1.12322,-2.64803c-0.43353,-2.00993 -0.4495,-4.54166 -0.76344,-5.47242c-0.29758,-0.88227 -0.89593,-1.5929 -0.89593,-1.5929" fill="#808080" stroke="#000000" stroke-width="1.3" stroke-linecap="round"/><path d="M218.38285,140.937c0,0 -4.93211,-0.98036 -6.16417,-2.50175c-1.29636,-1.60079 -1.46118,-2.71298 0.48013,-2.78521c1.94131,-0.07224 2.70321,0.66256 3.73262,2.32911c1.0294,1.66656 1.95143,2.95785 1.95143,2.95785z" data-paper-data="{&quot;index&quot;:null}" fill="#808080" stroke="#000000" stroke-width="1" stroke-linecap="butt"/><path d="M218.18026,139.83664c0,0 -3.56385,-0.81488 -4.31816,-2.35557c-0.42079,-0.85945 2.15675,-0.63558 2.15675,-0.63558" fill="none" stroke="#000000" stroke-width="0.25" stroke-linecap="round"/><path d="M221.19366,137.98134c0.07093,-1.36359 4.83834,-2.4909 10.21137,-2.46918c5.37302,0.02171 9.02724,1.18422 8.95632,2.54782c-0.07093,1.36359 -4.12352,2.4514 -9.49655,2.42969c-5.37302,-0.02171 -9.74207,-1.14472 -9.67114,-2.50832z" fill="#808080" stroke="#000000" stroke-width="1.4" stroke-linecap="butt"/><path d="M179.97385,138.01421c0.22277,-0.7689 12.85974,-1.38317 28.22542,-1.37203c15.36579,0.01115 27.64146,0.6435 27.4187,1.41239c-0.22277,0.7689 -12.85969,1.38317 -28.22541,1.37203c-15.36579,-0.01115 -27.64146,-0.6435 -27.4187,-1.41239z" fill="#000000" stroke="none" stroke-width="1.5" stroke-linecap="butt"/><path d="M248.24995,137.98154c0.20353,-1.36256 4.45264,-2.46926 9.77048,-2.46926c5.31783,0 9.27453,1.10552 9.27453,2.46926c0,1.36374 -3.88585,2.52851 -9.69964,2.54826c-5.52997,0.01878 -9.55792,-1.12527 -9.34537,-2.54826z" fill="#808080" stroke="#000000" stroke-width="1.4" stroke-linecap="butt"/><path d="M252.85269,144.46136c0,-4.35117 2.2848,-7.87849 5.10325,-7.87849c2.81845,0 5.10325,3.52731 5.10325,7.87849c0,4.35117 -2.28479,7.87849 -5.10325,7.87849c-2.81845,0 -5.10325,-3.52731 -5.10325,-7.87849z" fill="#000000" stroke="none" stroke-width="1.5" stroke-linecap="butt"/><path d="M221.12523,137.83299c0,0 0.06357,-2.51293 10.60111,-2.4599c9.47101,0.04623 9.55554,2.62222 9.55554,2.62222z" fill="#808080" stroke="#000000" stroke-width="1.15" stroke-linecap="butt"/><path d="M247.87229,137.86948c0,0 -0.24686,-2.63643 11.19813,-2.53748c9.71427,0.09295 9.54677,2.69053 9.54677,2.69053z" fill="#808080" stroke="#000000" stroke-width="1.15" stroke-linecap="butt"/><path d="M224.65508,135.04229c0,0 3.36963,-0.50704 8.03244,-0.63604c5.16698,-0.14295 7.76823,-0.01848 7.76823,-0.01848l0.29508,1.1533c0,0 -3.83554,-0.18973 -8.01795,-0.14526c-5.59346,0.05946 -6.64488,0.39942 -10.89774,0.52716c-3.64408,0.10945 -6.73723,0.04428 -6.73723,0.04428l-0.02589,-0.34329c0,0 3.59517,0.02062 5.23371,-0.01906c1.35239,-0.03275 3.9757,-0.26149 3.9757,-0.26149z" fill="#000000" stroke="none" stroke-width="1.5" stroke-linecap="butt"/><path d="M272.61601,137.97916c1.0294,-1.66656 1.7913,-2.40135 3.73262,-2.32911c1.94131,0.07223 1.77649,1.18442 0.48013,2.78521c-1.23206,1.52139 -6.16417,2.50175 -6.16417,2.50175c0,0 0.92203,-1.29129 1.95143,-2.95785z" data-paper-data="{&quot;index&quot;:null}" fill="#808080" stroke="#000000" stroke-width="1" stroke-linecap="butt"/><path d="M273.02861,136.84548c0,0 2.57754,-0.22387 2.15675,0.63558c-0.75431,1.54069 -4.31816,2.35557 -4.31816,2.35557" data-paper-data="{&quot;index&quot;:null}" fill="none" stroke="#000000" stroke-width="0.25" stroke-linecap="round"/></g></g></svg>