<svg version="1.1" xmlns="http://www.w3.org/2000/svg" xmlns:xlink="http://www.w3.org/1999/xlink" width="34.17311" height="34.17311" viewBox="0,0,34.17311,34.17311"><g transform="translate(-222.91345,-162.91346)"><g data-paper-data="{&quot;isPaintingLayer&quot;:true}" stroke="none" stroke-miterlimit="10" stroke-dasharray="" stroke-dashoffset="0" style="mix-blend-mode: normal"><path d="M229.98312,162.91346h20.03379c3.9166,0 7.06966,3.15307 7.06966,7.06966v20.03379c0,3.91659 -3.15306,7.06966 -7.06966,7.06966h-20.03379c-3.91659,0 -7.06966,-3.15307 -7.06966,-7.06966v-20.03379c0,-3.91659 3.15307,-7.06966 7.06966,-7.06966z" fill-opacity="0.35" fill="#4d4d4d" fill-rule="evenodd" stroke-width="4.43922" stroke-linecap="round" stroke-linejoin="round"/><g fill-rule="nonzero" stroke-width="0" stroke-linecap="butt" stroke-linejoin="miter"><g><path d="M233.21634,173.59184c2.49322,-3.11897 5.33664,-5.87424 6.88936,-5.27963c3.58753,1.37385 2.89782,3.42041 5.16691,4.38782c0.00473,0.00201 -1.93331,4.59663 -3.48101,8.26372c-0.21996,-0.08129 -0.44129,-0.15258 -0.66342,-0.21406c-3.38951,-1.41228 -7.64019,-2.61255 -11.27024,-2.53418c0.88039,-1.3143 2.07298,-3.01564 3.3584,-4.62366z" fill="#795331"/><path d="M251.74616,187.49844c-2.46193,-2.66877 -6.27532,-4.89746 -9.64395,-6.35883c-0.19838,-0.11732 -0.40327,-0.22727 -0.61442,-0.32929c1.56735,-3.65874 3.5319,-8.24207 3.53663,-8.24007c2.27093,0.96308 3.26639,-0.95347 6.74473,0.67718c1.50547,0.70577 1.49372,4.66511 0.9771,8.62456c-0.26635,2.04135 -0.6643,4.08058 -1.0001,5.62645z" data-paper-data="{&quot;index&quot;:null}" fill="#795331"/><path d="M229.8665,178.22681l2.00165,-2.85022c0,0 3.6278,-0.74199 11.03639,2.39653c8.28619,3.51029 9.47664,6.33795 9.47664,6.33795l-0.61055,3.4297c0,0 -3.29481,-3.65727 -10.07253,-6.52048c-6.898,-2.91402 -11.83161,-2.79347 -11.83161,-2.79347z" fill="#000815"/><path d="M238.68653,170.77249c2.06023,-0.4014 3.10756,1.36599 4.17793,2.51844c0.6437,0.69306 1.71629,1.12572 1.71629,1.12572l-0.96746,2.27523c-0.52655,-0.23492 -1.94197,-0.81498 -3.3807,-1.29532c-1.38443,-0.46221 -4.40925,-1.01661 -4.98383,-1.09024c-0.09816,-0.20092 1.48069,-2.05694 1.88676,-2.54304c0.36051,-0.43156 0.65122,-0.81549 1.551,-0.99079z" fill="#cd9459"/><path d="M250.83145,180.71917c-0.45165,-0.36273 -2.68311,-1.84371 -3.97646,-2.52012c-1.34407,-0.70295 -2.74379,-1.31993 -3.27828,-1.53618l0.96746,-2.27523c0,0 1.05572,0.47233 2.00144,0.45512c1.57258,-0.02862 3.57207,-0.50047 4.71227,1.26181c0.2611,0.40355 0.3744,1.26977 0.20024,2.05858c-0.16118,0.73 -0.41388,2.48735 -0.62668,2.55604z" data-paper-data="{&quot;index&quot;:null}" fill="#cd9459"/></g><path d="M254.36024,190.86515c-0.4218,0.99197 -2.93223,1.28266 -5.07934,-0.14405c-0.53404,-0.35486 0.16945,-1.60525 -0.6553,-2.36811c-1.37109,-1.2682 -6.09311,-3.70816 -8.14133,-4.5791c-2.3505,-0.99947 -6.69118,-2.64774 -8.6431,-2.82169c-0.90899,-0.08101 -1.74787,1.02304 -2.31346,0.8964c-2.40399,-0.5383 -4.33664,-2.24439 -3.92532,-3.2117c0.8974,-2.11046 8.06255,-1.08394 16.00381,2.2928c7.94126,3.37674 13.65144,7.82499 12.75404,9.93545z" fill="#ddb277"/></g><path d="M254.24445,191.34159c-0.03055,0.07185 -2.35089,1.24149 -5.10994,-0.62479c-0.08245,-0.62673 1.19072,-2.74853 -8.48796,-6.80849c-3.90036,-1.51189 -5.13092,-4.12561 0.71404,-1.68736c11.99996,4.95127 12.98512,8.88251 12.88386,9.12064z" fill="#795331" fill-rule="nonzero" stroke-width="0" stroke-linecap="butt" stroke-linejoin="miter"/><path d="M225.6234,179.12377c0.10125,-0.23813 3.61603,-2.25593 15.50703,2.95158c5.81103,2.51804 3.07489,3.44506 -0.71988,1.68487c-9.63867,-4.15405 -10.28354,-1.76509 -10.79212,-1.38967c-3.25822,-0.69236 -4.02558,-3.17493 -3.99503,-3.24678z" data-paper-data="{&quot;index&quot;:null}" fill="#795331" fill-rule="nonzero" stroke-width="0" stroke-linecap="butt" stroke-linejoin="miter"/><g fill="#3a0f19" fill-rule="nonzero" stroke-width="0" stroke-linecap="butt" stroke-linejoin="miter"><path d="M242.72516,172.6544l1.37073,-0.83226c0.27627,0.32092 0.62854,0.585 1.04457,0.7619c0.15757,0.067 0.3178,0.11874 0.47905,0.15588c0.38174,0.08793 0.76916,0.09403 1.14037,0.02713c0.91027,-0.02495 1.98585,-0.2861 2.45342,-0.256c0.28648,0.01844 0.71254,0.13947 1.19144,0.29957l-5.48614,3.45642z"/><path d="M242.64663,172.70208c0.9976,-0.6057 2.29733,-0.28801 2.90304,0.70959c0.6057,0.9976 0.28801,2.29733 -0.70959,2.90304c-0.9976,0.6057 -2.29733,0.28801 -2.90304,-0.70959c-0.6057,-0.9976 -0.28801,-2.29733 0.70959,-2.90304z"/></g><g data-paper-data="{&quot;index&quot;:null}" fill="#3a0f19" fill-rule="nonzero" stroke-width="0" stroke-linecap="butt" stroke-linejoin="miter"><path d="M238.42461,172.9368l-3.48726,0.47713l-0.21897,-1.60043c0.16442,-0.15205 0.31236,-0.32498 0.43937,-0.51699c0.1402,-0.16795 0.28876,-0.34294 0.46432,-0.5195c0.67192,-0.67574 1.59951,-1.36027 2.38931,-2.02453z"/><path d="M236.37964,170.97289c0.96298,-0.13176 1.85044,0.54208 1.98219,1.50506c0.13176,0.96298 -0.54208,1.85044 -1.50506,1.9822c-0.96298,0.13176 -1.85044,-0.54209 -1.9822,-1.50507c-0.13176,-0.96298 0.54208,-1.85044 1.50506,-1.98219z"/></g><g fill="#3a0f19" fill-rule="nonzero" stroke-width="0" stroke-linecap="butt" stroke-linejoin="miter"><path d="M250.63084,177.1988l-1.83016,-2.50635l2.3285,-1.7003c0.78312,0.46039 1.79588,0.3552 2.20211,1.03794c0.01694,0.02846 0.4687,0.81734 0.47856,1.02384z"/><path d="M250.96062,176.95799c-0.69211,0.50539 -1.66287,0.35402 -2.16825,-0.33809c-0.50539,-0.69211 -0.35402,-1.66287 0.33809,-2.16825c0.69211,-0.50539 1.66287,-0.35402 2.16825,0.33809c0.50539,0.69211 0.35402,1.66287 -0.33809,2.16825z"/></g><path d="M244.4564,174.48078c0.21842,-0.51366 0.81188,-0.753 1.32554,-0.53459c0.51366,0.21842 0.753,0.81188 0.53459,1.32554c-0.21842,0.51366 -0.81188,0.753 -1.32554,0.53459c-0.51366,-0.21842 -0.753,-0.81188 -0.53459,-1.32554z" fill="#61141b" fill-rule="nonzero" stroke-width="0" stroke-linecap="butt" stroke-linejoin="miter"/><path d="M249.35415,175.89959c0.0809,-0.19025 0.3007,-0.27889 0.49094,-0.198c0.19025,0.0809 0.27889,0.3007 0.198,0.49094c-0.0809,0.19025 -0.3007,0.27889 -0.49094,0.198c-0.19025,-0.0809 -0.27889,-0.3007 -0.198,-0.49094z" fill="#61141b" fill-rule="nonzero" stroke-width="0" stroke-linecap="butt" stroke-linejoin="miter"/><path d="M250.11067,174.81613c0.16914,-0.39779 0.62873,-0.58313 1.02651,-0.41399c0.39779,0.16914 0.58313,0.62873 0.41399,1.02651c-0.16914,0.39779 -0.62873,0.58313 -1.02651,0.41399c-0.39779,-0.16914 -0.58313,-0.62873 -0.41399,-1.02651z" fill="#61141b" fill-rule="nonzero" stroke-width="0" stroke-linecap="butt" stroke-linejoin="miter"/><path d="M235.46346,172.09709c0.27798,-0.65375 1.03331,-0.95837 1.68706,-0.68039c0.65375,0.27798 0.95837,1.03331 0.68039,1.68706c-0.27798,0.65375 -1.03331,0.95837 -1.68706,0.68039c-0.65375,-0.27798 -0.95837,-1.03331 -0.68039,-1.68706z" fill="#61141b" fill-rule="nonzero" stroke-width="0" stroke-linecap="butt" stroke-linejoin="miter"/></g></g></svg>