<svg version="1.1" xmlns="http://www.w3.org/2000/svg" xmlns:xlink="http://www.w3.org/1999/xlink" width="467.36812" height="252.76372" viewBox="0,0,467.36812,252.76372"><g transform="translate(-0.51059,-2.82491)"><g data-paper-data="{&quot;isPaintingLayer&quot;:true}" fill-rule="nonzero" stroke-linejoin="miter" stroke-miterlimit="10" stroke-dasharray="" stroke-dashoffset="0" style="mix-blend-mode: normal"><g stroke="none" stroke-width="0" stroke-linecap="butt"><path d="M98.13451,14.67127c0,0 8.06794,-3.74967 10.07102,-4.60593c1.14628,-0.49 3.87574,-0.9936 5.51184,-0.7438c3.95558,0.60395 6.64404,2.65688 6.64404,2.65688c0,0 5.39476,-2.62233 8.81628,-1.80941c3.42152,0.81292 10.9821,6.84077 10.9821,6.84077c0,0 -1.17079,14.97826 -19.93409,14.55958c-21.46003,-0.47886 -22.09117,-16.89808 -22.09117,-16.89808z" fill="#000000"/><path d="M111.92851,11.38951c4.03109,-0.02175 4.78808,1.38851 8.69025,2.13568c1.61369,0.30897 5.74169,-2.19704 7.34738,-1.85816c1.85079,0.39062 7.91643,4.00539 7.91643,4.00539c0,0 -4.99133,0.25716 -9.36114,0.06715c-2.54447,-0.11063 -4.14208,-0.66492 -6.35202,-0.7437c-2.14548,-0.07648 -5.12805,-0.07672 -7.97344,-0.15906c-5.11887,-0.14809 -9.97173,-0.36421 -9.97173,-0.36421c0,0 7.10517,-3.0691 9.70429,-3.08312z" fill="#ffffff"/><path d="M109.07432,16.61783c2.79511,0.83049 7.34115,5.98863 11.13912,6.01884c6.49739,0.05166 6.39083,-4.79949 11.71737,-4.92229c3.24533,-0.14331 6.38844,-0.17603 6.38844,-0.17603c0,0 -1.49006,12.72166 -18.60467,12.15782c-19.44342,-1.28206 -19.46843,-13.57181 -19.46843,-13.57181c0,0 7.00248,-0.04896 8.82817,0.49348z" fill="#ffffff"/></g><g stroke="none" stroke-width="0" stroke-linecap="butt"><path d="M97.93562,39.538c0,0 8.06794,-2.34126 10.07102,-3.11208c1.14628,-0.4411 3.87574,-0.89445 5.51184,-0.66958c3.95558,0.54369 6.64404,2.39175 6.64404,2.39175c0,0 5.07654,-2.91754 8.49805,-2.18574c3.42152,0.7318 11.69809,5.76036 11.69809,5.76036c0,0 -1.97452,13.77642 -21.20699,13.02712c-19.23247,-0.74928 -21.21606,-15.21183 -21.21606,-15.21183z" fill="#000000"/><path d="M111.72963,37.12473c4.03109,-0.01958 4.78808,1.24996 8.69025,1.92255c1.61369,0.27814 5.74169,-1.97781 7.34738,-1.67273c1.85079,0.35163 7.91643,3.6057 7.91643,3.6057c0,0 -4.83222,0.31105 -9.20203,0.14001c-2.54447,-0.09959 -4.85809,0.19698 -7.06802,0.12607c-2.14548,-0.06884 -4.57115,-0.30773 -7.41655,-0.38185c-5.11887,-0.13332 -9.97173,-0.9643 -9.97173,-0.9643c0,0 7.10517,-2.76283 9.70429,-2.77546z" fill="#ffffff"/><path d="M110.86434,41.92677c2.79511,0.74761 5.90916,3.64081 9.70712,3.66799c6.49739,0.04651 4.64061,-2.57032 9.96714,-2.68087c3.24533,-0.12901 6.94533,-0.55624 6.94533,-0.55624c0,0 -1.43741,10.65349 -17.57045,10.06949c-18.05351,-0.65354 -19.30931,-10.9446 -19.30931,-10.9446c0,0 8.43449,-0.04408 10.26018,0.44425z" fill="#ffffff"/></g><g stroke="none" stroke-width="0" stroke-linecap="butt"><path d="M50.72439,11.82978c0,0 9.02261,-2.10259 11.02569,-2.87341c1.14628,-0.4411 3.9553,-0.33757 5.59138,-0.11268c3.95558,0.54369 7.51915,1.43707 7.51915,1.43707c0,0 4.40965,-1.28844 7.7025,-0.27641c0.5645,0.17349 12.17544,4.80569 12.17544,4.80569c0,0 -0.02844,0.84781 -2.23052,3.11597c-3.70035,3.81138 -11.04091,5.40977 -19.05602,5.61515c-3.73342,0.09566 -9.82326,-1.3164 -14.40825,-4.13917c-4.98368,-3.06823 -8.31937,-7.57221 -8.31937,-7.57221z" fill="#000000"/><path d="M60.87325,11.19534c1.78476,-0.56986 4.16199,-0.35522 5.71361,-0.25136c1.36842,0.09161 4.15163,0.45441 8.05381,1.127c1.61369,0.27814 4.54837,-1.10269 6.15404,-0.79762c1.85079,0.35163 3.29419,0.44614 4.68334,0.98136c2.57006,0.9902 2.91485,1.35146 2.91485,1.35146c0,0 -3.76819,-0.56422 -7.35982,-0.1317c-2.42759,0.29235 -4.22111,1.31173 -6.28484,1.17359c-2.50232,-0.16751 -4.50205,-1.09617 -8.16293,-1.82488c-4.99635,-0.99452 -10.25966,-0.69487 -10.25966,-0.69487c0,0 1.54337,0.02624 4.54758,-0.93298z" fill="#ffffff"/><path d="M66.43755,14.37767c2.79511,0.74761 8.19556,2.55422 8.19556,2.55422c0,0 6.07261,-1.77477 8.85337,-1.88531c3.24533,-0.12901 9.65023,0.31887 9.65023,0.31887c0,0 -8.57051,6.28105 -20.03668,5.37569c-12.60163,-0.99501 -18.51376,-6.80771 -18.51376,-6.80771c0,0 10.02559,-0.04408 11.85128,0.44425z" fill="#ffffff"/></g><g stroke="none" stroke-width="0" stroke-linecap="butt"><path d="M23.04166,141.73081c-7.50714,-0.17143 -12.22701,-3.64987 -15.85048,-6.96347c-4.44662,-4.06633 -5.57652,-9.01841 -5.57652,-9.01841c0,0 5.92452,-8.32075 11.4543,-8.0617c2.78369,0.13041 12.6716,4.43923 12.6716,4.43923c0,0 0.7805,-0.158 2.74869,-0.46339c1.50689,-0.23382 3.63685,-1.01246 4.96234,-0.53603c3.46472,1.24537 11.65354,7.87483 11.65354,7.87483c0,0 -1.33486,3.42449 -4.0682,6.67535c-2.88709,3.43372 -8.3437,6.27397 -17.99525,6.05356z" fill="#000000"/><path d="M4.30187,126.17324c0,0 3.7652,-6.80646 9.17964,-6.4455c2.46369,0.16425 12.02454,3.43046 12.02454,3.43046c0,0 1.85381,0.18094 4.25295,0.03359c1.30249,-0.08 3.21456,-0.33119 4.05028,-0.04301c2.84639,0.98149 7.61859,5.49954 7.61859,5.49954c0,0 -6.89706,-0.48745 -10.21128,-1.12706c-3.63484,-0.7015 -6.78925,-2.60174 -11.36123,-2.84274c-2.19609,-0.11576 -5.87099,0.64885 -9.09738,1.03382c-3.49054,0.41649 -6.45612,0.46093 -6.45612,0.46093z" fill="#ffffff"/><path d="M4.51401,128.0826c0,0 2.98629,0.48156 6.43657,1.33955c4.02235,1.00025 8.80226,2.41053 12.1709,2.60212c3.46032,0.19683 8.3771,-0.86414 12.65981,-1.37735c3.85264,-0.46166 7.27308,-0.37214 7.27308,-0.37214c0,0 -3.79946,10.5956 -19.44696,8.98097c-15.27395,-1.57609 -19.09337,-11.17316 -19.09337,-11.17316z" fill="#ffffff"/><path d="M13.21209,127.58758c0,0 3.4776,-0.58265 7.49593,-0.77788c4.01831,-0.19522 9.97099,2.6165 9.97099,2.6165c0,0 -6.18323,-0.08514 -9.16231,-0.39872c-2.83621,-0.29855 -8.3046,-1.4399 -8.3046,-1.4399z" fill="#ffffff"/></g><g stroke="none" stroke-width="0" stroke-linecap="butt"><path d="M70.51704,109.68632c-3.85655,-0.23806 -10.55231,-1.18605 -13.87093,-4.4952c-6.44928,-6.43089 -8.22283,-17.23489 -8.22283,-17.23489c0,0 2.48867,-0.21644 5.69543,-0.91365c3.31805,-0.7214 7.39206,-1.92542 9.49402,-1.98844c1.36625,-0.04096 2.85173,0.80105 4.24529,1.32491c1.60538,0.60347 3.02929,0.90368 3.02929,0.90368c0,0 5.78915,-1.60095 7.47067,-1.49714c2.44763,0.15108 5.22898,1.30295 7.99884,2.39898c3.21337,1.27152 6.254,2.49931 6.254,2.49931c0,0 -1.89066,9.36464 -8.36779,14.99842c-3.30566,2.87525 -9.89034,4.24081 -13.72598,4.00404z" fill="#000000"/><path d="M52.0601,88.95638c0,0 7.8784,-1.55427 11.36576,-1.51825c2.93022,0.03027 7.45205,2.90208 7.45205,2.90208c0,0 4.38576,-2.64501 6.37572,-2.52882c1.75458,0.10245 4.65583,1.11415 6.70729,1.73171c2.90182,0.87355 5.46766,1.59537 5.46766,1.59537c0,0 -9.32251,1.87176 -18.36601,1.54565c-11.57345,-0.41733 -19.00245,-3.72774 -19.00245,-3.72774z" fill="#ffffff"/><path d="M50.05985,90.59294c0,0 2.38992,0.35385 5.28311,2.04803c4.69928,2.75179 8.03936,7.00883 15.628,7.60401c3.93948,0.30897 8.58932,-2.58668 12.72129,-4.74301c3.55683,-1.85619 6.91829,-2.99971 6.91829,-2.99971c0,0 -1.3523,5.63853 -5.97019,10.12097c-3.06962,2.9796 -8.09809,5.09525 -14.21424,4.79003c-5.7362,-0.28626 -10.2762,-1.60071 -13.11631,-3.90163c-3.11666,-2.52498 -3.93397,-5.69047 -5.04651,-8.23982c-1.25711,-2.88065 -2.20345,-4.6789 -2.20345,-4.6789z" fill="#ffffff"/><path d="M60.24299,93.59335c0,0 6.52559,0.8222 9.82087,0.96801c3.53697,0.1565 10.72724,-0.0588 10.72724,-0.0588c0,0 -6.16181,1.35991 -10.18313,1.18197c-4.02133,-0.17794 -10.36497,-2.09118 -10.36497,-2.09118z" fill="#ffffff"/><path d="M62.0614,95.5936c0,0 4.02085,1.17552 8.82498,1.36687c5.22584,0.20814 8.44999,-0.82134 8.44999,-0.82134c0,0 -4.4731,2.79474 -7.63735,2.72762c-4.70904,-0.0999 -9.63762,-3.27316 -9.63762,-3.27316z" fill="#ffffff"/></g><g stroke="none" stroke-width="0" stroke-linecap="butt"><path d="M147.78402,18.80407c0,0 7.65435,-7.49265 12.87763,-7.76387c1.4303,-0.07427 8.55225,3.49594 8.55225,3.49594c0,0 6.71664,-3.85541 9.94913,-2.87653c3.64094,1.10258 10.49912,8.29003 10.49912,8.29003c0,0 0.13614,14.78491 -6.11597,22.74264c-3.59528,4.5761 -13.45637,4.33866 -16.05327,4.26761c-2.34322,-0.0641 -10.80578,0.26663 -13.80625,-4.08111c-5.7523,-8.33519 -5.90266,-24.07476 -5.90266,-24.07476z" fill="#000000"/><path d="M149.74904,20.73463c0,0 1.55193,-0.36205 2.72694,1.78176c1.67483,3.05577 3.48667,9.23284 6.66834,11.95913c2.47384,2.11977 6.44269,1.85994 8.35178,1.93497c2.02053,0.07941 6.44281,0.9082 9.2131,-1.20369c3.07039,-2.34066 4.69518,-6.57332 6.38386,-9.45419c1.35619,-2.31363 3.09252,-3.58597 3.09252,-3.58597c0,0 0.03982,2.00168 -0.1254,5.00073c-0.22429,4.07139 -0.96058,9.84674 -3.93588,13.69896c-2.97901,3.85702 -10.80485,4.13985 -15.03211,3.97371c-3.63531,-0.14287 -10.19983,-1.30716 -12.69244,-4.58144c-3.39792,-4.46349 -3.53453,-11.08757 -3.8753,-15.48355c-0.20412,-2.63304 -0.7754,-4.04039 -0.7754,-4.04039z" fill="#ffffff"/><path d="M149.98771,19.22305c0,0 5.56837,-5.31738 9.12427,-6.08135c3.1939,-0.68619 10.526,2.34223 10.526,2.34223c0,0 7.25306,-2.06578 9.5223,-1.42518c3.04291,0.85901 7.10484,6.11896 7.10484,6.11896c0,0 -11.02765,-0.39069 -17.01887,-0.54836c-6.09931,-0.16051 -19.25856,-0.40632 -19.25856,-0.40632z" fill="#ffffff"/><path d="M182.60557,23.20085c0,0 -1.05448,1.43533 -1.93886,3.08086c-1.23305,2.29429 -2.66107,5.22254 -5.09748,7.23525c-2.1484,1.77479 -5.70227,1.3634 -7.2039,1.35065c-1.7132,-0.01456 -5.51668,0.03072 -7.66801,-1.8681c-2.17227,-1.91728 -3.4124,-5.04225 -4.45357,-7.20057c-0.87023,-1.80398 -1.72136,-2.83675 -1.72136,-2.83675c0,0 1.29414,-0.90285 2.97217,0.69404c1.56718,1.49139 2.29137,5.23241 4.28195,7.17129c1.80625,1.75936 4.88004,1.79598 6.34951,1.80847c1.37425,0.01168 4.12711,0.17766 6.07496,-1.03632c1.98082,-1.23453 3.78168,-5.8154 5.2596,-7.43029c1.84705,-2.01824 3.14499,-0.9685 3.14499,-0.9685z" fill="#ffffff"/></g><g stroke="none" stroke-width="0" stroke-linecap="butt"><path d="M99.5693,64.09927c0,0 8.69436,-7.07281 12.39903,-7.77539c2.28516,-0.43339 7.71304,2.75823 7.71304,2.75823c0,0 7.10814,-2.24572 7.99388,-2.25851c4.75685,-0.06869 11.35367,9.73054 11.35367,9.73054c0,0 -0.70328,10.00273 -6.87452,15.25716c-3.1099,2.64789 -9.4572,2.39272 -13.03714,2.19965c-3.7906,-0.20443 -9.71606,-0.77001 -12.73388,-3.99587c-5.48803,-5.86636 -6.8141,-15.91579 -6.8141,-15.91579z" fill="#000000"/><path d="M102.75153,64.09927c0,0 6.31059,-4.75801 9.36016,-5.2998c1.53906,-0.27343 2.83675,0.42317 4.663,1.05584c1.63248,0.56555 3.88825,1.06174 3.88825,1.06174c0,0 5.72957,-2.32681 7.88952,-1.69523c2.83611,0.82927 7.65795,6.24128 7.65795,6.24128c0,0 -2.81399,0.36041 -6.91035,0.33602c-2.77764,-0.01655 -5.89527,-1.96063 -8.90836,-2.09706c-2.74963,-0.12449 -5.44259,1.5605 -7.10094,1.4929c-4.38597,-0.17878 -10.53921,-1.09568 -10.53921,-1.09568z" fill="#ffffff"/><path d="M102.29693,65.64492c0,0 4.86447,0.02039 8.1239,2.23051c3.83037,2.59725 3.61375,7.30881 9.99039,7.51431c8.19296,0.26403 6.36906,-4.78809 10.00459,-7.12094c2.76228,-1.77251 5.97644,-0.9873 5.97644,-0.9873c0,0 -0.75452,7.29559 -4.93449,11.3454c-2.91276,2.82204 -8.70227,2.71685 -12.24955,2.5655c-3.33332,-0.14222 -7.62606,-0.30785 -10.41298,-3.13773c-4.43499,-4.50334 -6.49831,-12.40974 -6.49831,-12.40974z" fill="#ffffff"/><path d="M115.29861,70.96379c0,0 3.23403,0.64671 4.93195,0.71682c1.59968,0.06604 4.97842,-0.30767 4.97842,-0.30767c0,0 -1.48349,2.32743 -4.90973,2.00026c-2.61126,-0.24935 -5.00065,-2.4094 -5.00065,-2.4094z" fill="#ffffff"/><path d="M121.09481,65.21304c1.44087,0.04393 3.59136,0.86375 3.59136,0.86375l-7.45551,-0.22729c0,0 2.42326,-0.68038 3.86415,-0.63645z" fill="#ffffff"/></g><g stroke="none" stroke-width="0" stroke-linecap="butt"><path d="M118.75359,143.29133c-2.88086,-0.16948 -8.02637,-0.35294 -10.4637,-2.7222c-4.99123,-4.85188 -6.17482,-13.64354 -6.17482,-13.64354c0,0 1.70038,-0.65536 3.33212,-2.30291c2.45713,-2.48093 5.45009,-6.28971 7.755,-6.15448c1.42928,0.08385 6.72722,2.5754 6.72722,2.5754c0,0 5.04656,-3.57222 7.12746,-2.54227c3.32353,1.64501 4.71315,5.53255 6.23114,7.94412c1.14321,1.81619 2.83147,2.4804 2.83147,2.4804c0,0 -0.83019,7.51874 -5.00751,11.6362c-2.9839,2.94115 -8.6998,2.94451 -12.35838,2.72931z" fill="#000000"/><path d="M105.47915,127.47109c0,0 1.96894,-1.50628 3.83664,-3.34271c1.33095,-1.30868 2.43151,-3.0535 3.54309,-3.32297c2.26013,-0.5479 7.62222,3.02886 7.62222,3.02886c0,0 4.21347,-3.77291 5.62312,-3.2364c1.06311,0.40462 2.407,2.27988 3.7196,4.04773c1.46157,1.9685 2.84069,3.82564 2.84069,3.82564c0,0 -4.05897,0.91987 -6.94267,0.04261c-2.16012,-0.65714 -0.51644,-3.00315 -5.43245,-3.31978c-4.28376,-0.2759 -2.83677,1.98747 -5.14138,2.31492c-4.5625,0.64824 -9.66883,-0.03789 -9.66883,-0.03789z" fill="#ffffff"/><path d="M104.3881,128.65306c0,0 6.38654,-0.26575 10.62943,1.47497c2.46452,1.01111 0.23329,4.30186 4.47069,4.48073c6.30447,0.26611 2.9572,-2.62512 5.66058,-3.65827c3.16881,-1.21101 8.15212,-0.75178 8.15212,-0.75178c0,0 -0.5275,5.42715 -4.14858,8.65312c-2.39555,2.13416 -7.32099,2.58916 -10.12598,2.43922c-2.83761,-0.1517 -7.128,-0.3222 -9.61151,-2.75231c-3.68231,-3.60314 -5.02675,-9.8857 -5.02675,-9.8857z" fill="#ffffff"/></g><g stroke="none" stroke-width="0" stroke-linecap="butt"><path d="M98.27169,152.66249c0,0 2.14153,-1.12169 5.49495,-3.03983c2.78076,-1.59057 6.59367,-4.05187 8.90997,-3.95056c1.54474,0.06756 5.88214,1.5451 5.88214,1.5451c0,0 6.14211,-1.47392 8.69037,-0.51946c2.944,1.1027 4.63987,2.90249 6.55827,4.43901c2.25288,1.80444 4.48085,3.27597 4.48085,3.27597c0,0 -3.56305,9.38769 -7.15912,11.94062c-3.33157,2.36516 -8.44076,3.10112 -13.6845,2.85674c-5.24373,-0.24436 -9.07589,-1.42708 -12.16442,-4.0927c-3.28976,-2.83928 -7.00852,-12.4549 -7.00852,-12.4549z" fill="#000000"/><path d="M100.34014,154.06796c0,0 5.02489,-0.40973 9.39074,1.26464c3.33482,1.27895 2.20696,5.04389 8.75424,5.04727c7.90015,0.00407 5.96847,-3.09098 9.61482,-4.41675c3.40278,-1.23721 7.16517,-0.86093 7.16517,-0.86093c0,0 -0.91477,6.74454 -5.68039,10.30104c-3.00249,2.24069 -9.16472,1.96853 -12.4583,1.87099c-2.67093,-0.0791 -6.35091,-0.29229 -8.72487,-2.07711c-5.19983,-3.9094 -8.06139,-11.12913 -8.06139,-11.12913z" fill="#ffffff"/><path d="M102.48814,152.26468c0,0 6.1172,-4.00816 9.15199,-4.51632c2.59883,-0.43516 7.15694,2.12964 7.15694,2.12964c0,0 4.54967,-1.91065 6.62935,-1.48786c2.62056,0.53275 8.16802,4.98832 8.16802,4.98832c0,0 -2.80356,0.39853 -6.37219,0.08928c-2.74883,-0.23821 -1.99526,-0.99323 -8.27231,-1.26718c-5.9873,-0.2613 -5.10679,0.71518 -8.18968,0.74165c-4.1245,0.03541 -8.2721,-0.67754 -8.2721,-0.67754z" fill="#ffffff"/><path d="M122.85442,156.87894c0,0 -0.55197,1.82979 -3.89823,1.82979c-3.02805,0 -3.89823,-1.82979 -3.89823,-1.82979z" fill="#ffffff"/></g><g stroke="none" stroke-width="0" stroke-linecap="butt"><path d="M47.66808,119.50312c0,0 2.04312,-1.61506 5.26365,-3.16722c2.80252,-1.35069 6.12076,-2.99771 8.33335,-2.84698c2.321,0.15812 9.08104,2.00198 9.08104,2.00198c0,0 5.46478,-1.78152 8.38824,-0.82594c2.01816,0.65966 5.20383,2.73042 7.8697,4.56849c2.21066,1.5242 4.13018,2.92154 4.13018,2.92154c0,0 -4.0892,16.30651 -21.00272,15.48686c-17.24173,-0.83556 -22.06346,-18.13871 -22.06346,-18.13871z" fill="#000000"/><path d="M51.94641,119.4324c0,0 2.7707,-2.75271 5.56749,-3.05293c3.35829,-0.3605 12.99551,1.14359 12.99551,1.14359c0,0 5.51543,-1.59051 7.8131,-0.92498c2.74817,0.79602 7.77983,5.16795 7.77983,5.16795c0,0 -1.42542,0.01655 -3.23431,-0.25441c-3.41552,-0.51162 -8.74237,-1.50405 -12.2465,-1.74346c-5.96132,-0.40729 -18.67514,-0.33576 -18.67514,-0.33576z" fill="#ffffff"/><path d="M50.35529,120.81137c0,0 3.89094,0.51031 7.35143,2.04881c4.27197,1.89926 8.55493,4.92083 12.05425,5.14883c3.7945,0.24724 8.93747,-2.58196 12.96273,-4.05079c2.48975,-0.90851 5.07582,-0.70715 5.07582,-0.70715c0,0 -1.95467,12.77735 -18.88123,12.19854c-14.17496,-0.48471 -18.563,-14.63826 -18.563,-14.63826z" fill="#ffffff"/><path d="M59.57756,121.25534c0,0 7.17954,0.10095 10.69318,0.36854c3.60289,0.2744 10.66313,1.25793 10.66313,1.25793c0,0 -6.73457,0.82228 -11.03173,0.49502c-4.29716,-0.32727 -10.32456,-2.1215 -10.32456,-2.1215z" fill="#ffffff"/><path d="M61.20404,123.16469c0,0 5.30764,0.78132 8.06869,0.93026c2.91181,0.15707 8.97392,-0.01093 8.97392,-0.01093c0,0 -5.26396,1.59957 -8.69809,1.41432c-3.43413,-0.18524 -8.34451,-2.33363 -8.34451,-2.33363z" fill="#ffffff"/></g><g stroke="none" stroke-width="0" stroke-linecap="butt"><g><path d="M7.48913,11.08421c2.53701,-2.95342 4.51297,-8.47292 9.48606,-8.25291c2.88548,0.12765 13.49745,7.60869 13.49745,7.60869c0,0 6.78798,-2.04688 9.76363,-0.70321c3.01231,1.36024 8.45617,8.43369 8.45617,8.43369c0,0 -3.47967,8.18063 -11.75605,12.63544c-5.60114,3.01484 -14.72214,3.08299 -20.32083,2.38468c-14.71727,-1.83565 -12.09247,-19.46615 -12.09247,-19.46615c0,0 1.60109,-1.05125 2.96603,-2.64023z" fill="#000000"/><path d="M7.81714,13.43555c0,0 0.85858,-0.27047 1.59914,-1.26899c0.75351,-1.01601 1.3983,-2.77007 2.47381,-3.91454c1.47177,-1.56613 2.73504,-2.75834 4.73729,-2.74478c1.86062,0.01259 4.37355,1.62049 6.98949,2.93142c2.92903,1.46785 6.78106,4.11041 6.78106,4.11041c0,0 4.79076,-1.78507 8.32323,-0.85923c2.38905,0.62615 6.5463,5.00065 6.5463,5.00065c0,0 -2.84211,0.28977 -7.80249,-0.55291c-4.66186,-0.79197 -12.89958,-3.62078 -16.02911,-3.85512c-1.45546,-0.10898 -3.78276,-0.64717 -5.09206,-0.18426c-1.5934,0.56336 -2.36932,2.00835 -4.10877,2.14434c-2.78474,0.2177 -4.41787,-0.80704 -4.41787,-0.80704z" fill="#ffffff"/><path d="M6.24422,15.11759c0,0 2.39568,0.44125 4.36823,1.23127c4.06405,1.62766 4.19235,5.48057 8.8315,6.28922c2.84674,0.49621 6.20777,-0.04824 9.56815,-0.90926c3.09836,-0.7939 6.02795,-2.24787 8.42447,-2.41826c5.6745,-0.40344 7.44901,-0.28336 7.44901,-0.28336c0,0 -4.50888,13.58675 -25.63967,12.09247c-14.63139,-1.03467 -13.00169,-16.00208 -13.00169,-16.00208z" fill="#ffffff"/></g><path d="M16.02252,15.41462l-0.12729,-1.8457c0,0 1.33455,-0.08684 7.76312,0.96932c1.67565,0.27529 4.46013,1.11134 7.05521,1.74803c3.30989,0.81208 6.88448,0.97404 6.88448,0.97404c0,0 -2.93287,0.66922 -11.13451,0.09054c-3.48775,-0.24608 -10.44101,-1.93622 -10.44101,-1.93622z" fill="#ffffff"/><path d="M21.11409,21.14263c-5.28291,-0.59736 -5.91895,-4.5824 -5.91895,-4.5824c0,0 4.98025,1.17192 7.82492,1.49357c3.13153,0.35409 10.18649,0.54305 10.18649,0.54305c0,0 -2.40002,0.36039 -5.32309,1.0328c-2.61094,0.60062 -4.27691,1.79481 -6.76939,1.51299z" fill="#ffffff"/></g><g stroke="none" stroke-width="0" stroke-linecap="butt"><path d="M100.23871,94.62508c0,0 6.081,-3.77508 13.15324,-5.19535c2.53718,-0.50952 7.94683,3.10624 7.94683,3.10624c0,0 6.06253,-3.08256 8.06157,-2.96231c4.81346,0.28953 13.16201,7.59721 13.16201,7.59721c0,0 -6.29618,16.59443 -22.71382,15.82418c-14.00753,-0.65718 -19.60984,-18.36996 -19.60984,-18.36996z" fill="#000000"/><path d="M102.99045,95.38728c0,0 2.46884,-0.83185 5.25676,-1.99378c1.87774,-0.7826 3.97748,-2.02402 5.27311,-2.09379c2.8691,-0.1545 7.85636,3.09755 7.85636,3.09755c0,0 5.52064,-3.37858 8.12604,-2.99756c3.2251,0.47164 9.76516,5.61406 9.76516,5.61406c0,0 -6.35756,0.07805 -10.59608,-0.11198c-1.59783,-0.07164 -5.11691,-0.54332 -7.79311,-0.60228c-3.63209,-0.08001 -6.66427,0.24294 -10.10656,0.03072c-4.6459,-0.28643 -7.78169,-0.94294 -7.78169,-0.94294z" fill="#ffffff"/><path d="M103.06117,97.01375c0,0 5.31414,0.24853 9.65642,2.00124c3.38916,1.368 2.6056,4.14881 8.16944,4.43156c7.24582,0.36823 6.0609,-2.59329 9.9591,-3.85339c3.75569,-1.21402 8.56317,-0.95296 8.56317,-0.95296c0,0 -5.52495,12.64076 -18.88123,12.09247c-12.40832,-0.50937 -17.4669,-13.71895 -17.4669,-13.71895z" fill="#ffffff"/><path d="M116.70939,97.76806c0,0 3.03054,-0.1901 4.54666,-0.11597c1.35968,0.06647 4.13193,0.54028 4.13193,0.54028c0,0 -2.59865,0.29364 -4.85051,0.22217c-1.43137,-0.04542 -3.82807,-0.64647 -3.82807,-0.64647z" fill="#ffffff"/><path d="M117.06542,100.08706c0,0 2.97022,0.26309 4.4991,0.27402c1.54347,0.01102 4.71839,-0.20817 4.71839,-0.20817c0,0 -0.7114,1.70625 -4.91599,1.55819c-3.63662,-0.12805 -4.3015,-1.62404 -4.3015,-1.62404z" fill="#ffffff"/></g><g stroke="none" stroke-width="0" stroke-linecap="butt"><path d="M146.54333,163.14456c0,0 12.84084,-4.80762 15.61086,-4.86173c1.26681,-0.02475 8.27035,3.20213 8.27035,3.20213c0,0 4.15133,-3.03598 6.87512,-2.45284c2.38006,0.50955 6.57103,2.7215 10.0787,4.16653c2.37202,0.97718 4.67088,1.53703 4.67088,1.53703c0,0 -1.21739,2.50381 -2.27418,6.00009c-1.18335,3.91502 -2.38074,9.04756 -5.73753,12.76563c-3.31635,3.67328 -6.83154,5.06608 -14.36997,4.99494c-7.63352,-0.07205 -12.11206,-1.88431 -15.53903,-5.45714c-3.47836,-3.62643 -3.88111,-9.23893 -4.90335,-13.19581c-1.09442,-4.23621 -2.68182,-6.69881 -2.68182,-6.69881z" fill="#000000"/><path d="M161.47333,160.62391c1.94816,0 8.23182,3.15957 8.23182,3.15957c0,0 4.65908,-3.08517 7.39347,-2.91224c3.33531,0.21092 12.82359,4.33015 12.82359,4.33015c0,0 -10.41743,1.77689 -20.28806,1.28095c-6.26445,-0.31475 -19.7696,-2.99909 -19.7696,-2.99909c0,0 6.65136,-2.85934 11.60878,-2.85934z" fill="#ffffff"/><path d="M155.9403,169.76816c1.99771,3.36824 4.62694,9.51948 12.42027,9.31773c7.04019,-0.18226 9.06226,-1.52737 10.59565,-3.04431c1.45876,-1.44312 2.24769,-2.91555 3.34976,-4.56582c2.55531,-3.8264 7.11737,-4.93056 7.11737,-4.93056c0,0 -1.67993,3.55831 -2.50404,6.5426c-1.57954,5.71985 -4.17993,12.90603 -18.83298,13.45662c-9.82746,0.36927 -13.14884,-4.56444 -14.94131,-9.69139c-0.32483,-0.92908 -1.75908,-6.10576 -3.04411,-9.60806c-0.59173,-1.61273 -1.66776,-3.28319 -1.66776,-3.28319c0,0 5.53406,2.47956 7.50718,5.80636z" fill="#ffffff"/><path d="M159.23776,167.22286c0,0 7.25482,0.83645 10.93333,0.87633c3.41914,0.03706 10.41655,-0.64489 10.41655,-0.64489c0,0 -6.63544,2.47794 -11.05101,2.43007c-4.41558,-0.04787 -10.29885,-2.66151 -10.29885,-2.66151z" fill="#ffffff"/><path d="M160.83853,173.83803c0,0 5.44539,1.35189 8.28861,1.44078c5.27236,0.16485 9.069,-1.09363 9.069,-1.09363c0,0 0.26041,3.24062 -9.25739,3.18223c-8.53345,-0.05236 -8.10022,-3.52938 -8.10022,-3.52938z" fill="#ffffff"/></g><g stroke="none" stroke-width="0" stroke-linecap="butt"><path d="M144.4204,127.59929c0,0 3.81286,-1.45733 8.66348,-2.98791c2.32105,-0.7324 5.93348,-1.68747 7.72396,-1.67386c1.02947,0.00782 2.25307,0.54226 3.41136,1.04186c1.5109,0.65168 2.84695,1.30786 2.84695,1.30786c0,0 5.53759,-2.59284 8.37475,-2.23856c4.69193,0.58588 15.18548,4.4597 15.18548,4.4597c0,0 -1.11115,2.33819 -1.85885,6.66163c-0.87728,5.07283 -1.5105,12.16807 -5.09867,16.91377c-3.66787,4.85111 -8.45092,5.69833 -15.55449,5.55565c-6.73032,-0.13518 -11.41963,-0.38228 -14.4831,-3.91797c-3.19961,-3.69283 -4.1355,-10.94047 -5.61937,-15.78883c-2.02586,-6.61931 -3.33693,-8.82416 -3.33693,-8.82416z" fill="#000000"/><path d="M149.11357,127.99329c0,0 5.87869,-3.27316 10.8361,-3.27316c1.94816,0 8.16111,2.09883 8.16111,2.09883c0,0 4.09334,-1.883 6.82775,-1.71007c3.33531,0.21092 11.74188,2.8844 11.74188,2.8844c0,0 -9.76001,3.36407 -19.63065,2.86813c-6.26445,-0.31475 -17.93621,-2.86813 -17.93621,-2.86813z" fill="#ffffff"/><path d="M147.5679,129.58026c0,0 3.47542,-0.20243 5.44856,3.12437c1.99771,3.36824 3.23602,9.68737 6.85915,12.95948c1.87156,1.69023 4.9794,1.90082 7.89474,1.87412c3.5195,-0.03223 6.03603,0.24234 7.91494,-1.0166c4.55078,-3.04921 5.36107,-9.78519 7.62158,-13.17013c2.55531,-3.8264 4.82826,-3.53982 4.82826,-3.53982c0,0 -2.53545,15.01626 -5.97614,19.72008c-3.31874,4.53707 -6.87862,5.56146 -13.39,5.46501c-6.56118,-0.09719 -10.1464,-0.41958 -12.328,-2.44802c-4.20631,-3.91098 -5.81404,-11.6753 -6.77994,-16.93787c-1.0567,-5.75717 -2.09314,-6.03061 -2.09314,-6.03061z" fill="#ffffff"/><path d="M157.48076,131.75045c0,0 7.25482,0.83645 10.93333,0.87633c3.41914,0.03706 10.41655,-0.64489 10.41655,-0.64489c0,0 -6.63544,2.47794 -11.05101,2.43007c-4.41558,-0.04787 -10.29885,-2.66151 -10.29885,-2.66151z" fill="#ffffff"/><path d="M159.5058,141.97215l17.35761,0.34715c0,0 0.26041,3.24062 -9.25739,3.18223c-8.53345,-0.05236 -8.10022,-3.52938 -8.10022,-3.52938z" fill="#ffffff"/></g><g stroke="none" stroke-width="0" stroke-linecap="butt"><path d="M149.84079,94.21452c0,0 6.88428,-5.93969 10.71741,-6.98622c3.53161,-0.96422 11.34492,2.20665 11.34492,2.20665c0,0 7.51992,-2.16884 10.92026,-1.14612c3.74451,1.12622 8.95919,7.87748 8.95919,7.87748c0,0 -2.37447,19.1795 -21.10879,19.68739c-20.77075,-1.03895 -20.83299,-21.63917 -20.83299,-21.63917z" fill="#000000"/><path d="M151.45311,96.51988c0,0 1.758,-0.22945 3.33754,1.05653c4.34125,3.53442 5.91356,8.35534 15.92935,8.35005c10.01578,-0.00529 10.42031,-4.11409 14.00518,-7.3136c1.25604,-1.12103 4.27823,-1.37166 4.27823,-1.37166c0,0 -3.34818,17.22366 -18.47814,16.42031c-17.44389,-1.1143 -19.07217,-17.14161 -19.07217,-17.14161z" fill="#ffffff"/><path d="M152.23808,94.52569c0,0 5.51161,-4.66033 8.72882,-5.45176c3.10289,-0.76331 10.5566,2.54533 10.5566,2.54533c0,0 5.55021,-2.3947 9.55527,-1.77084c3.05619,0.47606 7.43674,5.73802 7.43674,5.73802c0,0 -10.50439,-1.82571 -16.45924,-1.99984c-6.13241,-0.17931 -19.81817,0.93908 -19.81817,0.93908z" fill="#ffffff"/><path d="M160.23783,96.90804c3.50522,2.40809 3.56739,4.42547 9.86386,4.49661c8.49396,0.09596 7.76279,-1.99374 11.1829,-4.26957c1.73341,-1.15345 2.6803,-0.49853 2.6803,-0.49853c0,0 -3.10166,7.15323 -13.81088,7.02212c-9.33148,-0.11425 -13.4078,-7.25548 -13.4078,-7.25548c0,0 1.33765,-0.97491 3.4916,0.50485z" fill="#ffffff"/></g><g stroke="none" stroke-width="0" stroke-linecap="butt"><path d="M145.10998,61.68946c0,0 7.52072,-6.57613 11.35384,-7.62267c3.53161,-0.96422 10.70847,2.84308 10.70847,2.84308c0,0 7.39263,-2.5507 10.79297,-1.52799c3.74451,1.12622 10.74124,8.00477 10.74124,8.00477c0,0 -2.01381,22.40417 -22.2756,22.2756c-23.31652,-0.14793 -21.32094,-23.9728 -21.32094,-23.9728z" fill="#000000"/><path d="M147.86791,63.95238c0,0 0.99426,0.02512 2.57382,1.31111c4.34125,3.53442 4.06786,10.71018 16.94766,11.21407c11.45537,0.44814 12.52058,-6.59623 16.10544,-9.79575c1.25604,-1.12103 2.55983,-1.24438 2.55983,-1.24438c0,0 -0.03866,19.00571 -18.98731,18.13871c-20.18059,-0.92337 -19.19946,-19.62375 -19.19946,-19.62375z" fill="#ffffff"/><path d="M148.08006,61.8309c0,0 5.34926,-4.27846 8.6229,-5.06989c3.15732,-0.76331 11.00085,1.46337 11.00085,1.46337c0,0 7.24443,-1.8875 10.43528,-0.94346c2.70355,0.79987 6.85484,5.61073 6.85484,5.61073c0,0 -10.68868,-1.82571 -16.748,-1.99984c-6.23999,-0.17931 -20.16587,0.93908 -20.16587,0.93908z" fill="#ffffff"/><path d="M151.47443,63.74023c0,0 1.08307,-1.03856 3.23701,0.4412c3.50522,2.40809 5.85859,7.92592 12.15507,7.99706c8.49396,0.09596 8.84476,-5.30325 12.26486,-7.57909c1.73341,-1.15345 3.31675,-0.11666 3.31675,-0.11666c0,0 -4.56548,10.5264 -15.27471,10.39528c-9.33148,-0.11425 -15.69901,-11.13781 -15.69901,-11.13781z" fill="#ffffff"/></g><g stroke="none" stroke-width="0" stroke-linecap="butt"><path d="M49.86671,67.37283c0,0 3.09817,-1.66229 6.00765,-3.77106c2.99788,-2.17284 5.83903,-4.80223 7.8893,-5.37351c1.32414,-0.36895 2.40347,0.41748 3.92639,1.10929c2.0065,0.91149 4.31462,1.86689 4.31462,1.86689c0,0 6.03605,-2.33493 8.04526,-2.25742c1.43515,0.05536 4.02577,2.82942 6.47591,4.95318c3.23031,2.79999 6.23732,5.12736 6.23732,5.12736c0,0 -2.43556,7.94725 -9.35992,10.12736c-2.48342,0.78189 -7.83371,0.65248 -13.0567,0.44354c-4.59168,-0.18369 -8.90182,0.08539 -12.7002,-1.71011c-5.57587,-2.6357 -7.77964,-10.51556 -7.77964,-10.51556z" fill="#000000"/><path d="M53.03478,67.5167c0,0 8.71775,-6.34309 12.17297,-6.8655c2.39242,-0.36173 6.56846,4.03185 6.56846,4.03185c0,0 6.00699,-3.80746 7.55798,-3.66835c1.76129,0.15797 2.86238,1.50789 4.98801,3.30886c2.20132,1.8651 4.70715,3.9003 4.70715,3.9003c0,0 -3.01827,0.42444 -6.08301,-0.20521c-2.11132,-0.43377 -3.75652,-1.52324 -6.03448,-2.20939c-1.72051,-0.51825 -3.57036,-0.43243 -4.92839,-0.45911c-1.35367,-0.02659 -2.90626,0.03333 -4.63638,0.39083c-2.13915,0.44201 -3.52225,1.22675 -5.68018,1.52682c-4.09121,0.56891 -8.6321,0.2489 -8.6321,0.2489z" fill="#ffffff"/><path d="M52.75194,69.2846c0,0 5.28357,0.09092 6.98562,0.37461c1.23688,0.20614 2.28428,1.17037 2.28428,1.17037l20.86705,0.51918c0,0 0.71749,-0.98628 1.56814,-1.13247c1.37887,-0.23697 5.91593,-0.15382 5.91593,-0.15382c0,0 -1.0227,5.61263 -7.84832,7.0197c-3.75637,0.77435 -17.62431,-0.34809 -20.93373,-0.41652c-6.19778,-0.12814 -8.83898,-7.38106 -8.83898,-7.38106z" fill="#ffffff"/><path d="M64.84441,68.86028c0,0 4.4732,-1.60837 7.56664,-1.48505c4.22278,0.16834 6.64733,1.98004 6.64733,1.98004c0,0 -4.30504,-0.46199 -6.64987,-0.58967c-2.41468,-0.13148 -7.56408,0.09467 -7.56408,0.09467z" fill="#ffffff"/></g><g><path d="M2.80138,99.80604c0,0 6.80991,-8.15521 10.59967,-7.69447c3.38075,0.411 11.05226,2.69318 11.05226,2.69318c0,0 5.8957,-0.58521 9.15986,-0.20339c3.39456,0.39705 11.10334,7.49476 11.10334,7.49476c0,0 -6.40132,14.79296 -22.76133,13.1756c-15.82406,-1.56438 -19.15379,-15.46566 -19.15379,-15.46566z" fill="#000000" stroke="none" stroke-width="0" stroke-linecap="butt"/><path d="M5.92421,99.29713c0,0 3.43284,-4.74588 6.7314,-5.1353c1.76185,-0.208 5.15545,0.74693 8.12901,1.48782c2.59358,0.64623 5.1256,1.28802 5.1256,1.28802c0,0 6.30638,-0.97278 8.49139,-0.42483c4.55763,1.14297 6.63691,5.07435 6.63691,5.07435c0,0 -3.86596,-0.04897 -8.23543,-0.94353c-3.88473,-0.7953 -8.40139,-2.29469 -11.3409,-2.49964c-1.69562,-0.11822 -5.82453,0.55253 -9.4301,0.88678c-3.26178,0.30236 -6.10788,0.26633 -6.10788,0.26633z" fill="#ffffff" stroke="none" stroke-width="0" stroke-linecap="butt"/><path d="M4.88327,100.77758c0,0 1.49449,-0.37317 3.6621,0.49023c2.8256,1.12549 6.94914,3.40139 10.22771,3.77712c3.73337,0.42785 9.44278,-1.36278 14.82633,-1.96208c4.46784,-0.49736 8.75764,-0.01519 8.75764,-0.01519c0,0 -7.2807,10.6941 -21.9291,9.85422c-11.02667,-0.63222 -15.54468,-12.14428 -15.54468,-12.14428z" fill="#ffffff" stroke="none" stroke-width="0" stroke-linecap="butt"/><path d="M12.30862,101.47154c0,0 3.42021,-1.12488 5.69046,-1.24912c2.27025,-0.12425 13.32401,1.45732 13.32401,1.45732c0,0 -7.32225,1.67998 -12.07489,1.5961c-2.94879,-0.05204 -6.93959,-1.8043 -6.93959,-1.8043z" fill="#ffffff" stroke="none" stroke-width="0" stroke-linecap="butt"/><path d="M31.67008,101.74913l-19.77783,-0.27759" fill="none" stroke="#000000" stroke-width="1" stroke-linecap="round"/></g><g><path d="M3.85693,73.58382c0,0 5.80991,-9.37743 9.59967,-8.91669c3.38075,0.411 12.05226,3.9154 12.05226,3.9154c0,0 5.9957,0.31479 9.25986,0.69661c3.39456,0.39705 11.00334,6.59476 11.00334,6.59476c0,0 -4.41883,4.53353 -10.7505,8.52753c-4.0053,2.52653 -8.1162,5.49698 -14.45527,4.87029c-15.82406,-1.56438 -16.70935,-15.68788 -16.70935,-15.68788z" fill="#000000" stroke="none" stroke-width="0" stroke-linecap="butt"/><path d="M6.97976,73.07491c0,0 2.9884,-6.52366 6.28696,-6.91308c1.10651,-0.13063 13.69905,4.55362 13.69905,4.55362c0,0 5.80638,-0.57278 7.99139,-0.02483c4.55763,1.14297 7.13691,4.67435 7.13691,4.67435c0,0 -3.86596,-0.04897 -8.23543,-0.94353c-3.88473,-0.7953 -8.84583,-2.62802 -11.78534,-2.83297c-1.69562,-0.11822 -5.26897,-0.55858 -8.87454,-0.22433c-3.26178,0.30236 -6.21899,1.71077 -6.21899,1.71077z" fill="#ffffff" stroke="none" stroke-width="0" stroke-linecap="butt"/><path d="M5.93882,74.55536c0,0 1.27227,0.07127 3.43988,0.93467c2.8256,1.12549 6.39358,3.84583 9.67215,4.22156c3.73337,0.42785 10.22056,-2.25167 15.60411,-2.85097c4.46784,-0.49736 8.75764,-0.01519 8.75764,-0.01519c0,0 -4.24064,3.76242 -10.29951,6.8564c-3.56116,1.81852 -7.09591,3.86429 -12.51848,3.55338c-12.91556,-0.63222 -14.65579,-12.69984 -14.65579,-12.69984z" fill="#ffffff" stroke="none" stroke-width="0" stroke-linecap="butt"/><path d="M16.61019,72.88908c2.27025,-0.12425 15.76845,2.56843 15.76845,2.56843c0,0 -7.65558,2.45776 -12.40822,2.37388c-2.94879,-0.05204 -9.27292,-3.24874 -9.27292,-3.24874c0,0 3.64244,-1.56932 5.91269,-1.69356z" fill="#ffffff" stroke="none" stroke-width="0" stroke-linecap="butt"/><path d="M33.72563,75.74913c0,0 -13.86529,-0.13794 -18.13748,-0.29048c-2.47479,-0.08837 -5.1959,-0.76489 -5.1959,-0.76489" fill="none" stroke="#000000" stroke-width="1" stroke-linecap="round"/></g><g><path d="M46.33201,147.51557c0,0 3.57193,-1.20639 6.99765,-2.93217c2.99687,-1.50974 5.73097,-3.56783 7.85949,-3.56783c1.89907,0 7.61891,1.09616 7.61891,1.09616c0,0 1.30979,-0.17153 2.79233,-0.47258c1.95382,-0.39675 5.2227,-0.98462 6.89931,-0.58491c2.00125,0.47711 4.51708,2.34472 7.33717,3.9364c3.06044,1.72734 5.70942,3.23921 5.70942,3.23921c0,0 -2.48586,9.4703 -8.88694,14.48174c-3.42591,2.68217 -9.65528,2.5071 -13.4702,2.44683c-4.85621,-0.07672 -10.61802,-0.05993 -14.73068,-3.91107c-5.15469,-4.8269 -8.12647,-13.73179 -8.12647,-13.73179z" fill="#000000" stroke="none" stroke-width="0" stroke-linecap="butt"/><path d="M51.97487,147.53938c0,0 6.91203,-4.2885 10.00947,-4.05314c2.4249,0.18426 7.05635,0.84991 7.05635,0.84991c0,0 5.44068,-1.596 7.79132,-1.15391c4.30588,0.80981 9.57143,5.07143 9.57143,5.07143z" fill="#ffffff" stroke="none" stroke-width="0" stroke-linecap="butt"/><path d="M49.47487,148.82509c0,0 1.84076,0.20535 3.59935,1.01044c4.39997,2.01433 9.97452,6.05433 16.0426,6.16033c6.57394,0.11483 12.00909,-3.6766 16.15963,-5.64505c2.01666,-0.95643 3.62698,-1.16857 3.62698,-1.16857c0,0 -3.35064,9.0558 -7.63434,11.73367c-3.98997,2.49426 -7.41705,2.17967 -12.36566,2.05204c-4.94861,-0.12763 -8.28787,0.44478 -11.62242,-2.67073c-2.35353,-2.19893 -4.78745,-5.43606 -6.18326,-7.91147c-1.14952,-2.03864 -1.62289,-3.56066 -1.62289,-3.56066z" fill="#ffffff" stroke="none" stroke-width="0" stroke-linecap="butt"/><path d="M57.40344,149.63462l23.78571,0.07143c0,0 -3.02736,4.22961 -11.92857,3.92857c-9.11275,-0.30819 -11.85714,-4 -11.85714,-4z" fill="#ffffff" stroke="none" stroke-width="0" stroke-linecap="butt"/><path d="M81.40344,150.42034c0,0 -3.51906,1.30489 -12.21282,1.25515c-8.89574,-0.0509 -12.64432,-1.6123 -12.64432,-1.6123" fill="none" stroke="#000000" stroke-width="1" stroke-linecap="round"/></g><g stroke="none" stroke-width="0" stroke-linecap="butt"><path d="M145.62636,236.4872c0,0 2.90915,-0.60927 5.39182,-2.09222c3.59286,-2.1461 7.5156,-5.41388 10.66851,-5.38835c1.87093,0.01515 6.54867,1.86477 6.54867,1.86477c0,0 4.53616,-2.24647 7.12457,-1.51004c2.2821,0.64927 6.23751,3.97075 9.53681,6.25158c2.29991,1.58994 4.49433,2.6978 4.49433,2.6978c0,0 -0.47141,1.24848 -1.04408,3.08181c-1.02755,3.28952 -2.90336,8.46195 -6.67829,11.68377c-3.64995,3.11515 -10.3736,2.52699 -14.57175,2.35207c-4.3999,-0.18333 -11.13917,-0.86038 -14.7433,-4.49228c-2.87739,-2.89957 -4.19041,-6.89566 -5.17194,-9.92789c-0.85147,-2.63046 -1.55535,-4.52101 -1.55535,-4.52101z" fill="#000000"/><path d="M150.2146,236.62446c0,0 1.35197,-0.47146 2.90955,-1.36432c2.42772,-1.39166 5.69126,-3.47072 7.70231,-3.79508c2.61645,-0.42201 7.62343,2.21823 7.62343,2.21823c0,0 4.38617,-2.79661 6.70779,-2.26546c1.76283,0.4033 4.41905,2.65461 6.61831,4.24378c1.38567,1.00126 2.61507,1.66874 2.61507,1.66874c0,0 -2.39449,0.17692 -5.30469,-0.0211c-3.27516,-0.22284 -7.31028,-1.08559 -10.16298,-1.17951c-3.70455,-0.12197 -7.81336,0.69752 -11.82785,0.76568c-3.79488,0.06443 -6.88096,-0.27096 -6.88096,-0.27096z" fill="#ffffff"/><path d="M148.15578,238.11466c0,0 3.93147,0.50673 7.61187,2.36764c2.40375,1.21541 2.9527,5.22593 12.33412,5.46436c10.69887,0.27192 8.23178,-3.86133 13.45462,-5.86114c2.74336,-1.05042 5.5994,-0.85322 5.5994,-0.85322c0,0 -0.67056,1.5376 -1.43554,3.28263c-1.23019,2.80626 -2.38887,7.21246 -7.10685,9.43494c-2.44804,1.15319 -5.63941,1.24561 -10.75174,1.2236c-14.15603,-0.06094 -16.83362,-6.29622 -17.95378,-10.73714c-0.54856,-2.17478 -1.7521,-4.32167 -1.7521,-4.32167z" fill="#ffffff"/><path d="M160.50873,242.09505c0,0 5.7137,-0.0402 8.41222,0.04413c2.232,0.06975 6.64659,0.42646 6.64659,0.42646c0,0 -1.47877,1.7398 -7.35294,1.58823c-5.34804,-0.13799 -7.70588,-2.05882 -7.70588,-2.05882z" fill="#ffffff"/><path d="M162.27342,238.70289c0,0 2.62134,-0.68969 7,-0.41176c2.8258,0.0441 5.52941,0.47059 5.52941,0.47059z" fill="#ffffff"/></g><g stroke="none" stroke-width="0" stroke-linecap="butt"><path d="M0.51059,150.05444c0,0 6.81111,-7.00979 11.8139,-6.62675c2.2473,0.17207 9.68142,2.47527 9.68142,2.47527c0,0 6.57082,-1.54251 9.48334,-0.5105c3.80372,1.34779 11.09277,7.9058 11.09277,7.9058c0,0 -6.48444,13.16692 -21.33061,12.68041c-14.3743,-0.47105 -20.74082,-15.92423 -20.74082,-15.92423z" fill="#000000"/><path d="M3.04448,149.85073c0,0 4.99309,-4.0017 8.7863,-4.18143c3.9294,-0.18619 10.37419,2.01132 10.37419,2.01132c0,0 5.46005,-1.50575 7.93805,-0.84171c2.86458,0.76763 8.25839,5.18193 8.25839,5.18193c0,0 -2.22195,0.00257 -4.69651,-0.32061c-3.20992,-0.41923 -7.13396,-1.20595 -10.16903,-1.39223c-2.93595,-0.1802 -7.45472,-0.1331 -11.59997,-0.20094c-4.70992,-0.07708 -8.89143,-0.25632 -8.89143,-0.25632z" fill="#ffffff"/><path d="M2.7269,151.33276c0,0 3.94252,0.97854 8.59298,2.00613c4.08172,0.90192 8.7088,1.85378 11.69423,2.04968c2.78651,0.18285 6.33367,-0.53159 9.6556,-0.94902c3.77144,-0.47391 7.16081,-0.67203 7.16081,-0.67203c0,0 -5.04133,10.02067 -18.84292,9.15681c-13.35916,-0.83616 -18.26069,-11.59157 -18.26069,-11.59157z" fill="#ffffff"/><path d="M29.98562,152.60306c0,0 -3.37846,0.62522 -6.9867,0.42344c-3.60823,-0.20178 -9.10388,-1.32324 -9.10388,-1.32324z" fill="#ffffff"/></g><g stroke="none" stroke-width="0" stroke-linecap="butt"><path d="M47.82029,35.43921c0,0 3.29101,-0.60948 6.09441,-1.47685c2.47387,-0.76541 6.02445,-1.94186 6.02445,-1.94186c0,0 3.27603,0.40203 4.93291,0.64322c1.68244,0.24491 5.08623,0.81527 5.08623,0.81527c0,0 5.45743,-0.65557 8.37305,-0.19117c1.84689,0.29418 12.82334,5.67014 12.82334,5.67014c0,0 -10.03381,13.95565 -20.36383,13.23785c-16.97206,-1.17933 -22.97056,-16.7566 -22.97056,-16.7566z" fill="#000000"/><path d="M50.05949,37.00462c0,0 7.63527,1.33376 11.29295,2.12391c3.5013,0.75637 10.2045,2.52006 10.2045,2.52006c0,0 5.22855,-1.07564 8.06251,-1.38831c2.82742,-0.31195 8.92168,-0.33585 8.92168,-0.33585c0,0 -1.67726,2.55348 -5.04517,5.05475c-3.27293,2.43072 -8.17163,4.6624 -12.69831,4.6031c-13.50784,-0.17697 -20.73816,-12.57766 -20.73816,-12.57766z" fill="#ffffff"/><path d="M53.05418,35.80674c0,0 4.85653,-1.56755 7.2621,-1.64707c2.40557,-0.07952 10.25678,0.97327 10.25678,0.97327c0,0 4.86591,-0.76053 7.239,-0.20143c2.39327,0.56386 6.91086,3.27098 6.91086,3.27098c0,0 -4.55998,-0.02779 -6.73752,0.15578c-2.35358,0.19841 -6.89693,0.99363 -6.89693,0.99363c0,0 -5.68069,-1.20103 -8.70218,-1.83153c-3.22608,-0.6732 -9.33211,-1.71363 -9.33211,-1.71363z" fill="#ffffff"/></g><g stroke="none" stroke-width="0" stroke-linecap="butt"><path d="M443.50898,77.85152c0,0 -0.50765,-9.276 11.29391,-9.39655c10.87483,-0.11109 11.0092,10.27474 11.0092,10.27474z" fill="#000000"/><path d="M445.01562,76.63671c0,0 0.39907,-7.37714 10.15504,-7.37673c8.16035,0.00034 9.49069,7.81583 9.49069,7.81583z" fill="#ffffff"/></g><g stroke="none" stroke-width="0" stroke-linecap="butt"><path d="M444.44918,97.19455c0,0 0.10135,-10.403 11.9029,-10.52355c10.87483,-0.11109 10.95384,10.63333 10.95384,10.63333c0,0 -5.41784,-2.1721 -11.5609,-2.41753c-6.57343,-0.26263 -11.29585,2.30776 -11.29585,2.30776z" fill="#000000"/><path d="M446.62017,95.0064c0,0 0.23299,-6.86487 9.98895,-6.86446c8.16034,0.00034 8.93706,7.14987 8.93706,7.14987c0,0 -3.0995,-1.33913 -9.84474,-1.45633c-6.08948,-0.1058 -9.08128,1.17091 -9.08128,1.17091z" fill="#ffffff"/></g><g stroke="none" stroke-width="0" stroke-linecap="butt"><path d="M445.88562,113.3299c0,0 -0.36442,-8.92808 11.43786,-8.92526c10.00781,0.00239 10.55523,8.97356 10.55523,8.97356c0,0 -4.38969,-3.54498 -10.53274,-3.79041c-6.57343,-0.26263 -11.46035,3.74211 -11.46035,3.74211z" fill="#000000"/><path d="M447.99018,110.77293c0,0 1.69456,-5.32805 9.78965,-5.2047c6.36661,0.00034 8.07341,5.55158 8.07341,5.55158c0,0 -2.03656,-2.81448 -8.78179,-2.93167c-6.08948,-0.1058 -9.08128,2.58479 -9.08128,2.58479z" fill="#ffffff"/></g><g stroke="none" stroke-width="0" stroke-linecap="butt"><path d="M454.71697,133.50086c5.79255,-0.20807 10.04223,-2.75937 10.04223,-2.75937c0,0 -1.19261,7.91273 -10.32208,7.81241c-8.7092,-0.09569 -9.82565,-6.81522 -9.82565,-6.81522c0,0 3.90713,1.98483 10.10552,1.76218z" fill="#000000"/><path d="M454.79,135.07316c4.95788,-0.16765 7.83784,-1.87065 7.83784,-1.87065c0,0 -1.68324,3.81822 -7.6866,3.81852c-6.00336,0.00029 -7.9024,-3.38783 -7.9024,-3.38783c0,0 3.11636,1.52966 7.75117,1.43997z" fill="#ffffff"/><g><path d="M443.64248,129.60257c0,0 0.10135,-10.403 11.9029,-10.52355c10.87483,-0.11109 10.95383,10.63333 10.95383,10.63333c0,0 -5.41784,-2.1721 -11.56089,-2.41753c-6.57343,-0.26263 -11.29584,2.30776 -11.29584,2.30776z" fill="#000000"/><path d="M445.81347,127.41443c0,0 0.23299,-6.86487 9.98895,-6.86446c8.16035,0.00034 8.93706,7.14987 8.93706,7.14987c0,0 -3.09951,-1.33913 -9.84474,-1.45633c-6.08948,-0.1058 -9.08128,1.17091 -9.08128,1.17091z" fill="#ffffff"/></g></g><g stroke="none" stroke-width="0" stroke-linecap="butt"><path d="M453.78689,158.61379c5.79255,-0.20807 10.04222,-2.75937 10.04222,-2.75937c0,0 -1.1926,7.91273 -10.32207,7.81241c-8.7092,-0.09569 -9.82566,-6.81522 -9.82566,-6.81522c0,0 3.90714,1.98483 10.10553,1.76218z" data-paper-data="{&quot;index&quot;:null}" fill="#000000"/><path d="M453.85992,160.1861c4.95787,-0.16765 7.83784,-1.87065 7.83784,-1.87065c0,0 -1.68324,3.81822 -7.6866,3.81852c-6.00336,0.00029 -7.9024,-3.38783 -7.9024,-3.38783c0,0 3.11636,1.52966 7.75117,1.43997z" data-paper-data="{&quot;index&quot;:null}" fill="#ffffff"/><path d="M453.52283,149.10563c-6.52541,-0.22265 -10.63868,1.76218 -10.63868,1.76218c0,0 1.17537,-6.71952 10.34405,-6.81522c9.61112,-0.10032 10.86665,7.81241 10.86665,7.81241c0,0 -4.47388,-2.5513 -10.57204,-2.75937z" data-paper-data="{&quot;index&quot;:null}" fill="#000000"/><path d="M445.43959,148.97329c0,0 1.99923,-3.38812 8.31932,-3.38783c6.3201,0.0003 8.09213,3.81852 8.09213,3.81852c0,0 -3.03191,-1.703 -8.25135,-1.87065c-4.87932,-0.08969 -8.1601,1.43997 -8.1601,1.43997z" data-paper-data="{&quot;index&quot;:null}" fill="#ffffff"/></g><g stroke="none" stroke-width="0" stroke-linecap="butt"><path d="M443.95295,60.2574c0,0 -0.50765,-9.276 11.29391,-9.39655c10.87483,-0.11109 11.0092,10.27474 11.0092,10.27474c0,0 -4.2087,0.69371 -11.56089,0.39997c-6.57343,-0.26263 -10.74222,-1.27816 -10.74222,-1.27816z" fill="#000000"/><path d="M445.45959,59.04257c0,0 0.39907,-7.37714 10.15504,-7.37673c8.16035,0.00034 9.49069,7.81583 9.49069,7.81583c0,0 -3.15488,0.6075 -9.90011,0.49031c-6.08949,-0.1058 -9.74562,-0.92941 -9.74562,-0.92941z" fill="#ffffff"/></g><g stroke="none" stroke-width="0" stroke-linecap="butt"><path d="M443.65275,41.54489c0,0 -0.50765,-9.276 11.29391,-9.39655c10.87483,-0.11109 11.0092,10.27474 11.0092,10.27474c0,0 -2.4358,3.06177 -11.72706,2.90617c-8.02873,-0.13446 -10.57606,-3.78436 -10.57606,-3.78436z" fill="#000000"/><path d="M444.87151,40.80136c0,0 0.39908,-7.37714 10.15504,-7.37673c8.16035,0.00034 9.4907,7.81583 9.4907,7.81583c0,0 -2.51321,2.01534 -10.88086,2.16167c-5.40408,0.0945 -8.76488,-2.60077 -8.76488,-2.60077z" fill="#ffffff"/></g><g stroke="none" stroke-width="0" stroke-linecap="butt"><path d="M443.26939,19.53372c0,0 -0.4849,-9.276 10.78791,-9.39655c10.38761,-0.11109 10.51595,10.27474 10.51595,10.27474c0,0 -2.46,7.86177 -11.33498,7.70617c-7.66901,-0.13446 -9.96889,-8.58436 -9.96889,-8.58436z" fill="#000000"/><path d="M444.43355,18.79019c0,0 0.3812,-7.37714 9.70006,-7.37673c7.79474,0.00034 9.06548,7.81583 9.06548,7.81583c0,0 -0.60174,6.90129 -9.86003,6.695c-8.39276,-0.187 -8.90552,-7.1341 -8.90552,-7.1341z" fill="#ffffff"/></g><g><g stroke="none" stroke-width="0" stroke-linecap="butt"><path d="M2.06661,43.68862c0,0 5.80442,-7.34091 10.17147,-7.67989c3.34356,-0.25955 6.36011,1.27788 8.64439,2.61403c2.03826,1.19222 3.53304,2.18713 3.53304,2.18713c0,0 7.65701,-2.91754 11.3063,-2.18574c3.64929,0.7318 10.40405,8.44253 10.40405,8.44253c0,0 -4.61943,17.23273 -25.07946,15.66383c-17.03386,-1.30618 -18.9798,-19.04187 -18.9798,-19.04187z" fill="#000000"/><path d="M13.1909,38.02946c4.29944,-0.01958 8.41605,3.23886 12.57799,3.91145c1.72111,0.27814 6.7736,-1.89964 8.51532,-1.83184c3.74902,0.14595 7.93432,7.10615 7.93432,7.10615c0,0 -4.89935,-1.04141 -9.89947,-1.84889c-5.00011,-0.80748 -11.65035,-2.17056 -14.68517,-2.24466c-2.23446,-0.05456 -4.45154,1.63204 -6.69218,1.85789c-3.23406,0.32598 -6.14955,-0.75374 -6.14955,-0.75374c0,0 5.62658,-6.18373 8.39873,-6.19636z" fill="#ffffff"/><path d="M4.47374,45.91827c4.42365,0.34983 9.27234,4.59548 16.20812,5.33866c8.96637,-0.03305 6.45117,-0.29152 12.83682,-1.32842c6.38564,-1.03691 9.35929,-0.6358 9.35929,-0.6358c0,0 -4.4579,11.31258 -19.84321,11.18326c-13.59824,-0.11431 -16.85959,-9.55667 -18.561,-14.55771z" fill="#ffffff"/><path d="M11.54356,46.29502c0,0 6.09175,-1.03441 10.01252,-0.87511c3.92077,0.1593 15.44304,1.90934 15.44304,1.90934c0,0 -13.45646,1.69437 -18.07689,1.50665c-3.6162,-0.14692 -7.37867,-2.54087 -7.37867,-2.54087z" fill="#ffffff"/></g><path d="M28.00204,48.67284c0,0 -6.9295,-0.59959 -9.83586,-1.02131c-2.44345,-0.35455 -6.45569,-1.34263 -6.45569,-1.34263" fill="none" stroke="#000000" stroke-width="1" stroke-linecap="round"/></g><g stroke-width="0" stroke-linecap="butt"><path d="M146.13134,202.92785c0,0 2.80812,-1.78893 5.71742,-4.10094c2.88681,-2.29415 5.86639,-5.1119 8.0514,-5.0199c1.94102,0.08173 8.09473,2.30573 8.09473,2.30573c0,0 6.34623,-3.51263 8.84158,-2.42859c2.1668,0.9413 5.22109,4.43957 7.76238,7.21325c1.96322,2.14274 3.75469,3.80824 3.75469,3.80824c0,0 -0.60507,1.41291 -1.21115,3.63943c-1.06714,3.92026 -2.05966,9.79611 -5.5415,13.58771c-3.28881,3.58138 -9.57606,3.17306 -13.8029,2.99508c-4.05318,-0.17066 -9.77756,0.58934 -13.1677,-3.05853c-3.68296,-3.96295 -5.598,-10.06469 -6.87375,-14.2855c-0.80745,-2.67141 -1.62521,-4.65597 -1.62521,-4.65597z" fill="#000000" stroke="none"/><path d="M150.24245,202.81674c0,0 1.19814,-0.6977 2.44205,-1.76181c2.12226,-1.81552 4.7925,-4.81867 6.70962,-5.37168c2.6952,-0.77746 8.62611,3.13349 8.62611,3.13349c0,0 5.79405,-3.62603 8.47318,-2.83287c1.36344,0.40365 2.86672,2.19242 4.32157,3.87021c1.66979,1.92568 3.42747,3.74044 3.42747,3.74044c0,0 -2.21352,0.47073 -4.54014,-0.16731c-3.41894,-0.93759 -5.94635,-3.15656 -11.1159,-3.18296c-6.19541,-0.03163 -7.27663,1.75881 -10.95938,2.34106c-4.18854,0.66221 -7.38458,0.23143 -7.38458,0.23143z" fill="#ffffff" stroke="none"/><path d="M148.798,204.4834c0,0 2.58503,-0.38218 4.79299,1.52004c3.71744,3.20267 4.83066,9.41538 14.64697,9.55707c9.50119,0.30123 9.12828,-5.89657 12.51491,-9.01501c2.1524,-1.98194 5.15623,-1.50655 5.15623,-1.50655c0,0 -0.65052,2.48341 -1.54191,5.8112c-0.79244,2.95838 -1.65874,6.63069 -4.20284,9.10864c-2.63655,2.568 -9.01882,2.9064 -12.25525,2.85795c-3.69679,-0.05534 -9.19365,0.24891 -12.26095,-2.96301c-2.74203,-2.87131 -4.06659,-7.07122 -5.11873,-10.35547c-0.91395,-2.85289 -1.73143,-5.01485 -1.73143,-5.01485z" fill="#ffffff" stroke="#000000"/><path d="M160.02023,210.70562c0,0 5.6582,0.79209 8.32934,0.85016c2.41387,0.05247 7.00399,-0.51682 7.00399,-0.51682c0,0 -1.64731,2.8211 -7.22222,2.77778c-4.5752,-0.03555 -8.11111,-3.11111 -8.11111,-3.11111z" fill="#ffffff" stroke="#000000"/><path d="M175.90911,203.92785c0,0 -4.84127,0.14297 -7.33101,0.04937c-2.43496,-0.09154 -7.44676,-0.60493 -7.44676,-0.60493c0,0 3.78325,-1.37591 7.88889,-1.22222c3.88895,0.14558 6.88888,1.77778 6.88888,1.77778z" fill="#ffffff" stroke="#000000"/></g><g stroke="none" stroke-width="0" stroke-linecap="butt"><path d="M104.81206,174.89988c2.6711,-1.48775 5.36265,-3.28731 6.96,-3.19246c2.02835,0.12043 8.71389,2.34008 8.71389,2.34008c0,0 5.71038,-2.23377 7.59202,-1.68167c4.6169,1.35469 10.41661,7.02766 10.41661,7.02766c0,0 -6.88091,10.02321 -19.59606,9.5546c-10.55811,-0.38912 -19.23092,-11.50204 -19.23092,-11.50204c0,0 2.57939,-1.11747 5.14447,-2.54617z" fill="#000000"/><path d="M103.6551,177.09278c0,0 1.68278,-0.53754 3.19344,-1.2709c1.72389,-0.83686 3.14574,-2.07451 4.71923,-2.23479c2.38045,-0.24248 9.55339,2.38592 9.55339,2.38592c0,0 4.16409,-2.45945 6.31318,-2.06685c2.48732,0.4544 6.89286,4.39159 6.89286,4.39159c0,0 -9.35926,-0.40355 -14.48085,-0.60476c-5.10237,-0.20046 -16.19125,-0.60022 -16.19125,-0.60022z" fill="#ffffff"/><path d="M102.62053,178.30181c0,0 5.27089,-0.04919 10.26055,0.74396c3.03493,0.48243 5.65907,1.92831 7.81588,2.0035c2.23869,0.07805 4.71303,-1.28592 7.46474,-1.62353c3.79648,-0.46579 7.62608,0.03235 7.62608,0.03235c0,0 -2.58906,6.56699 -15.33605,6.39003c-12.50872,-0.17366 -17.8312,-7.54632 -17.8312,-7.54632z" fill="#ffffff"/></g><g stroke="none" stroke-width="0" stroke-linecap="butt"><path d="M45.00302,172.86686c0,0 2.37831,-0.63426 5.22652,-1.43627c3.17844,-0.895 7.00394,-1.96797 10.02955,-1.96797c2.50036,0 7.15446,2.29753 7.15446,2.29753c0,0 3.72597,-2.29527 6.46797,-2.14401c1.97256,0.10881 5.94076,1.01141 9.28248,1.79237c3.64845,0.85263 6.59857,1.33228 6.59857,1.33228c0,0 -0.24372,2.74939 -1.25316,6.87476c-0.94862,3.87685 -2.544,9.02783 -6.14223,12.46734c-3.37196,3.22323 -8.78184,4.88587 -15.55176,4.73981c-3.8459,-0.08298 -10.10164,-1.33767 -13.09761,-4.3045c-3.61964,-3.58444 -5.18153,-8.86038 -6.46194,-12.93112c-1.23628,-3.93043 -2.25285,-6.72021 -2.25285,-6.72021z" fill="#000000"/><path d="M49.04875,173.3774c0,0 6.91913,-2.09057 10.08884,-2.12382c2.79226,-0.02928 7.94105,1.93469 7.94105,1.93469c0,0 4.74101,-1.73994 7.311,-1.68301c1.72851,0.03829 4.64687,0.7499 7.31756,1.22531c2.99989,0.534 5.29257,0.899 5.29257,0.899c0,0 -7.20447,2.98103 -18.91289,3.21512c-8.74758,0.17488 -19.03815,-3.46728 -19.03815,-3.46728z" fill="#ffffff"/><path d="M47.4727,174.82736c0,0 3.28446,0.76003 5.6424,2.94381c1.42844,1.32292 2.45909,2.90378 3.57957,4.38222c1.89156,2.49584 4.27232,4.69974 10.9535,4.87791c2.92479,0.078 4.8505,-0.43672 6.4465,-1.01585c2.21622,-0.80419 3.66789,-1.86142 4.70992,-3.19469c1.05426,-1.34892 1.69366,-2.97592 3.05566,-4.13483c3.13322,-2.66602 6.33733,-3.54335 6.33733,-3.54335c0,0 -0.85546,3.07786 -2.31493,6.50877c-2.39553,5.63141 -7.16587,12.74801 -17.98445,12.71891c-5.38453,-0.01449 -9.03874,-1.21801 -11.96365,-3.40298c-3.91585,-2.92522 -5.0979,-7.31763 -6.24018,-10.70138c-1.07163,-3.17447 -2.22164,-5.43854 -2.22164,-5.43854z" fill="#ffffff"/><path d="M68.02701,178.55114c3.68694,0.08333 11.47083,-0.69779 11.47083,-0.69779c0,0 -4.28755,2.40558 -11.22241,2.50311c-5.7799,0.0813 -11.09432,-3.00746 -11.09432,-3.00746c0,0 7.09502,1.11737 10.84591,1.20213z" fill="#ffffff"/><path d="M67.39222,183.17016c3.6054,0.01277 9.26873,-1.49229 9.26873,-1.49229c0,0 -1.46976,3.62587 -9.27023,3.48541c-7.30621,-0.13156 -8.82272,-4.17886 -8.82272,-4.17886c0,0 4.69602,2.17112 8.82421,2.18574z" fill="#ffffff"/></g><g stroke="none" stroke-width="0" stroke-linecap="butt"><path d="M190.88396,20.57982c0,0 4.03934,-3.04401 8.20907,-5.5488c2.45164,-1.47272 4.79736,-3.01068 6.79798,-2.95999c1.87514,0.04751 8.42959,2.1602 8.42959,2.1602c0,0 5.82481,-2.98297 8.16647,-2.16521c2.52675,0.88241 6.99196,4.28911 10.20281,6.7961c2.11724,1.65311 3.73255,2.87154 3.73255,2.87154c0,0 -0.65131,1.56966 -0.99516,4.13915c-0.4861,3.63244 -0.97219,9.10942 -3.45753,13.64406c-1.03684,1.89177 -2.82084,3.50164 -4.31516,4.9618c-3.2246,3.15088 -10.63704,2.7424 -14.69369,2.63961c-4.52462,-0.11464 -11.93958,-1.07753 -15.20244,-4.98506c-3.89091,-4.65966 -4.96905,-11.28793 -5.70316,-15.97843c-0.50479,-3.22533 -1.17132,-5.57497 -1.17132,-5.57497z" fill="#000000"/><path d="M200.96088,42.067c-3.87739,-2.14659 -5.65513,-11.78308 -6.72832,-16.79446c-0.38406,-1.7934 -1.3486,-3.12861 -1.3486,-3.12861c0,0 1.29628,0.12649 2.18897,0.29645c1.27586,0.24292 2.44918,0.73506 3.98414,2.44009c0.7715,0.85698 1.21607,1.9974 1.9046,3.21968c1.56287,2.77439 3.42451,5.97053 6.40232,7.23085c1.99247,0.84329 4.35864,1.38414 6.59835,1.44049c2.20082,0.05537 5.60506,-0.30361 7.89955,-1.79989c3.80039,-2.47832 4.16903,-7.19213 6.33146,-9.36321c1.87275,-1.88026 3.11845,-2.16799 4.08622,-2.31537c0.83997,-0.12792 1.52747,-0.22601 1.52747,-0.22601c0,0 -0.4459,1.70025 -0.70176,3.67111c-0.69515,5.35462 -2.44197,15.16117 -8.68285,16.94428c-8.53794,2.43941 -17.75128,1.54591 -23.46154,-1.61538z" fill="#ffffff"/><path d="M203.88397,29.04136c0,0 1.31242,-0.05163 2.37553,0.40573c2.30394,0.99117 4.79057,3.04132 8.08588,2.98704c4.47932,-0.07378 5.85739,-2.10731 8.02312,-3.03117c1.00799,-0.42999 1.82316,-0.05391 1.82316,-0.05391c0,0 -1.73353,5.46846 -10.38462,5.53846c-5.87761,0.04756 -9.92308,-5.84615 -9.92308,-5.84615z" fill="#ffffff"/><path d="M194.42242,20.34905c0,0 8.39411,-5.46815 12.02858,-6.1725c2.69722,-0.52272 8.50988,2.86481 8.50988,2.86481c0,0 4.74951,-3.38142 7.52117,-2.62863c3.34916,0.90965 10.47883,7.16709 10.47883,7.16709c0,0 -3.61434,0.24066 -7.63428,-0.68739c-3.91829,-0.90459 -7.27964,-3.20791 -10.44031,-3.30885c-2.93081,-0.0936 -8.16204,2.11481 -11.98788,2.70527c-4.58423,0.7075 -8.47599,0.06021 -8.47599,0.06021z" fill="#ffffff"/><path d="M205.26857,22.11828c0,0 5.82614,-1.50734 9.61538,-1.38462c3.78925,0.12273 9.38462,2 9.38462,2c0,0 -6.35061,0.09951 -9.53585,-0.00365c-3.14765,-0.10195 -9.46415,-0.61173 -9.46415,-0.61173z" fill="#ffffff"/></g></g></g></svg>