<svg version="1.1" xmlns="http://www.w3.org/2000/svg" xmlns:xlink="http://www.w3.org/1999/xlink" width="118.96454" height="220.31955" viewBox="0,0,118.96454,220.31955"><g transform="translate(-254.00712,-81.46874)"><g stroke-miterlimit="10"><path d="M327.28625,154.1342l34.0192,13.14378l10.82428,133.37075l-103.99052,0.38658l8.50479,-134.65936l31.31312,-11.98404z" fill="#c2b851" stroke="#121212" stroke-width="1.5" stroke-linecap="round"/><g fill="#000000" stroke="none" stroke-width="0" stroke-linecap="butt"><path d="M313.51752,174.39178l-5.49672,-8.48556l5.49672,-8.70885h10.0773l5.86317,8.70885l-5.86317,8.48556z"/><path d="M312.48688,218.15936l-4.46608,-8.37215l4.46608,-40.08482h12.05841l4.24278,39.57741l-4.24278,8.87954z"/></g><path d="M334.84048,157.1248l26.24771,10.14117c0,0 0.89558,11.03485 1.67926,20.69104c1.82883,22.53395 9.14502,112.67971 9.14502,112.67971l-103.99052,0.38657l8.50479,-134.65936l24.77674,-9.48246c0,0 2.00453,19.68355 6.02893,31.99557c4.02441,12.31202 11.72886,22.33147 11.72886,22.33147c0,0 8.56656,-13.27234 11.19328,-22.2188c2.62672,-8.94647 4.68593,-31.86491 4.68593,-31.86491z" fill="#333333" stroke="#121212" stroke-width="1.5" stroke-linecap="round"/><path d="M296.73653,183.90101l-5.41216,117.13431" fill="none" stroke="#121212" stroke-width="1.5" stroke-linecap="round"/><path d="M342.49906,183.4719l5.41213,117.13429" fill="none" stroke="#121212" stroke-width="1.5" stroke-linecap="round"/><path d="M318.9627,210.56702l1.33982,89.76819" fill="none" stroke="#121212" stroke-width="1.75" stroke-linecap="round"/><path d="M267.02833,301.78056l4.52873,-71.50334c0,0 7.97565,1.9667 11.44313,1.83562c3.51873,-0.133 10.63428,-2.85122 10.63428,-2.85122c0,0 21.28216,-0.71587 29.28699,-3.31961c8.94235,-2.90867 21.86671,-13.31915 21.86671,-13.31915c0,0 6.4602,1.44065 9.78421,1.34945c3.10225,-0.08512 11.10368,-1.8797 11.10368,-1.8797l7.2956,89.24133z" fill-opacity="0.50196" fill="#000000" stroke="none" stroke-width="1.5" stroke-linecap="butt"/><path d="" fill="#d8d8d8" stroke="#8d8d8d" stroke-width="1.5" stroke-linecap="butt"/><path d="M348.43744,133.66836c3.53405,25.73348 -13.7428,49.36072 -38.58894,52.77291c-24.84615,3.41219 -47.85281,-14.6828 -51.38686,-40.41629c-3.53405,-25.73348 13.74279,-49.36072 38.58894,-52.77291c24.84615,-3.41219 47.85281,14.68283 51.38686,40.41631z" fill="#000000" stroke="#fff477" stroke-width="1.5" stroke-linecap="butt"/><path d="M339.38064,164.02753c0,0 -6.48146,-8.33844 -15.21483,-16.4475c-5.33439,-4.95304 -13.19752,-9.49741 -16.01103,-12.94631c-5.11617,-6.27166 -9.01,-19.92935 -9.01,-19.92935c0,0 8.25971,10.70914 13.68177,17.35579c1.41761,1.73778 12.62841,7.50394 14.69745,10.00547c8.69924,10.51748 11.8566,21.96191 11.8566,21.96191z" fill="#ded468" stroke="#ded468" stroke-width="1.5" stroke-linecap="round"/><path d="M291.23488,88.1961c3.63625,-0.47197 7.65702,-0.70891 10.94616,-2.22524c0.59534,-0.78485 1.30848,-0.79859 2.00878,-1.37464c1.45082,-1.19341 5.44951,-4.86589 7.55201,-2.14701c2.26584,2.9301 -4.33488,3.73513 -5.81681,4.00641c0.10307,0.75047 1.49458,-0.30997 2.25205,-0.30439c0.62382,0.0046 2.61652,0.28577 3.10716,0.51545c3.41982,1.60092 8.35114,0.98168 11.4574,3.37534c3.06725,1.01779 7.75275,2.24065 9.92016,4.87964c0.07302,0.08892 0.53662,0.5402 1.01325,1.03855c-0.04066,-0.12903 -0.07927,-0.26014 -0.1157,-0.39068l-0.1449,0.05811l-0.41196,-1.02706c-0.02362,-0.05535 -0.04032,-0.11471 -0.04891,-0.17722c-0.0518,-0.37723 0.21201,-0.72505 0.58926,-0.77687c0.14354,-0.01972 0.28281,0.00627 0.40315,0.0668l0.87441,0.42401l-0.02016,0.04162l0.13601,0.02943c1.31933,1.52216 3.39023,2.80721 5.05826,4.10137c0.61653,1.24992 1.25188,1.91191 1.6575,3.34956c0.34669,1.22876 0.0839,2.64287 0.95987,3.70777c2.21133,2.68831 4.5659,5.32429 6.19848,8.63417c2.08617,4.22943 4.50314,5.76696 3.38915,10.97445l0.27857,0.06935l-0.32929,1.32249c-0.06123,0.27272 -0.28593,0.49181 -0.57911,0.53206c-0.30727,0.0422 -0.59502,-0.12499 -0.71919,-0.39233l-0.37364,-0.75753l0.03513,-0.01733l-0.07598,-0.08567c-0.09869,-0.71861 -0.73334,-1.38789 -1.28541,-1.93407c0.29065,1.10703 0.69585,2.19691 0.66213,3.39317c-0.08521,3.02435 -0.50178,6.06266 -0.74519,9.10949c-0.70314,0.89214 -2.36892,2.03661 -3.53525,0.83874c-0.72839,-0.74809 -0.14937,-1.40005 -0.14253,-2.147c0.01643,-1.79294 -0.74425,-3.59499 -0.74053,-5.3922c0.00028,-0.13699 0.32359,-1.89609 0.07254,-2.03538c-0.50115,-0.27799 -1.14588,0.71515 -1.65744,0.45682c-0.33441,-0.16887 -0.78052,-0.93506 -1.13845,-1.69884c-0.03766,0.86587 -0.40549,1.51812 -1.78978,1.35529c-1.43674,-0.16902 -3.83355,-2.68091 -5.39555,-2.24191c-0.5474,0.15385 -0.51423,1.05331 -0.95326,1.41468c-1.0958,0.90194 -2.30593,2.25533 -3.51807,2.99983c-1.05881,0.65033 -2.37982,0.58007 -3.10128,1.53121c-0.94902,0.16806 -3.41662,1.01251 -4.18941,-0.03108c-0.38913,-0.52553 0.27282,-3.55564 0.46116,-4.11067c0.15629,-0.4605 0.93728,-1.66049 0.56829,-1.34374c-1.66447,1.42898 -4.77355,2.23743 -6.96349,1.65655c-0.37179,-0.09865 -0.80686,-0.14891 -1.18235,-0.23493c0.31779,0.83502 0.90265,1.39999 1.22083,2.46585c-1.74635,0.62103 -4.13786,1.19937 -6.01798,1.10649c-0.99949,-0.04937 -1.37466,-0.26693 -2.10946,-0.95784c-0.10997,-0.10342 -0.14861,-0.53724 -0.21196,-0.40021c-0.54658,1.18207 -2.66808,5.31601 -4.59877,5.60958c-2.25137,0.34235 -1.17065,-2.18476 -1.28017,-3.66652c-0.34495,0.3407 -0.80255,0.71911 -1.0674,0.90065c-1.19663,0.82026 -2.26504,2.03987 -3.69772,2.49246c-3.443,1.08768 -7.4252,2.48861 -11.12744,3.10631l0.03444,0.11068l-1.30428,0.4058c-0.0395,0.01304 -0.08074,0.02271 -0.12342,0.02857c-0.37724,0.05181 -0.72507,-0.21201 -0.77689,-0.58925c-0.02591,-0.18862 0.0271,-0.36988 0.13374,-0.51048l0.4429,-0.58391c0.76482,-1.38118 1.44864,-2.61305 2.03069,-3.93888c-0.40625,0.44126 -0.7845,0.822 -0.9681,0.98188c-0.47108,0.41028 -1.39265,0.18764 -1.73406,0.71077c-0.36592,0.56068 -0.52759,1.33716 -1.1038,1.67811c-1.32262,0.78262 -2.39627,0.82677 -3.11441,2.27432c-1.54727,0.67109 -1.48563,1.42113 -2.78077,2.35171c-2.8899,2.07649 -7.38172,2.91077 -10.72346,3.74695c-1.4026,0.35095 -3.1466,0.09769 -4.49579,0.60218c-1.06494,0.39821 -1.5326,1.04135 -2.73946,1.21892c-1.36939,0.18807 -2.1303,0.58492 -2.98832,-0.90797c-0.66651,-1.15967 -0.22969,-3.13159 -0.62506,-4.39946c-1.12101,-3.59479 -2.69644,-1.87575 -1.92307,-6.00215c-0.30713,-3.3445 2.48122,-7.41183 3.55224,-10.56447c0.93306,-2.74651 0.73229,-5.65459 1.25807,-8.60931c0.31741,-1.63559 1.40942,-2.5704 1.99244,-3.99048c1.81701,-4.4257 5.20575,-7.66186 8.25787,-11.52392c1.11304,-0.549 1.22809,-1.55978 2.18803,-2.23696c1.97706,-1.39467 3.58358,-3.79926 5.55085,-5.41852c1.1821,-0.97298 2.44241,-1.08607 3.64395,-1.9071c0.42867,-0.29291 1.99364,-0.35341 1.13063,-0.41147c-1.0675,-0.5475 -4.46887,-4.53818 -0.82947,-4.01341c0.39013,0.05625 1.49195,1.20167 2.04458,1.33801c2.62404,0.64733 5.50318,0.21661 8.23283,0.46637z" fill="#8f8100" stroke="none" stroke-width="1.5" stroke-linecap="butt"/><path d="M301.6443,146.69633c0.51626,3.7592 0.00476,7.36899 -1.2824,10.41247c-1.92484,4.55131 -18.50887,6.83456 -21.50366,3.7064c-2.59077,-2.70613 -4.11663,-5.99107 -4.71418,-10.34219c-0.25672,-1.86927 -0.25931,-3.70159 -0.03876,-5.44571c0.67874,-5.36775 16.5424,-8.27199 23.97003,-5.67259c2.27052,0.7946 3.475,6.65742 3.56896,7.34162z" fill="#fff477" stroke="none" stroke-width="1.5" stroke-linecap="butt"/><path d="M311.12256,137.68043c6.45189,-4.50549 22.51118,-5.98533 24.61184,-0.99928c0.68254,1.62008 1.17401,3.38528 1.43072,5.25454c0.59755,4.35112 0.01373,7.92579 -1.75159,11.23015c-2.04063,3.81969 -18.6262,6.0917 -21.70673,2.2278c-2.05998,-2.58382 -3.52567,-5.92206 -4.04193,-9.68126c-0.09396,-0.68423 -0.51457,-6.65467 1.45769,-8.03194z" fill="#fff477" stroke="none" stroke-width="1.5" stroke-linecap="butt"/><g fill-opacity="0.75686" fill="#ffffff" stroke="none" stroke-width="0" stroke-linecap="butt"><path d="M282.0905,150.73069c0.71862,5.23265 0.01196,9.65162 -1.57837,9.87003c-1.59032,0.2184 -3.46207,-3.84646 -4.18069,-9.07912c-0.71862,-5.23265 -0.01196,-9.65162 1.57836,-9.87002c1.59032,-0.2184 3.46208,3.84645 4.1807,9.07912z"/><path d="M286.17241,146.23333c0.40862,2.97542 0.00679,5.48817 -0.8975,5.61236c-0.90429,0.12419 -1.96863,-2.1872 -2.37726,-5.16263c-0.40862,-2.97542 -0.00679,-5.48818 0.8975,-5.61237c0.90429,-0.12419 1.96863,2.1872 2.37726,5.16264z"/></g><g fill-opacity="0.75686" fill="#ffffff" stroke="none" stroke-width="0" stroke-linecap="butt"><path d="M318.03876,146.21047c0.71862,5.23265 0.01196,9.65162 -1.57836,9.87002c-1.59032,0.2184 -3.46208,-3.84645 -4.1807,-9.07912c-0.71862,-5.23265 -0.01196,-9.65162 1.57837,-9.87003c1.59032,-0.2184 3.46207,3.84647 4.18069,9.07912z"/><path d="M322.12069,141.71312c0.40862,2.97542 0.00679,5.48817 -0.8975,5.61236c-0.90429,0.12419 -1.96863,-2.1872 -2.37726,-5.16263c-0.40862,-2.97542 -0.00679,-5.48818 0.8975,-5.61237c0.90429,-0.12419 1.96863,2.1872 2.37726,5.16264z"/></g><path d="M327.63752,168.23137c0.76844,2.54527 -7.62412,3.91255 -17.95131,5.68393c-10.32716,1.77138 -18.6568,3.34715 -19.42525,0.80188c-0.76844,-2.54527 7.00189,-5.97355 17.32906,-7.74493c10.32716,-1.77138 19.27903,-1.28616 20.04747,1.25912z" fill="#000000" stroke="#fff477" stroke-width="1.5" stroke-linecap="butt"/><path d="M319.87737,166.49139l-1.56201,4.49244l-3.37688,-3.76443" fill="none" stroke="#fff477" stroke-width="1.5" stroke-linecap="round"/></g></g></svg>