<svg version="1.1" xmlns="http://www.w3.org/2000/svg" xmlns:xlink="http://www.w3.org/1999/xlink" width="99.18802" height="231.91063" viewBox="0,0,99.18802,231.91063"><g transform="translate(-189.59406,-74.66241)"><g data-paper-data="{&quot;isPaintingLayer&quot;:true}" fill-rule="nonzero" stroke-linejoin="miter" stroke-miterlimit="10" stroke-dasharray="" stroke-dashoffset="0" style="mix-blend-mode: normal"><g stroke-linecap="butt"><path d="M194.2625,305.46477c0,0 -0.63536,-94.38387 -0.79335,-118.01201c-0.05451,-8.15261 8.18688,-36.76129 40.20201,-36.9211c31.60235,-0.15775 39.85672,29.48704 39.84884,36.89673c-0.07659,46.24274 0.65429,117.98648 0.65429,117.98648l-10.49667,0.09614l-0.15882,-114.84311c0,0 0.07549,-3.0993 -2.81625,-3.15415c-3.43441,-0.06514 -2.94538,3.11562 -2.94538,3.11562l0.20548,114.86995l-48.21366,0.07222l-0.30539,-115.23309c0,0 0.27949,-2.919 -2.8856,-2.93443c-3.11083,-0.01515 -2.81569,2.90899 -2.81569,2.90899l0.35311,115.0668z" fill="#000000" stroke="#000000" stroke-width="2"/><path d="M248.85964,201.40698c-0.57113,0 -1.03411,-0.46299 -1.03411,-1.03411c0,-0.57113 0.46299,-1.03413 1.03411,-1.03413c0.57113,0 1.03411,0.463 1.03411,1.03413c0,0.57113 -0.46299,1.03411 -1.03411,1.03411z" fill="#000000" stroke="none" stroke-width="1.5"/><path d="M243.59979,205.64258c-4.4635,-0.31439 -6.55245,-1.79392 -6.16985,-2.58011c0.11788,-0.24224 2.84645,1.06355 6.97038,1.3048c6.40897,0.37493 8.51033,-0.63173 8.51033,-0.63173v1.34616c0,0 -2.4135,1.04672 -9.31086,0.56089z" fill="#000000" stroke="#000000" stroke-width="0"/><path d="M215.78703,200.37287c0,-0.57113 0.46299,-1.03413 1.03411,-1.03413c0.57113,0 1.03413,0.463 1.03413,1.03413c0,0.57113 -0.463,1.03411 -1.03413,1.03411c-0.57113,0 -1.03411,-0.46299 -1.03411,-1.03411z" fill="#000000" stroke="none" stroke-width="1.5"/><path d="M222.08103,205.64258c-6.89736,0.48585 -9.31086,-0.56089 -9.31086,-0.56089v-1.34616c0,0 2.10136,1.00666 8.51033,0.63173c4.12393,-0.24126 6.85251,-1.54704 6.97039,-1.3048c0.3826,0.78618 -1.70634,2.26571 -6.16985,2.58011z" fill="#000000" stroke="#000000" stroke-width="0"/><path d="M233.36149,262.19428c-0.81895,0 -1.48284,-0.66389 -1.48284,-1.48284c0,-0.81895 0.66389,-1.48284 1.48284,-1.48284c0.81895,0 1.48284,0.66389 1.48284,1.48284c0,0.81895 -0.66389,1.48284 -1.48284,1.48284z" data-paper-data="{&quot;index&quot;:null}" fill="#000000" stroke="none" stroke-width="1.5"/><path d="M194.47245,168.23455l7.5,-7.5l65.25,0.25l4.25,8.75c0,0 -2.46179,8.86137 -4.38755,12.68266c-1.85496,3.68079 -7.96258,6.83939 -7.96258,6.83939l-0.20719,117.24538l-49.4232,-0.01705l-1.13963,-116.01882c0,0 -8.61885,-5.65009 -10.47752,-10.04597c-1.76287,-4.16931 -3.40232,-12.18559 -3.40232,-12.18559z" fill="#a70000" stroke="none" stroke-width="0"/><path d="M265.46713,158.57316c0,13.53098 -33.25,24.5 -33.25,24.5c0,0 -33.25,-10.96902 -33.25,-24.5c0,-13.53098 14.88653,-24.5 33.25,-24.5c18.36347,0 33.25,10.96902 33.25,24.5z" fill="#010a09" stroke="#6a0000" stroke-width="2.5"/></g><path d="M273.46562,135.52866c0,21.88899 -18.49306,39.63351 -41.3054,39.63351c-22.81234,0 -41.3054,-17.74452 -41.3054,-39.63351c0,-21.88899 18.49306,-39.63351 41.3054,-39.63351c22.81234,0 41.3054,17.74452 41.3054,39.63351z" fill="#ffffff" stroke="#000000" stroke-width="1.5" stroke-linecap="butt"/><path d="M202.10156,161.43469l64.85253,-2.09788" fill="none" stroke="#000000" stroke-width="1.5" stroke-linecap="round"/><path d="M261.39856,119.61613l1.16353,29.47615" fill="none" stroke="#000000" stroke-width="1.5" stroke-linecap="round"/><path d="M202.29523,119.84402l0.38784,27.53693" fill="none" stroke="#000000" stroke-width="1.5" stroke-linecap="round"/><g data-paper-data="{&quot;index&quot;:null}"><path d="M283.21569,154.76777c-1.8952,0.84121 -6.75134,1.93133 -6.75134,1.93133l-6.19756,-22.77478l9.61458,0.59187c0,0 6.4039,10.38995 7.82648,13.46054c0.73293,1.582 0.11495,3.68076 0.11495,3.68076c0,0 -2.71617,2.27095 -4.60711,3.11027z" fill="#6a0000" stroke="#6a0000" stroke-width="2" stroke-linecap="butt"/><path d="M197.8682,118.68896l3.55775,-13.01299l46.61938,12.74573l-3.55775,13.01299z" fill="#000000" stroke="none" stroke-width="0" stroke-linecap="butt"/><path d="M280.5384,135.08383c0,0 -17.16573,-1.47185 -25.31451,-2.67646c-6.9753,-1.03114 -20.60735,-4.11208 -20.60735,-4.11208c0,0 7.52772,-21.54528 -12.28595,-25.91683c-21.0069,-4.63481 -20.51572,19.12477 -20.51572,19.12477l-12.22081,-2.42371l8.03155,-30.49402c0,0 13.01559,-20.56487 44.97269,-11.7083c10.80748,2.99518 19.3174,5.1454 24.77054,9.30872c11.90371,9.08813 12.3602,20.56947 12.3602,20.56947l0.80936,28.32843z" fill="#a70000" stroke="none" stroke-width="0" stroke-linecap="butt"/><path d="M233.00745,124.07045l-28.25902,-6.28941" fill="none" stroke="#6a0000" stroke-width="6" stroke-linecap="round"/><path d="M233.37978,128.40403l0.43271,-9.96361l2.09418,-0.95502c0,0 1.06293,5.39278 0.83712,7.35303c-0.17024,1.47774 -2.07298,3.37542 -2.07298,3.37542z" fill="#000000" stroke="none" stroke-width="0" stroke-linecap="butt"/></g></g></g></svg>