<svg version="1.1" xmlns="http://www.w3.org/2000/svg" xmlns:xlink="http://www.w3.org/1999/xlink" width="35.12501" height="35.12434" viewBox="0,0,35.12501,35.12434"><g transform="translate(-222.4375,-162.43783)"><g data-paper-data="{&quot;isPaintingLayer&quot;:true}" stroke-miterlimit="10" stroke-dasharray="" stroke-dashoffset="0" style="mix-blend-mode: normal"><path d="M257.56251,169.8317v20.49804c0,4.00745 -3.22497,7.23243 -7.23242,7.23243h-20.5c-3.66107,0 -6.66147,-2.69385 -7.1543,-6.21484c0.7952,3.03475 3.54108,5.26367 6.83204,5.26367h20.0332c3.9166,0 7.07032,-3.15372 7.07032,-7.07031v-20.03321c0,-3.2976 -2.23906,-6.0451 -5.28321,-6.83398c3.52994,0.48496 6.23438,3.49081 6.23438,7.15821z" fill-opacity="0.29839" fill="#000000" fill-rule="evenodd" stroke="none" stroke-width="4.54219" stroke-linecap="round" stroke-linejoin="round"/><path d="M229.50718,162.43783h20.03378c3.9166,0 7.06966,3.15307 7.06966,7.06966v20.03379c0,3.91659 -3.15307,7.06966 -7.06966,7.06966h-20.03378c-3.91659,0 -7.06967,-3.15307 -7.06967,-7.06966v-20.03379c0,-3.91659 3.15308,-7.06966 7.06967,-7.06966z" fill-opacity="0.35" fill="#4d4d4d" fill-rule="evenodd" stroke="none" stroke-width="4.43922" stroke-linecap="round" stroke-linejoin="round"/><g fill-rule="nonzero" stroke-width="0" stroke-linejoin="miter"><path d="M224.79444,170.53949l2.88207,-4.36915c0,0 9.00865,5.90533 14.70524,10.10898c6.04903,4.46373 13.92047,11.01464 13.92047,11.01464l-3.32497,4.04232c0,0 -8.65757,-7.43813 -13.5998,-11.08512c-4.92639,-3.6353 -14.58301,-9.71167 -14.58301,-9.71167z" fill="#000000" stroke="none" stroke-linecap="butt"/><path d="M234.21025,171.03582c3.20522,2.58408 6.37557,6.65602 4.32024,9.21524c-2.05533,2.55922 -6.916,3.96493 -11.76325,0.05254c-3.20378,-2.58588 -3.98835,-7.11004 -1.93302,-9.66926c2.05533,-2.55922 6.17082,-2.1826 9.37604,0.40148z" fill="#000000" stroke="#9966ff" stroke-linecap="butt"/><path d="M252.83096,191.3992c-1.83932,2.71862 -6.39366,3.30306 -9.80931,1.0043c-5.16782,-3.47798 -5.25798,-8.53702 -3.41866,-11.25565c1.83932,-2.71862 6.66509,-0.89002 10.07945,1.41065c3.41436,2.30067 4.98785,6.12208 3.14852,8.8407z" data-paper-data="{&quot;index&quot;:null}" fill="#000000" stroke="#9966ff" stroke-linecap="butt"/><path d="M234.02538,181.58343c-3.88039,0.6016 -6.67284,-2.49486 -6.67284,-2.49486c0,0 3.61725,1.13264 6.47199,0.42301c3.45118,-0.85789 5.56252,-2.28742 5.56252,-2.28742c0,0 -1.84322,3.81379 -5.36167,4.35927z" fill="#e6e6e6" stroke="#ffffff" stroke-linecap="round"/><path d="M248.50823,192.58441c-3.88039,0.6016 -6.43584,-2.71212 -6.43584,-2.71212c0,0 3.10766,0.9919 6.14787,0.65442c3.61324,-0.97359 5.64964,-2.30157 5.64964,-2.30157c0,0 -1.84322,3.81379 -5.36167,4.35927z" fill="#e6e6e6" stroke="#ffffff" stroke-linecap="round"/></g></g></g></svg>