<svg version="1.1" xmlns="http://www.w3.org/2000/svg" xmlns:xlink="http://www.w3.org/1999/xlink" width="96.94951" height="253.22501" viewBox="0,0,96.94951,253.22501"><g transform="translate(-183.98607,-53.3875)"><g data-paper-data="{&quot;isPaintingLayer&quot;:true}" fill-rule="nonzero" stroke-linejoin="miter" stroke-miterlimit="10" stroke-dasharray="" stroke-dashoffset="0" style="mix-blend-mode: normal"><path d="M189.75355,306.61251v-253.22501h91.18203v253.22501z" fill-opacity="0.01" fill="#000000" stroke="none" stroke-width="0" stroke-linecap="butt"/><path d="M192.37548,304.8916c0,0 0.18282,-94.88387 0.02483,-118.51201c-0.05451,-8.15261 8.37851,-38.56088 41.99367,-38.914c33.41367,-0.351 42.00823,31.47993 42.00035,38.88963c-0.07659,46.24274 0.09369,118.48648 0.09369,118.48648l-13.3733,0.09614l0.05547,-115.34311c0,0 -0.61301,-1.61748 -1.67443,-1.62419c-1.13177,-0.00716 -1.66339,1.58567 -1.66339,1.58567l0.07215,115.36995l-50.6827,0.07222l-0.18039,-115.73309c0,0 -0.59593,-1.45279 -1.68917,-1.45824c-0.87895,-0.00438 -1.51211,1.43279 -1.51211,1.43279l0.0122,115.5668z" data-paper-data="{&quot;index&quot;:null}" fill="#362975" stroke="#000000" stroke-width="0" stroke-linecap="butt"/><path d="M192.37548,304.88246c0,0 0.18282,-75.65131 0.02483,-101.30286c-0.00001,-0.00168 2.31474,5.90839 5.5453,9.78665c3.48007,4.1778 7.89454,6.34617 7.89454,6.34617l0.0122,85.07781z" fill-opacity="0.10196" fill="#000000" stroke="#000000" stroke-width="0" stroke-linecap="butt"/><path d="M263.01115,304.79024l0.0122,-85.07781c0,0 4.41447,-2.16837 7.89454,-6.34617c3.23056,-3.87826 5.54531,-9.78833 5.5453,-9.78665c-0.15799,25.65156 0.02483,101.30287 0.02483,101.30287z" data-paper-data="{&quot;index&quot;:null}" fill-opacity="0.10196" fill="#000000" stroke="#000000" stroke-width="0" stroke-linecap="butt"/><path d="M192.37548,304.88246c0,0 0.18282,-46.77339 0.02483,-72.42495c-0.00001,-0.00184 1.34081,4.64315 4.87532,7.80145c3.16498,2.8281 8.56453,4.20596 8.56453,4.20596l0.0122,60.32531z" fill-opacity="0.10196" fill="#000000" stroke="#000000" stroke-width="0" stroke-linecap="butt"/><path d="M263.01115,304.79024l0.0122,-60.32531c0,0 5.39954,-1.37786 8.56453,-4.20596c3.5345,-3.1583 4.87532,-7.80328 4.87532,-7.80145c-0.15799,25.65156 0.02483,72.42495 0.02483,72.42495z" data-paper-data="{&quot;index&quot;:null}" fill-opacity="0.10196" fill="#000000" stroke="#000000" stroke-width="0" stroke-linecap="butt"/><path d="M192.37548,304.88246c0,0 0.18282,-22.88941 0.02483,-48.54096c-0.00002,-0.00349 1.94598,4.47012 5.1938,6.84789c3.46507,2.53682 8.24604,2.98824 8.24604,2.98824l0.0122,38.6126z" fill-opacity="0.10196" fill="#000000" stroke="#000000" stroke-width="0" stroke-linecap="butt"/><path d="M263.01115,304.79024l0.0122,-38.61259c0,0 4.78096,-0.45142 8.24604,-2.98824c3.24782,-2.37777 5.19383,-6.85138 5.1938,-6.84789c-0.15799,25.65155 0.02483,48.54096 0.02483,48.54096z" data-paper-data="{&quot;index&quot;:null}" fill-opacity="0.10196" fill="#000000" stroke="#000000" stroke-width="0" stroke-linecap="butt"/><path d="M234.22732,238.82951c11.07568,-0.27523 19.4178,-7.49444 25.62945,-16.80489l0.04775,82.8954l-50.6827,0.0784l-0.12134,-84.51765c6.33225,10.3945 14.62118,18.6098 25.12684,18.34874z" fill-opacity="0.10196" fill="#000000" stroke="#000000" stroke-width="0" stroke-linecap="butt"/><path d="M234.97732,259.18519c10.92348,-0.00495 18.96876,-5.1859 24.89352,-12.75364l0.03369,58.48848l-50.6827,0.0784l-0.08576,-59.73266c6.1148,8.20471 14.45842,13.92457 25.84126,13.91942z" fill-opacity="0.10196" fill="#000000" stroke="#000000" stroke-width="0" stroke-linecap="butt"/><path d="M234.72732,284.15477c11.05972,-0.00501 19.18583,-6.54065 25.15598,-16.07637l0.02123,36.84158l-50.6827,0.0784l-0.05397,-37.59244c6.06699,9.9076 14.32394,16.75391 25.55947,16.74883z" fill-opacity="0.10196" fill="#000000" stroke="#000000" stroke-width="0" stroke-linecap="butt"/><path d="M276.39498,203.62174c0.00134,-0.27608 0.00381,-0.26572 0,0z" fill-opacity="0.10196" fill="#000000" stroke="#000000" stroke-width="0" stroke-linecap="butt"/><path d="M276.39546,197.30627c0.00225,-0.31639 0.00643,-0.30223 0,0z" fill-opacity="0.10196" fill="#000000" stroke="#000000" stroke-width="0" stroke-linecap="butt"/><path d="M234.23271,239.85123l-13.26606,-65.14738l13.82133,-16.20365l13.23026,16.24152z" fill="#e6e6e6" stroke="#000000" stroke-width="0" stroke-linecap="butt"/><path d="M229.1216,240.18456l1.33333,-55.11111l2.95276,-11.06444l2.04515,-0.0335l2.89098,11.09794l0.88889,55.22222l-5.12228,12.71905z" fill="#ff0000" stroke="#000000" stroke-width="0" stroke-linecap="butt"/><path d="M229.1216,240.18456c0,0 1.02471,-42.35512 1.21655,-50.28447c0.00155,-0.06393 -0.23296,4.46412 3.82958,4.38118c4.14372,-0.0846 4.25225,-4.47584 4.25371,-4.38534c0.12778,7.93797 0.81127,50.39973 0.81127,50.39973l-5.12228,12.71905z" fill-opacity="0.10196" fill="#000000" stroke="#000000" stroke-width="0" stroke-linecap="butt"/><path d="M229.1216,240.18456c0,0 0.63218,-25.08256 0.87946,-35.30376c0.00078,-0.03218 -0.28488,5.12699 4.0017,5.04476c4.97922,-0.09553 4.59408,-5.11578 4.59517,-5.04784c0.15519,9.64124 0.63478,35.41796 0.63478,35.41796l-5.12228,12.71905z" fill-opacity="0.10196" fill="#000000" stroke="#000000" stroke-width="0" stroke-linecap="butt"/><path d="M229.1216,240.18456c0,0 0.24178,-9.99375 0.4382,-18.11244c0.00227,-0.09378 0.22579,5.72882 4.43555,5.67893c4.31761,-0.05116 4.94749,-5.46323 4.94927,-5.35281c0.12915,8.02337 0.28809,17.89742 0.28809,17.89742l-5.12228,12.71905z" fill-opacity="0.10196" fill="#000000" stroke="#000000" stroke-width="0" stroke-linecap="butt"/><path d="M234.78826,159.0734l7.88889,9.22222l-8.33333,8.33333l-8.06788,-8.26709z" fill="#ff0000" stroke="#000000" stroke-width="0" stroke-linecap="butt"/><path d="M234.67715,158.29566l-13.70609,16.42987c0,0 -2.00437,-9.86605 -2.18279,-10.7632c-1.05317,-5.29559 -5.1321,-16.44524 16.11111,-16c19.3212,0.40496 17.19618,5.26687 15.12443,16.8034c-0.27325,1.52158 -2.00556,9.97598 -2.00556,9.97598z" fill="#e6e6e6" stroke="#000000" stroke-width="0" stroke-linecap="butt"/><path d="M221.1216,176.85123l-0.33333,-2.55556l14.13637,-16.83473l13.14979,17.30128l-0.61339,2.74884l-12.56166,-18.2154z" fill="#000000" stroke="none" stroke-width="0" stroke-linecap="butt"/><path d="M186.72081,105.29124c0,0 5.96738,-6.11923 6.06747,-6.98869c0.2625,-2.28038 -1.47454,-40.14645 34.59628,-42.72188c44.58298,-2.3652 40.14417,34.06082 42.88139,40.81693c3.75315,9.26365 6.71943,17.19067 6.71943,17.19067c0,0 -2.83249,-1.9624 -4.17949,-2.99959c-1.25633,-0.96737 -3.90176,-3.02052 -3.90176,-3.02052c0,0 3.42611,10.24207 1.98345,20.64138c-1.25305,9.52679 -6.7336,17.45372 -6.7336,17.45372l-1.23097,-2.30853c0,0 -0.95062,2.23004 -2.05049,3.40124c-1.09988,1.17119 -3.34216,3.02305 -3.34216,3.02305l-0.2125,-3.69925c0,0 -6.69794,11.24179 -23.98411,11.65794c-16.30593,0.27512 -26.40499,-9.82142 -26.40499,-9.82142l-0.02977,2.65721c0,0 -3.99983,-3.16432 -6.49397,-9.50131c-2.97273,-7.55296 -3.63603,-12.13138 -3.63603,-12.13138c0,0 -2.27606,1.97425 -5.62376,2.95891c-4.19486,1.23385 -6.93174,0.57106 -6.93174,0.57106c0,0 3.51765,-2.8331 5.42584,-4.94902c1.69966,-1.88469 2.53531,-3.46153 2.53531,-3.46153c0,0 -2.07118,1.15269 -4.1779,1.75479c-2.19812,0.62824 -4.01068,0.66175 -4.01068,0.66175c0,0 4.80842,-5.19645 6.67327,-11.09725c1.76071,-5.57131 1.74216,-11.01982 1.74216,-11.01982c0,0 -1.33941,0.70558 -3.3025,0.90304c-1.24435,0.12518 -2.37818,0.02848 -2.37818,0.02848z" fill="#000000" stroke="none" stroke-width="1.5" stroke-linecap="butt"/><path d="M203.86612,116.0608c-0.81404,-7.2706 -0.22323,-17.1563 -0.22323,-17.1563c0,0 3.40744,-0.15217 13.80464,-3.59522c7.98778,-2.64519 20.22781,-10.15062 20.22781,-10.15062c0,0 -2.06115,3.07371 -3.26091,4.56865c-1.27548,1.58929 -3.84237,4.69045 -3.84237,4.69045c0,0 7.7796,-1.92171 14.51314,-5.20419c8.44881,-3.81262 10.39,-6.39447 12.79416,-5.01156c2.8375,1.63218 1.78367,23.13692 1.65304,28.70204c-0.23698,5.67994 -2.22289,9.57707 -2.74134,12.61639c-0.51844,3.03931 -0.20975,6.1467 -1.68326,16.10298c-0.91957,6.21341 -3.8693,9.05532 -9.53719,14.97899c-5.66789,5.92368 -8.74799,9.54238 -12.70346,9.74014c-3.80659,0.19032 -9.09684,-4.80682 -14.2658,-9.92361c-5.50409,-5.44857 -9.14596,-8.18393 -10.20288,-14.81568c-0.95187,-5.97259 -1.09845,-9.87802 -1.61811,-15.20376c-0.37981,-3.89243 -2.46966,-6.36807 -2.91423,-10.33868z" fill="#4dffdd" stroke="#000000" stroke-width="1.5" stroke-linecap="butt"/><g stroke="none" stroke-width="0" stroke-linecap="butt"><path d="M229.91011,161.78804c-18.25518,-0.97804 -20.98186,-14.936 -20.98186,-14.936c0,0 5.03127,-9.43297 11.76361,-9.32064c3.77154,0.06294 11.84993,4.04256 11.84993,4.04256c0,0 5.94622,-1.89599 8.71275,-0.97564c3.63531,1.20935 12.07997,7.90581 12.07997,7.90581c0,0 -4.45421,14.30027 -23.42439,13.28392z" fill="#000000"/><path d="M211.6788,148.34417c0,0 3.37035,0.52477 7.66989,1.30328c3.97754,0.72022 8.77053,1.69495 11.94364,1.78134c3.36123,0.0915 7.27658,-0.92398 11.40166,-1.49464c3.5313,-0.48851 7.96704,-0.5522 7.96704,-0.5522c0,0 -3.54659,9.71263 -19.85345,9.60895c-12.96336,-0.08241 -19.12878,-10.64675 -19.12878,-10.64675z" fill="#4dffdd"/><path d="M211.67821,146.30123c0,0 2.47964,-5.70002 8.14868,-6.57903c3.89132,-0.60336 12.76416,3.19633 12.76416,3.19633c0,0 6.11602,-1.24071 8.68066,-0.46391c1.39963,0.42392 3.07252,1.74688 4.61068,2.97416c1.58553,1.26508 3.27246,2.22283 3.27246,2.22283c0,0 -5.06097,0.4525 -7.58669,-0.057c-4.77694,-0.96364 -9.33364,-3.01687 -13.54335,-3.19058c-5.04281,-0.20808 -8.68276,1.01782 -12.13659,1.63392c-1.51837,0.27085 -4.21,0.26326 -4.21,0.26326z" fill="#4dffdd"/><path d="M220.34949,147.46883c0,0 5.73425,-0.89299 9.40339,-0.63558c3.66915,0.25743 8.56315,1.89607 8.56315,1.89607c0,0 -5.10097,0.31925 -7.8454,0.1267c-3.18003,-0.22311 -10.12114,-1.38718 -10.12114,-1.38718z" fill="#ffffff"/></g><path d="M251.4188,99.38468c0,0 1.53383,0.26831 4.28967,0.97126c2.51714,0.64206 4.50373,1.59837 4.50373,1.59837l0.23307,1.16338c0,0 -7.34761,-2.89248 -15.18817,-1.97756c-6.26912,0.73157 -9.86643,3.13502 -9.86643,3.13502l-0.09015,-4.17611c0,0 3.07039,-1.80505 7.79913,-2.1104c4.89659,-0.31618 8.10579,0.32773 8.10579,0.32773z" data-paper-data="{&quot;index&quot;:null}" fill="#000000" stroke="none" stroke-width="1.5" stroke-linecap="butt"/><path d="M232.44093,144.57341c-1.03321,0.03363 -3.64229,-3.1436 -3.95918,-5.23768c-0.28353,-1.87363 1.1899,-3.86875 3.66017,-3.94915c2.47028,-0.0804 4.21584,0.35381 4.16411,4.05521c-0.0439,3.14127 -1.39483,5.05122 -3.8651,5.13162z" fill="#4dffdd" stroke="#000000" stroke-width="1.15" stroke-linecap="butt"/><path d="M235.06216,114.37846c0,0 0.23169,3.96432 0.23759,7.12266c0.01172,6.25406 -0.17781,27.78119 -0.17781,27.78119l-2.97981,0.10563c0,0 -0.93826,-4.14441 -1.43166,-9.45822c-0.66787,-7.19271 -0.9793,-16.26996 -1.40169,-19.59706c-0.40039,-3.15377 -1.08136,-5.68236 -1.08136,-5.68236" fill="#4dffdd" stroke="#000000" stroke-width="1.3" stroke-linecap="round"/><path d="M205.89418,126.12338c0,0 -5.04391,-3.35474 -6.45287,-8.76974c-1.48249,-5.69763 -1.77702,-9.68012 0.15483,-10.00226c1.93185,-0.32217 2.7791,2.28772 4.00246,8.22984c1.22335,5.94212 2.29559,10.54217 2.29559,10.54217z" data-paper-data="{&quot;index&quot;:null}" fill="#4dffdd" stroke="#000000" stroke-width="1" stroke-linecap="butt"/><path d="M205.56328,122.18449c0,0 -3.65706,-2.8059 -4.59078,-8.30566c-0.52087,-3.06795 2.08143,-2.34911 2.08143,-2.34911" fill="none" stroke="#000000" stroke-width="0.25" stroke-linecap="round"/><path d="M208.35856,115.43409c-0.08825,-4.8916 4.54508,-9.08876 9.9178,-9.1857c5.37271,-0.09693 9.16067,3.95249 9.24892,8.84409c0.08825,4.8916 -3.83525,8.92388 -9.20797,9.02082c-5.37271,0.09693 -9.87051,-3.78761 -9.95875,-8.67922z" fill="#ffffff" stroke="#000000" stroke-width="1.4" stroke-linecap="butt"/><path d="M212.79769,115.40761c-0.04977,-2.75827 2.14591,-5.0346 4.90416,-5.08437c2.75827,-0.04977 5.0346,2.14591 5.08437,4.90416c0.04977,2.75827 -2.1459,5.0346 -4.90416,5.08437c-2.75827,0.04977 -5.0346,-2.14591 -5.08437,-4.90416z" fill="#000000" stroke="none" stroke-width="1.5" stroke-linecap="butt"/><path d="M235.40055,114.55465c0.04441,-4.8922 4.16211,-8.99863 9.47713,-9.17162c5.31502,-0.17299 9.39864,3.66226 9.5578,8.55207c0.15915,4.88981 -3.5887,9.19265 -9.39711,9.45258c-5.52485,0.24725 -9.68419,-3.72385 -9.63782,-8.83303z" fill="#ffffff" stroke="#000000" stroke-width="1.4" stroke-linecap="butt"/><path d="M240.00364,114.49042c-0.09169,-2.81696 2.11758,-5.17488 4.93454,-5.26656c2.81696,-0.09169 5.17488,2.11758 5.26656,4.93454c0.09169,2.81696 -2.11757,5.17488 -4.93454,5.26656c-2.81696,0.09169 -5.17488,-2.11758 -5.26656,-4.93454z" fill="#000000" stroke="none" stroke-width="1.5" stroke-linecap="butt"/><path d="M208.27286,114.90441c0,0 -0.22973,-9.01242 10.30842,-9.16509c9.47139,-0.14233 9.85651,9.0914 9.85651,9.0914z" fill="#4dffdd" stroke="#000000" stroke-width="1.15" stroke-linecap="butt"/><path d="M235.01002,114.16514c0,0 -0.55441,-9.44516 10.89607,-9.46267c9.71998,0.01728 9.85572,9.33662 9.85572,9.33662z" fill="#4dffdd" stroke="#000000" stroke-width="1.15" stroke-linecap="butt"/><path d="M211.47515,104.78324c0,0 3.30867,-1.92765 7.95396,-2.54188c5.14756,-0.68065 7.76196,-0.31895 7.76196,-0.31895l0.42952,4.12568c0,0 -3.85565,-0.55552 -8.03066,-0.26002c-5.58356,0.39518 -6.59475,1.64834 -10.83045,2.2447c-3.62938,0.511 -6.7285,0.37792 -6.7285,0.37792l-0.06594,-1.23006c0,0 3.59567,-0.04301 5.22872,-0.23858c1.34785,-0.16142 3.94308,-1.06692 3.94308,-1.06692z" fill="#000000" stroke="none" stroke-width="1.5" stroke-linecap="butt"/><path d="M259.75344,113.75345c0.83436,-6.00909 1.5101,-8.66854 3.45883,-8.47269c1.94871,0.19585 1.91378,4.18905 0.80492,9.97102c-1.05385,5.49516 -5.86894,9.1708 -5.86894,9.1708c0,0 0.77084,-4.66004 1.6052,-10.66914z" data-paper-data="{&quot;index&quot;:null}" fill="#4dffdd" stroke="#000000" stroke-width="1" stroke-linecap="butt"/><path d="M260.03351,109.67515c0,0 2.55005,-0.88654 2.22978,2.20879c-0.5741,5.54884 -4.04097,8.58661 -4.04097,8.58661" data-paper-data="{&quot;index&quot;:null}" fill="none" stroke="#000000" stroke-width="0.25" stroke-linecap="round"/><g stroke-width="0"><path d="M203.89066,118.42217l-0.71566,-8.3852c0,0 17.25223,-1.52249 28.62932,-1.89279c12.08096,-0.39321 28.54122,0.03199 28.54122,0.03199l-0.16887,8.41399c0,0 -18.33626,-0.76168 -28.20676,-0.44041c-9.83886,0.32024 -28.07925,2.27242 -28.07925,2.27242z" fill="#000000" stroke="none" stroke-linecap="butt"/><path d="M216.26794,109.66787c6.61944,0.06787 14.67718,2.04814 14.63301,7.32555c-0.04416,5.27741 -4.77787,11.89394 -14.79292,11.78566c-6.61941,-0.07157 -12.11683,-4.99941 -12.07267,-10.27682c0.04416,-5.27741 5.61314,-8.90225 12.23258,-8.83438z" fill="#000000" stroke="#9966ff" stroke-linecap="butt"/><path d="M260.05474,116.8153c0.38725,5.26337 -4.77809,10.53827 -11.37884,11.04014c-9.98682,0.75931 -15.14077,-5.53539 -15.528,-10.79876c-0.38725,-5.26337 7.52466,-7.76343 14.12568,-8.2616c6.60102,-0.49817 12.39392,2.75685 12.78117,8.02023z" data-paper-data="{&quot;index&quot;:null}" fill="#000000" stroke="#9966ff" stroke-linecap="butt"/><path d="M226.54288,123.16318c-4.29772,4.62513 -10.9067,3.49942 -10.9067,3.49942c0,0 5.6934,-2.17435 8.58912,-5.914c3.50071,-4.52095 4.74103,-8.4285 4.74103,-8.4285c0,0 1.47341,6.64937 -2.42346,10.84309z" fill="#e6e6e6" stroke="#ffffff" stroke-linecap="round"/><path d="M255.78023,122.61764c-4.29772,4.62513 -10.82405,2.98912 -10.82405,2.98912c0,0 4.91008,-1.84429 8.41062,-5.29905c3.58996,-4.82843 4.83689,-8.53316 4.83689,-8.53316c0,0 1.47341,6.64937 -2.42346,10.84309z" fill="#e6e6e6" stroke="#ffffff" stroke-linecap="round"/></g></g></g></svg>