<svg version="1.1" xmlns="http://www.w3.org/2000/svg" xmlns:xlink="http://www.w3.org/1999/xlink" width="34.17311" height="34.17311" viewBox="0,0,34.17311,34.17311"><g transform="translate(-222.91346,-162.91346)"><g data-paper-data="{&quot;isPaintingLayer&quot;:true}" stroke-miterlimit="10" stroke-dasharray="" stroke-dashoffset="0" style="mix-blend-mode: normal"><path d="M229.98314,162.91347h20.03378c3.9166,0 7.06966,3.15307 7.06966,7.06966v20.03379c0,3.91659 -3.15306,7.06966 -7.06966,7.06966h-20.03378c-3.91659,0 -7.06967,-3.15307 -7.06967,-7.06966v-20.03379c0,-3.91659 3.15308,-7.06966 7.06967,-7.06966z" fill-opacity="0.52549" fill="#9966ff" fill-rule="evenodd" stroke="none" stroke-width="4.43922" stroke-linecap="round" stroke-linejoin="round"/><g fill-opacity="0.34902" fill="#8000ff" fill-rule="nonzero" stroke="#000000" stroke-width="0.5" stroke-linejoin="miter"><g stroke-linecap="butt"><path d="M254.92249,180.00001c0,7.71219 -6.68103,13.96416 -14.92248,13.96416c-8.24146,0 -14.92248,-6.25197 -14.92248,-13.96416c0,-7.71219 6.68103,-13.96416 14.92248,-13.96416c8.24146,0 14.92248,6.25197 14.92248,13.96416z"/><path d="M251.53562,187.38685c0,3.29724 -5.11936,5.97018 -11.43442,5.97018c-6.31506,0 -11.43442,-2.67293 -11.43442,-5.97018c0,-3.29724 5.11936,-5.97019 11.43442,-5.97019c6.31506,0 11.43442,2.67294 11.43442,5.97019z"/></g><path d="M227.15265,175.20176l0.0296,8.71077" stroke-linecap="round"/><path d="M252.06815,183.28196l-0.0296,-8.71077" stroke-linecap="round"/></g></g></g></svg>