<svg version="1.1" xmlns="http://www.w3.org/2000/svg" xmlns:xlink="http://www.w3.org/1999/xlink" width="132.0036" height="210.40412" viewBox="0,0,132.0036,210.40412"><g transform="translate(-257.34937,-90.64958)"><g data-paper-data="{&quot;isPaintingLayer&quot;:true}" fill-rule="nonzero" stroke="#000000" stroke-width="2" stroke-linecap="butt" stroke-linejoin="miter" stroke-miterlimit="10" stroke-dasharray="" stroke-dashoffset="0" style="mix-blend-mode: normal"><path d="M339.98464,286.42314c0.52062,1.83199 5.88949,3.50606 8.88391,4.71744c3.23274,1.30779 3.77631,8.70991 3.77631,8.70991c0,0 -6.33322,-1.09366 -10.85199,-0.1787c-1.14772,0.23239 -2.23838,0.12078 -3.23573,0.08184c-2.852,-0.11136 -4.941,-1.01992 -5.41938,-2.43673c-0.58174,-1.72294 -1.17336,-5.18194 -1.74401,-11.05372c-0.10591,-1.08968 -0.21109,-2.26247 -0.31535,-3.52267c-2.46071,-29.74253 -0.89256,-65.67503 0,-76.4633c0.89256,-10.78827 3.86566,-29.73918 6.3261,0c2.46044,29.73918 2.24971,64.51071 1.35707,75.3001c-0.07815,0.94455 0.2706,1.49417 1.22307,4.84584z" data-paper-data="{&quot;index&quot;:null}" fill="#e8ff00"/><path d="M295.76816,278.95635c-0.89265,-10.7894 6.39663,-42.56092 8.85706,-72.3001c2.46044,-29.73918 9.93354,-10.78827 10.8261,0c0.89256,10.78827 -9.53929,43.72078 -12,73.46331c-0.10426,1.2602 -0.20944,2.43298 -0.31534,3.52266c-0.57066,5.87178 -1.16227,9.33079 -1.74401,11.05373c-0.47838,1.41682 -2.56738,2.32538 -5.41938,2.43673c-0.99735,0.03895 -2.08801,0.15055 -3.23573,-0.08184c-4.51878,-0.91496 -10.85199,0.1787 -10.85199,0.1787c0,0 0.54358,-7.40212 3.77632,-8.70991c2.99442,-1.21138 8.36329,-2.88546 8.88391,-4.71745c0.95247,-3.35167 1.30122,-3.90128 1.22308,-4.84583z" fill="#e8ff00"/><path d="M352.23937,157.78913c2.72688,-0.37153 12.33883,6.43759 12.33883,6.43759c0,0 24.80168,72.88931 9.45454,69.39253c-6.03449,-1.37493 -27.74041,-66.90113 -27.74041,-66.90113c0,0 2.67762,-8.48354 5.94703,-8.92899z" data-paper-data="{&quot;index&quot;:null}" fill="#242424"/><path d="M323.09089,178.8302c0,0 -63.75567,-26.45835 -64.68383,-32.57751c-2.36053,-15.56247 68.51108,14.52391 68.51108,14.52391c0,0 6.08502,10.08594 5.51428,12.77819c-0.68429,3.22788 -9.34153,5.2754 -9.34153,5.2754z" fill="#242424"/><path d="M289.07814,220.05845c1.34374,-10.09636 6.83546,-33.64365 19.61488,-51.45231c16.79259,-23.40117 42.17199,-40.52695 47.30394,-40.52695c8.29136,0 -11.98459,63.03239 -10.13479,92.45247c0.89337,14.20864 -58.03878,8.95446 -56.78403,-0.4732z" fill="#242424"/><path d="M388.35298,126.4298c0,19.20859 -16.73686,34.78022 -37.38282,34.78022c-20.64596,0 -37.38283,-15.57163 -37.38283,-34.78022c0,-19.20858 16.73687,-34.78022 37.38283,-34.78022c20.64596,0 37.38282,15.57164 37.38282,34.78022z" fill="#242424"/><path d="M325.67817,126.37644c0,6.99922 -1.65491,12.67322 -3.69636,12.67322c-2.04144,0 -3.69636,-5.674 -3.69636,-12.67322c0,-6.99922 1.65491,-12.67321 3.69636,-12.67321c2.04144,0 3.69636,5.67399 3.69636,12.67322z" fill="#000000"/><path d="M382.05104,125.89554c0,6.99922 -1.65491,12.67322 -3.69635,12.67322c-2.04145,0 -3.69635,-5.674 -3.69635,-12.67322c0,-6.99922 1.65491,-12.67321 3.69635,-12.67321c2.04145,0 3.69635,5.67399 3.69635,12.67322z" fill="#000000"/><path d="M374.01322,140.85016c0,7.709 -11.45148,24.25411 -24.62103,24.25411c-0.23994,0 -8.30671,-1.33127 -14.14861,-4.84352c-5.56367,-3.34498 -8.92149,-15.78388 -8.92149,-19.41058c0,-5.48534 11.70386,-6.07267 18.22575,-5.98181c2.46745,0.03437 4.77477,1.52288 4.84435,1.52288c1.04386,0 4.01925,-1.95055 5.04341,-1.96861c11.89676,-0.20981 19.57761,-0.67041 19.57761,6.42755z" fill="#e8ff00"/></g></g></svg>