<svg version="1.1" xmlns="http://www.w3.org/2000/svg" xmlns:xlink="http://www.w3.org/1999/xlink" width="34.17311" height="34.17311" viewBox="0,0,34.17311,34.17311"><g transform="translate(-222.91346,-162.91346)"><g data-paper-data="{&quot;isPaintingLayer&quot;:true}" stroke="none" stroke-miterlimit="10" stroke-dasharray="" stroke-dashoffset="0" style="mix-blend-mode: normal"><path d="M229.98313,162.91346h20.03378c3.9166,0 7.06966,3.15307 7.06966,7.06966v20.03379c0,3.91659 -3.15306,7.06966 -7.06966,7.06966h-20.03378c-3.91659,0 -7.06967,-3.15307 -7.06967,-7.06966v-20.03379c0,-3.91659 3.15308,-7.06966 7.06967,-7.06966z" fill-opacity="0.09677" fill="#191919" fill-rule="evenodd" stroke-width="4.43922" stroke-linecap="round" stroke-linejoin="round"/><path d="M237.91095,171.29007c1.22099,0.00904 2.55817,0.11304 3.71196,-0.23818c0.23196,-0.23195 0.46786,-0.20417 0.72498,-0.36248c0.53269,-0.32798 2.01825,-1.35836 2.58868,-0.36615c0.61474,1.0693 -1.5993,1.03583 -2.10048,1.05819c0,0.25225 0.5071,-0.03455 0.75674,0.00161c0.20559,0.02978 0.85025,0.21282 1.0017,0.31082c1.05567,0.68309 2.71057,0.70222 3.62688,1.63262c0.96578,0.47474 2.45612,1.09044 3.05159,2.05924c0.02006,0.03265 0.15256,0.20253 0.28722,0.38853c-0.00756,-0.04441 -0.01437,-0.08941 -0.02047,-0.13413l-0.05044,0.01261l-0.08937,-0.3575c-0.00528,-0.01933 -0.00811,-0.03967 -0.00811,-0.06068c0,-0.12679 0.10279,-0.22959 0.2296,-0.22959c0.04825,0 0.09301,0.01488 0.12997,0.0403l0.26926,0.1795l-0.00853,0.01282l0.04353,0.01587c0.36629,0.56194 0.99125,1.0797 1.4829,1.58222c0.14676,0.44028 0.32638,0.68746 0.39506,1.18012c0.0587,0.42108 -0.09206,0.87569 0.14867,1.26668c0.60772,0.98706 1.26507,1.96335 1.65371,3.12924c0.49661,1.48981 1.22431,2.10654 0.62087,3.77402l0.08875,0.0355l-0.16854,0.42137c-0.03256,0.0872 -0.11661,0.14929 -0.21516,0.14929c-0.10328,0 -0.19064,-0.06819 -0.21949,-0.16201l-0.08894,-0.26684l0.01237,-0.00412l-0.02119,-0.03171c0,-0.24155 -0.17905,-0.49109 -0.33643,-0.69628c0.04573,0.37838 0.13003,0.75628 0.06471,1.14941c-0.16513,0.99388 -0.44021,1.97734 -0.65856,2.97147c-0.27239,0.26246 -0.87377,0.56455 -1.20427,0.11653c-0.2064,-0.2798 0.01415,-0.46865 0.05025,-0.71475c0.08665,-0.59075 -0.08265,-1.21971 0,-1.81243c0.00629,-0.04518 0.19266,-0.61087 0.11614,-0.66819c-0.15274,-0.11442 -0.41043,0.18401 -0.56749,0.07561c-0.10267,-0.07086 -0.21513,-0.34384 -0.29861,-0.61202c-0.05166,0.28394 -0.20255,0.48246 -0.65185,0.36602c-0.46633,-0.12086 -1.14323,-1.05812 -1.67842,-0.98406c-0.18756,0.02596 -0.21737,0.32419 -0.37857,0.42352c-0.40237,0.24791 -0.86291,0.63956 -1.29653,0.83025c-0.37876,0.16657 -0.81139,0.08354 -1.09249,0.36464c-0.3207,0.01245 -1.17302,0.17924 -1.38068,-0.20005c-0.10457,-0.191 0.25109,-1.16065 0.33838,-1.33522c0.07243,-0.14484 0.38444,-0.50534 0.24836,-0.41755c-0.61386,0.39601 -1.67616,0.52186 -2.37231,0.23101c-0.11819,-0.04939 -0.25944,-0.08568 -0.37941,-0.13107c0.067,0.28987 0.23436,0.50276 0.29103,0.8688c-0.60426,0.12576 -1.41941,0.2082 -2.03546,0.09238c-0.32749,-0.06157 -0.44141,-0.15034 -0.65252,-0.41156c-0.0316,-0.0391 -0.02469,-0.18397 -0.05179,-0.14164c-0.23387,0.3652 -1.12105,1.63288 -1.77129,1.64226c-0.75824,0.01093 -0.28722,-0.77379 -0.25621,-1.26758c-0.12923,0.09677 -0.29734,0.20087 -0.39294,0.24876c-0.43193,0.21639 -0.83966,0.57034 -1.3328,0.65473c-1.18513,0.20283 -2.56233,0.48459 -3.81168,0.52063l0.00635,0.03807l-0.44867,0.07478c-0.01362,0.00251 -0.02767,0.00384 -0.04201,0.00384c-0.1268,0 -0.2296,-0.10279 -0.2296,-0.2296c0,-0.0634 0.0257,-0.1208 0.06725,-0.16235l0.17256,-0.17256c0.31489,-0.42101 0.59629,-0.79641 0.84839,-1.20744c-0.15401,0.12716 -0.29605,0.23564 -0.36386,0.28006c-0.174,0.11401 -0.46795,-0.00119 -0.60428,0.15592c-0.14612,0.16839 -0.23463,0.41723 -0.44017,0.5036c-0.47179,0.19826 -0.82798,0.16418 -1.13048,0.60919c-0.54085,0.15129 -0.5545,0.40153 -1.02392,0.64985c-1.04746,0.5541 -2.56711,0.62583 -3.70744,0.75028c-0.47862,0.05223 -1.04249,-0.11033 -1.51045,-0.00502c-0.36937,0.08312 -0.55278,0.2741 -0.95897,0.27801c-0.46028,0 -0.72929,0.09645 -0.94472,-0.43493c-0.16735,-0.41278 0.06611,-1.04352 -0.00688,-1.4797c-0.20696,-1.23672 -0.80457,-0.74097 -0.36249,-2.06724c0.05021,-1.11727 1.15436,-2.33275 1.65052,-3.32429c0.43225,-0.8638 0.49777,-1.83228 0.8051,-2.78322c0.17881,-0.5252 0.58142,-0.78412 0.8381,-1.22619c0.79995,-1.37772 2.06451,-2.2918 3.24638,-3.42762c0.39207,-0.13069 0.47582,-0.45893 0.82318,-0.63885c0.71542,-0.37053 1.35435,-1.09102 2.07672,-1.53608c0.43406,-0.26743 0.85495,-0.24764 1.28854,-0.46406c0.15469,-0.0772 0.67371,-0.02626 0.39164,-0.08452c-0.32737,-0.22898 -1.26868,-1.69961 -0.09181,-1.36161c0.12616,0.03623 0.43775,0.46403 0.61389,0.53404c0.83634,0.33244 1.80569,0.32079 2.69488,0.52685z" fill="#8f8100" fill-rule="nonzero" stroke-width="1.5" stroke-linecap="butt" stroke-linejoin="miter"/></g></g></svg>