<svg version="1.1" xmlns="http://www.w3.org/2000/svg" xmlns:xlink="http://www.w3.org/1999/xlink" width="113.66759" height="208.51624" viewBox="0,0,113.66759,208.51624"><g transform="translate(-194.35721,-108.35299)"><g stroke="none" stroke-miterlimit="10"><g stroke-width="1"><path d="M292.4518,222.40367c0.50973,0.66555 0.82781,1.8899 0.95421,3.67308l0.78034,13.03472c0.39069,4.91 0.57224,8.64587 0.54466,11.2076c0.15342,3.34031 0.04208,8.47006 -0.33403,15.38925l-1.96009,23.73374c-0.92447,4.90999 -1.82902,8.4261 -2.71362,10.54833c-0.51902,1.3311 -1.01373,2.32942 -1.48417,2.99497l-2.63906,3.0138c-3.13541,2.90079 -5.56165,4.96651 -7.2787,6.19715c-2.86908,2.10967 -5.64034,3.44704 -8.3138,4.01213l-5.64709,0.48975c-17.21471,0.56509 -31.31974,-0.26999 -42.3151,-2.50522c-5.1192,-1.0046 -9.00447,-2.45499 -11.6558,-4.35118c-1.70175,-1.10507 -2.96271,-2.21641 -3.78287,-3.33403c-1.37234,-1.23064 -2.66148,-2.85056 -3.86744,-4.85976c-1.61028,-2.78777 -2.59309,-7.07617 -2.9484,-12.86519c-0.46004,-5.68856 -0.5839,-10.48555 -0.37162,-14.39094c0.20302,-5.78902 1.5928,-15.15066 4.16936,-28.08492c0.90002,-4.23189 1.6776,-7.35244 2.33273,-9.36164c2.81941,-7.35871 4.66405,-12.99077 5.53392,-16.89616c0.30183,-1.44412 0.63833,-2.49895 1.0095,-3.1645c0.61281,-1.23064 1.41858,-1.90246 2.4173,-2.01548c0.46308,-0.059 0.9803,0.0052 1.5517,0.1926c12.87645,7.69359 26.63994,13.22408 42.61936,13.43071c7.03061,0.09091 15.36422,0.39872 22.33447,-2.25874c3.33474,-1.2714 7.06551,-2.67735 10.56615,-4.4879c0.18385,0.19431 0.34989,0.41359 0.4981,0.65786z" fill="#cccccc"/><path d="M297.45286,218.39153c-0.31468,5.78902 -0.21956,19.33232 0.28532,40.6299c0.12873,3.56634 0.16122,6.96315 0.09746,10.19044c0.08095,0.56509 0.10026,1.23692 0.05794,2.01549l-0.0727,1.33738c-0.12275,10.24694 -0.654,18.99327 -1.59378,26.23896l-0.24941,1.50691c-0.30865,1.56969 -0.64236,2.68731 -1.00113,3.35286c-0.96555,1.55714 -2.32924,2.3357 -4.09107,2.3357c-1.74953,-0.22604 -2.91698,-1.11761 -3.50233,-2.67475c-0.27413,-0.89159 -0.26914,-1.89619 0.01493,-3.01381l0.87398,-7.17663c0.53813,-1.68271 0.93689,-2.96985 1.19628,-3.86144c0.80924,-2.56173 1.31078,-5.62577 1.50464,-9.19212c0.03618,-0.66555 0.15304,-3.8426 0.35059,-9.53117c0.05761,-3.11427 0.01278,-6.39807 -0.1345,-9.85138l-0.597,-37.63493c-4.81014,3.35286 -10.17324,5.80786 -16.08927,7.36499c-7.03256,1.78317 -15.85055,1.94642 -26.45398,0.48974c-10.59183,-1.67015 -18.83667,-4.06236 -24.73452,-7.17663c-3.31505,-1.78317 -6.23321,-3.79237 -8.75444,-6.02761c-5.31622,14.71743 -9.14203,30.43319 -11.47739,47.14726c0.30427,0.56509 0.40489,1.79573 0.30182,3.69191c-0.62577,5.34951 -1.01165,11.42107 -1.1576,18.2147c0.05705,1.0046 0.13337,2.56802 0.22893,4.69024c0.61157,2.90079 0.78459,4.85349 0.51906,5.85809c-0.4012,1.21808 -1.0018,2.10966 -1.80176,2.67475c-0.37117,0.66555 -1.00336,1.11134 -1.89656,1.33738c-1.23353,0.55253 -2.36317,0.10674 -3.38891,-1.33738c-0.09937,-0.22604 -0.19568,-0.50858 -0.28893,-0.84763c-0.30496,-0.55253 -0.54175,-1.21808 -0.71035,-1.99665c0.01843,-0.33905 -0.02204,-0.6216 -0.12143,-0.84763c-0.5515,-4.00585 -0.54602,-9.24234 0.01643,-15.70947c0.63862,-9.69441 2.08917,-20.17368 4.35161,-31.43778c2.25643,-10.92506 5.2909,-22.12637 9.10345,-33.60396c0.2846,-1.00093 0.61028,-1.84178 0.97707,-2.52254c0.00675,0.00204 0.0135,0.00407 0.02025,0.00611c1.48615,0.44836 3.0368,0.52953 4.61248,0.4507c13.62129,8.50606 28.15118,14.79041 45.20499,15.01093c7.03061,0.09091 15.36422,0.39872 22.33447,-2.25874c5.1835,-1.97625 11.32389,-4.27761 16.06946,-7.91827c-0.00138,0.02534 -0.00276,0.05071 -0.00414,0.0761z" fill="#000000"/></g><path d="" fill="#000000" stroke-width="1"/><path d="" fill="#000000" stroke-width="1"/><path d="" fill="#000000" stroke-width="1"/><path d="" fill="#000000" stroke-width="1"/><path d="" fill="#000000" stroke-width="1"/><g stroke-width="1"><path d="" fill="#000000"/><path d="" fill="#000000"/><path d="" fill="#000000"/><path d="" fill="#000000"/><path d="" fill="#e16f6f"/><path d="" fill="#c2e16f"/><path d="" fill="#6f7ce1"/></g><path d="M298.17089,175.02354c2.07516,5.05914 3.70102,11.79126 4.87756,20.19641c0.34477,3.70326 0.49942,5.92269 0.46397,6.6583c0.03529,1.48825 -0.2156,3.48596 -0.75267,5.99315c-1.27915,6.80022 -3.26869,11.93103 -5.9686,15.39239c-2.58798,3.35971 -7.30048,6.87867 -14.13748,10.55685l-4.70342,2.46692c-5.49656,2.26813 -12.81435,2.96789 -21.95341,2.09927c-1.26954,-0.06119 -3.16304,-0.25355 -5.68052,-0.57706c-3.03382,-0.46731 -7.46853,-1.47787 -13.30413,-3.03163c-1.66992,-0.38969 -3.18533,-0.77787 -4.54621,-1.16457c1.46251,0.49861 2.97276,0.99359 4.53078,1.48493l6.08148,1.88076c3.6442,1.12703 6.14595,1.77684 7.50525,1.94939c1.25982,0.2629 3.25417,0.46011 5.98307,0.59163l15.96408,0.76947c1.91838,-0.32376 4.01645,-1.16808 6.29423,-2.53295c2.71519,-1.55784 4.49914,-2.42324 5.35183,-2.59621c2.39357,-0.47452 4.09622,-0.01361 5.10796,1.38275c-0.16299,0.12087 -0.32068,0.23753 -0.47276,0.34913c-1.35116,0.99147 -2.91701,1.04201 -4.09032,2.09053c-0.19086,0.17054 -0.4698,0.58638 -0.78465,1.12358c-2.12591,0.60873 -4.1795,1.0111 -5.60873,1.05202c-3.12088,0.0893 -6.16334,2.5331 -9.27679,2.54965c-5.20601,0.02766 -10.59746,0.3329 -15.98855,0.37507c-6.10419,-2.31842 -13.08066,-2.20603 -19.18776,-4.5588c-1.87267,-0.72145 -4.95982,-0.65893 -6.58053,-1.90715c-4.49372,-3.46093 -9.15019,-6.49358 -13.67062,-9.83237c-0.09266,-0.1632 -0.1909,-0.3229 -0.2945,-0.4788c0.52215,-0.73519 1.16426,-1.12716 1.92632,-1.17591c0.84755,-0.06617 1.88807,0.30506 3.12157,1.11374c-2.75606,-2.03562 -5.02235,-4.36278 -6.79891,-6.98148c-1.47108,-2.29477 -2.8967,-5.5328 -4.27683,-9.71408l-1.07316,-4.01187c-0.08162,-0.52721 -0.04866,-2.32136 0.09889,-5.38247l0.60171,-5.82202c0.72009,-6.30392 1.47654,-11.01845 2.26934,-14.14359c1.29286,-5.11086 3.23587,-9.39955 5.829,-12.86604c0.89787,-1.11027 2.96372,-3.38324 6.19754,-6.81885c1.00523,-1.117 3.73823,-4.1546 8.19899,-9.11274c1.12689,-1.42033 2.01503,-2.32892 2.66445,-2.72574c0.33007,-0.18626 1.61884,-0.64741 3.86628,-1.38344c5.75471,-1.20916 10.06588,-1.95276 12.93342,-2.23078c7.1053,-0.60891 13.94128,-0.0713 20.50794,1.61282c2.2879,0.64544 4.30734,1.43252 6.05832,2.36128l3.08469,1.87901c9.37171,6.89738 15.91566,14.60389 19.63185,23.11955z" fill="#cccccc" stroke-width="1"/><path d="M272.88899,144.03243c6.83611,2.75554 12.96447,7.11812 18.38504,13.08772c5.00219,5.5213 9.01566,11.94041 12.04041,19.25731c3.04634,7.11576 4.60959,14.16002 4.68973,21.13281c0.3094,11.09858 -2.86036,20.97701 -9.50927,29.63526c-1.34403,1.73096 -2.74222,3.3523 -4.19459,4.86395c-0.01766,0.36617 -0.03552,0.73696 -0.05361,1.11237c-2.10748,1.24856 -4.01608,2.72955 -5.43482,3.77061c-0.35556,0.26089 -0.72596,0.45664 -1.10019,0.62257l-0.00301,-0.13276c-0.19746,0.12743 -0.39591,0.25324 -0.59535,0.3774c-0.85101,0.32713 -1.69131,0.59739 -2.39175,1.22332c-0.07344,0.06562 -0.15993,0.16758 -0.25648,0.29879c-0.97868,0.51766 -1.97937,0.99925 -3.00204,1.44478c-1.19065,0.25219 -2.27559,0.40743 -3.13487,0.43202c-3.12088,0.0893 -6.16334,2.5331 -9.27679,2.54965c-4.513,0.02399 -9.16535,0.25656 -13.83602,0.34551c-1.12647,-0.11788 -2.2788,-0.26007 -3.45694,-0.42659c-3.94423,-1.2684 -8.18993,-1.69787 -12.29271,-2.53764c-5.96077,-1.58297 -10.92784,-3.42143 -14.90119,-5.51538c-3.63215,-2.6506 -7.32977,-5.12222 -10.94059,-7.78918c-0.12542,-0.22091 -0.26108,-0.4354 -0.4064,-0.64278c-0.2967,-1.48796 -1.57168,-2.94285 -3.10898,-4.0862c-1.38483,-1.9828 -2.52621,-4.10452 -3.42412,-6.36517c-1.95808,-5.26755 -2.58006,-13.2119 -1.86596,-23.83304c0.58929,-7.78488 1.5694,-13.80868 2.94032,-18.07141c2.58773,-7.7956 7.35586,-14.68928 14.30439,-20.68109c6.05423,-5.20245 13.42537,-9.2295 22.11342,-12.08115c4.93234,-1.66503 9.08073,-2.36295 12.4452,-2.09377c1.6848,0.0812 3.57058,0.43375 5.65736,1.05758zM282.23867,157.309c-6.79077,-5.91672 -14.38786,-9.29166 -22.79127,-10.12484c-5.03953,-0.5521 -9.86607,-0.09499 -14.47963,1.37135c-5.24239,1.43604 -10.60652,4.28734 -16.09238,8.55391c-4.27277,3.27851 -7.6023,6.6025 -9.98858,9.97192c-4.41003,6.12607 -7.12207,15.3903 -8.13609,27.79272c-0.62474,8.52049 0.15357,15.3188 2.33492,20.39496c2.7769,6.04435 7.50711,10.91632 14.19069,14.61589c4.83095,2.65889 11.27023,4.76501 19.31784,6.31836c9.83104,2.05554 17.88981,2.39046 24.17631,1.00475c6.61357,-1.2629 12.56706,-4.2523 17.8605,-8.96816c5.29288,-4.70399 8.99237,-10.27564 11.09849,-16.71492c3.36054,-10.50546 2.42665,-21.84822 -2.80164,-34.02826z" fill="#000000" stroke-width="1"/><path d="M229.47628,203.8575c1.99353,4.53195 4.26927,7.65039 6.8272,9.35537c3.16103,2.26921 8.57828,3.74332 16.2518,4.42239c2.62369,0.34052 5.30591,0.57684 8.04669,0.70894c1.47123,0.0709 3.10521,0.09616 4.90195,0.07573c0.85269,-0.17296 2.13916,-0.58665 3.85943,-1.24107c2.24902,-0.52189 4.12688,-1.11518 5.63358,-1.77989c0.0103,-0.21356 0.07139,-0.37115 0.18333,-0.4728l2.93849,-1.74925c0.32393,-0.30548 0.87914,-0.96847 1.66566,-1.98899l1.24303,-2.47315c0.88816,-0.90858 1.43537,-1.40546 1.64164,-1.49066c0.46317,-0.72689 1.29385,-1.43013 2.49205,-2.10971c0.96248,-0.47687 1.82003,-0.75069 2.57265,-0.82143c1.48153,-0.14265 2.56723,0.27834 3.25709,1.26299c0.69501,0.87786 0.60846,1.56345 -0.25969,2.05676c-0.01486,0.30848 -0.13424,0.56437 -0.35809,0.76765c-2.48634,3.47165 -4.65818,5.84652 -6.51554,7.12462c-2.75064,2.29346 -7.17866,4.35147 -13.28404,6.17404l-3.18785,0.63124c-0.96461,0.2746 -3.18513,0.32812 -6.66151,0.16056c-7.27311,-0.35057 -12.89117,-0.99003 -16.85415,-1.91835c-6.36796,-1.36534 -11.12323,-3.49733 -14.2658,-6.39594c-1.41519,-1.23366 -2.51109,-2.55302 -3.28774,-3.95807c-0.88341,-1.4102 -1.78963,-3.45773 -2.71864,-6.14262l-0.13465,-0.16703c0.0103,-0.21356 -0.19812,-0.33064 -0.62525,-0.35123l-0.43505,-0.96642l-0.76765,-0.35809c0.00515,-0.10678 -0.09907,-0.16532 -0.31263,-0.17561l-0.92782,-0.36582l-1.06569,-0.83628l-0.29032,-0.63835l0.30514,-3.00001l0.35123,-0.62525l0.49276,-0.60059l0.48052,0.02316c0.98465,-0.68986 2.10064,-0.89771 3.34802,-0.62352c0.53392,0.02574 1.00108,0.20286 1.40148,0.53135c0.83211,0.25417 1.43142,1.02037 1.79793,2.29863l1.11863,3.06863l1.06569,0.83628l0.11385,0.96876z" fill="#000000" stroke-width="1"/><path d="M272.66747,178.23607l1.62255,-0.72453l0.95099,-0.11471l0.48738,-0.11921c0.74592,-0.1781 1.36988,-0.04695 1.87191,0.39348l0.62525,0.35123c0.30491,0.33579 0.45478,0.55708 0.44964,0.66385l0.44813,0.32485l0.13701,0.48825l0.09926,1.27133l0.14473,0.32807l-0.03003,0.6229l0.10698,1.11115c0.18626,0.33007 0.17083,0.65042 -0.04633,0.96104l-0.18247,0.45501l-0.33579,0.30491l-0.17561,0.31263l-0.65292,0.59286l-0.66385,0.44964l-0.63835,0.29032l-3.16789,-0.15269l-0.61519,-0.1902l-0.30491,-0.33579c-0.10678,-0.00515 -0.31263,-0.17561 -0.61752,-0.51141l-0.59286,-0.65292l-0.26717,-1.11887l-0.16018,-0.00772l0.14497,-3.00772l0.18333,-0.4728z" fill="#000000" stroke-width="1"/><path d="M237.43937,173.3628l1.2636,0.0609l0.61519,0.1902l0.62525,0.35123c0.39525,0.43529 0.64627,0.6555 0.75305,0.66064l0.28946,0.65613l0.16018,0.00772c-0.11194,0.10164 -0.06598,0.25846 0.13787,0.47044l-0.01545,0.32034l0.1293,0.64842l-0.1902,0.61519l-0.02316,0.48052l-0.18247,0.45501l-0.16018,-0.00772l-0.19878,0.79315l-0.16018,-0.00772l-0.35037,0.60746l-0.34887,0.94647l-0.32721,0.12693l-0.67158,0.60982l-2.08442,0.68442l-1.2636,-0.0609c-0.62883,-0.03031 -1.09858,-0.15404 -1.40919,-0.37118l-0.60746,-0.35037c-0.30491,-0.33579 -0.51076,-0.50626 -0.61752,-0.51141l-0.14473,-0.32807l0.01458,-0.30255l-0.28711,-0.33493l0.04546,-0.94326l-0.14473,-0.32807c0.12223,-0.31521 0.1882,-0.57366 0.19792,-0.77536l0.03088,-0.64069l0.50819,-0.92095c0.42713,0.02058 0.65099,-0.18269 0.67158,-0.60982l0.16018,0.00772c0.32335,-0.29361 0.49017,-0.54721 0.50048,-0.76078l0.49597,-0.29718l2.09986,-1.00478z" fill="#000000" stroke-width="1"/><g stroke-width="1"><path d="M222.77859,165.53859l-0.32807,0.14473c-0.10164,-0.11194 -0.1473,-0.27467 -0.13701,-0.48825c0.09649,0.21872 0.25152,0.33321 0.46509,0.34351M265.13179,143.97964c-0.1371,0.62368 -0.4844,1.29076 -1.04191,2.00121l0.15246,0.16789c-0.21872,0.09649 -0.44257,0.29976 -0.67158,0.60982c-1.30342,0.88857 -2.39663,1.73374 -3.27963,2.53554c-0.64885,0.38497 -1.25052,0.77813 -1.80503,1.17954c-0.10678,-0.00515 -0.20765,-0.01 -0.30255,-0.01458l-1.14352,0.40869l-1.78037,1.038l-0.33493,0.28711l-0.48825,0.13701l-3.90489,2.18431l-2.86835,0.66448c-0.22328,0.19142 -0.34266,0.44728 -0.35809,0.76765c-0.32549,0.09134 -0.64763,0.23637 -0.96642,0.43505l-0.46509,-0.34351l-1.75185,0.0761l-1.11887,0.26717l-0.16703,0.13465l-0.32034,-0.01545l-6.47069,2.86337l-0.01545,0.32034c-0.00515,0.10678 -0.01258,0.26103 -0.0223,0.46273c-0.41527,-0.02001 -0.84162,0.06647 -1.27905,0.25944l-0.15009,0.15331l-0.32034,-0.01545c-0.74592,0.1781 -1.39097,0.36108 -1.93518,0.5489l-1.44608,0.3941c-0.63398,0.07647 -1.20943,0.04873 -1.72632,-0.0832l-2.24009,0.21312c0.22385,-0.20327 0.49854,-0.35057 0.82403,-0.44192c-0.84755,0.06617 -1.58317,0.03073 -2.20685,-0.10637c-0.73775,-0.23773 -1.40305,-0.7455 -1.99586,-1.52329c-0.49688,-0.54721 -0.94375,-1.14553 -1.34057,-1.79495c-0.78635,-1.20336 -1.29833,-2.54809 -1.53589,-4.03419c-0.17296,-0.85269 -0.38924,-3.02753 -0.64879,-6.52449c0.00515,-0.10678 0.0103,-0.21356 0.01545,-0.32034c0.00515,-0.10678 -0.04567,-0.16275 -0.15246,-0.16789c-0.27859,-2.8557 -0.52973,-5.29384 -0.75343,-7.31443l-0.66227,-12.53673l1.48493,-4.53078l1.05196,-1.84018l1.04237,-8.67281c0.33521,-0.29305 0.56394,-0.59716 0.68616,-0.91238c0.11194,-0.10164 0.22023,-0.25102 0.32485,-0.44813c0.11194,-0.10164 0.27984,-0.25409 0.50368,-0.45736c0.12223,-0.31521 0.39841,-0.61704 0.82855,-0.90551l0.32807,-0.14473l0.16018,0.00772c0.33579,-0.30491 0.6605,-0.50332 0.97415,-0.59523l4.2027,1.62966c-0.00515,0.10678 0.04567,0.16275 0.15246,0.16789l-0.00772,0.16018c-0.00515,0.10678 0.04567,0.16275 0.15246,0.16789l0.16018,0.00772l2.44399,1.84813c0.19656,0.1165 0.50582,0.23843 0.92782,0.36582l0.14473,0.32807l1.66542,1.34682l6.44791,4.27094c0.80695,0.77621 1.61131,1.60584 2.4131,2.48883c2.52762,2.33381 6.20426,5.99549 11.02989,10.98502c4.7446,4.45047 7.27192,6.79021 7.58199,7.01923c1.48652,1.97443 2.14607,3.58791 1.97867,4.84043M237.56259,121.58348c-2.52762,-2.33381 -4.96617,-4.29467 -7.31567,-5.88256c-0.72176,-0.56995 -1.49638,-1.02947 -2.32392,-1.37856c-0.11494,0.41069 -0.23867,0.88043 -0.37118,1.40919l-0.33493,0.28711c-0.10678,-0.00515 -0.32807,0.14473 -0.66385,0.44964l-0.31027,0.14559c-0.51864,1.87778 -1.04134,3.96348 -1.56813,6.2571c0.10678,0.00515 0.15759,0.06111 0.15246,0.16789c-0.4067,1.77614 -0.7092,3.61083 -0.90747,5.50405c-0.05032,1.0441 0.04914,3.42143 0.29842,7.13196l0.79118,6.53136l0.68419,5.42022c0.234,1.80702 0.52832,3.34938 0.88296,4.62707c0.24428,1.59347 0.55376,2.8214 0.92843,3.68381l0.45736,0.50368c0.21356,0.0103 0.53313,-0.08134 0.9587,-0.27489c2.93906,-1.76112 6.61086,-3.42745 11.01542,-4.999l2.8838,-0.98483l8.7022,-2.89853c3.20693,-0.90385 5.5789,-2.00255 7.1159,-3.29608c0.33064,-0.19812 0.55708,-0.45478 0.6793,-0.76998c0.01486,-0.30848 -0.13015,-0.63062 -0.43505,-0.96642c-2.12049,-1.89795 -3.99026,-3.56975 -5.6093,-5.01543c-2.929,-2.88832 -5.19788,-5.16208 -6.80663,-6.82131c-0.80695,-0.77621 -1.45371,-1.54471 -1.9403,-2.3055c-1.81717,-1.77631 -3.43333,-3.28129 -4.84852,-4.51494c-0.69501,-0.87786 -1.40003,-1.54808 -2.11506,-2.01067M240.11015,153.8513c0.43686,-0.18112 0.8206,-0.37074 1.15124,-0.56886c-0.32549,0.09134 -0.65356,0.23608 -0.98421,0.43419c-2.01846,0.42597 -3.40548,0.82886 -4.16113,1.20867c-0.54936,0.29461 -0.93339,0.49017 -1.1521,0.58665c1.71511,-0.54762 3.43051,-1.10119 5.14619,-1.66068z" fill="#000000"/><path d="M227.55182,115.73157c0.13252,-0.52877 0.25626,-0.9985 0.37118,-1.40919c0.82754,0.34909 1.60216,0.80861 2.32392,1.37856l-5.41984,7.33798c0.00515,-0.10678 -0.04567,-0.16275 -0.15246,-0.16789c0.52679,-2.29361 1.0495,-4.37932 1.56813,-6.2571l0.31027,-0.14559c0.33579,-0.30491 0.55708,-0.45478 0.66385,-0.44964l0.33493,-0.28711M244.52619,128.10911l-17.94983,24.14445c-0.35464,-1.27768 -0.64898,-2.82003 -0.88296,-4.62707l-0.68419,-5.42022l14.66845,-18.61211c1.41519,1.23366 3.03137,2.73865 4.84852,4.51494M258.63818,143.98774c-1.537,1.29354 -3.90896,2.39223 -7.1159,3.29608l-8.7022,2.89853l10.45305,-12.94643c1.61904,1.44566 3.4888,3.11747 5.6093,5.01543c0.30491,0.33579 0.44992,0.65793 0.43505,0.96642c-0.12223,0.31521 -0.34865,0.57187 -0.6793,0.76998z" fill="#e16f6f"/><path d="M253.27312,137.2359l-10.45305,12.94643l-2.8838,0.98483c-4.40456,1.57155 -8.07638,3.23789 -11.01542,4.999c-0.42556,0.19355 -0.74512,0.28518 -0.9587,0.27489l-0.45736,-0.50368c-0.37466,-0.86241 -0.68414,-2.09034 -0.92843,-3.68381l17.94983,-24.14445c0.48659,0.76079 1.13337,1.52927 1.9403,2.3055c1.60874,1.65924 3.87761,3.93299 6.80663,6.82131z" fill="#c2e16f"/><path d="M225.00921,142.20627l-0.79118,-6.53136c-0.24928,-3.71053 -0.34875,-6.08786 -0.29842,-7.13196c0.19829,-1.89322 0.50078,-3.72791 0.90747,-5.50405l5.41984,-7.33798c2.34952,1.5879 4.78806,3.54876 7.31567,5.88256c0.71503,0.46258 1.42005,1.13281 2.11506,2.01067z" fill="#6f7ce1"/></g><path d="M250.38488,219.19204c6.56781,0 12.65342,0 19.00115,0c1.25448,0 2.56471,0.21864 3.56649,1.10425c2.64843,-2.68939 6.61428,-8.46144 7.75409,-8.52477c0.39131,-0.25403 0.85814,-0.40157 1.35944,-0.40157c1.22776,0 2.24881,0.88504 2.45996,2.05193c0.03131,0.09689 0.05052,0.19936 0.05562,0.30832c0.0127,0.2713 -0.02466,0.53537 -0.10158,0.79226c-0.06572,0.24373 -0.16736,0.47271 -0.29891,0.68092c-0.73299,1.27675 -2.28922,2.3577 -3.16216,3.24918c-3.07463,3.13993 -4.34823,7.11946 -9.12113,8.31269c-9.98695,2.49674 -33.94443,-0.29384 -41.93696,-8.28637c-2.79068,-2.79068 -3.70046,-5.00712 -4.72827,-8.91495c-0.32384,-1.23126 -2.47836,-2.26278 -1.95657,-3.82815c3.43638,-10.30915 8.25385,7.33385 8.67643,7.85911c3.56828,4.43525 8.53311,4.11286 13.20286,6.37807c0.67547,0.32766 1.51219,0.6386 2.46913,0.92689c0.23478,-0.56095 0.66818,-1.01813 1.21227,-1.28361c0.40717,-0.2695 0.91253,-0.42421 1.54815,-0.42421z" fill="#000000" stroke-width="0.5"/></g></g></svg>