<svg version="1.1" xmlns="http://www.w3.org/2000/svg" xmlns:xlink="http://www.w3.org/1999/xlink" width="117.93184" height="256.89884" viewBox="0,0,117.93184,256.89884"><defs><linearGradient x1="286.15781" y1="150.97742" x2="286.15781" y2="308.71639" gradientUnits="userSpaceOnUse" id="color-1"><stop offset="0" stop-color="#004036"/><stop offset="1" stop-color="#003831"/></linearGradient><linearGradient x1="351.95753" y1="149.62536" x2="351.95753" y2="307.04569" gradientUnits="userSpaceOnUse" id="color-2"><stop offset="0" stop-color="#004036"/><stop offset="1" stop-color="#003831"/></linearGradient><linearGradient x1="319.9392" y1="146.09179" x2="319.9392" y2="309.60387" gradientUnits="userSpaceOnUse" id="color-3"><stop offset="0" stop-color="#004d41"/><stop offset="1" stop-color="#00453b"/></linearGradient><linearGradient x1="320.57559" y1="230.60892" x2="320.57559" y2="266.63764" gradientUnits="userSpaceOnUse" id="color-4"><stop offset="0" stop-color="#004036"/><stop offset="1" stop-color="#003831"/></linearGradient><linearGradient x1="318.34821" y1="138.95483" x2="318.34821" y2="163.30766" gradientUnits="userSpaceOnUse" id="color-5"><stop offset="0" stop-color="#003831"/><stop offset="1" stop-color="#004036"/></linearGradient><linearGradient x1="326.22734" y1="197.66691" x2="326.22734" y2="203.13327" gradientUnits="userSpaceOnUse" id="color-6"><stop offset="0" stop-color="#c3c3c3"/><stop offset="1" stop-color="#d9d9d9"/></linearGradient><linearGradient x1="327.40387" y1="166.93626" x2="327.40387" y2="198.47141" gradientUnits="userSpaceOnUse" id="color-7"><stop offset="0" stop-color="#acacac"/><stop offset="1" stop-color="#bfbfbf"/></linearGradient><linearGradient x1="311.76147" y1="197.93379" x2="311.76147" y2="204.65741" gradientUnits="userSpaceOnUse" id="color-8"><stop offset="0" stop-color="#c3c3c3"/><stop offset="1" stop-color="#d9d9d9"/></linearGradient><linearGradient x1="310.89513" y1="167.39704" x2="310.89513" y2="199.03327" gradientUnits="userSpaceOnUse" id="color-9"><stop offset="0" stop-color="#acacac"/><stop offset="1" stop-color="#bfbfbf"/></linearGradient><linearGradient x1="332.92624" y1="137.46211" x2="359.43942" y2="137.46211" gradientUnits="userSpaceOnUse" id="color-10"><stop offset="0" stop-color="#ced3ff"/><stop offset="1" stop-color="#d7deff"/></linearGradient><linearGradient x1="270.03977" y1="138.32982" x2="296.50331" y2="138.32982" gradientUnits="userSpaceOnUse" id="color-11"><stop offset="0" stop-color="#d7deff"/><stop offset="1" stop-color="#ced3ff"/></linearGradient><linearGradient x1="317.11198" y1="82.93125" x2="317.11198" y2="159.42888" gradientUnits="userSpaceOnUse" id="color-12"><stop offset="0" stop-color="#bfbfff"/><stop offset="1" stop-color="#d9e1ff"/></linearGradient><linearGradient x1="374.16576" y1="91.01525" x2="374.16576" y2="113.76614" gradientUnits="userSpaceOnUse" id="color-13"><stop offset="0" stop-color="#d7deff"/><stop offset="1" stop-color="#ced3ff"/></linearGradient><linearGradient x1="317.1692" y1="61.27091" x2="317.1692" y2="128.48898" gradientUnits="userSpaceOnUse" id="color-14"><stop offset="0" stop-color="#d7deff"/><stop offset="1" stop-color="#ced3ff"/></linearGradient></defs><g transform="translate(-270.03978,-53.98217)"><g stroke-miterlimit="10"><g stroke-linecap="butt"><path d="M274.68902,307.20718v-253.22501h91.18203v253.22501z" fill-opacity="0.01" fill="#000000" stroke="none" stroke-width="0"/><path d="M277.49041,304.98625c0,0 2.30995,-94.38387 2.15196,-118.01201c-0.05451,-8.15261 8.18688,-36.76129 40.20201,-36.9211c31.60235,-0.15775 39.85672,29.48704 39.84884,36.89673c-0.07659,46.24274 3.16786,117.98648 3.16786,117.98648z" fill="#ffffff" stroke="#000000" stroke-width="2"/><g stroke="none"><g><g stroke-width="0"><g><g><path d="M272.63735,308.71639c0,0 -1.12431,-5.46654 -0.95389,-13.00174c0.13279,-5.87166 1.48592,-13.16223 1.94733,-19.04278c0.48638,-6.19883 1.97115,-5.63814 2.44515,-11.75842c0.25115,-3.24283 -0.69215,-6.27918 -0.55822,-8.84907c0.24115,-4.62726 1.49652,-8.05198 1.91169,-10.64583c0.39663,-2.478 -2.46665,-8.43514 -2.45723,-8.84546c0.26279,-11.44479 -0.26455,-15.04561 -0.06908,-20.60715c0.32461,-9.23602 1.55112,-15.84863 1.55112,-15.84863c0,0 -0.45337,-4.15326 -0.25044,-9.01058c0.23309,-5.5793 1.55758,-9.23721 2.07071,-12.23049c2.80819,-16.3811 21.40382,-27.89884 21.40382,-27.89884c0,0 1.48376,2.6407 1.60057,8.32547c0.14774,7.19045 -1.03738,18.824 -0.71423,31.41194c0.16964,6.60792 0.76925,13.91903 0.88564,21.08724c0.05563,3.42663 -1.83219,7.23338 -1.74564,10.67335c0.20883,8.3002 2.27942,17.04153 2.45946,24.65041c0.12748,5.38737 -1.76529,11.17357 -1.58012,15.75178c0.23598,5.83443 4.86958,22.59972 4.98109,25.80687c0.30278,8.70833 -0.45119,18.62506 -0.45119,18.62506c0,0 -3.35596,3.21889 -16.78169,3.55139c-10.62098,0.26304 -15.69486,-2.14454 -15.69486,-2.14454z" fill="url(#color-1)"/><path d="M336.84542,305.65094c0,0 2.60125,-5.7372 2.50377,-11.39161c-0.05417,-3.14192 -0.50997,-8.55127 -0.7373,-15.63807c-0.18842,-5.87399 3.66594,-9.04843 3.41039,-16.64468c-0.21137,-6.28286 -1.81945,-6.50377 -2.20046,-13.53606c-0.49036,-9.05042 1.35791,-14.71384 0.8083,-24.43647c-0.11162,-1.9745 0.76525,-2.76523 0.63933,-4.7557c-0.34599,-5.46933 0.3281,-16.6809 -0.13562,-22.112c-0.27416,-3.21089 -3.2673,-10.79429 -3.58941,-13.76702c-0.238,-2.19646 0.33548,-3.48504 0.12585,-5.46077c-0.98466,-9.28032 -3.25557,-16.43499 -3.88682,-21.1778c-0.63538,-4.7738 0.37212,-7.10542 0.37212,-7.10542c0,0 22.52851,8.63413 26.22214,24.96527c0.66275,2.9303 1.55376,7.69727 1.9283,12.87814c0.3193,4.41687 0.12715,9.10737 0.57561,13.5126c0.78535,7.71452 3.21175,16.56706 3.88404,25.37337c0.69544,9.10952 -2.15776,18.57195 -1.74771,27.54698c0.2891,6.32771 0.08476,12.55742 0.52214,18.26737c1.53873,20.08807 3.92056,33.38224 3.92056,33.38224c0,0 -5.47789,2.60533 -14.85812,3.03411c-9.32198,0.42612 -17.75709,-2.93449 -17.75709,-2.93449z" fill="url(#color-2)"/><path d="M271.68347,295.71466c0.13279,-5.87166 1.48592,-13.16223 1.94733,-19.04278c0.48638,-6.19883 1.97115,-5.63814 2.44515,-11.75842c0.05157,-0.66584 0.05278,-1.32298 0.0233,-1.96916c0.30152,0.11717 0.59046,0.21712 0.84537,0.30309c3.77278,1.27242 6.11373,0.84918 9.84421,-0.47313c3.88616,-3.76562 2.72304,-9.28145 1.17314,-13.92007c-0.40062,-1.19899 -1.26325,-2.35335 -1.46197,-3.59489c-0.4105,-2.56466 1.23781,-5.36955 1.8485,-7.81229c1.2546,-3.75576 0.61271,-7.22112 1.15767,-11.03512c0.29064,-2.03408 1.2136,-3.94339 1.49495,-5.9635c0.421,-3.0227 -0.17038,-7.5832 -1.12528,-10.4479c0.0204,-4.09183 -1.09048,-8.67897 -0.37509,-12.80792c0.82335,-4.7521 1.13819,-9.92381 1.13819,-14.78884c0,-1.35806 0.39282,-2.87374 0.37436,-4.16441c-0.05433,-3.79857 -2.96233,-10.31788 -6.71098,-11.42134c-0.30947,-0.0911 -0.60679,-0.13458 -0.8942,-0.14016c6.44534,-9.61509 16.27021,-15.70041 16.27021,-15.70041c0,0 1.48376,2.6407 1.60057,8.32547c0.14774,7.19045 -1.03738,18.824 -0.71423,31.41194c0.16964,6.60792 0.76925,13.91903 0.88564,21.08724c0.05563,3.42663 -1.83219,7.23338 -1.74564,10.67335c0.20883,8.3002 2.27942,17.04153 2.45946,24.65041c0.12748,5.38737 -1.76529,11.17357 -1.58012,15.75178c0.23598,5.83443 4.86958,22.59972 4.98109,25.80687c0.30278,8.70833 -0.45119,18.62506 -0.45119,18.62506c0,0 -3.35596,3.21889 -16.78169,3.55139c-10.61403,0.26287 -15.68821,-2.14139 -15.69485,-2.14454c-0.00228,-0.01109 -1.12413,-5.47417 -0.95389,-13.00172z" fill-opacity="0.06275" fill="#000000"/><path d="M336.84543,305.65094c0,0 2.60125,-5.7372 2.50377,-11.39161c-0.05417,-3.14192 -0.50997,-8.55127 -0.7373,-15.63807c-0.18842,-5.87399 3.66594,-9.04843 3.41039,-16.64468c-0.21137,-6.28286 -1.81945,-6.50377 -2.20046,-13.53606c-0.49036,-9.05042 1.35791,-14.71384 0.8083,-24.43647c-0.11162,-1.9745 0.76525,-2.76523 0.63933,-4.7557c-0.34599,-5.46933 0.3281,-16.6809 -0.13562,-22.112c-0.27416,-3.21089 -3.2673,-10.79429 -3.58941,-13.76702c-0.238,-2.19646 0.33548,-3.48504 0.12585,-5.46077c-0.98466,-9.28032 -3.25557,-16.43499 -3.88682,-21.1778c-0.63538,-4.7738 0.37212,-7.10542 0.37212,-7.10542c0,0 17.81362,6.82713 24.35743,19.82249c-3.04402,-3.00841 -8.26249,-5.4989 -10.8617,-0.18006c-1.2864,2.63238 0.30798,6.31355 0.96196,8.92645c1.71638,8.58191 1.7474,17.0058 1.79379,25.76932c0.53951,2.15804 0.06186,4.45246 0.25458,6.68559c0.13297,1.54079 0.87502,2.92875 1.03875,4.43701c0.31046,2.85998 -0.2982,5.76904 -0.52142,8.58996c-0.23111,2.92067 0.3062,6.16006 0.78619,9.0415c0.37733,2.26337 1.29919,5.16949 1.02855,7.47338c-0.15774,1.34277 -0.89422,2.5361 -1.03729,3.90362c-0.48018,4.58999 -0.3513,9.34471 0.56659,13.87367c0.74559,1.50426 1.29109,2.45409 2.8642,3.17436c1.22208,0.55955 3.79099,1.76878 5.13334,1.63746c1.52063,-0.14876 2.54278,-1.18817 3.65168,-2.02016c0.34555,-0.25926 0.68212,-0.52363 1.00936,-0.79369c0.06041,4.21896 0.06188,8.33042 0.35851,12.20283c1.53873,20.08807 3.92056,33.38224 3.92056,33.38224c0,0 -5.47789,2.60533 -14.85812,3.03411c-9.32198,0.42612 -17.75709,-2.93449 -17.75709,-2.93449z" fill-opacity="0.06275" fill="#000000"/><path d="M271.68347,295.71466c0.13279,-5.87166 1.48592,-13.16223 1.94733,-19.04278c0.34518,-4.39931 1.19323,-5.39403 1.82595,-7.78855c6.79145,4.21004 17.8274,2.73317 17.8274,-7.01546c1.15738,-3.3232 0.83533,-7.35073 0.32616,-10.75742c-0.30108,-2.0144 -1.63762,-3.86594 -1.95695,-5.87084c-0.4334,-2.72112 0.66523,-6.41759 0.66523,-9.2984c-0.01317,-2.07892 1.04063,-3.72424 1.29714,-5.74866c0.33935,-2.67821 -0.29503,-5.47261 0,-8.15395c0.207,-1.88125 1.60894,-3.80761 1.63828,-5.66687c0.02541,-1.61026 -0.47876,-4.167 -0.99139,-5.70487c0.06298,-9.72951 0.01291,-19.23021 0.01291,-28.86787c0,-5.60411 -0.76883,-12.72249 -6.01895,-16.18007c-1.06587,-0.70195 -2.31415,-0.65581 -3.49604,-0.84598c6.37907,-8.50686 14.91777,-13.79554 14.91777,-13.79554c0,0 1.48376,2.6407 1.60057,8.32547c0.14774,7.19045 -1.03738,18.824 -0.71423,31.41194c0.16964,6.60792 0.76925,13.91903 0.88564,21.08724c0.05563,3.42663 -1.83219,7.23338 -1.74564,10.67335c0.20883,8.3002 2.27942,17.04153 2.45946,24.65041c0.12748,5.38737 -1.76529,11.17357 -1.58012,15.75178c0.23598,5.83443 4.86958,22.59972 4.98109,25.80687c0.30278,8.70833 -0.45119,18.62506 -0.45119,18.62506c0,0 -3.35596,3.21889 -16.78169,3.55139c-10.61403,0.26287 -15.68821,-2.14138 -15.69485,-2.14453c-0.00228,-0.01108 -1.12413,-5.47418 -0.95389,-13.00173z" fill-opacity="0.06275" fill="#000000"/><path d="M336.84543,305.65094c0,0 2.60125,-5.7372 2.50377,-11.39161c-0.05417,-3.14192 -0.50997,-8.55127 -0.7373,-15.63807c-0.18842,-5.87399 3.66594,-9.04843 3.41039,-16.64468c-0.21137,-6.28286 -1.81945,-6.50377 -2.20046,-13.53606c-0.49036,-9.05042 1.35791,-14.71384 0.8083,-24.43647c-0.11162,-1.9745 0.76525,-2.76523 0.63933,-4.7557c-0.34599,-5.46933 0.3281,-16.6809 -0.13562,-22.112c-0.27416,-3.21089 -3.2673,-10.79429 -3.58941,-13.76702c-0.238,-2.19646 0.33548,-3.48504 0.12585,-5.46077c-0.98466,-9.28032 -3.25557,-16.43499 -3.88682,-21.1778c-0.63538,-4.7738 0.37212,-7.10542 0.37212,-7.10542c0,0 12.39019,4.74858 20.29982,13.86353c-2.44147,-0.04324 -4.94695,-0.04133 -7.15084,1.10392c-4.18391,2.17417 -3.81524,9.82473 -2.83626,13.74066c0.0143,3.54286 1.3111,7.18881 1.29907,10.70316c-0.01906,5.56867 0.64514,11.14317 0.6633,16.7321c0.9247,2.77411 0.21907,6.22468 0.65232,9.13242c0.2577,1.72959 1.26671,3.33713 1.29246,5.09672c0.01547,1.05717 -0.83502,2.37237 -0.97172,3.42718c-0.33996,2.62328 -0.65296,5.46033 0,8.07216c0,1.98811 1.32995,3.92387 1.29788,5.78703c-0.04881,2.83514 -0.98819,5.80769 -1.29788,8.6457c-0.44929,4.11738 -0.33365,8.3501 -0.33365,12.51618c0.03095,5.0739 5.45123,10.40219 10.76095,10.45829c2.60174,0.02749 5.23044,-0.92394 7.44693,-2.45674c0.04554,1.95245 0.11992,3.86442 0.26216,5.72143c1.53873,20.08807 3.92056,33.38224 3.92056,33.38224c0,0 -5.47789,2.60533 -14.85812,3.03411c-9.32198,0.42612 -17.75709,-2.93449 -17.75709,-2.93449z" fill-opacity="0.06275" fill="#000000"/><path d="M271.68347,295.71466c0.13176,-5.82602 1.46496,-13.04897 1.93641,-18.90539c0.26384,0.25264 0.53854,0.49599 0.82709,0.72763c2.82645,2.26902 7.95496,1.31105 11.20476,2.1235c2.88489,0.01515 6.907,-0.53186 9.23628,-2.50227c3.25309,-2.75189 4.60574,-10.54126 3.28852,-14.306c0.01749,-2.70256 -0.67142,-5.4608 -0.32074,-8.19774c0.21406,-1.6707 0.70158,-3.68875 0.65981,-5.34071c-0.05525,-2.18496 -1.63179,-3.99343 -1.31212,-6.40097c0.36952,-2.78295 1.62537,-4.91348 1.62537,-7.784c-1.08565,-3.25695 0.14282,-7.05766 -0.32616,-10.43705c-0.83852,-6.04226 -0.31325,-12.65552 -0.31325,-18.75697c0,-7.58143 1.91737,-15.37234 0.97098,-22.95323c-0.33099,-2.65134 -1.31005,-5.18698 -1.31005,-7.86579c-1.84499,-5.72954 -4.231,-12.10601 -9.58351,-14.51946c5.61099,-6.02611 11.41147,-9.61879 11.41147,-9.61879c0,0 1.48376,2.6407 1.60057,8.32547c0.14774,7.19045 -1.03738,18.824 -0.71423,31.41194c0.16964,6.60792 0.76925,13.91903 0.88564,21.08724c0.05563,3.42663 -1.83219,7.23338 -1.74564,10.67335c0.20883,8.3002 2.27942,17.04153 2.45946,24.65041c0.12748,5.38737 -1.76529,11.17357 -1.58012,15.75178c0.23598,5.83443 4.86958,22.59972 4.98109,25.80687c0.30278,8.70833 -0.45119,18.62506 -0.45119,18.62506c0,0 -3.35596,3.21889 -16.78169,3.55139c-10.61403,0.26287 -15.68821,-2.14138 -15.69485,-2.14453c-0.00228,-0.01108 -1.12413,-5.47418 -0.95389,-13.00173z" fill-opacity="0.06275" fill="#000000"/><path d="M336.84543,305.65094c0,0 2.60125,-5.7372 2.50377,-11.39161c-0.05417,-3.14192 -0.50997,-8.55127 -0.7373,-15.63807c-0.18842,-5.87399 3.66594,-9.04843 3.41039,-16.64468c-0.21137,-6.28286 -1.81945,-6.50377 -2.20046,-13.53606c-0.49036,-9.05042 1.35791,-14.71384 0.8083,-24.43647c-0.11162,-1.9745 0.76525,-2.76523 0.63933,-4.7557c-0.34599,-5.46933 0.3281,-16.6809 -0.13562,-22.112c-0.27416,-3.21089 -3.2673,-10.79429 -3.58941,-13.76702c-0.238,-2.19646 0.33548,-3.48504 0.12585,-5.46077c-0.98466,-9.28032 -3.25557,-16.43499 -3.88682,-21.1778c-0.63538,-4.7738 0.37212,-7.10542 0.37212,-7.10542c0,0 8.63178,3.30816 16.08537,9.70223c-2.59906,1.26626 -5.48471,1.81512 -7.51043,4.22491c-3.05168,3.63026 -1.78226,8.28783 -3.14917,12.54165c-0.03885,4.40669 1.82642,8.081 2.27768,12.35021c0.33404,3.16016 1.34038,6.24411 1.6267,9.41888c0.26094,2.89327 0.17219,5.59934 0.65232,8.4801c0.01578,2.29514 0.63636,4.58182 0.33566,6.93281c-0.34956,2.73298 -1.31802,5.98841 -0.98389,8.76247c0.18203,1.51127 1.6233,2.97976 1.6233,4.44403c0,1.9038 -0.97361,4.05119 -0.97361,6.09846c-0.66658,3.33292 0.17176,6.7293 -0.31811,10.04925c-0.93679,6.34881 -1.26292,13.27684 1.67999,19.09813c0.56832,2.26015 -0.24539,4.7108 0.66632,6.88505c1.11097,2.64945 2.71023,2.46337 4.45682,4.23832c4.34972,4.42032 9.19555,5.85742 15.46236,5.8303c1.49775,16.39818 3.37377,26.86918 3.37377,26.86918c0,0 -5.47789,2.60533 -14.85812,3.03411c-9.32198,0.42612 -17.75709,-2.93449 -17.75709,-2.93449z" fill-opacity="0.06275" fill="#000000"/><path d="M271.68347,295.71466c0.06212,-2.74695 0.39134,-5.80444 0.77139,-8.88283c1.05558,0.57932 2.25618,0.94387 3.66751,1.0441c1.52173,0.10807 2.90381,-0.82583 4.31766,-1.08803c1.9376,-0.35932 3.78669,0.48701 5.63147,0.85892c8.03956,1.32062 13.35369,-4.438 17.05612,-10.85224c1.19965,5.3109 2.38182,10.28915 2.43747,11.88988c0.30278,8.70833 -0.45119,18.62506 -0.45119,18.62506c0,0 -3.35596,3.21889 -16.78169,3.55139c-10.61403,0.26287 -15.68821,-2.14138 -15.69485,-2.14453c-0.00228,-0.01108 -1.12413,-5.47418 -0.95389,-13.00173z" fill-opacity="0.06275" fill="#000000"/><path d="M336.84543,305.65094c0,0 2.60125,-5.7372 2.50377,-11.39161c-0.05417,-3.14192 -0.50997,-8.55127 -0.7373,-15.63807c-0.05071,-1.58102 0.19145,-2.96646 0.56752,-4.2952c2.78137,3.96807 6.42287,7.17869 11.24658,8.56441c3.80736,1.63723 7.87334,3.71468 12.13401,3.70109c1.466,-0.00468 2.85544,-0.43594 4.21152,-1.01325c1.32874,12.38008 2.68912,19.97301 2.68912,19.97301c0,0 -5.47789,2.60533 -14.85812,3.03411c-9.32198,0.42612 -17.75709,-2.93449 -17.75709,-2.93449z" fill-opacity="0.06275" fill="#000000"/><path d="M305.56509,288.68447c0.30278,8.70833 -0.45119,18.62506 -0.45119,18.62506c0,0 -3.35596,3.21889 -16.78169,3.55139c-10.61403,0.26287 -15.68821,-2.14138 -15.69485,-2.14453c-0.0009,-0.00436 -0.175,-0.85221 -0.37556,-2.3374c3.99409,-0.78628 7.90789,-2.0602 11.76647,-3.34761c7.9182,-3.24703 16.49387,-7.26688 21.53447,-14.40347c0.00094,0.0193 0.00173,0.03815 0.00237,0.05656z" fill-opacity="0.06275" fill="#000000"/><path d="M336.84543,305.65094c0,0 2.60125,-5.7372 2.50377,-11.39161c-0.03292,-1.90962 -0.21421,-4.65684 -0.40239,-8.1092c4.08946,4.00253 9.435,6.93976 14.11909,9.74801c4.63747,2.31963 10.24397,4.81899 15.64897,4.98778c0.4502,3.01553 0.74579,4.66539 0.74579,4.66539c0,0 -5.47789,2.60533 -14.85812,3.03411c-9.32198,0.42612 -17.75709,-2.93449 -17.75709,-2.93449z" fill-opacity="0.06275" fill="#000000"/></g><path d="M297.69444,256.34716c2.74669,-3.57209 3.87437,-9.02764 4.20793,-13.45936c0.13443,1.44361 0.22911,2.85941 0.26173,4.23803c0.08366,3.53538 -0.70269,7.24251 -1.20089,10.6673c-4.64313,4.33467 -7.65505,5.17847 -14.86627,6.30046c5.02327,-2.34764 8.18293,-3.30575 11.5975,-7.74642z" fill-opacity="0.06275" fill="#000000"/><path d="M274.97218,236.57311c0.04221,-1.83817 0.06403,-3.47399 0.07174,-4.94809c1.19644,3.22481 1.27498,6.54988 3.66039,9.07992c3.43225,3.64034 9.18298,5.88045 9.18298,5.88045c0,0 -3.39517,-0.52836 -6.26474,-1.62647c-2.05464,-0.78626 -3.60144,-2.18245 -4.53858,-2.42052c-0.70107,-2.63793 -2.11843,-5.67639 -2.1118,-5.96528z" fill-opacity="0.06275" fill="#000000"/><path d="M276.20379,191.10675c0.14406,-3.44823 0.70501,-6.16253 1.23364,-8.43962c0.30686,5.88996 -0.22661,11.02631 2.05975,15.19835c1.89228,3.45292 6.25697,6.07451 9.7884,9.44447c-4.46564,-1.06091 -7.60245,-1.61265 -10.5848,-5.10165c-0.84711,-0.99102 -1.68194,-1.77485 -2.32151,-2.9029c-0.11935,-1.44041 -0.3246,-4.62945 -0.17549,-8.19865z" fill-opacity="0.06275" fill="#000000"/><path d="M339.82183,248.44054c-0.0212,-0.39131 -0.03803,-0.7763 -0.05087,-1.15555c1.29825,4.04564 2.89461,8.40533 5.58036,11.81491c2.74261,3.48177 5.26539,6.69774 10.09061,8.51472c-6.01185,-0.68971 -9.21309,-4.07345 -13.61561,-8.22507c-0.49537,-3.93792 -1.68401,-5.03392 -2.00449,-10.94901z" fill-opacity="0.06275" fill="#000000"/></g><path d="M282.88184,193.14022l0.00167,-0.00041l0.01394,-0.02438l0.12198,-0.06099l0.87861,-0.75309l0.59044,-0.0738l0.03388,-0.01311l0.03617,0.00335l1.64068,-0.25241l1.77369,-0.12669l0.01886,-0.00618l0.01959,0.00313l3.02918,-0.26341l1.91928,-0.08723l-1.16491,0.45302l-1.56901,0.48277l-1.50518,0.34734l-2.26262,0.23817h-1.61001l-0.08838,0.0221l-0.08974,-0.01574l-1.78622,0.12758z" fill-opacity="0.06275" fill="#000000"/><path d="M279.75835,174.43275h0.09405l0.19678,0.0492l0.8453,0.24151l0.62763,0.20921l1.31176,0.59625l1.21213,0.60607l1.11289,0.66773l1.76968,1.41575l1.46289,1.46289l0.27999,0.3111l-1.50116,-0.50038l-2.35367,-0.91532l-0.00475,-0.0006l-0.00392,-0.00275l-1.62858,-0.62638l-1.94923,-0.97461l-1.22888,-0.73732l-0.95317,-0.60657c0.1245,-0.40857 0.25812,-0.81354 0.40026,-1.2148c0.10157,0.01256 0.20503,0.01903 0.31,0.01903z" fill-opacity="0.06275" fill="#000000"/><path d="M288.73926,216.3225c5.38322,-1.87071 8.72062,-4.65906 12.61521,-8.15729c0.04277,1.21365 0.07617,2.42729 0.09581,3.63686c0.00693,0.42701 -0.01631,0.8599 -0.06216,1.29727c-2.09071,5.84174 -13.14748,7.5711 -18.27647,5.4466c-0.33657,-0.13942 -0.61063,-0.37742 -0.84791,-0.67184c2.64256,-0.27503 5.96029,-1.37255 6.47552,-1.55159z" fill-opacity="0.06275" fill="#000000"/></g><path d="M354.33644,224.12101c2.04588,-1.28491 4.17282,-1.94081 6.459,-2.25148c0.73626,-0.10005 3.18101,0.3991 3.18101,0.3991c0,0 -1.35702,1.56572 -2.08219,2.17457c-2.0282,1.70285 -4.50541,2.60124 -7.17928,2.27585c-1.80959,-0.51635 -2.81521,-0.99184 -2.81521,-0.99184c0,0 2.14407,-1.69499 2.43667,-1.60619z" fill-opacity="0.06275" fill="#000000" stroke-width="0.5"/><path d="M360.64716,212.29749c0.60125,-0.22306 2.74513,-0.21865 2.74513,-0.21865c0,0 -1.26941,2.14197 -2.28375,2.97527c-2.17973,1.79067 -7.52046,3.00426 -7.52046,3.00426c0,0 0.0665,-1.63528 2.15376,-2.85257z" fill-opacity="0.06275" fill="#000000" stroke-width="0.5"/><path d="M352.10495,178.2799c2.24861,1.17556 4.07325,3.44356 5.1609,5.58205c0.53927,1.06029 1.1954,3.00923 1.1954,3.00923c0,0 -2.13636,-0.38188 -2.79226,-0.61442c-3.94721,-1.39944 -6.2873,-8.75001 -6.2873,-8.75001l1.98274,0.16282c0,0 0.65372,0 0.74052,0.61032z" fill-opacity="0.06275" fill="#000000" stroke-width="0.5"/></g><g stroke-width="0"><path d="M295.10128,305.14932c0,0 -1.29652,-1.38748 -1.73139,-3.92716c-0.49754,-2.90568 -0.17618,-7.29151 -0.79904,-12.351c-0.29681,-2.41098 -1.17617,-4.74048 -1.3188,-7.47533c-0.23161,-4.44105 0.57559,-9.19051 0.94365,-14.13338c0.40007,-5.37269 0.36381,-10.99041 0.06979,-17.12081c-0.20326,-4.238 -1.47261,-8.53614 -1.61459,-12.82094c-0.11103,-3.35078 2.32024,-6.33341 2.20338,-9.64073c-0.24532,-6.94279 -1.6412,-13.714 -1.80316,-19.99527c-0.10512,-4.07709 1.25051,-7.31829 1.16025,-10.91069c-0.20015,-7.96599 -0.70555,-13.57347 -0.75578,-17.90702c-0.1233,-10.63646 1.91842,-22.72245 1.91842,-22.72245c0,0 10.90027,-10.89942 25.37142,-10c2.90653,0.18065 5.43387,1.06458 7.7891,1.51571c15.35079,2.94035 19.61938,10.12065 19.61938,10.12065c0,0 1.3691,-0.44314 1.59921,11.36196c0.05785,2.96754 -1.74473,13.52221 -1.56875,17.08912c0.20501,4.15526 2.82444,11.53295 2.91917,16.0096c0.14064,6.64603 -1.79851,11.75242 -1.6405,18.81861c0.09557,4.27392 0.55064,5.53005 0.63514,9.89419c0.04397,2.27055 0.62948,4.27402 0.665,6.54809c0.04179,2.67557 -2.00405,11.6827 -1.95545,14.27752c0.05584,2.9814 1.02062,5.71769 1.07584,8.54747c0.10905,5.58864 1.28755,10.83281 1.34599,15.53972c0.05598,4.50908 -1.3507,9.87125 -1.31349,13.18581c0.03615,3.2211 0.69238,6.42638 0.69238,8.18271c0,5.2945 -2.45455,7.91363 -2.45455,7.91363c0,0 -17.73873,4.45455 -26.31757,4.45455c-8.43631,0 -24.73506,-4.45455 -24.73506,-4.45455z" fill="url(#color-3)"/><path d="M294.14482,266.54866c0,0 1.36221,-5.78598 2.08647,-11.85753c0.58291,-4.88666 0.49287,-9.95829 0.93054,-12.34721c0.50507,-2.75681 2.46348,-5.70912 2.46348,-5.70912c0,0 4.85564,-5.97784 8.52184,-6.46042c2.78185,-0.36617 7.19959,0.34473 11.76654,0.48788c8.476,0.26567 17.46599,0.33511 17.46599,0.33511c0,0 1.30264,-0.03865 1.86981,1.06699c1.62613,3.16997 3.96226,10.54946 4.94916,14.65198c0.4667,1.94008 -0.3759,4.17102 0.0382,7.02349c0.72988,5.02775 2.59153,10.67316 2.59153,10.67316c0,0 -11.19692,6.14784 -24.62111,6.11846c-13.92855,-0.03049 -28.06244,-3.98279 -28.06244,-3.98279z" fill="url(#color-4)"/><path d="M294.14482,266.54866c0,0 1.36221,-5.78598 2.08647,-11.85753c0.58292,-4.88665 0.49286,-9.95829 0.93054,-12.34721c0.50507,-2.75681 2.46348,-5.70912 2.46348,-5.70912c0,0 4.85564,-5.97784 8.52184,-6.46042c2.78186,-0.36617 7.19959,0.34473 11.76654,0.48788c8.476,0.26567 17.46599,0.33511 17.46599,0.33511c0,0 1.30264,-0.03865 1.86981,1.06699c1.62613,3.16997 3.96227,10.54946 4.94916,14.65198c0.4667,1.94008 -0.3759,4.17102 0.0382,7.02349c0.72988,5.02775 2.59153,10.67316 2.59153,10.67316c0,0 -11.19692,6.14784 -24.62111,6.11846c-13.92855,-0.03049 -28.06244,-3.98279 -28.06244,-3.98279zM329.56836,233.28616c-2.19665,-0.07069 -9.90049,0.01816 -15.0264,-0.17378c-3.2977,-0.12348 -6.66362,-0.83459 -9.6356,1.02404c-1.2085,0.75416 -1.57124,0.92464 -0.37685,3.03112c0.69025,1.21735 4.64206,1.90253 5.94345,2.2924c5.60017,1.67768 9.40044,2.13366 15.45214,1.66528c4.21578,-0.60033 10.72272,-0.50914 13.18522,-4.33381c1.72304,-2.67617 -7.2884,-3.43272 -9.54197,-3.50524z" fill-opacity="0.06275" fill="#000000"/><path d="M294.14482,266.54866c0,0 1.36221,-5.78598 2.08647,-11.85753c0.58292,-4.88665 0.49286,-9.95829 0.93054,-12.34721c0.20615,-1.1252 0.6544,-2.28297 1.11279,-3.25928c0.81404,0.84332 1.63048,1.68433 2.45921,2.51235c4.09661,3.51445 8.84073,6.87228 14.40911,7.41954c3.12178,0.30681 6.31327,0.19172 9.44663,0.41156c6.0639,-0.34795 14.77901,-2.36482 18.04643,-8.28825c0.63753,2.05589 1.19415,4.04464 1.56265,5.57651c0.4667,1.94008 -0.3759,4.17102 0.0382,7.02349c0.72988,5.02775 2.59153,10.67316 2.59153,10.67316c0,0 -11.19692,6.14784 -24.62111,6.11846c-13.92855,-0.03049 -28.06244,-3.98279 -28.06244,-3.98279z" fill-opacity="0.06275" fill="#000000"/><path d="M294.14482,266.54866c0,0 1.36221,-5.78598 2.08647,-11.85753c0.11428,-0.95804 0.2027,-1.92319 0.27429,-2.87384c7.81131,5.45816 15.95765,7.53057 25.73133,7.53458c8.65015,-0.00354 14.85687,-0.87029 21.94772,-6.02775c0.01458,0.1371 0.03188,0.27566 0.05221,0.41572c0.72988,5.02775 2.59153,10.67316 2.59153,10.67316c0,0 -11.19692,6.14784 -24.62111,6.11846c-13.92855,-0.03049 -28.06244,-3.98279 -28.06244,-3.98279z" fill-opacity="0.06275" fill="#000000"/><path d="M295.10128,305.14932c0,0 -1.29652,-1.38748 -1.73139,-3.92716c-0.49754,-2.90568 -0.17618,-7.29151 -0.79904,-12.351c-0.29681,-2.41098 -1.17617,-4.74048 -1.3188,-7.47533c-0.23161,-4.44105 0.57559,-9.19051 0.94365,-14.13338c0.40007,-5.37269 0.36381,-10.99041 0.06979,-17.12081c-0.20326,-4.238 -1.47261,-8.53614 -1.61459,-12.82094c-0.11103,-3.35078 2.32024,-6.33341 2.20338,-9.64073c-0.24532,-6.94279 -1.6412,-13.714 -1.80316,-19.99527c-0.01894,-0.73445 0.00953,-1.44178 0.06841,-2.12892c1.20248,7.89942 3.33211,15.39019 10.02074,20.58523c4.31671,1.2867 7.41552,-1.12202 11.45719,-2.28905c4.34625,-1.25497 9.27005,-1.24007 13.75702,-1.24007c4.21341,-0.01422 6.53506,2.43466 10.29596,3.42368c2.65128,0.69722 6.60532,-0.12655 8.05695,-2.67162c1.07523,-1.88513 1.40553,-4.3965 1.92483,-6.48315c0.74794,-5.93202 0.85791,-11.65421 1.28778,-17.57563c0.12483,-1.71956 -0.08816,-3.42718 -0.22288,-5.139c0.68821,2.9072 1.35931,5.84981 1.40641,8.07539c0.14064,6.64603 -1.79851,11.75242 -1.6405,18.81861c0.09557,4.27392 0.55064,5.53005 0.63514,9.89419c0.04397,2.27055 0.62948,4.27402 0.665,6.54809c0.04179,2.67557 -2.00405,11.6827 -1.95545,14.27752c0.05584,2.9814 1.02062,5.71769 1.07584,8.54747c0.10905,5.58864 1.28755,10.83281 1.34599,15.53972c0.05598,4.50908 -1.3507,9.87125 -1.31349,13.18581c0.03615,3.2211 0.69238,6.42638 0.69238,8.18271c0,5.2945 -2.45455,7.91363 -2.45455,7.91363c0,0 -17.73873,4.45455 -26.31757,4.45455c-8.43631,0 -24.73506,-4.45455 -24.73506,-4.45455z" fill-opacity="0.06275" fill="#000000"/><path d="M291.45559,178.86699c-0.1233,-10.63646 1.91842,-22.72245 1.91842,-22.72245c0,0 10.90027,-10.89942 25.37142,-10c2.90653,0.18065 5.43387,1.06458 7.7891,1.51571c15.35079,2.94035 19.61938,10.12065 19.61938,10.12065c0,0 1.3691,-0.44314 1.59921,11.36196c0.03413,1.75062 -0.57919,6.14163 -1.05182,10.18082c-6.97423,-1.04757 -13.13047,6.29375 -18.88291,9.16826c-3.87579,1.5478 -9.65923,4.02211 -13.9087,2.38153c-2.7677,-1.06852 -4.74931,-3.5174 -7.08894,-5.19661c-4.25781,-3.55073 -9.83557,-5.60869 -15.33029,-5.24209c-0.017,-0.54102 -0.02902,-1.06304 -0.03487,-1.56779z" fill-opacity="0.06275" fill="#000000"/><path d="M295.10128,305.14932c0,0 -1.29652,-1.38748 -1.73139,-3.92716c-0.49754,-2.90568 -0.17618,-7.29151 -0.79904,-12.351c-0.29681,-2.41098 -1.17617,-4.74048 -1.3188,-7.47533c-0.23161,-4.44105 0.57559,-9.19051 0.94365,-14.13338c0.40007,-5.37269 0.36381,-10.99041 0.06979,-17.12081c-0.20326,-4.238 -1.47261,-8.53614 -1.61459,-12.82094c-0.11103,-3.35078 2.32024,-6.33341 2.20338,-9.64073c-0.03244,-0.91809 -0.085,-1.83317 -0.15216,-2.74452c1.6697,3.81622 4.73677,8.8877 9.04485,8.31895c1.83978,-0.24289 2.65132,-1.80321 3.8096,-2.9615c1.46495,-1.46495 3.1985,-2.35039 5.19035,-2.84247c4.78158,-1.36548 10.71026,-2.49286 15.70277,-1.94551c2.62295,0.28756 4.65583,1.68559 6.98364,2.57443c1.65979,1.11924 2.84983,2.88818 4.71966,3.69674c4.91743,2.12641 8.1508,-0.57421 9.76326,-4.38814c0.08391,0.99382 0.15367,2.10614 0.18195,3.56644c0.04397,2.27055 0.62948,4.27402 0.665,6.54809c0.04179,2.67557 -2.00405,11.6827 -1.95545,14.27752c0.05584,2.9814 1.02062,5.71769 1.07584,8.54747c0.10905,5.58864 1.28755,10.83281 1.34599,15.53972c0.05598,4.50908 -1.3507,9.87125 -1.31349,13.18581c0.03615,3.2211 0.69238,6.42638 0.69238,8.18271c0,5.2945 -2.45455,7.91363 -2.45455,7.91363c0,0 -17.73873,4.45455 -26.31757,4.45455c-8.43631,0 -24.73506,-4.45455 -24.73506,-4.45455z" fill-opacity="0.06275" fill="#000000"/><path d="M293.37401,156.14452c0,0 10.90027,-10.89942 25.37142,-10c2.90653,0.18065 5.43387,1.06458 7.7891,1.51571c15.35079,2.94035 19.61938,10.12065 19.61938,10.12065c0,0 1.3691,-0.44314 1.59921,11.36196c0.02263,1.16067 -0.23935,3.48199 -0.55623,6.09191c-6.08655,-1.69216 -10.62583,2.35052 -16.1249,5.09124c-4.7566,2.03621 -10.09495,5.03647 -15.2248,2.68041c-2.08092,-0.95573 -3.98191,-3.07937 -5.73459,-4.53833c-4.91783,-3.5094 -12.41902,-5.99654 -18.59317,-4.11278c0.34412,-9.26957 1.85458,-18.21076 1.85458,-18.21076z" fill-opacity="0.06275" fill="#000000"/><path d="M295.10128,305.14932c0,0 -1.29652,-1.38748 -1.73139,-3.92716c-0.49754,-2.90568 -0.17618,-7.29151 -0.79904,-12.351c-0.29681,-2.41098 -1.17617,-4.74048 -1.3188,-7.47533c-0.23161,-4.44105 0.57559,-9.19051 0.94365,-14.13338c0.39641,-5.32355 0.36444,-10.88766 0.07779,-16.95272c0.61336,0.57894 1.2986,1.09511 2.01128,1.56315c0.43845,0.402 0.92397,0.71486 1.45159,0.87784c0.15234,0.08568 0.30459,0.16969 0.45632,0.25215c1.41069,0.76668 2.41349,2.01942 3.94123,2.60373c2.94523,1.12645 6.8471,0.5079 9.89876,0.06551c4.32227,-0.02664 8.59214,-2.00319 12.93543,-2.36723c4.18051,-0.3504 8.58615,0.64047 12.52513,1.95438c4.5039,1.48884 8.19894,1.35663 11.62557,-0.44636c0.30535,1.8611 0.72872,3.66792 0.76475,5.51455c0.10905,5.58864 1.28755,10.83281 1.34599,15.53972c0.05598,4.50908 -1.3507,9.87125 -1.31349,13.18581c0.03615,3.2211 0.69238,6.42638 0.69238,8.18271c0,5.2945 -2.45455,7.91363 -2.45455,7.91363c0,0 -17.73873,4.45455 -26.31757,4.45455c-8.43631,0 -24.73506,-4.45455 -24.73506,-4.45455z" fill-opacity="0.06275" fill="#000000"/><path d="M293.37401,156.14452c0,0 10.90027,-10.89942 25.37142,-10c2.90653,0.18065 5.43387,1.06458 7.7891,1.51571c15.35079,2.94035 19.61938,10.12065 19.61938,10.12065c0,0 1.3691,-0.44314 1.59921,11.36196c0.00349,0.17917 0.0002,0.38599 -0.00902,0.61727c-5.88855,-2.21528 -12.0044,2.40244 -17.59552,5.18377c-2.52814,1.68543 -7.56214,4.69709 -10.77164,3.92529c-3.3985,-0.81724 -6.26701,-4.34764 -9.34374,-5.89693c-5.73289,-2.85558 -11.47087,-6.31405 -17.99902,-6.24486c0.56609,-6.00265 1.33983,-10.58286 1.33983,-10.58286z" fill-opacity="0.06275" fill="#000000"/><path d="M293.37401,156.14452c0,0 10.90027,-10.89942 25.37142,-10c2.90653,0.18065 5.43387,1.06458 7.7891,1.51571c15.35079,2.94035 19.61938,10.12065 19.61938,10.12065c0,0 1.3691,-0.44314 1.59921,11.36196c0.02188,1.12252 -0.41606,5.65418 -0.7188,8.15906c-6.75986,-2.55796 -11.63988,2.48543 -16.77861,6.15594c-4.49015,3.00298 -11.78492,4.42656 -16.91847,1.96423c-2.14893,-1.03075 -4.80267,-3.55601 -6.74734,-4.85485c-5.02173,-2.24894 -9.63905,-3.48462 -15.18894,-3.64534c0.19865,-9.86 1.97305,-20.77735 1.97305,-20.77735z" fill-opacity="0.06275" fill="#000000"/><path d="M293.37401,156.14452c0,0 10.90027,-10.89942 25.37142,-10c2.90653,0.18065 5.43387,1.06458 7.7891,1.51571c15.35079,2.94035 19.61938,10.12065 19.61938,10.12065c0,0 1.3691,-0.44314 1.59921,11.36196c0.01526,0.78249 -0.09884,2.09251 -0.27191,3.66283c-4.43067,-0.29958 -5.32485,-1.61035 -9.0545,0.02084c-1.76904,0.7737 -7.90165,4.14308 -9.23496,5.47891c-3.00832,2.52281 -9.5732,4.19402 -13.08175,2.02092c-2.15341,-1.33376 -4.55338,-3.22625 -6.48963,-4.83777c-4.68871,-3.35322 -11.76441,-7.00454 -17.86352,-5.51529c0.57664,-7.42674 1.61716,-13.82876 1.61716,-13.82876z" fill-opacity="0.06275" fill="#000000"/><path d="M295.10128,305.14932c0,0 -1.29652,-1.38748 -1.73139,-3.92716c-0.49754,-2.90568 -0.17618,-7.29151 -0.79904,-12.351c-0.29681,-2.41098 -1.17617,-4.74048 -1.3188,-7.47533c-0.23161,-4.44105 0.57559,-9.19051 0.94365,-14.13338c0.10804,-1.4509 0.18426,-2.91967 0.23217,-4.41158c2.09618,1.25438 4.26846,2.35541 6.448,3.21974c6.23679,1.1533 12.77423,1.14165 19.08764,0.74191c3.17293,-0.2009 6.25783,-0.98495 9.44497,-0.98679c3.71225,-0.45832 7.73199,-0.5465 11.48738,-0.562c2.11666,-0.00873 3.31857,0.40461 5.42609,-0.34189c1.34573,-0.47667 2.61359,-0.7107 3.74304,-1.22151c0.36151,4.33131 1.11802,8.41935 1.16455,12.16683c0.05598,4.50908 -1.3507,9.87125 -1.31349,13.18581c0.03615,3.2211 0.69238,6.42638 0.69238,8.18271c0,5.2945 -2.45455,7.91363 -2.45455,7.91363c0,0 -17.73873,4.45455 -26.31757,4.45455c-8.43631,0 -24.73506,-4.45455 -24.73506,-4.45455z" fill-opacity="0.06275" fill="#000000"/><path d="M295.10128,305.14932c0,0 -1.29652,-1.38748 -1.73139,-3.92716c-0.49754,-2.90568 -0.17618,-7.29151 -0.79904,-12.351c-0.29681,-2.41098 -1.17617,-4.74048 -1.3188,-7.47533c-0.14709,-2.82034 0.12478,-5.76505 0.43707,-8.8047c3.42209,2.23069 8.14224,3.81395 11.30687,4.08583c8.68531,1.06234 17.35444,1.14171 26.09729,1.1316c6.54537,-0.72726 14.34019,-1.10131 19.97081,-4.98432c0.09118,1.03693 0.15315,2.05183 0.16545,3.04292c0.05598,4.50908 -1.3507,9.87125 -1.31349,13.18581c0.03615,3.2211 0.69238,6.42638 0.69238,8.18271c0,5.2945 -2.45455,7.91363 -2.45455,7.91363c0,0 -17.73873,4.45455 -26.31757,4.45455c-8.43631,0 -24.73506,-4.45455 -24.73506,-4.45455z" fill-opacity="0.06275" fill="#000000"/></g><g stroke-width="0"><path d="M348.80059,153.02412c0,0 6.18323,6.83811 0.80736,9.40064c-1.01524,0.48394 -2.54075,1.51686 -4.35356,2.28249c-3.3955,1.43406 -7.79894,2.92991 -11.74501,5.15773c-5.17535,2.92183 -9.18892,6.79235 -13.2683,6.79235c-4.67788,0 -10.88773,-5.43299 -14.70638,-7.85404c-4.26232,-2.70235 -13.83726,-5.31592 -18.03776,-7.9099c-1.93654,-1.19589 -0.78203,-3.71884 -0.55607,-4.32907c0.97718,-2.63898 3.1467,-3.34096 3.1467,-3.34096c0,0 -3.06842,-2.69085 -1.90848,-5.59027c0.63533,-1.58809 4.21286,-3.16901 6.36386,-4.56687c4.72877,-3.07306 16.08494,-4.1114 23.80527,-4.1114c6.41892,0 14.01698,0.86792 20.31396,2.81679c4.63178,1.43349 8.55962,3.68043 10.79651,5.43288c3.08107,2.41381 -0.65809,5.81962 -0.65809,5.81962z" fill="url(#color-5)"/><path d="M342.83738,150.21495c0,1.34472 -5.07241,3.15272 -11.34945,5.84177c-3.56221,1.52603 -7.0602,3.38475 -11.36482,3.38475c-4.57152,0 -9.44692,-2.87094 -12.98689,-4.97404c-5.66699,-3.36677 -10.32024,-4.73367 -10.32024,-6.03107c0,-2.10784 10.60206,-6.55861 22.49194,-6.55861c11.88988,0 23.52946,6.22937 23.52946,8.33721z" fill-opacity="0.12549" fill="#000000"/><path d="M348.80059,153.02412c0,0 6.18323,6.83811 0.80736,9.40064c-1.01524,0.48394 -2.54075,1.51686 -4.35356,2.28249c-3.3955,1.43406 -7.79894,2.92991 -11.74501,5.15773c-5.17535,2.92183 -9.18892,6.79235 -13.2683,6.79235c-4.67788,0 -10.88773,-5.43299 -14.70638,-7.85404c-4.26232,-2.70235 -13.83726,-5.31592 -18.03776,-7.9099c-1.93654,-1.19589 -0.78203,-3.71884 -0.55607,-4.32907c0.97718,-2.63898 3.1467,-3.34096 3.1467,-3.34096c0,0 -3.06842,-2.69085 -1.90848,-5.59027c0.63533,-1.58809 4.21286,-3.16901 6.36386,-4.56687c1.40807,-0.91506 3.40376,-1.6497 5.7161,-2.23025c-3.92429,1.86613 -7.1719,5.02739 -7.13258,9.08561c1.26521,2.89606 4.87474,4.70067 7.61748,6.25516c-2.03345,-0.21141 -5.91497,-1.76271 -6.78252,0.0885c-0.64395,1.37408 2.44028,3.9171 3.93561,4.32492c1.4223,0.3879 2.82046,0.8818 4.22016,1.34747c2.77244,0.6941 5.63597,1.10884 8.19781,2.44919c5.0472,2.64069 8.06997,6.14605 13.71911,2.20705c2.02815,-1.21723 4.06475,-2.49544 6.33867,-3.22101c4.56445,-1.45644 11.92283,-2.60654 15.17418,-6.45138c-0.55483,-1.7168 -6.40101,-0.19255 -7.57091,-0.4098c1.87883,-0.81799 7.33588,-4.55975 8.02833,-6.28688c1.34301,-3.34977 -2.90848,-5.89504 -5.39389,-7.39937c-0.4504,-0.29947 -0.91469,-0.59223 -1.3906,-0.87622c4.38859,1.4366 8.09225,3.57362 10.23879,5.25529c3.08107,2.41381 -0.65809,5.81962 -0.65809,5.81962z" fill-opacity="0.06275" fill="#000000"/><path d="M348.80059,153.02412c0,0 6.18323,6.83811 0.80736,9.40064c-1.01524,0.48394 -2.54075,1.51686 -4.35356,2.28249c-3.3955,1.43406 -7.79894,2.92991 -11.74501,5.15773c-5.17535,2.92183 -9.18892,6.79235 -13.2683,6.79235c-4.67788,0 -10.88773,-5.43299 -14.70638,-7.85404c-4.26232,-2.70235 -13.83726,-5.31592 -18.03776,-7.9099c-1.93654,-1.19589 -0.78203,-3.71884 -0.55607,-4.32907c0.97718,-2.63898 3.1467,-3.34096 3.1467,-3.34096c0,0 -3.06842,-2.69085 -1.90848,-5.59027c0.3708,-0.92687 1.74381,-1.85129 3.25049,-2.7383c-0.23743,0.75324 -0.30028,1.58994 -0.13629,2.49059c0.63114,3.46631 3.21779,5.78969 6.06079,7.40601c-2.02294,-0.43149 -4.29991,-0.98158 -6.10799,-0.10616c-1.97745,0.95742 -1.85282,2.57008 -0.54238,4.04207c0.54247,0.60935 1.19891,1.03979 1.8784,1.47065c1.36138,0.86324 2.74323,1.67619 4.09025,2.56486c2.2952,0.92663 4.94712,0.73783 7.15826,1.70837c0.97265,0.42693 1.46619,1.80305 2.49021,2.08184c0.62639,0.17054 1.35696,0.16915 1.94465,-0.10665c0.46351,-0.21753 0.50528,-1.11041 1.01557,-1.15241c2.42738,-0.19979 4.81159,2.16072 6.07137,3.96099c2.11541,1.19161 5.54272,1.85846 7.66794,0.12911c0.60158,-0.48952 0.81729,-1.32076 1.28188,-1.9418c0.88759,-1.18646 3.05718,-1.8085 4.41064,-2.16442c1.08485,-0.28528 2.12626,0.71938 3.20738,1.01847c1.53355,0.42425 3.47108,-0.63105 4.84387,-1.18485c2.45577,-1.46436 4.84383,-2.74939 7.39036,-4.02247c0.97455,-0.4872 2.74307,-1.16536 3.11142,-2.33075c0.40735,-1.2888 -0.25149,-2.37433 -1.31778,-3.00295c-0.71602,-0.42212 -1.94217,-0.63847 -3.29105,-0.69721c3.34049,-1.89622 5.71885,-5.5552 4.98189,-9.13817c0.68953,0.44394 1.30022,0.8776 1.81971,1.28459c3.08107,2.41381 -0.65809,5.81962 -0.65809,5.81962z" fill-opacity="0.06275" fill="#000000"/><path d="M348.80059,153.02412c0,0 6.18323,6.83811 0.80736,9.40064c-1.01524,0.48394 -2.54075,1.51686 -4.35356,2.28249c-3.3955,1.43406 -7.79894,2.92991 -11.74501,5.15773c-5.17535,2.92183 -9.18892,6.79235 -13.2683,6.79235c-4.67788,0 -10.88773,-5.43299 -14.70638,-7.85404c-4.26232,-2.70235 -13.83726,-5.31592 -18.03776,-7.9099c-1.93654,-1.19589 -0.78203,-3.71884 -0.55607,-4.32907c0.97718,-2.63898 3.1467,-3.34096 3.1467,-3.34096c0,0 -3.06842,-2.69085 -1.90848,-5.59027c0.3708,-0.92686 1.74381,-1.85129 3.25049,-2.7383c-0.23742,0.75324 -0.30028,1.58995 -0.13629,2.49059c0.63114,3.46632 3.2178,5.78968 6.06079,7.406c-2.02294,-0.4315 -4.29991,-0.98158 -6.10799,-0.10617c-1.97744,0.95741 -1.85282,2.57008 -0.54237,4.04208c0.54248,0.60935 1.19891,1.03979 1.8784,1.47065c1.36138,0.86324 2.74323,1.67619 4.09026,2.56486c2.29521,0.92663 4.94712,0.73783 7.15826,1.70837c0.97265,0.42693 1.46619,1.80305 2.49021,2.08184c0.62639,0.17054 1.35696,0.16915 1.94465,-0.10665c0.46351,-0.21752 0.50527,-1.11041 1.01556,-1.15241c2.42737,-0.19979 4.81159,2.16072 6.07137,3.96099c2.11541,1.19162 5.54272,1.85846 7.66794,0.12911c0.60158,-0.48952 0.81729,-1.32076 1.28188,-1.9418c0.88759,-1.18646 3.05718,-1.80849 4.41064,-2.16441c1.08485,-0.28528 2.12626,0.71938 3.20739,1.01847c1.53355,0.42425 3.47108,-0.63105 4.84387,-1.18485c2.45577,-1.46436 4.84383,-2.74939 7.39036,-4.02247c0.97455,-0.4872 2.74307,-1.16537 3.11142,-2.33075c0.40735,-1.2888 -0.25149,-2.37432 -1.31778,-3.00295c-0.71602,-0.42212 -1.94217,-0.63847 -3.29105,-0.6972c3.34049,-1.89622 5.71885,-5.5552 4.98189,-9.13817c0.68953,0.44395 1.30022,0.8776 1.81971,1.28459c3.08107,2.41381 -0.65809,5.81962 -0.65809,5.81962z" fill-opacity="0.06275" fill="#000000"/><path d="M348.80059,153.02412c0,0 6.18323,6.83811 0.80736,9.40064c-1.01524,0.48394 -2.54075,1.51686 -4.35356,2.28249c-3.3955,1.43406 -7.79894,2.92991 -11.74501,5.15773c-5.17535,2.92183 -9.18892,6.79235 -13.2683,6.79235c-4.67788,0 -10.88773,-5.43299 -14.70638,-7.85404c-4.26232,-2.70235 -13.83726,-5.31592 -18.03776,-7.9099c-1.93654,-1.19589 -0.78203,-3.71884 -0.55607,-4.32907c0.97718,-2.63898 3.1467,-3.34096 3.1467,-3.34096c0,0 -3.06842,-2.69085 -1.90848,-5.59027c0.12804,-0.32006 0.37558,-0.63982 0.70687,-0.95785c-0.02018,2.69473 3.40912,5.0436 6.33481,6.70621c0.01571,0.01219 0.03145,0.02435 0.04722,0.03647c-2.29611,0.01722 -6.1222,0.20679 -7.2926,2.28286c-2.01267,3.5701 5.85199,7.12326 8.28282,8.13456c1.89619,0.51855 4.50855,0.29964 6.19276,1.34326c1.17768,0.72975 1.93907,2.79456 3.39523,3.08435c0.66424,0.13219 1.43514,0.0758 2.01269,-0.27792c0.59304,-0.3632 0.17147,-1.28898 0.81616,-1.5957c1.62527,-0.77324 4.53915,1.24048 4.79022,2.81968c-2.79213,4.58568 5.27066,5.34908 7.9963,4.55874c3.41425,-0.99002 1.91924,-2.59998 2.81144,-4.98397c0.62206,-1.66215 4.25308,-1.919 5.66226,-1.92371c1.26233,0.01665 0.63265,1.35942 2.46621,1.53479c1.00263,0.0959 2.35367,-0.93277 3.31589,-1.21131c3.70209,-1.07167 6.26234,-2.05397 9.52768,-4.0752c2.5181,-1.55869 4.76705,-2.09424 4.49223,-5.5368c-0.78576,-1.53778 -2.09582,-2.73711 -3.67604,-3.38006c1.17701,-0.88061 2.45971,-2.75354 2.8047,-3.49169c0.78402,-1.67751 0.45006,-2.92315 -0.27897,-4.14184c0.31355,0.22107 0.60468,0.43732 0.87171,0.64652c3.08107,2.41381 -0.65809,5.81962 -0.65809,5.81962z" fill-opacity="0.06275" fill="#000000"/><path d="M333.50935,169.86498c-5.17535,2.92183 -9.18892,6.79235 -13.2683,6.79235c-4.67788,0 -10.88773,-5.43299 -14.70638,-7.85404c-4.26232,-2.70235 -13.83726,-5.31592 -18.03776,-7.9099c-1.93654,-1.19589 -0.78203,-3.71884 -0.55607,-4.32907c0.13613,-0.36763 0.29539,-0.69767 0.46871,-0.99345c-0.72583,1.43571 -0.22745,2.87067 0.97735,4.52631c1.77513,1.44185 3.64957,2.1101 5.54983,2.68351c0.93479,0.46321 1.76864,0.82467 2.32145,1.05465c0.57545,0.15737 1.21685,0.24681 1.87826,0.32424c0.43326,0.18262 0.86505,0.38626 1.29451,0.619c3.25078,1.7617 6.25842,3.68472 9.58098,5.34021c2.99009,1.99651 6.0615,5.47352 9.95542,5.49207c3.88318,0.01849 7.57953,-3.45568 11.1146,-4.93752c1.6504,-0.44011 3.42086,-1.03516 5.20279,-1.7506c-0.59863,0.29952 -1.19201,0.61288 -1.77538,0.94224z" fill-opacity="0.06275" fill="#000000"/><path d="M348.80059,153.02412c0,0 6.18323,6.83811 0.80736,9.40064c-1.01524,0.48394 -2.54075,1.51686 -4.35356,2.28249c-1.77742,0.75068 -3.83104,1.51829 -5.95066,2.39896c2.44218,-1.23424 4.74455,-2.65472 6.60528,-4.16538c1.67185,-1.35731 3.41937,-1.65918 4.35109,-3.73669c0.25707,-1.76352 -0.11867,-3.52882 -1.54233,-4.78408c-0.26978,-0.23787 -0.77957,-0.56921 -1.19,-0.68938c0.20158,-0.15953 0.39977,-0.34579 0.50134,-0.47345c0.09225,-0.11595 1.22594,-1.91819 1.25887,-2.00688c0.44004,-1.18525 0.45967,-2.62097 0.22823,-4.00003c2.97649,2.41084 -0.71562,5.7738 -0.71562,5.7738z" fill-opacity="0.06275" fill="#000000"/><path d="M290.21772,152.12957c0.13551,0.08969 0.43146,0.3159 0.78046,0.5396c-0.38261,0.10191 -0.72466,0.24134 -1.05162,0.42181c-0.44287,-0.43212 -1.78935,-1.87542 -2.00123,-3.63654c0.36912,1.04234 1.16466,1.94197 2.27239,2.67513z" fill-opacity="0.06275" fill="#000000"/></g><path d="M308.41037,167.04863c0.0679,-0.74692 0.81482,-0.67902 0.81482,-0.67902c1.34381,0.14502 2.35911,0.81628 3.44181,1.6012l0.61176,0.40784c0.20678,0.13354 0.34365,0.36603 0.34365,0.63049c0,0.22494 -0.09903,0.42676 -0.25587,0.56423c-0.13747,0.15684 -0.33928,0.25587 -0.56423,0.25587c-0.04044,0 -0.08013,-0.0032 -0.11884,-0.00936l-0.96858,-0.13837l0.02759,-0.19311c-0.33405,-0.033 -0.60633,-0.12802 -0.92181,-0.29921c-0.2146,-0.09282 -0.45697,-0.21062 -0.74898,-0.35649l-0.00913,-0.01122l-0.00268,0.00491l-0.75769,-0.41328c-0.22009,-0.11454 -0.37623,-0.33503 -0.40084,-0.59386c-0.21634,-0.07465 -0.53648,-0.27029 -0.491,-0.77063z" fill-opacity="0.06275" fill="#000000" stroke-width="0.5"/><path d="M327.29906,169.53376c-0.1611,0.05743 -0.33686,0.11978 -0.53076,0.19022l-0.03256,-0.00181l0.00288,0.01056l-0.75449,0.20577c-0.06779,0.02014 -0.13959,0.03095 -0.21391,0.03095c-0.26776,0 -0.50276,-0.14032 -0.63545,-0.35144c-0.21979,-0.01089 -0.49364,-0.11043 -0.63163,-0.49679c-0.25225,-0.70631 0.45405,-0.95856 0.45405,-0.95856c0.32087,-0.1146 0.63571,-0.22494 0.94898,-0.33019l0.04537,-0.05774l0.03799,0.02985c0.19849,-0.06616 0.39651,-0.13024 0.59519,-0.19202c0.28683,-0.25805 0.60263,-0.47588 0.9471,-0.63449l0.03833,0.00062l-0.0043,-0.01289l1.03484,-0.34495c0.07926,-0.0285 0.16471,-0.04402 0.25378,-0.04402c0.3061,0 0.56936,0.18337 0.68594,0.44625c0.31953,0.08593 0.55473,0.37766 0.55473,0.72433c0,0.01175 -0.00027,0.02343 -0.0008,0.03505c0.00053,0.01162 0.0008,0.0233 0.0008,0.03505c0,0.26446 -0.13688,0.49695 -0.34365,0.63049l-0.83148,0.55432l-0.1104,-0.1656c-0.30183,0.21851 -0.60424,0.35972 -1.00496,0.51257c-0.12338,0.06864 -0.25231,0.14969 -0.38234,0.25188z" fill-opacity="0.06275" fill="#000000" stroke-width="0.5"/><g stroke-width="0"><path d="M324.21551,202.70845c0,0 0.17502,-1.22753 0.34962,-1.91798c0.22461,-0.88823 0.8862,-2.96909 0.8862,-2.96909l2.63336,0.46343c0,0 -0.50101,2.73992 -0.77061,3.74415c-0.19494,0.72611 -0.69692,1.72221 -0.69692,1.72221c0,0 -0.636,-0.02613 -1.52783,-0.47024c-0.60151,-0.29954 -0.87382,-0.57248 -0.87382,-0.57248z" fill="url(#color-6)"/><path d="M324.3282,197.85768c0,0 1.50072,-9.24011 1.74469,-14.19191c0.22503,-4.56728 -0.33311,-14.45869 -0.33311,-14.45869l3.63502,-2.02532c0,0 0.91564,10.69505 0.83835,15.12486c-0.10061,5.76632 -1.39071,16.53304 -1.39071,16.53304c0,0 -1.07894,0.2076 -2.89318,-0.10093c-1.26817,-0.21567 -1.60107,-0.88104 -1.60107,-0.88104z" fill="url(#color-7)"/><path d="M326.07291,183.66577c0.22503,-4.56728 -0.33311,-14.45869 -0.33311,-14.45869l3.63502,-2.02532c0,0 0.91564,10.69505 0.83835,15.12486c-0.04224,2.42111 -0.29418,5.72374 -0.57228,8.74082c-0.83557,-1.67354 -2.11887,-2.87011 -4.03503,-2.27941c0.21713,-1.84189 0.39575,-3.65519 0.46705,-5.10226z" fill-opacity="0.06275" fill="#000000"/><path d="M325.7398,169.20707l3.63502,-2.02532c0,0 0.62447,7.29411 0.79846,12.32982c-1.40681,-1.01431 -2.84,-1.26677 -4.06472,-0.51831c-0.07594,-4.59682 -0.36876,-9.78619 -0.36876,-9.78619z" fill-opacity="0.06275" fill="#000000"/></g><g stroke-width="0"><path d="M310.88917,204.81189c0,0 -0.28223,-1.65946 -0.40385,-2.64409c-0.15391,-1.24598 -0.44577,-4.23401 -0.44577,-4.23401l3.01899,-0.42481c0,0 0.65944,3.08934 0.79439,4.21935c0.09652,0.80823 0.28695,2.50427 0.28695,2.50427c0,0 -0.53987,0.43566 -1.5082,0.54267c-1.23959,0.13698 -1.7425,0.03662 -1.7425,0.03662z" fill="url(#color-8)"/><path d="M309.26354,199.647c0,0 -1.18687,-12.80024 -1.19716,-18.2902c-0.01017,-5.42287 1.13578,-14.45074 1.13578,-14.45074l3.44727,1.77983c0,0 -0.17839,11.9571 0.0311,17.03183c0.19913,4.82375 1.19636,12.70182 1.19636,12.70182c0,0 -0.25921,0.60071 -1.22117,0.89755c-2.43498,0.75139 -3.39219,0.32992 -3.39219,0.32992z" fill="url(#color-9)"/><path d="M308.06638,181.35679c-0.01017,-5.42287 1.13578,-14.45074 1.13578,-14.45074l3.44727,1.77983c0,0 -0.17839,11.9571 0.0311,17.03183c0.05182,1.25521 0.15767,2.71724 0.28594,4.19346c-1.47926,-0.96416 -3.05884,-0.73027 -4.47127,0.29749c-0.23067,-3.26118 -0.42468,-6.64641 -0.42882,-8.85187z" fill-opacity="0.06275" fill="#000000"/><path d="M309.10504,166.90605l3.44727,1.77983c0,0 -0.08266,5.54049 -0.06937,10.67921c-0.06948,-0.05227 -0.14139,-0.10265 -0.21584,-0.15103c-1.18658,-0.77102 -2.80008,-0.9761 -4.22733,-0.6021c0.2481,-5.26827 1.06526,-11.70591 1.06526,-11.70591z" fill-opacity="0.06275" fill="#000000"/></g><path d="M334.35159,223.43269c-4.24504,1.68739 -8.61591,2.97705 -13.15995,3.5828c-3.42966,0.4572 -6.83331,0.52453 -10.26514,0.11169c3.25196,-1.38666 6.4891,-2.76809 10.16774,-3.13235c4.4057,-0.43625 8.50516,-0.72779 12.9895,-0.71172c0.17384,0.00062 0.34531,0.0046 0.51448,0.01129c-0.12385,0.07436 -0.2115,0.12432 -0.24663,0.13829z" fill-opacity="0.06275" fill="#000000" stroke-width="0"/><path d="M320.26817,216.79727c-1.91042,0.74251 -3.81898,1.85527 -5.82543,2.30189c-2.52762,0.56263 -4.34202,0.305 -5.95235,0.73042c-0.82229,0.21724 -1.59137,0.61258 -2.37502,1.38619c0.37862,-0.63419 0.73808,-1.23275 1.09318,-1.59229c2.04485,-2.07047 4.91491,-2.61737 7.58792,-3.47695c2.22053,-0.71407 5.61059,-0.92632 7.96067,-0.93758c0.51413,-0.00246 1.4528,-0.33022 1.64725,0.03965c-1.43776,0.2688 -3.38164,1.2554 -4.13622,1.54868z" fill-opacity="0.06275" fill="#000000" stroke-width="0"/><path d="M344.21361,171.26943l0.29827,0.08023c1.5093,0.97169 1.36807,2.01032 -0.33298,2.70806c-2.2729,0.93229 -4.94657,1.23003 -7.34003,1.76191c-1.09807,0.12326 -4.01524,0.88297 -4.41548,-0.85611c-0.17035,-0.74018 1.78782,-1.86371 2.2987,-2.15667c2.46166,-1.41161 6.75831,-2.94216 9.49152,-1.53742z" fill-opacity="0.06275" fill="#000000" stroke-width="0.5"/><path d="M294.5657,166.61408c0.20004,-0.11565 0.41571,-0.11565 0.41571,-0.11565c3.77121,0.02159 7.77826,2.51552 10.11564,5.36083c0.37636,0.45815 1.90775,1.9332 1.82175,2.50843c-0.32009,2.14099 -1.98382,1.17192 -3.13286,0.84363c-2.9657,-1.01176 -5.33226,-3.86413 -8.32877,-5.10877c-0.74373,-0.30892 -2.50436,-0.70477 -2.6196,-1.75425c-0.12566,-1.14437 0.81351,-1.62102 1.72813,-1.73421z" fill-opacity="0.06275" fill="#000000" stroke-width="0.5"/><path d="M340.93699,184.00182c0,0 1.62132,5.42404 0.22154,7.77331c-1.38223,2.31981 -4.17344,3.43656 -6.70049,3.80559c-1.0725,0.17541 -4.57436,0.04572 -4.57436,0.04572c0,0 6.32065,-4.34686 6.84953,-4.6718c2.21368,-1.36009 4.20378,-6.95282 4.20378,-6.95282z" fill-opacity="0.06275" fill="#000000" stroke-width="0.5"/><path d="M299.63604,197.6467c1.86464,1.60686 5.88361,2.87428 7.92189,4.03827l1.52062,1.49679c0,0 -6.64369,-0.73918 -9.94653,-3.02521c-1.19583,-0.82768 -2.95926,-2.25772 -3.11892,-3.86945c-0.19911,-2.00991 -1.51784,-5.80955 0.49988,-4.12016c0,0 1.25842,3.8729 3.12306,5.47976z" fill-opacity="0.06275" fill="#000000" stroke-width="0.5"/></g></g><g stroke="none" stroke-width="0" stroke-linecap="butt"><path d="M327.08289,154.90499l25.96119,-36.27071c0,0 1.92836,5.04246 3.4118,7.16985c1.4314,2.05275 5.28235,6.27411 5.28235,6.27411c0,0 -1.47902,0.42015 -2.83279,0.52053c-1.94675,0.14435 -3.21623,0.00374 -3.21623,0.00374c0,0 0.15369,2.3114 0.42419,3.37208c0.30978,1.21475 1.33269,3.51713 1.33269,3.51713c0,0 -1.05149,0.00741 -1.93115,-0.48227c-0.94414,-0.52558 -1.98782,-0.95078 -1.98782,-0.95078c0,0 -0.01553,6.67472 0.94733,9.40629c1.07252,3.04269 5.19438,8.01736 5.19438,8.01736c0,0 -3.80917,1.38607 -6.544,0.68154c-2.72974,-0.7032 -3.7278,-1.81546 -3.7278,-1.81546c0,0 0.40618,1.15766 0.69308,1.70005c0.28998,0.54821 1.03767,1.57194 1.03767,1.57194c0,0 -0.91026,0.2105 -2.32374,0.08717c-1.51045,-0.1318 -3.51592,-0.82372 -3.51592,-0.82372l1.86734,3.18385c0,0 -7.91372,-1.26283 -11.43431,-2.14429c-5.82202,-1.45768 -8.63826,-3.01842 -8.63826,-3.01842z" fill="url(#color-10)"/><path d="M354.08719,123.67092c1.07383,2.14766 2.70317,3.8326 4.003,5.80155c0.42864,0.64252 1.58854,1.92551 1.58854,1.92551c0,0 -0.90258,-0.14441 -1.34998,-0.19263c-0.77494,-0.08353 -1.48575,-0.45659 -2.22654,-0.63855c-0.30414,-0.153 -1.69345,-0.89837 -1.99212,-0.72287c-0.56442,0.33165 0.07475,4.54879 0.2794,5.18507c0.05943,0.23806 0.91551,1.6641 0.91551,1.6641c0,0 -1.50375,-0.99548 -2.66119,-0.73528c-0.5099,0.11463 -0.62656,1.23561 -0.77257,1.6775c-1.16693,2.34738 -0.34392,5.38027 -0.34392,7.86529c0.2535,1.28478 0.49514,2.48248 0.9091,3.72518c0.13121,0.3939 0.2908,0.81286 0.40407,1.21166c0.11188,0.39389 2.00437,2.68587 2.00437,2.68587c0,0 -3.22847,-0.71234 -4.49277,-1.27293c-1.16913,-0.51839 -2.82989,-1.97393 -2.82989,-1.97393c0,0 0.16691,1.52009 0.29291,2.15164c0.09912,0.4968 0.74292,2.01324 0.74292,2.01324c0,0 -1.37788,-0.26659 -2.04498,-0.51975c-0.73518,-0.279 -2.18173,-1.08426 -2.18173,-1.08426c0,0 0.48793,3.47896 0.18894,3.38706c-4.7742,0.03026 -7.82053,-0.42427 -11.79298,-3.07257c-0.99496,-0.33807 -2.07569,-0.89816 -3.04076,-1.48439l23.01845,-32.15936c0.11106,1.58547 0.48267,3.21354 1.38221,4.56286z" fill-opacity="0.06275" fill="#000000"/><path d="M353.51284,124.10587c0.35079,1.31903 1.10953,2.74913 1.97466,3.82987c0.45009,0.56226 1.493,1.38906 0.83523,1.26885c-2.621,-0.63909 -4.20863,-2.69057 -4.20863,1.31624c0,1.36757 0.1745,2.54077 0.76804,3.72439c-0.48465,-0.25036 -1.24506,-0.30635 -1.47719,-0.02587c-0.79469,0.9602 -1.25629,2.87508 -1.43086,4.0787c-0.38855,2.36158 -0.20305,4.81026 -0.19015,7.19092c0.18907,0.77593 0.57169,3.68856 1.31512,4.24752c-0.14377,-0.0712 -0.35475,-0.17222 -0.45758,-0.21896c-0.43432,-0.19741 -0.84054,-0.3911 -1.25618,-0.62747c-0.96959,-0.32894 -2.09389,-1.51346 -3.1349,-1.47566c-1.19964,0.04356 -1.39687,3.06583 -0.72681,3.72877c-0.49053,-0.01972 -2.09228,-0.56003 -2.42715,-0.35267c-1.53472,0.95032 1.01976,2.54466 -1.53072,2.54937c-1.72147,0.28691 -4.47549,-0.66953 -6.00635,-1.43496c-1.84635,-0.46159 -2.90666,-1.88849 -4.12429,-3.08044l21.07997,-29.45108c0.07478,1.64065 0.34598,3.10837 0.99779,4.73249z" fill-opacity="0.06275" fill="#000000"/></g><g stroke="#000000" stroke-width="0"><path d="M270.75321,122.51259c0,0 3.26862,0.38077 6.21862,-0.41072c2.51437,-0.67462 4.28193,-1.64202 4.28193,-1.64202c0,0 11.68702,18.54871 14.35673,24.18013c1.291,2.7232 0.80196,7.79524 0.80196,7.79524c0,0 -1.79419,2.51037 -7.82905,3.56399c-5.48732,0.95802 -11.75093,-1.82706 -11.75093,-1.82706l7.02669,-4.73709c0,0 -2.92631,0.29131 -5.13102,0.14512c-2.52839,-0.16766 -4.58002,-0.77673 -4.58002,-0.77673c0,0 2.45972,-2.53506 4.44335,-5.3286c1.4441,-2.03374 2.34648,-4.93509 2.34648,-4.93509c0,0 -1.78103,0.9002 -2.89679,1.151c-2.95677,0.66463 -4.7615,0.34907 -4.7615,0.34907c0,0 0.85585,-1.0843 1.15408,-1.58135c0.24307,-0.40512 0.5039,-1.18195 0.5039,-1.18195c0,0 -2.11066,-0.26064 -3.52763,-3.23384c-1.49782,-3.14282 -1.36736,-5.05607 -1.36736,-5.05607c0,0 1.05719,-0.20225 2.40168,-1.02596c1.3866,-0.84951 2.33541,-1.73734 2.33541,-1.73734c0,0 -1.35132,-0.00359 -2.65942,-1.22477c-1.04317,-0.97386 -1.36711,-2.48596 -1.36711,-2.48596z" fill="url(#color-11)" stroke-linecap="round"/><path d="M279.64522,122.10188c2.17021,-0.67462 3.69583,-1.64202 3.69583,-1.64202c0,0 10.08735,18.54871 12.39164,24.18013c0.68712,1.67926 0.79004,4.25167 0.76796,5.97717c-0.55581,0.38129 -1.13627,0.74763 -1.76716,1.1131c-1.9564,0.75087 -4.22506,1.82727 -6.2803,1.83823c-0.56721,0.21905 -2.83337,-0.20566 -4.03123,-0.19615c1.64375,-1.35835 3.34106,-4.03379 2.9818,-6.47581c-1.79754,-0.35497 -3.9008,-0.23045 -5.71875,-0.24154c0.20369,-0.13403 1.17333,-1.68347 1.36869,-1.95558c2.00588,-2.79389 2.08922,-8.36321 2.08922,-8.36321c0,0 -3.66875,1.63988 -6.12777,2.16206c0.51394,-0.89465 1.11561,-2.43143 1.11561,-2.43143c0,0 -2.27831,-1.3648 -3.28997,-2.16511c-0.86079,-0.9973 -1.89955,-3.82188 -1.89955,-3.82188c0,0 2.41526,-1.61021 3.20306,-2.39285c0.64971,-0.64545 1.18979,-1.97122 1.18979,-1.97122c0,0 -2.37978,-1.85385 -2.89819,-3.11907c0.95398,-0.02931 2.10741,-0.15229 3.20933,-0.49482z" fill-opacity="0.06275" fill="#000000" stroke-linecap="butt"/><path d="M279.64522,122.10188c2.17021,-0.67462 3.69584,-1.64202 3.69584,-1.64202c0,0 10.08734,18.54871 12.39163,24.18013c0.39191,0.95776 0.59376,2.20607 0.69077,3.42207c-0.48068,0.41342 -0.37738,0.98389 -2.70191,1.95378c-2.91003,1.21418 -5.45576,1.22317 -5.45576,1.22317c0,0 0.23336,-0.94447 0.4672,-1.84944c0.41087,-1.59009 -0.00104,-4.77006 -0.00104,-4.77006l-4.33235,0.77413c0,0 1.19317,-3.90165 1.51337,-5.80097c0.29167,-1.73003 0.33024,-5.13456 0.33024,-5.13456c0,0 -1.07853,0.83595 -2.47145,1.46444c-0.89598,0.40427 -1.98135,0.55093 -2.79659,0.90421c0.13172,-1.05334 0.34977,-1.82201 0.34977,-1.82201c0,0 -1.86091,-0.39559 -3.02113,-1.50092c-1.07979,-1.02871 -1.55516,-3.10179 -1.55516,-3.10179c0,0 1.74566,-0.87704 2.17401,-1.04211c0.88732,-0.35062 3.08285,-3.16864 3.08285,-3.16864c0,0 -2.3632,-2.50782 -3.09964,-3.89223c0.24716,-0.05581 0.49452,-0.12108 0.73934,-0.19718z" fill-opacity="0.06275" fill="#000000" stroke-linecap="butt"/></g><path d="M279.37234,122.82908c0,-21.28929 16.61226,-39.89781 37.28958,-39.89781c20.67732,0 38.18967,17.25838 38.18967,38.54768c0,21.28929 -13.61312,38.17867 -38.03965,37.94761c-28.3284,-0.26797 -37.43959,-15.30818 -37.43959,-36.59747z" fill="url(#color-12)" stroke="none" stroke-width="0" stroke-linecap="butt"/><g stroke="#000000" stroke-width="0"><path d="M360.35989,112.17419c0,0 5.44624,-5.41367 7.86187,-9.29378c1.75811,-2.82397 5.29667,-11.84214 5.29667,-11.84214c0,0 5.09503,-0.61889 9.82542,4.56246c5.87371,6.43366 4.4845,11.31004 4.4845,11.31004c0,0 -5.16691,4.92614 -14.26518,6.46581c-7.91087,1.33873 -13.20329,-1.20239 -13.20329,-1.20239z" fill="url(#color-13)" stroke-linecap="round"/><path d="M360.35989,112.17419c0,0 3.50146,-3.48051 6.13456,-6.86026c0.24327,0.62935 0.68333,1.17774 1.25764,1.55913c1.94176,0.94793 3.88223,1.01637 6.12724,0.57426c2.47387,-0.63641 4.40173,-0.70533 6.53643,-2.3111c1.70434,-1.71543 3.44496,-2.41186 3.97849,-5.06165c0.1927,-0.96354 0.25267,-2.05851 0.109,-3.10914c4.52141,5.74612 3.32511,9.94534 3.32511,9.94534c0,0 -5.16691,4.92614 -14.26518,6.46581c-7.91087,1.33873 -13.20329,-1.20239 -13.20329,-1.20239z" fill-opacity="0.06275" fill="#000000" stroke-linecap="butt"/><path d="M360.35989,112.17419c0,0 1.06205,-1.0557 2.45618,-2.56885c1.72246,1.58948 4.90823,1.46315 7.04224,1.4734c2.78518,0 5.24002,-0.61926 7.94579,-1.17609c2.29807,-1.14903 4.49937,-1.97528 6.57918,-3.53513c1.31231,-1.31628 2.42032,-2.48213 3.01759,-4.19112c0.94972,2.90125 0.42749,4.73438 0.42749,4.73438c0,0 -5.16691,4.92614 -14.26518,6.46581c-7.91087,1.33873 -13.20329,-1.20239 -13.20329,-1.20239z" fill-opacity="0.06275" fill="#000000" stroke-linecap="butt"/></g><g fill-opacity="0.03137" fill="#000000" stroke="none" stroke-linecap="butt"><path d="M335.79528,139.97825c0,4.07482 -14.4547,2.48655 -26.25143,2.48655c-11.79672,0 -24.2948,2.24048 -24.2948,-1.83434c0,-4.07482 12.49808,-12.9219 24.2948,-12.9219c11.79672,0 26.25143,8.19487 26.25143,12.26969z" stroke-width="0"/><path d="M330.20222,140.94878c-0.07905,-0.23717 0.15811,-0.31623 0.15811,-0.31623l0.13945,-0.01888c1.03098,-1.02514 2.14259,-1.98616 3.35375,-2.79422c0,0 0.20801,-0.13868 0.34669,0.06934c0.13867,0.20801 -0.06934,0.34669 -0.06934,0.34669c-1.18351,0.78837 -2.27334,1.72887 -3.27818,2.73238l-0.33425,0.13903c0,0 -0.23717,0.07905 -0.31623,-0.15812z" stroke-width="0.5"/><path d="M328.13092,141.36232c-0.17678,-0.17677 0,-0.35355 0,-0.35355l0.11448,-0.10845c1.67008,-1.14362 2.98021,-2.74976 4.66072,-3.87037c0,0 0.20801,-0.13868 0.34669,0.06934c0.13867,0.20801 -0.06934,0.34669 -0.06934,0.34669c-1.67812,1.11846 -2.98719,2.7243 -4.65556,3.86688l-0.04343,0.04946c0,0 -0.17678,0.17677 -0.35356,0z" stroke-width="0.5"/><path d="M325.77243,141.69192c0.02346,-0.12456 0.09819,-0.17407 0.16616,-0.19262c2.07052,-1.6332 4.11835,-3.36396 5.98202,-5.22763c0,0 0.17677,-0.17677 0.35355,0c0.17678,0.17677 0,0.35356 0,0.35356c-1.89504,1.89504 -3.97877,3.65332 -6.08417,5.31258l-0.21815,0.04608c0,0 -0.24568,-0.04628 -0.1994,-0.29196z" stroke-width="0.5"/><path d="M323.0312,142.79742c-0.11181,-0.2236 0.1118,-0.33541 0.1118,-0.33541l0.09293,-0.03212c0.20675,-0.20631 0.42464,-0.40247 0.65499,-0.58206c2.21242,-1.72077 4.23916,-4.07045 6.6613,-5.45854c0,0 0.21706,-0.12404 0.34109,0.09302c0.12403,0.21706 -0.09302,0.34109 -0.09302,0.34109c-2.39983,1.36706 -4.41291,3.71616 -6.6024,5.4191c-0.21441,0.16634 -0.41673,0.34883 -0.6084,0.54093l-0.22288,0.12578c0,0 -0.2236,0.1118 -0.33541,-0.1118z" stroke-width="0.5"/><path d="M320.93002,141.80682c0.2831,-0.14375 0.498,-0.33492 0.77907,-0.52421c2.40184,-1.61392 4.45949,-3.68176 6.85468,-5.27903c0,0 0.20802,-0.13867 0.34669,0.06934c0.13867,0.20801 -0.06934,0.34668 -0.06934,0.34668c-2.39461,1.59591 -4.452,3.66454 -6.85317,5.27801c-0.3827,0.25653 -0.65502,0.49987 -1.09208,0.66912l-0.02424,-0.30603l-0.15292,-0.16153c0.04724,-0.01743 0.09232,-0.03611 0.1357,-0.05591l-0.00102,-0.01287c0,0 0.03143,-0.01572 0.07662,-0.02358z" stroke-width="0.5"/><path d="M319.24451,140.8711c0.21321,-0.12536 0.42722,-0.24938 0.642,-0.37203c2.49092,-1.65679 4.52469,-3.65293 6.84388,-5.50906c0,0 0.19521,-0.15617 0.35139,0.03905c0.15618,0.19521 -0.03904,0.35139 -0.03904,0.35139c-2.33567,1.86773 -4.3839,3.87786 -6.89369,5.54415c-0.29229,0.16712 -0.58326,0.33658 -0.87284,0.50837l-0.00622,0.00065l0.00113,0.00213l-0.23701,0.12615c-0.036,0.02009 -0.07749,0.03155 -0.12166,0.03155c-0.13807,0 -0.25,-0.11193 -0.25,-0.25c0,-0.06904 0.02799,-0.13154 0.07323,-0.17678l0.23685,-0.23685c0,0 0.12619,-0.12619 0.27197,-0.05871z" stroke-width="0.5"/><path d="M316.51226,141.04111c0.68542,-0.44823 1.3572,-0.91948 2.05132,-1.35346c2.49115,-1.55697 4.35363,-3.7042 6.58391,-5.56296c0,0 0.19205,-0.16004 0.3521,0.03201c0.16005,0.19206 -0.03201,0.3521 -0.03201,0.3521c-2.24802,1.87315 -4.12785,4.03338 -6.639,5.60285c-0.69139,0.43195 -1.3603,0.90166 -2.04287,1.34806l-0.25989,0.16996c-0.0399,0.02696 -0.08801,0.04271 -0.1398,0.04271c-0.13807,0 -0.25,-0.11193 -0.25,-0.25c0,-0.08816 0.04563,-0.16565 0.11455,-0.21016l0.23362,-0.15575l0.0014,0.00209l0.02646,-0.01731l0.27366,0.41846l-0.0094,0.00155c-0.00898,0.00738 -0.01476,0.01123 -0.01476,0.01123l-0.00681,-0.00767l-0.57734,0.09531l0.3068,-0.50367c0,0 0.01039,-0.00692 0.02807,-0.01536z" stroke-width="0.5"/><path d="M317.50485,137.58654c2.23449,-1.49038 4.02683,-3.5784 6.24289,-5.05683c0,0 0.20801,-0.13868 0.34669,0.06933c0.13867,0.20801 -0.06934,0.34669 -0.06934,0.34669c-2.21218,1.47367 -4.00043,3.56237 -6.23145,5.04897c-1.26209,0.94696 -2.57601,1.81569 -3.85785,2.73225c-0.03095,0.06605 -0.08412,0.10592 -0.08412,0.10592l-0.32746,0.24509c-0.0661,0.03875 -0.13788,0.07365 -0.21266,0.1018c-0.06122,0.04513 -0.12234,0.09041 -0.18333,0.13587l-0.01468,0.00306l-0.00092,0.00054l0.00252,0.00442l-0.43031,0.24589c-0.03741,0.0223 -0.08113,0.03512 -0.12785,0.03512c-0.13807,0 -0.25,-0.11193 -0.25,-0.25c0,-0.0937 0.05156,-0.17536 0.12784,-0.21817l0.42749,-0.25009l0.002,0.00342c1.52044,-1.13925 3.1196,-2.16301 4.64054,-3.30327z" stroke-width="0.5"/><path d="M310.88056,140.85316c1.31284,-0.95164 2.59556,-1.93905 3.89962,-2.90671c2.15864,-1.87219 4.27918,-3.86205 6.50257,-5.6408c0,0 0.19521,-0.15617 0.35139,0.03904c0.15618,0.19521 -0.03904,0.35139 -0.03904,0.35139c-2.22375,1.77895 -4.34147,3.7692 -6.50191,5.64028c-1.62663,1.20881 -3.22197,2.44615 -4.88225,3.60826l-0.00285,0.00084l0.0005,0.00075l-0.41318,0.27545c-0.04024,0.02768 -0.08899,0.04388 -0.14152,0.04388c-0.13807,0 -0.25,-0.11193 -0.25,-0.25c0,-0.07529 0.03328,-0.1428 0.08594,-0.18864l0.37446,-0.32927l0.04279,0.04866l0.01091,-0.00727c0.20866,-0.22226 0.43632,-0.385 0.78867,-0.63068l0.00979,-0.00682c0,0 0.07402,-0.05162 0.16414,-0.04835z" stroke-width="0.5"/><path d="M313.72627,136.01267c2.19898,-1.78711 4.11825,-3.7432 6.11475,-5.74131c0,0 0.17678,-0.17677 0.35355,0c0.17678,0.17677 0,0.35356 0,0.35356c-2.01284,2.01113 -3.94573,3.98268 -6.16149,5.78256c-2.00372,1.48898 -4.01461,2.96254 -5.92037,4.57286c-0.01564,0.1035 -0.10491,0.16944 -0.10491,0.16944l-0.05943,0.04391c-0.10084,0.07449 -0.20765,0.14045 -0.31853,0.19969c-0.03256,0.02821 -0.06509,0.05646 -0.09758,0.08476l0.0107,0.01499l-0.40449,0.28893c-0.04138,0.03034 -0.09244,0.04826 -0.14768,0.04826c-0.13807,0 -0.25,-0.11193 -0.25,-0.25c0,-0.08283 0.04028,-0.15626 0.10233,-0.20175l0.30782,-0.23086c2.09483,-1.83478 4.34069,-3.47526 6.57533,-5.13503z" stroke-width="0.5"/><path d="M305.1318,140.22863c2.18831,-1.51651 4.30119,-3.08168 6.36625,-4.79438c2.14168,-1.77593 3.92316,-4.36736 6.25554,-5.82973c0,0 0.212,-0.1325 0.3445,0.0795c0.1325,0.212 -0.0795,0.3445 -0.0795,0.3445c-2.30951,1.43849 -4.08308,4.03408 -6.20139,5.79062c-2.60906,2.1631 -5.29355,4.09402 -8.10954,5.98595l0.0012,0.00168l-0.40474,0.28856c-0.04135,0.03027 -0.09235,0.04814 -0.14751,0.04814c-0.13807,0 -0.25,-0.11193 -0.25,-0.25c0,-0.08474 0.04217,-0.15964 0.10666,-0.20485l0.40323,-0.29008l0.00079,0.0011l0.00248,-0.00341c0.05552,-0.03731 0.11098,-0.07463 0.1664,-0.11196c0.26943,-0.31515 0.71416,-0.53069 1.04899,-0.7758l0.4108,-0.24767c0,0 0.03529,-0.02125 0.08586,-0.03217z" stroke-width="0.5"/><path d="M299.42527,141.53535c-0.11296,-0.22303 0.11007,-0.33598 0.11007,-0.33598l0.16531,-0.08344c1.62152,-0.9154 3.44246,-2.50833 5.09988,-3.19034c1.99364,-1.33001 3.97515,-3.14578 5.65652,-4.82258c1.77916,-1.38571 3.43297,-2.94445 5.31659,-4.20508c0,0 0.20801,-0.13868 0.34668,0.06934c0.13867,0.20801 -0.06933,0.34669 -0.06933,0.34669c-1.868,1.241 -3.50272,2.79284 -5.26292,4.16378c-1.70335,1.70845 -3.72958,3.54095 -5.75503,4.8905c-1.61723,0.6206 -3.50892,2.29041 -5.08638,3.18298l-0.1854,0.09419c0,0 -0.22303,0.11296 -0.33598,-0.11006z" stroke-width="0.5"/><path d="M294.78178,142.50475c-0.21389,-0.12942 -0.08446,-0.34331 -0.08446,-0.34331l0.19123,-0.31566c0.59296,-0.82594 1.42835,-1.67824 2.23567,-2.30142c2.74418,-2.11091 5.48861,-4.24986 8.19148,-6.41956c2.21134,-1.77514 4.3827,-3.63856 6.48088,-5.546c0,0 0.18498,-0.16817 0.35315,0.01681c0.16817,0.18499 -0.01682,0.35316 -0.01682,0.35316c-2.10575,1.91432 -4.2849,3.7844 -6.50421,5.56594c-2.70556,2.17185 -5.45269,4.31294 -8.19961,6.42596c-0.7624,0.58417 -1.56639,1.4006 -2.12306,2.18029l-0.18092,0.29933c0,0 -0.12942,0.21389 -0.34331,0.08446z" stroke-width="0.5"/><path d="M290.4896,141.97516c-0.07905,-0.23717 0.15812,-0.31623 0.15812,-0.31623l0.20411,-0.06538c0.50018,-0.24919 0.91018,-0.61042 1.3746,-0.91729c1.69944,-1.70184 3.91882,-3.13714 5.85635,-4.58979c1.99604,-1.33165 4.0952,-3.39059 5.82831,-5.1211c1.69031,-1.12687 3.78653,-3.1811 5.79398,-3.60463c0,0 0.24514,-0.04903 0.29417,0.19612c0.04903,0.24515 -0.19611,0.29417 -0.19611,0.29417c-1.88502,0.35076 -3.98901,2.44366 -5.57504,3.50101c-1.73691,1.73955 -3.84991,3.80586 -5.85652,5.1426c-1.93318,1.4504 -4.12373,2.87789 -5.82848,4.56858c-0.49306,0.3313 -0.93454,0.71012 -1.46765,0.97755l-0.2696,0.09251c0,0 -0.23718,0.07906 -0.31623,-0.15811z" stroke-width="0.5"/><path d="M297.06594,142.81716c-0.21051,-0.13486 -0.07565,-0.34537 -0.07565,-0.34537l0.0118,-0.01841c0.09515,-0.14763 0.19031,-0.29525 0.28546,-0.44287c1.83412,-1.84425 3.71387,-3.55833 5.86704,-4.98879c2.02389,-1.01194 4.17482,-2.58872 5.57085,-4.397c1.92251,-0.99668 3.04829,-3.14266 4.74728,-4.42935c0,0 0.2,-0.15 0.35,0.05c0.15,0.2 -0.05,0.35 -0.05,0.35c-1.68349,1.24827 -2.80048,3.4926 -4.7269,4.41322c-1.33045,1.83847 -3.63844,3.44466 -5.64026,4.44558c-2.10114,1.40622 -3.92425,3.07661 -5.72846,4.86978c-0.08466,0.13305 -0.16933,0.2661 -0.25399,0.39915l-0.0118,0.01841c0,0 -0.13486,0.2105 -0.34537,0.07564z" stroke-width="0.5"/><path d="M288.89202,141.52022c-0.17678,-0.17677 0,-0.35356 0,-0.35356l0.12667,-0.1198c0.71997,-1.03908 2.43721,-2.11909 3.56158,-2.68587c2.18058,-1.30835 4.10852,-2.78046 5.90609,-4.57802c1.65798,-1.65798 3.89022,-4.50992 6.04305,-5.38284c0,0 0.23212,-0.09285 0.32497,0.13927c0.09285,0.23212 -0.13927,0.32496 -0.13927,0.32496c-2.06732,0.81377 -4.28543,3.68241 -5.87518,5.27216c-1.83089,1.83088 -3.79801,3.33015 -6.01904,4.66277c-0.99908,0.49507 -2.78762,1.57343 -3.38616,2.52492l-0.18914,0.196c0,0 -0.17677,0.17677 -0.35355,0z" stroke-width="0.5"/><path d="M286.82438,141.09191c0.01576,-0.0105 0.03152,-0.021 0.04728,-0.0315c2.08646,-1.54261 3.87104,-3.54657 5.98807,-5.09595c2.26301,-1.45314 4.16728,-3.48545 6.05913,-5.3773c0,0 0.17678,-0.17677 0.35356,0c0.17678,0.17677 0,0.35356 0,0.35356c-1.91458,1.91458 -3.84184,3.96218 -6.12965,5.43592c-2.11732,1.55033 -3.91274,3.52181 -5.98231,5.09194c-0.08086,0.05394 -0.16172,0.10788 -0.24258,0.16183l-0.16952,-0.33241l-0.10782,-0.08362c0.01622,-0.01081 0.03244,-0.0216 0.04865,-0.03241l-0.00781,-0.01531c0,0 0.05905,-0.05904 0.14301,-0.07476z" stroke-width="0.5"/><path d="M287.28976,138.967c-0.15,-0.2 0.05,-0.35 0.05,-0.35l0.32142,-0.24094c0.42867,-0.28319 0.72718,-0.67181 1.17481,-0.94038c1.68864,-1.69539 3.80045,-3.8917 5.77864,-5.22176c0,0 0.20801,-0.13868 0.34668,0.06933c0.13867,0.20801 -0.06934,0.34669 -0.06934,0.34669c-1.96888,1.29932 -4.06925,3.52725 -5.74829,5.19984c-0.45432,0.27259 -0.7588,0.66217 -1.19373,0.95445l-0.3102,0.23277c0,0 -0.2,0.15 -0.35,-0.05z" stroke-width="0.5"/></g><path d="M323.75986,125.4559l5.17032,-0.11883c0,0 1.01723,12.7356 -2.45037,12.56214c-3.73967,-0.18707 -2.71994,-12.44331 -2.71994,-12.44331z" fill="#000000" stroke="#000000" stroke-width="2" stroke-linecap="round"/><path d="M295.26543,125.33707c0,0 1.01723,12.7356 -2.45037,12.56213c-3.73967,-0.18706 -2.71994,-12.4433 -2.71994,-12.4433z" fill="#000000" stroke="#000000" stroke-width="2" stroke-linecap="round"/><g stroke="#000000" stroke-width="0"><path d="M352.05601,119.00715c0,0 0.37002,3.2798 -1.79339,6.3099c-0.69401,0.97203 -2.92766,1.51925 -2.92766,1.51925c0,0 -0.09125,-1.91275 -0.25286,-2.62842c-0.12617,-0.55878 -0.63705,-1.31258 -0.63705,-1.31258l-2.1612,2.66971c0,0 -0.87,-2.04659 -1.5584,-2.92861c-0.66696,-0.85455 -2.50974,-2.2837 -2.50974,-2.2837c0,0 -1.19654,1.67656 -1.81881,2.29883c-0.48998,0.48998 -1.61369,1.13367 -1.61369,1.13367c0,0 -0.04196,-0.8369 -0.16183,-1.25644c-0.13302,-0.46556 -0.60094,-1.41327 -0.60094,-1.41327c0,0 -1.63959,3.49771 -2.91017,4.70581c-1.31299,1.24842 -4.84473,2.66769 -4.84473,2.66769c0,0 -0.88516,-2.70533 -1.80132,-3.73142c-1.14934,-1.28726 -4.55515,-3.38782 -4.55515,-3.38782l-3.43249,3.17824c0,0 -0.36408,-1.81483 -2.42651,-2.93121c-2.03652,-1.10236 -5.76583,-1.50221 -6.68045,-2.15848c-1.03071,-0.73958 -1.30514,-1.79199 -1.30514,-1.79199c0,0 -1.50118,1.72291 -2.44409,2.55357c-0.81955,0.72198 -2.52648,1.65839 -2.52648,1.65839c0,0 0.22127,-0.82458 0.28537,-1.20912c0.06302,-0.37813 0.09602,-1.07921 0.09602,-1.07921c0,0 -1.12853,0.45631 -1.85423,0.68178c-0.97354,0.30248 -3.46507,0.9709 -3.46507,0.9709c0,0 1.12159,-1.43172 1.68252,-2.23622c0.62956,-0.90294 1.91277,-2.92028 1.91277,-2.92028c0,0 -8.63626,5.70044 -12.47442,7.63379c-7.51824,3.78708 -11.48171,2.09937 -11.48171,2.09937l5.48674,-2.63916c0,0 -4.90362,0.71493 -7.79666,-0.3248c-4.81056,-0.86044 -4.80932,-3.13826 -4.80932,-3.13826c0,0 3.02072,-0.25293 4.21882,-0.43726c0.94468,-0.14534 2.39191,-0.57977 2.39191,-0.57977c0,0 -1.10257,-0.18836 -1.70009,-0.36762c-0.66627,-0.19988 -2.11379,-0.77655 -2.11379,-0.77655c0,0 1.63764,-0.3277 2.24102,-0.53656c0.45754,-0.15838 1.06435,-0.6076 1.06435,-0.6076c0,0 -3.08162,-2.801 -3.65154,-5.46171c-1.3574,-6.33708 1.92464,-13.52164 1.92464,-13.52164l2.3378,1.30143c0,0 -0.94825,-1.41287 -1.14767,-2.14042c-0.2375,-0.8665 -0.18318,-2.71498 -0.18318,-2.71498c0,0 0.86896,1.19855 1.37363,1.51397c0.46834,0.29271 1.4208,0.78015 1.4208,0.78015c0,0 -0.4861,-1.92674 -0.621,-2.83248c-0.12435,-0.83488 -0.15932,-2.40667 -0.15932,-2.40667c0,0 1.6526,1.66305 2.31341,2.32385c0.6168,0.6168 2.1259,1.4517 2.1259,1.4517c0,0 0.53154,-11.80338 3.4909,-17.66696c6.30242,-13.92672 16.9638,-15.27575 16.9638,-15.27575c0,0 6.14427,2.14497 8.27204,2.7529c1.42156,0.40616 3.55694,0.82876 3.55694,0.82876c0,0 5.09338,-3.79961 12.25649,-4.06337c12.31996,-0.20209 20.77267,2.87193 20.77267,2.87193c0,0 -0.93812,16.83926 -1.10685,22.74474c-0.10625,3.71872 0.19211,9.27136 0.19211,9.27136c0,0 1.7293,-1.57653 2.5773,-2.07586c0.72586,-0.42741 2.20148,-0.73804 2.20148,-0.73804c0,0 -0.06285,3.42489 0.10011,5.24464c0.18346,2.04864 0.70452,6.44208 0.70452,6.44208c0,0 0.83873,1.96402 3.73801,2.12773c2.89928,0.1637 4.63379,-2.15295 4.63379,-2.15295c0,0 0.05237,1.89198 -0.72093,4.07471c-0.4599,1.98551 -1.91442,3.79981 -1.91442,3.79981c0,0 0.62098,1.60552 1.3787,2.41213c0.9846,1.04812 6.1093,4.74729 6.1093,4.74729c0,0 -1.57615,2.21398 -5.04565,3.48138c-4.09203,1.49482 -5.93092,0.8715 -5.93092,0.8715z" fill="url(#color-14)" stroke-linecap="round"/><path d="M352.05601,119.00715c0,0 0.02343,0.20763 0.02403,0.56668c-0.01403,0.01486 -0.02904,0.02938 -0.04508,0.04353c0,0 -0.17678,0.17678 0,0.35355c0.01183,0.01183 0.02367,0.02208 0.03545,0.03091c-0.05491,1.202 -0.37833,3.31312 -1.80778,5.31523c-0.69401,0.97203 -2.92766,1.51925 -2.92766,1.51925c0,0 -0.09125,-1.91275 -0.25286,-2.62842c-0.12617,-0.55878 -0.63705,-1.31258 -0.63705,-1.31258l-2.1612,2.66971c0,0 -0.87,-2.04659 -1.5584,-2.92861c-0.66696,-0.85455 -2.50974,-2.2837 -2.50974,-2.2837c0,0 -1.19654,1.67656 -1.81881,2.29883c-0.48998,0.48998 -1.61369,1.13367 -1.61369,1.13367c0,0 -0.04196,-0.8369 -0.16183,-1.25644c-0.13302,-0.46556 -0.60094,-1.41327 -0.60094,-1.41327c0,0 -1.63959,3.49771 -2.91017,4.70581c-1.31299,1.24842 -4.84473,2.66769 -4.84473,2.66769c0,0 -0.88516,-2.70533 -1.80132,-3.73142c-1.14934,-1.28726 -4.55515,-3.38782 -4.55515,-3.38782l-3.43249,3.17824c0,0 -0.36408,-1.81483 -2.42651,-2.93121c-2.03652,-1.10236 -5.76583,-1.50221 -6.68045,-2.15848c-1.03071,-0.73958 -1.30514,-1.79199 -1.30514,-1.79199c0,0 -1.50118,1.72291 -2.44409,2.55357c-0.81955,0.72198 -2.52648,1.65839 -2.52648,1.65839c0,0 0.22127,-0.82458 0.28537,-1.20912c0.06302,-0.37813 0.09602,-1.07921 0.09602,-1.07921c0,0 -1.12853,0.45631 -1.85423,0.68178c-0.97354,0.30248 -3.46507,0.9709 -3.46507,0.9709c0,0 1.12159,-1.43172 1.68252,-2.23622c0.62956,-0.90294 1.91277,-2.92028 1.91277,-2.92028c0,0 -8.63626,5.70044 -12.47442,7.63379c-7.51824,3.78708 -11.48171,2.09937 -11.48171,2.09937l5.48674,-2.63916c0,0 -4.90362,0.71493 -7.79666,-0.3248c-4.81056,-0.86044 -4.80932,-3.13826 -4.80932,-3.13826c0,0 3.02072,-0.25293 4.21882,-0.43726c0.94468,-0.14534 2.39191,-0.57977 2.39191,-0.57977c0,0 -1.10257,-0.18836 -1.70009,-0.36762c-0.66627,-0.19988 -2.11379,-0.77655 -2.11379,-0.77655c0,0 1.63764,-0.3277 2.24102,-0.53656c0.45754,-0.15838 1.06435,-0.6076 1.06435,-0.6076c0,0 -3.08162,-2.801 -3.65154,-5.46171c-0.18973,-0.88575 -0.28882,-1.78806 -0.3189,-2.685c0.7079,1.60842 1.69037,3.07358 2.82228,4.48826c0.71742,0.9532 2.18143,1.76405 3.35142,2.00083c0.22813,0.04617 2.07414,0.63327 1.98282,0.8462c-0.11744,0.27384 -0.51493,0.30066 -0.76273,0.46611c-0.31343,0.15937 -1.78581,0.73502 -1.68286,1.23706c0.0571,0.27844 1.97659,0.80591 2.59728,0.91085c-0.21642,0.06607 -0.54019,0.2213 -0.55898,0.23069c-0.51218,0.25609 -0.87547,0.34983 -1.17116,0.67622l-0.07618,-0.05714l-0.20304,0.27072c-0.03231,0.04212 -0.05152,0.09483 -0.05152,0.15202c0,0.13807 0.11193,0.25 0.25,0.25h0.25724c0.80539,0.13359 1.72296,0.13526 2.53834,0.13637c2.10421,0 4.21735,-0.08919 6.24775,-0.67224c-0.46996,0.49089 -0.91948,1.02521 -1.18341,1.63127c-0.00798,0.00401 -0.01597,0.00801 -0.02399,0.01202l-0.2782,0.1391c-0.08456,0.04009 -0.14304,0.12623 -0.14304,0.22603c0,0.13807 0.11193,0.25 0.25,0.25c0.04199,0 0.08156,-0.01035 0.1163,-0.02864l0.27855,-0.13927c0.35501,-0.1775 0.67299,-0.35253 1.00515,-0.57395c1.94656,-0.99175 5.43186,-2.72222 6.46583,-4.63268c1.01621,-2.34027 3.24494,-3.25835 5.72035,-3.25835c2.2317,0 3.49128,-0.46706 5.36182,-1.59052c0.08786,-0.05277 0.19871,-0.1131 0.31661,-0.18001c-0.12726,0.83166 -0.15608,2.09064 0.13409,2.29929c0.3175,0.2283 1.93141,-0.80672 2.04161,-0.5058c0.06981,0.19062 -0.0624,0.27683 -0.10229,0.40082c-0.00973,0.00952 -0.01941,0.01908 -0.02902,0.02869l0.00427,0.04758l-0.02542,-0.01271l-0.13927,0.27855c-0.01829,0.03474 -0.02864,0.07431 -0.02864,0.1163c0,0.13807 0.11193,0.25 0.25,0.25c0.0998,0 0.18594,-0.05848 0.22603,-0.14304l0.12521,-0.25041c0.57052,-0.55504 1.32234,-0.95363 1.69137,-1.69169c0.39751,-0.39045 1.56296,-2.10716 2.06155,-2.16054c0.34237,-0.03666 2.57716,2.85221 3.09653,3.19836c1.74883,1.76019 4.1079,1.33168 5.79055,2.85537l0.08588,0.17176c0.04009,0.08456 0.12623,0.14304 0.22603,0.14304c0.0998,0 0.18594,-0.05848 0.22603,-0.14304l0.1391,-0.2782c1.66484,-3.32967 1.76445,-1.38568 4.47636,-0.02972c1.22431,0.61216 2.8411,0.99343 3.92826,1.819c0.77001,0.58473 1.16145,1.3604 1.98597,1.74546c1.36368,-0.57993 1.94252,-1.47913 2.19398,-2.8075c0.00501,-0.02648 1.04785,0.51157 1.14513,0.53645c0.81548,0.20853 1.10881,0.50557 1.57446,-0.46892c0.00332,-0.16917 0.08413,-0.94177 -0.01842,-1.37959c0.37428,0.21142 0.93783,0.48761 1.18569,0.67582c0.95221,0.72308 1.92684,1.17932 3.00635,1.71907c0.79706,0.39666 1.91549,0.87117 2.78301,0.8749c0.53954,0.00232 1.14822,-0.55248 1.65856,-0.43063c0.97777,0.23345 1.45168,0.81732 2.42328,1.13564c1.16877,0.00812 1.85613,-1.24089 2.95459,-0.99412c0.51116,0.11483 1.05879,0.77599 0.91354,1.27796z" fill-opacity="0.06275" fill="#000000" stroke-linecap="butt"/><path d="M352.05601,119.00715c0,0 0.02342,0.20764 0.02402,0.56668c-0.01403,0.01486 -0.02904,0.02938 -0.04508,0.04353c0,0 -0.17678,0.17678 0,0.35356c0.01184,0.01184 0.02367,0.02208 0.03545,0.03091c-0.05491,1.202 -0.37833,3.31312 -1.80778,5.31523c-0.69401,0.97203 -2.92766,1.51925 -2.92766,1.51925c0,0 -0.09125,-1.91275 -0.25286,-2.62842c-0.12617,-0.55878 -0.63705,-1.31258 -0.63705,-1.31258l-2.1612,2.66971c0,0 -0.87,-2.04659 -1.5584,-2.92861c-0.66696,-0.85455 -2.50974,-2.2837 -2.50974,-2.2837c0,0 -1.19654,1.67656 -1.81881,2.29883c-0.48998,0.48998 -1.61369,1.13367 -1.61369,1.13367c0,0 -0.04196,-0.8369 -0.16183,-1.25644c-0.13302,-0.46556 -0.60094,-1.41327 -0.60094,-1.41327c0,0 -1.63959,3.49771 -2.91017,4.70581c-1.31299,1.24842 -4.84473,2.66769 -4.84473,2.66769c0,0 -0.88516,-2.70533 -1.80132,-3.73142c-1.14934,-1.28726 -4.55515,-3.38782 -4.55515,-3.38782l-3.43249,3.17824c0,0 -0.36408,-1.81483 -2.42651,-2.93121c-2.03652,-1.10236 -5.76583,-1.50221 -6.68045,-2.15848c-1.03071,-0.73958 -1.30514,-1.79199 -1.30514,-1.79199c0,0 -1.50118,1.72291 -2.44409,2.55357c-0.81955,0.72198 -2.52648,1.65839 -2.52648,1.65839c0,0 0.22127,-0.82458 0.28537,-1.20912c0.06302,-0.37813 0.09602,-1.07921 0.09602,-1.07921c0,0 -1.12853,0.45631 -1.85423,0.68178c-0.97354,0.30248 -3.46507,0.9709 -3.46507,0.9709c0,0 1.12159,-1.43172 1.68252,-2.23622c0.62956,-0.90294 1.91277,-2.92028 1.91277,-2.92028c0,0 -8.63626,5.70044 -12.47442,7.63379c-7.51824,3.78708 -11.48171,2.09937 -11.48171,2.09937l5.48674,-2.63916c0,0 -4.90362,0.71493 -7.79666,-0.3248c-4.81056,-0.86044 -4.80932,-3.13826 -4.80932,-3.13826c0,0 3.02072,-0.25293 4.21882,-0.43726c0.94468,-0.14534 2.39191,-0.57977 2.39191,-0.57977c0,0 -1.10257,-0.18836 -1.70009,-0.36762c-0.66627,-0.19988 -2.11379,-0.77655 -2.11379,-0.77655c0,0 1.63764,-0.3277 2.24102,-0.53656c0.45754,-0.15838 1.06435,-0.6076 1.06435,-0.6076c0,0 -1.5092,-1.37177 -2.61061,-3.10724c1.02334,0.8203 2.25859,1.45978 3.31979,1.99369c0.22853,0.11284 1.31064,0.54173 1.77235,0.48105c-0.24472,0.13453 -0.65395,0.37459 -0.71793,0.42328c-0.56975,0.43363 -1.24015,0.61579 -1.88122,0.93769l-0.34477,0.11492c-0.10216,0.03142 -0.17641,0.12653 -0.17641,0.23899c0,0.0998 0.05848,0.18594 0.14304,0.22603l0.23711,0.11856l0.07467,-0.14933l0.00542,-0.00181c0.73011,0.13395 1.79799,-0.22692 1.99665,0.4219c0.31588,1.03166 -2.9361,1.66979 -3.44721,1.79804c-0.39986,0.00145 -0.71544,0.12215 -1.11569,0.12579l-0.04525,0.03794l-0.00912,-0.01823l-0.23711,0.11856c-0.08456,0.04009 -0.14304,0.12623 -0.14304,0.22603c0,0.0998 0.05848,0.18594 0.14304,0.22603l0.23711,0.11856l0.01861,-0.03723c1.97165,1.31423 4.96902,0.60129 7.10029,1.27321c1.03398,-0.24203 2.07522,-0.20188 3.10393,-0.4937c0.1426,-0.04045 1.65101,-0.55576 1.61637,-0.34329c-0.10275,0.63031 -0.66879,1.15252 -0.94206,1.68514c-0.21842,0.43684 -0.50908,0.78724 -0.72586,1.20977l-0.11873,0.23746c-0.01829,0.03474 -0.02864,0.07431 -0.02864,0.1163c0,0.13807 0.11193,0.25 0.25,0.25c0.04199,0 0.08156,-0.01035 0.1163,-0.02864l0.23746,-0.11873l-0.01212,-0.02424c1.92143,-0.45426 4.09436,-1.8959 5.81904,-2.75824c2.18451,-1.09226 3.52964,-2.95712 5.49068,-4.26448c1.80183,-1.82415 3.97308,-2.19869 6.33237,-2.9806c0.18046,-0.06015 1.73275,-0.58671 2.22481,-0.90282c-0.13398,0.26199 -0.31255,0.72139 -0.34987,0.79581c-0.35257,0.70302 -0.76682,1.26709 -1.2024,1.92196l-0.00242,0.01616l-0.00496,-0.00248l-0.11873,0.23746c-0.01829,0.03474 -0.02864,0.07431 -0.02864,0.1163c0,0.13807 0.11193,0.25 0.25,0.25c0.04199,0 0.08156,-0.01035 0.1163,-0.02864l0.23746,-0.11873l-0.02342,-0.04684c0.90344,-0.29495 1.67273,-0.96422 2.44115,-1.5404c-0.27597,0.50663 -0.54597,1.22683 -0.47774,1.40367c0.27295,0.7074 3.32555,-0.69504 3.9879,-1.02621c0.97906,-0.48953 1.41896,-1.21891 2.02745,-1.95919c0.43509,1.3577 4.6162,2.1363 5.30391,2.4628c2.1179,0.02616 4.0332,0.81225 2.97925,2.91128l-0.11873,0.23746c-0.01829,0.03474 -0.02864,0.07431 -0.02864,0.1163c0,0.13807 0.11193,0.25 0.25,0.25c0.02969,0 0.05817,-0.00518 0.08459,-0.01467l0.3574,-0.11913l-0.00974,-0.02921c1.39872,-0.23439 2.55277,-0.87727 3.24818,-2.18822c1.02277,1.0459 4.86875,2.16622 5.70001,3.00387c0.19959,0.19625 1.28545,0.85065 1.25753,1.15398c-0.03406,0.37002 -0.35361,0.6932 -0.35627,1.13744l-0.09899,0.19799c-0.01829,0.03474 -0.02864,0.07431 -0.02864,0.1163c0,0.13807 0.11193,0.25 0.25,0.25c0.04199,0 0.08156,-0.01035 0.1163,-0.02864l0.22489,-0.11244c2.91285,-0.40995 3.47665,-1.0385 4.74122,-3.6808c-0.22597,-0.8273 1.54746,0.88469 1.59666,0.8994c0.96586,0.28878 1.32992,-1.1378 1.41419,-1.95399c0.32791,0.23158 0.8307,0.43383 1.00536,0.50226c1.14595,0.449 3.69804,-0.00948 4.34087,1.31643c0.11475,0.27916 -0.19387,0.87378 0.09954,1.08481c0.55141,0.3966 1.55284,-1.73358 2.10899,-1.5482c0.04336,0.01445 0.5617,0.92153 0.79447,1.06429c0.35094,0.21525 0.71704,0.13904 0.89644,0.5384c0.68606,0.68606 0.56973,0.88586 0.56103,1.7389l-0.11148,0.33443l0.10808,0.03603l-0.00234,0.25569c0.07477,-0.03776 0.14888,-0.07842 0.2223,-0.1218l0.08591,0.08591l0.24195,-0.24195l-0.03424,-0.03424c1.48475,-1.04726 2.65854,-3.17208 3.29726,-4.86637c0.29795,0.26715 0.50377,0.66766 0.40793,0.99888z" fill-opacity="0.06275" fill="#000000" stroke-linecap="butt"/><path d="M360.86492,105.01612c0,0 0.05237,1.89198 -0.72093,4.07471c-0.4599,1.98551 -1.91442,3.79981 -1.91442,3.79981c0,0 0.62098,1.60552 1.3787,2.41213c0.9846,1.04812 6.1093,4.74729 6.1093,4.74729c0,0 -1.57615,2.21398 -5.04565,3.48138c-2.75535,1.00653 -4.48914,1.05271 -5.32783,0.97548c1.09949,-0.59703 2.55432,-1.22219 3.45471,-1.98897c1.37956,-1.17485 1.96714,-2.42736 1.96714,-2.42736c0,0 -2.43369,-2.33063 -3.47625,-3.56491c-0.98199,-1.16257 -2.60829,-3.6385 -2.60829,-3.6385c0,0 4.64158,-3.41986 4.29391,-6.32945c1.21352,-0.63862 1.88961,-1.54162 1.88961,-1.54162z" fill-opacity="0.06275" fill="#000000" stroke-linecap="butt"/><path d="M360.86492,104.96254c0,0 0.05237,1.89198 -0.72093,4.07471c-0.4599,1.98551 -1.91442,3.79981 -1.91442,3.79981c0,0 0.62098,1.60552 1.3787,2.41213c0.9846,1.04812 6.1093,4.74729 6.1093,4.74729c0,0 -1.57615,2.21398 -5.04565,3.48138c-1.99204,0.72769 -3.45013,0.95342 -4.42204,0.99345c1.44618,-0.4231 3.71214,-1.60964 4.76236,-2.35238c1.1283,-0.79796 2.78348,-2.22071 2.78348,-2.22071c0,0 -1.73837,-0.69359 -2.67022,-1.4171c-0.93185,-0.7235 -2.42428,-1.99673 -3.88827,-3.46072c-0.39833,-0.53111 -1.66448,-1.93674 -1.66448,-1.93674c0,0 1.89321,-1.24167 2.74709,-2.37571c1.23302,-1.64436 1.67242,-3.00661 1.74179,-4.93442c0.52321,-0.43691 0.80329,-0.811 0.80329,-0.811z" fill-opacity="0.06275" fill="#000000" stroke-linecap="butt"/></g><path d="M330.4956,119.77922h-8.71681" fill="none" stroke="#000000" stroke-width="2" stroke-linecap="round"/><path d="M300.7015,151.0684c0,0 -1.2454,-5.67911 0.83648,-5.66414c4.14592,0.02983 22.45782,5.83172 22.45782,5.83172c0,0 -17.25024,1.72777 -21.11586,1.69996c-1.5847,-0.0114 -2.17843,-1.86754 -2.17843,-1.86754z" fill="#ffffff" stroke="#000000" stroke-width="2" stroke-linecap="round"/></g></g></svg>