<svg version="1.1" xmlns="http://www.w3.org/2000/svg" xmlns:xlink="http://www.w3.org/1999/xlink" width="116.04127" height="214.05622" viewBox="0,0,116.04127,214.05622"><g transform="translate(-195.63718,-102.81302)"><g stroke="none" stroke-miterlimit="10"><g><path d="M297.14179,211.65971c0.47669,0.74124 0.73398,2.10485 0.77185,4.09083l0.1332,14.51721c0.14691,5.46844 0.14299,9.6292 -0.01178,12.48229c-0.01242,3.72021 -0.37844,9.43339 -1.09807,17.13953l-3.13841,26.43308c-1.16825,5.46843 -2.24736,9.38444 -3.23732,11.74804c-0.5851,1.48249 -1.12938,2.59436 -1.63286,3.3356l-2.78869,3.35657c-3.27943,3.23071 -5.80822,5.53138 -7.58637,6.90198c-2.97382,2.34961 -5.81148,3.83908 -8.51299,4.46844l-5.6714,0.54545c-17.24276,0.62936 -31.30634,-0.3007 -42.19073,-2.79015c-5.06932,-1.11885 -8.88259,-2.7342 -11.43977,-4.84605c-1.64688,-1.23075 -2.85268,-2.4685 -3.61734,-3.71323c-1.31124,-1.37061 -2.51996,-3.17476 -3.62616,-5.41248c-1.47188,-3.10483 -2.24177,-7.88097 -2.30967,-14.3284c-0.17761,-6.33555 -0.06333,-11.67812 0.34285,-16.02768c0.49042,-6.44743 2.34499,-16.87381 5.5637,-31.27913c1.11013,-4.7132 2.04263,-8.18867 2.79752,-10.42638c3.18475,-8.19565 5.30901,-14.46826 6.37277,-18.81783c0.37353,-1.60836 0.76239,-2.78317 1.16662,-3.52441c0.67391,-1.37061 1.51303,-2.11883 2.51736,-2.24471c0.466,-0.06571 0.98004,0.00579 1.54214,0.21451c12.49448,8.56861 25.9834,14.72811 41.95256,14.95824c7.02609,0.10125 15.34442,0.44407 22.44661,-2.51564c3.39786,-1.416 7.19844,-2.98186 10.78897,-4.99833c0.1742,0.21641 0.32936,0.46063 0.46544,0.73269z" fill="#cccccc"/><path d="M302.34204,207.19125c-0.60208,6.44743 -1.17937,21.53107 -1.73185,45.25091c-0.04832,3.97195 -0.18448,7.7551 -0.40848,11.34945c0.0529,0.62936 0.03886,1.3776 -0.04212,2.24472l-0.13909,1.48949c-0.63148,11.41237 -1.59697,21.15345 -2.89648,29.22323l-0.32423,1.6783c-0.38659,1.74822 -0.77578,2.99295 -1.16759,3.7342c-1.04286,1.73424 -2.44521,2.60135 -4.20704,2.60135c-1.73831,-0.25175 -2.86149,-1.24472 -3.36953,-2.97896c-0.22986,-0.993 -0.175,-2.11185 0.16456,-3.35658l1.23028,-7.99286c0.62167,-1.87409 1.08434,-3.30762 1.38799,-4.30062c0.93642,-2.85309 1.59008,-6.26561 1.96101,-10.23757c0.06922,-0.74124 0.34382,-4.27963 0.82378,-10.61519c0.21223,-3.46847 0.33043,-7.12575 0.3546,-10.97182l1.27148,-41.91531c-4.97661,3.7342 -10.46158,6.46841 -16.45492,8.20264c-7.12109,1.98597 -15.94719,2.1678 -26.4783,0.54544c-10.5089,-1.86011 -18.63498,-4.52439 -24.37821,-7.99286c-3.22652,-1.98597 -6.04493,-4.22369 -8.45518,-6.71315c-6.04691,16.3913 -10.65295,33.89449 -13.81813,52.50951c0.27622,0.62936 0.31573,1.99997 0.11852,4.11181c-0.89137,5.95793 -1.57868,12.72003 -2.06191,20.28634c0.00717,1.11885 0.00588,2.86009 -0.00392,5.22368c0.46756,3.23071 0.54362,5.4055 0.22822,6.52436c-0.46168,1.35661 -1.10654,2.3496 -1.93456,2.97896c-0.40421,0.74124 -1.05853,1.23774 -1.96295,1.48949c-1.26096,0.61537 -2.36847,0.11888 -3.32252,-1.48949c-0.08815,-0.25175 -0.17043,-0.56642 -0.24684,-0.94403c-0.27752,-0.61537 -0.48128,-1.35662 -0.61122,-2.22374c0.03527,-0.37761 0.00882,-0.6923 -0.07934,-0.94403c-0.35262,-4.46145 -0.08716,-10.29351 0.79637,-17.49617c1.11992,-10.79699 3.09074,-22.46811 5.91242,-35.01333c2.79883,-12.16762 6.38942,-24.6429 10.77181,-37.42588c0.33429,-1.11477 0.70173,-2.05125 1.10231,-2.80944c0.00665,0.00227 0.01329,0.00454 0.01995,0.00681c1.46389,0.49936 3.0105,0.58975 4.5901,0.50196c13.19899,9.47349 27.41688,16.47259 44.45973,16.71819c7.02609,0.10125 15.34442,0.44407 22.44661,-2.51564c5.28162,-2.20102 11.53626,-4.76412 16.46258,-8.81885c-0.00263,0.02822 -0.00527,0.05648 -0.00791,0.08476z" fill="#000000"/></g><path d="" fill="#000000"/><path d="" fill="#000000"/><path d="" fill="#000000"/><path d="" fill="#000000"/><path d="" fill="#000000"/><g><path d="" fill="#000000"/><path d="" fill="#000000"/><path d="" fill="#000000"/><path d="" fill="#000000"/><path d="" fill="#e16f6f"/><path d="" fill="#c2e16f"/><path d="" fill="#6f7ce1"/></g><path d="M295.63536,152.03859c3.13198,4.48239 6.19166,10.69556 9.17905,18.6395c1.14682,3.53804 1.78342,5.66983 1.9098,6.39538c0.36013,1.44445 0.55249,3.44865 0.57709,6.01259c0.23999,6.91533 -0.57853,12.35715 -2.45552,16.32545c-1.79003,3.84463 -5.61822,8.30955 -11.48459,13.39477l-4.04956,3.4364c-4.86698,3.416 -11.85427,5.7002 -20.96188,6.85258c-1.25216,0.21811 -3.14186,0.44479 -5.66911,0.68004c-3.06254,0.20791 -7.61091,0.19233 -13.64509,-0.04671c-1.71474,-0.0148 -3.27835,-0.06196 -4.69087,-0.14147c1.53618,0.16648 3.11815,0.31896 4.74591,0.45743l6.34566,0.50432c3.8025,0.30223 6.38582,0.38881 7.74993,0.25971c1.28681,-0.01917 3.27598,-0.26318 5.96753,-0.73202l15.74552,-2.7427c1.80103,-0.73573 3.66348,-2.01872 5.58736,-3.84896c2.30846,-2.11427 3.85979,-3.34908 4.65396,-3.70446c2.23171,-0.98682 3.99396,-0.90968 5.28675,0.23143c-0.13258,0.15361 -0.26094,0.30195 -0.38491,0.44412c-1.10144,1.26311 -2.61828,1.6551 -3.5337,2.93497c-0.1489,0.20818 -0.3301,0.67498 -0.51975,1.26806c-1.94117,1.05921 -3.85693,1.90122 -5.24257,2.25391c-3.02569,0.77011 -5.45962,3.82046 -8.49399,4.51794c-5.07377,1.16626 -10.26775,2.64394 -15.51893,3.86485c-6.46359,-0.92642 -13.24637,0.70996 -19.72032,-0.24933c-1.98516,-0.29415 -4.9838,0.44243 -6.83837,-0.42086c-5.14217,-2.39365 -10.34944,-4.33379 -15.49095,-6.60242c-0.12612,-0.13897 -0.25694,-0.27329 -0.39214,-0.40275c0.34861,-0.83164 0.88937,-1.35463 1.6223,-1.56895c0.81252,-0.25005 1.90907,-0.11551 3.28964,0.40363c-3.13472,-1.38315 -5.85535,-3.15796 -8.16191,-5.32442c-1.9376,-1.91723 -4.03725,-4.7648 -6.29896,-8.5427l-1.9251,-3.67979c-0.19502,-0.49656 -0.55547,-2.25444 -1.08139,-5.27365l-0.68694,-5.81259c-0.6769,-6.30871 -0.97049,-11.0745 -0.88078,-14.2974c0.14309,-5.26991 1.10047,-9.87984 2.87215,-13.82979c0.63314,-1.27986 2.15151,-3.9498 4.55511,-8.00982c0.73642,-1.3099 2.73844,-4.87194 6.00606,-10.6861c0.78874,-1.63251 1.45654,-2.71343 2.00338,-3.24275c0.28131,-0.25398 1.43792,-0.98597 3.46983,-2.19599c5.35062,-2.4392 9.39455,-4.10821 12.13177,-5.00701c6.79983,-2.14905 13.58776,-3.12043 20.3638,-2.91414c2.37369,0.12912 4.51642,0.4552 6.42821,0.97827l3.42112,1.15843c10.65395,4.67932 18.72575,10.76699 24.21541,18.26302z" fill="#cccccc"/><path d="M264.18429,127.33125c7.27342,1.19277 14.20792,4.10849 20.80349,8.74718c6.0892,4.29282 11.41012,9.67804 15.96277,16.15565c4.52969,6.27663 7.59658,12.80806 9.20068,19.5943c2.73068,10.76186 1.7995,21.09452 -2.79352,30.99792c-0.93265,1.98313 -1.94215,3.87113 -3.02851,5.664c0.06291,0.36116 0.12661,0.72688 0.19111,1.09714c-1.78317,1.6795 -3.32141,3.54226 -4.47794,4.86855c-0.28984,0.33238 -0.60844,0.60445 -0.93728,0.84824l-0.032,-0.12888c-0.16479,0.16755 -0.3309,0.33373 -0.49834,0.49854c-0.7588,0.50542 -1.5196,0.95304 -2.06607,1.71707c-0.0573,0.08011 -0.11938,0.19851 -0.18488,0.34767c-0.84167,0.71928 -1.71272,1.40818 -2.6131,2.06672c-1.1066,0.50663 -2.13128,0.89554 -2.96434,1.10758c-3.02569,0.77011 -5.45962,3.82046 -8.49399,4.51794c-4.39835,1.01101 -8.88705,2.25605 -13.42504,3.36496c-1.12496,0.1315 -2.28047,0.24491 -3.4665,0.34026c-4.1262,-0.37452 -8.36297,0.13554 -12.55008,0.21396c-6.1627,-0.24017 -11.4117,-0.94709 -15.74698,-2.12078c-4.12415,-1.79151 -8.27304,-3.39405 -12.37997,-5.20618c-0.17072,-0.18811 -0.35003,-0.36771 -0.53721,-0.53826c-0.61513,-1.38697 -2.17758,-2.52758 -3.92784,-3.3068c-1.78518,-1.63168 -3.3632,-3.4522 -4.73405,-5.46157c-3.06335,-4.71138 -5.40877,-12.32705 -7.03627,-22.84702c-1.12861,-7.72514 -1.49048,-13.81743 -1.08564,-18.27684c0.81904,-8.17292 3.96301,-15.94296 9.43189,-23.31013c4.769,-6.40124 11.08022,-11.94375 18.93363,-16.62753c4.44842,-2.70405 8.34353,-4.29287 11.68534,-4.76647c1.66174,-0.28946 3.57896,-0.35815 5.75167,-0.20608zM276.21272,138.23996c-7.92097,-4.28725 -16.07247,-5.91787 -24.45452,-4.89187c-5.0382,0.56411 -9.64773,2.06636 -13.82857,4.50678c-4.80107,2.54845 -9.41121,6.5045 -13.83041,11.86817c-3.45175,4.13408 -5.97318,8.10612 -7.56426,11.91609c-2.96253,6.94265 -3.58148,16.57583 -1.85683,28.89954c1.25499,8.45069 3.50214,14.9139 6.74149,19.38966c4.03231,5.29016 9.71404,9.00889 17.04521,11.15619c5.29572,1.53726 12.03982,2.18318 20.23229,1.93777c10.04258,-0.14567 17.97931,-1.58242 23.81018,-4.31025c6.17689,-2.67959 11.33191,-6.89935 15.46505,-12.65931c4.13518,-5.74825 6.52574,-11.99443 7.17166,-18.73852c0.9801,-10.98623 -2.41335,-21.84969 -10.18033,-32.59036z" fill="#000000"/><path d="M271.45313,160.75432l1.42467,-1.06204l0.90282,-0.32004l0.44948,-0.22298c0.68885,-0.33702 1.32641,-0.3456 1.91265,-0.0257l0.68696,0.20589c0.371,0.26093 0.56567,0.44405 0.58402,0.54937l0.50837,0.21891l0.24054,0.44642l0.37507,1.21879l0.21302,0.28844l0.10702,0.61437l0.34756,1.0608c0.25398,0.28131 0.30902,0.59727 0.16511,0.94789l-0.07848,0.48391l-0.26093,0.371l-0.10294,0.34348l-0.50735,0.72139l-0.54937,0.58402l-0.55933,0.42298l-3.12453,0.54426l-0.64189,-0.05096l-0.371,-0.26093c-0.10532,0.01835 -0.34348,-0.10294 -0.71448,-0.36387l-0.72139,-0.50735l-0.50554,-1.03329l-0.15798,0.02752l-0.51674,-2.96655l0.07543,-0.50146z" fill="#000000"/><path d="M236.01246,163.70836l1.2463,-0.21709l0.64189,0.05096l0.68696,0.20589c0.48093,0.33824 0.77405,0.49818 0.87938,0.47983l0.42604,0.57689l0.15798,-0.02752c-0.08698,0.12367 -0.00781,0.26663 0.23748,0.42887l0.05504,0.31596l0.26806,0.60441l-0.05096,0.64189l0.08256,0.47394l-0.07848,0.48391l-0.15798,0.02752l-0.02039,0.81742l-0.15798,0.02752l-0.20895,0.66941l-0.1333,0.99987l-0.2915,0.19546l-0.52185,0.742l-1.88412,1.12399l-1.2463,0.21709c-0.62022,0.10804 -1.10565,0.0901 -1.45626,-0.0538l-0.66941,-0.20895c-0.371,-0.26093 -0.60917,-0.38221 -0.71448,-0.36387l-0.21302,-0.28844l-0.05198,-0.29841l-0.35344,-0.26398l-0.16206,-0.93034l-0.21302,-0.28844c0.05029,-0.33431 0.0581,-0.60093 0.02344,-0.79988l-0.11007,-0.63192l0.29433,-1.00984c0.42129,-0.07338 0.59523,-0.32071 0.52185,-0.742l0.15798,-0.02752c0.25126,-0.35726 0.35854,-0.64121 0.32185,-0.85186l0.41891,-0.39852l1.82908,-1.43995z" fill="#000000"/><g><path d="M219.99483,159.28209l-0.28844,0.21302c-0.12367,-0.08698 -0.20385,-0.23579 -0.24054,-0.44642c0.14201,0.19229 0.31834,0.2701 0.52898,0.23341M256.60355,128.97728c0.00271,0.63857 -0.19019,1.36547 -0.57871,2.18071l0.1855,0.13046c-0.19229,0.14201 -0.36625,0.38935 -0.52185,0.742c-1.07738,1.15226 -1.95913,2.21619 -2.64527,3.19179c-0.54888,0.51762 -1.04993,1.03294 -1.50315,1.54595c-0.10532,0.01835 -0.2048,0.03567 -0.29841,0.05198l-1.02637,0.64902l-1.51006,1.40246l-0.26398,0.35344l-0.44642,0.24054l-3.33224,2.98589l-2.65342,1.27607c-0.17598,0.23564 -0.23646,0.51143 -0.18143,0.8274c-0.29762,0.16036 -0.58021,0.37236 -0.84779,0.636l-0.52898,-0.23341l-1.69273,0.45763l-1.03329,0.50554l-0.13352,0.16794l-0.31596,0.05504l-5.68725,4.20999l0.05504,0.31596c0.01835,0.10532 0.04485,0.25745 0.0795,0.45639c-0.40958,0.07134 -0.80667,0.24903 -1.19127,0.53306l-0.11291,0.18244l-0.31596,0.05504c-0.68885,0.33702 -1.27823,0.65672 -1.76815,0.95909l-1.32479,0.701c-0.60187,0.21336 -1.16945,0.31223 -1.70269,0.29659l-2.13915,0.69817c0.17395,-0.24733 0.40973,-0.45118 0.70735,-0.61154c-0.81252,0.25005 -1.53807,0.37643 -2.17664,0.37915c-0.7719,-0.07052 -1.53218,-0.42039 -2.28082,-1.0496c-0.6046,-0.42522 -1.17155,-0.91124 -1.70088,-1.45808c-1.03063,-1.0021 -1.82446,-2.2022 -2.38149,-3.60029c-0.35537,-0.79418 -1.04233,-2.86897 -2.06087,-6.22438c-0.01835,-0.10532 -0.03669,-0.21064 -0.05504,-0.31596c-0.01835,-0.10532 -0.08018,-0.14881 -0.1855,-0.13046c-0.89677,-2.72552 -1.67538,-5.0496 -2.33584,-6.97227l-3.38971,-12.08793l0.45743,-4.74591l0.62378,-2.02578l-0.88082,-8.6907c0.26296,-0.3593 0.41959,-0.7061 0.46987,-1.04042c0.08698,-0.12367 0.15995,-0.29313 0.21891,-0.50837c0.08698,-0.12367 0.21744,-0.30917 0.39139,-0.5565c0.05029,-0.33431 0.25372,-0.68926 0.6103,-1.06488l0.28844,-0.21302l0.15798,-0.02752c0.26093,-0.371 0.53434,-0.63567 0.82027,-0.79398l4.45746,0.67045c0.01835,0.10532 0.08018,0.14881 0.1855,0.13046l0.02752,0.15798c0.01835,0.10532 0.08018,0.14881 0.1855,0.13046l0.15798,-0.02752l2.78919,1.26851c0.21729,0.07067 0.54575,0.12197 0.98538,0.15391l0.21302,0.28844l1.91978,0.94971l7.22627,2.75638c0.95725,0.58082 1.92368,1.2143 2.89926,1.90043c2.97707,1.72411 7.36589,4.49245 13.16647,8.30502c5.60352,3.30431 8.58161,5.03427 8.93427,5.18988c1.88256,1.60127 2.87922,3.0313 2.98997,4.2901M224.80151,113.15711c-2.97707,-1.72411 -5.78563,-3.10379 -8.42567,-4.13904c-0.82898,-0.39819 -1.6854,-0.67705 -2.56926,-0.83658c-0.02228,0.42589 -0.04021,0.91131 -0.0538,1.45626l-0.26398,0.35344c-0.10532,0.01835 -0.28844,0.21302 -0.54937,0.58402l-0.27089,0.20996c-0.09514,1.94576 -0.14875,4.0953 -0.16084,6.4486c0.10532,-0.01835 0.16715,0.02514 0.1855,0.13046c-0.00816,1.82209 0.09817,3.6785 0.319,5.56922c0.17938,1.0298 0.79669,3.32774 1.85192,6.89378l2.2013,6.19992l1.85375,5.13911c0.62376,1.71202 1.24848,3.15258 1.87414,4.32169c0.58707,1.50138 1.15777,2.63182 1.71208,3.39135l0.5565,0.39139c0.21064,-0.03669 0.50241,-0.19603 0.8753,-0.47802c2.48242,-2.3616 5.70057,-4.79107 9.65447,-7.2884l2.59838,-1.59203l7.85698,-4.73262c2.93141,-1.58373 5.00545,-3.17487 6.22212,-4.7734c0.27927,-0.26568 0.44405,-0.56567 0.49433,-0.89998c-0.053,-0.30426 -0.265,-0.58685 -0.636,-0.84779c-2.48444,-1.38791 -4.67474,-2.61002 -6.57089,-3.66634c-3.49008,-2.17733 -6.20155,-3.89948 -8.13439,-5.16644c-0.95725,-0.58082 -1.75652,-1.18915 -2.3978,-1.82501c-2.16183,-1.33559 -4.06818,-2.45042 -5.71904,-3.34448c-0.87027,-0.70449 -1.70487,-1.20418 -2.5038,-1.49908M234.34869,144.08531c0.38663,-0.27233 0.71958,-0.54132 0.99885,-0.807c-0.29762,0.16036 -0.58606,0.37338 -0.86533,0.63906c-1.87631,0.85736 -3.14155,1.55402 -3.79576,2.08999c-0.47157,0.40769 -0.8035,0.68255 -0.99579,0.82456c1.5537,-0.90968 3.10637,-1.82522 4.65804,-2.7466z" fill="#000000"/><path d="M213.75277,109.63776c0.01359,-0.54496 0.03153,-1.03038 0.0538,-1.45626c0.88387,0.15953 1.74029,0.43839 2.56926,0.83658l-3.68265,8.34617c-0.01835,-0.10532 -0.08018,-0.14881 -0.1855,-0.13046c0.01209,-2.3533 0.0657,-4.50284 0.16084,-6.4486l0.27089,-0.20996c0.26093,-0.371 0.44405,-0.56567 0.54937,-0.58402l0.26398,-0.35344M233.02436,118.00068l-12.23107,27.4873c-0.62566,-1.16911 -1.25037,-2.60966 -1.87414,-4.32169l-1.85375,-5.13911l10.23991,-21.37097c1.65086,0.89407 3.55721,2.0089 5.71904,3.34448M250.26911,130.40623c-1.21667,1.59854 -3.29071,3.18967 -6.22212,4.7734l-7.85698,4.73262l7.36655,-14.92013c1.89616,1.05632 4.08645,2.27842 6.57089,3.66634c0.371,0.26093 0.583,0.54352 0.636,0.84779c-0.05029,0.33431 -0.21506,0.6343 -0.49433,0.89998z" fill="#e16f6f"/><path d="M243.55655,124.99211l-7.36655,14.92013l-2.59838,1.59203c-3.9539,2.49734 -7.17206,4.92681 -9.65447,7.2884c-0.37289,0.28198 -0.66466,0.44133 -0.8753,0.47802l-0.5565,-0.39139c-0.55431,-0.75952 -1.12501,-1.88997 -1.71208,-3.39135l12.23107,-27.4873c0.64129,0.63585 1.44056,1.24419 2.3978,1.82501c1.93285,1.26696 4.64431,2.9891 8.13439,5.16644z" fill="#c2e16f"/><path d="M217.06541,136.02718l-2.2013,-6.19992c-1.05524,-3.56605 -1.67254,-5.86398 -1.85192,-6.89378c-0.22082,-1.89072 -0.32716,-3.74713 -0.319,-5.56922l3.68265,-8.34617c2.64005,1.03525 5.4486,2.41494 8.42567,4.13904c0.79893,0.2949 1.63353,0.7946 2.5038,1.49908z" fill="#6f7ce1"/></g><path d="M233.79242,193.05994c3.07689,1.99368 6.13242,3.1628 9.16657,3.50735c3.78562,0.51316 9.73637,0.09204 17.85229,-1.26336c2.79904,-0.40508 5.63568,-0.87941 8.5099,-1.423c1.54286,-0.2918 3.24452,-0.64469 5.10495,-1.05869c0.84662,-0.2844 2.08998,-0.79577 3.73004,-1.53405c2.2184,-0.78552 4.03566,-1.52626 5.45177,-2.22221c-0.0368,-0.11733 -0.00841,-0.21592 0.08518,-0.29576l2.66115,-1.6012c0.26831,-0.23718 0.6972,-0.71878 1.28667,-1.44483l0.74035,-1.61079c0.71986,-0.68855 1.17738,-1.07891 1.37254,-1.17106c0.31913,-0.49538 1.025,-1.06045 2.11762,-1.6952c0.89299,-0.47273 1.72224,-0.81253 2.48772,-1.01945c1.50607,-0.40913 2.72661,-0.42591 3.66161,-0.05033c0.91659,0.31691 0.97919,0.70557 0.18776,1.16598c0.05316,0.16948 -0.01386,0.33407 -0.20102,0.49376c-1.80887,2.42745 -3.53515,4.19365 -5.17888,5.29859c-2.34517,1.85218 -6.48377,3.95376 -12.41576,6.30476l-3.16855,1.05499c-0.94019,0.36425 -3.23314,0.89111 -6.8788,1.58062c-7.62726,1.44252 -13.60084,2.35821 -17.92073,2.74709c-6.91337,0.69294 -12.32325,0.61126 -16.22965,-0.24501c-1.74322,-0.347 -3.1741,-0.81179 -4.29265,-1.39433c-1.23051,-0.56137 -2.62639,-1.46088 -4.18766,-2.69855l-0.17691,-0.05977c-0.0368,-0.11733 -0.27916,-0.13364 -0.7271,-0.04893l-0.66646,-0.42292l-0.87642,-0.02069c-0.01841,-0.05866 -0.13958,-0.06683 -0.36355,-0.02447l-1.04438,0.01108l-1.29209,-0.21138l-0.44328,-0.27868l-0.35029,-1.6842l0.22555,-0.41554l0.37792,-0.43399l0.50392,-0.0953c0.86865,-0.59239 1.98081,-0.95465 3.33653,-1.08676c0.55991,-0.10589 1.0842,-0.11528 1.57284,-0.02817c0.92022,-0.04974 1.71266,0.2285 2.37729,0.83475l1.8434,1.40181l1.29209,0.21138l0.33357,0.49622z" fill="#000000"/></g></g></svg>