<svg version="1.1" xmlns="http://www.w3.org/2000/svg" xmlns:xlink="http://www.w3.org/1999/xlink" width="275.43657" height="253.22501" viewBox="0,0,275.43657,253.22501"><g transform="translate(-102.67983,-53.3875)"><g data-paper-data="{&quot;isPaintingLayer&quot;:true}" fill-rule="nonzero" stroke-linejoin="miter" stroke-miterlimit="10" stroke-dasharray="" stroke-dashoffset="0" style="mix-blend-mode: normal"><path d="M255.62757,200.33376c-0.57113,0 -1.03411,-0.46299 -1.03411,-1.03411c0,-0.57113 0.46299,-1.03413 1.03411,-1.03413c0.57113,0 1.03411,0.463 1.03411,1.03413c0,0.57113 -0.46299,1.03411 -1.03411,1.03411z" fill="#000000" stroke="none" stroke-width="1.5" stroke-linecap="butt"/><path d="M250.36768,204.56936c-4.4635,-0.31439 -6.55245,-1.79392 -6.16985,-2.58011c0.11788,-0.24224 2.84645,1.06355 6.97038,1.3048c6.40897,0.37493 8.51033,-0.63173 8.51033,-0.63173v1.34616c0,0 -2.4135,1.04672 -9.31086,0.56089z" fill="#000000" stroke="#000000" stroke-width="0" stroke-linecap="butt"/><path d="M222.55493,199.29965c0,-0.57113 0.46299,-1.03413 1.03411,-1.03413c0.57113,0 1.03413,0.463 1.03413,1.03413c0,0.57113 -0.463,1.03411 -1.03413,1.03411c-0.57113,0 -1.03411,-0.46299 -1.03411,-1.03411z" fill="#000000" stroke="none" stroke-width="1.5" stroke-linecap="butt"/><path d="M228.84893,204.56936c-6.89736,0.48585 -9.31086,-0.56089 -9.31086,-0.56089v-1.34616c0,0 2.10136,1.00666 8.51033,0.63173c4.12393,-0.24126 6.85251,-1.54704 6.97039,-1.3048c0.3826,0.78618 -1.70634,2.26571 -6.16985,2.58011z" fill="#000000" stroke="#000000" stroke-width="0" stroke-linecap="butt"/><path d="M118.85297,306.61251v-253.22501h259.26344v253.22501z" fill-opacity="0.01" fill="#000000" stroke="none" stroke-width="0" stroke-linecap="butt"/><path d="M135.19291,304.39158c0,0 -1.80656,-94.38387 -2.25578,-118.01201c-0.15499,-8.15261 23.27826,-36.76129 114.30883,-36.9211c89.85689,-0.15775 113.32705,29.48704 113.30465,36.89673c-0.21778,46.24274 1.86038,117.98648 1.86038,117.98648l-29.84582,0.09614l-0.45158,-114.84311c0,0 0.21465,-3.0993 -8.00761,-3.15415c-9.76527,-0.06514 -8.37478,3.11562 -8.37478,3.11562l0.58426,114.86995l-137.08885,0.07222l-0.86833,-115.23309c0,0 0.79469,-2.919 -8.2048,-2.93443c-8.84521,-0.01515 -8.00602,2.90899 -8.00602,2.90899l1.00402,115.0668z" fill="#808080" stroke="#000000" stroke-width="2" stroke-linecap="butt"/><path d="M246.36546,261.12113c-2.32857,0 -4.21625,-0.66389 -4.21625,-1.48284c0,-0.81895 1.88768,-1.48284 4.21625,-1.48284c2.32857,0 4.21625,0.66389 4.21625,1.48284c0,0.81895 -1.88768,1.48284 -4.21625,1.48284z" data-paper-data="{&quot;index&quot;:null}" fill="#000000" stroke="none" stroke-width="1.5" stroke-linecap="butt"/><path d="M177.94492,304.40602v-119.20147c0,0 2.15302,-9.73105 2.15302,-14.63937c0,-4.498 -2.15302,-13.6872 -2.15302,-13.6872c0,0 7.60084,-2.35297 13.23783,-3.74807c5.63699,-1.3951 14.70578,-2.80371 14.70578,-2.80371c0,0 -1.71057,40.10902 41.39797,40.03867c43.88663,-0.07162 39.32807,-40.03867 39.32807,-40.03867c0,0 11.12539,1.51959 17.53174,2.94655c6.40635,1.42695 13.51674,3.60523 13.51674,3.60523c0,0 -2.15302,9.42463 -2.15302,14.19201c0,4.84193 2.15302,14.63937 2.15302,14.63937v118.69667z" fill="#808080" stroke="#000000" stroke-width="2" stroke-linecap="butt"/><path d="M102.67984,151.28928c0,0 10.42651,-9.93805 10.39758,-10.84546c-0.07589,-2.37993 -13.64839,-37.78535 58.5227,-64.61516c89.41978,-32.37107 90.13559,5.81101 97.45985,10.49005c10.04268,6.41567 18.14078,12.07121 18.14078,12.07121c0,0 -6.24261,0.01584 -9.23894,-0.07705c-2.79465,-0.08663 -8.68353,-0.28469 -8.68353,-0.28469c0,0 9.64217,7.5815 9.49223,18.60053c0.00113,10.04823 -8.96163,21.40394 -8.96163,21.40394l-3.09986,-1.39927c0,0 -1.32735,2.79568 -3.23758,4.66927c-1.91025,1.87358 -5.947,5.17561 -5.947,5.17561l-1.4124,-3.42998c0,0 -10.54061,15.37931 -45.34449,27.44669c-32.86148,11.26964 -55.94294,8.33189 -55.94294,8.33189l0.6461,2.58689c0,0 -8.91983,-0.35741 -15.64174,-4.79563c-8.01172,-5.28985 -10.5683,-9.26486 -10.5683,-9.26486c0,0 -4.07245,3.44305 -10.57241,6.65337c-8.14482,4.02272 -13.84891,5.22944 -13.84891,5.22944c0,0 6.35194,-5.11055 9.64371,-8.44219c2.93205,-2.96756 4.20081,-5.05468 4.20081,-5.05468c0,0 -3.87699,2.51118 -7.9721,4.51449c-4.27277,2.09024 -7.92485,3.34579 -7.92485,3.34579c0,0 8.33089,-8.26455 10.52919,-15.22304c2.07553,-6.56994 0.58995,-11.82053 0.58995,-11.82053c0,0 -2.51779,1.58545 -6.43036,3.10097c-2.48005,0.96065 -4.79587,1.6324 -4.79587,1.6324z" fill="#000000" stroke="none" stroke-width="1.5" stroke-linecap="butt"/><path d="M169.33637,129.35971c-2.96107,-6.69002 -5.36798,-16.29642 -5.36798,-16.29642c0,0 3.20426,-1.16899 12.08644,-7.57705c6.82384,-4.92309 16.24304,-15.75953 16.24304,-15.75953c0,0 -1.04233,3.551 -1.73745,5.33736c-0.739,1.8991 -2.25544,5.62824 -2.25544,5.62824c0,0 6.84267,-4.17049 12.27874,-9.32456c6.91279,-6.1751 7.98848,-9.22093 10.69708,-8.62431c3.19681,0.70415 8.65334,21.5318 10.20094,26.87899c1.48066,5.48867 0.75751,9.80244 1.17627,12.85708c0.41876,3.05464 1.64688,5.92568 3.23309,15.86463c0.98991,6.2026 -0.96958,9.7995 -4.59563,17.1525c-3.62604,7.35301 -5.47648,11.72998 -9.18974,13.10713c-3.5735,1.32532 -10.1208,-1.8513 -16.58837,-5.1785c-6.88691,-3.54294 -11.1824,-5.0576 -14.18316,-11.06531c-2.7025,-5.41057 -4.01581,-9.09149 -6.11171,-14.01498c-1.53184,-3.59844 -4.26899,-5.33172 -5.88609,-8.98526z" fill="#808080" stroke="#000000" stroke-width="1.5" stroke-linecap="butt"/><path d="M209.68083,99.16575c0,0 1.54357,-0.20496 4.38328,-0.36257c2.59375,-0.14395 4.77588,0.17124 4.77588,0.17124l0.57187,1.03959c0,0 -7.8772,-0.55103 -15.08052,2.67751c-5.7596,2.58148 -8.46849,5.95478 -8.46849,5.95478l-1.34081,-3.95604c0,0 2.38613,-2.64421 6.80461,-4.35633c4.57531,-1.77288 7.82969,-2.12301 7.82969,-2.12301z" data-paper-data="{&quot;index&quot;:null}" fill="#000000" stroke="none" stroke-width="1.5" stroke-linecap="butt"/><path d="M211.88146,143.95425c0.60838,0.01089 3.37307,0.29864 6.54369,0.45325c3.19587,0.15584 7.56587,-0.22679 7.603,-0.06223c0.0471,0.20884 -9.77011,3.67163 -12.69713,5.12912c-2.45288,1.22139 -6.07701,2.88204 -6.07701,2.88204c0,0 -7.08762,1.25781 -13.3328,2.09065c-5.00529,0.66749 -10.36222,1.87851 -10.40327,1.79379c-0.05537,-0.11424 3.41434,-1.95232 5.97655,-3.57704c0.91657,-0.84823 4.64033,-3.20366 4.64033,-3.20366c0,0 4.58389,-1.90407 7.37032,-1.97467c2.98563,-0.07564 3.48561,1.36789 3.72705,1.30801c0,0 0.53783,-2.04293 1.53769,-2.77063c0.99988,-0.72769 4.65715,-2.07677 5.1116,-2.06864z" fill="#808080" stroke="#000000" stroke-width="1.4" stroke-linecap="butt"/><path d="M193.06556,143.65968c6.98663,4.52946 17.21344,13.04829 17.21344,13.04829c0,0 2.15459,-11.33827 4.06925,-13.90514c1.48437,-1.99007 9.08013,-7.9941 9.91449,-5.75184c0.81578,2.19234 18.90811,81.09725 6.51212,82.3683c-13.91826,1.92405 -53.75477,-84.06209 -54.07868,-85.09862c-0.32391,-1.03653 9.38276,4.80956 16.36941,9.33907z" fill="#808080" stroke="#000000" stroke-width="1.9" stroke-linecap="butt"/><path d="M205.15809,147.96869c-0.97536,0.34253 -4.41856,-1.90391 -5.35002,-3.806c-0.83341,-1.70185 -0.02756,-4.0475 2.3044,-4.86645c2.33197,-0.81895 4.12734,-0.9293 5.19018,2.6166c0.902,3.0093 0.1874,5.23691 -2.14456,6.05586z" fill="#808080" stroke="#000000" stroke-width="1.15" stroke-linecap="butt"/><path d="M198.58531,118.38144c0,0 1.41216,3.71151 2.3668,6.72213c1.89037,5.96153 8.17799,26.55083 8.17799,26.55083l-2.81037,0.99611c0,0 -2.1402,-3.67097 -4.20748,-8.59097c-2.79825,-6.65965 -5.82278,-15.22386 -7.22537,-18.27029c-1.32952,-2.88773 -2.7388,-5.09485 -2.7388,-5.09485" fill="#808080" stroke="#000000" stroke-width="1.3" stroke-linecap="round"/><path d="M174.29428,138.3479c0,0 -5.81885,-1.68414 -8.78978,-6.42555c-3.12599,-4.98888 -4.60355,-8.69884 -2.85777,-9.58657c1.74578,-0.88775 3.33809,1.34695 6.29038,6.64689c2.95228,5.29994 5.35718,9.36524 5.35718,9.36524z" data-paper-data="{&quot;index&quot;:null}" fill="#808080" stroke="#000000" stroke-width="1" stroke-linecap="butt"/><path d="M172.79513,134.69047c0,0 -4.33117,-1.57737 -6.87429,-6.54243c-1.41865,-2.76967 1.27939,-2.86598 1.27939,-2.86598" fill="none" stroke="#000000" stroke-width="0.25" stroke-linecap="round"/><path d="M173.4329,127.41209c-1.55398,-4.63904 1.60409,-10.03445 6.69941,-11.74128c5.09531,-1.70682 9.92497,1.01728 11.47896,5.65632c1.55398,4.63904 -0.9766,9.6639 -6.07192,11.37074c-5.09531,1.70682 -10.55247,-0.64672 -12.10645,-5.28577z" fill="#808080" stroke="#000000" stroke-width="1.4" stroke-linecap="butt"/><path d="M134.58069,141.18134c-0.70381,-2.67642 10.48911,-8.94283 25.00002,-13.99644c14.51102,-5.05365 26.84491,-6.98072 27.54872,-4.30432c0.70381,2.67642 -10.48906,8.94281 -25.00002,13.99644c-14.51102,5.05365 -26.84491,6.98072 -27.54872,4.30432z" fill="#000000" stroke="none" stroke-width="1.5" stroke-linecap="butt"/><path d="M198.96101,118.44781c-1.42764,-4.67947 1.2659,-9.83341 6.28333,-11.59545c5.01742,-1.76204 10.06475,0.66896 11.68582,5.28498c1.62107,4.61603 -0.66069,9.84617 -6.12259,11.83938c-5.19525,1.89591 -10.3556,-0.6419 -11.84656,-5.52891z" fill="#808080" stroke="#000000" stroke-width="1.4" stroke-linecap="butt"/><path d="M211.00632,138.85589c-5.17224,-14.72803 -7.20943,-27.42448 -4.5502,-28.35836c2.65923,-0.93388 9.00789,10.24846 14.18013,24.97649c5.17224,14.72803 7.20944,27.42448 4.5502,28.35836c-2.65923,0.93388 -9.00789,-10.24846 -14.18013,-24.97649z" fill="#000000" stroke="none" stroke-width="1.5" stroke-linecap="butt"/><path d="M173.192,126.93264c0,0 -2.92714,-8.52692 7.07816,-11.839c8.99095,-2.98168 12.13278,5.70963 12.13278,5.70963z" fill="#808080" stroke="#000000" stroke-width="1.15" stroke-linecap="butt"/><path d="M198.47149,118.19364c0,0 -3.36684,-8.84211 7.54924,-12.2994c9.276,-2.90414 12.20571,5.94375 12.20571,5.94375z" fill="#808080" stroke="#000000" stroke-width="1.15" stroke-linecap="butt"/><path d="M173.20514,116.31695c0,0 2.57656,-2.83275 6.82263,-4.81439c4.70517,-2.19591 7.30744,-2.6365 7.30744,-2.6365l1.64934,3.80597c0,0 -3.8444,0.62869 -7.73769,2.16502c-5.2068,2.05464 -5.79471,3.55373 -9.65549,5.39527c-3.30812,1.57793 -6.30401,2.38221 -6.30401,2.38221l-0.4325,-1.1534c0,0 3.41659,-1.12144 4.91541,-1.79866c1.23706,-0.55896 3.44028,-2.20242 3.44028,-2.20242z" fill="#000000" stroke="none" stroke-width="1.5" stroke-linecap="butt"/><path d="M221.9478,110.36618c-1.00979,-5.98211 -1.16437,-8.72171 0.75315,-9.12046c1.91751,-0.39874 3.08405,3.42043 3.76378,9.26839c0.64601,5.55788 -2.84213,10.51049 -2.84213,10.51049c0,0 -0.66501,-4.67632 -1.6748,-10.65843z" data-paper-data="{&quot;index&quot;:null}" fill="#808080" stroke="#000000" stroke-width="1" stroke-linecap="butt"/><path d="M220.98949,106.39215c0,0 2.16582,-1.61181 2.79043,1.43672c1.11972,5.46493 -1.27416,9.40403 -1.27416,9.40403" data-paper-data="{&quot;index&quot;:null}" fill="none" stroke="#000000" stroke-width="0.25" stroke-linecap="round"/></g></g></svg>