<svg version="1.1" xmlns="http://www.w3.org/2000/svg" xmlns:xlink="http://www.w3.org/1999/xlink" width="94.15" height="249.99816" viewBox="0,0,94.15,249.99816"><g transform="translate(-192.02993,-60.00095)"><g data-paper-data="{&quot;isPaintingLayer&quot;:true}" fill-rule="nonzero" stroke-linejoin="miter" stroke-miterlimit="10" stroke-dasharray="" stroke-dashoffset="0" style="mix-blend-mode: normal"><path d="M199.78426,308.89085c0,0 -0.63536,-94.38387 -0.79335,-118.01201c-0.05451,-8.15261 8.18688,-36.76129 40.20201,-36.9211c31.60235,-0.15775 39.85672,29.48704 39.84884,36.89673c-0.07659,46.24274 0.65429,117.98648 0.65429,117.98648l-10.49667,0.09614l-0.15882,-114.84311c0,0 0.07549,-3.0993 -2.81625,-3.15415c-3.43441,-0.06514 -2.94538,3.11562 -2.94538,3.11562l0.20548,114.86995l-48.21366,0.07222l-0.30539,-115.23309c0,0 0.27949,-2.919 -2.8856,-2.93443c-3.11083,-0.01515 -2.81569,2.90899 -2.81569,2.90899l0.35311,115.0668z" fill="#ffffff" stroke="#000000" stroke-width="2" stroke-linecap="butt"/><path d="M254.38143,204.83303c-0.57113,0 -1.03411,-0.46299 -1.03411,-1.03411c0,-0.57113 0.46299,-1.03413 1.03411,-1.03413c0.57113,0 1.03411,0.463 1.03411,1.03413c0,0.57113 -0.46299,1.03411 -1.03411,1.03411z" fill="#000000" stroke="none" stroke-width="1.5" stroke-linecap="butt"/><path d="M249.12155,209.06863c-4.4635,-0.31439 -6.55245,-1.79392 -6.16985,-2.58011c0.11788,-0.24224 2.84645,1.06355 6.97038,1.3048c6.40897,0.37493 8.51033,-0.63173 8.51033,-0.63173v1.34616c0,0 -2.4135,1.04672 -9.31086,0.56089z" fill="#000000" stroke="#000000" stroke-width="0" stroke-linecap="butt"/><path d="M221.3088,203.79892c0,-0.57113 0.46299,-1.03413 1.03411,-1.03413c0.57113,0 1.03413,0.463 1.03413,1.03413c0,0.57113 -0.463,1.03411 -1.03413,1.03411c-0.57113,0 -1.03411,-0.46299 -1.03411,-1.03411z" fill="#000000" stroke="none" stroke-width="1.5" stroke-linecap="butt"/><path d="M227.60279,209.06863c-6.89736,0.48585 -9.31086,-0.56089 -9.31086,-0.56089v-1.34616c0,0 2.10136,1.00666 8.51033,0.63173c4.12393,-0.24126 6.85251,-1.54704 6.97039,-1.3048c0.3826,0.78618 -1.70634,2.26571 -6.16985,2.58011z" fill="#000000" stroke="#000000" stroke-width="0" stroke-linecap="butt"/><path d="M238.88325,265.62039c-0.81895,0 -1.48284,-0.66389 -1.48284,-1.48284c0,-0.81895 0.66389,-1.48284 1.48284,-1.48284c0.81895,0 1.48284,0.66389 1.48284,1.48284c0,0.81895 -0.66389,1.48284 -1.48284,1.48284z" data-paper-data="{&quot;index&quot;:null}" fill="#000000" stroke="none" stroke-width="1.5" stroke-linecap="butt"/><g><g><g stroke-width="0"><g><g stroke="#000000"><path d="M192.02993,308.38642c0,0 3.49796,-108.10377 3.99229,-123.38083c0.11275,-3.48462 0.60771,-6.41917 0.60771,-6.41917l16.6,20.4v110.2z" fill="#274a69" stroke-linecap="round"/><path d="M264.97993,309.18645v-110.2l16.6,-20.4c0,0 0.49495,2.93454 0.6077,6.41916c0.49433,15.27706 3.9923,123.38083 3.9923,123.38083z" data-paper-data="{&quot;index&quot;:null}" fill="#274a69" stroke-linecap="round"/><path d="M212.70493,308.97409v-109.8l-16.4,-18.4c0,0 0.25264,-2.90531 0.36057,-3.80473c0.08795,-0.73293 0.74259,-2.59812 1.5332,-3.51436c1.70778,-1.97915 4.75677,-5.42054 6.97282,-7.40662c3.75039,-3.36119 12.93342,-10.07429 12.93342,-10.07429c0,0 8.3548,-4.17534 20.99999,-4.17534c12.64519,0 20.99999,4.17534 20.99999,4.17534c0,0 9.18303,6.7131 12.93342,10.07429c2.21605,1.98608 5.26504,5.42747 6.97282,7.40662c0.79061,0.91624 1.44525,2.78143 1.5332,3.51436c0.10793,0.89942 0.36057,3.80473 0.36057,3.80473l-16.4,18.4v109.8z" data-paper-data="{&quot;index&quot;:null}" fill="#315f86" stroke-linecap="butt"/><path d="M212.70493,308.97409v-109.8c0,0 6.53353,40.72466 26.4,40.72466c19.86647,0 26.4,-40.72466 26.4,-40.72466v109.8z" data-paper-data="{&quot;index&quot;:null}" fill="#2d5579" stroke-linecap="butt"/></g><g><path d="M235.18826,309.07595v-82.33333l2.83333,-6.5l-27.5,-40.83333c0,0 4.84233,-1.0205 8.20602,-2.2335c0.94335,-0.34019 1.38008,-0.7308 1.12731,-1.43317c-0.20256,-0.56287 -2.7752,0.15609 -5.21531,0.82165c-2.28371,0.6229 -4.45135,1.17835 -4.45135,1.17835l11.16667,-27.66667l35.50001,-0.00001l11.16666,27.66667c0,0 -2.16764,-0.55545 -4.45136,-1.17835c-2.44012,-0.66556 -5.01275,-1.38452 -5.21531,-0.82165c-0.25278,0.70236 0.18396,1.09298 1.12731,1.43317c3.36369,1.213 8.20601,2.2335 8.20601,2.2335l-27.5,40.83333l-3,6.5v82.33333z" fill="#274a69" stroke="#000000" stroke-linecap="round"/><g><path d="M239.10493,174.49889c-9.89721,0 -17.92049,-4.3182 -17.92049,-4.3182c0,0 4.42339,-13.60229 17.92049,-13.60229c13.4971,0 17.92049,13.60229 17.92049,13.60229c0,0 -8.02328,4.3182 -17.92049,4.3182z" fill="#ffffff" stroke="none" stroke-linecap="butt"/><g stroke="#000000"><g stroke-linecap="butt"><path d="M223.23558,184.16305l6.58726,-18.66622l9.28211,7.47554l9.28205,-7.47553l6.58729,18.66623l-15.86935,26.74374z" data-paper-data="{&quot;index&quot;:null}" fill="#d6dadb"/><g><path d="M235.75834,183.31012l-3.67046,-8.20456l7.01707,-4.03481l7.01705,4.03481l-3.67045,8.20456z" data-paper-data="{&quot;index&quot;:null}" fill="#1b3348"/><path d="M233.38332,200.25826l2.375,-17.92049c0,0 2.02631,0.4958 3.34661,0.4958c1.32031,0 3.34659,-0.4958 3.34659,-0.4958l2.37502,17.92049l-5.72161,10.64854z" data-paper-data="{&quot;index&quot;:null}" fill="#203d56"/></g></g><g fill="#e2e7e8" stroke-linecap="round"><path d="M255.16544,161.40919c0,0 1.7277,3.55749 2.1591,8.42047c0.28305,3.19089 -0.67793,10.65355 -2.11464,15.40824c-0.75287,2.49157 -2.41946,4.23952 -2.41946,4.23952c0,0 -1.9031,-7.05743 -4.11199,-9.74652c-2.66933,-3.24962 -10.78576,-8.38988 -10.78576,-8.38988z"/><path d="M240.31719,171.34103c0,0 -8.11644,5.14028 -10.78577,8.38989c-2.2089,2.68909 -4.11199,9.74651 -4.11199,9.74651c0,0 -1.66661,-1.74796 -2.41947,-4.23952c-1.4367,-4.75469 -2.3977,-12.21737 -2.11463,-15.40825c0.4314,-4.86298 2.1591,-8.42047 2.1591,-8.42047z" data-paper-data="{&quot;index&quot;:null}"/></g></g></g></g></g><g stroke="none" stroke-linecap="butt"><path d="M215.5216,213.40927v-3.83333h14.16667v3.83333z" fill="#274a69"/><path d="M246.35493,204.74261v-5.16667h16.33333v5.16667z" fill="#ffffff"/><path d="M233.68827,196.24261v-2.16667h7.5v2.16667z" fill="#ffffff"/></g></g><text transform="translate(246.92399,203.0696) scale(0.07027,0.07027)" font-size="40" xml:space="preserve" fill="#000000" fill-rule="nonzero" stroke="none" stroke-width="1" stroke-linecap="butt" stroke-linejoin="miter" stroke-miterlimit="10" stroke-dasharray="" stroke-dashoffset="0" font-family="Sans Serif" font-weight="normal" text-anchor="start" style="mix-blend-mode: normal"><tspan x="0" dy="0">#BASS GUY</tspan></text></g><text transform="translate(216.21725,224.40356) scale(0.1454,0.22297)" font-size="40" xml:space="preserve" fill="#000000" fill-rule="nonzero" stroke="none" stroke-width="1" stroke-linecap="butt" stroke-linejoin="miter" stroke-miterlimit="10" stroke-dasharray="" stroke-dashoffset="0" font-family="Sans Serif" font-weight="normal" text-anchor="start" style="mix-blend-mode: normal"><tspan x="0" dy="0">BASIC</tspan><tspan x="0" dy="46.150000000000006px">AHH</tspan><tspan x="0" dy="46.150000000000006px">808</tspan></text></g><g><path d="M216.32817,119.72149c0.07093,-4.89188 4.83834,-8.93609 10.21137,-8.8582c5.37302,0.0779 9.02724,4.2484 8.95632,9.14029c-0.07093,4.89188 -4.12352,8.79439 -9.49655,8.7165c-5.37302,-0.0779 -9.74207,-4.1067 -9.67114,-8.99859z" fill="#ffffff" stroke="#000000" stroke-width="1.4" stroke-linecap="butt"/><path d="M214.81087,118.25699c0.09164,-6.32138 5.2904,-11.37151 11.61174,-11.27986c6.32138,0.09164 11.3715,5.2904 11.27986,11.61174c-0.09164,6.32138 -5.29038,11.37151 -11.61174,11.27987c-6.32138,-0.09164 -11.3715,-5.2904 -11.27986,-11.61174z" fill="#000000" stroke="none" stroke-width="1.5" stroke-linecap="butt"/><path d="M243.38445,119.72222c0.20353,-4.88817 4.45264,-8.85847 9.77048,-8.85847c5.31783,0 9.27453,3.96607 9.27453,8.85847c0,4.8924 -3.88585,9.07104 -9.69964,9.14188c-5.52997,0.06739 -9.55792,-4.03692 -9.34537,-9.14188z" fill="#ffffff" stroke="#000000" stroke-width="1.4" stroke-linecap="butt"/><path d="M251.14659,120.29255c0,-1.17384 0.95158,-2.12543 2.12543,-2.12543c1.17385,0 2.12543,0.95158 2.12543,2.12543c0,1.17385 -0.95158,2.12543 -2.12543,2.12543c-1.17384,0 -2.12543,-0.95159 -2.12543,-2.12543z" fill="#000000" stroke="none" stroke-width="1.5" stroke-linecap="butt"/><path d="M195.84273,108.37935c0,0 6.16329,-5.92187 6.29161,-6.78761c0.33654,-2.27063 -0.16776,-40.17317 35.96775,-41.57382c37.24101,-0.76225 39.49805,24.35335 40.68487,36.66988c0.07944,0.82444 0.08913,6.37968 1.05894,8.67126c1.90726,4.5067 0.70687,12.19199 0.70687,12.19199l-2.64429,-4.22249c0,0 1.05922,10.65027 1.30834,17.43338c0.11042,3.00663 -0.38917,5.25347 -0.44167,5.47625c-1.98967,8.44325 -6.85357,15.01078 -6.85357,15.01078l-1.15522,-2.34735c0,0 -1.02266,2.19794 -2.16005,3.33274c-1.1374,1.13479 -3.43873,2.91273 -3.43873,2.91273l-0.09205,-3.70421c0,0 -7.0601,11.01795 -24.35066,10.87154c-16.30625,-0.25547 -26.07151,-10.6752 -26.07151,-10.6752l-0.1162,2.65484c0,0 -6.0238,-4.93142 -8.37662,-9.3397c-2.35282,-4.40828 -2.54053,-11.11484 -2.54053,-11.11484c0,0 -0.84284,0.40292 -4.2208,1.27816c-4.23278,1.09673 -6.94665,0.34526 -6.94665,0.34526c0,0 3.60795,-2.71717 5.58396,-4.76989c1.76007,-1.8284 2.64658,-3.37722 2.64658,-3.37722c0,0 -2.10758,1.0847 -4.23277,1.61795c-2.21739,0.5564 -4.03008,0.53093 -4.03008,0.53093c0,0 4.97492,-5.03728 7.03074,-10.87429c1.94102,-5.51108 2.09972,-10.95731 2.09972,-10.95731c0,0 -1.36165,0.66163 -3.33013,0.79513c-1.24776,0.08463 -2.37785,-0.0489 -2.37785,-0.0489z" fill="#000000" stroke="none" stroke-width="1.5" stroke-linecap="butt"/><path d="M213.79234,125.87663c0,0 -3.56385,-2.92338 -4.31816,-8.45061c-0.42079,-3.08327 2.15675,-2.28016 2.15675,-2.28016" fill="none" stroke="#000000" stroke-width="0.25" stroke-linecap="round"/><path d="M216.80574,119.22073c0.07093,-4.89188 4.83834,-8.93609 10.21137,-8.8582c5.37302,0.0779 9.02724,4.2484 8.95632,9.14029c-0.07093,4.89188 -4.12352,8.79439 -9.49655,8.7165c-5.37302,-0.0779 -9.74207,-4.1067 -9.67114,-8.99859z" fill="#ffffff" stroke="#000000" stroke-width="1.4" stroke-linecap="butt"/><path d="M221.24338,119.33867c0.03999,-2.75843 2.30855,-4.96213 5.06696,-4.92214c2.75843,0.03999 4.96213,2.30855 4.92214,5.06696c-0.03999,2.75843 -2.30854,4.96213 -5.06696,4.92214c-2.75843,-0.03999 -4.96213,-2.30855 -4.92214,-5.06696z" fill="#000000" stroke="none" stroke-width="1.5" stroke-linecap="butt"/><path d="M243.86202,119.22146c0.20353,-4.88817 4.45264,-8.85847 9.77048,-8.85847c5.31783,0 9.27453,3.96607 9.27453,8.85847c0,4.8924 -3.88585,9.07104 -9.69964,9.14188c-5.52997,0.06739 -9.55792,-4.03692 -9.34537,-9.14188z" fill="#ffffff" stroke="#000000" stroke-width="1.4" stroke-linecap="butt"/><path d="M248.46477,119.30701c0,-2.81845 2.2848,-5.10325 5.10325,-5.10325c2.81845,0 5.10325,2.2848 5.10325,5.10325c0,2.81845 -2.28479,5.10325 -5.10325,5.10325c-2.81845,0 -5.10325,-2.2848 -5.10325,-5.10325z" fill="#000000" stroke="none" stroke-width="1.5" stroke-linecap="butt"/><path d="M216.73731,118.68855c0,0 0.06357,-9.01512 10.60111,-8.8249c9.47101,0.16586 9.55554,9.40723 9.55554,9.40723z" fill="#ffffff" stroke="#000000" stroke-width="1.15" stroke-linecap="butt"/><path d="M243.48437,118.81945c0,0 -0.24686,-9.4582 11.19813,-9.1032c9.71427,0.33347 9.54677,9.65229 9.54677,9.65229z" fill="#ffffff" stroke="#000000" stroke-width="1.15" stroke-linecap="butt"/><path d="M268.64068,115.14586c0,0 2.57754,-0.80312 2.15675,2.28016c-0.75431,5.52723 -4.31816,8.45061 -4.31816,8.45061" data-paper-data="{&quot;index&quot;:null}" fill="none" stroke="#000000" stroke-width="0.25" stroke-linecap="round"/><path d="M211.81772,120.20173c-0.57709,-7.29323 0.335,-17.15448 0.335,-17.15448c0,0 3.41059,-0.04124 13.91429,-3.14424c8.0696,-2.38394 20.54731,-9.48722 20.54731,-9.48722c0,0 -2.16005,3.00503 -3.40781,4.46015c-1.32651,1.54696 -3.99292,4.56297 -3.99292,4.56297c0,0 7.838,-1.66761 14.67476,-4.72931c8.56837,-3.53575 10.59252,-6.05309 12.95042,-4.5927c2.7829,1.72362 1.03006,23.1827 0.71846,28.74062c-0.42163,5.66922 -2.53327,9.49969 -3.15031,12.52053c-0.61704,3.02084 -0.4096,6.13662 -2.20622,16.0397c-1.12121,6.18021 -4.16183,8.92466 -10.01942,14.66081c-5.85759,5.73616 -9.05378,9.25275 -13.01359,9.32173c-3.81077,0.06639 -8.93565,-5.1002 -13.93542,-10.38244c-5.32393,-5.62474 -8.87489,-8.47713 -9.71551,-15.13975c-0.75707,-6.00039 -0.77653,-9.90853 -1.12266,-15.24835c-0.25298,-3.90273 -2.26119,-6.44504 -2.57636,-10.42801z" fill="#ffffff" stroke="#000000" stroke-width="1.5" stroke-linecap="butt"/><path d="M260.13703,109.07023c0,0 1.52429,0.31807 4.2558,1.11029c2.49492,0.72361 4.44935,1.74403 4.44935,1.74403l0.1951,1.17035c0,0 -7.24963,-3.12997 -15.1158,-2.4706c-6.2896,0.52724 -9.96319,2.8124 -9.96319,2.8124l0.04575,-4.17683c0,0 3.12748,-1.70421 7.86366,-1.85557c4.90428,-0.15672 8.09084,0.59125 8.09084,0.59125z" data-paper-data="{&quot;index&quot;:null}" fill="#000000" stroke="none" stroke-width="1.5" stroke-linecap="butt"/><path d="M213.51736,130.32495c0,0 -4.93211,-3.51705 -6.16417,-8.97502c-1.29636,-5.74284 -1.46118,-9.7328 0.48013,-9.99193c1.94131,-0.25915 2.70321,2.37692 3.73262,8.35569c1.0294,5.97877 1.95143,10.61127 1.95143,10.61127z" data-paper-data="{&quot;index&quot;:null}" fill="#ffffff" stroke="#000000" stroke-width="1" stroke-linecap="butt"/><path d="M213.31477,126.37739c0,0 -3.71839,-2.92338 -4.5054,-8.45061c-0.43903,-3.08327 2.25027,-2.28016 2.25027,-2.28016" fill="none" stroke="#000000" stroke-width="0.25" stroke-linecap="round"/><path d="M219.63107,105.35491c0,0 3.36963,-1.819 8.03244,-2.28178c5.16698,-0.51283 7.76823,-0.06628 7.76823,-0.06628l0.29508,4.13747c0,0 -3.83554,-0.68065 -8.01795,-0.52113c-5.59346,0.21333 -6.64488,1.43293 -10.89774,1.89119c-3.64408,0.39266 -6.73723,0.15884 -6.73723,0.15884l-0.02589,-1.23155c0,0 3.59517,0.07398 5.23371,-0.06836c1.35239,-0.11749 3.9757,-0.93808 3.9757,-0.93808z" fill="#000000" stroke="none" stroke-width="1.5" stroke-linecap="butt"/><path d="M239.44986,149.62883c-1.03376,0 -3.5381,-3.26042 -3.7867,-5.3637c-0.22243,-1.88186 1.31512,-3.82799 3.7867,-3.82799c2.47159,0 4.2021,0.49077 4.02999,4.18853c-0.14607,3.13818 -1.55841,5.00317 -4.02999,5.00317z" fill="#ffffff" stroke="#000000" stroke-width="1.15" stroke-linecap="butt"/><path d="M243.05197,119.53511c0,0 0.1026,3.96976 0.00576,7.12662c-0.19174,6.25113 -1.08147,27.7607 -1.08147,27.7607l-2.98167,0.00864c0,0 -0.80294,-4.17274 -1.12322,-9.49979c-0.43353,-7.21063 -0.4495,-16.29321 -0.76344,-19.63229c-0.29758,-3.16513 -0.89593,-5.71453 -0.89593,-5.71453" fill="#ffffff" stroke="#000000" stroke-width="1.3" stroke-linecap="round"/><path d="M267.75052,119.71368c1.0294,-5.97877 1.7913,-8.61483 3.73262,-8.35569c1.94131,0.25914 1.77649,4.24909 0.48013,9.99193c-1.23206,5.45797 -6.16417,8.97502 -6.16417,8.97502c0,0 0.92203,-4.6325 1.95143,-10.61127z" data-paper-data="{&quot;index&quot;:null}" fill="#ffffff" stroke="#000000" stroke-width="1" stroke-linecap="butt"/><path d="M268.16311,115.64662c0,0 2.57754,-0.80312 2.15675,2.28016c-0.75431,5.52723 -4.31816,8.45061 -4.31816,8.45061" data-paper-data="{&quot;index&quot;:null}" fill="none" stroke="#000000" stroke-width="0.25" stroke-linecap="round"/><path d="M234.36967,169.49348l-19.14307,-22.00219c0,0 0.75721,-1.6135 0.75721,-2.42734c0,-0.74581 -0.75721,-2.26946 -0.75721,-2.26946c0,0 2.67319,-0.39014 4.6557,-0.62147c1.98251,-0.23132 5.17197,-0.46488 5.17197,-0.46488c0,0 -0.6016,6.65044 14.55952,6.63878c15.43477,-0.01188 13.83154,-6.63878 13.83154,-6.63878c0,0 3.91276,0.25196 6.16585,0.48856c2.25309,0.2366 4.75379,0.59778 4.75379,0.59778c0,0 -0.75721,1.56269 -0.75721,2.35316c0,0.80283 0.75721,2.42735 0.75721,2.42735l-20.63473,22.41572z" fill="#000000" stroke="#000000" stroke-width="2" stroke-linecap="butt"/></g><g><path d="M201.97949,128.0494v-14.77536l76.49524,0.18703c0,0 0.79315,4.30562 0.82966,7.18976c0.03651,2.88414 -0.26857,7.39857 -0.26857,7.39857z" fill="#274a69" stroke="none" stroke-width="NaN" stroke-linecap="butt"/><g fill="#000000" stroke-linecap="round"><path d="M238.07879,127.79751l-1.03793,6.15346l-24.91036,-2.51732c0,0 -0.51897,-7.64729 -0.51897,-11.4678c0,-3.82051 0.51897,-10.34899 0.51897,-10.34899h56.56728c0,0 0.51897,6.52848 0.51897,10.34899c0,3.82052 -0.51897,11.4678 -0.51897,11.4678l-24.91037,2.51732l-1.03793,-6.15346z" stroke="#315f86" stroke-width="3"/><path d="M238.07878,127.79751l-1.03793,6.15346l-24.91036,-2.51732c0,0 -0.51897,-7.64729 -0.51897,-11.4678c0,-3.82051 0.51897,-10.34899 0.51897,-10.34899l56.56729,-0.00001c0,0 0.51897,6.52848 0.51897,10.34899c0,3.82052 -0.51897,11.4678 -0.51897,11.4678l-24.91037,2.51732l-1.03793,-6.15346z" stroke="none" stroke-width="0"/></g></g><path d="M234.22318,170.66067l-19.14307,-22.00219c0,0 0.75721,-1.6135 0.75721,-2.42734c0,-0.74581 -0.75721,-2.26946 -0.75721,-2.26946c0,0 2.67319,-0.39014 4.6557,-0.62147c1.98251,-0.23132 5.17197,-0.46488 5.17197,-0.46488c0,0 -0.6016,6.65044 14.55952,6.63878c15.43477,-0.01188 13.83154,-6.63878 13.83154,-6.63878c0,0 3.91276,0.25196 6.16585,0.48856c2.25309,0.2366 4.75379,0.59778 4.75379,0.59778c0,0 -0.75721,1.56269 -0.75721,2.35316c0,0.80283 0.75721,2.42735 0.75721,2.42735l-20.63473,22.41572z" fill="#ffffff" stroke="#000000" stroke-width="2" stroke-linecap="butt"/></g></g></svg>