<svg version="1.1" xmlns="http://www.w3.org/2000/svg" xmlns:xlink="http://www.w3.org/1999/xlink" width="111.01233" height="253.22501" viewBox="0,0,111.01233,253.22501"><g transform="translate(-173.13732,-53.71837)"><g data-paper-data="{&quot;isPaintingLayer&quot;:true}" fill-rule="nonzero" stroke-linejoin="miter" stroke-miterlimit="10" stroke-dasharray="" stroke-dashoffset="0" style="mix-blend-mode: normal"><path d="M192.96762,306.94338v-253.22501h91.18203v253.22501z" fill-opacity="0.01" fill="#000000" stroke="none" stroke-width="0" stroke-linecap="butt"/><path d="M201.0304,304.39161c0,0 -0.63536,-94.38387 -0.79335,-118.01201c-0.05451,-8.15261 8.18688,-36.76129 40.20201,-36.9211c31.60235,-0.15775 39.85672,29.48704 39.84884,36.89673c-0.07659,46.24274 0.65429,117.98648 0.65429,117.98648l-10.49667,0.09614l-0.15882,-114.84311c0,0 0.07549,-3.0993 -2.81625,-3.15415c-3.43441,-0.06514 -2.94538,3.11562 -2.94538,3.11562l0.20548,114.86995l-48.21366,0.07222l-0.30539,-115.23309c0,0 0.27949,-2.919 -2.8856,-2.93443c-3.11083,-0.01515 -2.81569,2.90899 -2.81569,2.90899l0.35311,115.0668z" fill="#808080" stroke="#000000" stroke-width="2" stroke-linecap="butt"/><path d="M255.62759,200.33378c-0.57113,0 -1.03411,-0.46299 -1.03411,-1.03411c0,-0.57113 0.46299,-1.03413 1.03411,-1.03413c0.57113,0 1.03411,0.463 1.03411,1.03413c0,0.57113 -0.46299,1.03411 -1.03411,1.03411z" fill="#000000" stroke="none" stroke-width="1.5" stroke-linecap="butt"/><path d="M250.3677,204.56939c-4.4635,-0.31439 -6.55245,-1.79392 -6.16985,-2.58011c0.11788,-0.24224 2.84645,1.06355 6.97038,1.3048c6.40897,0.37493 8.51033,-0.63173 8.51033,-0.63173v1.34616c0,0 -2.4135,1.04672 -9.31086,0.56089z" fill="#000000" stroke="#000000" stroke-width="0" stroke-linecap="butt"/><path d="M222.55494,199.29967c0,-0.57113 0.46299,-1.03413 1.03411,-1.03413c0.57113,0 1.03413,0.463 1.03413,1.03413c0,0.57113 -0.463,1.03411 -1.03413,1.03411c-0.57113,0 -1.03411,-0.46299 -1.03411,-1.03411z" fill="#000000" stroke="none" stroke-width="1.5" stroke-linecap="butt"/><path d="M228.84895,204.56939c-6.89736,0.48585 -9.31086,-0.56089 -9.31086,-0.56089v-1.34616c0,0 2.10136,1.00666 8.51033,0.63173c4.12393,-0.24126 6.85251,-1.54704 6.97039,-1.3048c0.3826,0.78618 -1.70634,2.26571 -6.16985,2.58011z" fill="#000000" stroke="#000000" stroke-width="0" stroke-linecap="butt"/><path d="M240.1294,261.12113c-0.81895,0 -1.48284,-0.66389 -1.48284,-1.48284c0,-0.81895 0.66389,-1.48284 1.48284,-1.48284c0.81895,0 1.48284,0.66389 1.48284,1.48284c0,0.81895 -0.66389,1.48284 -1.48284,1.48284z" data-paper-data="{&quot;index&quot;:null}" fill="#000000" stroke="none" stroke-width="1.5" stroke-linecap="butt"/><path d="M216.06613,304.40603v-119.20147c0,0 0.75721,-9.73105 0.75721,-14.63937c0,-4.498 -0.75721,-13.6872 -0.75721,-13.6872c0,0 2.67319,-2.35297 4.6557,-3.74807c1.98251,-1.3951 5.17197,-2.80371 5.17197,-2.80371c0,0 -0.6016,40.10902 14.55952,40.03867c15.43477,-0.07162 13.83154,-40.03867 13.83154,-40.03867c0,0 3.91276,1.51959 6.16585,2.94655c2.25309,1.42695 4.75379,3.60523 4.75379,3.60523c0,0 -0.75721,9.42463 -0.75721,14.19201c0,4.84193 0.75721,14.63937 0.75721,14.63937v118.69667z" fill="#808080" stroke="#000000" stroke-width="2" stroke-linecap="butt"/><path d="M176.88137,135.10546c0,0 2.63013,-8.13247 2.33379,-8.95597c-0.77725,-2.15984 -19.14566,-35.31792 12.03158,-53.6405c38.89777,-21.91347 51.09304,12.69625 56.5453,17.53468c7.47587,6.6342 13.65323,12.4201 13.65323,12.4201c0,0 -3.40928,-0.5008 -5.07674,-0.83211c-1.55522,-0.30901 -4.83717,-0.97417 -4.83717,-0.97417c0,0 7.61723,7.6561 10.9417,17.61476c3.10698,9.09266 1.71565,18.62875 1.71565,18.62875l-2.12794,-1.52199c0,0 0.13832,2.42026 -0.32721,3.95802c-0.46554,1.53776 -1.6525,4.19263 -1.6525,4.19263l-1.83282,-3.22031c0,0 -1.0104,13.04681 -16.31464,21.09449c-14.48852,7.48611 -28.02033,2.92309 -28.02033,2.92309l1.15308,2.39417c0,0 -4.98889,-1.05947 -10.03726,-5.63028c-6.01707,-5.44787 -8.64416,-9.25579 -8.64416,-9.25579c0,0 -1.16289,2.77953 -3.72537,5.14815c-3.21093,2.96802 -5.95754,3.58928 -5.95754,3.58928c0,0 1.89408,-4.10034 2.66445,-6.84348c0.68618,-2.44337 0.73486,-4.22729 0.73486,-4.22729c0,0 -1.34407,1.95242 -2.96444,3.42727c-1.69066,1.53885 -3.29989,2.37363 -3.29989,2.37363c0,0 2.00136,-6.79107 1.05246,-12.90635c-0.89592,-5.77381 -3.3316,-10.64762 -3.3316,-10.64762c0,0 -0.88689,1.2269 -2.55822,2.27542c-1.0594,0.66463 -2.11829,1.0814 -2.11829,1.0814z" fill="#000000" stroke="none" stroke-width="1.5" stroke-linecap="butt"/><path d="M197.02567,137.14311c-3.95744,-6.15328 -7.81716,-15.27352 -7.81716,-15.27352c0,0 2.98563,-1.6492 10.77321,-9.35049c5.9829,-5.91663 13.61808,-18.07615 13.61808,-18.07615c0,0 -0.48218,3.66927 -0.89348,5.54146c-0.43725,1.99036 -1.36041,5.90876 -1.36041,5.90876c0,0 6.11758,-5.17594 10.69369,-11.10675c5.87768,-7.16738 6.47075,-10.34267 9.23895,-10.17094c3.26716,0.20268 11.87067,19.93955 14.22445,24.98408c2.30946,5.19463 2.26029,9.56832 3.14515,12.52183c0.88487,2.95351 2.54109,5.60078 5.64122,15.17617c1.9347,5.97571 0.5534,9.83179 -1.8952,17.65606c-2.4486,7.82427 -3.60182,12.43427 -7.05826,14.36764c-3.32634,1.86061 -10.28523,-0.26821 -17.18858,-2.5581c-7.35094,-2.43837 -11.82864,-3.27242 -15.72007,-8.74543c-3.50464,-4.92903 -5.36995,-8.36335 -8.20012,-12.90467c-2.0685,-3.31913 -5.04022,-4.60952 -7.20147,-7.96994z" fill="#808080" stroke="#000000" stroke-width="1.5" stroke-linecap="butt"/><path d="M233.5491,101.91665c0,0 1.55712,0.003 4.39244,0.22602c2.58974,0.20371 4.71024,0.80748 4.71024,0.80748l0.42792,1.10664c0,0 -7.73306,-1.59802 -15.30301,0.63968c-6.05274,1.78922 -9.18784,4.77056 -9.18784,4.77056l-0.80051,-4.09966c0,0 2.71787,-2.30189 7.32541,-3.40863c4.77108,-1.14601 8.04308,-1.05842 8.04308,-1.05842z" data-paper-data="{&quot;index&quot;:null}" fill="#000000" stroke="none" stroke-width="1.5" stroke-linecap="butt"/><path d="M241.31262,145.00125c0.60278,-0.08307 3.37877,-0.22516 6.53529,-0.56142c3.18167,-0.33893 7.44037,-1.39096 7.50243,-1.2341c0.07875,0.19908 -9.08693,5.13455 -11.75414,7.02604c-2.23516,1.58508 -5.5598,3.78482 -5.5598,3.78482c0,0 -6.80882,2.33589 -12.85083,4.12196c-4.84245,1.43148 -9.94851,3.45421 -10.00213,3.37684c-0.07233,-0.10433 3.07237,-2.45556 5.35335,-4.45601c0.77478,-0.97944 4.0907,-3.88101 4.0907,-3.88101c0,0 4.23538,-2.58827 6.97757,-3.08777c2.93824,-0.53521 3.65487,0.81394 3.88419,0.71754c0,0 0.21631,-2.10144 1.09197,-2.97464c0.87568,-0.8732 4.28112,-2.7702 4.73139,-2.83226z" fill="#808080" stroke="#000000" stroke-width="1.4" stroke-linecap="butt"/><path d="M227.03496,157.83211c4.97143,-1.50292 11.82836,-3.16219 11.82836,-3.16219c0,0 4.36569,-4.10886 6.57511,-5.61079c1.7129,-1.16442 9.54848,-5.92658 9.76376,-5.61905c0.21049,0.30067 -1.85698,15.63754 -12.74769,20.96829c-12.33865,6.12763 -27.30398,-2.52358 -27.35062,-2.6905c-0.04664,-0.16692 6.95964,-2.38284 11.93108,-3.88574z" fill="#808080" stroke="#000000" stroke-width="1.9" stroke-linecap="butt"/><path d="M235.28885,150.00461c-0.91086,0.48886 -4.65933,-1.19965 -5.87301,-2.93532c-1.08592,-1.55295 -0.65148,-3.99482 1.52627,-5.16363c2.17776,-1.16881 3.93463,-1.55474 5.53164,1.78481c1.35534,2.83418 0.99285,5.14535 -1.1849,6.31415z" fill="#808080" stroke="#000000" stroke-width="1.15" stroke-linecap="butt"/><path d="M224.23145,121.7851c0,0 1.9677,3.4493 3.37525,6.27666c2.78721,5.59865 12.1751,24.97184 12.1751,24.97184l-2.62311,1.41764c0,0 -2.68077,-3.29696 -5.48213,-7.83925c-3.79189,-6.14839 -8.1011,-14.14365 -9.95677,-16.93731c-1.75899,-2.64812 -3.49181,-4.61148 -3.49181,-4.61148" fill="#808080" stroke="#000000" stroke-width="1.3" stroke-linecap="round"/><path d="M203.31051,145.25909c0,0 -6.00897,-0.76654 -9.67563,-4.99301c-3.85803,-4.44707 -5.8901,-7.88474 -4.30212,-9.03111c1.58797,-1.14638 3.50589,0.816 7.24027,5.59719c3.73437,4.78119 6.73749,8.42694 6.73749,8.42694z" data-paper-data="{&quot;index&quot;:null}" fill="#808080" stroke="#000000" stroke-width="1" stroke-linecap="butt"/><path d="M201.26521,141.87662c0,0 -4.52263,-0.8905 -7.80109,-5.40392c-1.82884,-2.51773 0.82206,-3.02901 0.82206,-3.02901" fill="none" stroke="#000000" stroke-width="0.25" stroke-linecap="round"/><path d="M200.7728,134.58698c-2.25087,-4.34386 0.03728,-10.16178 4.80838,-12.63405c4.7711,-2.47226 9.96312,-0.52563 12.214,3.81823c2.25087,4.34386 0.52555,9.69889 -4.24555,12.17116c-4.7711,2.47226 -10.52595,0.98853 -12.77683,-3.35534z" fill="#808080" stroke="#000000" stroke-width="1.4" stroke-linecap="butt"/><path d="M200.76823,137.88624c-1.26922,-2.44941 -0.31248,-5.46393 2.13691,-6.73314c2.44941,-1.26922 5.46393,-0.31248 6.73314,2.13691c1.26922,2.44941 0.31249,5.46392 -2.13691,6.73314c-2.44941,1.26922 -5.46393,0.31248 -6.73314,-2.13691z" fill="#000000" stroke="none" stroke-width="1.5" stroke-linecap="butt"/><path d="M224.61289,121.79273c-2.13228,-4.4033 -0.26586,-9.91099 4.41977,-12.42579c4.68563,-2.5148 10.04749,-0.89134 12.3611,3.41943c2.31361,4.31078 0.8658,9.83026 -4.22333,12.64201c-4.84068,2.67449 -10.3307,0.96293 -12.55755,-3.63565z" fill="#808080" stroke="#000000" stroke-width="1.4" stroke-linecap="butt"/><path d="M233.67193,118.03714c-1.33284,-2.48338 -0.40015,-5.57704 2.08324,-6.90988c2.48338,-1.33284 5.57704,-0.40015 6.90988,2.08324c1.33284,2.48338 0.40015,5.57703 -2.08324,6.90988c-2.48338,1.33284 -5.57704,0.40015 -6.90988,-2.08324z" fill="#000000" stroke="none" stroke-width="1.5" stroke-linecap="butt"/><path d="M199.77777,125.32025c0,0 0.3534,-3.81291 2.55239,-7.9506c2.43675,-4.58508 4.25008,-6.50281 4.25008,-6.50281l3.60746,2.04743c0,0 -2.69227,2.81538 -4.87743,6.38512c-2.9224,4.77409 -2.48995,6.32517 -4.4655,10.11913c-1.69276,3.25086 -3.60165,5.69593 -3.60165,5.69593l-1.03946,-0.661c0,0 2.05407,-2.95153 2.84369,-4.39429c0.65171,-1.19081 1.42256,-3.82917 1.42256,-3.82917z" fill="#000000" stroke="none" stroke-width="1.5" stroke-linecap="butt"/><path d="M246.0782,110.26253c-1.92033,-5.7548 -2.4956,-8.43777 -0.66252,-9.12749c1.83307,-0.68971 3.57468,2.90384 5.14822,8.577c1.49548,5.39175 -1.18708,10.82307 -1.18708,10.82307c0,0 -1.37829,-4.5178 -3.29862,-10.2726z" data-paper-data="{&quot;index&quot;:null}" fill="#808080" stroke="#000000" stroke-width="1" stroke-linecap="butt"/><path d="M244.51842,106.48386c0,0 1.89132,-1.92656 2.97863,0.98916c1.94919,5.22685 0.19148,9.48803 0.19148,9.48803" data-paper-data="{&quot;index&quot;:null}" fill="none" stroke="#000000" stroke-width="0.25" stroke-linecap="round"/><text transform="translate(217.89726,211.02126) scale(0.14293,0.44264)" font-size="40" xml:space="preserve" fill="#000000" fill-rule="nonzero" stroke="none" stroke-width="1" stroke-linecap="butt" stroke-linejoin="miter" stroke-miterlimit="10" stroke-dasharray="" stroke-dashoffset="0" font-family="Sans Serif" font-weight="normal" text-anchor="start" style="mix-blend-mode: normal"><tspan x="0" dy="0">how game work?</tspan></text></g></g></svg>