<svg version="1.1" xmlns="http://www.w3.org/2000/svg" xmlns:xlink="http://www.w3.org/1999/xlink" width="428.46095" height="349.15238" viewBox="0,0,428.46095,349.15238"><g transform="translate(-18.77138,-9.34107)"><g data-paper-data="{&quot;isPaintingLayer&quot;:true}" fill-rule="nonzero" stroke-linejoin="miter" stroke-miterlimit="10" stroke-dasharray="" stroke-dashoffset="0" style="mix-blend-mode: normal"><g><path d="M121.87481,62.71947c0,0 5.41329,-10.92187 5.54161,-11.78761c0.33654,-2.27063 -0.16776,-40.17317 35.96775,-41.57382c44.63633,-0.91362 39.01489,35.34872 41.53088,42.1903c3.44981,9.38084 6.65664,25.40016 6.65664,25.40016c0,0 -2.76715,-2.05351 -4.0797,-3.13397c-1.2242,-1.00773 -4.30143,-11.14585 -4.30143,-11.14585c0,0 3.09111,10.3481 1.31092,20.69498c-1.5623,9.48098 -6.79782,23.47543 -6.79782,23.47543l-1.65522,-8.59735c0,0 -1.02266,3.69794 -2.16005,4.83274c-1.1374,1.13479 -1.93873,6.16273 -1.93873,6.16273l-1.59205,-8.45421c0,0 -7.0601,11.01795 -24.35066,10.87154c-16.30625,-0.25547 -26.07151,-10.6752 -26.07151,-10.6752l-0.1162,2.65484c0,0 -1.01831,5.06181 -1.78778,4.19371c-1.33983,-1.51157 -2.94117,-9.82657 -4.39367,-13.90125c-2.72545,-7.64567 -3.23946,-12.24324 -3.23946,-12.24324c0,0 -1.58908,6.89916 -4.96704,7.7744c-4.23278,1.09673 -6.94665,0.34526 -6.94665,0.34526c0,0 3.60795,-2.71717 5.58396,-4.76989c1.76007,-1.8284 1.89658,-8.37722 1.89658,-8.37722c0,0 -1.35758,6.0847 -3.48277,6.61795c-2.21739,0.5564 -4.03008,0.53093 -4.03008,0.53093c0,0 4.97492,-5.03728 7.03074,-10.87429c1.94102,-5.51108 1.34972,-15.95731 1.34972,-15.95731c0,0 -0.61165,5.66163 -2.58013,5.79513c-1.24776,0.08463 -2.37785,-0.0489 -2.37785,-0.0489z" fill="#000000" stroke="none" stroke-width="1.5" stroke-linecap="butt"/><g><path d="M138.5357,64.74894c-0.57709,-7.29323 0.335,-17.15448 0.335,-17.15448c0,0 3.41059,-0.04124 13.91429,-3.14424c8.0696,-2.38394 20.54731,-9.48722 20.54731,-9.48722c0,0 -2.16005,3.00503 -3.40781,4.46015c-1.32651,1.54696 -3.99292,4.56297 -3.99292,4.56297c0,0 7.838,-1.66761 14.67476,-4.72931c8.56837,-3.53575 10.59252,-6.05309 12.95042,-4.5927c2.7829,1.72362 1.03006,23.1827 0.71846,28.74062c-0.42163,5.66922 -2.53327,9.49969 -3.15031,12.52053c-0.61704,3.02084 -0.4096,6.13662 -2.20622,16.0397c-1.12121,6.18021 -4.16183,8.92466 -10.01942,14.66081c-5.85759,5.73616 -9.05378,9.25275 -13.01359,9.32173c-3.81077,0.06639 -8.93565,-5.1002 -13.93542,-10.38244c-5.32393,-5.62474 -8.87489,-8.47713 -9.71551,-15.13975c-0.75707,-6.00039 -0.77653,-9.90853 -1.12266,-15.24835c-0.25298,-3.90273 -2.26119,-6.44504 -2.57636,-10.42801z" fill="#ffffff" stroke="#000000" stroke-width="1.5" stroke-linecap="butt"/><path d="M186.60573,49.62859c0,0 1.52429,0.31807 4.2558,1.11029c2.49492,0.72361 4.44935,1.74403 4.44935,1.74403l0.1951,1.17035c0,0 -7.24963,-3.12997 -15.1158,-2.4706c-6.2896,0.52724 -9.96319,2.8124 -9.96319,2.8124l0.04575,-4.17683c0,0 3.12748,-1.70421 7.86366,-1.85557c4.90428,-0.15672 8.09084,0.59125 8.09084,0.59125z" data-paper-data="{&quot;index&quot;:null}" fill="#000000" stroke="none" stroke-width="1.5" stroke-linecap="butt"/><path d="M173.8416,92.61613c0.5704,0.21186 3.08357,1.39942 6.02385,2.59586c2.9637,1.20597 7.21362,2.29294 7.19412,2.4605c-0.02476,0.21265 -10.43477,0.22694 -13.67937,0.63224c-2.71902,0.33964 -6.68867,0.70564 -6.68867,0.70564c0,0 -7.10401,-1.16169 -13.27235,-2.44521c-4.94371,-1.02869 -10.39929,-1.66108 -10.40995,-1.75461c-0.01439,-0.12613 3.86835,-0.71071 6.82417,-1.39467c1.14585,-0.49661 5.43971,-1.48513 5.43971,-1.48513c0,0 4.95585,-0.27766 7.60826,0.579c2.84203,0.91791 2.83546,2.44556 3.0831,2.46906c0,0 1.18436,-1.74932 2.36886,-2.10461c1.18451,-0.35528 5.08219,-0.41633 5.50828,-0.25808z" fill="#ffffff" stroke="#000000" stroke-width="1.4" stroke-linecap="butt"/><path d="M155.19357,97.1697c5.09114,1.02674 11.91756,2.80736 11.91756,2.80736c0,0 5.78976,-1.55585 8.44678,-1.8344c2.05992,-0.21596 11.216,-0.70654 11.26026,-0.33377c0.04328,0.36447 -9.03119,12.90033 -21.14808,12.44714c-13.76954,-0.43578 -22.86459,-15.13559 -22.82675,-15.30472c0.03784,-0.16913 7.2591,1.19165 12.35024,2.2184z" fill="#ffffff" stroke="#000000" stroke-width="1.9" stroke-linecap="butt"/><path d="M166.16787,94.17604c-1.03376,0 -3.5381,-3.26042 -3.7867,-5.3637c-0.22243,-1.88186 1.31512,-3.82799 3.7867,-3.82799c2.47159,0 4.2021,0.49077 4.02999,4.18853c-0.14607,3.13818 -1.55841,5.00317 -4.02999,5.00317z" fill="#ffffff" stroke="#000000" stroke-width="1.15" stroke-linecap="butt"/><path d="M169.76997,64.08231c0,0 0.1026,3.96976 0.00576,7.12662c-0.19174,6.25113 -1.08147,27.7607 -1.08147,27.7607l-2.98167,0.00864c0,0 -0.80294,-4.17274 -1.12322,-9.49979c-0.43353,-7.21063 -0.4495,-16.29321 -0.76344,-19.63229c-0.29758,-3.16513 -0.89593,-5.71453 -0.89593,-5.71453" fill="#ffffff" stroke="#000000" stroke-width="1.3" stroke-linecap="round"/><path d="M140.23535,74.87216c0,0 -4.93211,-3.51705 -6.16417,-8.97502c-1.29636,-5.74284 -1.46118,-9.7328 0.48013,-9.99193c1.94131,-0.25915 2.70321,2.37692 3.73262,8.35569c1.0294,5.97877 1.95143,10.61127 1.95143,10.61127z" data-paper-data="{&quot;index&quot;:null}" fill="#ffffff" stroke="#000000" stroke-width="1" stroke-linecap="butt"/><path d="M140.03275,70.92458c0,0 -3.56385,-2.92338 -4.31816,-8.45061c-0.42079,-3.08327 2.15675,-2.28016 2.15675,-2.28016" fill="none" stroke="#000000" stroke-width="0.25" stroke-linecap="round"/><path d="M143.04616,64.26869c0.07093,-4.89188 4.83834,-8.93609 10.21137,-8.8582c5.37302,0.0779 9.02724,4.2484 8.95632,9.14029c-0.07093,4.89188 -4.12352,8.79439 -9.49655,8.7165c-5.37302,-0.0779 -9.74207,-4.1067 -9.67114,-8.99859z" fill="#ffffff" stroke="#000000" stroke-width="1.4" stroke-linecap="butt"/><path d="M147.48378,64.38662c0.03999,-2.75843 2.30855,-4.96213 5.06696,-4.92214c2.75843,0.03999 4.96213,2.30855 4.92214,5.06696c-0.03999,2.75843 -2.30854,4.96213 -5.06696,4.92214c-2.75843,-0.03999 -4.96213,-2.30855 -4.92214,-5.06696z" fill="#000000" stroke="none" stroke-width="1.5" stroke-linecap="butt"/><path d="M170.10245,64.26941c0.20353,-4.88817 4.45264,-8.85847 9.77048,-8.85847c5.31783,0 9.27453,3.96607 9.27453,8.85847c0,4.8924 -3.88585,9.07104 -9.69964,9.14188c-5.52997,0.06739 -9.55792,-4.03692 -9.34537,-9.14188z" fill="#ffffff" stroke="#000000" stroke-width="1.4" stroke-linecap="butt"/><path d="M174.70521,64.35498c0,-2.81845 2.2848,-5.10325 5.10325,-5.10325c2.81845,0 5.10325,2.2848 5.10325,5.10325c0,2.81845 -2.28479,5.10325 -5.10325,5.10325c-2.81845,0 -5.10325,-2.2848 -5.10325,-5.10325z" fill="#000000" stroke="none" stroke-width="1.5" stroke-linecap="butt"/><path d="M142.97774,63.73652c0,0 0.06357,-9.01512 10.60111,-8.8249c9.47101,0.16586 9.55554,9.40723 9.55554,9.40723z" fill="#ffffff" stroke="#000000" stroke-width="1.15" stroke-linecap="butt"/><path d="M169.7248,63.86742c0,0 -0.24686,-9.4582 11.19813,-9.1032c9.71427,0.33347 9.54677,9.65229 9.54677,9.65229z" fill="#ffffff" stroke="#000000" stroke-width="1.15" stroke-linecap="butt"/><path d="M146.50758,53.72486c0,0 3.36963,-1.819 8.03244,-2.28178c5.16698,-0.51283 7.76823,-0.06628 7.76823,-0.06628l0.29508,4.13747c0,0 -3.83554,-0.68065 -8.01795,-0.52113c-5.59346,0.21333 -6.64488,1.43293 -10.89774,1.89119c-3.64408,0.39266 -6.73723,0.15884 -6.73723,0.15884l-0.02589,-1.23155c0,0 3.59517,0.07398 5.23371,-0.06836c1.35239,-0.11749 3.9757,-0.93808 3.9757,-0.93808z" fill="#000000" stroke="none" stroke-width="1.5" stroke-linecap="butt"/><path d="M194.46851,64.26089c1.0294,-5.97877 1.7913,-8.61483 3.73262,-8.35569c1.94131,0.25914 1.77649,4.24909 0.48013,9.99193c-1.23206,5.45797 -6.16417,8.97502 -6.16417,8.97502c0,0 0.92203,-4.6325 1.95143,-10.61127z" data-paper-data="{&quot;index&quot;:null}" fill="#ffffff" stroke="#000000" stroke-width="1" stroke-linecap="butt"/><path d="M194.88109,60.19383c0,0 2.57754,-0.80312 2.15675,2.28016c-0.75431,5.52723 -4.31816,8.45061 -4.31816,8.45061" data-paper-data="{&quot;index&quot;:null}" fill="none" stroke="#000000" stroke-width="0.25" stroke-linecap="round"/></g></g><g><path d="M231.12874,47.67128l12.89821,-8.0795l-1.72194,-16.35558l17.72963,12.39879l9.44913,-22.84838l13.52527,18.28296l15.23068,-18.83198c0,0 0.89307,13.20116 2.07296,23.48577c0.50855,4.43282 16.71719,-14.52717 16.71719,-14.52717c0,0 -1.8636,10.00432 -4.06222,23.00258c-0.42371,2.50499 14.37408,9.39091 14.37408,9.39091l-13.95357,19.23402l14.62144,11.29478c0,0 -23.19468,9.07901 -23.23458,9.34043c-1.38587,9.48098 -5.29093,10.55876 -5.29093,10.55876l-1.02476,-2.34735c0,0 -0.90717,2.19794 -1.91612,3.33274c-1.00896,1.13479 -3.0504,2.91273 -3.0504,2.91273l-0.08165,-3.70421c0,0 -6.26282,11.01795 -21.60079,10.87154c-14.46482,-0.25547 -23.12731,-10.6752 -23.12731,-10.6752l-0.10308,2.65484c0,0 -1.50858,-0.85794 -2.79018,-1.58679c-2.83916,-1.61465 -13.69321,-7.78741 -13.69321,-7.78741l11.12637,-17.24324l-10.71078,-10.68816l8.9293,-12.74178z" fill="#000000" stroke="none" stroke-width="1.5" stroke-linecap="butt"/><path d="M249.55973,70.1363c-0.57709,-7.29323 0.335,-17.15448 0.335,-17.15448c0,0 3.41059,-0.04124 13.91429,-3.14424c8.0696,-2.38394 20.54731,-9.48722 20.54731,-9.48722c0,0 -2.16005,3.00503 -3.40781,4.46015c-1.32651,1.54696 -3.99292,4.56297 -3.99292,4.56297c0,0 7.838,-1.66761 14.67476,-4.72931c8.56837,-3.53575 10.59252,-6.05309 12.95042,-4.5927c2.7829,1.72362 1.03006,23.1827 0.71846,28.74062c-0.42163,5.66922 -2.53327,9.49969 -3.15031,12.52053c-0.61704,3.02084 -0.4096,6.13662 -2.20622,16.0397c-1.12121,6.18021 -4.16183,8.92466 -10.01942,14.66081c-5.85759,5.73616 -9.05378,9.25275 -13.01359,9.32173c-3.81077,0.06639 -8.93565,-5.1002 -13.93542,-10.38244c-5.32393,-5.62474 -8.87489,-8.47713 -9.71551,-15.13975c-0.75707,-6.00039 -0.77653,-9.90853 -1.12266,-15.24835c-0.25298,-3.90273 -2.26119,-6.44504 -2.57636,-10.42801z" fill="#ffffff" stroke="#000000" stroke-width="1.5" stroke-linecap="butt"/><path d="M297.62976,55.01598c0,0 1.52429,0.31807 4.2558,1.11029c2.49492,0.72361 4.44935,1.74403 4.44935,1.74403l0.1951,1.17035c0,0 -7.24963,-3.12997 -15.1158,-2.4706c-6.2896,0.52724 -9.96319,2.8124 -9.96319,2.8124l0.04575,-4.17683c0,0 3.12748,-1.70421 7.86366,-1.85557c4.90428,-0.15672 8.09084,0.59125 8.09084,0.59125z" data-paper-data="{&quot;index&quot;:null}" fill="#000000" stroke="none" stroke-width="1.5" stroke-linecap="butt"/><path d="M284.86563,98.00352c0.5704,0.21186 3.08357,1.39942 6.02385,2.59586c2.9637,1.20597 7.21362,2.29294 7.19412,2.4605c-0.02476,0.21265 -10.43477,0.22694 -13.67937,0.63224c-2.71902,0.33964 -6.68867,0.70564 -6.68867,0.70564c0,0 -7.10401,-1.16169 -13.27235,-2.44521c-4.94371,-1.02869 -10.39929,-1.66108 -10.40995,-1.75461c-0.01439,-0.12613 3.86835,-0.71071 6.82417,-1.39467c1.14585,-0.49661 5.43971,-1.48513 5.43971,-1.48513c0,0 4.95585,-0.27766 7.60826,0.579c2.84203,0.91791 2.83546,2.44556 3.0831,2.46906c0,0 1.18436,-1.74932 2.36886,-2.10461c1.18451,-0.35528 5.08219,-0.41633 5.50828,-0.25808z" fill="#ffffff" stroke="#000000" stroke-width="1.4" stroke-linecap="butt"/><path d="M266.2176,102.55709c5.09114,1.02674 11.91756,2.80736 11.91756,2.80736c0,0 5.78976,-1.55585 8.44678,-1.8344c2.05992,-0.21596 11.216,-0.70654 11.26026,-0.33377c0.04328,0.36447 -9.03119,12.90033 -21.14808,12.44714c-13.76954,-0.43578 -22.86459,-15.13559 -22.82675,-15.30472c0.03784,-0.16913 7.2591,1.19165 12.35024,2.2184z" fill="#ffffff" stroke="#000000" stroke-width="1.9" stroke-linecap="butt"/><path d="M277.1919,99.56343c-1.03376,0 -3.5381,-3.26042 -3.7867,-5.3637c-0.22243,-1.88186 1.31512,-3.82799 3.7867,-3.82799c2.47159,0 4.2021,0.49077 4.02999,4.18853c-0.14607,3.13818 -1.55841,5.00317 -4.02999,5.00317z" fill="#ffffff" stroke="#000000" stroke-width="1.15" stroke-linecap="butt"/><path d="M280.794,69.46967c0,0 0.1026,3.96976 0.00576,7.12662c-0.19174,6.25113 -1.08147,27.7607 -1.08147,27.7607l-2.98167,0.00864c0,0 -0.80294,-4.17274 -1.12322,-9.49979c-0.43353,-7.21063 -0.4495,-16.29321 -0.76344,-19.63229c-0.29758,-3.16513 -0.89593,-5.71453 -0.89593,-5.71453" fill="#ffffff" stroke="#000000" stroke-width="1.3" stroke-linecap="round"/><path d="M251.25938,80.25955c0,0 -4.93211,-3.51705 -6.16417,-8.97502c-1.29636,-5.74284 -1.46118,-9.7328 0.48013,-9.99193c1.94131,-0.25915 2.70321,2.37692 3.73262,8.35569c1.0294,5.97877 1.95143,10.61127 1.95143,10.61127z" data-paper-data="{&quot;index&quot;:null}" fill="#ffffff" stroke="#000000" stroke-width="1" stroke-linecap="butt"/><path d="M251.05678,76.31199c0,0 -3.56385,-2.92338 -4.31816,-8.45061c-0.42079,-3.08327 2.15675,-2.28016 2.15675,-2.28016" fill="none" stroke="#000000" stroke-width="0.25" stroke-linecap="round"/><path d="M254.07019,69.65605c0.07093,-4.89188 4.83834,-8.93609 10.21137,-8.8582c5.37302,0.0779 9.02724,4.2484 8.95632,9.14029c-0.07093,4.89188 -4.12352,8.79439 -9.49655,8.7165c-5.37302,-0.0779 -9.74207,-4.1067 -9.67114,-8.99859z" fill="#ffffff" stroke="#000000" stroke-width="1.4" stroke-linecap="butt"/><path d="M258.50781,69.77402c0.03999,-2.75843 2.30855,-4.96213 5.06696,-4.92214c2.75843,0.03999 4.96213,2.30855 4.92214,5.06696c-0.03999,2.75843 -2.30854,4.96213 -5.06696,4.92214c-2.75843,-0.03999 -4.96213,-2.30855 -4.92214,-5.06696z" fill="#000000" stroke="none" stroke-width="1.5" stroke-linecap="butt"/><path d="M281.12648,69.65681c0.20353,-4.88817 4.45264,-8.85847 9.77048,-8.85847c5.31783,0 9.27453,3.96607 9.27453,8.85847c0,4.8924 -3.88585,9.07104 -9.69964,9.14188c-5.52997,0.06739 -9.55792,-4.03692 -9.34537,-9.14188z" fill="#ffffff" stroke="#000000" stroke-width="1.4" stroke-linecap="butt"/><path d="M285.72924,69.74237c0,-2.81845 2.2848,-5.10325 5.10325,-5.10325c2.81845,0 5.10325,2.2848 5.10325,5.10325c0,2.81845 -2.28479,5.10325 -5.10325,5.10325c-2.81845,0 -5.10325,-2.2848 -5.10325,-5.10325z" fill="#000000" stroke="none" stroke-width="1.5" stroke-linecap="butt"/><path d="M254.00177,69.1239c0,0 0.06357,-9.01512 10.60111,-8.8249c9.47101,0.16586 9.55554,9.40723 9.55554,9.40723z" fill="#ffffff" stroke="#000000" stroke-width="1.15" stroke-linecap="butt"/><path d="M280.74883,69.25481c0,0 -0.24686,-9.4582 11.19813,-9.1032c9.71427,0.33347 9.54677,9.65229 9.54677,9.65229z" fill="#ffffff" stroke="#000000" stroke-width="1.15" stroke-linecap="butt"/><path d="M257.53161,59.11225c0,0 3.36963,-1.819 8.03244,-2.28178c5.16698,-0.51283 7.76823,-0.06628 7.76823,-0.06628l0.29508,4.13747c0,0 -3.83554,-0.68065 -8.01795,-0.52113c-5.59346,0.21333 -6.64488,1.43293 -10.89774,1.89119c-3.64408,0.39266 -6.73723,0.15884 -6.73723,0.15884l-0.02589,-1.23155c0,0 3.59517,0.07398 5.23371,-0.06836c1.35239,-0.11749 3.9757,-0.93808 3.9757,-0.93808z" fill="#000000" stroke="none" stroke-width="1.5" stroke-linecap="butt"/><path d="M305.49253,69.64826c1.0294,-5.97877 1.7913,-8.61483 3.73262,-8.35569c1.94131,0.25914 1.77649,4.24909 0.48013,9.99193c-1.23206,5.45797 -6.16417,8.97502 -6.16417,8.97502c0,0 0.92203,-4.6325 1.95143,-10.61127z" data-paper-data="{&quot;index&quot;:null}" fill="#ffffff" stroke="#000000" stroke-width="1" stroke-linecap="butt"/><path d="M305.90512,65.58119c0,0 2.57754,-0.80312 2.15675,2.28016c-0.75431,5.52723 -4.31816,8.45061 -4.31816,8.45061" data-paper-data="{&quot;index&quot;:null}" fill="none" stroke="#000000" stroke-width="0.25" stroke-linecap="round"/></g><g><path d="M140.70377,171.57873c0.33654,-2.27063 -1.86776,-41.20651 34.26775,-42.60716c44.63633,-0.91362 36.41489,36.74872 38.93088,43.5903c3.44981,9.38084 4.58997,20.50016 4.58997,20.50016l-3.71447,-10.77982c0,0 1.62818,6.67611 2.1564,9.51057c0.75639,4.05882 0.53873,6.79082 0.53873,6.79082l-2.00367,-5.13683c0,0 0.9941,7.35286 0.61946,9.53041c-0.31754,1.92702 -1.72392,11.44894 -1.72392,11.44894c0,0 -0.57613,-3.105 -0.76319,-2.67229c-0.3516,0.81336 -1.51875,8.01333 -1.51875,8.01333l-0.7214,-3.47306l-2.57057,5.07517l-1.15522,-3.51402c0,0 -1.02266,2.19794 -2.16005,3.33274c-1.1374,1.13479 -3.43873,2.91273 -3.43873,2.91273l-0.09205,-3.70421c0,0 -7.0601,11.01795 -24.35066,10.87154c-16.30625,-0.25547 -26.07151,-10.6752 -26.07151,-10.6752l-0.1162,2.65484l-6.34812,-9.70754l-0.85521,6.3241c0,0 -1.5257,-7.52578 -1.91559,-10.79028c-0.34338,-2.87499 -0.302,-7.77706 -0.302,-7.77706l-1.43821,11.00122c0,0 -2.08558,-7.0939 -2.63589,-10.03912c-0.39717,-2.12561 -0.35905,-5.98955 -0.35905,-5.98955l-2.06974,6.08111c0,0 -0.2208,-4.97572 -0.01029,-9.18585c0.13341,-2.66822 0.63951,-5.02893 0.84792,-5.62067c1.94102,-5.51108 2.09972,-10.95731 2.09972,-10.95731l-2.54131,6.4129c0,0 4.69663,-10.55519 4.82495,-11.42093z" fill="#000000" stroke="none" stroke-width="1.5" stroke-linecap="butt"/><g><path d="M149.46364,187.83906c-0.57709,-7.29323 0.335,-17.15448 0.335,-17.15448c0,0 3.41059,-0.04124 13.91429,-3.14424c8.0696,-2.38394 20.54731,-9.48722 20.54731,-9.48722c0,0 -2.16005,3.00503 -3.40781,4.46015c-1.32651,1.54696 -3.99292,4.56297 -3.99292,4.56297c0,0 7.838,-1.66761 14.67476,-4.72931c8.56837,-3.53575 10.59252,-6.05309 12.95042,-4.5927c2.7829,1.72362 1.03006,23.1827 0.71846,28.74062c-0.42163,5.66922 -2.53327,9.49969 -3.15031,12.52053c-0.61704,3.02084 -0.4096,6.13662 -2.20622,16.0397c-1.12121,6.18021 -4.16183,8.92466 -10.01942,14.66081c-5.85759,5.73616 -9.05378,9.25275 -13.01359,9.32173c-3.81077,0.06639 -8.93565,-5.1002 -13.93542,-10.38244c-5.32393,-5.62474 -8.87489,-8.47713 -9.71551,-15.13975c-0.75707,-6.00039 -0.77653,-9.90853 -1.12266,-15.24835c-0.25298,-3.90273 -2.26119,-6.44504 -2.57636,-10.42801z" fill="#ffffff" stroke="#000000" stroke-width="1.5" stroke-linecap="butt"/><path d="M197.53367,172.71871c0,0 1.52429,0.31807 4.2558,1.11029c2.49492,0.72361 4.44935,1.74403 4.44935,1.74403l0.1951,1.17035c0,0 -7.24963,-3.12997 -15.1158,-2.4706c-6.2896,0.52724 -9.96319,2.8124 -9.96319,2.8124l0.04575,-4.17683c0,0 3.12748,-1.70421 7.86366,-1.85557c4.90428,-0.15672 8.09084,0.59125 8.09084,0.59125z" data-paper-data="{&quot;index&quot;:null}" fill="#000000" stroke="none" stroke-width="1.5" stroke-linecap="butt"/><path d="M184.76954,215.70625c0.5704,0.21186 3.08357,1.39942 6.02385,2.59586c2.9637,1.20597 7.21362,2.29294 7.19412,2.4605c-0.02476,0.21265 -10.43477,0.22694 -13.67937,0.63224c-2.71902,0.33964 -6.68867,0.70564 -6.68867,0.70564c0,0 -7.10401,-1.16169 -13.27235,-2.44521c-4.94371,-1.02869 -10.39929,-1.66108 -10.40995,-1.75461c-0.01439,-0.12613 3.86835,-0.71071 6.82417,-1.39467c1.14585,-0.49661 5.43971,-1.48513 5.43971,-1.48513c0,0 4.95585,-0.27766 7.60826,0.579c2.84203,0.91791 2.83546,2.44556 3.0831,2.46906c0,0 1.18436,-1.74932 2.36886,-2.10461c1.18451,-0.35528 5.08219,-0.41633 5.50828,-0.25808z" fill="#ffffff" stroke="#000000" stroke-width="1.4" stroke-linecap="butt"/><path d="M166.12151,220.25982c5.09114,1.02674 11.91756,2.80736 11.91756,2.80736c0,0 5.78976,-1.55585 8.44678,-1.8344c2.05992,-0.21596 11.216,-0.70654 11.26026,-0.33377c0.04328,0.36447 -9.03119,12.90033 -21.14808,12.44714c-13.76954,-0.43578 -22.86459,-15.13559 -22.82675,-15.30472c0.03784,-0.16913 7.2591,1.19165 12.35024,2.2184z" fill="#ffffff" stroke="#000000" stroke-width="1.9" stroke-linecap="butt"/><path d="M177.09581,217.26616c-1.03376,0 -3.5381,-3.26042 -3.7867,-5.3637c-0.22243,-1.88186 1.31512,-3.82799 3.7867,-3.82799c2.47159,0 4.2021,0.49077 4.02999,4.18853c-0.14607,3.13818 -1.55841,5.00317 -4.02999,5.00317z" fill="#ffffff" stroke="#000000" stroke-width="1.15" stroke-linecap="butt"/><path d="M180.69791,187.17243c0,0 0.1026,3.96976 0.00576,7.12662c-0.19174,6.25113 -1.08147,27.7607 -1.08147,27.7607l-2.98167,0.00864c0,0 -0.80294,-4.17274 -1.12322,-9.49979c-0.43353,-7.21063 -0.4495,-16.29321 -0.76344,-19.63229c-0.29758,-3.16513 -0.89593,-5.71453 -0.89593,-5.71453" fill="#ffffff" stroke="#000000" stroke-width="1.3" stroke-linecap="round"/><path d="M151.16329,197.96228c0,0 -4.93211,-3.51705 -6.16417,-8.97502c-1.29636,-5.74284 -1.46118,-9.7328 0.48013,-9.99193c1.94131,-0.25915 2.70321,2.37692 3.73262,8.35569c1.0294,5.97877 1.95143,10.61127 1.95143,10.61127z" data-paper-data="{&quot;index&quot;:null}" fill="#ffffff" stroke="#000000" stroke-width="1" stroke-linecap="butt"/><path d="M150.96069,194.01472c0,0 -3.56385,-2.92338 -4.31816,-8.45061c-0.42079,-3.08327 2.15675,-2.28016 2.15675,-2.28016" fill="none" stroke="#000000" stroke-width="0.25" stroke-linecap="round"/><path d="M153.9741,187.35881c0.07093,-4.89188 4.83834,-8.93609 10.21137,-8.8582c5.37302,0.0779 9.02724,4.2484 8.95632,9.14029c-0.07093,4.89188 -4.12352,8.79439 -9.49655,8.7165c-5.37302,-0.0779 -9.74207,-4.1067 -9.67114,-8.99859z" fill="#ffffff" stroke="#000000" stroke-width="1.4" stroke-linecap="butt"/><path d="M158.41171,187.47677c0.03999,-2.75843 2.30855,-4.96213 5.06696,-4.92214c2.75843,0.03999 4.96213,2.30855 4.92214,5.06696c-0.03999,2.75843 -2.30854,4.96213 -5.06696,4.92214c-2.75843,-0.03999 -4.96213,-2.30855 -4.92214,-5.06696z" fill="#000000" stroke="none" stroke-width="1.5" stroke-linecap="butt"/><path d="M181.03039,187.35956c0.20353,-4.88817 4.45264,-8.85847 9.77048,-8.85847c5.31783,0 9.27453,3.96607 9.27453,8.85847c0,4.8924 -3.88585,9.07104 -9.69964,9.14188c-5.52997,0.06739 -9.55792,-4.03692 -9.34537,-9.14188z" fill="#ffffff" stroke="#000000" stroke-width="1.4" stroke-linecap="butt"/><path d="M185.63315,187.4451c0,-2.81845 2.2848,-5.10325 5.10325,-5.10325c2.81845,0 5.10325,2.2848 5.10325,5.10325c0,2.81845 -2.28479,5.10325 -5.10325,5.10325c-2.81845,0 -5.10325,-2.2848 -5.10325,-5.10325z" fill="#000000" stroke="none" stroke-width="1.5" stroke-linecap="butt"/><path d="M153.90568,186.82664c0,0 0.06357,-9.01512 10.60111,-8.8249c9.47101,0.16586 9.55554,9.40723 9.55554,9.40723z" fill="#ffffff" stroke="#000000" stroke-width="1.15" stroke-linecap="butt"/><path d="M157.43552,176.81498c0,0 3.36963,-1.819 8.03244,-2.28178c5.16698,-0.51283 7.76823,-0.06628 7.76823,-0.06628l0.29508,4.13747c0,0 -3.83554,-0.68065 -8.01795,-0.52113c-5.59346,0.21333 -6.64488,1.43293 -10.89774,1.89119c-3.64408,0.39266 -6.73723,0.15884 -6.73723,0.15884l-0.02589,-1.23155c0,0 3.59517,0.07398 5.23371,-0.06836c1.35239,-0.11749 3.9757,-0.93808 3.9757,-0.93808z" fill="#000000" stroke="none" stroke-width="1.5" stroke-linecap="butt"/><path d="M205.39645,187.35101c1.0294,-5.97877 1.7913,-8.61483 3.73262,-8.35569c1.94131,0.25914 1.77649,4.24909 0.48013,9.99193c-1.23206,5.45797 -6.16417,8.97502 -6.16417,8.97502c0,0 0.92203,-4.6325 1.95143,-10.61127z" data-paper-data="{&quot;index&quot;:null}" fill="#ffffff" stroke="#000000" stroke-width="1" stroke-linecap="butt"/><path d="M205.80903,183.28395c0,0 2.57754,-0.80312 2.15675,2.28016c-0.75431,5.52723 -4.31816,8.45061 -4.31816,8.45061" data-paper-data="{&quot;index&quot;:null}" fill="none" stroke="#000000" stroke-width="0.25" stroke-linecap="round"/></g></g><g><path d="M234.33,185.57363c0,0 5.95207,-5.19436 6.076,-5.95374c0.32501,-1.99168 -5.16201,-48.23783 35.06849,-49.13308c48.44001,-0.80138 37.34454,43.67275 39.77431,49.67383c3.33159,8.22839 5.94566,15.26252 5.94566,15.26252c0,0 -2.67232,-1.80123 -3.93989,-2.74896c-1.18225,-0.88393 -3.67116,-2.75937 -3.67116,-2.75937c0,0 2.98519,9.07682 1.266,18.15257c-1.50876,8.31623 -7.04773,15.10926 -7.04773,15.10926l-1.11563,-2.05898c0,0 -0.98762,1.92792 -2.08603,2.92331c-1.09842,0.99538 -3.32088,2.5549 -3.32088,2.5549l-0.0889,-3.24914c0,0 -6.81815,9.66438 -23.51618,9.53596c-15.74744,-0.22409 -25.17805,-9.36374 -25.17805,-9.36374l-0.11222,2.32869c0,0 -3.7613,-2.88824 -5.96961,-8.51495c-2.63205,-6.70639 -3.12844,-10.73914 -3.12844,-10.73914c0,0 -2.25892,1.66584 -5.52112,2.43356c-4.08773,0.962 -6.70859,0.30284 -6.70859,0.30284c0,0 3.4843,-2.38336 5.3926,-4.1839c1.69976,-1.60378 2.55588,-2.96232 2.55588,-2.96232c0,0 -2.03536,0.95145 -4.08772,1.41918c-2.1414,0.48804 -3.89197,0.4657 -3.89197,0.4657c0,0 4.80443,-4.41845 6.7898,-9.53837c1.8745,-4.83403 2.02777,-9.61119 2.02777,-9.61119c0,0 -1.31499,0.58035 -3.21601,0.69745c-1.205,0.07424 -2.29636,-0.0429 -2.29636,-0.0429z" fill="#000000" stroke="none" stroke-width="1.5" stroke-linecap="butt"/><path d="M325.95261,198.10046c0.60068,1.57326 3.38128,3.06099 4.76246,3.87029c0.47757,0.27983 3.24098,1.3359 3.24098,1.3359c0,0 -4.63869,2.69199 -6.12491,2.1763c0.41748,0.62441 0.80982,1.26572 1.04123,1.97686c1.1916,3.70886 0.70244,8.9143 -3.68681,9.62043l0.01829,0.07004l-0.59008,0.15405c0,0 -0.1209,0.01525 -0.18188,-0.00581c-0.02524,-0.00872 -0.0486,-0.0204 -0.06986,-0.03452c0.11206,0.44012 2.41136,7.61563 2.41136,7.61563c0,0 -9.3576,-5.36041 -10.31835,-3.22792c-1.04028,2.30902 -1.76035,4.76795 -2.59211,7.15942c-0.17559,0.50486 -0.5545,5.54183 -0.5545,5.54183c0,0 -2.4858,-4.48739 -2.74264,-4.67045c-3.24396,-2.32613 -4.66673,-8.33693 -8.13488,-2.62067c-1.13437,1.86969 -1.63479,0.94271 -2.79062,2.74391c-0.23559,0.36714 -1.65515,3.51069 -1.65515,3.51069c0,0 -1.20811,-3.46812 -1.48218,-4.20392c-0.65145,-2.72063 -1.25944,-5.3688 -0.8402,-8.17264c0.09611,-0.64274 0.18032,-1.60405 0.53298,-2.29579c-1.16985,0.52937 -6.70042,2.21734 -6.70042,2.21734c0,0 6.6012,-6.32454 7.28126,-7.1263c2.20268,-2.58752 5.49911,-7.00915 5.39016,-10.64218c-1.52305,-0.36561 -6.94023,2.79781 -6.94023,2.79781c0,0 -0.38527,-0.72272 0.02224,-1.89878c0.17944,-0.51787 0.36033,-1.03524 0.54051,-1.55285c0.79163,-2.13136 3.08233,-7.17708 5.69223,-8.60367c-1.35905,0.11631 -8.59726,3.16246 -8.59726,3.16246c0,0 4.52248,-5.72862 4.97446,-6.17504c1.27245,-1.57865 2.14684,-2.99921 2.74734,-4.95652c0.22258,-0.72552 0.24636,-2.56576 0.66242,-3.10825c0.46841,-0.61074 3.00164,0.48869 3.64095,0.65593c4.04654,1.06011 8.15585,2.62327 11.91444,4.43767c3.08411,1.49835 5.44058,5.33984 8.65294,6.40853c0,0 0.2902,0.10025 0.18995,0.39045c-0.10026,0.2902 -0.39046,0.18995 -0.39046,0.18995c-0.22159,-0.07879 -0.43865,-0.16945 -0.65176,-0.27047c0.78948,0.9233 0.8602,2.30489 1.32806,3.53028zM324.26173,216.86287c0.01595,-0.02973 0.03637,-0.05604 0.06012,-0.07832l0.33252,-0.32535l0.00348,0.00355l0.00803,-0.01425c2.64714,-2.07483 -0.18803,-3.51335 -1.41345,-5.03706l-0.00308,0.00526c0.26897,2.01053 0.59285,3.73743 1.01238,5.44617z" data-paper-data="{&quot;index&quot;:null}" fill="#000000" stroke="none" stroke-width="0.5" stroke-linecap="butt"/><path d="M236.3128,188.967c-0.23442,0.0259 -0.46918,0.04071 -0.70435,0.04282c0,0 -0.30703,0 -0.30703,-0.30703c0,-0.30703 0.30703,-0.30703 0.30703,-0.30703c3.38524,0.03883 6.86692,-2.82263 10.27123,-3.23179c4.14503,-0.48765 8.53951,-0.62329 12.7104,-0.30397c0.65887,0.05068 3.41225,-0.16132 3.65556,0.56891c0.21612,0.64861 -0.36231,2.39574 -0.38884,3.15417c-0.07154,2.0461 0.29106,3.67431 0.97828,5.58193c0.28143,0.56954 2.68544,7.46089 2.68544,7.46089c0,0 -5.84679,-5.24269 -7.09337,-5.79639c2.00101,2.20061 2.51857,7.71776 2.57085,9.99078c0.00128,0.54808 0.00332,1.09615 0.00383,1.64423c0.00116,1.24466 -0.59899,1.80196 -0.59899,1.80196c0,0 -4.08729,-4.75892 -5.64623,-4.91067c-1.28928,3.39831 0.38265,8.65397 1.6197,11.81891c0.38099,0.97987 4.55518,9.11325 4.55518,9.11325c0,0 -4.67625,-3.40136 -5.60911,-4.2837c0.10745,0.76898 -0.12685,1.7051 -0.24589,2.34399c-0.51928,2.78704 -1.95866,5.09152 -3.46277,7.45031c-0.49931,0.60598 -2.77365,3.48951 -2.77365,3.48951c0,0 -0.31526,-3.43478 -0.41806,-3.85872c-0.50433,-2.07988 -1.28001,-1.36711 -1.74169,-3.50473c-1.41151,-6.53539 -4.719,-1.31866 -8.5447,-0.17928c-0.30254,0.08916 -4.11736,3.51888 -4.11736,3.51888c0,0 1.2866,-4.88459 1.28548,-5.41912c-0.00528,-2.53198 0.11704,-5.09126 -0.11225,-7.6134c-0.21176,-2.32932 -10.80677,-0.31828 -10.80677,-0.31828c0,0 4.5163,-6.03141 4.76593,-6.41081c-0.0247,0.00641 -0.0506,0.00982 -0.0773,0.00982c-0.06452,0 -0.1738,-0.0539 -0.1738,-0.0539l-0.50744,-0.33829l0.04015,-0.06023c-3.91808,-2.10065 -2.68069,-7.18049 -0.34334,-10.29696c0.45093,-0.59659 1.03118,-1.07464 1.62966,-1.5285c-1.57315,0.00213 -5.07854,-4.05699 -5.07854,-4.05699c0,0 2.95679,-0.09584 3.49955,-0.20439c1.56974,-0.31395 4.68371,-0.81216 5.76519,-2.10304c0.84235,-1.00545 1.36032,-2.28822 2.40802,-2.90312zM232.1117,205.33915l-0.0012,-0.00598c-1.6558,1.04004 -4.80528,1.47395 -2.98073,4.29942l0.00294,0.01609l0.00445,-0.00222l0.20805,0.4161c0.01517,0.02882 0.02589,0.06034 0.03126,0.09365c0.95451,-1.47809 1.82451,-3.00457 2.73524,-4.81706z" fill="#000000" stroke="none" stroke-width="0.5" stroke-linecap="butt"/><path d="M286.44385,187.90387c0,-2.81845 2.2848,-5.10325 5.10325,-5.10325c2.81845,0 5.10325,2.2848 5.10325,5.10325c0,2.81845 -2.28479,5.10325 -5.10325,5.10325c-2.81845,0 -5.10325,-2.2848 -5.10325,-5.10325z" fill="#000000" stroke="none" stroke-width="1.5" stroke-linecap="butt"/><g stroke="#000000"><path d="M250.01769,187.70092c-0.57709,-7.29323 0.335,-17.15448 0.335,-17.15448c0,0 3.41059,-0.04124 13.91429,-3.14424c8.0696,-2.38394 20.54731,-9.48722 20.54731,-9.48722c0,0 -2.16005,3.00503 -3.40781,4.46015c-1.32651,1.54696 -3.99292,4.56297 -3.99292,4.56297c0,0 7.838,-1.66761 14.67476,-4.72931c8.56837,-3.53575 10.59252,-6.05309 12.95042,-4.5927c2.7829,1.72362 1.03006,23.1827 0.71846,28.74062c-0.42163,5.66922 -2.53327,9.49969 -3.15031,12.52053c-0.61704,3.02084 -0.4096,6.13662 -2.20622,16.0397c-1.12121,6.18021 -4.16183,8.92466 -10.01942,14.66081c-5.85759,5.73616 -9.05378,9.25275 -13.01359,9.32173c-3.81077,0.06639 -8.93565,-5.1002 -13.93542,-10.38244c-5.32393,-5.62474 -8.87489,-8.47713 -9.71551,-15.13975c-0.75707,-6.00039 -0.77653,-9.90853 -1.12266,-15.24835c-0.25298,-3.90273 -2.26119,-6.44504 -2.57636,-10.42801z" fill="#ffffff" stroke-width="1.5" stroke-linecap="butt"/><path d="M251.71734,197.82414c0,0 -4.93211,-3.51705 -6.16417,-8.97502c-1.29636,-5.74284 -1.46118,-9.7328 0.48013,-9.99193c1.94131,-0.25915 2.70321,2.37692 3.73262,8.35569c1.0294,5.97877 1.95143,10.61127 1.95143,10.61127z" data-paper-data="{&quot;index&quot;:null}" fill="#ffffff" stroke-width="1" stroke-linecap="butt"/><path d="M251.51474,193.87658c0,0 -3.56385,-2.92338 -4.31816,-8.45061c-0.42079,-3.08327 2.15675,-2.28016 2.15675,-2.28016" fill="none" stroke-width="0.25" stroke-linecap="round"/><path d="M305.9505,187.21287c1.0294,-5.97877 1.7913,-8.61483 3.73262,-8.35569c1.94131,0.25914 1.77649,4.24909 0.48013,9.99193c-1.23206,5.45797 -6.16417,8.97502 -6.16417,8.97502c0,0 0.92203,-4.6325 1.95143,-10.61127z" data-paper-data="{&quot;index&quot;:null}" fill="#ffffff" stroke-width="1" stroke-linecap="butt"/><path d="M306.36307,183.14581c0,0 2.57754,-0.80312 2.15675,2.28016c-0.75431,5.52723 -4.31816,8.45061 -4.31816,8.45061" data-paper-data="{&quot;index&quot;:null}" fill="none" stroke-width="0.25" stroke-linecap="round"/></g></g><g><path d="M443.49063,220.56544c0,0 -1.23549,0.13353 -2.59963,0.0489c-2.15208,-0.1335 -3.64074,-0.79513 -3.64074,-0.79513c0,0 0.17351,5.44623 2.29557,10.95731c2.24757,5.83701 7.6865,10.87429 7.6865,10.87429c0,0 -1.98176,0.02547 -4.40597,-0.53093c-2.32341,-0.53325 -4.62756,-1.61795 -4.62756,-1.61795c0,0 -1.61632,4.83947 0.30791,6.66787c2.16032,2.05272 5.86973,14.87689 5.86973,14.87689c0,0 -3.20204,-8.88543 -7.82962,-9.98216c-3.69302,-0.87524 -3.19467,-6.53514 -3.19467,-6.53514c0,0 -0.56195,4.59757 -3.54161,12.24324c-2.49996,6.41478 -6.758,9.70754 -6.758,9.70754l-0.12703,-2.65484c0,0 -10.67607,10.41973 -28.50321,10.6752c-18.90326,0.14641 -26.62186,-10.87154 -26.62186,-10.87154l-0.10063,3.70421c0,0 -2.51598,-1.77794 -3.75947,-2.91273c-1.24347,-1.1348 -2.36151,-3.33274 -2.36151,-3.33274c0,0 -0.2863,-12.33367 -3.3996,-12.1452c-3.32642,0.20138 -15.96195,13.31732 -15.96195,13.31732c0,0 1.48605,-10.80005 5.41916,-18.63571c4.3217,-8.60983 6.13412,-18.10947 6.13412,-18.10947c0,0 -2.81762,2.13812 -4.156,3.14585c-1.43497,1.08046 -4.46021,3.13397 -4.46021,3.13397c0,0 2.9593,-8.01932 6.73087,-17.40016c2.75066,-6.84158 -3.3951,-43.10392 45.40449,-42.1903c39.50589,1.40065 38.95455,39.30319 39.32248,41.57382c0.14029,0.86574 6.87843,6.78761 6.87843,6.78761z" data-paper-data="{&quot;index&quot;:null}" fill="#000000" stroke="none" stroke-width="1.5" stroke-linecap="butt"/><path d="M377.20961,287.88827c0,-0.57113 0.46299,-1.03413 1.03411,-1.03413c0.57113,0 1.03413,0.463 1.03413,1.03413c0,0.57113 -0.463,1.03411 -1.03413,1.03411c-0.57113,0 -1.03411,-0.46299 -1.03411,-1.03411z" fill="#000000" stroke="none" stroke-width="1.5" stroke-linecap="butt"/><path d="M347.11042,195.80203c0,0 6.51534,-5.92187 6.65099,-6.78761c0.17115,-1.09237 0.13658,-10.43159 4.30797,-19.98587c1.18388,-2.7116 5.34802,-6.26528 5.49439,-9.74047c0.27217,-6.4622 -4.33639,-12.65296 -4.33639,-12.65296c0,0 27.64839,0.98544 32.55629,0.80548c3.12236,-0.06046 -9.31294,-11.04566 -9.31294,-11.04566c0,0 26.39533,10.57306 29.23305,11.3609c27.30548,7.58081 21.73315,36.08765 23.98304,41.87506c3.64686,9.38084 6.50831,17.40016 6.50831,17.40016c0,0 -2.92521,-2.05351 -4.31273,-3.13397c-1.29413,-1.00773 -4.01857,-3.14585 -4.01857,-3.14585c0,0 3.26767,10.3481 1.3858,20.69498c-1.65154,9.48098 -7.71467,17.22543 -7.71467,17.22543l-1.22121,-2.34735c0,0 -1.08107,2.19794 -2.28343,3.33274c-1.20237,1.13479 -3.63515,2.91273 -3.63515,2.91273l-0.09731,-3.70421c0,0 -7.46338,11.01795 -25.74159,10.87154c-17.23767,-0.25547 -27.56074,-10.6752 -27.56074,-10.6752l-0.12283,2.65484c0,0 -4.11725,-3.29276 -6.53454,-9.70754c-2.88113,-7.64567 -3.4245,-12.24324 -3.4245,-12.24324c0,0 -2.47269,1.89916 -6.0436,2.7744c-4.47456,1.09673 -7.34345,0.34526 -7.34345,0.34526c0,0 3.81404,-2.71717 5.90292,-4.76989c1.8606,-1.8284 2.79775,-3.37722 2.79775,-3.37722c0,0 -2.22796,1.0847 -4.47455,1.61795c-2.34405,0.5564 -4.26028,0.53093 -4.26028,0.53093c0,0 5.25909,-5.03728 7.43234,-10.87429c2.0519,-5.51108 2.21966,-10.95731 2.21966,-10.95731c0,0 -1.43943,0.66163 -3.52035,0.79513c-1.31904,0.08463 -2.51368,-0.0489 -2.51368,-0.0489z" fill="#000000" stroke="none" stroke-width="1.5" stroke-linecap="butt"/><path d="M367.36747,203.79032c-0.57709,-7.29323 0.335,-17.15448 0.335,-17.15448c0,0 3.41059,-0.04124 13.91429,-3.14424c8.0696,-2.38394 20.54731,-9.48722 20.54731,-9.48722c0,0 -2.16005,3.00503 -3.40781,4.46015c-1.32651,1.54696 -3.99292,4.56297 -3.99292,4.56297c0,0 7.838,-1.66761 14.67476,-4.72931c8.56837,-3.53575 10.59252,-6.05309 12.95042,-4.5927c2.7829,1.72362 1.03006,23.1827 0.71846,28.74062c-0.42163,5.66922 -2.53327,9.49969 -3.15031,12.52053c-0.61704,3.02084 -0.4096,6.13662 -2.20622,16.0397c-1.12121,6.18021 -4.16183,8.92466 -10.01942,14.66081c-5.85759,5.73616 -9.05378,9.25275 -13.01359,9.32173c-3.81077,0.06639 -8.93565,-5.1002 -13.93542,-10.38244c-5.32393,-5.62474 -8.87489,-8.47713 -9.71551,-15.13975c-0.75707,-6.00039 -0.77653,-9.90853 -1.12266,-15.24835c-0.25298,-3.90273 -2.26119,-6.44504 -2.57636,-10.42801z" fill="#ffffff" stroke="#000000" stroke-width="1.5" stroke-linecap="butt"/><path d="M415.43747,188.66996c0,0 1.52429,0.31807 4.2558,1.11029c2.49492,0.72361 4.44935,1.74403 4.44935,1.74403l0.1951,1.17035c0,0 -7.24963,-3.12997 -15.1158,-2.4706c-6.2896,0.52724 -9.96319,2.8124 -9.96319,2.8124l0.04575,-4.17683c0,0 3.12748,-1.70421 7.86366,-1.85557c4.90428,-0.15672 8.09084,0.59125 8.09084,0.59125z" data-paper-data="{&quot;index&quot;:null}" fill="#000000" stroke="none" stroke-width="1.5" stroke-linecap="butt"/><path d="M402.67334,231.65751c0.5704,0.21186 3.08357,1.39942 6.02385,2.59586c2.9637,1.20597 7.21362,2.29294 7.19412,2.4605c-0.02476,0.21265 -10.43477,0.22694 -13.67937,0.63224c-2.71902,0.33964 -6.68867,0.70564 -6.68867,0.70564c0,0 -7.10401,-1.16169 -13.27235,-2.44521c-4.94371,-1.02869 -10.39929,-1.66108 -10.40995,-1.75461c-0.01439,-0.12613 3.86835,-0.71071 6.82417,-1.39467c1.14585,-0.49661 5.43971,-1.48513 5.43971,-1.48513c0,0 4.95585,-0.27766 7.60826,0.579c2.84203,0.91791 2.83546,2.44556 3.0831,2.46906c0,0 1.18436,-1.74932 2.36886,-2.10461c1.18451,-0.35528 5.08219,-0.41633 5.50828,-0.25808z" fill="#ffffff" stroke="#000000" stroke-width="1.4" stroke-linecap="butt"/><path d="M384.02536,236.2111c5.09114,1.02674 11.91756,2.80736 11.91756,2.80736c0,0 5.78976,-1.55585 8.44678,-1.8344c2.05992,-0.21596 11.216,-0.70654 11.26026,-0.33377c0.04328,0.36447 -9.03119,12.90033 -21.14808,12.44714c-13.76954,-0.43578 -22.86459,-15.13559 -22.82675,-15.30472c0.03784,-0.16913 7.2591,1.19165 12.35024,2.2184z" fill="#ffffff" stroke="#000000" stroke-width="1.9" stroke-linecap="butt"/><path d="M394.99962,233.21742c-1.03376,0 -3.5381,-3.26042 -3.7867,-5.3637c-0.22243,-1.88186 1.31512,-3.82799 3.7867,-3.82799c2.47159,0 4.2021,0.49077 4.02999,4.18853c-0.14607,3.13818 -1.55841,5.00317 -4.02999,5.00317z" fill="#ffffff" stroke="#000000" stroke-width="1.15" stroke-linecap="butt"/><path d="M398.60172,203.1237c0,0 0.1026,3.96976 0.00576,7.12662c-0.19174,6.25113 -1.08147,27.7607 -1.08147,27.7607l-2.98167,0.00864c0,0 -0.80294,-4.17274 -1.12322,-9.49979c-0.43353,-7.21063 -0.4495,-16.29321 -0.76344,-19.63229c-0.29758,-3.16513 -0.89593,-5.71453 -0.89593,-5.71453" fill="#ffffff" stroke="#000000" stroke-width="1.3" stroke-linecap="round"/><path d="M369.06712,213.91354c0,0 -4.93211,-3.51705 -6.16417,-8.97502c-1.29636,-5.74284 -1.46118,-9.7328 0.48013,-9.99193c1.94131,-0.25915 2.70321,2.37692 3.73262,8.35569c1.0294,5.97877 1.95143,10.61127 1.95143,10.61127z" data-paper-data="{&quot;index&quot;:null}" fill="#ffffff" stroke="#000000" stroke-width="1" stroke-linecap="butt"/><path d="M368.86452,209.96598c0,0 -3.56385,-2.92338 -4.31816,-8.45061c-0.42079,-3.08327 2.15675,-2.28016 2.15675,-2.28016" fill="none" stroke="#000000" stroke-width="0.25" stroke-linecap="round"/><path d="M371.87793,203.31008c0.07093,-4.89188 4.83834,-8.93609 10.21137,-8.8582c5.37302,0.0779 9.02724,4.2484 8.95632,9.14029c-0.07093,4.89188 -4.12352,8.79439 -9.49655,8.7165c-5.37302,-0.0779 -9.74207,-4.1067 -9.67114,-8.99859z" fill="#ffffff" stroke="#000000" stroke-width="1.4" stroke-linecap="butt"/><path d="M376.31557,203.42802c0.03999,-2.75843 2.30855,-4.96213 5.06696,-4.92214c2.75843,0.03999 4.96213,2.30855 4.92214,5.06696c-0.03999,2.75843 -2.30854,4.96213 -5.06696,4.92214c-2.75843,-0.03999 -4.96213,-2.30855 -4.92214,-5.06696z" fill="#000000" stroke="none" stroke-width="1.5" stroke-linecap="butt"/><path d="M398.93421,203.31081c0.20353,-4.88817 4.45264,-8.85847 9.77048,-8.85847c5.31783,0 9.27453,3.96607 9.27453,8.85847c0,4.8924 -3.88585,9.07104 -9.69964,9.14188c-5.52997,0.06739 -9.55792,-4.03692 -9.34537,-9.14188z" fill="#ffffff" stroke="#000000" stroke-width="1.4" stroke-linecap="butt"/><path d="M403.53696,203.39636c0,-2.81845 2.2848,-5.10325 5.10325,-5.10325c2.81845,0 5.10325,2.2848 5.10325,5.10325c0,2.81845 -2.28479,5.10325 -5.10325,5.10325c-2.81845,0 -5.10325,-2.2848 -5.10325,-5.10325z" fill="#000000" stroke="none" stroke-width="1.5" stroke-linecap="butt"/><path d="M371.8095,202.7779c0,0 0.06357,-9.01512 10.60111,-8.8249c9.47101,0.16586 9.55554,9.40723 9.55554,9.40723z" fill="#ffffff" stroke="#000000" stroke-width="1.15" stroke-linecap="butt"/><path d="M398.55656,202.9088c0,0 -0.24686,-9.4582 11.19813,-9.1032c9.71427,0.33347 9.54677,9.65229 9.54677,9.65229z" fill="#ffffff" stroke="#000000" stroke-width="1.15" stroke-linecap="butt"/><path d="M375.33934,192.76624c0,0 3.36963,-1.819 8.03244,-2.28178c5.16698,-0.51283 7.76823,-0.06628 7.76823,-0.06628l0.29508,4.13747c0,0 -3.83554,-0.68065 -8.01795,-0.52113c-5.59346,0.21333 -6.64488,1.43293 -10.89774,1.89119c-3.64408,0.39266 -6.73723,0.15884 -6.73723,0.15884l-0.02589,-1.23155c0,0 3.59517,0.07398 5.23371,-0.06836c1.35239,-0.11749 3.9757,-0.93808 3.9757,-0.93808z" fill="#000000" stroke="none" stroke-width="1.5" stroke-linecap="butt"/><path d="M423.30027,203.30227c1.0294,-5.97877 1.7913,-8.61483 3.73262,-8.35569c1.94131,0.25914 1.77649,4.24909 0.48013,9.99193c-1.23206,5.45797 -6.16417,8.97502 -6.16417,8.97502c0,0 0.92203,-4.6325 1.95143,-10.61127z" data-paper-data="{&quot;index&quot;:null}" fill="#ffffff" stroke="#000000" stroke-width="1" stroke-linecap="butt"/><path d="M423.71284,199.23521c0,0 2.57754,-0.80312 2.15675,2.28016c-0.75431,5.52723 -4.31816,8.45061 -4.31816,8.45061" data-paper-data="{&quot;index&quot;:null}" fill="none" stroke="#000000" stroke-width="0.25" stroke-linecap="round"/><path d="M341.10964,174.80146c0,0 18.09537,-11.03891 25.05487,-15.28052c7.32737,-4.46582 7.52989,-8.75271 17.86262,-10.87643c10.33273,-2.12372 5.50543,10.25139 5.50543,10.25139c0,0 -5.66793,5.64019 -21.45171,10.95594c-4.11347,1.38536 -26.9712,4.94962 -26.9712,4.94962z" fill="#000000" stroke="none" stroke-width="0" stroke-linecap="butt"/><path d="M360.53118,307.02128c0,0 1.10308,-4.76901 -0.83741,-10.19075c-2.06653,-5.7739 -7.20078,-12.32991 -7.76622,-16.07415c-0.68758,-4.55303 2.65846,-13.10289 2.65846,-13.10289c0,0 3.53549,-10.42868 3.329,-21.26336c-0.22499,-11.8058 -9.89089,-20.95298 3.42609,-22.32848c2.86518,-0.29594 6.31483,6.73508 10.11787,11.55113c3.98391,5.0451 8.25824,7.89324 8.25824,7.89324c0,0 -3.21278,0.90812 -2.1645,6.14974c3.66492,18.3254 12.5955,42.47916 12.5955,42.47916c0,0 -11.09309,-17.28295 -10.63226,-8.69103c0.51432,9.58937 7.19545,35.90321 7.19545,35.90321c0,0 -12.08963,-17.44017 -17.56633,-27.35577c-1.85081,-3.35091 -3.17341,-9.82617 -3.17341,-9.82617z" fill="#000000" stroke="none" stroke-width="0" stroke-linecap="butt"/><path d="M425.54432,280.49851c0,0 -1.32259,6.47526 -3.17341,9.82617c-5.4767,9.9156 -3.56633,36.35577 -3.56633,36.35577c0,0 -7.31887,-35.31384 -6.80455,-44.90321c0.46082,-8.59191 -6.29893,16.69103 -6.29893,16.69103c0,0 4.59725,-32.15376 8.26217,-50.47917c1.04828,-5.24162 -2.16451,-6.14973 -2.16451,-6.14973c0,0 4.27434,-2.84814 8.25824,-7.89324c3.80304,-4.81605 7.25269,-11.84707 10.11787,-11.55113c13.31698,1.3755 3.65108,10.52267 3.42609,22.32848c-0.20648,10.83468 3.329,21.26336 3.329,21.26336c0,0 3.34604,8.54986 2.65846,13.10289c-0.56544,3.74424 -5.69968,10.30025 -7.76622,16.07414c-1.94049,5.42174 -4.83741,20.19076 -4.83741,20.19076z" data-paper-data="{&quot;index&quot;:null}" fill="#000000" stroke="none" stroke-width="0" stroke-linecap="butt"/><path d="M368.51629,196.07055c0,0 1.31782,3.63748 2.02994,4.88699c0.57858,1.01521 1.92595,2.05418 1.92595,2.05418l0.74118,6.34951c0,0 -2.87362,-3.94506 -3.85712,-7.35679c-0.4924,-1.70811 -0.83994,-5.9339 -0.83994,-5.9339z" fill="#000000" stroke="none" stroke-width="0" stroke-linecap="butt"/><path d="M420.64008,202.80445c-0.9835,3.41173 -4.72379,7.22345 -4.72379,7.22345l1.60785,-6.21618c0,0 1.34737,-1.03898 1.92595,-2.05418c0.71211,-1.24951 2.02994,-4.88699 2.02994,-4.88699c0,0 -0.34755,4.2258 -0.83994,5.9339z" data-paper-data="{&quot;index&quot;:null}" fill="#000000" stroke="none" stroke-width="0" stroke-linecap="butt"/></g><g><g data-paper-data="{&quot;index&quot;:null}" fill="#000000" stroke="none" stroke-width="0" stroke-linecap="butt"><path d="M202.93554,323.05096c-1.11522,-8.69415 -4.74005,-21.95433 -4.74005,-21.95433l13.85392,-1.43189c0,0 -0.16084,19.89405 -1.47408,28.83468c-1.16741,7.94779 -6.01947,22.182 -6.01947,22.182c0,0 -0.5051,-18.93631 -1.62032,-27.63046z"/><path d="M209.53941,314.16114c-1.52541,-5.52043 -5.09638,-13.76216 -5.09638,-13.76216l8.82859,-2.20744c0,0 1.73583,12.88277 1.71326,18.78721c-0.02007,5.24877 -1.84206,14.9045 -1.84206,14.9045c0,0 -2.078,-12.20169 -3.60341,-17.72211z"/><path d="M196.80683,326.51966c0.06032,-10.15417 -2.05663,-25.93785 -2.05663,-25.93785l16.1272,0.49243c0,0 -3.2526,22.81655 -6.13916,32.87922c-2.56601,8.94522 -10.33201,24.53999 -10.33201,24.53999c0,0 2.34029,-21.81961 2.40061,-31.97378z"/></g><g fill="#000000" stroke="none" stroke-width="0" stroke-linecap="butt"><path d="M128.00213,350.3481c0,0 -4.85207,-14.23422 -6.01947,-22.182c-1.31324,-8.94064 -1.47408,-28.83468 -1.47408,-28.83468l13.85392,1.43189c0,0 -3.62483,13.26019 -4.74005,21.95434c-1.11522,8.69415 -1.62032,27.63045 -1.62032,27.63045z"/><path d="M119.41518,331.54992c0,0 -1.82199,-9.65573 -1.84206,-14.9045c-0.02257,-5.90445 1.71326,-18.78721 1.71326,-18.78721l8.82859,2.20744c0,0 -3.57097,8.24174 -5.09638,13.76216c-1.52541,5.52042 -3.60342,17.72211 -3.60342,17.72211z"/><path d="M138.15175,358.16011c0,0 -7.76601,-15.59477 -10.33202,-24.53999c-2.88656,-10.06267 -6.13916,-32.87922 -6.13916,-32.87922l16.1272,-0.49243c0,0 -2.11695,15.78368 -2.05664,25.93785c0.06031,10.15417 2.40061,31.97378 2.40061,31.97378z"/></g><g><path d="M164.8365,242.76561c44.63633,-0.91362 48.35419,56.25713 48.35419,56.25713l-7.88113,1.72018c0,0 2.42444,5.68143 0.64425,16.02831c-1.5623,9.48098 -7.29782,17.22543 -7.29782,17.22543l-1.15522,-2.34735c0,0 -1.02266,2.19794 -2.16005,3.33274c-1.1374,1.13479 -3.43873,2.91273 -3.43873,2.91273l-0.09205,-3.70421c0,0 -7.0601,11.01795 -24.35066,10.87154c-16.30625,-0.25547 -26.07151,-10.6752 -26.07151,-10.6752l-0.1162,2.65484c0,0 -3.89477,-3.29276 -6.18145,-9.70754c-2.72545,-7.64567 -3.23946,-12.24324 -3.23946,-12.24324c0,0 -2.33908,1.89916 -5.71704,2.7744c-4.23278,1.09673 -6.94665,0.34526 -6.94665,0.34526c0,0 3.60795,-2.71717 5.58396,-4.76989c1.76007,-1.8284 2.64658,-3.37722 2.64658,-3.37722c0,0 -2.10758,1.0847 -4.23277,1.61795c-2.21739,0.5564 -4.03008,0.53093 -4.03008,0.53093c0,0 -1.02508,-8.37061 1.03074,-14.20762c1.94102,-5.51108 8.51559,-53.83852 44.6511,-55.23917z" fill="#000000" stroke="none" stroke-width="1.5" stroke-linecap="butt"/><path d="M139.36304,302.44865c-0.57709,-7.29323 0.335,-17.15448 0.335,-17.15448c0,0 3.41059,-0.04124 13.91429,-3.14424c8.0696,-2.38394 20.54731,-9.48722 20.54731,-9.48722c0,0 -2.16005,3.00503 -3.40781,4.46015c-1.32651,1.54696 -3.99292,4.56297 -3.99292,4.56297c0,0 7.838,-1.66761 14.67476,-4.72931c8.56837,-3.53575 10.59252,-6.05309 12.95042,-4.5927c2.7829,1.72362 1.03006,23.1827 0.71846,28.74062c-0.42163,5.66922 -2.53327,9.49969 -3.15031,12.52053c-0.61704,3.02084 -0.4096,6.13662 -2.20622,16.0397c-1.12121,6.18021 -4.16183,8.92466 -10.01942,14.66081c-5.85759,5.73616 -9.05378,9.25275 -13.01359,9.32173c-3.81077,0.06639 -8.93565,-5.1002 -13.93542,-10.38244c-5.32393,-5.62474 -8.87489,-8.47713 -9.71551,-15.13975c-0.75707,-6.00039 -0.77653,-9.90853 -1.12266,-15.24835c-0.25298,-3.90273 -2.26119,-6.44504 -2.57636,-10.42801z" fill="#ffffff" stroke="#000000" stroke-width="1.5" stroke-linecap="butt"/><path d="M187.43307,287.32831c0,0 1.52429,0.31807 4.2558,1.11029c2.49492,0.72361 4.44935,1.74403 4.44935,1.74403l0.1951,1.17035c0,0 -7.24963,-3.12997 -15.1158,-2.4706c-6.2896,0.52724 -9.96319,2.8124 -9.96319,2.8124l0.04575,-4.17683c0,0 3.12748,-1.70421 7.86366,-1.85557c4.90428,-0.15672 8.09084,0.59125 8.09084,0.59125z" data-paper-data="{&quot;index&quot;:null}" fill="#000000" stroke="none" stroke-width="1.5" stroke-linecap="butt"/><path d="M174.66894,330.31585c0.5704,0.21186 3.08357,1.39942 6.02385,2.59586c2.9637,1.20597 7.21362,2.29294 7.19412,2.4605c-0.02476,0.21265 -10.43477,0.22694 -13.67937,0.63224c-2.71902,0.33964 -6.68867,0.70564 -6.68867,0.70564c0,0 -7.10401,-1.16169 -13.27235,-2.44521c-4.94371,-1.02869 -10.39929,-1.66108 -10.40995,-1.75461c-0.01439,-0.12613 3.86835,-0.71071 6.82417,-1.39467c1.14585,-0.49661 5.43971,-1.48513 5.43971,-1.48513c0,0 4.95585,-0.27766 7.60826,0.579c2.84203,0.91791 2.83546,2.44556 3.0831,2.46906c0,0 1.18436,-1.74932 2.36886,-2.10461c1.18451,-0.35528 5.08219,-0.41633 5.50828,-0.25808z" fill="#ffffff" stroke="#000000" stroke-width="1.4" stroke-linecap="butt"/><path d="M156.02091,334.86942c5.09114,1.02674 11.91756,2.80736 11.91756,2.80736c0,0 5.78976,-1.55585 8.44678,-1.8344c2.05992,-0.21596 11.216,-0.70654 11.26026,-0.33377c0.04328,0.36447 -9.03119,12.90033 -21.14808,12.44714c-13.76954,-0.43578 -22.86459,-15.13559 -22.82675,-15.30472c0.03784,-0.16913 7.2591,1.19165 12.35024,2.2184z" fill="#ffffff" stroke="#000000" stroke-width="1.9" stroke-linecap="butt"/><path d="M166.99521,331.87576c-1.03376,0 -3.5381,-3.26042 -3.7867,-5.3637c-0.22243,-1.88186 1.31512,-3.82799 3.7867,-3.82799c2.47159,0 4.2021,0.49077 4.02999,4.18853c-0.14607,3.13818 -1.55841,5.00317 -4.02999,5.00317z" fill="#ffffff" stroke="#000000" stroke-width="1.15" stroke-linecap="butt"/><path d="M170.59731,301.78202c0,0 0.1026,3.96976 0.00576,7.12662c-0.19174,6.25113 -1.08147,27.7607 -1.08147,27.7607l-2.98167,0.00864c0,0 -0.80294,-4.17274 -1.12322,-9.49979c-0.43353,-7.21063 -0.4495,-16.29321 -0.76344,-19.63229c-0.29758,-3.16513 -0.89593,-5.71453 -0.89593,-5.71453" fill="#ffffff" stroke="#000000" stroke-width="1.3" stroke-linecap="round"/><path d="M141.06268,312.57187c0,0 -4.93211,-3.51705 -6.16417,-8.97502c-1.29636,-5.74284 -1.46118,-9.7328 0.48013,-9.99193c1.94131,-0.25915 2.70321,2.37692 3.73262,8.35569c1.0294,5.97877 1.95143,10.61127 1.95143,10.61127z" data-paper-data="{&quot;index&quot;:null}" fill="#ffffff" stroke="#000000" stroke-width="1" stroke-linecap="butt"/><path d="M140.86009,308.62432c0,0 -3.56385,-2.92338 -4.31816,-8.45061c-0.42079,-3.08327 2.15675,-2.28016 2.15675,-2.28016" fill="none" stroke="#000000" stroke-width="0.25" stroke-linecap="round"/><path d="M143.8735,301.96841c0.07093,-4.89188 4.83834,-8.93609 10.21137,-8.8582c5.37302,0.0779 9.02724,4.2484 8.95632,9.14029c-0.07093,4.89188 -4.12352,8.79439 -9.49655,8.7165c-5.37302,-0.0779 -9.74207,-4.1067 -9.67114,-8.99859z" fill="#ffffff" stroke="#000000" stroke-width="1.4" stroke-linecap="butt"/><path d="M148.31112,302.08637c0.03999,-2.75843 2.30855,-4.96213 5.06696,-4.92214c2.75843,0.03999 4.96213,2.30855 4.92214,5.06696c-0.03999,2.75843 -2.30854,4.96213 -5.06696,4.92214c-2.75843,-0.03999 -4.96213,-2.30855 -4.92214,-5.06696z" fill="#000000" stroke="none" stroke-width="1.5" stroke-linecap="butt"/><path d="M170.92979,301.96916c0.20353,-4.88817 4.45264,-8.85847 9.77048,-8.85847c5.31783,0 9.27453,3.96607 9.27453,8.85847c0,4.8924 -3.88585,9.07104 -9.69964,9.14188c-5.52997,0.06739 -9.55792,-4.03692 -9.34537,-9.14188z" fill="#ffffff" stroke="#000000" stroke-width="1.4" stroke-linecap="butt"/><path d="M175.53255,302.05469c0,-2.81845 2.2848,-5.10325 5.10325,-5.10325c2.81845,0 5.10325,2.2848 5.10325,5.10325c0,2.81845 -2.28479,5.10325 -5.10325,5.10325c-2.81845,0 -5.10325,-2.2848 -5.10325,-5.10325z" fill="#000000" stroke="none" stroke-width="1.5" stroke-linecap="butt"/><path d="M143.80507,301.43624c0,0 0.06357,-9.01512 10.60111,-8.8249c9.47101,0.16586 9.55554,9.40723 9.55554,9.40723z" fill="#ffffff" stroke="#000000" stroke-width="1.15" stroke-linecap="butt"/><path d="M170.55214,301.56714c0,0 -0.24686,-9.4582 11.19813,-9.1032c9.71427,0.33347 9.54677,9.65229 9.54677,9.65229z" fill="#ffffff" stroke="#000000" stroke-width="1.15" stroke-linecap="butt"/><path d="M147.33492,291.42458c0,0 3.36963,-1.819 8.03244,-2.28178c5.16698,-0.51283 7.76823,-0.06628 7.76823,-0.06628l0.29508,4.13747c0,0 -3.83554,-0.68065 -8.01795,-0.52113c-5.59346,0.21333 -6.64488,1.43293 -10.89774,1.89119c-3.64408,0.39266 -6.73723,0.15884 -6.73723,0.15884l-0.02589,-1.23155c0,0 3.59517,0.07398 5.23371,-0.06836c1.35239,-0.11749 3.9757,-0.93808 3.9757,-0.93808z" fill="#000000" stroke="none" stroke-width="1.5" stroke-linecap="butt"/><path d="M195.29585,301.96061c1.0294,-5.97877 1.7913,-8.61483 3.73262,-8.35569c1.94131,0.25914 1.77649,4.24909 0.48013,9.99193c-1.23206,5.45797 -6.16417,8.97502 -6.16417,8.97502c0,0 0.92203,-4.6325 1.95143,-10.61127z" data-paper-data="{&quot;index&quot;:null}" fill="#ffffff" stroke="#000000" stroke-width="1" stroke-linecap="butt"/><path d="M195.70843,297.89355c0,0 2.57754,-0.80312 2.15675,2.28016c-0.75431,5.52723 -4.31816,8.45061 -4.31816,8.45061" data-paper-data="{&quot;index&quot;:null}" fill="none" stroke="#000000" stroke-width="0.25" stroke-linecap="round"/></g></g><g><path d="M19.87345,196.77759v-80.66422c0,0 0.13726,-4.33364 4.57365,-4.33364c7.88264,0 40.5085,-1.12439 54.94896,-0.43161c5.33958,0.25617 5.48049,4.76525 5.48049,4.76525v80.66423z" fill="#000000" stroke="none" stroke-width="0" stroke-linecap="butt"/><path d="M24.7129,195.70925c-0.48282,-6.10182 -0.19055,-39.11056 -0.19055,-39.11056c0,0 0.1771,-2.05083 3.59616,-2.21049c2.78397,-0.13 6.35035,0.37208 10.75669,0.68072c3.76825,0.26395 8.25826,0.33268 12.20567,0.34005c5.72715,0.01068 12.59682,-0.34574 18.23479,-0.86678c2.5824,-0.23865 4.74834,-0.66988 6.70813,-0.83579c3.11649,-0.26382 4.70605,2.13772 4.70605,2.13772c0,0 -0.13461,35.97309 -0.27745,38.52092c-0.42163,5.66922 -2.53327,9.49969 -3.15031,12.52053c-0.61704,3.02084 -1.9096,10.38662 -3.70622,20.2897c-1.12121,6.18021 -2.66183,4.67466 -8.51942,10.41081c-5.85759,5.73616 -9.05378,9.25275 -13.01359,9.32173c-3.81077,0.06639 -8.93565,-5.1002 -13.93542,-10.38244c-5.32393,-5.62474 -7.87489,-4.72713 -8.71551,-11.38975c-0.75707,-6.00039 -1.77653,-13.65853 -2.12266,-18.99835c-0.25298,-3.90273 -2.26119,-6.44504 -2.57636,-10.42801z" fill="#ffffff" stroke="#000000" stroke-width="1.5" stroke-linecap="butt"/><path d="M26.4125,205.83247c0,0 -4.93211,-3.51705 -6.16417,-8.97502c-1.29636,-5.74284 -1.46118,-9.7328 0.48013,-9.99193c1.94131,-0.25915 2.70321,2.37692 3.73262,8.35569c1.0294,5.97877 1.95143,10.61127 1.95143,10.61127z" data-paper-data="{&quot;index&quot;:null}" fill="#ffffff" stroke="#000000" stroke-width="1" stroke-linecap="butt"/><path d="M26.20994,201.88491c0,0 -3.56385,-2.92338 -4.31816,-8.45061c-0.42079,-3.08327 2.15675,-2.28016 2.15675,-2.28016" fill="none" stroke="#000000" stroke-width="0.25" stroke-linecap="round"/><path d="M80.64565,195.2212c1.0294,-5.97877 1.7913,-8.61483 3.73262,-8.35569c1.94131,0.25914 1.77649,4.24909 0.48013,9.99193c-1.23206,5.45797 -6.16417,8.97502 -6.16417,8.97502c0,0 0.92203,-4.6325 1.95143,-10.61127z" data-paper-data="{&quot;index&quot;:null}" fill="#ffffff" stroke="#000000" stroke-width="1" stroke-linecap="butt"/><path d="M81.05818,191.15414c0,0 2.57754,-0.80312 2.15675,2.28016c-0.75431,5.52723 -4.31816,8.45061 -4.31816,8.45061" data-paper-data="{&quot;index&quot;:null}" fill="none" stroke="#000000" stroke-width="0.25" stroke-linecap="round"/></g></g></g></svg>