<svg version="1.1" xmlns="http://www.w3.org/2000/svg" xmlns:xlink="http://www.w3.org/1999/xlink" width="469.04224" height="366.71635" viewBox="0,0,469.04224,366.71635"><g transform="translate(-3.22534,-2.72775)"><g data-paper-data="{&quot;isPaintingLayer&quot;:true}" fill-rule="nonzero" stroke-linejoin="miter" stroke-miterlimit="10" stroke-dasharray="" stroke-dashoffset="0" style="mix-blend-mode: normal"><g stroke-linecap="butt"><path d="M456.28633,251.29268l-0.11445,-115.47135c0,0 0.09832,-2.28093 -2.98289,-2.26592c-3.13496,0.01528 -2.85813,2.29111 -2.85813,2.29111l0.16172,115.51106l-48.68972,0.14535l-0.26068,-116.02637c0,0 0.37326,-2.48381 -3.02845,-2.41929c-2.86421,0.05433 -2.67833,2.45745 -2.67833,2.45745l0.30689,115.99979l-8.77237,0.04367l0.18386,-117.36323c0,0 -0.11537,-12.77258 7.99488,-23.00505c5.45442,-6.88168 14.6293,-12.61447 30.06189,-12.54042c37.6337,0.18059 39.12484,35.56961 39.12484,35.56961v117.13852z" fill="#ffffff" stroke="#000000" stroke-width="1.5"/><path d="M409.28812,146.90505c0,-0.81115 0.65757,-1.46872 1.46872,-1.46872c0.81115,0 1.46872,0.65757 1.46872,1.46872c0,0.81115 -0.65757,1.46872 -1.46872,1.46872c-0.81115,0 -1.46872,-0.65757 -1.46872,-1.46872z" fill="#000000" stroke="none" stroke-width="1.5"/><path d="M439.64154,146.90505c0,-0.81115 0.65757,-1.46872 1.46872,-1.46872c0.81115,0 1.46872,0.65758 1.46872,1.46872c0,0.81115 -0.65757,1.46872 -1.46872,1.46872c-0.81115,0 -1.46872,-0.65757 -1.46872,-1.46872z" fill="#000000" stroke="none" stroke-width="1.5"/><path d="M422.03925,149.75346c0,0.33215 -1.95637,1.52867 -5.25889,2.04641c-3.7849,0.59336 -9.00309,0.49046 -9.38376,0.49046c-0.71283,0 -1.29068,-0.57787 -1.29068,-1.29068c0,-0.71283 0.57787,-1.29068 1.29068,-1.29068c0.3098,0 2.93808,1.03094 6.01236,0.94671c3.99937,-0.10958 8.63027,-1.30522 8.63027,-0.90219z" fill="#000000" stroke="none" stroke-width="1.5"/><path d="M438.14665,150.56665c3.07429,0.08423 5.70257,-0.94671 6.01236,-0.94671c0.71283,0 1.29068,0.57787 1.29068,1.29068c0,0.71283 -0.57787,1.29068 -1.29068,1.29068c-0.38067,0 -5.59885,0.10289 -9.38376,-0.49047c-3.30251,-0.51773 -5.25889,-1.71425 -5.25889,-2.04641c0,-0.40303 4.6309,0.79262 8.63027,0.90219z" data-paper-data="{&quot;index&quot;:null}" fill="#000000" stroke="none" stroke-width="1.5"/><path d="M425.00383,206.78039c0,-0.81115 0.65757,-1.46872 1.46872,-1.46872c0.81115,0 1.46872,0.65757 1.46872,1.46872c0,0.81115 -0.65757,1.46872 -1.46872,1.46872c-0.81115,0 -1.46872,-0.65757 -1.46872,-1.46872z" fill="#000000" stroke="none" stroke-width="1.5"/><path d="M402.18544,250.85649v-116.10693c0,0 0.75721,-9.47843 0.75721,-14.25932c0,-4.38123 -0.75721,-13.33187 -0.75721,-13.33187c0,0 2.67319,-2.29189 4.6557,-3.65077c1.98251,-1.35888 5.17197,-2.73093 5.17197,-2.73093c0,0 -0.6016,39.06777 14.55952,38.99925c15.43477,-0.06976 13.83154,-38.99924 13.83154,-38.99924c0,0 3.91276,1.48014 6.16585,2.87006c2.25309,1.3899 4.75379,3.51164 4.75379,3.51164c0,0 -0.75721,9.17996 -0.75721,13.82358c0,4.71623 0.75721,14.25932 0.75721,14.25932v115.61524z" fill="#ffffff" stroke="#000000" stroke-width="2"/></g><path d="M248.74688,150.78424c-0.57113,0 -1.03411,-0.46299 -1.03411,-1.03411c0,-0.57113 0.46299,-1.03413 1.03411,-1.03413c0.57113,0 1.03411,0.463 1.03411,1.03413c0,0.57113 -0.46299,1.03411 -1.03411,1.03411z" fill="#000000" stroke="none" stroke-width="1.5" stroke-linecap="butt"/><path d="M243.48699,155.01984c-4.4635,-0.31439 -6.55245,-1.79392 -6.16985,-2.58011c0.11788,-0.24224 2.84645,1.06355 6.97038,1.3048c6.40897,0.37493 8.51033,-0.63173 8.51033,-0.63173v1.34616c0,0 -2.4135,1.04672 -9.31086,0.56089z" fill="#000000" stroke="#000000" stroke-width="0" stroke-linecap="butt"/><path d="M215.67425,149.75013c0,-0.57113 0.46299,-1.03413 1.03411,-1.03413c0.57113,0 1.03413,0.463 1.03413,1.03413c0,0.57113 -0.463,1.03411 -1.03413,1.03411c-0.57113,0 -1.03411,-0.46299 -1.03411,-1.03411z" fill="#000000" stroke="none" stroke-width="1.5" stroke-linecap="butt"/><path d="M221.96824,155.01984c-6.89736,0.48585 -9.31086,-0.56089 -9.31086,-0.56089v-1.34616c0,0 2.10136,1.00666 8.51033,0.63173c4.12393,-0.24126 6.85251,-1.54704 6.97039,-1.3048c0.3826,0.78618 -1.70634,2.26571 -6.16985,2.58011z" fill="#000000" stroke="#000000" stroke-width="0" stroke-linecap="butt"/><path d="M233.2487,211.57159c-0.81895,0 -1.48284,-0.66389 -1.48284,-1.48284c0,-0.81895 0.66389,-1.48284 1.48284,-1.48284c0.81895,0 1.48284,0.66389 1.48284,1.48284c0,0.81895 -0.66389,1.48284 -1.48284,1.48284z" data-paper-data="{&quot;index&quot;:null}" fill="#000000" stroke="none" stroke-width="1.5" stroke-linecap="butt"/><path d="M188.403,257.06297v-253.22501h91.18203v253.22501z" fill-opacity="0.01" fill="#000000" stroke="none" stroke-width="0" stroke-linecap="butt"/><path d="M194.1497,254.84205c0,0 -0.63536,-94.38387 -0.79335,-118.01201c-0.05451,-8.15261 8.18688,-36.76129 40.20201,-36.9211c31.60235,-0.15775 39.85672,29.48704 39.84884,36.89673c-0.07659,46.24274 0.65429,117.98648 0.65429,117.98648l-10.49667,0.09614l-0.15882,-114.84311c0,0 0.07549,-3.0993 -2.81625,-3.15415c-3.43441,-0.06514 -2.94538,3.11562 -2.94538,3.11562l0.20548,114.86995l-48.21366,0.07222l-0.30539,-115.23309c0,0 0.27949,-2.919 -2.8856,-2.93443c-3.11083,-0.01515 -2.81569,2.90899 -2.81569,2.90899l0.35311,115.0668z" fill="#ffffff" stroke="#000000" stroke-width="2" stroke-linecap="butt"/><path d="M209.18543,254.85649v-119.20147c0,0 0.75721,-9.73105 0.75721,-14.63937c0,-4.498 -0.75721,-13.6872 -0.75721,-13.6872c0,0 2.67319,-2.35297 4.6557,-3.74807c1.98251,-1.3951 5.17197,-2.80371 5.17197,-2.80371c0,0 -0.6016,40.10902 14.55952,40.03867c15.43477,-0.07162 13.83154,-40.03867 13.83154,-40.03867c0,0 3.91276,1.51959 6.16585,2.94655c2.25309,1.42695 4.75379,3.60523 4.75379,3.60523c0,0 -0.75721,9.42463 -0.75721,14.19201c0,4.84193 0.75721,14.63937 0.75721,14.63937v118.69667z" fill="#ffffff" stroke="#000000" stroke-width="2" stroke-linecap="butt"/><path d="M190.43586,54.33057c0,0 6.16329,-5.92187 6.29161,-6.78761c0.33654,-2.27063 -0.16776,-40.17317 35.96775,-41.57382c44.63633,-0.91362 39.01489,35.34872 41.53088,42.1903c3.44981,9.38084 6.15664,17.40016 6.15664,17.40016c0,0 -2.76715,-2.05351 -4.0797,-3.13397c-1.2242,-1.00773 -3.80143,-3.14585 -3.80143,-3.14585c0,0 3.09111,10.3481 1.31092,20.69498c-1.5623,9.48098 -7.29782,17.22543 -7.29782,17.22543l-1.15522,-2.34735c0,0 -1.02266,2.19794 -2.16005,3.33274c-1.1374,1.13479 -3.43873,2.91273 -3.43873,2.91273l-0.09205,-3.70421c0,0 -7.0601,11.01795 -24.35066,10.87154c-16.30625,-0.25547 -26.07151,-10.6752 -26.07151,-10.6752l-0.1162,2.65484c0,0 -3.89477,-3.29276 -6.18145,-9.70754c-2.72545,-7.64567 -3.23946,-12.24324 -3.23946,-12.24324c0,0 -2.33908,1.89916 -5.71704,2.7744c-4.23278,1.09673 -6.94665,0.34526 -6.94665,0.34526c0,0 3.60795,-2.71717 5.58396,-4.76989c1.76007,-1.8284 2.64658,-3.37722 2.64658,-3.37722c0,0 -2.10758,1.0847 -4.23277,1.61795c-2.21739,0.5564 -4.03008,0.53093 -4.03008,0.53093c0,0 4.97492,-5.03728 7.03074,-10.87429c1.94102,-5.51108 2.09972,-10.95731 2.09972,-10.95731c0,0 -1.36165,0.66163 -3.33013,0.79513c-1.24776,0.08463 -2.37785,-0.0489 -2.37785,-0.0489z" fill="#000000" stroke="none" stroke-width="1.5" stroke-linecap="butt"/><path d="M207.22176,65.65219c-0.57709,-7.29323 0.335,-17.15448 0.335,-17.15448c0,0 3.41059,-0.04124 13.91429,-3.14424c8.0696,-2.38394 20.54731,-9.48722 20.54731,-9.48722c0,0 -2.16005,3.00503 -3.40781,4.46015c-1.32651,1.54696 -3.99292,4.56297 -3.99292,4.56297c0,0 7.838,-1.66761 14.67476,-4.72931c8.56837,-3.53575 10.59252,-6.05309 12.95042,-4.5927c2.7829,1.72362 1.03006,23.1827 0.71846,28.74062c-0.42163,5.66922 -2.53327,9.49969 -3.15031,12.52053c-0.61704,3.02084 -0.4096,6.13662 -2.20622,16.0397c-1.12121,6.18021 -4.16183,8.92466 -10.01942,14.66081c-5.85759,5.73616 -9.05378,9.25275 -13.01359,9.32173c-3.81077,0.06639 -8.93565,-5.1002 -13.93542,-10.38244c-5.32393,-5.62474 -8.87489,-8.47713 -9.71551,-15.13975c-0.75707,-6.00039 -0.77653,-9.90853 -1.12266,-15.24835c-0.25298,-3.90273 -2.26119,-6.44504 -2.57636,-10.42801z" fill="#ffffff" stroke="#000000" stroke-width="1.5" stroke-linecap="butt"/><path d="M255.29175,50.53184c0,0 1.52429,0.31807 4.2558,1.11029c2.49492,0.72361 4.44935,1.74403 4.44935,1.74403l0.1951,1.17035c0,0 -7.24963,-3.12997 -15.1158,-2.4706c-6.2896,0.52724 -9.96319,2.8124 -9.96319,2.8124l0.04575,-4.17683c0,0 3.12748,-1.70421 7.86366,-1.85557c4.90428,-0.15672 8.09084,0.59125 8.09084,0.59125z" data-paper-data="{&quot;index&quot;:null}" fill="#000000" stroke="none" stroke-width="1.5" stroke-linecap="butt"/><path d="M242.52763,93.51938c0.5704,0.21186 3.08357,1.39942 6.02385,2.59586c2.9637,1.20597 7.21362,2.29294 7.19412,2.4605c-0.02476,0.21265 -10.43477,0.22694 -13.67937,0.63224c-2.71902,0.33964 -6.68867,0.70564 -6.68867,0.70564c0,0 -7.10401,-1.16169 -13.27235,-2.44521c-4.94371,-1.02869 -10.39929,-1.66108 -10.40995,-1.75461c-0.01439,-0.12613 3.86835,-0.71071 6.82417,-1.39467c1.14585,-0.49661 5.43971,-1.48513 5.43971,-1.48513c0,0 4.95585,-0.27766 7.60826,0.579c2.84203,0.91791 2.83546,2.44556 3.0831,2.46906c0,0 1.18436,-1.74932 2.36886,-2.10461c1.18451,-0.35528 5.08219,-0.41633 5.50828,-0.25808z" fill="#ffffff" stroke="#000000" stroke-width="1.4" stroke-linecap="butt"/><path d="M223.87963,98.07296c5.09114,1.02674 11.91756,2.80736 11.91756,2.80736c0,0 5.78976,-1.55585 8.44678,-1.8344c2.05992,-0.21596 11.216,-0.70654 11.26026,-0.33377c0.04328,0.36447 -9.03119,12.90033 -21.14808,12.44714c-13.76954,-0.43578 -22.86459,-15.13559 -22.82675,-15.30472c0.03784,-0.16913 7.2591,1.19165 12.35024,2.2184z" fill="#ffffff" stroke="#000000" stroke-width="1.9" stroke-linecap="butt"/><path d="M234.8539,95.07928c-1.03376,0 -3.5381,-3.26042 -3.7867,-5.3637c-0.22243,-1.88186 1.31512,-3.82799 3.7867,-3.82799c2.47159,0 4.2021,0.49077 4.02999,4.18853c-0.14607,3.13818 -1.55841,5.00317 -4.02999,5.00317z" fill="#ffffff" stroke="#000000" stroke-width="1.15" stroke-linecap="butt"/><path d="M238.456,64.98556c0,0 0.1026,3.96976 0.00576,7.12662c-0.19174,6.25113 -1.08147,27.7607 -1.08147,27.7607l-2.98167,0.00864c0,0 -0.80294,-4.17274 -1.12322,-9.49979c-0.43353,-7.21063 -0.4495,-16.29321 -0.76344,-19.63229c-0.29758,-3.16513 -0.89593,-5.71453 -0.89593,-5.71453" fill="#ffffff" stroke="#000000" stroke-width="1.3" stroke-linecap="round"/><path d="M208.9214,75.77541c0,0 -4.93211,-3.51705 -6.16417,-8.97502c-1.29636,-5.74284 -1.46118,-9.7328 0.48013,-9.99193c1.94131,-0.25915 2.70321,2.37692 3.73262,8.35569c1.0294,5.97877 1.95143,10.61127 1.95143,10.61127z" data-paper-data="{&quot;index&quot;:null}" fill="#ffffff" stroke="#000000" stroke-width="1" stroke-linecap="butt"/><path d="M208.71881,71.82785c0,0 -3.56385,-2.92338 -4.31816,-8.45061c-0.42079,-3.08327 2.15675,-2.28016 2.15675,-2.28016" fill="none" stroke="#000000" stroke-width="0.25" stroke-linecap="round"/><path d="M211.73221,65.17194c0.07093,-4.89188 4.83834,-8.93609 10.21137,-8.8582c5.37302,0.0779 9.02724,4.2484 8.95632,9.14029c-0.07093,4.89188 -4.12352,8.79439 -9.49655,8.7165c-5.37302,-0.0779 -9.74207,-4.1067 -9.67114,-8.99859z" fill="#ffffff" stroke="#000000" stroke-width="1.4" stroke-linecap="butt"/><path d="M216.16984,65.2899c0.03999,-2.75843 2.30855,-4.96213 5.06696,-4.92214c2.75843,0.03999 4.96213,2.30855 4.92214,5.06696c-0.03999,2.75843 -2.30854,4.96213 -5.06696,4.92214c-2.75843,-0.03999 -4.96213,-2.30855 -4.92214,-5.06696z" fill="#000000" stroke="none" stroke-width="1.5" stroke-linecap="butt"/><path d="M238.78848,65.17269c0.20353,-4.88817 4.45264,-8.85847 9.77048,-8.85847c5.31783,0 9.27453,3.96607 9.27453,8.85847c0,4.8924 -3.88585,9.07104 -9.69964,9.14188c-5.52997,0.06739 -9.55792,-4.03692 -9.34537,-9.14188z" fill="#ffffff" stroke="#000000" stroke-width="1.4" stroke-linecap="butt"/><path d="M243.39124,65.25823c0,-2.81845 2.2848,-5.10325 5.10325,-5.10325c2.81845,0 5.10325,2.2848 5.10325,5.10325c0,2.81845 -2.28479,5.10325 -5.10325,5.10325c-2.81845,0 -5.10325,-2.2848 -5.10325,-5.10325z" fill="#000000" stroke="none" stroke-width="1.5" stroke-linecap="butt"/><path d="M211.66378,64.63977c0,0 0.06357,-9.01512 10.60111,-8.8249c9.47101,0.16586 9.55554,9.40723 9.55554,9.40723z" fill="#ffffff" stroke="#000000" stroke-width="1.15" stroke-linecap="butt"/><path d="M238.41084,64.77066c0,0 -0.24686,-9.4582 11.19813,-9.1032c9.71427,0.33347 9.54677,9.65229 9.54677,9.65229z" fill="#ffffff" stroke="#000000" stroke-width="1.15" stroke-linecap="butt"/><path d="M215.19363,54.62811c0,0 3.36963,-1.819 8.03244,-2.28178c5.16698,-0.51283 7.76823,-0.06628 7.76823,-0.06628l0.29508,4.13747c0,0 -3.83554,-0.68065 -8.01795,-0.52113c-5.59346,0.21333 -6.64488,1.43293 -10.89774,1.89119c-3.64408,0.39266 -6.73723,0.15884 -6.73723,0.15884l-0.02589,-1.23155c0,0 3.59517,0.07398 5.23371,-0.06836c1.35239,-0.11749 3.9757,-0.93808 3.9757,-0.93808z" fill="#000000" stroke="none" stroke-width="1.5" stroke-linecap="butt"/><path d="M263.15456,65.16414c1.0294,-5.97877 1.7913,-8.61483 3.73262,-8.35569c1.94131,0.25914 1.77649,4.24909 0.48013,9.99193c-1.23206,5.45797 -6.16417,8.97502 -6.16417,8.97502c0,0 0.92203,-4.6325 1.95143,-10.61127z" data-paper-data="{&quot;index&quot;:null}" fill="#ffffff" stroke="#000000" stroke-width="1" stroke-linecap="butt"/><path d="M263.56711,61.09708c0,0 2.57754,-0.80312 2.15675,2.28016c-0.75431,5.52723 -4.31816,8.45061 -4.31816,8.45061" data-paper-data="{&quot;index&quot;:null}" fill="none" stroke="#000000" stroke-width="0.25" stroke-linecap="round"/><g><path d="M287.2318,53.37928c0,0 6.16329,-5.92187 6.29161,-6.78761c0.33654,-2.27063 -0.16776,-40.17317 35.96775,-41.57382c44.63633,-0.91362 39.01489,35.34872 41.53088,42.1903c3.44981,9.38084 6.15664,17.40016 6.15664,17.40016c0,0 -2.76715,-2.05351 -4.0797,-3.13397c-1.2242,-1.00773 -3.80143,-3.14585 -3.80143,-3.14585c0,0 3.09111,10.3481 1.31092,20.69498c-1.5623,9.48098 -7.29782,17.22543 -7.29782,17.22543l-1.15522,-2.34735c0,0 -1.02266,2.19794 -2.16005,3.33274c-1.1374,1.13479 -3.43873,2.91273 -3.43873,2.91273l-0.09205,-3.70421c0,0 -7.0601,11.01795 -24.35066,10.87154c-16.30625,-0.25547 -26.07151,-10.6752 -26.07151,-10.6752l-0.1162,2.65484c0,0 -3.89477,-3.29276 -6.18145,-9.70754c-2.72545,-7.64567 -3.23946,-12.24324 -3.23946,-12.24324c0,0 -2.33908,1.89916 -5.71704,2.7744c-4.23278,1.09673 -6.94665,0.34526 -6.94665,0.34526c0,0 3.60795,-2.71717 5.58396,-4.76989c1.76007,-1.8284 2.64658,-3.37722 2.64658,-3.37722c0,0 -2.10758,1.0847 -4.23277,1.61795c-2.21739,0.5564 -4.03008,0.53093 -4.03008,0.53093c0,0 4.97492,-5.03728 7.03074,-10.87429c1.94102,-5.51108 2.09972,-10.95731 2.09972,-10.95731c0,0 -1.36165,0.66163 -3.33013,0.79513c-1.24776,0.08463 -2.37785,-0.0489 -2.37785,-0.0489z" fill="#000000" stroke="none" stroke-width="1.5" stroke-linecap="butt"/><path d="M304.01769,64.7009c-0.57709,-7.29323 0.335,-17.15448 0.335,-17.15448c0,0 3.41059,-0.04124 13.91429,-3.14424c8.0696,-2.38394 20.54731,-9.48722 20.54731,-9.48722c0,0 -2.16005,3.00503 -3.40781,4.46015c-1.32651,1.54696 -3.99292,4.56297 -3.99292,4.56297c0,0 7.838,-1.66761 14.67476,-4.72931c8.56837,-3.53575 10.59252,-6.05309 12.95042,-4.5927c2.7829,1.72362 1.03006,23.1827 0.71846,28.74062c-0.42163,5.66922 -2.53327,9.49969 -3.15031,12.52053c-0.61704,3.02084 -0.4096,6.13662 -2.20622,16.0397c-1.12121,6.18021 -4.16183,8.92466 -10.01942,14.66081c-5.85759,5.73616 -9.05378,9.25275 -13.01359,9.32173c-3.81077,0.06639 -8.93565,-5.1002 -13.93542,-10.38244c-5.32393,-5.62474 -8.87489,-8.47713 -9.71551,-15.13975c-0.75707,-6.00039 -0.77653,-9.90853 -1.12266,-15.24835c-0.25298,-3.90273 -2.26119,-6.44504 -2.57636,-10.42801z" fill="#ffffff" stroke="#000000" stroke-width="1.5" stroke-linecap="butt"/><path d="M352.08772,49.58055c0,0 1.52429,0.31807 4.2558,1.11029c2.49492,0.72361 4.44935,1.74403 4.44935,1.74403l0.1951,1.17035c0,0 -7.24963,-3.12997 -15.1158,-2.4706c-6.2896,0.52724 -9.96319,2.8124 -9.96319,2.8124l0.04575,-4.17683c0,0 3.12748,-1.70421 7.86366,-1.85557c4.90428,-0.15672 8.09084,0.59125 8.09084,0.59125z" data-paper-data="{&quot;index&quot;:null}" fill="#000000" stroke="none" stroke-width="1.5" stroke-linecap="butt"/><path d="M339.32359,92.56809c0.5704,0.21186 3.08357,1.39942 6.02385,2.59586c2.9637,1.20597 7.21362,2.29294 7.19412,2.4605c-0.02476,0.21265 -10.43477,0.22694 -13.67937,0.63224c-2.71902,0.33964 -6.68867,0.70564 -6.68867,0.70564c0,0 -7.10401,-1.16169 -13.27235,-2.44521c-4.94371,-1.02869 -10.39929,-1.66108 -10.40995,-1.75461c-0.01439,-0.12613 3.86835,-0.71071 6.82417,-1.39467c1.14585,-0.49661 5.43971,-1.48513 5.43971,-1.48513c0,0 4.95585,-0.27766 7.60826,0.579c2.84203,0.91791 2.83546,2.44556 3.0831,2.46906c0,0 1.18436,-1.74932 2.36886,-2.10461c1.18451,-0.35528 5.08219,-0.41633 5.50828,-0.25808z" fill="#ffffff" stroke="#000000" stroke-width="1.4" stroke-linecap="butt"/><path d="M320.67556,97.12166c5.09114,1.02674 11.91756,2.80736 11.91756,2.80736c0,0 5.78976,-1.55585 8.44678,-1.8344c2.05992,-0.21596 11.216,-0.70654 11.26026,-0.33377c0.04328,0.36447 -9.03119,12.90033 -21.14808,12.44714c-13.76954,-0.43578 -22.86459,-15.13559 -22.82675,-15.30472c0.03784,-0.16913 7.2591,1.19165 12.35024,2.2184z" fill="#ffffff" stroke="#000000" stroke-width="1.9" stroke-linecap="butt"/><path d="M331.64986,94.128c-1.03376,0 -3.5381,-3.26042 -3.7867,-5.3637c-0.22243,-1.88186 1.31512,-3.82799 3.7867,-3.82799c2.47159,0 4.2021,0.49077 4.02999,4.18853c-0.14607,3.13818 -1.55841,5.00317 -4.02999,5.00317z" fill="#ffffff" stroke="#000000" stroke-width="1.15" stroke-linecap="butt"/><path d="M335.25196,64.03427c0,0 0.1026,3.96976 0.00576,7.12662c-0.19174,6.25113 -1.08147,27.7607 -1.08147,27.7607l-2.98167,0.00864c0,0 -0.80294,-4.17274 -1.12322,-9.49979c-0.43353,-7.21063 -0.4495,-16.29321 -0.76344,-19.63229c-0.29758,-3.16513 -0.89593,-5.71453 -0.89593,-5.71453" fill="#ffffff" stroke="#000000" stroke-width="1.3" stroke-linecap="round"/><path d="M305.71734,74.82412c0,0 -4.93211,-3.51705 -6.16417,-8.97502c-1.29636,-5.74284 -1.46118,-9.7328 0.48013,-9.99193c1.94131,-0.25915 2.70321,2.37692 3.73262,8.35569c1.0294,5.97877 1.95143,10.61127 1.95143,10.61127z" data-paper-data="{&quot;index&quot;:null}" fill="#ffffff" stroke="#000000" stroke-width="1" stroke-linecap="butt"/><path d="M305.51474,70.87656c0,0 -3.56385,-2.92338 -4.31816,-8.45061c-0.42079,-3.08327 2.15675,-2.28016 2.15675,-2.28016" fill="none" stroke="#000000" stroke-width="0.25" stroke-linecap="round"/><path d="M308.52815,64.22065c0.07093,-4.89188 4.83834,-8.93609 10.21137,-8.8582c5.37302,0.0779 9.02724,4.2484 8.95632,9.14029c-0.07093,4.89188 -4.12352,8.79439 -9.49655,8.7165c-5.37302,-0.0779 -9.74207,-4.1067 -9.67114,-8.99859z" fill="#ffffff" stroke="#000000" stroke-width="1.4" stroke-linecap="butt"/><path d="M312.96577,64.33861c0.03999,-2.75843 2.30855,-4.96213 5.06696,-4.92214c2.75843,0.03999 4.96213,2.30855 4.92214,5.06696c-0.03999,2.75843 -2.30854,4.96213 -5.06696,4.92214c-2.75843,-0.03999 -4.96213,-2.30855 -4.92214,-5.06696z" fill="#000000" stroke="none" stroke-width="1.5" stroke-linecap="butt"/><path d="M335.58444,64.2214c0.20353,-4.88817 4.45264,-8.85847 9.77048,-8.85847c5.31783,0 9.27453,3.96607 9.27453,8.85847c0,4.8924 -3.88585,9.07104 -9.69964,9.14188c-5.52997,0.06739 -9.55792,-4.03692 -9.34537,-9.14188z" fill="#ffffff" stroke="#000000" stroke-width="1.4" stroke-linecap="butt"/><path d="M340.1872,64.30694c0,-2.81845 2.2848,-5.10325 5.10325,-5.10325c2.81845,0 5.10325,2.2848 5.10325,5.10325c0,2.81845 -2.28479,5.10325 -5.10325,5.10325c-2.81845,0 -5.10325,-2.2848 -5.10325,-5.10325z" fill="#000000" stroke="none" stroke-width="1.5" stroke-linecap="butt"/><path d="M308.45973,63.68848c0,0 0.06357,-9.01512 10.60111,-8.8249c9.47101,0.16586 9.55554,9.40723 9.55554,9.40723z" fill="#ffffff" stroke="#000000" stroke-width="1.15" stroke-linecap="butt"/><path d="M335.20679,63.81938c0,0 -0.24686,-9.4582 11.19813,-9.1032c9.71427,0.33347 9.54677,9.65229 9.54677,9.65229z" fill="#ffffff" stroke="#000000" stroke-width="1.15" stroke-linecap="butt"/><path d="M311.98957,53.67682c0,0 3.36963,-1.819 8.03244,-2.28178c5.16698,-0.51283 7.76823,-0.06628 7.76823,-0.06628l0.29508,4.13747c0,0 -3.83554,-0.68065 -8.01795,-0.52113c-5.59346,0.21333 -6.64488,1.43293 -10.89774,1.89119c-3.64408,0.39266 -6.73723,0.15884 -6.73723,0.15884l-0.02589,-1.23155c0,0 3.59517,0.07398 5.23371,-0.06836c1.35239,-0.11749 3.9757,-0.93808 3.9757,-0.93808z" fill="#000000" stroke="none" stroke-width="1.5" stroke-linecap="butt"/><path d="M359.9505,64.21285c1.0294,-5.97877 1.7913,-8.61483 3.73262,-8.35569c1.94131,0.25914 1.77649,4.24909 0.48013,9.99193c-1.23206,5.45797 -6.16417,8.97502 -6.16417,8.97502c0,0 0.92203,-4.6325 1.95143,-10.61127z" data-paper-data="{&quot;index&quot;:null}" fill="#ffffff" stroke="#000000" stroke-width="1" stroke-linecap="butt"/><path d="M360.36308,60.14579c0,0 2.57754,-0.80312 2.15675,2.28016c-0.75431,5.52723 -4.31816,8.45061 -4.31816,8.45061" data-paper-data="{&quot;index&quot;:null}" fill="none" stroke="#000000" stroke-width="0.25" stroke-linecap="round"/></g><path d="M89.14971,254.84205c0,0 -0.63536,-94.38387 -0.79335,-118.01201c-0.05451,-8.15261 8.18688,-36.76129 40.20201,-36.9211c31.60235,-0.15775 39.85672,29.48704 39.84884,36.89673c-0.07659,46.24274 0.65429,117.98648 0.65429,117.98648l-10.49667,0.09614l-0.15882,-114.84311c0,0 0.07549,-3.0993 -2.81625,-3.15415c-3.43441,-0.06514 -2.94538,3.11562 -2.94538,3.11562l0.20548,114.86995l-48.21366,0.07222l-0.30539,-115.23309c0,0 0.27949,-2.919 -2.8856,-2.93443c-3.11083,-0.01515 -2.81569,2.90899 -2.81569,2.90899l0.35311,115.0668z" fill="#ffffff" stroke="#000000" stroke-width="2" stroke-linecap="butt"/><g fill="#000000" stroke-linecap="butt"><path d="M144.74687,155.78424c-0.57113,0 -1.03411,-0.46299 -1.03411,-1.03411c0,-0.57113 0.46299,-1.03413 1.03411,-1.03413c0.57113,0 1.03411,0.463 1.03411,1.03413c0,0.57113 -0.46299,1.03411 -1.03411,1.03411z" stroke="none" stroke-width="1.5"/><path d="M139.48699,160.01984c-4.4635,-0.31439 -6.55245,-1.79392 -6.16985,-2.58011c0.11788,-0.24224 2.84645,1.06355 6.97038,1.3048c6.40897,0.37493 8.51033,-0.63173 8.51033,-0.63173v1.34616c0,0 -2.4135,1.04672 -9.31086,0.56089z" stroke="#000000" stroke-width="0"/><path d="M111.67425,154.75013c0,-0.57113 0.46299,-1.03413 1.03411,-1.03413c0.57113,0 1.03413,0.463 1.03413,1.03413c0,0.57113 -0.463,1.03411 -1.03413,1.03411c-0.57113,0 -1.03411,-0.46299 -1.03411,-1.03411z" stroke="none" stroke-width="1.5"/><path d="M117.96823,160.01984c-6.89736,0.48585 -9.31086,-0.56089 -9.31086,-0.56089v-1.34616c0,0 2.10136,1.00666 8.51033,0.63173c4.12393,-0.24126 6.85251,-1.54704 6.97039,-1.3048c0.3826,0.78618 -1.70634,2.26571 -6.16985,2.58011z" stroke="#000000" stroke-width="0"/><path d="M129.2487,216.57159c-0.81895,0 -1.48284,-0.66389 -1.48284,-1.48284c0,-0.81895 0.66389,-1.48284 1.48284,-1.48284c0.81895,0 1.48284,0.66389 1.48284,1.48284c0,0.81895 -0.66389,1.48284 -1.48284,1.48284z" data-paper-data="{&quot;index&quot;:null}" stroke="none" stroke-width="1.5"/></g><path d="M103.18544,255.85649v-119.20147c0,0 0.75721,-9.73105 0.75721,-14.63937c0,-4.498 -0.75721,-13.6872 -0.75721,-13.6872c0,0 2.67319,-2.35297 4.6557,-3.74807c1.98251,-1.3951 5.17197,-2.80371 5.17197,-2.80371c0,0 -0.6016,40.10902 14.55952,40.03867c15.43477,-0.07162 13.83154,-40.03867 13.83154,-40.03867c0,0 3.91276,1.51959 6.16585,2.94655c2.25309,1.42695 4.75379,3.60523 4.75379,3.60523c0,0 -0.75721,9.42463 -0.75721,14.19201c0,4.84193 0.75721,14.63937 0.75721,14.63937v118.69667z" fill="#ffffff" stroke="#000000" stroke-width="2" stroke-linecap="butt"/><g fill="#ffffff" stroke="#000000" stroke-linecap="butt"><path d="M333.32358,126.56809c0.5704,0.21186 3.08357,1.39942 6.02385,2.59586c2.9637,1.20597 7.21362,2.29294 7.19412,2.4605c-0.02476,0.21265 -10.43477,0.22694 -13.67937,0.63224c-2.71902,0.33964 -6.68867,0.70564 -6.68867,0.70564c0,0 -7.10401,-1.16169 -13.27235,-2.44521c-4.94371,-1.02869 -10.39929,-1.66108 -10.40995,-1.75461c-0.01439,-0.12613 3.86835,-0.71071 6.82417,-1.39467c1.14585,-0.49661 5.43971,-1.48513 5.43971,-1.48513c0,0 4.95585,-0.27766 7.60826,0.579c2.84203,0.91791 2.83546,2.44556 3.0831,2.46906c0,0 1.18436,-1.74932 2.36886,-2.10461c1.18451,-0.35528 5.08219,-0.41633 5.50828,-0.25808z" stroke-width="1.4"/><path d="M314.67556,131.12168c5.09114,1.02674 11.91756,2.80736 11.91756,2.80736c0,0 5.78976,-1.55585 8.44678,-1.8344c2.05992,-0.21596 11.216,-0.70654 11.26026,-0.33377c0.04328,0.36447 -9.03119,12.90033 -21.14808,12.44714c-13.76954,-0.43578 -22.86459,-15.13559 -22.82675,-15.30472c0.03784,-0.16913 7.2591,1.19165 12.35024,2.2184z" stroke-width="1.9"/></g><g><path d="M207.3158,326.54211c0,0 -4.93211,-3.51705 -6.16417,-8.97502c-1.29636,-5.74284 -1.46118,-9.7328 0.48013,-9.99193c1.94131,-0.25915 2.70321,2.37692 3.73262,8.35569c1.0294,5.97877 1.95143,10.61127 1.95143,10.61127z" data-paper-data="{&quot;index&quot;:null}" fill="#ffffff" stroke="#000000" stroke-width="1" stroke-linecap="butt"/><path d="M207.11321,322.59453c0,0 -3.56385,-2.92338 -4.31816,-8.45061c-0.42079,-3.08327 2.15675,-2.28016 2.15675,-2.28016" fill="none" stroke="#000000" stroke-width="0.25" stroke-linecap="round"/><path d="M261.54893,315.93082c1.0294,-5.97877 1.7913,-8.61483 3.73262,-8.35569c1.94131,0.25914 1.77649,4.24909 0.48013,9.99193c-1.23206,5.45797 -6.16417,8.97502 -6.16417,8.97502c0,0 0.92203,-4.6325 1.95143,-10.61127z" data-paper-data="{&quot;index&quot;:null}" fill="#ffffff" stroke="#000000" stroke-width="1" stroke-linecap="butt"/><path d="M261.96153,311.86377c0,0 2.57754,-0.80312 2.15675,2.28016c-0.75431,5.52723 -4.31816,8.45061 -4.31816,8.45061" data-paper-data="{&quot;index&quot;:null}" fill="none" stroke="#000000" stroke-width="0.25" stroke-linecap="round"/><g><path d="M188.83026,305.09727c0,0 6.16329,-5.92187 6.29161,-6.78761c0.33654,-2.27063 -0.16776,-40.17317 35.96775,-41.57382c44.63633,-0.91362 39.01489,35.34872 41.53088,42.1903c3.44981,9.38084 6.15664,17.40016 6.15664,17.40016c0,0 -2.76715,-2.05351 -4.0797,-3.13397c-1.2242,-1.00773 -3.80143,-3.14585 -3.80143,-3.14585c0,0 3.09111,10.3481 1.31092,20.69498c-1.5623,9.48098 -7.29782,17.22543 -7.29782,17.22543l-1.15522,-2.34735c0,0 -1.02266,2.19794 -2.16005,3.33274c-1.1374,1.13479 -3.43873,2.91273 -3.43873,2.91273l-0.09205,-3.70421c0,0 -7.0601,11.01795 -24.35066,10.87154c-16.30625,-0.25547 -26.07151,-10.6752 -26.07151,-10.6752l-0.1162,2.65484c0,0 -3.89477,-3.29276 -6.18145,-9.70754c-2.72545,-7.64567 -3.23946,-12.24324 -3.23946,-12.24324c0,0 -2.33908,1.89916 -5.71704,2.7744c-4.23278,1.09673 -6.94665,0.34526 -6.94665,0.34526c0,0 3.60795,-2.71717 5.58396,-4.76989c1.76007,-1.8284 2.64658,-3.37722 2.64658,-3.37722c0,0 -2.10758,1.0847 -4.23277,1.61795c-2.21739,0.5564 -4.03008,0.53093 -4.03008,0.53093c0,0 4.97492,-5.03728 7.03074,-10.87429c1.94102,-5.51108 2.09972,-10.95731 2.09972,-10.95731c0,0 -1.36165,0.66163 -3.33013,0.79513c-1.24776,0.08463 -2.37785,-0.0489 -2.37785,-0.0489z" fill="#000000" stroke="none" stroke-width="1.5" stroke-linecap="butt"/><path d="M205.61615,316.41885c-0.57709,-7.29323 0.335,-17.15448 0.335,-17.15448c0,0 3.41059,-0.04124 13.91429,-3.14424c8.0696,-2.38394 18.54731,-6.48722 18.54731,-6.48722c0,0 -2.49338,3.6717 -3.74114,5.12681c-1.32651,1.54696 -5.99292,5.8963 -5.99292,5.8963c0,0 10.67134,-2.50094 17.50809,-5.56264c8.56837,-3.53575 13.09252,-9.05309 15.45042,-7.5927c2.7829,1.72362 0.03006,22.01604 -0.28154,27.57396c-0.42163,5.66922 -2.53327,9.49969 -3.15031,12.52053c-0.61704,3.02084 3.75707,6.13662 1.96044,16.0397c-1.12121,6.18021 -8.32849,8.92466 -14.18608,14.66081c-5.85759,5.73616 -9.05378,9.25275 -13.01359,9.32173c-3.81077,0.06639 -8.93565,-5.1002 -13.93542,-10.38244c-5.32393,-5.62474 -8.87489,-8.47713 -9.71551,-15.13975c-0.36688,-2.90783 -0.56054,-5.32431 -0.7021,-7.65047c-0.15055,-2.47395 1.75783,-4.51243 1.57944,-7.26454c-0.25298,-3.90273 -4.26119,-6.77837 -4.57636,-10.76134z" fill="#ffffff" stroke="#000000" stroke-width="1.5" stroke-linecap="butt"/><path d="M252.49685,300.6128c0,0 1.55706,0.01389 4.39075,0.25671c2.58825,0.22181 4.70448,0.84037 4.70448,0.84037l0.42018,1.10962c0,0 -7.72171,-1.65203 -15.30711,0.5327c-6.0651,1.74688 -9.22096,4.70623 -9.22096,4.70623l-0.77184,-4.10515c0,0 2.73389,-2.28283 7.34905,-3.35734c4.77897,-1.11263 8.05027,-1.00217 8.05027,-1.00217z" data-paper-data="{&quot;index&quot;:null}" fill="#000000" stroke="none" stroke-width="1.5" stroke-linecap="butt"/><path d="M212.21535,301.19605c0,0 3.70809,-0.95564 8.34541,-0.28396c5.13875,0.7443 7.55637,1.80307 7.55637,1.80307l-0.70818,4.08707c0,0 -3.55945,-1.58271 -7.65757,-2.43328c-5.48072,-1.13753 -6.79449,-0.20645 -11.0328,-0.78397c-3.63162,-0.49486 -6.57785,-1.46538 -6.57785,-1.46538l0.27093,-1.20166c0,0 3.47196,0.93605 5.09667,1.19177c1.34097,0.21106 4.08462,0.04515 4.08462,0.04515z" fill="#000000" stroke="none" stroke-width="1.5" stroke-linecap="butt"/><path d="M208.7978,314.50998c0.07562,-5.21547 5.15838,-9.5272 10.88683,-9.44416c5.72844,0.08306 9.62438,4.52943 9.54877,9.74491c-0.07562,5.21547 -4.39628,9.37613 -10.12473,9.29309c-5.72844,-0.08306 -10.38649,-4.37835 -10.31087,-9.59383z" fill="#ffffff" stroke="#000000" stroke-width="1.4" stroke-linecap="butt"/><path d="M237.11514,314.40543c0.22149,-5.08452 4.84572,-9.2143 10.63303,-9.2143c5.7873,0 10.09329,4.12538 10.09329,9.2143c0,5.08893 -4.22889,9.43542 -10.55593,9.5091c-6.01815,0.07009 -10.4017,-4.19908 -10.17039,-9.5091z" fill="#ffffff" stroke="#000000" stroke-width="1.4" stroke-linecap="butt"/><path d="M212.52908,315.21786c0.04863,-2.98691 2.80788,-5.37315 6.16293,-5.32985c3.35507,0.04331 6.03542,2.49977 5.98678,5.48666c-0.04863,2.98691 -2.80786,5.37315 -6.16292,5.32985c-3.35507,-0.04331 -6.03542,-2.49976 -5.98679,-5.48666z" fill="#000000" stroke="none" stroke-width="1.5" stroke-linecap="butt"/><path d="M241.31906,315.32777c0,-3.02371 2.8616,-5.47491 6.39158,-5.47491c3.52998,0 6.39158,2.45119 6.39158,5.47491c0,3.02371 -2.86159,5.47492 -6.39157,5.47492c-3.52998,0 -6.39157,-2.4512 -6.39157,-5.47491z" fill="#000000" stroke="none" stroke-width="1.5" stroke-linecap="butt"/><path d="M209.33462,310.92342c0.96822,-2.79933 3.53033,-6.51638 10.30951,-6.38945c6.04014,0.10971 8.36641,3.94365 9.26214,6.83855c0.14489,0.46827 -4.858,-3.59774 -10.00671,-3.75249c-4.75482,-0.14291 -9.68721,3.65688 -9.56494,3.30339z" fill="#ffffff" stroke="#000000" stroke-width="1.15" stroke-linecap="butt"/><path d="M237.98136,311.1228c0.87705,-2.87282 3.42875,-6.84139 10.84061,-6.60437c6.24503,0.22101 8.44218,4.23672 9.21445,7.12151c0.00661,0.02474 -5.02206,-4.09509 -10.10777,-4.22606c-4.94711,-0.12741 -9.95512,3.73463 -9.94727,3.70892z" fill="#ffffff" stroke="#000000" stroke-width="1.15" stroke-linecap="butt"/><path d="M230.27586,341.65038c-1.02892,-0.09998 -3.2062,-3.58731 -3.25021,-5.70478c-0.03939,-1.89455 1.67917,-3.68286 4.13916,-3.44382c2.46,0.23904 4.13494,0.89487 3.60602,4.55865c-0.44888,3.10934 -2.03498,4.829 -4.49497,4.58997z" fill="#ffffff" stroke="#000000" stroke-width="1.15" stroke-linecap="butt"/><path d="M258.70777,341.91897c0,3.93503 -12.67797,22.25 -26.3125,22.25c-13.63453,0 -22.5625,-21.81497 -22.5625,-25.75c0,-3.93503 7.92797,6.125 21.5625,6.125c13.63453,0 27.3125,-6.56003 27.3125,-2.625z" fill="#000000" stroke="#000000" stroke-width="0" stroke-linecap="butt"/><path d="M253.7255,341.33652c0,0.1071 -2.3866,3.46361 -4.73787,5.43728c-1.66386,1.39666 -3.12279,1.28957 -4.53436,2.43894c-3.5494,2.89011 -4.66408,3.64298 -5.64726,4.06249c-2.1231,0.90591 -4.33325,0.6863 -5.89302,0.6863c-8.38782,0 -14.8125,-8.05393 -14.8125,-10.125c0,-2.07107 6.42468,-0.5 14.8125,-0.5c8.38782,0 20.8125,-4.07107 20.8125,-2z" fill="#ffffff" stroke="#000000" stroke-width="0.5" stroke-linecap="butt"/><path d="M246.6747,337.32486c5.31286,-0.58229 13.35038,1.55599 13.3403,1.64256c-0.01064,0.09136 -2.74403,3.24791 -6.82882,4.99736c-5.42246,2.32235 -12.74999,3.40371 -14.60054,3.63488c-2.71902,0.33964 -10.62287,0.79672 -14.92154,-0.58663c-2.82747,-0.90991 -5.59985,-2.88323 -8.26474,-4.43862c-4.57886,-2.67251 -6.93038,-7.93102 -6.9347,-7.96893c-0.0023,-0.02014 1.77554,0.73127 4.33717,1.8231c2.365,1.00802 5.3981,0.6812 8.31521,1.93027c5.18507,2.22018 10.00371,5.91022 10.05286,5.91489c0,0 1.18436,-1.74932 2.36886,-2.10461c0.59644,-0.1789 10.66869,-4.57386 13.13594,-4.84428z" fill="#fefefe" stroke="#000000" stroke-width="1.4" stroke-linecap="butt"/><path d="M234.28801,365.08653c-5.02378,0 -15.12575,-2.95563 -16.86823,-6.83721c-0.18593,-0.41418 2.97399,-4.51107 5.02086,-6.96254c0.11562,-0.13847 3.25522,2.9151 6.05286,4.40651c1.37358,0.73225 2.85447,0.42386 3.4851,0.46926c4.65773,0.33528 8.736,-3.75102 10.26774,-3.75102c4.97471,0 5.49582,4.29472 2.61685,7.90966c-2.13505,2.68085 -6.88593,4.76534 -10.57519,4.76534z" fill="#ffffff" stroke="none" stroke-width="0" stroke-linecap="butt"/><path d="M236.77153,312.04609c0,0 -0.28181,3.96107 -0.6835,7.09377c-0.7954,6.20328 -3.76121,27.52598 -3.76121,27.52598l-2.96853,-0.27976c0,0 -0.39562,-4.23084 -0.19921,-9.56389c0.26586,-7.21875 1.12837,-16.26031 1.13883,-19.6141c0.00993,-3.17907 -0.33906,-5.77439 -0.33906,-5.77439" fill="#ffffff" stroke="#000000" stroke-width="1.3" stroke-linecap="round"/><path d="M260.04865,339.09548c0.00788,0.06637 0.39856,7.3811 -1.10455,13.61041c-0.56043,2.32255 -1.28213,7.77217 -5.63637,10.95853c-4.81935,3.52671 -13.48862,4.69342 -18.1497,4.82968c-9.074,0.26525 -18.20484,-2.90918 -19.16968,-4.18694c-1.01373,-1.34251 -2.25427,-6.73331 -3.95949,-12.45407c-2.47674,-8.30908 -5.37901,-17.49919 -5.3717,-17.53186c0.01094,-0.0489 5.1694,6.12587 9.00003,12.10596c3.00165,4.68595 4.75376,9.34886 5.47337,10.16006c0.3625,0.40864 2.96632,2.52563 5.73959,3.10888c2.2397,0.47104 10.6726,2.28032 16.62735,-1.47293c9.34108,-5.88762 16.53371,-19.27463 16.55115,-19.12773z" fill="#ffffff" stroke="#000000" stroke-width="1.9" stroke-linecap="butt"/></g></g><g><path d="M286.72588,199.00936c0,0 -2.27509,0.65404 -3.15736,0.67703c-0.95446,0.02487 -2.36989,-0.533 -2.36989,-0.533c0,0 6.18881,-5.09844 6.18881,-5.99624c0,-4.69754 -3.31982,-44.03916 41.05011,-44.42706c40.76517,-0.35637 37.57316,40.14252 37.57316,44.78328c0,2.28158 6.25686,17.15901 6.25686,17.15901l-7.18288,-5.17613c0,0 2.5429,9.57961 0.84774,19.96352c-1.58773,9.72579 -7.75862,17.67022 -7.75862,17.67022l-1.17402,-2.29289c0,0 -1.0393,2.13962 -2.19521,3.30372c-1.15591,1.1641 -3.6087,2.52763 -3.6087,2.52763l0.02046,-3.33957c0,0 -8.42909,10.1517 -25.20305,9.88643c-16.57167,-0.26207 -26.10827,-9.40883 -26.10827,-9.40883l-0.18649,1.89485c0,0 -4.59356,-4.74475 -6.82929,-10.09629c-2.90215,-6.94668 -2.67656,-11.17847 -2.67656,-11.17847c0,0 -2.77312,1.63955 -5.74169,2.15558c-3.46125,0.60167 -6.64931,0.35417 -6.64931,0.35417l7.40686,-7.39085c0,0 -2.5954,1.08897 -3.89125,1.31451c-1.19938,0.20877 -3.61685,-0.00772 -3.61685,-0.00772c0,0 5.7882,-7.50402 7.35039,-11.29317c1.42747,-3.46235 1.65507,-10.54979 1.65507,-10.54979z" fill="#000000" stroke="none" stroke-width="1.5" stroke-linecap="butt"/><path d="M298.86977,209.71884c-0.5716,-7.2238 0.33181,-17.43561 0.33181,-17.43561c0,0 4.93368,-0.4853 15.33738,-3.55876c7.99278,-2.36124 16.12948,-7.17468 16.12948,-7.17468l-4.77473,6.93722c0,0 7.94607,-1.68008 14.86838,-4.35096c7.02393,-2.71009 11.93698,-6.74954 13.71602,-4.99343c3.15602,3.08812 0.81331,26.98519 -0.16139,31.10194c-0.22163,0.93603 -1.74725,4.5521 -2.35842,7.54418c-0.61117,2.99208 -1.37953,14.53433 -2.47093,19.45843c-1.24153,5.60148 -4.8365,8.26827 -10.63832,13.94981c-5.80182,5.68155 -10.58939,7.9261 -12.74684,7.94727c-2.74056,0.02689 -8.99344,-3.76593 -13.9456,-8.99788c-5.27325,-5.57119 -8.7904,-8.39643 -9.62302,-14.99562c-0.74986,-5.94327 -0.76914,-9.8142 -1.11197,-15.10318c-0.25057,-3.86558 -2.23966,-6.38368 -2.55183,-10.32873z" fill="#ffffff" stroke="#000000" stroke-width="1.5" stroke-linecap="butt"/><path d="M306.10948,200.395l0.42977,-1.54733c0,0 3.38788,-1.74273 7.76611,-2.15547c4.36405,-0.41141 7.51066,0.15777 7.51066,0.15777l-0.12571,4.38628c0,0 -3.23119,-0.6833 -7.2726,-0.4532c-3.07444,-0.08743 -17.11874,3.10338 -17.11874,3.10338l-0.02503,-1.32836z" fill="#000000" stroke="none" stroke-width="1.5" stroke-linecap="butt"/><path d="M347.14895,195.18687c0,0 2.58495,0.58027 3.9131,0.94264c1.37748,0.37583 4.20918,1.27342 4.20918,1.27342l0.02658,1.60365c0,0 -7.56951,-3.10018 -15.3608,-2.44708c-6.22972,0.52222 -9.70167,2.61896 -9.70167,2.61896l0.26753,-4.58151c0,0 4.98677,-1.57156 8.2888,-1.78234c3.30203,-0.21079 7.84714,0.75229 7.84714,0.75229z" data-paper-data="{&quot;index&quot;:null}" fill="#000000" stroke="none" stroke-width="1.5" stroke-linecap="butt"/><path d="M326.89449,240.94666c0.24666,0.0234 0.6086,-1.44147 2.34631,-2.08459c1.67939,-0.62153 4.07183,-0.42472 5.53918,-0.25563c1.61805,0.54491 10.03261,4.51373 10.03261,4.51373c0,0 -7.35924,0.71929 -10.57295,1.12073c-2.69313,0.33641 -7.62499,1.1275 -7.62499,1.1275l-20.10897,-4.41101c0,0 1.85053,-0.41485 4.59385,-1.34455c3.16904,-1.07398 4.04458,-1.54001 5.02564,-1.667c2.33124,-0.30176 5.0884,-0.29325 7.71556,0.55526c2.81497,0.90917 2.80847,2.42228 3.05375,2.44555z" fill="#ffffff" stroke="#000000" stroke-width="1.25" stroke-linecap="butt"/><path d="M303.4132,210.09852c0,-4.84582 4.31467,-8.77414 9.63711,-8.77414c5.32243,0 9.63711,3.92831 9.63711,8.77414c0,4.84582 -4.31467,8.77414 -9.63711,8.77414c-5.32243,0 -9.63711,-3.92831 -9.63711,-8.77414z" fill="#ffffff" stroke="#000000" stroke-width="1.5" stroke-linecap="butt"/><path d="M330.23045,235.45592c-0.12873,2.22357 -1.54357,3.85431 -3.99162,3.85431c-2.44806,0 -3.75065,-2.70224 -3.75065,-4.92993c0,-2.22768 1.3026,-3.13723 3.75065,-3.13723c2.44806,0 4.1621,1.2681 3.99162,4.21285z" fill="#ffffff" stroke="#000000" stroke-width="1" stroke-linecap="butt"/><path d="M307.80952,210.04291c0,-2.79162 2.26305,-5.05467 5.05467,-5.05467c2.79162,0 5.05467,2.26305 5.05467,5.05467c0,2.79162 -2.26304,5.05467 -5.05467,5.05467c-2.79162,0 -5.05467,-2.26305 -5.05467,-5.05467z" fill="#000000" stroke="none" stroke-width="1.5" stroke-linecap="butt"/><path d="M329.87686,209.90067l-1.13564,35.08008l-3.50884,0.00856c0,0 -1.01839,-25.12184 -1.73419,-30.85333c-0.29556,-2.36659 -0.53778,-4.44016 -0.53778,-4.44016" fill="#ffffff" stroke="#000000" stroke-width="1.5" stroke-linecap="round"/><path d="M330.27639,210.09852c0,-4.84582 4.2699,-8.77414 9.53711,-8.77414c5.2672,0 9.53711,3.92831 9.53711,8.77414c0,4.84582 -4.2699,8.77414 -9.53711,8.77414c-5.2672,0 -9.53711,-3.92831 -9.53711,-8.77414z" fill="#ffffff" stroke="#000000" stroke-width="1.5" stroke-linecap="butt"/><path d="M334.69491,210.04291c0,-2.79162 2.26305,-5.05467 5.05467,-5.05467c2.79162,0 5.05467,2.26305 5.05467,5.05467c0,2.79162 -2.26304,5.05467 -5.05467,5.05467c-2.79162,0 -5.05467,-2.26305 -5.05467,-5.05467z" fill="#000000" stroke="none" stroke-width="1.5" stroke-linecap="butt"/><path d="M303.19018,209.71922c0,0 -0.20396,-9.20795 10.23434,-9.32209c9.10107,-0.0995 9.6686,9.32209 9.6686,9.32209z" fill="#ffffff" stroke="#000000" stroke-width="1.25" stroke-linecap="butt"/><path d="M329.72965,209.33948c0,0 0.00695,-9.70149 10.92193,-9.34987c10.25337,0.3303 10.08746,9.34987 10.08746,9.34987z" fill="#ffffff" stroke="#000000" stroke-width="1.25" stroke-linecap="butt"/><path d="M325.52872,254.46302c-14.95285,-0.33604 -20.2577,-13.33667 -20.2577,-13.33667c0,0 7.00776,1.33843 10.38376,2.13318c3.48786,0.82108 6.46932,2.33304 10.81875,2.51689c4.34943,0.18384 6.71999,-1.2773 9.35172,-1.5532c2.04031,-0.2139 9.2602,-0.64012 9.2602,-0.64012c0,0 -3.27128,11.24591 -19.55673,10.87992z" fill="#ffffff" stroke="#000000" stroke-width="1.25" stroke-linecap="butt"/><path d="M300.00148,219.10201c-0.5,1.48326 -4.18147,-3.12616 -5.41584,-8.29187c-1.23436,-5.16572 -1.10594,-9.00347 1.27666,-9.03026c2.2529,-0.02534 2.33616,3.69464 2.98794,7.40959c0.69836,3.98046 1.74832,8.14128 1.15124,9.91254z" data-paper-data="{&quot;index&quot;:null}" fill="#ffffff" stroke="#000000" stroke-width="1" stroke-linecap="butt"/><path d="M354.1435,208.91931c0.65177,-3.71495 0.73504,-7.43493 2.98794,-7.40959c2.3826,0.0268 2.51103,3.86455 1.27666,9.03027c-1.23437,5.16572 -4.91584,9.77513 -5.41584,8.29187c-0.59708,-1.77126 0.45288,-5.93208 1.15124,-9.91254z" data-paper-data="{&quot;index&quot;:null}" fill="#ffffff" stroke="#000000" stroke-width="1" stroke-linecap="butt"/><path d="M300.39857,215.65179c0,0 -3.40034,-2.17736 -4.13961,-7.59436c-0.41239,-3.02178 2.38961,-2.28065 2.38961,-2.28065" fill="none" stroke="#000000" stroke-width="0.5" stroke-linecap="round"/><path d="M354.68844,205.02679c0,0 2.35523,-0.4078 2.0086,2.61398c-0.6214,5.417 -3.47956,7.26102 -3.47956,7.26102" data-paper-data="{&quot;index&quot;:null}" fill="none" stroke="#000000" stroke-width="0.5" stroke-linecap="round"/></g><g fill="#ffffff" stroke="#000000" stroke-width="1.25" stroke-linecap="butt"><path d="M360.8945,259.94666c0.24666,0.0234 0.6086,-1.44147 2.34631,-2.08459c1.67939,-0.62153 4.07183,-0.42472 5.53918,-0.25563c1.61805,0.54491 10.03261,4.51373 10.03261,4.51373c0,0 -7.35924,0.71929 -10.57295,1.12073c-2.69313,0.33641 -7.62499,1.1275 -7.62499,1.1275l-20.10897,-4.41101c0,0 1.85053,-0.41485 4.59385,-1.34455c3.16904,-1.07398 4.04458,-1.54001 5.02564,-1.667c2.33124,-0.30176 5.0884,-0.29325 7.71556,0.55526c2.81497,0.90917 2.80847,2.42228 3.05375,2.44555z"/><path d="M359.52872,273.46302c-14.95285,-0.33604 -20.2577,-13.33667 -20.2577,-13.33667c0,0 7.00776,1.33843 10.38376,2.13318c3.48786,0.82108 6.46932,2.33304 10.81875,2.51689c4.34943,0.18384 6.71999,-1.2773 9.35172,-1.5532c2.04031,-0.2139 9.2602,-0.64012 9.2602,-0.64012c0,0 -3.27128,11.24591 -19.55673,10.87992z"/></g><g stroke-linecap="butt"><path d="M72.89293,256.78817l-0.11445,-115.47135c0,0 0.09832,-2.28093 -2.98289,-2.26592c-3.13496,0.01528 -2.85813,2.29111 -2.85813,2.29111l0.16172,115.51106l-48.68972,0.14535l-0.26068,-116.02637c0,0 0.37326,-2.48381 -3.02845,-2.41929c-2.86421,0.05433 -2.67833,2.45745 -2.67833,2.45745l0.30689,115.99979l-8.77237,0.04367l0.18386,-117.36323c0,0 -0.11537,-12.77258 7.99488,-23.00505c5.45442,-6.88168 14.6293,-12.61447 30.06189,-12.54042c37.6337,0.18059 39.12484,35.56961 39.12484,35.56961v117.13852z" fill="#ffffff" stroke="#000000" stroke-width="1.5"/><path d="M25.89473,152.40054c0,-0.81115 0.65757,-1.46872 1.46872,-1.46872c0.81115,0 1.46872,0.65757 1.46872,1.46872c0,0.81115 -0.65757,1.46872 -1.46872,1.46872c-0.81115,0 -1.46872,-0.65757 -1.46872,-1.46872z" fill="#000000" stroke="none" stroke-width="1.5"/><path d="M56.24815,152.40054c0,-0.81115 0.65757,-1.46872 1.46872,-1.46872c0.81115,0 1.46872,0.65758 1.46872,1.46872c0,0.81115 -0.65757,1.46872 -1.46872,1.46872c-0.81115,0 -1.46872,-0.65757 -1.46872,-1.46872z" fill="#000000" stroke="none" stroke-width="1.5"/><path d="M38.64585,155.24895c0,0.33215 -1.95637,1.52867 -5.25889,2.04641c-3.7849,0.59336 -9.00309,0.49046 -9.38376,0.49046c-0.71283,0 -1.29068,-0.57787 -1.29068,-1.29068c0,-0.71283 0.57787,-1.29068 1.29068,-1.29068c0.3098,0 2.93808,1.03094 6.01236,0.94671c3.99937,-0.10958 8.63027,-1.30522 8.63027,-0.90219z" fill="#000000" stroke="none" stroke-width="1.5"/><path d="M54.75326,156.06214c3.07429,0.08423 5.70257,-0.94671 6.01236,-0.94671c0.71283,0 1.29068,0.57787 1.29068,1.29068c0,0.71283 -0.57787,1.29068 -1.29068,1.29068c-0.38067,0 -5.59885,0.10289 -9.38376,-0.49047c-3.30251,-0.51773 -5.25889,-1.71425 -5.25889,-2.04641c0,-0.40303 4.6309,0.79262 8.63027,0.90219z" data-paper-data="{&quot;index&quot;:null}" fill="#000000" stroke="none" stroke-width="1.5"/><path d="M41.61044,212.27588c0,-0.81115 0.65757,-1.46872 1.46872,-1.46872c0.81115,0 1.46872,0.65757 1.46872,1.46872c0,0.81115 -0.65757,1.46872 -1.46872,1.46872c-0.81115,0 -1.46872,-0.65757 -1.46872,-1.46872z" fill="#000000" stroke="none" stroke-width="1.5"/><path d="M18.79205,256.35198v-116.10693c0,0 0.75721,-9.47843 0.75721,-14.25932c0,-4.38123 -0.75721,-13.33187 -0.75721,-13.33187c0,0 2.67319,-2.29189 4.6557,-3.65077c1.98251,-1.35888 5.17197,-2.73093 5.17197,-2.73093c0,0 -0.6016,39.06777 14.55952,38.99925c15.43477,-0.06976 13.83154,-38.99924 13.83154,-38.99924c0,0 3.91276,1.48014 6.16585,2.87006c2.25309,1.3899 4.75379,3.51164 4.75379,3.51164c0,0 -0.75721,9.17996 -0.75721,13.82358c0,4.71623 0.75721,14.25932 0.75721,14.25932v115.61524z" fill="#ffffff" stroke="#000000" stroke-width="2"/></g><g><path d="M386.72589,53.00936c0,0 -2.27509,0.65404 -3.15736,0.67703c-0.95446,0.02487 -2.36989,-0.533 -2.36989,-0.533c0,0 6.18881,-5.09844 6.18881,-5.99624c0,-4.69754 -3.31982,-44.03916 41.05011,-44.42706c40.76517,-0.35637 37.57316,40.14252 37.57316,44.78328c0,2.28158 6.25686,17.15901 6.25686,17.15901l-7.18288,-5.17613c0,0 2.5429,9.57961 0.84774,19.96352c-1.58773,9.72579 -7.75862,17.67022 -7.75862,17.67022l-1.17402,-2.29289c0,0 -1.0393,2.13962 -2.19521,3.30372c-1.15591,1.1641 -3.6087,2.52763 -3.6087,2.52763l0.02046,-3.33957c0,0 -8.42909,10.1517 -25.20305,9.88643c-16.57167,-0.26207 -26.10827,-9.40883 -26.10827,-9.40883l-0.18649,1.89485c0,0 -4.59356,-4.74475 -6.82929,-10.09629c-2.90215,-6.94668 -2.67656,-11.17847 -2.67656,-11.17847c0,0 -2.77312,1.63955 -5.74169,2.15558c-3.46125,0.60167 -6.64931,0.35417 -6.64931,0.35417l7.40686,-7.39085c0,0 -2.5954,1.08897 -3.89125,1.31451c-1.19938,0.20877 -3.61685,-0.00772 -3.61685,-0.00772c0,0 5.7882,-7.50402 7.35039,-11.29317c1.42747,-3.46235 1.65507,-10.54979 1.65507,-10.54979z" fill="#000000" stroke="none" stroke-width="1.5" stroke-linecap="butt"/><path d="M398.86978,63.71884c-0.5716,-7.2238 0.33181,-17.43561 0.33181,-17.43561c0,0 4.93368,-0.4853 15.33738,-3.55876c7.99278,-2.36124 16.12948,-7.17468 16.12948,-7.17468l-4.77473,6.93722c0,0 7.94607,-1.68008 14.86838,-4.35096c7.02393,-2.71009 11.93698,-6.74954 13.71602,-4.99343c3.15602,3.08812 0.81331,26.98519 -0.16139,31.10194c-0.22163,0.93603 -1.74725,4.5521 -2.35842,7.54418c-0.61117,2.99208 -1.37953,14.53433 -2.47093,19.45843c-1.24153,5.60148 -4.8365,8.26827 -10.63832,13.94981c-5.80182,5.68155 -10.58939,7.9261 -12.74684,7.94727c-2.74056,0.02689 -8.99344,-3.76593 -13.9456,-8.99788c-5.27325,-5.57119 -8.7904,-8.39643 -9.62302,-14.99562c-0.74986,-5.94327 -0.76914,-9.8142 -1.11197,-15.10318c-0.25057,-3.86558 -2.23966,-6.38368 -2.55183,-10.32873z" fill="#ffffff" stroke="#000000" stroke-width="1.5" stroke-linecap="butt"/><path d="M406.10949,54.395l0.42977,-1.54733c0,0 3.38788,-1.74273 7.76611,-2.15547c4.36405,-0.41141 7.51066,0.15777 7.51066,0.15777l-0.12571,4.38628c0,0 -3.23119,-0.6833 -7.2726,-0.4532c-3.07444,-0.08743 -17.11874,3.10338 -17.11874,3.10338l-0.02503,-1.32836z" fill="#000000" stroke="none" stroke-width="1.5" stroke-linecap="butt"/><path d="M447.14895,49.18687c0,0 2.58495,0.58027 3.9131,0.94264c1.37748,0.37583 4.20918,1.27342 4.20918,1.27342l0.02658,1.60365c0,0 -7.56951,-3.10018 -15.3608,-2.44708c-6.22972,0.52222 -9.70167,2.61896 -9.70167,2.61896l0.26753,-4.58151c0,0 4.98677,-1.57156 8.2888,-1.78234c3.30203,-0.21079 7.84714,0.75229 7.84714,0.75229z" data-paper-data="{&quot;index&quot;:null}" fill="#000000" stroke="none" stroke-width="1.5" stroke-linecap="butt"/><path d="M426.8945,94.94666c0.24666,0.0234 0.6086,-1.44147 2.34631,-2.08459c1.67939,-0.62153 4.07183,-0.42472 5.53918,-0.25563c1.61805,0.54491 10.03261,4.51373 10.03261,4.51373c0,0 -7.35924,0.71929 -10.57295,1.12073c-2.69313,0.33641 -7.62499,1.1275 -7.62499,1.1275l-20.10897,-4.41101c0,0 1.85053,-0.41485 4.59385,-1.34455c3.16904,-1.07398 4.04458,-1.54001 5.02564,-1.667c2.33124,-0.30176 5.0884,-0.29325 7.71556,0.55526c2.81497,0.90917 2.80847,2.42228 3.05375,2.44555z" fill="#ffffff" stroke="#000000" stroke-width="1.25" stroke-linecap="butt"/><path d="M403.41321,64.09852c0,-4.84582 4.31467,-8.77414 9.63711,-8.77414c5.32243,0 9.63711,3.92831 9.63711,8.77414c0,4.84582 -4.31467,8.77414 -9.63711,8.77414c-5.32243,0 -9.63711,-3.92831 -9.63711,-8.77414z" fill="#ffffff" stroke="#000000" stroke-width="1.5" stroke-linecap="butt"/><path d="M430.23045,89.45592c-0.12873,2.22357 -1.54357,3.85431 -3.99162,3.85431c-2.44806,0 -3.75065,-2.70224 -3.75065,-4.92993c0,-2.22768 1.3026,-3.13723 3.75065,-3.13723c2.44806,0 4.1621,1.2681 3.99162,4.21285z" fill="#ffffff" stroke="#000000" stroke-width="1" stroke-linecap="butt"/><path d="M407.80952,64.04291c0,-2.79162 2.26305,-5.05467 5.05467,-5.05467c2.79162,0 5.05467,2.26305 5.05467,5.05467c0,2.79162 -2.26304,5.05467 -5.05467,5.05467c-2.79162,0 -5.05467,-2.26305 -5.05467,-5.05467z" fill="#000000" stroke="none" stroke-width="1.5" stroke-linecap="butt"/><path d="M429.87686,63.90067l-1.13564,35.08008l-3.50884,0.00856c0,0 -1.01839,-25.12184 -1.73419,-30.85333c-0.29556,-2.36659 -0.53778,-4.44016 -0.53778,-4.44016" fill="#ffffff" stroke="#000000" stroke-width="1.5" stroke-linecap="round"/><path d="M430.27639,64.09852c0,-4.84582 4.2699,-8.77414 9.53711,-8.77414c5.2672,0 9.53711,3.92831 9.53711,8.77414c0,4.84582 -4.2699,8.77414 -9.53711,8.77414c-5.2672,0 -9.53711,-3.92831 -9.53711,-8.77414z" fill="#ffffff" stroke="#000000" stroke-width="1.5" stroke-linecap="butt"/><path d="M434.69491,64.04291c0,-2.79162 2.26305,-5.05467 5.05467,-5.05467c2.79162,0 5.05467,2.26305 5.05467,5.05467c0,2.79162 -2.26304,5.05467 -5.05467,5.05467c-2.79162,0 -5.05467,-2.26305 -5.05467,-5.05467z" fill="#000000" stroke="none" stroke-width="1.5" stroke-linecap="butt"/><path d="M403.19018,63.71922c0,0 -0.20396,-9.20795 10.23434,-9.32209c9.10107,-0.0995 9.6686,9.32209 9.6686,9.32209z" fill="#ffffff" stroke="#000000" stroke-width="1.25" stroke-linecap="butt"/><path d="M429.72965,63.33948c0,0 0.00695,-9.70149 10.92193,-9.34987c10.25337,0.3303 10.08746,9.34987 10.08746,9.34987z" fill="#ffffff" stroke="#000000" stroke-width="1.25" stroke-linecap="butt"/><path d="M425.52872,108.46302c-14.95285,-0.33604 -20.2577,-13.33667 -20.2577,-13.33667c0,0 7.00776,1.33843 10.38376,2.13318c3.48786,0.82108 6.46932,2.33304 10.81875,2.51689c4.34943,0.18384 6.71999,-1.2773 9.35172,-1.5532c2.04031,-0.2139 9.2602,-0.64012 9.2602,-0.64012c0,0 -3.27128,11.24591 -19.55673,10.87992z" fill="#ffffff" stroke="#000000" stroke-width="1.25" stroke-linecap="butt"/><path d="M400.00149,73.10201c-0.5,1.48326 -4.18147,-3.12616 -5.41584,-8.29187c-1.23436,-5.16572 -1.10594,-9.00347 1.27666,-9.03026c2.2529,-0.02534 2.33616,3.69464 2.98794,7.40959c0.69836,3.98046 1.74832,8.14128 1.15124,9.91254z" data-paper-data="{&quot;index&quot;:null}" fill="#ffffff" stroke="#000000" stroke-width="1" stroke-linecap="butt"/><path d="M454.1435,62.91931c0.65177,-3.71495 0.73504,-7.43493 2.98794,-7.40959c2.3826,0.0268 2.51103,3.86455 1.27666,9.03027c-1.23437,5.16572 -4.91584,9.77513 -5.41584,8.29187c-0.59708,-1.77126 0.45288,-5.93208 1.15124,-9.91254z" data-paper-data="{&quot;index&quot;:null}" fill="#ffffff" stroke="#000000" stroke-width="1" stroke-linecap="butt"/><path d="M400.39857,69.65179c0,0 -3.40034,-2.17736 -4.13961,-7.59436c-0.41239,-3.02178 2.38961,-2.28065 2.38961,-2.28065" fill="none" stroke="#000000" stroke-width="0.5" stroke-linecap="round"/><path d="M454.68844,59.02679c0,0 2.35523,-0.4078 2.0086,2.61398c-0.6214,5.417 -3.47956,7.26102 -3.47956,7.26102" data-paper-data="{&quot;index&quot;:null}" fill="none" stroke="#000000" stroke-width="0.5" stroke-linecap="round"/></g></g></g></svg>