<svg version="1.1" xmlns="http://www.w3.org/2000/svg" xmlns:xlink="http://www.w3.org/1999/xlink" width="34.17311" height="34.17311" viewBox="0,0,34.17311,34.17311"><g transform="translate(-222.91345,-162.91346)"><g data-paper-data="{&quot;isPaintingLayer&quot;:true}" stroke-miterlimit="10" stroke-dasharray="" stroke-dashoffset="0" style="mix-blend-mode: normal"><path d="M229.98312,162.91346h20.03379c3.9166,0 7.06966,3.15307 7.06966,7.06966v20.03379c0,3.91659 -3.15306,7.06966 -7.06966,7.06966h-20.03379c-3.91659,0 -7.06966,-3.15307 -7.06966,-7.06966v-20.03379c0,-3.91659 3.15307,-7.06966 7.06966,-7.06966z" fill-opacity="0.35" fill="#4d4d4d" fill-rule="evenodd" stroke="none" stroke-width="4.43922" stroke-linecap="round" stroke-linejoin="round"/><g fill-rule="nonzero" stroke="#000000" stroke-width="0.5" stroke-linejoin="miter"><path d="M243.03928,174.78683l4.54061,-8.56051l1.62092,0.85976l-4.54061,8.56051z" fill="#646464" stroke-linecap="butt"/><path d="M245.72775,167.5156l2.17627,-4.10297l3.44446,1.82699l-2.17627,4.10297z" fill="#3c3c3c" stroke-linecap="butt"/><path d="M235.9476,178.1351l-8.69261,-4.28229l0.81085,-1.64594l8.69261,4.28229z" fill="#646464" stroke-linecap="butt"/><path d="M228.59914,175.66552l-4.16628,-2.05246l1.72305,-3.49762l4.16628,2.05246z" fill="#3c3c3c" stroke-linecap="butt"/><path d="M248.66618,187.96861c-2.95519,6.1253 -9.40858,9.13314 -14.41405,6.71822c-5.00547,-2.41492 -6.66755,-9.33814 -3.71236,-15.46343c2.95519,-6.1253 9.40858,-9.13315 14.41405,-6.71822c5.00547,2.41492 6.66755,9.33814 3.71236,15.46343z" fill="#646464" stroke-linecap="butt"/><path d="M247.44938,190.0801c-2.31534,4.79906 -8.25003,6.73178 -13.2555,4.31686c-5.00547,-2.41492 -7.18625,-8.26301 -4.87091,-13.06207c2.31534,-4.79906 8.25003,-6.73178 13.2555,-4.31686c5.00547,2.41492 7.18625,8.26301 4.87091,13.06207z" fill="#646464" stroke-linecap="butt"/><path d="M245.90485,189.44005c-1.91956,3.97871 -6.83976,5.58105 -10.9896,3.57893c-4.14983,-2.00212 -5.95783,-6.85053 -4.03828,-10.82924c1.91956,-3.97871 6.83976,-5.58105 10.9896,-3.57893c4.14983,2.00212 5.95783,6.85053 4.03828,10.82924z" fill="#000000" stroke-linecap="butt"/><path d="M239.95358,171.65138l0.80462,4.92135l-2.22817,-0.4283l-0.37366,-4.11362z" fill="#000000" stroke-linecap="round"/><path d="M236.89246,172.60082l0.49975,3.31002l-2.625,0.52618l-0.12406,-2.7836z" fill="#000000" stroke-linecap="round"/><path d="M234.11718,174.57211l0.74113,1.87489l-2.96293,1.46392l-0.23011,-1.04993z" fill="#000000" stroke-linecap="round"/><path d="M244.61387,172.17023l-1.55256,5.03607l-2.11857,-0.73363l1.86996,-4.70771z" fill="#000000" stroke-linecap="round"/><path d="M250.00574,177.69109l-3.45238,2.26771l-1.72199,-1.47748l4.35282,-2.43311z" data-paper-data="{&quot;index&quot;:null}" fill="#000000" stroke-linecap="round"/><path d="M250.41123,181.58626l-2.256,1.63532l-1.22187,-2.38213l2.90186,-1.66889z" data-paper-data="{&quot;index&quot;:null}" fill="#000000" stroke-linecap="round"/><path d="M249.65427,186.11997l-0.96502,0.47334l-0.6982,-3.23026l1.92877,-0.58677z" data-paper-data="{&quot;index&quot;:null}" fill="#000000" stroke-linecap="round"/><path d="M247.31587,173.881l-2.52102,4.3936l-1.89276,-1.20167l2.97558,-4.34952z" data-paper-data="{&quot;index&quot;:null}" fill="#000000" stroke-linecap="round"/></g></g></g></svg>