<svg version="1.1" xmlns="http://www.w3.org/2000/svg" xmlns:xlink="http://www.w3.org/1999/xlink" width="34.17311" height="34.17311" viewBox="0,0,34.17311,34.17311"><g transform="translate(-222.91345,-162.91346)"><g data-paper-data="{&quot;isPaintingLayer&quot;:true}" stroke-miterlimit="10" stroke-dasharray="" stroke-dashoffset="0" style="mix-blend-mode: normal"><path d="M229.98312,162.91346h20.03379c3.9166,0 7.06966,3.15307 7.06966,7.06966v20.03379c0,3.91659 -3.15306,7.06966 -7.06966,7.06966h-20.03379c-3.91659,0 -7.06966,-3.15307 -7.06966,-7.06966v-20.03379c0,-3.91659 3.15307,-7.06966 7.06966,-7.06966z" fill-opacity="0.35" fill="#4d4d4d" fill-rule="evenodd" stroke="none" stroke-width="4.43922" stroke-linecap="round" stroke-linejoin="round"/><g fill-rule="nonzero" stroke-width="0" stroke-linejoin="miter"><path d="M224.79443,170.53948l2.88207,-4.36915c0,0 9.00864,5.90532 14.70523,10.10898c6.04902,4.46373 13.92046,11.01464 13.92046,11.01464l-3.32496,4.04233c0,0 -8.65757,-7.43813 -13.5998,-11.08512c-4.92639,-3.6353 -14.58301,-9.71168 -14.58301,-9.71168z" fill="#000000" stroke="none" stroke-linecap="butt"/><path d="M234.21025,171.03582c3.20522,2.58409 6.37557,6.65602 4.32024,9.21524c-2.05533,2.55922 -6.91599,3.96493 -11.76325,0.05254c-3.20378,-2.58588 -3.98836,-7.11003 -1.93303,-9.66926c2.05533,-2.55922 6.17082,-2.1826 9.37604,0.40148z" fill="#000000" stroke="#9966ff" stroke-linecap="butt"/><path d="M252.83095,191.3992c-1.83932,2.71862 -6.39366,3.30306 -9.80931,1.0043c-5.16783,-3.47799 -5.25799,-8.53702 -3.41866,-11.25564c1.83932,-2.71862 6.66509,-0.89003 10.07944,1.41064c3.41436,2.30067 4.98785,6.12208 3.14853,8.84071z" data-paper-data="{&quot;index&quot;:null}" fill="#000000" stroke="#9966ff" stroke-linecap="butt"/><path d="M234.02537,181.58343c-3.88039,0.60159 -6.67284,-2.49486 -6.67284,-2.49486c0,0 3.61725,1.13264 6.472,0.42301c3.45118,-0.85789 5.56252,-2.28742 5.56252,-2.28742c0,0 -1.84322,3.81379 -5.36168,4.35927z" fill="#e6e6e6" stroke="#ffffff" stroke-linecap="round"/><path d="M248.50823,192.58441c-3.88039,0.60159 -6.43584,-2.71212 -6.43584,-2.71212c0,0 3.10766,0.9919 6.14787,0.65442c3.61323,-0.97359 5.64964,-2.30157 5.64964,-2.30157c0,0 -1.84322,3.81379 -5.36168,4.35927z" fill="#e6e6e6" stroke="#ffffff" stroke-linecap="round"/></g></g></g></svg>