<svg version="1.1" xmlns="http://www.w3.org/2000/svg" xmlns:xlink="http://www.w3.org/1999/xlink" width="34.17311" height="34.17311" viewBox="0,0,34.17311,34.17311"><g transform="translate(-222.91345,-162.91346)"><g data-paper-data="{&quot;isPaintingLayer&quot;:true}" stroke="none" stroke-miterlimit="10" stroke-dasharray="" stroke-dashoffset="0" style="mix-blend-mode: normal"><path d="M229.98312,162.91346h20.03379c3.9166,0 7.06966,3.15307 7.06966,7.06966v20.03379c0,3.91659 -3.15306,7.06966 -7.06966,7.06966h-20.03379c-3.91659,0 -7.06966,-3.15307 -7.06966,-7.06966v-20.03379c0,-3.91659 3.15307,-7.06966 7.06966,-7.06966z" fill-opacity="0.35" fill="#4d4d4d" fill-rule="evenodd" stroke-width="4.43922" stroke-linecap="round" stroke-linejoin="round"/><g fill-rule="nonzero" stroke-width="0.5" stroke-linecap="butt" stroke-linejoin="miter"><path d="M235.17552,183.45959c-0.05791,-0.0702 -0.10921,-0.14508 -0.15329,-0.22602c-0.00132,0.09464 0.00533,0.18807 0.02139,0.27845c0.00826,-0.00356 0.01715,-0.00549 0.02643,-0.00549c0.00931,0 0.01824,0.00195 0.02653,0.00554l0.10265,0.04118l-0.00661,0.02386c0.02458,0.014 0.04574,0.03321 0.06076,0.06015c0.02977,0.05342 -0.05249,-0.11221 -0.07508,-0.1705c-0.00093,-0.00239 -0.00185,-0.00478 -0.00277,-0.00718zM235.44183,183.71939c-0.01989,-0.01606 -0.03936,-0.03232 -0.05841,-0.04881c-0.03127,0.15574 -0.13709,0.18372 -0.20664,0.10396l-0.01365,0.08172c0.02884,0.05177 0.06255,0.10117 0.10153,0.14769l0.0348,0.04188c0,0 0.05544,0.06672 0,0.13343c-0.05544,0.06672 -0.11087,0 -0.11087,0l-0.0348,-0.04188c-0.03473,-0.0421 -0.06592,-0.08604 -0.09376,-0.13155c-0.02368,-0.00501 -0.0437,-0.02282 -0.05496,-0.04727l-0.07771,-0.16181l0.00179,-0.00125l-0.00541,-0.00724c-0.03269,-0.11706 -0.11047,-0.44812 -0.09355,-0.67673c-0.0075,-0.01332 -0.01252,-0.03115 -0.01252,-0.05503c0,-0.04898 0.02113,-0.07253 0.04145,-0.08386c0.00411,-0.00982 0.00867,-0.019 0.01372,-0.02748l-0.03333,-0.08571c-0.00518,-0.0126 -0.00809,-0.02679 -0.00809,-0.04179c0,-0.05211 0.0351,-0.09435 0.0784,-0.09435c0.00865,0 0.01698,0.00169 0.02476,0.0048c0.01766,-0.07385 0.03848,-0.14697 0.06196,-0.21876c0.00605,-0.01821 0.01247,-0.04001 0.01928,-0.06435c-0.72879,0.07054 -1.50313,0.00165 -2.17218,-0.25907c-0.45998,-0.17925 -1.03048,-0.43445 -1.43501,-0.75807c-0.41643,-0.33314 -0.76725,-0.79563 -1.11892,-1.21811c-0.68511,-0.82504 -1.26324,-1.89044 -1.69259,-2.92387c-0.15359,-0.36969 -0.32676,-0.74572 -0.42202,-1.14461c-0.012,-0.05026 -0.08505,-0.41854 -0.08343,-0.42143c0.05019,-0.08927 0.44483,-0.0556 0.5335,-0.05864c0.4677,-0.01602 0.90716,0.04958 1.37055,0.12272c0.12926,0.0204 0.25833,0.03925 0.38726,0.05681c-0.15274,-1.0342 -0.26049,-2.06727 -0.48101,-3.08881c-0.14303,-0.66633 -0.2638,-1.37819 -0.50568,-2.0107c-0.17887,-0.46774 -0.40134,-0.91725 -0.58567,-1.38556c-0.25906,-0.6582 -0.49576,-1.42696 -0.83277,-2.03105c-0.20594,-0.36915 -0.41164,-0.79051 -0.5562,-1.19808c-0.18351,-0.53004 -0.47292,-0.98926 -0.70909,-1.48665c-0.02365,-0.04981 -0.2189,-0.37321 -0.2088,-0.40716c0.04312,-0.14496 0.25704,-0.11425 0.33748,-0.11455c0.29597,-0.00111 0.59195,0 0.88792,0c1.05514,0.00174 2.1002,0.48094 3.1468,0.59307c1.02961,0.11032 2.05835,0.30569 3.08637,0.47065c1.06077,0.17022 2.12517,0.31347 3.18476,0.47287c1.06081,0.15958 2.12674,0.28203 3.18789,0.37257c1.07104,0.09185 2.15873,0.20676 3.22559,0.35482c1.01567,0.14095 2.04334,0.1885 3.06611,0.26667c1.06949,0.08174 2.14576,0.06649 3.21704,0.10042c1.06288,0.03369 2.12911,0.11853 3.18909,0.21703c0.02687,0.00461 0.37026,0.03838 0.3891,0.0627c0.19686,0.25413 -0.04779,0.68799 -0.13431,0.92172c-0.26584,0.71815 -0.59167,1.41932 -0.92967,2.09451c-0.20429,0.30801 -0.37568,0.68501 -0.59671,0.97116c-0.45263,0.58599 -1.06032,1.17227 -1.60406,1.63113c-0.80667,0.67958 -1.60563,1.44894 -2.11321,2.47712c-0.20943,0.4601 -0.54082,0.94804 -0.54539,1.50472l-0.07577,0.18802c0,0 -0.00619,0.01489 -0.01856,0.02904c0.54244,0.09556 1.13279,0.02672 1.67645,0.08564c0.69068,0.07562 1.37033,0.09294 2.06464,0.09294c0.36559,0 0.62032,-0.07986 0.84594,0.32181c0.2749,0.4996 0.70256,0.97286 0.79663,1.59609c0.08239,0.5458 -0.08801,1.13431 -0.21441,1.64984c-0.60948,1.1136 -1.47265,1.59828 -2.43801,2.18108c-0.96166,0.57867 -1.88532,1.15463 -2.89907,1.59647c-0.24185,0.07244 -0.47715,0.1434 -0.71749,0.21208c-0.00919,0.81466 -0.00921,1.6308 0.12914,2.42526c0.13307,0.48152 0.18885,0.99634 0.32626,1.47062c0.17901,0.61791 0.571,1.17411 0.89272,1.69043c0.32592,0.49245 0.69923,0.93774 1.04164,1.42048c0.26858,0.37865 0.48004,0.81852 0.76583,1.17898c0.43971,0.60465 0.87647,1.22734 1.29491,1.85825c0.11449,0.17263 0.22312,0.34541 0.33782,0.51906c0.03165,0.04791 0.09652,0.08709 0.09047,0.14786c-0.02384,0.23931 -0.18725,0.16699 -0.29812,0.1568c-1.01956,-0.14959 -2.05096,-0.22995 -3.08363,-0.22995c-1.06193,0 -2.12788,-0.00978 -3.17924,0.10815c-1.01373,0.11091 -2.01854,0.32484 -3.03051,0.39431c-0.48404,0.00012 -1.02622,-0.08156 -1.50505,-0.00105c-0.52427,0.08816 -1.06151,0.16859 -1.59482,0.16859c-0.50535,0 -1.00454,0.13112 -1.50989,0.16738c-0.49982,0.03586 -1.01326,0.03266 -1.51439,0.04612c-0.82911,0.06665 -1.63497,0.01244 -2.46053,-0.04615c-0.26178,-0.01858 -0.51989,0.01205 -0.78078,-0.03137c-0.06805,-0.03991 -0.17706,-0.03465 -0.20416,-0.11972c-0.01941,-0.06092 0.19308,-0.47613 0.22984,-0.54265c0.42405,-0.76739 0.70015,-1.65244 1.07255,-2.45869c0.45043,-1.1397 0.73451,-2.31798 1.09067,-3.49674c0.34062,-1.12716 0.57953,-2.3691 0.66242,-3.56617c0.03301,-0.4742 0.05462,-0.98564 0.11893,-1.45657c0.02731,-0.19994 0.06493,-0.40197 0.09804,-0.60554z" fill="#ffffff"/><path d="M232.31251,176.04245c0.27668,-0.01196 0.55311,-0.03031 0.8262,-0.03163c0.48044,0 1.06345,-0.11543 1.53078,0.00224c0.47675,0.12004 0.96322,0.21673 1.45269,0.26773c1.04095,0.10894 2.0394,0.19066 3.08848,0.19066c1.04622,0 2.07296,-0.07411 3.11603,-0.16563c0.25925,-0.1027 0.5789,-0.04374 0.8506,-0.04374c0.71441,0 1.39501,0.05921 2.09978,0.21463c1.04108,0.12476 2.0308,0.62389 2.82499,1.44387c0.18096,0.22077 0.38583,0.45021 0.47338,0.75158c0.11573,0.39839 0.02986,0.97143 -0.03649,1.37028c-0.02264,0.13612 -0.07104,0.48932 -0.16735,0.57909c-0.04489,0.04183 -0.1142,0.00172 -0.16985,0.01529c-0.20614,0.05024 -0.33502,0.12714 -0.55309,0.12714c-1.02,0 -2.04792,-0.05656 -3.05887,0.09702c-1.01583,0.15223 -1.99556,0.26862 -3.01902,0.18088c-1.01815,-0.08752 -2.03569,-0.06853 -3.05601,-0.06853c-0.69574,0 -1.4458,0.09755 -2.13659,-0.00205c-0.29719,-0.04285 -0.59835,-0.11427 -0.89653,-0.1388c-0.55837,-0.048 -1.18796,-0.049 -1.72979,-0.21385c-0.40584,-0.12347 -0.8588,-0.37517 -1.27287,-0.40966c-0.19868,-0.04759 -0.36616,-0.14031 -0.55704,-0.2009c-0.12747,-0.04047 -0.28732,-0.01132 -0.40787,-0.09606c-0.13344,-0.0938 -0.25724,-0.37719 -0.33817,-0.53283c-0.09541,-0.18347 -0.25299,-0.36203 -0.32025,-0.5621c-0.08936,-0.2658 -0.0394,-0.65122 -0.0394,-0.93193c0,-0.37155 -0.05743,-0.89 0.07588,-1.23073c0.08532,-0.21806 0.33018,-0.29904 0.49531,-0.36126c0.14265,-0.05374 0.27229,-0.10727 0.4033,-0.15485c0.00469,-0.0856 0.07816,-0.0856 0.07816,-0.0856h0.03479c0.05417,0 0.10838,-0.00069 0.16262,-0.00189c0.05571,-0.01466 0.11321,-0.02774 0.17341,-0.03889c0,0 0.04624,-0.00856 0.07278,0.03054z" fill="#000000"/></g></g></g></svg>