<svg version="1.1" xmlns="http://www.w3.org/2000/svg" xmlns:xlink="http://www.w3.org/1999/xlink" width="212.84566" height="46.11618" viewBox="0,0,212.84566,46.11618"><g transform="translate(-139.41894,-157.85102)"><g data-paper-data="{&quot;isPaintingLayer&quot;:true}" fill="#070214" fill-rule="nonzero" stroke="#070214" stroke-width="1.5" stroke-linecap="round" stroke-linejoin="miter" stroke-miterlimit="10" stroke-dasharray="" stroke-dashoffset="0" style="mix-blend-mode: normal"><path d="M158.50288,179.11682l6.62739,0.73638l1.47276,1.47276l8.59106,-0.73637l2.20913,1.47276h2.70004l2.9455,-1.22729l2.70004,0.24545l2.94551,1.47276l1.47276,-1.47276l9.57289,-0.24545l2.70005,-1.71822l7.11831,-0.24545l14.97298,-14.23661l-9.57289,24.54588l-5.15464,1.96368l-2.20913,4.41826l-3.68188,-0.73637l-4.90918,4.66372l-6.38193,0.49091l-2.70005,1.71822l-4.1728,0.73637l-2.45458,0.73638l-2.9455,-1.22729l-3.68188,-0.49092l-3.68188,-1.96367l-4.66372,0.98183l-6.38193,-6.13647l-3.92734,-0.73637l-3.68188,-4.41826l-2.9455,-0.98183l-1.22729,-2.45459l-8.83651,-24.79134z"/><path d="M257.81323,184.65449l3.95024,-1.69296l2.68052,1.26972l2.68052,-1.12865l1.97513,-0.56431l1.55188,1.97513l2.25728,-1.55189l2.39836,1.55189l4.37349,-1.4108l1.26972,1.97513l3.50473,-1.96027l-6.32633,8.30888l-0.84648,2.39837l-1.12865,-0.42324l-2.53944,1.97512l-1.55188,0.84648l-2.25728,-0.7054l-1.97512,0.42324l-1.83404,-1.12865l-1.4108,1.12865l-1.69296,-0.56432l-2.53944,-2.39836l-3.10376,-2.25728l-3.80916,-8.21234z"/><path d="M310.34581,182.83517l1.85611,-1.29928l3.52662,-1.11367l4.64029,0.37122l3.1554,2.04172l2.96979,-2.04172h3.89785l2.96979,1.6705l3.52662,-1.6705l4.8259,0.55683l2.96979,1.11367l5.01152,-1.85611l-4.64029,5.19713l-0.55683,2.96979h-1.48489l-1.85611,2.78418l-1.11367,-0.55683l-2.41295,1.85611l-1.48489,2.22734l-1.48489,-0.74244l-1.11367,2.78418l-1.29928,0.18561l-1.48489,-1.6705l-2.96979,1.29928l-2.04172,-1.11367l-1.85612,1.11367l-1.6705,-0.37123l-2.22734,-2.59856h-2.22734l-1.48489,-2.96979l-2.04173,-0.18561l-2.04172,-2.59856l-6.31079,-7.79569z"/></g></g></svg>