<svg version="1.1" xmlns="http://www.w3.org/2000/svg" xmlns:xlink="http://www.w3.org/1999/xlink" width="108.77099" height="203.80313" viewBox="0,0,108.77099,203.80313"><g transform="translate(-183.90602,-113.06611)"><g stroke="none" stroke-miterlimit="10"><g stroke-width="1"><path d="M273.62099,222.40367c0.6424,0.66555 1.20454,1.8899 1.6864,3.67308l3.37869,13.03472c1.36945,4.91 2.29572,8.64587 2.77878,11.2076c0.81928,3.34031 1.73051,8.47006 2.73367,15.38925l2.771,23.73374c0.05429,4.90999 -0.14936,8.4261 -0.61091,10.54833c-0.25367,1.3311 -0.54938,2.32942 -0.88715,2.99497l-2.03829,3.0138c-2.55716,2.90079 -4.57162,4.96651 -6.04336,6.19715c-2.44853,2.10967 -4.95321,3.44704 -7.51402,4.01213l-5.54946,0.48975c-17.10206,0.56509 -31.37356,-0.26999 -42.81449,-2.50522c-5.31946,-1.0046 -9.49385,-2.45499 -12.52317,-4.35118c-1.92204,-1.10507 -3.40453,-2.21641 -4.44748,-3.33403c-1.61765,-1.23064 -3.22971,-2.85056 -4.83618,-4.85976c-2.166,-2.78777 -4.00366,-7.07617 -5.51296,-12.86519c-1.594,-5.68856 -2.6741,-10.48555 -3.24031,-14.39094c-0.95097,-5.78902 -1.42734,-15.15066 -1.4291,-28.08492c0.05644,-4.23189 0.21196,-7.35244 0.46658,-9.36164c1.35252,-7.35871 2.07447,-12.99077 2.16583,-16.89616c0.01396,-1.44412 0.14018,-2.49895 0.37869,-3.1645c0.3675,-1.23064 1.03935,-1.90246 2.01553,-2.01548c0.45132,-0.059 0.98133,0.0052 1.59009,0.1926c14.41009,7.69359 29.27604,13.22408 45.29665,13.43071c7.04873,0.09091 15.4437,0.39872 21.88421,-2.25874c3.0813,-1.2714 6.53181,-2.67735 9.67153,-4.4879c0.22258,0.19431 0.43233,0.41359 0.62924,0.65786z" fill="#cccccc"/><path d="M277.82227,218.39153c0.83931,5.78902 3.63415,19.33232 8.3845,40.6299c0.83965,3.56634 1.54926,6.96315 2.12882,10.19044c0.1936,0.56509 0.34683,1.23692 0.45971,2.01549l0.1939,1.33738c1.91988,10.24694 3.13213,18.99327 3.63671,26.23896l0.05098,1.50691c0.00425,1.56969 -0.10668,2.68731 -0.33277,3.35286c-0.65515,1.55714 -1.86364,2.3357 -3.62547,2.3357c-1.79459,-0.22604 -3.13976,-1.11761 -4.03551,-2.67475c-0.45186,-0.89159 -0.64713,-1.89619 -0.58584,-3.01381l-0.55661,-7.17663c0.2027,-1.68271 0.34488,-2.96985 0.42654,-3.86144c0.29858,-2.56173 0.18934,-5.62577 -0.32772,-9.19212c-0.09649,-0.66555 -0.61294,-3.8426 -1.54936,-9.53117c-0.56319,-3.11427 -1.26261,-6.39807 -2.09827,-9.85138l-8.09916,-37.63493c-4.14178,3.35286 -9.0155,5.80786 -14.62113,7.36499c-6.6771,1.78317 -15.46255,1.94642 -26.35636,0.48974c-10.92475,-1.67015 -19.64646,-4.06236 -26.16511,-7.17663c-3.67051,-1.78317 -6.98918,-3.79237 -9.95598,-6.02761c-2.38244,14.71743 -3.07546,30.43319 -2.07903,47.14726c0.41692,0.56509 0.76285,1.79573 1.03776,3.69191c0.4406,5.34951 1.26503,11.42107 2.47333,18.2147c0.25731,1.0046 0.64528,2.56802 1.16389,4.69024c1.18982,2.90079 1.75208,4.85349 1.68681,5.85809c-0.15839,1.21808 -0.58125,2.10966 -1.26858,2.67475c-0.2385,0.66555 -0.78182,1.11134 -1.62996,1.33738c-1.12339,0.55253 -2.34189,0.10674 -3.65551,-1.33738c-0.14443,-0.22604 -0.29707,-0.50858 -0.45789,-0.84763c-0.4151,-0.55253 -0.78456,-1.21808 -1.10836,-1.99665c-0.04916,-0.33905 -0.14595,-0.6216 -0.29039,-0.84763c-1.35003,-4.00585 -2.38839,-9.24234 -3.1151,-15.70947c-1.29387,-9.69441 -1.93226,-20.17368 -1.91521,-31.43778c0.07862,-10.92506 0.88022,-22.12637 2.40482,-33.60396c0.08507,-1.00093 0.24314,-1.84178 0.47422,-2.52254c0.00716,0.00204 0.01431,0.00407 0.02147,0.00611c1.57552,0.44836 3.14235,0.52953 4.70232,0.4507c15.3169,8.50606 31.09951,14.79041 48.19727,15.01093c7.04873,0.09091 15.4437,0.39872 21.88421,-2.25874c4.78956,-1.97625 10.47119,-4.27761 14.49102,-7.91827c0.00367,0.02534 0.00735,0.05071 0.01103,0.0761z" fill="#000000"/></g><path d="" fill="#000000" stroke-width="1"/><path d="" fill="#000000" stroke-width="1"/><path d="" fill="#000000" stroke-width="1"/><path d="" fill="#000000" stroke-width="1"/><path d="" fill="#000000" stroke-width="1"/><g stroke-width="1"><path d="" fill="#000000"/><path d="" fill="#000000"/><path d="" fill="#000000"/><path d="" fill="#000000"/><path d="" fill="#e16f6f"/><path d="" fill="#c2e16f"/><path d="" fill="#6f7ce1"/></g><path d="M276.53425,176.82867c2.2733,4.97325 4.1637,11.63595 5.67121,19.98808c0.49072,3.68675 0.73289,5.89834 0.72651,6.63479c0.09404,1.48569 -0.07778,3.49176 -0.51544,6.01819c-1.00965,6.84544 -2.79506,12.05079 -5.35619,15.61605c-2.45331,3.45928 -7.02318,7.16156 -13.70963,11.10683l-4.60234,2.65071c-5.40272,2.48339 -12.68718,3.47155 -21.85339,2.96445c-1.27096,-0.01102 -3.17059,-0.12846 -5.69887,-0.35231c-3.0499,-0.34717 -7.52105,-1.18183 -13.41346,-2.50395c-1.68402,-0.32345 -3.21356,-0.6515 -4.58865,-0.98416c1.48106,0.44048 3.00968,0.87544 4.58587,1.30487l6.151,1.63917c3.68585,0.98227 6.21132,1.53278 7.57637,1.65152c1.26921,0.21295 3.2698,0.33125 6.00177,0.35494l15.98201,0.13854c1.9041,-0.39926 3.9672,-1.32576 6.1893,-2.7795c2.65156,-1.66384 4.39994,-2.599 5.24514,-2.8055c2.37297,-0.56866 4.09249,-0.17533 5.15858,1.17999c-0.15808,0.12721 -0.31106,0.25 -0.45861,0.36752c-1.31096,1.04404 -2.87359,1.15638 -4.0046,2.2504c-0.18397,0.17795 -0.44629,0.60447 -0.73968,1.15369c-2.10022,0.6922 -4.13632,1.17534 -5.56282,1.27265c-3.11492,0.21247 -6.05852,2.77448 -9.16889,2.91394c-5.20086,0.2332 -10.57606,0.75108 -15.96127,1.00608c-6.19097,-2.0756 -13.15756,-1.68783 -19.35281,-3.79763c-1.89969,-0.64694 -4.98197,-0.46258 -6.65069,-1.64583c-4.62687,-3.2808 -9.39945,-6.12722 -14.04819,-9.28493c-0.09902,-0.15941 -0.20351,-0.31511 -0.31318,-0.4668c0.49271,-0.75524 1.11884,-1.17226 1.87838,-1.25105c0.84428,-0.0996 1.89865,0.23028 3.16312,0.98961c-2.83428,-1.92521 -5.1907,-4.16107 -7.06926,-6.70759c-1.56054,-2.2349 -3.11289,-5.41412 -4.65705,-9.53764l-1.23074,-3.96638c-0.10238,-0.52357 -0.14028,-2.31762 -0.11371,-5.38218l0.37137,-5.84125c0.47061,-6.32744 1.04033,-11.06816 1.70913,-14.22218c1.09006,-5.15793 2.86221,-9.51998 5.31644,-13.08617c0.85334,-1.14487 2.82782,-3.49762 5.92347,-7.05824c0.96033,-1.15582 3.57127,-4.29895 7.83279,-9.42937c1.06992,-1.46372 1.9215,-2.40666 2.55475,-2.82882c0.32246,-0.19915 1.59201,-0.71082 3.80865,-1.53501c5.70249,-1.43545 9.98091,-2.34868 12.83526,-2.73971c7.07572,-0.88898 13.92759,-0.62171 20.55562,0.80182c2.3116,0.5546 4.36054,1.26133 6.14683,2.12023l3.15648,1.75576c9.63674,6.52196 16.47988,13.96408 20.52941,22.32638z" fill="#cccccc" stroke-width="1"/><path d="M250.0484,146.85996c6.93957,2.48347 13.2354,6.60067 18.88748,12.35159c5.21629,5.31949 9.48008,11.57512 12.79139,18.76687c3.32493,6.98992 5.16509,13.96698 5.52049,20.93116c0.74739,11.07771 -2.02986,21.0736 -8.33173,29.98762c-1.27463,1.78268 -2.60772,3.45795 -3.99927,5.02579c-0.00318,0.36659 -0.0064,0.73779 -0.00965,1.11362c-2.05654,1.3308 -3.90517,2.886 -5.2817,3.98226c-0.34497,0.27473 -0.70737,0.48496 -1.07475,0.66552l-0.00826,-0.13254c-0.19228,0.13513 -0.3856,0.26867 -0.57999,0.40062c-0.83744,0.36046 -1.66642,0.66371 -2.34158,1.3168c-0.0708,0.06848 -0.15318,0.17376 -0.24448,0.30868c-0.95747,0.55589 -1.93836,1.07662 -2.94265,1.56219c-1.17977,0.29901 -2.25773,0.49697 -3.11536,0.55547c-3.11492,0.21247 -6.05852,2.77448 -9.16889,2.91394c-4.50852,0.20216 -9.14807,0.61825 -13.81159,0.89156c-1.13025,-0.0733 -2.28728,-0.16989 -3.47109,-0.28976c-3.99123,-1.11168 -8.25058,-1.37317 -12.38332,-2.05028c-6.01863,-1.34638 -11.05441,-2.98728 -15.10735,-4.92271c-3.73397,-2.50512 -7.52631,-4.82882 -11.23961,-7.35112c-0.13404,-0.21579 -0.27807,-0.42475 -0.43146,-0.62622c-0.35522,-1.47508 -1.68664,-2.8785 -3.26791,-3.96025c-1.46205,-1.92657 -2.68631,-4.00156 -3.67277,-6.22501c-2.16454,-5.18614 -3.09972,-13.09972 -2.80554,-23.74077c0.28145,-7.80207 1.02294,-13.85988 2.22448,-18.17342c2.2779,-7.89168 6.77012,-14.96827 13.47664,-21.22976c5.84409,-5.43745 13.05048,-9.7524 21.61916,-12.94485c4.86275,-1.85849 8.98035,-2.71966 12.35281,-2.58352c1.6867,0.01462 3.58493,0.29241 5.6947,0.83338zM259.915,159.75701c-7.01909,-5.64398 -14.74351,-8.71632 -23.17327,-9.21704c-5.0574,-0.35269 -9.86213,0.29464 -14.41419,1.942c-5.18161,1.64191 -10.42897,4.70278 -15.74208,9.18263c-4.13999,3.44466 -7.33568,6.89751 -9.58706,10.35855c-4.1647,6.29542 -6.50883,15.65951 -7.03237,28.0923c-0.28783,8.53852 0.75829,15.3008 3.13839,20.28687c3.01338,5.92999 7.93229,10.61139 14.75672,14.04418c4.93217,2.46607 11.44959,4.3163 19.55225,5.55068c9.90453,1.66576 17.97024,1.68223 24.19712,0.04938c6.55854,-1.52306 12.38937,-4.74518 17.49248,-9.66638c5.10302,-4.90931 8.57964,-10.62268 10.42986,-17.1401c2.94311,-10.62996 1.56209,-21.92699 -4.14303,-33.89109z" fill="#000000" stroke-width="1"/><path d="M251.17758,181.04568l1.59268,-0.78802l0.9457,-0.15217l0.4823,-0.13836c0.7383,-0.20742 1.36697,-0.10101 1.88599,0.31926l0.63864,0.32627c0.31793,0.32349 0.47643,0.53869 0.4755,0.64559l0.46062,0.3069l0.15618,0.48245l0.14939,1.26641l0.15757,0.3221l-0.00541,0.6236l0.15078,1.10606c0.19915,0.32246 0.19637,0.64317 -0.00834,0.96212l-0.16437,0.46185l-0.32349,0.31793l-0.16313,0.31932l-0.629,0.61819l-0.64559,0.4755l-0.62638,0.3153l-3.17146,-0.02749l-0.62221,-0.16576l-0.31793,-0.32349c-0.10691,-0.00093 -0.31932,-0.16313 -0.63725,-0.48662l-0.61819,-0.629l-0.31113,-1.10745l-0.16035,-0.00139l0.0261,-3.01111l0.16452,-0.47967z" fill="#000000" stroke-width="1"/><path d="M215.78452,177.56718l1.26502,0.01097l0.62221,0.16576l0.63864,0.32627c0.41213,0.41934 0.67165,0.62947 0.77856,0.63039l0.31515,0.6442l0.16035,0.00139c-0.10783,0.10598 -0.05571,0.26086 0.15634,0.46463l-0.00278,0.32071l0.15479,0.64281l-0.16576,0.62221l-0.00417,0.48106l-0.16437,0.46185l-0.16035,-0.00139l-0.1673,0.80038l-0.16035,-0.00139l-0.32611,0.62082l-0.31123,0.9595l-0.32194,0.13975l-0.64698,0.63586l-2.05577,0.7662l-1.26502,-0.01097c-0.62954,-0.00546 -1.10379,-0.11054 -1.42275,-0.31524l-0.62082,-0.32611c-0.31793,-0.32349 -0.53035,-0.4857 -0.63725,-0.48662l-0.15757,-0.3221l0.00263,-0.30289l-0.30011,-0.32333l0.00819,-0.94431l-0.15757,-0.3221c0.10969,-0.31978 0.1654,-0.58064 0.16715,-0.78257l0.00556,-0.64142l0.47143,-0.9403c0.42761,0.00371 0.64327,-0.20824 0.64698,-0.63586l0.16035,0.00139c0.31151,-0.30615 0.46818,-0.56613 0.47004,-0.77995l0.48384,-0.31654l2.05855,-1.08691z" fill="#000000" stroke-width="1"/><g stroke-width="1"><path d="M200.82626,170.32793l-0.3221,0.15757c-0.10598,-0.10783 -0.15804,-0.26865 -0.15618,-0.48245c0.10505,0.21473 0.26448,0.32302 0.47828,0.32488M242.29517,147.1135c-0.11236,0.62861 -0.43305,1.30888 -0.96208,2.04079l0.15896,0.16174c-0.21473,0.10505 -0.43039,0.317 -0.64698,0.63586c-1.26732,0.93933 -2.3263,1.82702 -3.17696,2.66306c-0.63314,0.41028 -1.21882,0.82691 -1.75705,1.24989c-0.10691,-0.00093 -0.20787,-0.0018 -0.30289,-0.00263l-1.12649,0.45351l-1.73799,1.1075l-0.32333,0.30011l-0.48245,0.15618l-3.8156,2.33678l-2.83988,0.77721c-0.21555,0.20008 -0.32472,0.46046 -0.3275,0.78118c-0.32163,0.10413 -0.63779,0.26175 -0.94848,0.47288l-0.47828,-0.32488l-1.74747,0.14522l-1.10745,0.31113l-0.16159,0.14114l-0.32071,-0.00278l-6.35259,3.11663l-0.00278,0.32071c-0.00093,0.10691 -0.00227,0.26132 -0.00402,0.46324c-0.41573,-0.0036 -0.83834,0.09965 -1.2678,0.30974l-0.14392,0.15912l-0.32071,-0.00278c-0.7383,0.20742 -1.37563,0.41572 -1.912,0.62489l-1.42939,0.45089c-0.63046,0.10145 -1.20656,0.09646 -1.72827,-0.01498l-2.22993,0.3014c0.21566,-0.21195 0.48431,-0.36999 0.80594,-0.47411c-0.84428,0.0996 -1.58072,0.09321 -2.20933,-0.01915c-0.74657,-0.20842 -1.43139,-0.68951 -2.05444,-1.44329c-0.51811,-0.52717 -0.98824,-1.10738 -1.4104,-1.74062c-0.83326,-1.17137 -1.39792,-2.49483 -1.69398,-3.97039c-0.20649,-0.8452 -0.50847,-3.0098 -0.90591,-6.4938c0.00093,-0.10691 0.00185,-0.2138 0.00278,-0.32071c0.00093,-0.10691 -0.05206,-0.16082 -0.15896,-0.16174c-0.39113,-2.84248 -0.73835,-5.2688 -1.04166,-7.27898l-1.15676,-12.50081l1.30487,-4.58587l0.97849,-1.88028l0.69912,-8.7072c0.32338,-0.30605 0.53993,-0.61896 0.6496,-0.93875c0.10783,-0.10598 0.21014,-0.25952 0.3069,-0.46062c0.10783,-0.10598 0.26958,-0.26494 0.48523,-0.47689c0.10969,-0.31978 0.37373,-0.63228 0.79215,-0.93752l0.3221,-0.15757l0.16035,0.00139c0.32349,-0.31793 0.64011,-0.52901 0.94987,-0.63323l4.26376,1.46244c-0.00093,0.10691 0.05206,0.16082 0.15896,0.16174l-0.00139,0.16035c-0.00093,0.10691 0.05206,0.16082 0.15896,0.16174l0.16035,0.00139l2.51505,1.7502c0.20101,0.10866 0.51485,0.21828 0.94153,0.32889l0.15757,0.3221l1.7173,1.28l6.61152,4.01302c0.83696,0.74375 1.67347,1.54096 2.50949,2.39161c2.61779,2.23218 6.43614,5.74583 11.45503,10.54095c4.91662,4.25967 7.53436,6.49779 7.85323,6.71438c1.56332,1.91419 2.28607,3.50037 2.16824,4.75852M213.86318,125.82336c-2.61779,-2.23218 -5.13188,-4.09523 -7.54224,-5.58912c-0.74369,-0.54101 -1.53586,-0.96958 -2.37653,-1.28572c-0.09863,0.41491 -0.20371,0.88916 -0.31524,1.42275l-0.32333,0.30011c-0.10691,-0.00093 -0.3221,0.15757 -0.64559,0.4755l-0.30428,0.15773c-0.44409,1.89679 -0.88404,4.00151 -1.31985,6.31414c0.10691,0.00093 0.15989,0.05484 0.15896,0.16174c-0.33626,1.79081 -0.56608,3.63601 -0.68945,5.53558c-0.00906,1.04527 0.1842,3.41681 0.57979,7.11461l1.04845,6.49503l0.89767,5.38897c0.30516,1.79637 0.66016,3.32591 1.06498,4.58859c0.30701,1.58257 0.66474,2.79733 1.07316,3.64428l0.47689,0.48523c0.2138,0.00185 0.52951,-0.10232 0.94709,-0.31252c2.86723,-1.87579 6.47037,-3.6858 10.80945,-5.43004l2.84266,-1.09792l8.58098,-3.23986c3.16874,-1.02976 5.49548,-2.22126 6.98021,-3.57447c0.32256,-0.21102 0.53869,-0.47643 0.64837,-0.79621c0.00268,-0.30883 -0.15495,-0.62499 -0.47288,-0.94848c-2.19378,-1.81274 -4.1281,-3.40942 -5.80295,-4.79003c-3.04077,-2.77041 -5.39765,-4.95282 -7.07065,-6.54723c-0.83696,-0.74375 -1.51358,-1.48612 -2.02982,-2.22709c-1.88588,-1.70317 -3.56022,-3.14317 -5.02301,-4.31998c-0.72913,-0.84973 -1.46007,-1.49159 -2.1928,-1.92559M217.68283,157.96543c0.42936,-0.19823 0.80532,-0.40284 1.12788,-0.61387c-0.32163,0.10413 -0.64373,0.2617 -0.96629,0.47272c-2.00006,0.50534 -3.3701,0.96268 -4.11016,1.37204c-0.5373,0.31607 -0.91331,0.52664 -1.12804,0.63169c1.69215,-0.61492 3.38435,-1.23578 5.07661,-1.86258z" fill="#000000"/><path d="M203.62915,120.37128c0.11154,-0.53359 0.21662,-1.00784 0.31524,-1.42275c0.84067,0.31614 1.63285,0.74471 2.37653,1.28572l-5.12587,7.54625c0.00093,-0.10691 -0.05206,-0.16082 -0.15896,-0.16174c0.43581,-2.31263 0.87576,-4.41734 1.31985,-6.31414l0.30428,-0.15773c0.32349,-0.31793 0.53869,-0.47643 0.64559,-0.4755l0.32333,-0.30011M221.079,132.06894l-16.9825,24.83436c-0.40482,-1.26269 -0.75982,-2.79221 -1.06498,-4.58859l-0.89767,-5.38897l13.92213,-19.17677c1.46279,1.17682 3.13714,2.61682 5.02301,4.31998M235.80694,147.37799c-1.48473,1.35322 -3.81146,2.54471 -6.98021,3.57447l-8.58098,3.23986l9.93372,-13.34906c1.67486,1.38061 3.60917,2.97728 5.80295,4.79003c0.31793,0.32349 0.47555,0.63965 0.47288,0.94848c-0.10969,0.31978 -0.3258,0.58519 -0.64837,0.79621z" fill="#e16f6f"/><path d="M230.17948,140.84326l-9.93372,13.34906l-2.84266,1.09792c-4.33908,1.74423 -7.94224,3.55425 -10.80945,5.43004c-0.41759,0.2102 -0.73328,0.31438 -0.94709,0.31252l-0.47689,-0.48523c-0.40842,-0.84695 -0.76615,-2.06171 -1.07316,-3.64428l16.9825,-24.83436c0.51626,0.74097 1.19287,1.48334 2.02982,2.22709c1.673,1.59441 4.02988,3.77682 7.07065,6.54723z" fill="#c2e16f"/><path d="M202.13386,146.92574l-1.04845,-6.49503c-0.39559,-3.6978 -0.58885,-6.06934 -0.57979,-7.11461c0.12338,-1.89957 0.35319,-3.74477 0.68945,-5.53558l5.12587,-7.54625c2.41037,1.49389 4.92445,3.35693 7.54224,5.58912c0.73274,0.434 1.46367,1.07586 2.1928,1.92559z" fill="#6f7ce1"/></g><path d="M206.19611,211.34755c2.06993,0.59966 2.52809,3.18625 3.36757,4.81363c1.37217,2.66001 6.56028,4.75098 9.25904,5.04705c6.08148,0.66716 12.23694,0.86796 18.33128,1.48675c1.9504,0.19803 5.7724,1.74915 3.71057,4.20535c-2.22892,2.65526 -6.78422,2.27899 -9.89378,2.5597c-2.77038,0.2501 -5.4837,1.32085 -8.26255,1.65832c-7.19889,0.87425 -11.16771,-3.37729 -14.98812,-8.87756c-0.98666,-1.42051 -2.36634,-2.29357 -3.4449,-3.57419c-0.70521,-0.83731 -0.14598,-2.28179 -0.4814,-3.07601c-0.00055,-0.0013 -0.00111,-0.00261 -0.00167,-0.00391c-0.19679,-0.18664 -0.36319,-0.40492 -0.49109,-0.6466c-0.15221,-0.19178 -0.26548,-0.38325 -0.21506,-0.56201c-0.04996,-0.20071 -0.07564,-0.41094 -0.07376,-0.62736c0.01197,-1.38066 1.14092,-2.4902 2.52158,-2.47824c0.0025,0.00002 0.00501,0.00004 0.00751,0.00008c0.19233,-0.01873 0.40754,0.00336 0.65477,0.07499z" fill="#ffffff" stroke-width="0.5"/><path d="M209.03172,208.3525c2.17092,4.44969 4.56801,7.47586 7.19126,9.0785c3.24816,2.14263 8.7194,3.40171 16.41376,3.77725c2.63509,0.23666 5.32456,0.36689 8.06841,0.39067c1.47288,0.01277 3.10659,-0.02652 4.90112,-0.11788c0.8452,-0.20649 2.11433,-0.67066 3.80741,-1.39248c2.22666,-0.61028 4.07963,-1.27727 5.5589,-2.00094c0.00185,-0.2138 0.05669,-0.37369 0.16452,-0.47967l2.86712,-1.86391c0.31161,-0.31803 0.84022,-1.00243 1.58583,-2.0532l1.14441,-2.52031c0.85159,-0.94293 1.37876,-1.46104 1.5815,-1.55432c0.4341,-0.74462 1.23637,-1.4801 2.40681,-2.20645c0.94291,-0.51451 1.78897,-0.82196 2.53822,-0.92238c1.47474,-0.20103 2.57621,0.17676 3.30442,1.1334c0.72913,0.84973 0.66971,1.5382 -0.17827,2.0654c-0.00268,0.30883 -0.11185,0.56922 -0.3275,0.78118c-2.34733,3.56712 -4.42371,6.02589 -6.22915,7.37632c-2.65795,2.40028 -7.00125,4.63152 -13.0299,6.69373l-3.16044,0.75662c-0.95302,0.31247 -3.16969,0.45362 -6.64998,0.42345c-7.28129,-0.06312 -12.9202,-0.48025 -16.91675,-1.25139c-6.4169,-1.11285 -11.25264,-3.05541 -14.50721,-5.82768c-1.46279,-1.17682 -2.60995,-2.45188 -3.44145,-3.82517c-0.9384,-1.37423 -1.92476,-3.38438 -2.95906,-6.0305l-0.14114,-0.16159c0.00185,-0.2138 -0.21102,-0.32256 -0.63864,-0.32627l-0.47288,-0.94848l-0.78118,-0.3275c0.00093,-0.10691 -0.10552,-0.16128 -0.31932,-0.16313l-0.94153,-0.32889l-1.09787,-0.79354l-0.3153,-0.62638l0.18645,-3.00972l0.32627,-0.63864l0.46865,-0.61958l0.48106,0.00417c0.95663,-0.72821 2.06356,-0.97995 3.32079,-0.75523c0.53452,0.00463 1.0083,0.16317 1.42136,0.4756c0.8415,0.22111 1.47059,0.96306 1.88729,2.22585l1.23892,3.02207l1.09787,0.79354l0.15201,0.96351z" fill="#000000" stroke-width="1"/><path d="M256.64172,221.11666c0.0194,0.10671 0.02612,0.21395 0.02081,0.32163c0.0034,0.05708 0.00488,0.11468 0.00437,0.17271c-0.01074,1.23855 -0.92034,2.25893 -2.10419,2.44721c-3.59686,2.50237 -10.75366,4.75649 -12.90574,5.36614c-7.43203,2.10538 -14.61563,6.18201 -22.7095,5.78169c-11.05478,-0.54675 -20.9725,-19.49378 -18.83228,-29.36218c0.62881,-2.8994 3.76746,-2.35004 4.98239,-0.07822c0.94619,1.7693 0.33926,6.02794 0.58072,8.1402c0.36907,3.2285 5.77875,13.14276 9.00396,14.5007c1.27347,0.53618 3.31974,1.66082 4.6163,1.80236c5.69433,0.62163 19.958,-4.43576 25.67802,-7.11468c2.33334,-1.09281 5.0996,-2.93339 7.56479,-3.40424c0.44254,-0.37909 1.01884,-0.606 1.64729,-0.60055c1.10326,0.00956 2.03341,0.73235 2.35653,1.72688c0.04411,0.09313 0.07697,0.19284 0.09652,0.30035z" fill="#000000" stroke-width="0.5"/></g></g></svg>