<svg version="1.1" xmlns="http://www.w3.org/2000/svg" xmlns:xlink="http://www.w3.org/1999/xlink" width="119.26053" height="201.76509" viewBox="0,0,119.26053,201.76509"><g transform="translate(-196.63629,-115.10415)"><g stroke="none" stroke-miterlimit="10"><g stroke-width="1"><path d="M301.20412,222.40367c0.44807,0.66555 0.65271,1.8899 0.6139,3.67308l-0.42734,13.03472c-0.06423,4.91 -0.22881,8.64587 -0.49374,11.2076c-0.15606,3.34031 -0.74268,8.47006 -1.75985,15.38925l-4.15904,23.73374c-1.37939,4.90999 -2.60971,8.4261 -3.69093,10.54833c-0.64234,1.3311 -1.22956,2.32942 -1.76166,2.99497l-2.9183,3.0138c-3.40417,2.90079 -6.02179,4.96651 -7.85287,6.19715c-3.06454,2.10967 -5.95971,3.44704 -8.68552,4.01213l-5.69247,0.48975c-17.26706,0.56509 -31.29473,-0.26999 -42.083,-2.50522c-5.02612,-1.0046 -8.77702,-2.45499 -11.25266,-4.35118c-1.59937,-1.10507 -2.75736,-2.21641 -3.47397,-3.33403c-1.25832,-1.23064 -2.39738,-2.85056 -3.41718,-4.85976c-1.35199,-2.78777 -1.93748,-7.07617 -1.75643,-12.86519c0.06701,-5.68856 0.38759,-10.48555 0.96172,-14.39094c0.73937,-5.78902 2.99652,-15.15066 6.77145,-28.08492c1.29211,-4.23189 2.35881,-7.35244 3.2001,-9.36164c3.5012,-7.35871 5.86766,-12.99077 7.09936,-16.89616c0.43562,-1.44412 0.86985,-2.49895 1.3027,-3.1645c0.72683,-1.23064 1.59484,-1.90246 2.60403,-2.01548c0.46855,-0.059 0.97982,0.0052 1.53386,0.1926c12.16363,7.69359 25.41472,13.22408 41.375,13.43071c7.02218,0.09091 15.32727,0.39872 22.54375,-2.25874c3.45253,-1.2714 7.31357,-2.67735 10.98196,-4.4879c0.16584,0.19431 0.31157,0.41359 0.43715,0.65786z" fill="#cccccc"/><path d="M306.5769,218.39153c-0.85103,5.78902 -2.01072,19.33232 -3.47907,40.6299c-0.20169,3.56634 -0.48392,6.96315 -0.8467,10.19044c0.0286,0.56509 -0.01434,1.23692 -0.12879,2.01549l-0.1966,1.33738c-1.07213,10.24694 -2.41375,18.99327 -4.02484,26.23896l-0.38903,1.50691c-0.45408,1.56969 -0.89135,2.68731 -1.31178,3.35286c-1.10982,1.55714 -2.54565,2.3357 -4.30748,2.3357c-1.72859,-0.22604 -2.81343,-1.11761 -3.25451,-2.67475c-0.19151,-0.89159 -0.09346,-1.89619 0.29417,-3.01381l1.5389,-7.17663c0.69403,-1.68271 1.21205,-2.96985 1.55404,-3.86144c1.04659,-2.56173 1.83201,-5.62577 2.35629,-9.19212c0.09784,-0.66555 0.50907,-3.8426 1.23366,-9.53117c0.34616,-3.11427 0.60557,-6.39807 0.77824,-9.85138l2.88991,-37.63493c-5.12079,3.35286 -10.71134,5.80786 -16.77165,7.36499c-7.19777,1.78317 -16.03089,1.94642 -26.49935,0.48974c-10.43709,-1.67015 -18.46029,-4.06236 -24.0696,-7.17663c-3.14984,-1.78317 -5.88184,-3.79237 -8.19598,-6.02761c-6.6798,14.71743 -11.96168,30.43319 -15.84562,47.14726c0.25192,0.56509 0.23852,1.79573 -0.04024,3.69191c-1.12142,5.34951 -2.06982,11.42107 -2.84521,18.2147c-0.03603,1.0046 -0.10456,2.56802 -0.20562,4.69024c0.34281,2.90079 0.33491,4.85349 -0.0237,5.85809c-0.51405,1.21808 -1.19726,2.10966 -2.04958,2.67475c-0.43283,0.66555 -1.10632,1.11134 -2.02046,1.33738c-1.28473,0.55253 -2.37306,0.10674 -3.26501,-1.33738c-0.07843,-0.22604 -0.14857,-0.50858 -0.21039,-0.84763c-0.25376,-0.55253 -0.4289,-1.21808 -0.52536,-1.99665c0.04984,-0.33905 0.03555,-0.6216 -0.04289,-0.84763c-0.18036,-4.00585 0.31029,-9.24234 1.47193,-15.70947c1.53682,-9.69441 3.95828,-20.17368 7.26435,-31.43778c3.26864,-10.92506 7.34093,-22.12637 12.21688,-33.60396c0.37733,-1.00093 0.78093,-1.84178 1.21079,-2.52254c0.00657,0.00204 0.01312,0.00407 0.01968,0.00611c1.44461,0.44836 2.98773,0.52953 4.57072,0.4507c12.8332,8.50606 26.78084,14.79041 43.81421,15.01093c7.02218,0.09091 15.32727,0.39872 22.54375,-2.25874c5.3666,-1.97625 11.72022,-4.27761 16.80309,-7.91827c-0.00373,0.02534 -0.00745,0.05071 -0.01119,0.0761z" fill="#000000"/></g><path d="" fill="#000000" stroke-width="1"/><path d="" fill="#000000" stroke-width="1"/><path d="" fill="#000000" stroke-width="1"/><path d="" fill="#000000" stroke-width="1"/><path d="" fill="#000000" stroke-width="1"/><g stroke-width="1"><path d="" fill="#000000"/><path d="" fill="#000000"/><path d="" fill="#000000"/><path d="" fill="#000000"/><path d="" fill="#e16f6f"/><path d="" fill="#c2e16f"/><path d="" fill="#6f7ce1"/></g><path d="M307.88691,187.71716c1.63483,5.21809 2.67892,12.06462 3.13224,20.53959c0.02676,3.71918 -0.00899,5.9437 -0.10723,6.67359c-0.09212,1.48581 -0.51296,3.45474 -1.26252,5.90681c-1.8561,6.6659 -4.27721,11.60772 -7.26328,14.82547c-2.86586,3.12605 -7.86207,6.22903 -14.98863,9.30895l-4.89718,2.05559c-5.67041,1.78969 -13.02124,1.86098 -22.0525,0.21385c-1.25965,-0.16955 -3.12977,-0.52316 -5.61034,-1.06081c-2.98272,-0.7251 -7.31474,-2.11126 -12.99608,-4.15845c-1.63048,-0.53109 -3.10712,-1.04747 -4.42994,-1.54915c1.4145,0.62188 2.87689,1.24422 4.38716,1.86701l5.89833,2.39403c3.53445,1.4346 5.97145,2.296 7.31101,2.58419c1.23271,0.36969 3.20289,0.73675 5.91054,1.10121l15.83976,2.13209c1.93905,-0.15849 4.10165,-0.82027 6.48781,-1.9853c2.83848,-1.3199 4.68991,-2.02954 5.55427,-2.12894c2.42539,-0.26806 4.08238,0.3368 4.97097,1.81458c-0.17272,0.10649 -0.33982,0.20923 -0.5009,0.30741c-1.43101,0.87226 -2.99545,0.78869 -4.25415,1.73301c-0.20474,0.1536 -0.51823,0.54405 -0.87788,1.05235c-2.17019,0.42467 -4.25067,0.64992 -5.67816,0.56843c-3.11708,-0.17795 -6.35742,1.99665 -9.46088,1.74683c-5.1893,-0.41772 -10.5871,-0.57474 -15.96204,-0.99384c-5.88352,-2.83204 -12.84404,-3.31677 -18.72752,-6.18327c-1.8041,-0.87897 -4.88529,-1.08074 -6.39329,-2.463c-4.18123,-3.83261 -8.56125,-7.25242 -12.77953,-10.96562c-0.07836,-0.17053 -0.16259,-0.33804 -0.25247,-0.50224c0.58312,-0.68784 1.2564,-1.02345 2.01984,-1.00683c0.8501,0.00656 1.85506,0.46543 3.01488,1.37665c-2.57184,-2.26389 -4.63078,-4.77636 -6.17685,-7.53742c-1.26941,-2.41219 -2.41284,-5.76029 -3.43029,-10.04429l-0.72609,-4.08896c-0.03623,-0.53225 0.15008,-2.31701 0.55891,-5.35429l1.09748,-5.74923c1.25664,-6.21923 2.41356,-10.85178 3.47077,-13.89767c1.72527,-4.98155 4.02797,-9.08833 6.90809,-12.32033c0.98955,-1.02941 3.24224,-3.11735 6.75807,-6.26377c1.09708,-1.02692 4.07988,-3.81962 8.94838,-8.37807c1.24424,-1.31875 2.20685,-2.14804 2.88782,-2.48785c0.34479,-0.15735 1.66828,-0.50657 3.97045,-1.04768c5.83705,-0.71252 10.19601,-1.08464 13.07683,-1.11638c7.13135,0.00106 13.89629,1.12139 20.29483,3.36101c2.22431,0.83877 4.16903,1.7957 5.83416,2.87081l2.91268,2.13597c8.74742,7.67368 14.60823,15.91168 17.58244,24.71399z" fill="#cccccc" stroke-width="1"/><path d="M285.34841,154.6772c6.57537,3.33015 12.30812,8.20092 17.19825,14.61228c4.5116,5.92892 7.96133,12.66778 10.34917,20.21658c2.42655,7.35024 3.38155,14.5024 2.865,21.45649c-0.64102,11.08437 -4.64409,20.65549 -12.00921,28.71331c-1.48715,1.60966 -3.0189,3.10546 -4.59525,4.48736c-0.0489,0.36332 -0.09843,0.73122 -0.14856,1.10371c-2.20655,1.06373 -4.23483,2.37605 -5.73741,3.29194c-0.37657,0.22953 -0.76236,0.39288 -1.14941,0.52618l0.00835,-0.13254c-0.20764,0.11007 -0.41612,0.21844 -0.62545,0.3251c-0.87588,0.25313 -1.73622,0.45055 -2.48762,1.01426c-0.07879,0.05911 -0.17367,0.15329 -0.2811,0.27576c-1.01937,0.43205 -2.05758,0.82628 -3.11461,1.18272c-1.20786,0.14942 -2.30211,0.2113 -3.16033,0.16231c-3.11708,-0.17795 -6.35742,1.99665 -9.46088,1.74683c-4.4985,-0.36211 -9.15371,-0.52831 -13.81486,-0.83918c-1.11226,-0.21379 -2.2482,-0.45403 -3.40778,-0.72071c-3.82128,-1.60111 -8.01469,-2.39215 -12.03061,-3.57976c-5.80353,-2.08701 -10.59515,-4.34358 -14.37484,-6.7697c-3.39212,-2.95155 -6.86479,-5.73038 -10.23427,-8.69641c-0.10607,-0.23083 -0.22289,-0.45613 -0.34993,-0.67518c-0.16835,-1.50788 -1.31421,-3.0665 -2.74809,-4.33714c-1.21017,-2.09397 -2.16588,-4.30554 -2.86714,-6.63472c-1.50036,-5.41573 -1.44057,-13.38416 0.17937,-23.9053c1.25299,-7.70595 2.74474,-13.62384 4.47523,-17.7537c3.24502,-7.54569 8.58531,-14.00629 16.02086,-19.38181c6.47703,-4.66556 14.16559,-8.04737 23.06571,-10.14546c5.05668,-1.23706 9.24956,-1.5776 12.57867,-1.02163c1.67169,0.22501 3.5204,0.73755 5.54617,1.5376zM293.52824,168.70482c-6.25982,-6.47587 -13.54039,-10.48824 -21.84174,-12.03713c-4.97384,-0.98113 -9.8218,-0.93851 -14.54387,0.12785c-5.34601,0.98238 -10.93436,3.36442 -16.76504,7.14614c-4.53754,2.90104 -8.13918,5.92805 -10.8049,9.08104c-4.91785,5.72642 -8.41233,14.72473 -10.48345,26.99498c-1.35124,8.43583 -1.15726,15.2758 0.58194,20.51993c2.24973,6.25971 6.54591,11.51841 12.88855,15.77609c4.58582,3.06235 10.82137,5.71152 18.70663,7.9475c9.6192,2.88888 17.61979,3.91186 24.00177,3.06893c6.69735,-0.6926 12.88472,-3.16182 18.56213,-7.40764c5.67583,-4.23404 9.83832,-9.46884 12.48749,-15.70438c4.24678,-10.17953 4.28648,-21.56059 0.11915,-34.14318z" fill="#000000" stroke-width="1"/><path d="M236.97781,210.56985c1.5986,4.68585 3.59926,7.98752 6.00199,9.90503c2.95535,2.53126 8.22667,4.46333 15.81399,5.79624c2.58495,0.56368 5.23714,1.02855 7.95657,1.3946c1.45978,0.19649 3.08561,0.3614 4.87751,0.49472c0.86436,-0.09939 2.1815,-0.40154 3.95144,-0.9064c2.28542,-0.32761 4.20714,-0.75812 5.76517,-1.29151c0.02852,-0.2119 0.10289,-0.36369 0.2231,-0.45538l3.07733,-1.49151c0.34887,-0.27665 0.95876,-0.88973 1.82968,-1.83923l1.45001,-2.35777c0.96261,-0.82928 1.55033,-1.27754 1.76313,-1.34478c0.52364,-0.68461 1.41143,-1.31422 2.66337,-1.88882c0.99974,-0.3928 1.87757,-0.59227 2.63349,-0.59838c1.4883,-0.01541 2.53401,0.4969 3.13713,1.53695c0.61738,0.93409 0.4725,1.60976 -0.43465,2.02701c-0.04119,0.30608 -0.18201,0.55082 -0.42244,0.7342c-2.77417,3.24626 -5.14118,5.42667 -7.10105,6.54122c-2.93673,2.04979 -7.52454,3.72151 -13.76343,5.01519l-3.23016,0.35627c-0.98457,0.19109 -3.20152,0.05449 -6.65084,-0.40981c-7.21648,-0.97137 -12.75924,-2.08901 -16.6283,-3.3529c-6.22784,-1.90502 -10.78333,-4.43591 -13.66646,-7.59269c-1.30448,-1.35019 -2.28353,-2.75845 -2.93715,-4.22477c-0.75955,-1.4806 -1.48732,-3.59814 -2.18328,-6.35265l-0.11988,-0.17794c0.02852,-0.2119 -0.16911,-0.34637 -0.59292,-0.40342l-0.3508,-1.00009l-0.7342,-0.42244c0.01427,-0.10595 -0.08457,-0.17319 -0.29647,-0.20171l-0.89312,-0.44383l-0.99026,-0.92436l-0.23466,-0.66083l0.56062,-2.96292l0.40342,-0.59292l0.54231,-0.55625l0.47678,0.06417c1.04004,-0.60312 2.16973,-0.71474 3.38908,-0.33488c0.52976,0.07131 0.98006,0.28774 1.35089,0.64928c0.80731,0.32441 1.3389,1.13907 1.59473,2.44399l0.85206,3.15307l0.99026,0.92436l0.03057,0.97495z" fill="#000000" stroke-width="1"/><path d="M282.20219,188.73655l1.67857,-0.58309l0.95731,-0.03295l0.4958,-0.07709c0.75841,-0.11365 1.36888,0.07039 1.8314,0.55214l0.59292,0.40342c0.27507,0.36064 0.40547,0.59394 0.39121,0.69988l0.41871,0.36199l0.09475,0.49817l-0.00984,1.27516l0.11614,0.33924l-0.08319,0.61804l0.01155,1.11623c0.15735,0.34479 0.11457,0.66265 -0.12836,0.95356l-0.22073,0.43773l-0.36064,0.27507l-0.20171,0.29647l-0.70123,0.53485l-0.69988,0.39121l-0.66083,0.23466l-3.14323,-0.4231l-0.59666,-0.24212l-0.27507,-0.36064c-0.10595,-0.01427 -0.29647,-0.20171 -0.57153,-0.56235l-0.53485,-0.70123l-0.17048,-1.13762l-0.15893,-0.02139l0.4017,-2.9843l0.2231,-0.45538z" fill="#000000" stroke-width="1"/><path d="M247.51999,180.86801l1.25376,0.16876l0.59666,0.24212l0.59292,0.40342c0.35658,0.4675 0.58784,0.70837 0.69379,0.72263l0.23228,0.67849l0.15893,0.02139c-0.12022,0.09169 -0.08784,0.25187 0.09712,0.48051l-0.04279,0.31785l0.07336,0.6571l-0.24212,0.59666l-0.06417,0.47678l-0.22073,0.43773l-0.15893,-0.02139l-0.26589,0.77324l-0.15893,-0.02139l-0.40104,0.57526l-0.42855,0.91316l-0.33687,0.09848l-0.72128,0.55014l-2.13532,0.50364l-1.25376,-0.16876c-0.62394,-0.08398 -1.08137,-0.24744 -1.37228,-0.49035l-0.57526,-0.40104c-0.27507,-0.36064 -0.46559,-0.54809 -0.57153,-0.56235l-0.11614,-0.33924l0.0404,-0.30019l-0.2574,-0.35826l0.12598,-0.93591l-0.11614,-0.33924c0.14874,-0.30359 0.23658,-0.55546 0.26352,-0.75559l0.08557,-0.63571l0.58509,-0.87411c0.42381,0.05705 0.66423,-0.12633 0.72128,-0.55014l0.15893,0.02139c0.34728,-0.26488 0.53518,-0.50328 0.56371,-0.71518l0.51957,-0.25368l2.17811,-0.82149z" fill="#000000" stroke-width="1"/><g stroke-width="1"><path d="M233.58218,171.81849l-0.33924,0.11614c-0.09169,-0.12022 -0.12327,-0.28627 -0.09475,-0.49817c0.07743,0.22617 0.2221,0.35351 0.434,0.38203M277.62415,153.96111c-0.18993,0.60967 -0.59302,1.24459 -1.20926,1.90476l0.13754,0.18031c-0.22617,0.07743 -0.46659,0.2608 -0.72128,0.55014c-1.37465,0.77382 -2.53613,1.5224 -3.48449,2.24574c-0.6794,0.32805 -1.3125,0.66832 -1.8993,1.02083c-0.10595,-0.01427 -0.20602,-0.02773 -0.30019,-0.0404l-1.17429,0.30937l-1.86262,0.88192l-0.35826,0.2574l-0.49817,0.09475l-4.07741,1.84231l-2.91468,0.41671c-0.23884,0.17162 -0.37966,0.41633 -0.42244,0.7342c-0.33212,0.06317 -0.66547,0.1801 -1.00009,0.3508l-0.434,-0.38203l-1.75194,-0.07401l-1.13762,0.17048l-0.17794,0.11988l-0.31785,-0.04279l-6.69189,2.29943l-0.04279,0.31785c-0.01427,0.10595 -0.03486,0.25899 -0.0618,0.45912c-0.41204,-0.05546 -0.84422,-0.00576 -1.29655,0.14909l-0.16266,0.13991l-0.31785,-0.04279c-0.75841,0.11365 -1.41676,0.24078 -1.97504,0.38137l-1.47449,0.26897c-0.63819,0.02197 -1.20916,-0.05489 -1.71288,-0.23056l-2.25011,0.02074c0.24042,-0.18338 0.5267,-0.30665 0.85881,-0.36982c-0.8501,-0.00656 -1.57999,-0.1048 -2.18966,-0.29474c-0.71472,-0.29996 -1.33414,-0.86277 -1.85825,-1.68841c-0.44826,-0.58772 -0.84231,-1.22205 -1.18212,-1.90304c-0.68055,-1.2662 -1.07562,-2.64979 -1.18521,-4.15077c-0.09939,-0.86436 -0.12886,-3.04973 -0.08836,-6.55608c0.01427,-0.10595 0.02852,-0.2119 0.04279,-0.31785c0.01427,-0.10595 -0.03158,-0.16606 -0.13754,-0.18031c-0.03331,-2.86906 -0.075,-5.31975 -0.12506,-7.35207l0.41246,-12.54743l1.86701,-4.38716l1.20551,-1.74346l1.78036,-8.55186c0.35905,-0.2633 0.61295,-0.54674 0.76168,-0.85034c0.12022,-0.09169 0.24088,-0.23126 0.36199,-0.41871c0.12022,-0.09169 0.30054,-0.22923 0.54095,-0.41261c0.14874,-0.30359 0.44973,-0.5807 0.90296,-0.83133l0.33924,-0.11614l0.15893,0.02139c0.36064,-0.27507 0.70112,-0.44498 1.02148,-0.50973l4.04791,1.98315c-0.01427,0.10595 0.03158,0.16606 0.13754,0.18031l-0.02139,0.15893c-0.01427,0.10595 0.03158,0.16606 0.13754,0.18031l0.15893,0.02139l2.27696,2.0504c0.18587,0.1329 0.48358,0.28082 0.89312,0.44383l0.11614,0.33924l1.54412,1.48433l6.05898,4.8068c0.7376,0.84239 1.46806,1.73777 2.19139,2.68611c2.31873,2.54145 5.66871,6.50417 10.0499,11.88818c4.34655,4.83998 6.6645,7.38731 6.95383,7.64201c1.31219,2.09434 1.83132,3.75832 1.55741,4.99193M252.07158,129.28897c-2.31873,-2.54145 -4.58064,-4.7037 -6.78571,-6.48672c-0.67036,-0.62959 -1.40285,-1.15369 -2.19749,-1.57227c-0.14964,0.39936 -0.3131,0.85679 -0.49035,1.37228l-0.35826,0.2574c-0.10595,-0.01427 -0.33924,0.11614 -0.69988,0.39121l-0.32159,0.11852c-0.67734,1.82654 -1.37653,3.85989 -2.09757,6.10005c0.10595,0.01427 0.15179,0.07436 0.13754,0.18031c-0.55713,1.73485 -1.01544,3.53693 -1.37493,5.40626c-0.13944,1.03597 -0.24368,3.41309 -0.31268,7.13135l0.22964,6.5751l0.21808,5.45888c0.07858,1.82041 0.23991,3.38229 0.48397,4.68563c0.1071,1.60851 0.31042,2.85842 0.60995,3.74972l0.41261,0.54095c0.2119,0.02852 0.53814,-0.03544 0.97869,-0.19188c3.07892,-1.50328 6.87979,-2.84945 11.40263,-4.03851l2.95747,-0.73456l8.91823,-2.14358c3.27249,-0.62624 5.72973,-1.51803 7.37174,-2.67536c0.34637,-0.16911 0.59394,-0.40547 0.74267,-0.70906c0.04119,-0.30608 -0.07574,-0.63944 -0.3508,-1.00009c-1.95038,-2.07236 -3.67031,-3.89797 -5.15976,-5.47682c-2.67123,-3.12825 -4.73731,-5.58776 -6.19825,-7.37849c-0.7376,-0.84239 -1.31627,-1.66339 -1.73599,-2.46301c-1.65857,-1.92522 -3.14009,-3.56292 -4.44458,-4.9131c-0.61738,-0.93409 -1.26249,-1.66215 -1.93534,-2.18421M251.84986,161.65643c0.45075,-0.14309 0.8493,-0.29919 1.19568,-0.4683c-0.33212,0.06317 -0.67136,0.17931 -1.01774,0.34842c-2.04749,0.25177 -3.4639,0.53455 -4.24925,0.84833c-0.57255,0.24655 -0.9719,0.40854 -1.19806,0.48596c1.75567,-0.39892 3.51212,-0.80374 5.26937,-1.21442z" fill="#000000"/><path d="M242.59802,122.60225c0.17726,-0.5155 0.34072,-0.97292 0.49035,-1.37228c0.79464,0.41858 1.52713,0.94268 2.19749,1.57227l-6.02761,6.84751c0.01427,-0.10595 -0.03158,-0.16606 -0.13754,-0.18031c0.72103,-2.24015 1.42022,-4.27351 2.09757,-6.10005l0.32159,-0.11852c0.36064,-0.27507 0.59394,-0.40547 0.69988,-0.39121l0.35826,-0.2574M258.4515,136.38629l-19.94918,22.52068c-0.24406,-1.30334 -0.4054,-2.86521 -0.48397,-4.68563l-0.21808,-5.45888l16.20663,-17.28928c1.30448,1.35019 2.78601,2.98789 4.44458,4.9131M271.15364,153.41377c-1.64201,1.15734 -4.09925,2.04912 -7.37174,2.67536l-8.91823,2.14358l11.52209,-12.0049c1.48945,1.57885 3.20936,3.40444 5.15976,5.47682c0.27507,0.36064 0.392,0.694 0.3508,1.00009c-0.14874,0.30359 -0.39629,0.53995 -0.74267,0.70906z" fill="#e16f6f"/><path d="M266.38575,146.22778l-11.52209,12.0049l-2.95747,0.73456c-4.52284,1.18906 -8.32373,2.53523 -11.40263,4.03851c-0.44056,0.15644 -0.76678,0.2204 -0.97869,0.19188l-0.41261,-0.54095c-0.29952,-0.8913 -0.50284,-2.1412 -0.60995,-3.74972l19.94918,-22.52068c0.41974,0.79962 0.99842,1.62061 1.73599,2.46301c1.46093,1.79075 3.527,4.25024 6.19825,7.37849z" fill="#c2e16f"/><path d="M237.80029,148.76246l-0.22964,-6.5751c0.069,-3.71825 0.17324,-6.09538 0.31268,-7.13135c0.35949,-1.86932 0.8178,-3.67141 1.37493,-5.40626l6.02761,-6.84751c2.20508,1.78304 4.46698,3.94529 6.78571,6.48672c0.67284,0.52205 1.31795,1.25012 1.93534,2.18421z" fill="#6f7ce1"/></g><path d="M295.0747,221.86377c-0.5249,2.01408 -2.67436,3.97883 -3.88283,5.50943c-3.78102,4.78889 -4.52669,11.93814 -10.2488,14.93182c-8.19952,4.28979 -28.0309,0.69463 -36.59161,-3.2198c-7.71576,-3.52808 -11.78422,-8.74856 -13.78075,-17.01301c-0.44269,-1.83251 0.04839,-3.88651 -0.43582,-5.70581c-0.49559,-1.86205 -2.14947,-13.1031 1.96024,-12.35939c3.56569,0.64526 2.53811,5.64333 3.6888,8.23817c2.75067,6.20279 6.46736,13.1602 13.69846,14.74047c8.38758,1.83301 18.62289,3.7535 27.00778,2.00788c1.97028,-0.41018 3.68688,-0.55806 5.56534,-1.20503c0.48323,-0.16643 2.30442,0.84271 2.44599,0.63027c1.419,-2.12928 4.2059,-4.78532 5.1555,-7.0935c0.28351,-0.68912 1.38791,-2.72043 2.30419,-2.48853c0.19929,-0.05537 0.40875,-0.08672 0.62514,-0.0907c1.38048,-0.02536 2.52014,1.07318 2.5455,2.45366c0.00005,0.0025 0.00009,0.00501 0.00013,0.00751c0.02393,0.19175 0.00766,0.40748 -0.05726,0.65656z" fill="#000000" stroke-width="0.5"/></g></g></svg>