<svg version="1.1" xmlns="http://www.w3.org/2000/svg" xmlns:xlink="http://www.w3.org/1999/xlink" width="400.37749" height="188.37556" viewBox="0,0,400.37749,188.37556"><g transform="translate(-49.04829,-104.83753)"><g data-paper-data="{&quot;isPaintingLayer&quot;:true}" fill-rule="nonzero" stroke-linejoin="miter" stroke-miterlimit="10" stroke-dasharray="" stroke-dashoffset="0" style="mix-blend-mode: normal"><g fill="#ffffff" stroke="#ffffff" stroke-width="0.5" stroke-linecap="butt"><path d="M77.7929,169.12456l-3.18608,2.45733c0,0 0.84118,5.88974 -10.2186,6.0408c-3.20498,0.04377 -4.91203,-5.85113 -5.42292,-13.02831c-0.09132,-1.283 -0.22496,-4.06362 -0.22496,-4.06362l3.48839,-0.42574l0.43369,-8.53894z"/><path d="M114.64251,151.56607l0.43369,8.53894l3.48839,0.42574c0,0 -0.13363,2.78062 -0.22496,4.06362c-0.51089,7.17718 -2.21794,13.07208 -5.42292,13.02831c-11.05978,-0.15107 -10.2186,-6.0408 -10.2186,-6.0408l-3.18608,-2.45733z" data-paper-data="{&quot;index&quot;:null}"/><path d="M62.54773,136.44948l-2.21207,0.93152c0,0 0.58402,2.23268 -7.09468,2.28994c-2.2252,0.01659 -3.41038,-2.21805 -3.76508,-4.93876c-0.0634,-0.48636 -0.15618,-1.54044 -0.15618,-1.54044l2.42197,-0.1614l0.30111,-3.23694z"/><path d="M125.80485,129.79342l0.30111,3.23694l2.42197,0.1614c0,0 -0.09278,1.05408 -0.15618,1.54044c-0.35469,2.72072 -1.53989,4.95535 -3.76508,4.93876c-7.67871,-0.05726 -7.09468,-2.28994 -7.09468,-2.28994l-2.21207,-0.93152z" data-paper-data="{&quot;index&quot;:null}"/></g><g fill="#ffffff" stroke="#ffffff" stroke-width="0.5" stroke-linecap="butt"><path d="M227.4687,136.50172l-10.7566,0.93612c0,0 4.16334,6.19587 5.93442,13.34991c0.77274,3.12134 1.37027,-6.11114 12.1353,11.11458c0.39615,0.6339 3.15161,-1.04586 4.49251,0.26595c1.3409,1.31181 1.54567,4.37545 0.71195,4.82561c-2.69279,1.45396 -12.92401,-2.56248 -16.0245,4.63589c-0.60675,1.40868 0.10618,3.24818 -0.67586,4.49258c-0.69753,1.10991 -3.1579,1.50735 -4.7047,1.59858c-5.07717,0.29942 -3.59338,-4.88316 -8.60509,-5.01748c-6.92786,-0.18567 -7.49211,6.64277 -11.54233,-2.169c-1.12139,-2.43974 1.06551,-8.70382 1.06551,-8.70382c0,0 -1.34517,-6.0978 -1.43347,-7.88708c-0.22361,-4.53116 5.28339,-6.96443 5.28339,-6.96443l0.0084,-7.76309c0,0 -7.62797,2.76131 -8.38283,0.49271c-0.51116,-1.53618 -1.86356,-7.86704 -0.19864,-8.60605c4.0039,-1.77723 0.45611,-3.10379 4.40386,-7.70111c2.12448,-2.47405 5.90889,-0.28631 9.05448,2.43059c2.00925,1.73542 3.49308,4.21626 4.97999,4.11039c2.74602,-0.19552 3.76942,3.21359 6.10552,4.03536c3.51706,1.23719 8.14869,2.52382 8.14869,2.52382z"/><path d="M260.07948,133.9779c2.3361,-0.82177 3.35951,-4.23088 6.10553,-4.03536c1.48692,0.10587 2.97076,-2.37496 4.98,-4.11039c3.14558,-2.7169 6.92999,-4.90463 9.05447,-2.43059c3.94775,4.59732 0.39996,5.92389 4.40386,7.70111c1.66492,0.73901 0.31251,7.06986 -0.19864,8.60605c-0.75485,2.2686 -8.38283,-0.49271 -8.38283,-0.49271l0.0084,7.76309c0,0 5.507,2.43327 5.28339,6.96443c-0.0883,1.78928 -1.43347,7.88708 -1.43347,7.88708c0,0 2.18691,6.26408 1.06551,8.70382c-4.05023,8.81177 -4.61446,1.98334 -11.54233,2.169c-5.01171,0.13432 -3.52793,5.3169 -8.6051,5.01748c-1.5468,-0.09122 -4.00718,-0.48866 -4.7047,-1.59858c-0.78204,-1.24439 -0.06911,-3.08391 -0.67586,-4.49258c-3.10049,-7.19837 -13.33171,-3.18193 -16.0245,-4.63589c-0.83372,-0.45016 -0.62896,-3.5138 0.71195,-4.82561c1.3409,-1.31181 4.09636,0.36795 4.49251,-0.26595c10.76502,-17.22571 11.36256,-7.99324 12.1353,-11.11458c1.77108,-7.15403 5.93442,-13.34991 5.93442,-13.34991l-10.7566,-0.93612c0,0 4.63163,-1.28662 8.14869,-2.52382z" data-paper-data="{&quot;index&quot;:null}"/></g><g fill="#ffffff" stroke="#ffffff" stroke-width="0.5" stroke-linecap="butt"><path d="M354.76537,133.04314c-0.04984,1.47405 5.03455,-0.30858 5.03455,-0.30858c0,0 -0.20563,-6.74453 3.54632,-6.60682c1.85586,0.06813 1.94585,1.25375 5.83867,5.32356c3.08333,3.22349 10.35128,3.41803 10.35128,3.41803l-20.52221,2.16602c0,0 -0.87101,0.768 -0.80524,1.23551c0.08635,0.61373 1.27857,2.12908 1.27857,2.12908c0,0 -4.0919,0.43417 -5.5539,0.06207c-1.23655,-0.31473 -2.14343,-1.89552 -2.14343,-1.89552l1.71981,-4.04518c0,0 -3.21367,-6.61994 -5.17417,1.32715c-1.12888,4.57601 -0.07206,11.24147 -0.07206,11.24147c0,0 -2.16033,1.07078 -2.45997,4.32209c0.11592,15.95008 6.63496,11.43278 7.80676,6.96216c1.18446,-4.51894 3.64653,-7.60429 5.90489,-7.75121c5.66857,-0.36876 6.61066,10.18933 6.61066,10.18933c0,0 2.47861,1.87133 4.12321,-1.55765c2.19565,-4.57794 1.85814,-14.28503 5.90237,-14.84196c6.21729,-0.32096 4.21654,6.39386 6.50662,10.78284c2.02049,3.8723 5.18725,5.73627 5.18725,5.73627l2.44491,-0.61301c0,0 0.98571,7.38608 0.46286,8.5819c-0.77877,1.78112 -5.695,0.06425 -5.695,0.06425c0,0 -1.04656,1.82052 -4.09738,2.47322c-4.50611,0.96405 -7.29327,-2.93261 -7.29327,-2.93261c0,0 -0.91374,1.97521 -2.20804,3.38336c-1.09685,1.19333 -2.61132,1.8351 -2.57147,2.02547c0.38658,1.84652 2.04328,5.81468 2.04328,5.81468c0,0 -6.23844,5.35503 -10.08871,-4.53289c-1.29537,-3.32663 3.41716,-1.94996 3.65872,-11.98894c0.1407,-5.84758 -0.18903,-10.6583 -5.38915,-10.587c-2.25849,0.8722 -3.96709,7.06719 -4.03852,12.0822c-0.0403,2.82841 -1.56063,3.35646 -1.56063,3.35646c0,0 -0.12368,6.23401 -0.23533,6.40785c-6.53656,10.17575 -12.97688,4.13215 -13.34773,3.94237c-1.53207,-1.55629 -2.1629,-3.86754 -3.25765,-5.35218c-5.44743,-7.38743 -2.18244,-13.99359 -2.18244,-13.99359c0,0 5.76639,-0.11624 4.44183,-10.58347c-0.44756,-3.53675 -2.73865,-4.16316 -2.73865,-4.16316c0,0 -6.0103,4.22202 -6.26634,-1.28827c-0.21195,-4.56168 1.01827,-15.43694 1.01827,-15.43694c0,0 -5.19791,-5.28922 -1.77973,-8.3478c1.5476,-1.38478 1.56053,-2.90075 3.70396,-7.4719c0.68532,-1.46155 2.70183,-0.21905 3.50082,-2.26308c1.62801,-4.16481 3.42795,-4.20135 4.8239,-4.40529c5.55974,-0.513 7.13757,11.57049 7.13757,11.57049c0,0 6.94602,1.2277 6.43396,16.36923z"/><path d="M422.4115,133.04314c-0.51207,-15.14154 6.43396,-16.36923 6.43396,-16.36923c0,0 1.57783,-12.0835 7.13757,-11.57049c1.39593,0.20394 3.19589,0.24048 4.8239,4.40529c0.79899,2.04403 2.8155,0.80153 3.50082,2.26308c2.14345,4.57115 2.15637,6.08711 3.70396,7.4719c3.4182,3.05858 -1.77973,8.3478 -1.77973,8.3478c0,0 1.23022,10.87526 1.01827,15.43694c-0.25603,5.5103 -6.26634,1.28827 -6.26634,1.28827c0,0 -2.29109,0.62641 -2.73865,4.16316c-1.32456,10.46723 4.44183,10.58347 4.44183,10.58347c0,0 3.26499,6.60616 -2.18244,13.99359c-1.09477,1.48464 -1.72558,3.79589 -3.25765,5.35218c-0.37085,0.18978 -6.81117,6.23338 -13.34773,-3.94237c-0.11165,-0.17384 -0.23533,-6.40785 -0.23533,-6.40785c0,0 -1.52034,-0.52804 -1.56063,-3.35646c-0.07143,-5.01499 -1.78004,-11.20999 -4.03852,-12.0822c-5.20011,-0.0713 -5.52985,4.73942 -5.38915,10.587c0.24155,10.03898 4.95408,8.66231 3.65872,11.98894c-3.85027,9.88792 -10.08871,4.53289 -10.08871,4.53289c0,0 1.6567,-3.96816 2.04328,-5.81468c0.03985,-0.19036 -1.47462,-0.83214 -2.57147,-2.02547c-1.2943,-1.40814 -2.20804,-3.38336 -2.20804,-3.38336c0,0 -2.78716,3.89667 -7.29327,2.93261c-3.05082,-0.6527 -4.09738,-2.47322 -4.09738,-2.47322c0,0 -4.91624,1.71686 -5.695,-0.06425c-0.52286,-1.19582 0.46286,-8.5819 0.46286,-8.5819l2.44491,0.61301c0,0 3.16677,-1.86398 5.18725,-5.73627c2.29008,-4.38897 0.28933,-11.1038 6.50662,-10.78284c4.04423,0.55692 3.70671,10.26402 5.90237,14.84196c1.6446,3.42899 4.12321,1.55765 4.12321,1.55765c0,0 0.94209,-10.55808 6.61066,-10.18933c2.25836,0.14692 4.72042,3.23228 5.90489,7.75121c1.1718,4.47061 7.69085,8.9879 7.80676,-6.96216c-0.29963,-3.25131 -2.45997,-4.32209 -2.45997,-4.32209c0,0 1.05682,-6.66547 -0.07206,-11.24147c-1.9605,-7.94709 -5.17417,-1.32715 -5.17417,-1.32715l1.71981,4.04518c0,0 -0.90689,1.5808 -2.14343,1.89552c-1.46199,0.3721 -5.5539,-0.06207 -5.5539,-0.06207c0,0 1.19223,-1.51535 1.27857,-2.12908c0.06578,-0.46752 -0.80524,-1.23551 -0.80524,-1.23551l-20.52221,-2.16602c0,0 7.26795,-0.19454 10.35128,-3.41803c3.89283,-4.06981 3.98282,-5.25542 5.83867,-5.32356c3.75194,-0.13772 3.54632,6.60682 3.54632,6.60682c0,0 5.08439,1.78263 5.03455,0.30858z" data-paper-data="{&quot;index&quot;:null}"/></g><g fill="#ffffff" stroke="#ffffff" stroke-width="0.5" stroke-linecap="butt"><g><path d="M118.81545,221.84343c0,8.92821 -0.22308,10.77731 -2.39496,10.37815c-1.48072,-0.27213 -2.36055,-8.42266 -2.36055,-8.42266l-3.10637,1.21965c0,0 -0.95493,-3.13902 -2.25825,-4.65004c-0.96964,-1.12416 -3.92851,-0.27286 -4.24962,-1.71838c-1.19748,-5.39061 2.28596,-4.14355 2.28596,-4.14355c0,0 0.11718,-9.49032 4.69934,-9.62745c2.56003,-0.07662 7.38446,4.84279 7.38446,16.96428z"/><path d="M108.03814,242.49995c0,4.38393 -2.053,4.15046 -2.74101,6.36526c-0.63534,2.04523 0.1578,6.70722 -1.35038,6.70722c-3.14141,0 -5.34932,-6.13661 -3.09348,-15.46744c1.65767,-6.85664 -1.58542,-5.30341 -1.86927,-7.89725c-0.39495,-3.60905 1.13918,-7.37061 2.96696,-7.37061c0.71778,0 0.18889,1.53646 1.19955,2.74071c0.84675,1.00895 3.30955,1.54676 3.32181,3.05011c0.01988,2.43652 -3.72778,2.2096 -2.50277,7.65784c0.44646,1.98563 4.06859,1.93903 4.06859,4.21415z"/><path d="M125.42901,246.13352c0,0.4409 -0.73898,0.68482 -1.51056,0.68482c-0.77158,0 -1.51056,-0.35742 -1.51056,-0.79832c0,-0.4409 0.62548,-0.91182 1.39706,-0.91182c0.77158,0 1.62406,0.58442 1.62406,1.02532z"/><path d="M120.36896,242.4969c0,2.63276 -2.01441,7.30318 -5.05078,7.15054c-4.51571,-0.227 -5.61828,-4.42652 -5.61828,-4.42652c0,0 1.67037,2.65299 4.71027,2.61051c3.99344,-0.05579 1.74381,-4.42034 2.83872,-5.65947c0.80638,-0.91259 3.12007,-1.0136 3.12007,0.32494z"/><path d="M126.1575,227.74183l0.03145,6.7882l-1.69785,0.57101c0,0 -0.33023,-1.43783 -1.54562,-3.58032c-1.08142,-1.90634 -2.48418,0.39753 -2.46302,-3.66539c-0.3405,-7.86749 -0.21698,-7.26404 1.4755,-7.26404c0.87115,0 0.80644,3.02886 1.9099,4.75135c1.10346,1.72249 2.28962,2.39919 2.28962,2.39919z"/><path d="M144.99859,241.5889c0,0 -5.86838,0.06386 -9.29085,0.3254c-2.6291,0.20092 -1.43495,2.17161 -1.43495,2.17161c0,0 -3.97445,0.2652 -3.58847,-2.61731c-0.12217,-1.12337 1.7296,-0.55352 1.60221,-1.58222c-0.56751,-4.58266 1.87668,-6.92353 4.93728,-6.81003c2.45403,0.091 2.90845,6.40192 2.90845,6.40192c0,0 1.09772,1.02848 1.86042,1.42242c0.74552,0.38507 3.00591,0.68821 3.00591,0.68821z"/><path d="M127.32654,264.70622c0,0.6432 0.07204,1.16463 -0.24956,1.16463c-0.3216,0 -0.91506,-0.52142 -0.91506,-1.16463c0,-0.6432 -0.07203,-0.99824 0.24956,-0.99824c0.3216,0 0.91506,0.35504 0.91506,0.99824z"/><path d="M138.47365,264.12391c0,0.78104 -0.3178,1.41418 -0.91506,1.41418c-0.59726,0 -1.24781,-0.63315 -1.24781,-1.41418c0,-0.78104 0.3178,-1.41419 0.91506,-1.41419c0.59726,0 1.24781,0.63315 1.24781,1.41419z"/><path d="M139.97102,273.52409c0,0.82698 -0.03969,1.49738 -0.49912,1.49738c-0.45943,0 -1.331,-1.16952 -1.331,-1.9965c0,-0.82698 0.53882,-0.99825 0.99825,-0.99825c0.45943,0 0.83187,0.6704 0.83187,1.49738z"/><path d="M111.68731,276.93476c0,1.00883 -0.44117,3.21818 -0.23027,4.91599c0.18709,1.50611 1.861,2.74061 1.861,2.74061c0,0 -4.17018,0.07982 -5.29098,0.07982c-2.0215,0 -3.66025,-3.46372 -3.66025,-7.73642c0,-4.27271 1.13962,-7.73643 3.16112,-7.73643c2.0215,0 4.15937,3.46372 4.15937,7.73643z"/><path d="M129.32303,281.17732c0,2.30271 -2.46686,2.75957 -4.03563,4.28211c-1.39994,1.35869 -0.49614,5.58415 -0.49614,5.58415c0,0 -2.48046,0.6423 -3.45422,0.78173c-4.64768,0.6655 -3.95302,-1.56919 -3.95302,-1.56919c0,0 -4.15726,0.36253 -2.5356,-5.7513c0.81714,-3.08068 2.21801,5.61836 5.09213,4.2283c5.09494,-2.46417 1.99257,-15.37541 3.89211,-15.37541c1.35358,0 2.06785,1.35401 3.66186,1.37517c1.3555,0.01799 1.55281,-2.62736 1.55281,-2.62736c0,0 0.2757,6.62552 0.2757,9.07181z"/><path d="M136.31078,286.83406c0,0 -1.19182,1.49738 -2.662,1.49738c-1.47018,0 -2.32924,-1.47237 -2.32924,-3.49387c0,-2.0215 1.19181,-3.66025 2.66199,-3.66025c0.69818,0 0.09392,2.44037 0.4899,3.78017c0.43785,1.48145 1.83935,1.87657 1.83935,1.87657z"/><path d="M155.2775,267.20183c0,0.65236 0.42095,2.48396 1.80174,3.85273c1.5938,1.57994 4.64875,2.31669 4.64875,2.31669l-13.44632,1.19664c0,0 -0.99546,5.24855 -2.15478,5.44479c-3.59624,-1.25673 -5.84788,-5.80141 -4.93082,-7.7043c0.64324,-1.33472 2.86144,0.23883 3.33549,-2.35684c1.42426,-7.79848 -0.67401,-17.22431 4.59008,-17.55706c5.5939,-0.3536 6.15587,6.99703 6.15587,14.80736z"/></g><g data-paper-data="{&quot;index&quot;:null}"><path d="M210.22936,204.87915c4.58216,0.13713 4.69934,9.62745 4.69934,9.62745c0,0 3.48343,-1.24706 2.28596,4.14355c-0.32111,1.44552 -3.27997,0.59422 -4.24962,1.71838c-1.30332,1.51102 -2.25826,4.65004 -2.25826,4.65004l-3.10638,-1.21965c0,0 -0.87983,8.15053 -2.36054,8.42266c-2.17188,0.39916 -2.39496,-1.44994 -2.39496,-10.37815c0,-12.1215 4.82443,-17.0409 7.38446,-16.96428z"/><path d="M217.69081,238.28579c1.22501,-5.44824 -2.52264,-5.22132 -2.50277,-7.65784c0.01226,-1.50334 2.47505,-2.04116 3.3218,-3.05011c1.01065,-1.20425 0.48177,-2.74071 1.19955,-2.74071c1.82778,0 3.36191,3.76156 2.96696,7.37061c-0.28385,2.59384 -3.52694,1.04061 -1.86927,7.89725c2.25583,9.33084 0.04793,15.46744 -3.09348,15.46744c-1.50818,0 -0.71504,-4.66199 -1.35037,-6.70722c-0.68802,-2.2148 -2.74102,-1.98134 -2.74102,-6.36526c0,-2.27513 3.62214,-2.22852 4.0686,-4.21415z"/><path d="M197.85541,245.1082c0.77157,0 1.39706,0.47092 1.39706,0.91182c0,0.4409 -0.73899,0.79832 -1.51056,0.79832c-0.77157,0 -1.51056,-0.24392 -1.51056,-0.68482c0,-0.4409 0.85249,-1.02532 1.62406,-1.02532z"/><path d="M204.41146,242.17196c1.0949,1.23913 -1.15473,5.60368 2.83871,5.65947c3.03991,0.04247 4.71028,-2.61051 4.71028,-2.61051c0,0 -1.10257,4.19952 -5.61828,4.42652c-3.03637,0.15264 -5.05077,-4.51779 -5.05077,-7.15054c0,-1.33854 2.31369,-1.23753 3.12007,-0.32494z"/><path d="M197.79248,225.34263c1.10347,-1.72249 1.03876,-4.75135 1.90991,-4.75135c1.69248,0 1.81601,-0.60345 1.4755,7.26404c0.02116,4.06292 -1.3816,1.75905 -2.46302,3.66539c-1.21539,2.14249 -1.54562,3.58032 -1.54562,3.58032l-1.69784,-0.57101l0.03145,-6.7882c0,0 1.18615,-0.67671 2.28962,-2.39919z"/><path d="M179.66768,240.90068c0.7627,-0.39393 1.86042,-1.42242 1.86042,-1.42242c0,0 0.45442,-6.31091 2.90845,-6.40192c3.0606,-0.1135 5.50479,2.22737 4.93728,6.81003c-0.12739,1.0287 1.72438,0.45885 1.60221,1.58222c0.38597,2.88251 -3.58847,2.61731 -3.58847,2.61731c0,0 1.19415,-1.9707 -1.43495,-2.17161c-3.42248,-0.26154 -9.29086,-0.3254 -9.29086,-0.3254c0,0 2.26039,-0.30314 3.00592,-0.68821z"/><path d="M195.24888,263.70798c0.3216,0 0.24957,0.35504 0.24957,0.99824c0,0.6432 -0.59347,1.16463 -0.91507,1.16463c-0.3216,0 -0.24956,-0.52142 -0.24956,-1.16463c0,-0.6432 0.59346,-0.99824 0.91506,-0.99824z"/><path d="M184.43452,262.70971c0.59726,0 0.91506,0.63315 0.91506,1.41419c0,0.78104 -0.65055,1.41418 -1.24781,1.41418c-0.59726,0 -0.91506,-0.63315 -0.91506,-1.41418c0,-0.78104 0.65055,-1.41419 1.24781,-1.41419z"/><path d="M182.52121,272.0267c0.45943,0 0.99825,0.17128 0.99825,0.99825c0,0.82698 -0.87157,1.9965 -1.331,1.9965c-0.45943,0 -0.49912,-0.6704 -0.49912,-1.49738c0,-0.82698 0.37245,-1.49738 0.83188,-1.49738z"/><path d="M214.13242,269.19834c2.0215,0 3.16112,3.46372 3.16112,7.73643c0,4.27271 -1.63875,7.73642 -3.66025,7.73642c-1.1208,0 -5.29098,-0.07982 -5.29098,-0.07982c0,0 1.6739,-1.2345 1.861,-2.74061c0.21091,-1.69781 -0.23026,-3.90716 -0.23026,-4.91599c0,-4.27271 2.13787,-7.73643 4.15937,-7.73643z"/><path d="M192.61302,272.10551c0,0 0.1973,2.64535 1.5528,2.62736c1.59401,-0.02115 2.30829,-1.37517 3.66186,-1.37517c1.89954,0 -1.20284,12.91125 3.89211,15.37541c2.87412,1.39006 4.27499,-7.30898 5.09213,-4.2283c1.62167,6.11382 -2.5356,5.7513 -2.5356,5.7513c0,0 0.69466,2.23469 -3.95301,1.56919c-0.97375,-0.13943 -3.45422,-0.78173 -3.45422,-0.78173c0,0 0.9038,-4.22547 -0.49614,-5.58415c-1.56876,-1.52254 -4.03563,-1.9794 -4.03563,-4.28211c0,-2.44629 0.2757,-9.07181 0.2757,-9.07181z"/><path d="M187.18893,284.95749c0.39598,-1.3398 -0.20828,-3.78017 0.48991,-3.78017c1.47018,0 2.66199,1.63875 2.66199,3.66025c0,2.0215 -0.85906,3.49387 -2.32925,3.49387c-1.47018,0 -2.662,-1.49738 -2.662,-1.49738c0,0 1.4015,-0.39512 1.83934,-1.87657z"/><path d="M172.53873,252.39449c5.26409,0.33275 3.16582,9.75858 4.59008,17.55706c0.47406,2.59568 2.69225,1.02212 3.33549,2.35684c0.91706,1.90289 -1.33459,6.44757 -4.93083,7.7043c-1.15931,-0.19624 -2.15478,-5.44479 -2.15478,-5.44479l-13.44632,-1.19664c0,0 3.05495,-0.73675 4.64874,-2.31669c1.38079,-1.36877 1.80174,-3.20038 1.80174,-3.85273c0,-7.81033 0.56197,-15.16095 6.15587,-14.80735z"/></g></g><g><g><path d="M271.09116,210.56638c0,0 0.62967,-9.37734 4.87978,-7.12221c5.19285,2.75536 3.06305,19.61568 3.06305,19.61568" fill="none" stroke="#ffffff" stroke-width="3" stroke-linecap="round"/><path d="M265.42842,232.28266c0,0.99077 -0.65367,1.94342 -1.64443,1.94342c-0.99077,0 -1.64445,-0.50418 -1.64445,-1.49494c0,-0.57556 0.57003,-0.63933 0.99145,-0.96758c0.304,-0.23681 0.38727,-0.82634 0.80247,-0.82634c0.99077,0 1.49494,0.35469 1.49494,1.34544z" fill="#ffffff" stroke="#ffffff" stroke-width="0.5" stroke-linecap="butt"/><path d="M267.82034,252.31488c0,1.89897 -0.45508,3.28888 -2.46665,3.28888c-1.56309,0 -2.16766,-2.28688 -2.16766,-4.18584c0,-1.03656 0.5078,1.77136 2.2105,1.14096c0.63106,-0.23364 -0.54902,-3.68237 0.85413,-3.53287c1.10833,0.11808 1.56969,1.38991 1.56969,3.28887z" fill="#ffffff" stroke="#ffffff" stroke-width="0.5" stroke-linecap="butt"/><path d="M266.57377,240.09775c1.36561,-0.1495 0.09309,4.16726 0.70727,4.40091c1.65713,0.6304 1.57662,-1.92651 1.65533,-0.89296c0.07267,0.95425 -0.09238,2.44979 -1.61365,2.44979c-1.08572,0 -2.40065,-1.38991 -2.40065,-3.28888c0,-1.89897 0.57302,-2.55077 1.65169,-2.66886z" data-paper-data="{&quot;index&quot;:null}" fill="#ffffff" stroke="#ffffff" stroke-width="0.5" stroke-linecap="butt"/><path d="M270.95971,284.45617c0,0 -2.36714,-1.87273 -2.73577,-3.6667c-0.37858,-1.84244 0.49336,-7.69487 0.49336,-7.69487" fill="none" stroke="#ffffff" stroke-width="3" stroke-linecap="round"/><path d="M277.33431,290.25987c-0.16876,0.13112 -0.32812,-0.02824 -0.32812,-0.02824l-0.31338,-0.38132c0.08361,-0.22935 0.1754,-0.45664 0.28687,-0.67382c1.84639,-1.84639 4.67539,1.88745 4.53887,3.67217c-1.29902,0.6848 -3.29095,-1.46918 -4.18425,-2.5888z" fill="#ffffff" stroke="none" stroke-width="0.5" stroke-linecap="butt"/><path d="M283.61653,293.07081c-0.0006,-0.0012 -0.00119,-0.00241 -0.00177,-0.00361c-0.06926,-0.02838 -0.14615,-0.09138 -0.14615,-0.23127c0,-0.25453 0.25453,-0.25453 0.25453,-0.25453c0.0718,0 0.14293,0.00018 0.21338,0.00045c0.32186,-0.80356 1.47693,-4.0161 2.28822,-3.86115c0.16711,0.03192 0.70768,0.7797 0.94687,0.90888c1.67949,3.11021 -0.34116,3.43531 -3.03851,3.45924l-0.17506,0.09582c0,0 -0.22765,0.11383 -0.34149,-0.11383z" fill="#ffffff" stroke="none" stroke-width="0.5" stroke-linecap="butt"/><path d="M286.85954,287.97554c-0.12246,-0.06764 -0.12246,-0.22393 -0.12246,-0.22393l0.07455,-0.06213c-0.53092,-0.54261 -0.44601,-0.78583 -0.7815,-1.41418c-1.06673,-3.26532 1.5216,-5.09796 3.83119,-2.78838c0.66255,1.39876 -1.90391,2.73783 -2.50717,4.5873c0,0 -0.08049,0.24147 -0.32196,0.16098c-0.16327,-0.05442 -0.17935,-0.18244 -0.17263,-0.25965z" fill="#ffffff" stroke="none" stroke-width="0.5" stroke-linecap="butt"/><path d="M312.23959,272.9344c0,1.91035 -0.57831,1.19053 -2.3585,2.77688c-0.89347,0.79618 -1.10093,3.64777 -1.10093,3.64777c0,0 -3.43156,1.00856 -3.74183,-6.00105c-0.07298,-1.64867 0.78377,-6.84826 3.31822,-6.84826c2.71268,0 4.09809,4.28593 4.09809,4.28593l1.48276,0.69277c0,0 1.54854,-0.86266 2.0931,-0.5754c0.93771,0.49465 2.49847,3.08684 2.49847,3.08684c0,0 -1.81251,-0.54647 -3.43203,-0.87622c-1.52216,-0.30993 -2.85737,-0.41195 -2.85737,-0.18926z" fill="#ffffff" stroke="#ffffff" stroke-width="0.5" stroke-linecap="butt"/><path d="M267.28592,214.88387c0,0 1.52045,-3.15528 5.01687,-1.7332c2.28335,0.92868 1.82212,6.8136 1.82212,6.8136" fill="none" stroke="#ffffff" stroke-width="1.5" stroke-linecap="round"/><path d="M281.66311,247.0196c0,1.4037 -0.68271,2.40042 -2.04741,2.40042c-0.5175,0 -2.04741,-0.85553 -2.04741,-2.25922c0,-0.8402 1.38478,0.10923 1.99567,-0.35349c0.40971,-0.31033 0.91592,-2.04693 1.46376,-2.04693c1.36471,0 0.6354,0.85553 0.6354,2.25922z" fill="#ffffff" stroke="#ffffff" stroke-width="0.5" stroke-linecap="butt"/><path d="M302.84329,240.73615c0,0 -2.6526,0.32012 -5.4359,0.83641c-1.6017,0.29712 -0.41465,2.48181 -1.55356,2.48181c-2.14453,0 -2.89463,-1.28121 -2.89463,-3.03582c0,-1.75462 1.73849,-3.17703 3.88304,-3.17703c1.10183,0 0.54327,1.08148 1.25,1.68458c0.66882,0.57073 4.75105,1.21004 4.75105,1.21004z" fill="#ffffff" stroke="#ffffff" stroke-width="0.5" stroke-linecap="butt"/><path d="M287.16996,224.63921c0,2.06655 1.48261,4.16544 1.48261,4.16544c0,0 -1.37757,-1.59096 -2.27349,-2.6289c-0.60912,-0.70569 -2.17435,-1.12376 -2.17435,-1.96013c0,-2.06655 -0.4469,-2.18862 0.91781,-2.18862c1.36471,0 2.04741,0.54566 2.04741,2.61222z" fill="#ffffff" stroke="#ffffff" stroke-width="0.5" stroke-linecap="butt"/></g><g data-paper-data="{&quot;index&quot;:null}"><path d="M369.28045,223.05985c0,0 -2.1298,-16.86033 3.06305,-19.61568c4.25011,-2.25513 4.87978,7.12221 4.87978,7.12221" fill="none" stroke="#ffffff" stroke-width="3" stroke-linecap="round"/><path d="M382.88602,232.28267c0,-0.99075 0.50417,-1.34544 1.49494,-1.34544c0.41521,0 0.49847,0.58952 0.80247,0.82634c0.42142,0.32826 0.99145,0.39204 0.99145,0.96758c0,0.99075 -0.65367,1.49494 -1.64445,1.49494c-0.99075,0 -1.64443,-0.95266 -1.64443,-1.94342z" fill="#ffffff" stroke="#ffffff" stroke-width="0.5" stroke-linecap="butt"/><path d="M382.06378,249.02601c1.40316,-0.1495 0.22307,3.29924 0.85413,3.53287c1.70269,0.6304 2.2105,-2.17751 2.2105,-1.14096c0,1.89896 -0.60457,4.18584 -2.16766,4.18584c-2.01157,0 -2.46665,-1.38991 -2.46665,-3.28888c0,-1.89897 0.46136,-3.17079 1.56969,-3.28887z" fill="#ffffff" stroke="#ffffff" stroke-width="0.5" stroke-linecap="butt"/><path d="M383.39236,242.76661c0,1.89897 -1.31493,3.28888 -2.40065,3.28888c-1.52127,0 -1.68632,-1.49553 -1.61365,-2.44979c0.07871,-1.03356 -0.00179,1.52335 1.65533,0.89296c0.61418,-0.23364 -0.65834,-4.5504 0.70727,-4.40091c1.07867,0.11808 1.65169,0.76989 1.65169,2.66886z" data-paper-data="{&quot;index&quot;:null}" fill="#ffffff" stroke="#ffffff" stroke-width="0.5" stroke-linecap="butt"/><path d="M379.59713,273.0946c0,0 0.87193,5.85244 0.49336,7.69487c-0.36862,1.79398 -2.73577,3.6667 -2.73577,3.6667" fill="none" stroke="#ffffff" stroke-width="3" stroke-linecap="round"/><path d="M366.79588,292.84868c-0.13651,-1.78472 2.69248,-5.51856 4.53887,-3.67217c0.11147,0.21717 0.20325,0.44447 0.28687,0.67382l-0.31338,0.38132c0,0 -0.15936,0.15936 -0.32812,0.02824c-0.8933,1.11962 -2.88523,3.2736 -4.18425,2.5888z" fill="#ffffff" stroke="none" stroke-width="0.5" stroke-linecap="butt"/><path d="M364.35642,293.18463l-0.17506,-0.09582c-2.69735,-0.02394 -4.71801,-0.34903 -3.03851,-3.45924c0.23921,-0.12917 0.77977,-0.87696 0.94687,-0.90888c0.8113,-0.15495 1.96636,3.05759 2.28822,3.86115c0.07043,-0.00029 0.14158,-0.00045 0.21338,-0.00045c0,0 0.25453,0 0.25453,0.25453c0,0.1399 -0.07689,0.20291 -0.14615,0.23127c-0.00058,0.0012 -0.00118,0.00241 -0.00177,0.00361c-0.11383,0.22765 -0.34149,0.11383 -0.34149,0.11383z" fill="#ffffff" stroke="none" stroke-width="0.5" stroke-linecap="butt"/><path d="M361.28226,288.23519c-0.24147,0.08049 -0.32196,-0.16098 -0.32196,-0.16098c-0.60326,-1.84946 -3.16972,-3.18853 -2.50717,-4.5873c2.30958,-2.30958 4.89792,-0.47694 3.83119,2.78838c-0.3355,0.62835 -0.25059,0.87157 -0.7815,1.41418l0.07455,0.06213c0,0 0,0.15628 -0.12246,0.22393c0.0067,0.07721 -0.00937,0.20523 -0.17263,0.25965z" fill="#ffffff" stroke="none" stroke-width="0.5" stroke-linecap="butt"/><path d="M333.21747,273.12366c-1.61952,0.32975 -3.43203,0.87622 -3.43203,0.87622c0,0 1.56076,-2.5922 2.49847,-3.08684c0.54456,-0.28726 2.0931,0.5754 2.0931,0.5754l1.48276,-0.69277c0,0 1.38541,-4.28593 4.09809,-4.28593c2.53446,0 3.3912,5.19959 3.31822,6.84826c-0.31027,7.00961 -3.74183,6.00105 -3.74183,6.00105c0,0 -0.20746,-2.85159 -1.10093,-3.64777c-1.7802,-1.58634 -2.3585,-0.86653 -2.3585,-2.77688c0,-0.22269 -1.3352,-0.12068 -2.85737,0.18926z" fill="#ffffff" stroke="#ffffff" stroke-width="0.5" stroke-linecap="butt"/><path d="M374.18954,219.96426c0,0 -0.46123,-5.88491 1.82212,-6.8136c3.49642,-1.42208 5.01687,1.7332 5.01687,1.7332" fill="none" stroke="#ffffff" stroke-width="1.5" stroke-linecap="round"/><path d="M367.28673,244.76038c0.54784,0 1.05405,1.7366 1.46376,2.04693c0.6109,0.46273 1.99567,-0.48671 1.99567,0.35349c0,1.4037 -1.52992,2.25922 -2.04741,2.25922c-1.36471,0 -2.04741,-0.99672 -2.04741,-2.40042c0,-1.4037 -0.7293,-2.25922 0.63541,-2.25922z" fill="#ffffff" stroke="#ffffff" stroke-width="0.5" stroke-linecap="butt"/><path d="M350.22219,239.52611c0.70675,-0.6031 0.14819,-1.68458 1.25002,-1.68458c2.14453,0 3.88303,1.4224 3.88303,3.17703c0,1.75462 -0.75008,3.03582 -2.89463,3.03582c-1.13889,0 0.04816,-2.1847 -1.55356,-2.48181c-2.7833,-0.5163 -5.4359,-0.83641 -5.4359,-0.83641c0,0 4.08222,-0.63931 4.75103,-1.21004z" fill="#ffffff" stroke="#ffffff" stroke-width="0.5" stroke-linecap="butt"/><path d="M363.19189,222.02699c1.36471,0 0.91781,0.12207 0.91781,2.18862c0,0.83638 -1.56524,1.25446 -2.17435,1.96013c-0.8959,1.03794 -2.27349,2.6289 -2.27349,2.6289c0,0 1.48261,-2.09889 1.48261,-4.16544c0,-2.06655 0.6827,-2.61222 2.04741,-2.61222z" fill="#ffffff" stroke="#ffffff" stroke-width="0.5" stroke-linecap="butt"/></g></g></g></g></svg>