<svg version="1.1" xmlns="http://www.w3.org/2000/svg" xmlns:xlink="http://www.w3.org/1999/xlink" width="129.92225" height="255.73571" viewBox="0,0,129.92225,255.73571"><g transform="translate(-257.17515,-55.13777)"><g data-paper-data="{&quot;isPaintingLayer&quot;:true}" fill-rule="nonzero" stroke-linejoin="miter" stroke-miterlimit="10" stroke-dasharray="" stroke-dashoffset="0" style="mix-blend-mode: normal"><path d="M333.02426,207.62642c-0.56842,-0.054 -0.98417,-0.5515 -0.92866,-1.11122c0.05553,-0.55972 0.56132,-0.9697 1.12972,-0.91572c0.56842,0.054 0.98417,0.55151 0.92864,1.11123c-0.05553,0.55972 -0.56133,0.96968 -1.12972,0.9157z" fill="#000000" stroke="none" stroke-width="1.5" stroke-linecap="butt"/><path d="M328.69016,210.88254c-4.44461,-0.50271 -6.46446,-2.04855 -6.0467,-2.80528c0.12872,-0.23317 2.79537,1.1695 6.90406,1.58555c6.38531,0.64659 8.52999,-0.2525 8.52999,-0.2525l-0.06089,1.32411c0,0 -2.45832,0.92496 -9.32648,0.14812z" fill="#000000" stroke="#000000" stroke-width="0" stroke-linecap="butt"/><path d="M300.20958,203.48645c0.05553,-0.55972 0.56132,-0.9697 1.12972,-0.91572c0.56842,0.054 0.98419,0.55151 0.92866,1.11124c-0.05553,0.55972 -0.56134,0.96968 -1.12974,0.91569c-0.56842,-0.054 -0.98417,-0.5515 -0.92866,-1.11122z" fill="#000000" stroke="none" stroke-width="1.5" stroke-linecap="butt"/><path d="M307.19393,209.94981c-6.91211,0.17893 -9.27575,-0.95528 -9.27575,-0.95528l0.06089,-1.32411c0,0 2.05363,1.08125 8.47284,0.99026c4.13053,-0.05856 6.91531,-1.22468 7.02211,-0.98129c0.34664,0.78988 -1.80703,2.15463 -6.28009,2.27041z" fill="#000000" stroke="#000000" stroke-width="0" stroke-linecap="butt"/><path d="M273.68188,304.45395l1.45783,-249.31618l91.17841,0.40828l-1.45783,249.31618z" fill-opacity="0.01" fill="#000000" stroke="none" stroke-width="0" stroke-linecap="butt"/><path d="M276.05013,306.56512c0,0 3.79008,-92.85252 4.73997,-116.09724c0.32775,-8.02032 9.90127,-35.7748 41.88868,-34.45142c31.57499,1.30631 38.43053,30.84262 38.07529,38.12942c-1.60119,32.4426 -3.40034,77.6689 -4.30003,100.9261c-1.49995,1.40606 -2.87187,2.97695 -4.08494,3.87865c-1.43838,1.06917 -4.12486,-0.13736 -5.57254,1.25c-0.48501,0.4648 -0.76974,1.08139 -1.04383,1.70889l4.85926,-105.04023c0,0 0.2207,-3.04456 -2.66529,-3.23223c-3.42757,-0.22289 -3.0882,2.92789 -3.0882,2.92789l-5.17988,112.97995l-48.16403,-2.15861l5.09711,-113.34171c0,0 0.41603,-2.85781 -2.74486,-3.01935c-3.10669,-0.15875 -2.94897,2.73069 -2.94897,2.73069l-5.04165,113.18038z" fill="#ffffff" stroke="#000000" stroke-width="2" stroke-linecap="butt"/><path d="M317.70429,266.1031c-0.81804,-0.03788 -1.45009,-0.72148 -1.41169,-1.52689c0.03839,-0.80541 0.73267,-1.42762 1.55073,-1.38974c0.81804,0.03788 1.45009,0.72148 1.41169,1.52689c-0.03839,0.80541 -0.73267,1.42762 -1.55073,1.38974z" fill="#000000" stroke="none" stroke-width="1.5" stroke-linecap="butt"/><path d="M277.75724,228.97654c0,0 2.65261,-14.97913 3.6025,-38.22386c0.26825,-6.56421 6.72984,-26.34755 26.60418,-32.58902c0.54508,-0.17118 1.66563,-0.48242 1.66563,-0.48242c0,0 -5.53563,28.82904 12.10297,30.4209c17.32293,1.56337 16.3599,-28.60594 16.3599,-28.60594c0,0 0.83485,0.36527 1.24173,0.55704c17.93774,8.45422 22.27393,28.54443 21.98956,34.37745c-0.07188,17.90298 1.05831,38.41447 1.05831,38.41447l-18.59564,-0.69811l-3.53813,77.68269l-48.16403,-2.15861c0,0 2.56401,-57.74907 3.47318,-77.96544z" fill="#000000" stroke="#000000" stroke-width="2" stroke-linecap="butt"/><path d="M365.25993,142.36317c-10.09524,30.46838 -11.23569,27.60572 -36.75631,24.66127c-25.52061,-2.94446 -32.50961,-5.66489 -33.57405,-37.82577c-0.67777,-20.47858 1.5998,-39.98885 21.40177,-51.98095c10.81638,-6.55043 24.87065,-0.82552 37.02299,2.3808c10.09542,2.66361 27.02879,4.49108 27.02879,4.49108l-8.63263,10.76263l15.34691,0.19315c0,0 -16.38911,30.8742 -21.83746,47.31776z" fill="#f1d900" stroke="#00a68e" stroke-width="0" stroke-linecap="butt"/><path d="M303.98184,126.13413c0.57575,-7.17996 3.02541,-16.62191 3.02541,-16.62191c0,0 3.37435,0.49623 14.2339,-0.86827c8.34299,-1.04831 21.78017,-5.99077 21.78017,-5.99077c0,0 -2.60502,2.5813 -4.06572,3.79951c-1.55289,1.2951 -4.65965,3.80744 -4.65965,3.80744c0,0 8.00177,-0.38844 15.23381,-2.28942c9.01643,-2.08947 11.41066,-4.2181 13.50962,-2.42779c2.4773,2.11301 -2.62435,22.69616 -3.80509,28.0496c-1.30687,5.44432 -3.99374,8.83559 -5.07756,11.67489c-1.08381,2.83931 -1.3684,5.90055 -4.69808,15.24407c-2.07794,5.83101 -5.51158,8.02054 -12.19682,12.67514c-6.68524,4.65459 -10.39378,7.57021 -14.31483,7.01458c-3.77347,-0.53471 -8.02259,-6.36265 -12.13,-12.28333c-4.37372,-6.30458 -7.43215,-9.63555 -7.21568,-16.24398c0.19494,-5.95159 0.78962,-9.75345 1.2866,-14.99832c0.36323,-3.83333 -1.22049,-6.62032 -0.90607,-10.54142z" fill="#ffffff" stroke="#000000" stroke-width="1.5" stroke-linecap="butt"/><path d="M353.73723,118.20775c0,0 1.45523,0.54886 4.02809,1.74846c2.35001,1.09569 4.11967,2.3949 4.11967,2.3949l0.00882,1.16828c0,0 -6.66717,-4.1824 -14.53838,-4.77843c-6.29364,-0.47655 -10.28016,1.16702 -10.28016,1.16702l0.70127,-4.05279c0,0 3.356,-1.16475 8.05664,-0.56711c4.86747,0.61886 7.89662,1.84698 7.89662,1.84698z" fill="#000000" stroke="none" stroke-width="1.5" stroke-linecap="butt"/><path d="M304.07004,136.24143c0,0 -4.31788,-4.19423 -4.67717,-9.69326c-0.37805,-5.78603 0.08593,-9.6903 2.04363,-9.63692c1.9577,0.05336 2.29598,2.73551 2.37336,8.70889c0.07737,5.97339 0.26018,10.62129 0.26018,10.62129z" fill="#ffffff" stroke="#000000" stroke-width="1" stroke-linecap="butt"/><path d="M304.49007,132.37244c0,0 -3.06002,-3.40201 -2.93666,-8.89323c0.06879,-3.06319 2.48789,-1.87723 2.48789,-1.87723" fill="none" stroke="#000000" stroke-width="0.25" stroke-linecap="round"/><path d="M335.22847,130.63188c0.9688,-4.71941 5.78835,-7.91048 11.03957,-7.07425c5.25122,0.83623 8.53537,5.31354 7.76688,10.06907c-0.76849,4.75553 -5.26204,8.20624 -11.01414,7.36089c-5.47129,-0.80408 -8.80409,-5.42697 -7.79232,-10.35569z" fill="#ffffff" stroke="#000000" stroke-width="1.4" stroke-linecap="butt"/><path d="M359.29068,134.45511c1.95564,-5.64965 3.12207,-8.09215 4.99837,-7.53499c1.87629,0.55716 1.0868,4.40957 -1.0954,9.78791c-2.07397,5.11154 -7.49674,7.75463 -7.49674,7.75463c0,0 1.63815,-4.35791 3.59379,-10.00757z" fill="#ffffff" stroke="#000000" stroke-width="1" stroke-linecap="butt"/><path d="M360.33694,130.56672c0,0 2.6714,-0.37534 1.77157,2.55552c-1.61308,5.25399 -5.59148,7.53518 -5.59148,7.53518" fill="none" stroke="#000000" stroke-width="0.25" stroke-linecap="round"/><path d="M340.38885,131.7631c0.47278,-2.67498 3.05907,-4.4603 5.77665,-3.98767c2.7176,0.47264 4.53736,3.02426 4.06458,5.69922c-0.47278,2.67498 -3.05906,4.4603 -5.77665,3.98767c-2.7176,-0.47264 -4.53736,-3.02426 -4.06458,-5.69922z" fill="#000000" stroke="none" stroke-width="1.5" stroke-linecap="butt"/><path d="M334.91871,130.18173c0,0 1.24191,-9.23243 12.48778,-7.08765c9.54021,1.8517 7.91102,10.88349 7.91102,10.88349z" fill="#ffffff" stroke="#000000" stroke-width="1.15" stroke-linecap="butt"/><g stroke="none" stroke-width="0" stroke-linecap="butt"><path d="M304.07677,155.40293c0,0 3.34552,-0.07493 6.25006,-0.47719c2.56311,-0.35499 6.25402,-0.9402 6.25402,-0.9402c0,0 3.17184,0.90594 4.77008,1.40092c1.6229,0.50262 4.89445,1.59228 4.89445,1.59228c0,0 5.49205,0.22094 8.2982,1.13083c1.77755,0.57637 11.77206,7.52798 11.77206,7.52798c0,0 -12.10027,11.98744 -22.18814,9.66533c-16.57423,-3.81517 -20.05073,-19.89994 -20.05073,-19.89994z" fill="#000000"/><path d="M306.04204,157.27667c0,0 7.33012,2.49708 10.81788,3.8403c3.33863,1.28579 9.68083,4.05422 9.68083,4.05422c0,0 5.33202,-0.22336 8.1796,-0.08165c2.84101,0.14138 8.86268,1.07647 8.86268,1.07647c0,0 -2.05734,2.21829 -5.77598,4.11999c-3.61374,1.84805 -8.80164,3.24699 -13.2623,2.47753c-13.31085,-2.29612 -18.50271,-15.48687 -18.50271,-15.48687z" fill="#ffffff"/><path d="M309.18736,156.58323c0,0 5.04192,-0.76001 7.42986,-0.45904c2.38792,0.30098 9.97542,2.55892 9.97542,2.55892c0,0 4.92443,0.02591 7.17996,0.94253c2.27473,0.92443 6.3105,4.26619 6.3105,4.26619c0,0 -4.4985,-0.74407 -6.6776,-0.90805c-2.35527,-0.17724 -6.96661,-0.1187 -6.96661,-0.1187c0,0 -5.42088,-2.06072 -8.30548,-3.1487c-3.07992,-1.16167 -8.94604,-3.13315 -8.94604,-3.13315z" fill="#ffffff"/></g><path d="M308.51121,126.3766c0.83845,-4.74388 6.1814,-7.92528 11.4749,-7.00467c5.29348,0.92062 8.24683,5.54908 7.40839,10.29297c-0.83845,4.74388 -5.45328,7.89994 -10.74678,6.97934c-5.29348,-0.92062 -8.97496,-5.52375 -8.13651,-10.26764z" fill="#ffffff" stroke="#000000" stroke-width="1.4" stroke-linecap="butt"/><path d="M326.64548,159.08316c-1.02081,-0.16256 -2.98163,-3.72558 -2.89674,-5.80911c0.07596,-1.86419 1.89995,-3.51411 4.34056,-3.12545c2.44063,0.38865 4.07237,1.13782 3.32158,4.70507c-0.63718,3.02743 -2.32478,4.61816 -4.7654,4.2295z" fill="#ffffff" stroke="#000000" stroke-width="1.15" stroke-linecap="butt"/><path d="M334.92955,130.39771c0,0 -0.52226,3.87485 -1.11375,6.92816c-1.17126,6.04611 -5.42854,26.81405 -5.42854,26.81405l-2.94568,-0.46047c0,0 -0.13744,-4.18227 0.38306,-9.41066c0.70454,-7.07709 2.11545,-15.9081 2.32995,-19.20314c0.20332,-3.12338 0.01292,-5.69555 0.01292,-5.69555" fill="#ffffff" stroke="#000000" stroke-width="1.3" stroke-linecap="round"/><path d="M314.0534,127.83054c0.47278,-2.67498 3.05907,-4.4603 5.77665,-3.98767c2.7176,0.47264 4.53736,3.02426 4.06458,5.69922c-0.47278,2.67498 -3.05906,4.4603 -5.77665,3.98767c-2.7176,-0.47264 -4.53736,-3.02426 -4.06458,-5.69922z" fill="#000000" stroke="none" stroke-width="1.5" stroke-linecap="butt"/><path d="M308.52723,125.84853c0,0 1.47886,-8.75292 11.85453,-6.91101c9.32633,1.65053 7.95817,10.64666 7.95817,10.64666z" fill="#ffffff" stroke="#000000" stroke-width="1.15" stroke-linecap="butt"/><path d="M337.69612,243.53567l10.26839,-3.62453l9.65582,54.13575c-1.52078,1.23446 -2.92777,2.82537 -4.19255,4.00441c-0.90891,0.04377 -1.83473,0.24399 -2.75593,0.61474c-0.54012,0.21738 -1.05802,0.48508 -1.55119,0.7975c-0.373,0.01136 -0.73995,0.04011 -1.08592,0.11552c-5.75051,-31.38366 -10.33862,-56.04339 -10.33862,-56.04339z" fill="#ffffff" stroke="#000000" stroke-width="2" stroke-linecap="butt"/><path d="M321.51084,248.15586l2.97331,-35.92754l23.4774,1.94296l-2.97331,35.92754z" fill="#9c9c9c" stroke="#000000" stroke-width="1" stroke-linecap="butt"/><g stroke="#000000" stroke-width="2"><path d="M347.7911,228.51136c2.054,1.44321 3.34311,3.84883 5.27613,5.46282c0,0 0.69517,0.58255 0.11261,1.27773c-0.1063,0.12686 -0.21637,0.21116 -0.32527,0.26423c-0.02347,0.05387 -0.05403,0.10867 -0.09289,0.16401c0.12262,1.49081 -0.80692,3.14766 -1.30876,4.43894c-1.41816,3.64898 -2.61533,7.0533 -6.25746,9.00907c-2.11645,0.49009 -3.95203,-0.38379 -5.94445,-1.08901c-0.78704,-0.27857 -1.61618,-0.52001 -2.42883,-0.80405c-0.6708,-0.14855 -1.34313,-0.28907 -2.02037,-0.39288c-4.7107,0.13736 -7.15582,-1.1216 -8.52679,-4.87658c-0.16622,-0.45529 0.49797,-1.39754 0.49797,-1.39754c0,0 -1.99855,-1.74633 -2.08509,-2.69055c-0.08307,-0.90644 1.06722,-2.59861 1.06722,-2.59861c0,0 -2.08688,-1.75207 -1.2251,-3.77642c0.69697,-1.6372 3.14017,-1.3378 3.14017,-1.3378c0,0 -0.09756,-1.85706 0.8723,-2.63056c1.91515,-1.5274 6.36098,-0.86425 9.20075,-0.50748c3.1368,-1.01109 7.44962,-0.34092 10.04785,1.48468z" fill="#ffffff" stroke-linecap="butt"/><path d="M337.85611,227.35483l4.64186,2.20658" fill="none" stroke-linecap="round"/></g><path d="M345.44082,251.50311c-0.91321,0.26022 -1.37843,-0.28462 -1.58053,-0.65234c-0.16074,0.02103 -0.31872,0.01356 -0.4688,-0.01853l-0.00285,0.01075c-0.12993,0.53777 -0.57735,0.96719 -1.15858,1.04654c-0.66255,0.09046 -1.2795,-0.30392 -1.49283,-0.91112l-0.96243,-2.56603l0.06829,-0.02561l-0.1328,-0.20574c0.0223,-0.08002 0.04461,-0.16003 0.06692,-0.24005l-0.09046,0.00103l-0.03116,-2.74962c-0.00546,-0.21139 0.03763,-0.41511 0.12006,-0.59901c-0.00361,-0.02293 -0.00719,-0.04587 -0.01078,-0.0688l-0.46472,-1.93792c-0.01264,-0.05003 -0.02263,-0.10129 -0.02978,-0.15363c-0.06119,-0.44819 0.09948,-0.87552 0.39781,-1.17115l-0.38831,-0.78882c-0.07189,-0.13781 -0.12162,-0.29017 -0.14385,-0.45304c-0.1034,-0.75738 0.42675,-1.45518 1.18413,-1.55858c0.56865,-0.07764 1.10371,0.20188 1.37883,0.66655c0.12472,-0.32821 0.31934,-0.58368 0.64649,-0.68615c1.57752,-0.49411 2.55364,0.49768 3.19659,1.89468c0.28416,0.123 0.52246,0.33938 0.67098,0.6158l0.68259,1.20276l-0.07163,0.04065l0.15259,0.12747c0.12053,0.47143 0.22564,0.90691 0.31572,1.31597c0.13127,0.00363 0.27436,0.02691 0.42999,0.07526c0.03254,0.00969 0.06463,0.02056 0.09622,0.03256c0.74562,0.27332 0.89468,0.83595 0.8928,1.24778c0.01007,0.28797 -0.07003,0.56219 -0.21714,0.7921c-0.18488,0.43041 -0.31665,0.92243 -0.46622,1.39381c0.11647,0.51149 0.22826,1.00161 0.35978,1.42542l0.12054,0.74366c0,0 0.07077,0.51838 -0.19342,0.96123c-0.09325,0.58706 -0.56065,1.0691 -1.18,1.15366c-0.16121,0.02201 -0.31972,0.01531 -0.47038,-0.01617c-0.08479,0.02928 -0.17369,0.05069 -0.26597,0.06329c-0.25335,0.03459 -0.50004,-0.00172 -0.72004,-0.09371c-0.07242,0.03192 -0.15144,0.06048 -0.23764,0.08503z" fill="#ffffff" stroke="none" stroke-width="0.5" stroke-linecap="butt"/><path d="M331.08909,217.55906c0,1.42955 -1.24803,2.58843 -2.78754,2.58843c-1.53952,0 -2.78754,-1.15888 -2.78754,-2.58843c0,-1.42955 1.24803,-2.58843 2.78754,-2.58843c1.53952,0 2.78754,1.15888 2.78754,2.58843z" fill="#c3e3ff" stroke="none" stroke-width="0" stroke-linecap="butt"/><path d="M334.19658,219.2359c0,0.75556 -0.65962,1.36806 -1.4733,1.36806c-0.81368,0 -1.4733,-0.6125 -1.4733,-1.36806c0,-0.75556 0.65962,-1.36806 1.4733,-1.36806c0.81368,0 1.4733,0.6125 1.4733,1.36806z" fill="#c3e3ff" stroke="none" stroke-width="0" stroke-linecap="butt"/><path d="M314.28589,115.60099c0,0 3.61315,-1.23824 8.29025,-0.95485c5.18282,0.31402 7.68134,1.15711 7.68134,1.15711l-0.35853,4.06812c0,0 -3.68057,-1.26474 -7.83566,-1.76736c-5.55691,-0.67221 -6.78673,0.34795 -11.05831,0.12462c-3.66011,-0.19136 -6.67779,-0.90504 -6.67779,-0.90504l0.16788,-1.20117c0,0 3.53852,0.63725 5.17888,0.75654c1.35391,0.09846 4.07326,-0.28666 4.07326,-0.28666z" fill="#000000" stroke="none" stroke-width="1.5" stroke-linecap="butt"/><path d="M258.17515,174.4969v-31.94743h37.93757v31.94743z" fill="#7d7d7d" stroke="#000000" stroke-width="2" stroke-linecap="butt"/><path d="M258.51615,141.55934v-31.94743h37.93757v31.94743z" fill="#7d7d7d" stroke="#000000" stroke-width="2" stroke-linecap="butt"/><path d="M258.19158,109.95291v-31.94743h37.93757v31.94743z" fill="#7d7d7d" stroke="#000000" stroke-width="2" stroke-linecap="butt"/><path d="M286.12915,124.91184c0,4.96239 -4.46979,8.98521 -9.98357,8.98521c-5.51378,0 -9.98357,-4.02282 -9.98357,-8.98521c0,-4.9624 4.46979,-8.98521 9.98357,-8.98521c5.51378,0 9.98357,4.02282 9.98357,8.98521z" fill="#0030d3" stroke="#000000" stroke-width="2" stroke-linecap="butt"/><path d="M285.46358,93.62998c0,4.9624 -4.32081,8.98521 -9.65078,8.98521c-5.32998,0 -9.65078,-4.02282 -9.65078,-8.98521c0,-4.9624 4.32081,-8.98521 9.65078,-8.98521c5.32998,0 9.65078,4.02282 9.65078,8.98521z" fill="#ff0000" stroke="#000000" stroke-width="2" stroke-linecap="butt"/><path d="M284.79801,159.18876c0,4.04343 -3.57584,7.32128 -7.98686,7.32128c-4.41102,0 -7.98685,-3.27785 -7.98685,-7.32128c0,-4.04343 3.57583,-7.32128 7.98685,-7.32128c4.41102,0 7.98686,3.27785 7.98686,7.32128z" fill="#00ff15" stroke="#000000" stroke-width="2" stroke-linecap="butt"/></g></g></svg>