<svg version="1.1" xmlns="http://www.w3.org/2000/svg" xmlns:xlink="http://www.w3.org/1999/xlink" width="117.80411" height="256.89886" viewBox="0,0,117.80411,256.89886"><defs><linearGradient x1="286.15781" y1="150.97742" x2="286.15781" y2="308.71639" gradientUnits="userSpaceOnUse" id="color-1"><stop offset="0" stop-color="#004036"/><stop offset="1" stop-color="#003831"/></linearGradient><linearGradient x1="351.95753" y1="149.62536" x2="351.95753" y2="307.04571" gradientUnits="userSpaceOnUse" id="color-2"><stop offset="0" stop-color="#004036"/><stop offset="1" stop-color="#003831"/></linearGradient><linearGradient x1="319.9392" y1="146.09179" x2="319.9392" y2="309.60387" gradientUnits="userSpaceOnUse" id="color-3"><stop offset="0" stop-color="#004d41"/><stop offset="1" stop-color="#00453b"/></linearGradient><linearGradient x1="320.57559" y1="230.60893" x2="320.57559" y2="266.63766" gradientUnits="userSpaceOnUse" id="color-4"><stop offset="0" stop-color="#004036"/><stop offset="1" stop-color="#003831"/></linearGradient><linearGradient x1="318.34821" y1="138.95484" x2="318.34821" y2="163.30766" gradientUnits="userSpaceOnUse" id="color-5"><stop offset="0" stop-color="#003831"/><stop offset="1" stop-color="#004036"/></linearGradient><linearGradient x1="326.22734" y1="197.66694" x2="326.22734" y2="203.13329" gradientUnits="userSpaceOnUse" id="color-6"><stop offset="0" stop-color="#c3c3c3"/><stop offset="1" stop-color="#d9d9d9"/></linearGradient><linearGradient x1="327.40387" y1="166.93628" x2="327.40387" y2="198.47141" gradientUnits="userSpaceOnUse" id="color-7"><stop offset="0" stop-color="#acacac"/><stop offset="1" stop-color="#bfbfbf"/></linearGradient><linearGradient x1="311.76147" y1="197.93383" x2="311.76147" y2="204.65744" gradientUnits="userSpaceOnUse" id="color-8"><stop offset="0" stop-color="#c3c3c3"/><stop offset="1" stop-color="#d9d9d9"/></linearGradient><linearGradient x1="310.89513" y1="167.39706" x2="310.89513" y2="199.03328" gradientUnits="userSpaceOnUse" id="color-9"><stop offset="0" stop-color="#acacac"/><stop offset="1" stop-color="#bfbfbf"/></linearGradient><linearGradient x1="335.12681" y1="135.38242" x2="361.63379" y2="134.80879" gradientUnits="userSpaceOnUse" id="color-10"><stop offset="0" stop-color="#ced3ff"/><stop offset="1" stop-color="#d7deff"/></linearGradient><linearGradient x1="272.27384" y1="137.61054" x2="298.73119" y2="137.03797" gradientUnits="userSpaceOnUse" id="color-11"><stop offset="0" stop-color="#d7deff"/><stop offset="1" stop-color="#ced3ff"/></linearGradient><linearGradient x1="318.13643" y1="81.20648" x2="319.79153" y2="157.68622" gradientUnits="userSpaceOnUse" id="color-12"><stop offset="0" stop-color="#bfbfff"/><stop offset="1" stop-color="#d9e1ff"/></linearGradient><linearGradient x1="375.35175" y1="88.05417" x2="375.84399" y2="110.79974" gradientUnits="userSpaceOnUse" id="color-13"><stop offset="0" stop-color="#d7deff"/><stop offset="1" stop-color="#ced3ff"/></linearGradient><linearGradient x1="317.72499" y1="59.54998" x2="319.17932" y2="126.75231" gradientUnits="userSpaceOnUse" id="color-14"><stop offset="0" stop-color="#d7deff"/><stop offset="1" stop-color="#ced3ff"/></linearGradient></defs><g transform="translate(-271.66588,-53.98217)"><g stroke-miterlimit="10"><g stroke-linecap="butt"><path d="M274.68902,307.20718v-253.22501h91.18203v253.22501z" fill-opacity="0.01" fill="#000000" stroke="none" stroke-width="0"/><path d="M277.49041,304.98627c0,0 2.30995,-94.38387 2.15196,-118.01201c-0.05451,-8.15261 8.18688,-36.76129 40.20201,-36.9211c31.60235,-0.15775 39.85672,29.48704 39.84884,36.89673c-0.07659,46.24274 3.16786,117.98648 3.16786,117.98648z" fill="#ffffff" stroke="#000000" stroke-width="2"/><g stroke="none"><g><g stroke-width="0"><g><g><path d="M272.63735,308.71639c0,0 -1.12431,-5.46654 -0.95389,-13.00174c0.13279,-5.87166 1.48592,-13.16223 1.94733,-19.04278c0.48638,-6.19883 1.97115,-5.63814 2.44515,-11.75842c0.25115,-3.24283 -0.69215,-6.27918 -0.55822,-8.84907c0.24115,-4.62726 1.49652,-8.05198 1.91169,-10.64583c0.39663,-2.478 -2.46665,-8.43514 -2.45723,-8.84546c0.26279,-11.44479 -0.26455,-15.04561 -0.06908,-20.60715c0.32461,-9.23602 1.55112,-15.84863 1.55112,-15.84863c0,0 -0.45337,-4.15326 -0.25044,-9.01058c0.23309,-5.5793 1.55758,-9.23721 2.07071,-12.23049c2.80819,-16.3811 21.40382,-27.89884 21.40382,-27.89884c0,0 1.48376,2.6407 1.60057,8.32547c0.14774,7.19045 -1.03738,18.824 -0.71423,31.41194c0.16964,6.60792 0.76925,13.91903 0.88564,21.08724c0.05563,3.42663 -1.83219,7.23338 -1.74564,10.67335c0.20883,8.3002 2.27942,17.04153 2.45946,24.65041c0.12748,5.38737 -1.76529,11.17357 -1.58012,15.75178c0.23598,5.83443 4.86958,22.59972 4.98109,25.80687c0.30278,8.70833 -0.45119,18.62506 -0.45119,18.62506c0,0 -3.35596,3.21889 -16.78169,3.55139c-10.62098,0.26304 -15.69486,-2.14454 -15.69486,-2.14454z" fill="url(#color-1)"/><path d="M336.84542,305.65094c0,0 2.60125,-5.7372 2.50377,-11.39161c-0.05417,-3.14192 -0.50997,-8.55127 -0.7373,-15.63807c-0.18842,-5.87399 3.66594,-9.04843 3.41039,-16.64468c-0.21137,-6.28286 -1.81945,-6.50377 -2.20046,-13.53606c-0.49036,-9.05042 1.35791,-14.71384 0.8083,-24.43647c-0.11162,-1.9745 0.76525,-2.76523 0.63933,-4.7557c-0.34599,-5.46933 0.3281,-16.6809 -0.13562,-22.112c-0.27416,-3.21089 -3.2673,-10.79429 -3.58941,-13.76702c-0.238,-2.19646 0.33548,-3.48504 0.12585,-5.46077c-0.98466,-9.28032 -3.25557,-16.43499 -3.88682,-21.1778c-0.63538,-4.7738 0.37212,-7.10542 0.37212,-7.10542c0,0 22.52851,8.63413 26.22214,24.96527c0.66275,2.9303 1.55376,7.69727 1.9283,12.87814c0.3193,4.41687 0.12715,9.10737 0.57561,13.5126c0.78535,7.71452 3.21175,16.56706 3.88404,25.37337c0.69544,9.10952 -2.15776,18.57195 -1.74771,27.54698c0.2891,6.32771 0.08476,12.55742 0.52214,18.26737c1.53873,20.08807 3.92056,33.38224 3.92056,33.38224c0,0 -5.47789,2.60533 -14.85812,3.03411c-9.32198,0.42612 -17.75709,-2.93449 -17.75709,-2.93449z" fill="url(#color-2)"/><path d="M271.68347,295.71468c0.13279,-5.87166 1.48592,-13.16223 1.94733,-19.04278c0.48638,-6.19883 1.97115,-5.63814 2.44515,-11.75842c0.05157,-0.66584 0.05278,-1.32298 0.0233,-1.96916c0.30152,0.11717 0.59046,0.21712 0.84537,0.30309c3.77278,1.27242 6.11373,0.84918 9.84421,-0.47313c3.88616,-3.76562 2.72304,-9.28145 1.17314,-13.92007c-0.40062,-1.19899 -1.26325,-2.35335 -1.46197,-3.59489c-0.4105,-2.56466 1.23781,-5.36955 1.8485,-7.81229c1.2546,-3.75576 0.61271,-7.22112 1.15767,-11.03512c0.29064,-2.03408 1.2136,-3.94339 1.49495,-5.9635c0.421,-3.0227 -0.17038,-7.5832 -1.12528,-10.4479c0.0204,-4.09183 -1.09048,-8.67897 -0.37509,-12.80792c0.82335,-4.7521 1.13819,-9.92381 1.13819,-14.78884c0,-1.35806 0.39282,-2.87374 0.37436,-4.16441c-0.05433,-3.79857 -2.96233,-10.31788 -6.71098,-11.42134c-0.30947,-0.0911 -0.60679,-0.13458 -0.8942,-0.14016c6.44534,-9.61509 16.27021,-15.70041 16.27021,-15.70041c0,0 1.48376,2.6407 1.60057,8.32547c0.14774,7.19045 -1.03738,18.824 -0.71423,31.41194c0.16964,6.60792 0.76925,13.91903 0.88564,21.08724c0.05563,3.42663 -1.83219,7.23338 -1.74564,10.67335c0.20883,8.3002 2.27942,17.04153 2.45946,24.65041c0.12748,5.38737 -1.76529,11.17357 -1.58012,15.75178c0.23598,5.83443 4.86958,22.59972 4.98109,25.80687c0.30278,8.70833 -0.45119,18.62506 -0.45119,18.62506c0,0 -3.35596,3.21889 -16.78169,3.55139c-10.61403,0.26287 -15.68821,-2.14139 -15.69485,-2.14454c-0.00228,-0.01109 -1.12413,-5.47417 -0.95389,-13.00172z" fill-opacity="0.06275" fill="#000000"/><path d="M336.84543,305.65094c0,0 2.60125,-5.7372 2.50377,-11.39161c-0.05417,-3.14192 -0.50997,-8.55127 -0.7373,-15.63807c-0.18842,-5.87399 3.66594,-9.04843 3.41039,-16.64468c-0.21137,-6.28286 -1.81945,-6.50377 -2.20046,-13.53606c-0.49036,-9.05042 1.35791,-14.71384 0.8083,-24.43647c-0.11162,-1.9745 0.76525,-2.76523 0.63933,-4.7557c-0.34599,-5.46933 0.3281,-16.6809 -0.13562,-22.112c-0.27416,-3.21089 -3.2673,-10.79429 -3.58941,-13.76702c-0.238,-2.19646 0.33548,-3.48504 0.12585,-5.46077c-0.98466,-9.28032 -3.25557,-16.43499 -3.88682,-21.1778c-0.63538,-4.7738 0.37212,-7.10542 0.37212,-7.10542c0,0 17.81362,6.82713 24.35743,19.82249c-3.04402,-3.00841 -8.26249,-5.4989 -10.8617,-0.18006c-1.2864,2.63238 0.30798,6.31355 0.96196,8.92645c1.71638,8.58191 1.7474,17.0058 1.79379,25.76932c0.53951,2.15804 0.06186,4.45246 0.25458,6.68559c0.13297,1.54079 0.87502,2.92875 1.03875,4.43701c0.31046,2.85998 -0.2982,5.76904 -0.52142,8.58996c-0.23111,2.92067 0.3062,6.16006 0.78619,9.0415c0.37733,2.26337 1.29919,5.16949 1.02855,7.47338c-0.15774,1.34277 -0.89422,2.5361 -1.03729,3.90362c-0.48018,4.58999 -0.3513,9.34471 0.56659,13.87367c0.74559,1.50426 1.29109,2.45409 2.8642,3.17436c1.22208,0.55955 3.79099,1.76878 5.13334,1.63746c1.52063,-0.14876 2.54278,-1.18817 3.65168,-2.02016c0.34555,-0.25926 0.68212,-0.52363 1.00936,-0.79369c0.06041,4.21896 0.06188,8.33042 0.35851,12.20283c1.53873,20.08807 3.92056,33.38224 3.92056,33.38224c0,0 -5.47789,2.60533 -14.85812,3.03411c-9.32198,0.42612 -17.75709,-2.93449 -17.75709,-2.93449z" fill-opacity="0.06275" fill="#000000"/><path d="M271.68347,295.71468c0.13279,-5.87166 1.48592,-13.16223 1.94733,-19.04278c0.34518,-4.39931 1.19323,-5.39403 1.82595,-7.78855c6.79145,4.21004 17.8274,2.73317 17.8274,-7.01546c1.15738,-3.3232 0.83533,-7.35073 0.32616,-10.75742c-0.30108,-2.0144 -1.63762,-3.86594 -1.95695,-5.87084c-0.4334,-2.72112 0.66523,-6.41759 0.66523,-9.2984c-0.01317,-2.07892 1.04063,-3.72424 1.29714,-5.74866c0.33935,-2.67821 -0.29503,-5.47261 0,-8.15395c0.207,-1.88125 1.60894,-3.80761 1.63828,-5.66687c0.02541,-1.61026 -0.47876,-4.167 -0.99139,-5.70487c0.06298,-9.72951 0.01291,-19.23021 0.01291,-28.86787c0,-5.60411 -0.76883,-12.72249 -6.01895,-16.18007c-1.06587,-0.70195 -2.31415,-0.65581 -3.49604,-0.84598c6.37907,-8.50686 14.91777,-13.79554 14.91777,-13.79554c0,0 1.48376,2.6407 1.60057,8.32547c0.14774,7.19045 -1.03738,18.824 -0.71423,31.41194c0.16964,6.60792 0.76925,13.91903 0.88564,21.08724c0.05563,3.42663 -1.83219,7.23338 -1.74564,10.67335c0.20883,8.3002 2.27942,17.04153 2.45946,24.65041c0.12748,5.38737 -1.76529,11.17357 -1.58012,15.75178c0.23598,5.83443 4.86958,22.59972 4.98109,25.80687c0.30278,8.70833 -0.45119,18.62506 -0.45119,18.62506c0,0 -3.35596,3.21889 -16.78169,3.55139c-10.61403,0.26287 -15.68821,-2.14138 -15.69485,-2.14453c-0.00228,-0.01108 -1.12413,-5.47418 -0.95389,-13.00173z" fill-opacity="0.06275" fill="#000000"/><path d="M336.84543,305.65094c0,0 2.60125,-5.7372 2.50377,-11.39161c-0.05417,-3.14192 -0.50997,-8.55127 -0.7373,-15.63807c-0.18842,-5.87399 3.66594,-9.04843 3.41039,-16.64468c-0.21137,-6.28286 -1.81945,-6.50377 -2.20046,-13.53606c-0.49036,-9.05042 1.35791,-14.71384 0.8083,-24.43647c-0.11162,-1.9745 0.76525,-2.76523 0.63933,-4.7557c-0.34599,-5.46933 0.3281,-16.6809 -0.13562,-22.112c-0.27416,-3.21089 -3.2673,-10.79429 -3.58941,-13.76702c-0.238,-2.19646 0.33548,-3.48504 0.12585,-5.46077c-0.98466,-9.28032 -3.25557,-16.43499 -3.88682,-21.1778c-0.63538,-4.7738 0.37212,-7.10542 0.37212,-7.10542c0,0 12.39019,4.74858 20.29982,13.86353c-2.44147,-0.04324 -4.94695,-0.04133 -7.15084,1.10392c-4.18391,2.17417 -3.81524,9.82473 -2.83626,13.74066c0.0143,3.54286 1.3111,7.18881 1.29907,10.70316c-0.01906,5.56867 0.64514,11.14317 0.6633,16.7321c0.9247,2.77411 0.21907,6.22468 0.65232,9.13242c0.2577,1.72959 1.26671,3.33713 1.29246,5.09672c0.01547,1.05717 -0.83502,2.37237 -0.97172,3.42718c-0.33996,2.62328 -0.65296,5.46033 0,8.07216c0,1.98811 1.32995,3.92387 1.29788,5.78703c-0.04881,2.83514 -0.98819,5.80769 -1.29788,8.6457c-0.44929,4.11738 -0.33365,8.3501 -0.33365,12.51618c0.03095,5.0739 5.45123,10.40219 10.76095,10.45829c2.60174,0.02749 5.23044,-0.92394 7.44693,-2.45674c0.04554,1.95245 0.11992,3.86442 0.26216,5.72143c1.53873,20.08807 3.92056,33.38224 3.92056,33.38224c0,0 -5.47789,2.60533 -14.85812,3.03411c-9.32198,0.42612 -17.75709,-2.93449 -17.75709,-2.93449z" fill-opacity="0.06275" fill="#000000"/><path d="M271.68347,295.71468c0.13176,-5.82602 1.46496,-13.04897 1.93641,-18.90539c0.26384,0.25264 0.53854,0.49599 0.82709,0.72763c2.82645,2.26902 7.95496,1.31105 11.20476,2.1235c2.88489,0.01515 6.907,-0.53186 9.23628,-2.50227c3.25309,-2.75189 4.60574,-10.54126 3.28852,-14.306c0.01749,-2.70256 -0.67142,-5.4608 -0.32074,-8.19774c0.21406,-1.6707 0.70158,-3.68875 0.65981,-5.34071c-0.05525,-2.18496 -1.63179,-3.99343 -1.31212,-6.40097c0.36952,-2.78295 1.62537,-4.91348 1.62537,-7.784c-1.08565,-3.25695 0.14282,-7.05766 -0.32616,-10.43705c-0.83852,-6.04226 -0.31325,-12.65552 -0.31325,-18.75697c0,-7.58143 1.91737,-15.37234 0.97098,-22.95323c-0.33099,-2.65134 -1.31005,-5.18698 -1.31005,-7.86579c-1.84499,-5.72954 -4.231,-12.10601 -9.58351,-14.51946c5.61099,-6.02611 11.41147,-9.61879 11.41147,-9.61879c0,0 1.48376,2.6407 1.60057,8.32547c0.14774,7.19045 -1.03738,18.824 -0.71423,31.41194c0.16964,6.60792 0.76925,13.91903 0.88564,21.08724c0.05563,3.42663 -1.83219,7.23338 -1.74564,10.67335c0.20883,8.3002 2.27942,17.04153 2.45946,24.65041c0.12748,5.38737 -1.76529,11.17357 -1.58012,15.75178c0.23598,5.83443 4.86958,22.59972 4.98109,25.80687c0.30278,8.70833 -0.45119,18.62506 -0.45119,18.62506c0,0 -3.35596,3.21889 -16.78169,3.55139c-10.61403,0.26287 -15.68821,-2.14138 -15.69485,-2.14453c-0.00228,-0.01108 -1.12413,-5.47418 -0.95389,-13.00173z" fill-opacity="0.06275" fill="#000000"/><path d="M336.84543,305.65094c0,0 2.60125,-5.7372 2.50377,-11.39161c-0.05417,-3.14192 -0.50997,-8.55127 -0.7373,-15.63807c-0.18842,-5.87399 3.66594,-9.04843 3.41039,-16.64468c-0.21137,-6.28286 -1.81945,-6.50377 -2.20046,-13.53606c-0.49036,-9.05042 1.35791,-14.71384 0.8083,-24.43647c-0.11162,-1.9745 0.76525,-2.76523 0.63933,-4.7557c-0.34599,-5.46933 0.3281,-16.6809 -0.13562,-22.112c-0.27416,-3.21089 -3.2673,-10.79429 -3.58941,-13.76702c-0.238,-2.19646 0.33548,-3.48504 0.12585,-5.46077c-0.98466,-9.28032 -3.25557,-16.43499 -3.88682,-21.1778c-0.63538,-4.7738 0.37212,-7.10542 0.37212,-7.10542c0,0 8.63178,3.30816 16.08537,9.70223c-2.59906,1.26626 -5.48471,1.81512 -7.51043,4.22491c-3.05168,3.63026 -1.78226,8.28783 -3.14917,12.54165c-0.03885,4.40669 1.82642,8.081 2.27768,12.35021c0.33404,3.16016 1.34038,6.24411 1.6267,9.41888c0.26094,2.89327 0.17219,5.59934 0.65232,8.4801c0.01578,2.29514 0.63636,4.58182 0.33566,6.93281c-0.34956,2.73298 -1.31802,5.98841 -0.98389,8.76247c0.18203,1.51127 1.6233,2.97976 1.6233,4.44403c0,1.9038 -0.97361,4.05119 -0.97361,6.09846c-0.66658,3.33292 0.17176,6.7293 -0.31811,10.04925c-0.93679,6.34881 -1.26292,13.27684 1.67999,19.09813c0.56832,2.26015 -0.24539,4.7108 0.66632,6.88505c1.11097,2.64945 2.71023,2.46337 4.45682,4.23832c4.34972,4.42032 9.19555,5.85742 15.46236,5.8303c1.49775,16.39818 3.37377,26.86918 3.37377,26.86918c0,0 -5.47789,2.60533 -14.85812,3.03411c-9.32198,0.42612 -17.75709,-2.93449 -17.75709,-2.93449z" fill-opacity="0.06275" fill="#000000"/><path d="M271.68347,295.71468c0.06212,-2.74695 0.39134,-5.80444 0.77139,-8.88283c1.05558,0.57932 2.25618,0.94387 3.66751,1.0441c1.52173,0.10807 2.90381,-0.82583 4.31766,-1.08803c1.9376,-0.35932 3.78669,0.48701 5.63147,0.85892c8.03956,1.32062 13.35369,-4.438 17.05612,-10.85224c1.19965,5.3109 2.38182,10.28915 2.43747,11.88988c0.30278,8.70833 -0.45119,18.62506 -0.45119,18.62506c0,0 -3.35596,3.21889 -16.78169,3.55139c-10.61403,0.26287 -15.68821,-2.14138 -15.69485,-2.14453c-0.00228,-0.01108 -1.12413,-5.47418 -0.95389,-13.00173z" fill-opacity="0.06275" fill="#000000"/><path d="M336.84543,305.65094c0,0 2.60125,-5.7372 2.50377,-11.39161c-0.05417,-3.14192 -0.50997,-8.55127 -0.7373,-15.63807c-0.05071,-1.58102 0.19145,-2.96646 0.56752,-4.2952c2.78137,3.96807 6.42287,7.17869 11.24658,8.56441c3.80736,1.63723 7.87334,3.71468 12.13401,3.70109c1.466,-0.00468 2.85544,-0.43594 4.21152,-1.01325c1.32874,12.38008 2.68912,19.97301 2.68912,19.97301c0,0 -5.47789,2.60533 -14.85812,3.03411c-9.32198,0.42612 -17.75709,-2.93449 -17.75709,-2.93449z" fill-opacity="0.06275" fill="#000000"/><path d="M305.56509,288.68449c0.30278,8.70833 -0.45119,18.62506 -0.45119,18.62506c0,0 -3.35596,3.21889 -16.78169,3.55139c-10.61403,0.26287 -15.68821,-2.14138 -15.69485,-2.14453c-0.0009,-0.00436 -0.175,-0.85221 -0.37556,-2.3374c3.99409,-0.78628 7.90789,-2.0602 11.76647,-3.34761c7.9182,-3.24703 16.49387,-7.26688 21.53447,-14.40347c0.00094,0.0193 0.00173,0.03815 0.00237,0.05656z" fill-opacity="0.06275" fill="#000000"/><path d="M336.84543,305.65094c0,0 2.60125,-5.7372 2.50377,-11.39161c-0.03292,-1.90962 -0.21421,-4.65684 -0.40239,-8.1092c4.08946,4.00253 9.435,6.93976 14.11909,9.74801c4.63747,2.31963 10.24397,4.81899 15.64897,4.98778c0.4502,3.01553 0.74579,4.66539 0.74579,4.66539c0,0 -5.47789,2.60533 -14.85812,3.03411c-9.32198,0.42612 -17.75709,-2.93449 -17.75709,-2.93449z" fill-opacity="0.06275" fill="#000000"/></g><path d="M297.69444,256.34718c2.74669,-3.57209 3.87437,-9.02764 4.20793,-13.45936c0.13443,1.44361 0.22911,2.85941 0.26173,4.23803c0.08366,3.53538 -0.70269,7.24251 -1.20089,10.6673c-4.64313,4.33467 -7.65505,5.17847 -14.86627,6.30046c5.02327,-2.34764 8.18293,-3.30575 11.5975,-7.74642z" fill-opacity="0.06275" fill="#000000"/><path d="M274.97218,236.57312c0.04221,-1.83817 0.06403,-3.47399 0.07174,-4.94809c1.19644,3.22481 1.27498,6.54988 3.66039,9.07992c3.43225,3.64034 9.18298,5.88045 9.18298,5.88045c0,0 -3.39517,-0.52836 -6.26474,-1.62647c-2.05464,-0.78626 -3.60144,-2.18245 -4.53858,-2.42052c-0.70107,-2.63793 -2.11843,-5.67639 -2.1118,-5.96528z" fill-opacity="0.06275" fill="#000000"/><path d="M276.20379,191.10678c0.14406,-3.44823 0.70501,-6.16253 1.23364,-8.43962c0.30686,5.88996 -0.22661,11.02631 2.05975,15.19835c1.89228,3.45292 6.25697,6.07451 9.7884,9.44447c-4.46564,-1.06091 -7.60245,-1.61265 -10.5848,-5.10165c-0.84711,-0.99102 -1.68194,-1.77485 -2.32151,-2.9029c-0.11935,-1.44041 -0.3246,-4.62945 -0.17549,-8.19865z" fill-opacity="0.06275" fill="#000000"/><path d="M339.82183,248.44057c-0.0212,-0.39131 -0.03803,-0.7763 -0.05087,-1.15555c1.29825,4.04564 2.89461,8.40533 5.58036,11.81491c2.74261,3.48177 5.26539,6.69774 10.09061,8.51472c-6.01185,-0.68971 -9.21309,-4.07345 -13.61561,-8.22507c-0.49537,-3.93792 -1.68401,-5.03392 -2.00449,-10.94901z" fill-opacity="0.06275" fill="#000000"/></g><path d="M282.88184,193.14025l0.00167,-0.00041l0.01394,-0.02438l0.12198,-0.06099l0.87861,-0.75309l0.59044,-0.0738l0.03388,-0.01311l0.03617,0.00335l1.64068,-0.25241l1.77369,-0.12669l0.01886,-0.00618l0.01959,0.00313l3.02918,-0.26341l1.91928,-0.08723l-1.16491,0.45302l-1.56901,0.48277l-1.50518,0.34734l-2.26262,0.23817h-1.61001l-0.08838,0.0221l-0.08974,-0.01574l-1.78622,0.12758z" fill-opacity="0.06275" fill="#000000"/><path d="M279.75835,174.43278h0.09405l0.19678,0.0492l0.8453,0.24151l0.62763,0.20921l1.31176,0.59625l1.21213,0.60607l1.11289,0.66773l1.76968,1.41575l1.46289,1.46289l0.27999,0.3111l-1.50116,-0.50038l-2.35367,-0.91532l-0.00475,-0.0006l-0.00392,-0.00275l-1.62858,-0.62638l-1.94923,-0.97461l-1.22888,-0.73732l-0.95317,-0.60657c0.1245,-0.40857 0.25812,-0.81354 0.40026,-1.2148c0.10157,0.01256 0.20503,0.01903 0.31,0.01903z" fill-opacity="0.06275" fill="#000000"/><path d="M288.73926,216.3225c5.38322,-1.87071 8.72062,-4.65906 12.61521,-8.15729c0.04277,1.21365 0.07617,2.42729 0.09581,3.63686c0.00693,0.42701 -0.01631,0.8599 -0.06216,1.29727c-2.09071,5.84174 -13.14748,7.5711 -18.27647,5.4466c-0.33657,-0.13942 -0.61063,-0.37742 -0.84791,-0.67184c2.64256,-0.27503 5.96029,-1.37255 6.47552,-1.55159z" fill-opacity="0.06275" fill="#000000"/></g><path d="M354.33644,224.12102c2.04588,-1.28491 4.17282,-1.94081 6.459,-2.25148c0.73626,-0.10005 3.18101,0.3991 3.18101,0.3991c0,0 -1.35702,1.56572 -2.08219,2.17457c-2.0282,1.70285 -4.50541,2.60124 -7.17928,2.27585c-1.80959,-0.51635 -2.81521,-0.99184 -2.81521,-0.99184c0,0 2.14407,-1.69499 2.43667,-1.60619z" fill-opacity="0.06275" fill="#000000" stroke-width="0.5"/><path d="M360.64716,212.29751c0.60125,-0.22306 2.74513,-0.21865 2.74513,-0.21865c0,0 -1.26941,2.14197 -2.28375,2.97527c-2.17973,1.79067 -7.52046,3.00426 -7.52046,3.00426c0,0 0.0665,-1.63528 2.15376,-2.85257z" fill-opacity="0.06275" fill="#000000" stroke-width="0.5"/><path d="M352.10495,178.27993c2.24861,1.17556 4.07325,3.44356 5.1609,5.58205c0.53927,1.06029 1.1954,3.00923 1.1954,3.00923c0,0 -2.13636,-0.38188 -2.79226,-0.61442c-3.94721,-1.39944 -6.2873,-8.75001 -6.2873,-8.75001l1.98274,0.16282c0,0 0.65372,0 0.74052,0.61032z" fill-opacity="0.06275" fill="#000000" stroke-width="0.5"/></g><g stroke-width="0"><path d="M295.10128,305.14932c0,0 -1.29652,-1.38748 -1.73139,-3.92716c-0.49754,-2.90568 -0.17618,-7.29151 -0.79904,-12.351c-0.29681,-2.41098 -1.17617,-4.74048 -1.3188,-7.47533c-0.23161,-4.44105 0.57559,-9.19051 0.94365,-14.13338c0.40007,-5.37269 0.36381,-10.99041 0.06979,-17.12081c-0.20326,-4.238 -1.47261,-8.53614 -1.61459,-12.82094c-0.11103,-3.35078 2.32024,-6.33341 2.20338,-9.64073c-0.24532,-6.94279 -1.6412,-13.714 -1.80316,-19.99527c-0.10512,-4.07709 1.25051,-7.31829 1.16025,-10.91069c-0.20015,-7.96599 -0.70555,-13.57347 -0.75578,-17.90702c-0.1233,-10.63646 1.91842,-22.72245 1.91842,-22.72245c0,0 10.90027,-10.89942 25.37142,-10c2.90653,0.18065 5.43387,1.06458 7.7891,1.51571c15.35079,2.94035 19.61938,10.12065 19.61938,10.12065c0,0 1.3691,-0.44314 1.59921,11.36196c0.05785,2.96754 -1.74473,13.52221 -1.56875,17.08912c0.20501,4.15526 2.82444,11.53295 2.91917,16.0096c0.14064,6.64603 -1.79851,11.75242 -1.6405,18.81861c0.09557,4.27392 0.55064,5.53005 0.63514,9.89419c0.04397,2.27055 0.62948,4.27402 0.665,6.54809c0.04179,2.67557 -2.00405,11.6827 -1.95545,14.27752c0.05584,2.9814 1.02062,5.71769 1.07584,8.54747c0.10905,5.58864 1.28755,10.83281 1.34599,15.53972c0.05598,4.50908 -1.3507,9.87125 -1.31349,13.18581c0.03615,3.2211 0.69238,6.42638 0.69238,8.18271c0,5.2945 -2.45455,7.91363 -2.45455,7.91363c0,0 -17.73873,4.45455 -26.31757,4.45455c-8.43631,0 -24.73506,-4.45455 -24.73506,-4.45455z" fill="url(#color-3)"/><path d="M294.14482,266.54866c0,0 1.36221,-5.78598 2.08647,-11.85753c0.58291,-4.88666 0.49287,-9.95829 0.93054,-12.34721c0.50507,-2.75681 2.46348,-5.70912 2.46348,-5.70912c0,0 4.85564,-5.97784 8.52184,-6.46042c2.78185,-0.36617 7.19959,0.34473 11.76654,0.48788c8.476,0.26567 17.46599,0.33511 17.46599,0.33511c0,0 1.30264,-0.03865 1.86981,1.06699c1.62613,3.16997 3.96226,10.54946 4.94916,14.65198c0.4667,1.94008 -0.3759,4.17102 0.0382,7.02349c0.72988,5.02775 2.59153,10.67316 2.59153,10.67316c0,0 -11.19692,6.14784 -24.62111,6.11846c-13.92855,-0.03049 -28.06244,-3.98279 -28.06244,-3.98279z" fill="url(#color-4)"/><path d="M294.14482,266.54866c0,0 1.36221,-5.78598 2.08647,-11.85753c0.58292,-4.88665 0.49286,-9.95829 0.93054,-12.34721c0.50507,-2.75681 2.46348,-5.70912 2.46348,-5.70912c0,0 4.85564,-5.97784 8.52184,-6.46042c2.78186,-0.36617 7.19959,0.34473 11.76654,0.48788c8.476,0.26567 17.46599,0.33511 17.46599,0.33511c0,0 1.30264,-0.03865 1.86981,1.06699c1.62613,3.16997 3.96227,10.54946 4.94916,14.65198c0.4667,1.94008 -0.3759,4.17102 0.0382,7.02349c0.72988,5.02775 2.59153,10.67316 2.59153,10.67316c0,0 -11.19692,6.14784 -24.62111,6.11846c-13.92855,-0.03049 -28.06244,-3.98279 -28.06244,-3.98279zM329.56836,233.28619c-2.19665,-0.07069 -9.90049,0.01816 -15.0264,-0.17378c-3.2977,-0.12348 -6.66362,-0.83459 -9.6356,1.02404c-1.2085,0.75416 -1.57124,0.92464 -0.37685,3.03112c0.69025,1.21735 4.64206,1.90253 5.94345,2.2924c5.60017,1.67768 9.40044,2.13366 15.45214,1.66528c4.21578,-0.60033 10.72272,-0.50914 13.18522,-4.33381c1.72304,-2.67617 -7.2884,-3.43272 -9.54197,-3.50524z" fill-opacity="0.06275" fill="#000000"/><path d="M294.14482,266.54866c0,0 1.36221,-5.78598 2.08647,-11.85753c0.58292,-4.88665 0.49286,-9.95829 0.93054,-12.34721c0.20615,-1.1252 0.6544,-2.28297 1.11279,-3.25928c0.81404,0.84332 1.63048,1.68433 2.45921,2.51235c4.09661,3.51445 8.84073,6.87228 14.40911,7.41954c3.12178,0.30681 6.31327,0.19172 9.44663,0.41156c6.0639,-0.34795 14.77901,-2.36482 18.04643,-8.28825c0.63753,2.05589 1.19415,4.04464 1.56265,5.57651c0.4667,1.94008 -0.3759,4.17102 0.0382,7.02349c0.72988,5.02775 2.59153,10.67316 2.59153,10.67316c0,0 -11.19692,6.14784 -24.62111,6.11846c-13.92855,-0.03049 -28.06244,-3.98279 -28.06244,-3.98279z" fill-opacity="0.06275" fill="#000000"/><path d="M294.14482,266.54866c0,0 1.36221,-5.78598 2.08647,-11.85753c0.11428,-0.95804 0.2027,-1.92319 0.27429,-2.87384c7.81131,5.45816 15.95765,7.53057 25.73133,7.53458c8.65015,-0.00354 14.85687,-0.87029 21.94772,-6.02775c0.01458,0.1371 0.03188,0.27566 0.05221,0.41572c0.72988,5.02775 2.59153,10.67316 2.59153,10.67316c0,0 -11.19692,6.14784 -24.62111,6.11846c-13.92855,-0.03049 -28.06244,-3.98279 -28.06244,-3.98279z" fill-opacity="0.06275" fill="#000000"/><path d="M295.10128,305.14932c0,0 -1.29652,-1.38748 -1.73139,-3.92716c-0.49754,-2.90568 -0.17618,-7.29151 -0.79904,-12.351c-0.29681,-2.41098 -1.17617,-4.74048 -1.3188,-7.47533c-0.23161,-4.44105 0.57559,-9.19051 0.94365,-14.13338c0.40007,-5.37269 0.36381,-10.99041 0.06979,-17.12081c-0.20326,-4.238 -1.47261,-8.53614 -1.61459,-12.82094c-0.11103,-3.35078 2.32024,-6.33341 2.20338,-9.64073c-0.24532,-6.94279 -1.6412,-13.714 -1.80316,-19.99527c-0.01894,-0.73445 0.00953,-1.44178 0.06841,-2.12892c1.20248,7.89942 3.33211,15.39019 10.02074,20.58523c4.31671,1.2867 7.41552,-1.12202 11.45719,-2.28905c4.34625,-1.25497 9.27005,-1.24007 13.75702,-1.24007c4.21341,-0.01422 6.53506,2.43466 10.29596,3.42368c2.65128,0.69722 6.60532,-0.12655 8.05695,-2.67162c1.07523,-1.88513 1.40553,-4.3965 1.92483,-6.48315c0.74794,-5.93202 0.85791,-11.65421 1.28778,-17.57563c0.12483,-1.71956 -0.08816,-3.42718 -0.22288,-5.139c0.68821,2.9072 1.35931,5.84981 1.40641,8.07539c0.14064,6.64603 -1.79851,11.75242 -1.6405,18.81861c0.09557,4.27392 0.55064,5.53005 0.63514,9.89419c0.04397,2.27055 0.62948,4.27402 0.665,6.54809c0.04179,2.67557 -2.00405,11.6827 -1.95545,14.27752c0.05584,2.9814 1.02062,5.71769 1.07584,8.54747c0.10905,5.58864 1.28755,10.83281 1.34599,15.53972c0.05598,4.50908 -1.3507,9.87125 -1.31349,13.18581c0.03615,3.2211 0.69238,6.42638 0.69238,8.18271c0,5.2945 -2.45455,7.91363 -2.45455,7.91363c0,0 -17.73873,4.45455 -26.31757,4.45455c-8.43631,0 -24.73506,-4.45455 -24.73506,-4.45455z" fill-opacity="0.06275" fill="#000000"/><path d="M291.45559,178.86699c-0.1233,-10.63646 1.91842,-22.72245 1.91842,-22.72245c0,0 10.90027,-10.89942 25.37142,-10c2.90653,0.18065 5.43387,1.06458 7.7891,1.51571c15.35079,2.94035 19.61938,10.12065 19.61938,10.12065c0,0 1.3691,-0.44314 1.59921,11.36196c0.03413,1.75062 -0.57919,6.14163 -1.05182,10.18082c-6.97423,-1.04757 -13.13047,6.29375 -18.88291,9.16826c-3.87579,1.5478 -9.65923,4.02211 -13.9087,2.38153c-2.7677,-1.06852 -4.74931,-3.5174 -7.08894,-5.19661c-4.25781,-3.55073 -9.83557,-5.60869 -15.33029,-5.24209c-0.017,-0.54102 -0.02902,-1.06304 -0.03487,-1.56779z" fill-opacity="0.06275" fill="#000000"/><path d="M295.10128,305.14932c0,0 -1.29652,-1.38748 -1.73139,-3.92716c-0.49754,-2.90568 -0.17618,-7.29151 -0.79904,-12.351c-0.29681,-2.41098 -1.17617,-4.74048 -1.3188,-7.47533c-0.23161,-4.44105 0.57559,-9.19051 0.94365,-14.13338c0.40007,-5.37269 0.36381,-10.99041 0.06979,-17.12081c-0.20326,-4.238 -1.47261,-8.53614 -1.61459,-12.82094c-0.11103,-3.35078 2.32024,-6.33341 2.20338,-9.64073c-0.03244,-0.91809 -0.085,-1.83317 -0.15216,-2.74452c1.6697,3.81622 4.73677,8.8877 9.04485,8.31895c1.83978,-0.24289 2.65132,-1.80321 3.8096,-2.9615c1.46495,-1.46495 3.1985,-2.35039 5.19035,-2.84247c4.78158,-1.36548 10.71026,-2.49286 15.70277,-1.94551c2.62295,0.28756 4.65583,1.68559 6.98364,2.57443c1.65979,1.11924 2.84983,2.88818 4.71966,3.69674c4.91743,2.12641 8.1508,-0.57421 9.76326,-4.38814c0.08391,0.99382 0.15367,2.10614 0.18195,3.56644c0.04397,2.27055 0.62948,4.27402 0.665,6.54809c0.04179,2.67557 -2.00405,11.6827 -1.95545,14.27752c0.05584,2.9814 1.02062,5.71769 1.07584,8.54747c0.10905,5.58864 1.28755,10.83281 1.34599,15.53972c0.05598,4.50908 -1.3507,9.87125 -1.31349,13.18581c0.03615,3.2211 0.69238,6.42638 0.69238,8.18271c0,5.2945 -2.45455,7.91363 -2.45455,7.91363c0,0 -17.73873,4.45455 -26.31757,4.45455c-8.43631,0 -24.73506,-4.45455 -24.73506,-4.45455z" fill-opacity="0.06275" fill="#000000"/><path d="M293.37401,156.14452c0,0 10.90027,-10.89942 25.37142,-10c2.90653,0.18065 5.43387,1.06458 7.7891,1.51571c15.35079,2.94035 19.61938,10.12065 19.61938,10.12065c0,0 1.3691,-0.44314 1.59921,11.36196c0.02263,1.16067 -0.23935,3.48199 -0.55623,6.09191c-6.08655,-1.69216 -10.62583,2.35052 -16.1249,5.09124c-4.7566,2.03621 -10.09495,5.03647 -15.2248,2.68041c-2.08092,-0.95573 -3.98191,-3.07937 -5.73459,-4.53833c-4.91783,-3.5094 -12.41902,-5.99654 -18.59317,-4.11278c0.34412,-9.26957 1.85458,-18.21076 1.85458,-18.21076z" fill-opacity="0.06275" fill="#000000"/><path d="M295.10128,305.14932c0,0 -1.29652,-1.38748 -1.73139,-3.92716c-0.49754,-2.90568 -0.17618,-7.29151 -0.79904,-12.351c-0.29681,-2.41098 -1.17617,-4.74048 -1.3188,-7.47533c-0.23161,-4.44105 0.57559,-9.19051 0.94365,-14.13338c0.39641,-5.32355 0.36444,-10.88766 0.07779,-16.95272c0.61336,0.57894 1.2986,1.09511 2.01128,1.56315c0.43845,0.402 0.92397,0.71486 1.45159,0.87784c0.15234,0.08568 0.30459,0.16969 0.45632,0.25215c1.41069,0.76668 2.41349,2.01942 3.94123,2.60373c2.94523,1.12645 6.8471,0.5079 9.89876,0.06551c4.32227,-0.02664 8.59214,-2.00319 12.93543,-2.36723c4.18051,-0.3504 8.58615,0.64047 12.52513,1.95438c4.5039,1.48884 8.19894,1.35663 11.62557,-0.44636c0.30535,1.8611 0.72872,3.66792 0.76475,5.51455c0.10905,5.58864 1.28755,10.83281 1.34599,15.53972c0.05598,4.50908 -1.3507,9.87125 -1.31349,13.18581c0.03615,3.2211 0.69238,6.42638 0.69238,8.18271c0,5.2945 -2.45455,7.91363 -2.45455,7.91363c0,0 -17.73873,4.45455 -26.31757,4.45455c-8.43631,0 -24.73506,-4.45455 -24.73506,-4.45455z" fill-opacity="0.06275" fill="#000000"/><path d="M293.37401,156.14452c0,0 10.90027,-10.89942 25.37142,-10c2.90653,0.18065 5.43387,1.06458 7.7891,1.51571c15.35079,2.94035 19.61938,10.12065 19.61938,10.12065c0,0 1.3691,-0.44314 1.59921,11.36196c0.00349,0.17917 0.0002,0.38599 -0.00902,0.61727c-5.88855,-2.21528 -12.0044,2.40244 -17.59552,5.18377c-2.52814,1.68543 -7.56214,4.69709 -10.77164,3.92529c-3.3985,-0.81724 -6.26701,-4.34764 -9.34374,-5.89693c-5.73289,-2.85558 -11.47087,-6.31405 -17.99902,-6.24486c0.56609,-6.00265 1.33983,-10.58286 1.33983,-10.58286z" fill-opacity="0.06275" fill="#000000"/><path d="M293.37401,156.14452c0,0 10.90027,-10.89942 25.37142,-10c2.90653,0.18065 5.43387,1.06458 7.7891,1.51571c15.35079,2.94035 19.61938,10.12065 19.61938,10.12065c0,0 1.3691,-0.44314 1.59921,11.36196c0.02188,1.12252 -0.41606,5.65418 -0.7188,8.15906c-6.75986,-2.55796 -11.63988,2.48543 -16.77861,6.15594c-4.49015,3.00298 -11.78492,4.42656 -16.91847,1.96423c-2.14893,-1.03075 -4.80267,-3.55601 -6.74734,-4.85485c-5.02173,-2.24894 -9.63905,-3.48462 -15.18894,-3.64534c0.19865,-9.86 1.97305,-20.77735 1.97305,-20.77735z" fill-opacity="0.06275" fill="#000000"/><path d="M293.37401,156.14452c0,0 10.90027,-10.89942 25.37142,-10c2.90653,0.18065 5.43387,1.06458 7.7891,1.51571c15.35079,2.94035 19.61938,10.12065 19.61938,10.12065c0,0 1.3691,-0.44314 1.59921,11.36196c0.01526,0.78249 -0.09884,2.09251 -0.27191,3.66283c-4.43067,-0.29958 -5.32485,-1.61035 -9.0545,0.02084c-1.76904,0.7737 -7.90165,4.14308 -9.23496,5.47891c-3.00832,2.52281 -9.5732,4.19402 -13.08175,2.02092c-2.15341,-1.33376 -4.55338,-3.22625 -6.48963,-4.83777c-4.68871,-3.35322 -11.76441,-7.00454 -17.86352,-5.51529c0.57664,-7.42674 1.61716,-13.82876 1.61716,-13.82876z" fill-opacity="0.06275" fill="#000000"/><path d="M295.10128,305.14932c0,0 -1.29652,-1.38748 -1.73139,-3.92716c-0.49754,-2.90568 -0.17618,-7.29151 -0.79904,-12.351c-0.29681,-2.41098 -1.17617,-4.74048 -1.3188,-7.47533c-0.23161,-4.44105 0.57559,-9.19051 0.94365,-14.13338c0.10804,-1.4509 0.18426,-2.91967 0.23217,-4.41158c2.09618,1.25438 4.26846,2.35541 6.448,3.21974c6.23679,1.1533 12.77423,1.14165 19.08764,0.74191c3.17293,-0.2009 6.25783,-0.98495 9.44497,-0.98679c3.71225,-0.45832 7.73199,-0.5465 11.48738,-0.562c2.11666,-0.00873 3.31857,0.40461 5.42609,-0.34189c1.34573,-0.47667 2.61359,-0.7107 3.74304,-1.22151c0.36151,4.33131 1.11802,8.41935 1.16455,12.16683c0.05598,4.50908 -1.3507,9.87125 -1.31349,13.18581c0.03615,3.2211 0.69238,6.42638 0.69238,8.18271c0,5.2945 -2.45455,7.91363 -2.45455,7.91363c0,0 -17.73873,4.45455 -26.31757,4.45455c-8.43631,0 -24.73506,-4.45455 -24.73506,-4.45455z" fill-opacity="0.06275" fill="#000000"/><path d="M295.10128,305.14932c0,0 -1.29652,-1.38748 -1.73139,-3.92716c-0.49754,-2.90568 -0.17618,-7.29151 -0.79904,-12.351c-0.29681,-2.41098 -1.17617,-4.74048 -1.3188,-7.47533c-0.14709,-2.82034 0.12478,-5.76505 0.43707,-8.8047c3.42209,2.23069 8.14224,3.81395 11.30687,4.08583c8.68531,1.06234 17.35444,1.14171 26.09729,1.1316c6.54537,-0.72726 14.34019,-1.10131 19.97081,-4.98432c0.09118,1.03693 0.15315,2.05183 0.16545,3.04292c0.05598,4.50908 -1.3507,9.87125 -1.31349,13.18581c0.03615,3.2211 0.69238,6.42638 0.69238,8.18271c0,5.2945 -2.45455,7.91363 -2.45455,7.91363c0,0 -17.73873,4.45455 -26.31757,4.45455c-8.43631,0 -24.73506,-4.45455 -24.73506,-4.45455z" fill-opacity="0.06275" fill="#000000"/></g><g stroke-width="0"><path d="M348.80059,153.02414c0,0 6.18323,6.83811 0.80736,9.40064c-1.01524,0.48394 -2.54075,1.51686 -4.35356,2.28249c-3.3955,1.43406 -7.79894,2.92991 -11.74501,5.15773c-5.17535,2.92183 -9.18892,6.79235 -13.2683,6.79235c-4.67788,0 -10.88773,-5.43299 -14.70638,-7.85404c-4.26232,-2.70235 -13.83726,-5.31592 -18.03776,-7.9099c-1.93654,-1.19589 -0.78203,-3.71884 -0.55607,-4.32907c0.97718,-2.63898 3.1467,-3.34096 3.1467,-3.34096c0,0 -3.06842,-2.69085 -1.90848,-5.59027c0.63533,-1.58809 4.21286,-3.16901 6.36386,-4.56687c4.72877,-3.07306 16.08494,-4.1114 23.80527,-4.1114c6.41892,0 14.01698,0.86792 20.31396,2.81679c4.63178,1.43349 8.55962,3.68043 10.79651,5.43288c3.08107,2.41381 -0.65809,5.81962 -0.65809,5.81962z" fill="url(#color-5)"/><path d="M342.83738,150.21497c0,1.34472 -5.07241,3.15272 -11.34945,5.84177c-3.56221,1.52603 -7.0602,3.38475 -11.36482,3.38475c-4.57152,0 -9.44692,-2.87094 -12.98689,-4.97404c-5.66699,-3.36677 -10.32024,-4.73367 -10.32024,-6.03107c0,-2.10784 10.60206,-6.55861 22.49194,-6.55861c11.88988,0 23.52946,6.22937 23.52946,8.33721z" fill-opacity="0.12549" fill="#000000"/><path d="M348.80059,153.02414c0,0 6.18323,6.83811 0.80736,9.40064c-1.01524,0.48394 -2.54075,1.51686 -4.35356,2.28249c-3.3955,1.43406 -7.79894,2.92991 -11.74501,5.15773c-5.17535,2.92183 -9.18892,6.79235 -13.2683,6.79235c-4.67788,0 -10.88773,-5.43299 -14.70638,-7.85404c-4.26232,-2.70235 -13.83726,-5.31592 -18.03776,-7.9099c-1.93654,-1.19589 -0.78203,-3.71884 -0.55607,-4.32907c0.97718,-2.63898 3.1467,-3.34096 3.1467,-3.34096c0,0 -3.06842,-2.69085 -1.90848,-5.59027c0.63533,-1.58809 4.21286,-3.16901 6.36386,-4.56687c1.40807,-0.91506 3.40376,-1.6497 5.7161,-2.23025c-3.92429,1.86613 -7.1719,5.02739 -7.13258,9.08561c1.26521,2.89606 4.87474,4.70067 7.61748,6.25516c-2.03345,-0.21141 -5.91497,-1.76271 -6.78252,0.0885c-0.64395,1.37408 2.44028,3.9171 3.93561,4.32492c1.4223,0.3879 2.82046,0.8818 4.22016,1.34747c2.77244,0.6941 5.63597,1.10884 8.19781,2.44919c5.0472,2.64069 8.06997,6.14605 13.71911,2.20705c2.02815,-1.21723 4.06475,-2.49544 6.33867,-3.22101c4.56445,-1.45644 11.92283,-2.60654 15.17418,-6.45138c-0.55483,-1.7168 -6.40101,-0.19255 -7.57091,-0.4098c1.87883,-0.81799 7.33588,-4.55975 8.02833,-6.28688c1.34301,-3.34977 -2.90848,-5.89504 -5.39389,-7.39937c-0.4504,-0.29947 -0.91469,-0.59223 -1.3906,-0.87622c4.38859,1.4366 8.09225,3.57362 10.23879,5.25529c3.08107,2.41381 -0.65809,5.81962 -0.65809,5.81962z" fill-opacity="0.06275" fill="#000000"/><path d="M348.80059,153.02414c0,0 6.18323,6.83811 0.80736,9.40064c-1.01524,0.48394 -2.54075,1.51686 -4.35356,2.28249c-3.3955,1.43406 -7.79894,2.92991 -11.74501,5.15773c-5.17535,2.92183 -9.18892,6.79235 -13.2683,6.79235c-4.67788,0 -10.88773,-5.43299 -14.70638,-7.85404c-4.26232,-2.70235 -13.83726,-5.31592 -18.03776,-7.9099c-1.93654,-1.19589 -0.78203,-3.71884 -0.55607,-4.32907c0.97718,-2.63898 3.1467,-3.34096 3.1467,-3.34096c0,0 -3.06842,-2.69085 -1.90848,-5.59027c0.3708,-0.92687 1.74381,-1.85129 3.25049,-2.7383c-0.23743,0.75324 -0.30028,1.58994 -0.13629,2.49059c0.63114,3.46631 3.21779,5.78969 6.06079,7.40601c-2.02294,-0.43149 -4.29991,-0.98158 -6.10799,-0.10616c-1.97745,0.95742 -1.85282,2.57008 -0.54238,4.04207c0.54247,0.60935 1.19891,1.03979 1.8784,1.47065c1.36138,0.86324 2.74323,1.67619 4.09025,2.56486c2.2952,0.92663 4.94712,0.73783 7.15826,1.70837c0.97265,0.42693 1.46619,1.80305 2.49021,2.08184c0.62639,0.17054 1.35696,0.16915 1.94465,-0.10665c0.46351,-0.21753 0.50528,-1.11041 1.01557,-1.15241c2.42738,-0.19979 4.81159,2.16072 6.07137,3.96099c2.11541,1.19161 5.54272,1.85846 7.66794,0.12911c0.60158,-0.48952 0.81729,-1.32076 1.28188,-1.9418c0.88759,-1.18646 3.05718,-1.8085 4.41064,-2.16442c1.08485,-0.28528 2.12626,0.71938 3.20738,1.01847c1.53355,0.42425 3.47108,-0.63105 4.84387,-1.18485c2.45577,-1.46436 4.84383,-2.74939 7.39036,-4.02247c0.97455,-0.4872 2.74307,-1.16536 3.11142,-2.33075c0.40735,-1.2888 -0.25149,-2.37433 -1.31778,-3.00295c-0.71602,-0.42212 -1.94217,-0.63847 -3.29105,-0.69721c3.34049,-1.89622 5.71885,-5.5552 4.98189,-9.13817c0.68953,0.44394 1.30022,0.8776 1.81971,1.28459c3.08107,2.41381 -0.65809,5.81962 -0.65809,5.81962z" fill-opacity="0.06275" fill="#000000"/><path d="M348.80059,153.02414c0,0 6.18323,6.83811 0.80736,9.40064c-1.01524,0.48394 -2.54075,1.51686 -4.35356,2.28249c-3.3955,1.43406 -7.79894,2.92991 -11.74501,5.15773c-5.17535,2.92183 -9.18892,6.79235 -13.2683,6.79235c-4.67788,0 -10.88773,-5.43299 -14.70638,-7.85404c-4.26232,-2.70235 -13.83726,-5.31592 -18.03776,-7.9099c-1.93654,-1.19589 -0.78203,-3.71884 -0.55607,-4.32907c0.97718,-2.63898 3.1467,-3.34096 3.1467,-3.34096c0,0 -3.06842,-2.69085 -1.90848,-5.59027c0.3708,-0.92686 1.74381,-1.85129 3.25049,-2.7383c-0.23742,0.75324 -0.30028,1.58995 -0.13629,2.49059c0.63114,3.46632 3.2178,5.78968 6.06079,7.406c-2.02294,-0.4315 -4.29991,-0.98158 -6.10799,-0.10617c-1.97744,0.95741 -1.85282,2.57008 -0.54237,4.04208c0.54248,0.60935 1.19891,1.03979 1.8784,1.47065c1.36138,0.86324 2.74323,1.67619 4.09026,2.56486c2.29521,0.92663 4.94712,0.73783 7.15826,1.70837c0.97265,0.42693 1.46619,1.80305 2.49021,2.08184c0.62639,0.17054 1.35696,0.16915 1.94465,-0.10665c0.46351,-0.21752 0.50527,-1.11041 1.01556,-1.15241c2.42737,-0.19979 4.81159,2.16072 6.07137,3.96099c2.11541,1.19162 5.54272,1.85846 7.66794,0.12911c0.60158,-0.48952 0.81729,-1.32076 1.28188,-1.9418c0.88759,-1.18646 3.05718,-1.80849 4.41064,-2.16441c1.08485,-0.28528 2.12626,0.71938 3.20739,1.01847c1.53355,0.42425 3.47108,-0.63105 4.84387,-1.18485c2.45577,-1.46436 4.84383,-2.74939 7.39036,-4.02247c0.97455,-0.4872 2.74307,-1.16537 3.11142,-2.33075c0.40735,-1.2888 -0.25149,-2.37432 -1.31778,-3.00295c-0.71602,-0.42212 -1.94217,-0.63847 -3.29105,-0.6972c3.34049,-1.89622 5.71885,-5.5552 4.98189,-9.13817c0.68953,0.44395 1.30022,0.8776 1.81971,1.28459c3.08107,2.41381 -0.65809,5.81962 -0.65809,5.81962z" fill-opacity="0.06275" fill="#000000"/><path d="M348.80059,153.02414c0,0 6.18323,6.83811 0.80736,9.40064c-1.01524,0.48394 -2.54075,1.51686 -4.35356,2.28249c-3.3955,1.43406 -7.79894,2.92991 -11.74501,5.15773c-5.17535,2.92183 -9.18892,6.79235 -13.2683,6.79235c-4.67788,0 -10.88773,-5.43299 -14.70638,-7.85404c-4.26232,-2.70235 -13.83726,-5.31592 -18.03776,-7.9099c-1.93654,-1.19589 -0.78203,-3.71884 -0.55607,-4.32907c0.97718,-2.63898 3.1467,-3.34096 3.1467,-3.34096c0,0 -3.06842,-2.69085 -1.90848,-5.59027c0.12804,-0.32006 0.37558,-0.63982 0.70687,-0.95785c-0.02018,2.69473 3.40912,5.0436 6.33481,6.70621c0.01571,0.01219 0.03145,0.02435 0.04722,0.03647c-2.29611,0.01722 -6.1222,0.20679 -7.2926,2.28286c-2.01267,3.5701 5.85199,7.12326 8.28282,8.13456c1.89619,0.51855 4.50855,0.29964 6.19276,1.34326c1.17768,0.72975 1.93907,2.79456 3.39523,3.08435c0.66424,0.13219 1.43514,0.0758 2.01269,-0.27792c0.59304,-0.3632 0.17147,-1.28898 0.81616,-1.5957c1.62527,-0.77324 4.53915,1.24048 4.79022,2.81968c-2.79213,4.58568 5.27066,5.34908 7.9963,4.55874c3.41425,-0.99002 1.91924,-2.59998 2.81144,-4.98397c0.62206,-1.66215 4.25308,-1.919 5.66226,-1.92371c1.26233,0.01665 0.63265,1.35942 2.46621,1.53479c1.00263,0.0959 2.35367,-0.93277 3.31589,-1.21131c3.70209,-1.07167 6.26234,-2.05397 9.52768,-4.0752c2.5181,-1.55869 4.76705,-2.09424 4.49223,-5.5368c-0.78576,-1.53778 -2.09582,-2.73711 -3.67604,-3.38006c1.17701,-0.88061 2.45971,-2.75354 2.8047,-3.49169c0.78402,-1.67751 0.45006,-2.92315 -0.27897,-4.14184c0.31355,0.22107 0.60468,0.43732 0.87171,0.64652c3.08107,2.41381 -0.65809,5.81962 -0.65809,5.81962z" fill-opacity="0.06275" fill="#000000"/><path d="M333.50935,169.86501c-5.17535,2.92183 -9.18892,6.79235 -13.2683,6.79235c-4.67788,0 -10.88773,-5.43299 -14.70638,-7.85404c-4.26232,-2.70235 -13.83726,-5.31592 -18.03776,-7.9099c-1.93654,-1.19589 -0.78203,-3.71884 -0.55607,-4.32907c0.13613,-0.36763 0.29539,-0.69767 0.46871,-0.99345c-0.72583,1.43571 -0.22745,2.87067 0.97735,4.52631c1.77513,1.44185 3.64957,2.1101 5.54983,2.68351c0.93479,0.46321 1.76864,0.82467 2.32145,1.05465c0.57545,0.15737 1.21685,0.24681 1.87826,0.32424c0.43326,0.18262 0.86505,0.38626 1.29451,0.619c3.25078,1.7617 6.25842,3.68472 9.58098,5.34021c2.99009,1.99651 6.0615,5.47352 9.95542,5.49207c3.88318,0.01849 7.57953,-3.45568 11.1146,-4.93752c1.6504,-0.44011 3.42086,-1.03516 5.20279,-1.7506c-0.59863,0.29952 -1.19201,0.61288 -1.77538,0.94224z" fill-opacity="0.06275" fill="#000000"/><path d="M348.80059,153.02414c0,0 6.18323,6.83811 0.80736,9.40064c-1.01524,0.48394 -2.54075,1.51686 -4.35356,2.28249c-1.77742,0.75068 -3.83104,1.51829 -5.95066,2.39896c2.44218,-1.23424 4.74455,-2.65472 6.60528,-4.16538c1.67185,-1.35731 3.41937,-1.65918 4.35109,-3.73669c0.25707,-1.76352 -0.11867,-3.52882 -1.54233,-4.78408c-0.26978,-0.23787 -0.77957,-0.56921 -1.19,-0.68938c0.20158,-0.15953 0.39977,-0.34579 0.50134,-0.47345c0.09225,-0.11595 1.22594,-1.91819 1.25887,-2.00688c0.44004,-1.18525 0.45967,-2.62097 0.22823,-4.00003c2.97649,2.41084 -0.71562,5.7738 -0.71562,5.7738z" fill-opacity="0.06275" fill="#000000"/><path d="M290.21772,152.12957c0.13551,0.08969 0.43146,0.3159 0.78046,0.5396c-0.38261,0.10191 -0.72466,0.24134 -1.05162,0.42181c-0.44287,-0.43212 -1.78935,-1.87542 -2.00123,-3.63654c0.36912,1.04234 1.16466,1.94197 2.27239,2.67513z" fill-opacity="0.06275" fill="#000000"/></g><path d="M308.41037,167.04863c0.0679,-0.74692 0.81482,-0.67902 0.81482,-0.67902c1.34381,0.14502 2.35911,0.81628 3.44181,1.6012l0.61176,0.40784c0.20678,0.13354 0.34365,0.36603 0.34365,0.63049c0,0.22494 -0.09903,0.42676 -0.25587,0.56423c-0.13747,0.15684 -0.33928,0.25587 -0.56423,0.25587c-0.04044,0 -0.08013,-0.0032 -0.11884,-0.00936l-0.96858,-0.13837l0.02759,-0.19311c-0.33405,-0.033 -0.60633,-0.12802 -0.92181,-0.29921c-0.2146,-0.09282 -0.45697,-0.21062 -0.74898,-0.35649l-0.00913,-0.01122l-0.00268,0.00491l-0.75769,-0.41328c-0.22009,-0.11454 -0.37623,-0.33503 -0.40084,-0.59386c-0.21634,-0.07465 -0.53648,-0.27029 -0.491,-0.77063z" fill-opacity="0.06275" fill="#000000" stroke-width="0.5"/><path d="M327.29906,169.53379c-0.1611,0.05743 -0.33686,0.11978 -0.53076,0.19022l-0.03256,-0.00181l0.00288,0.01056l-0.75449,0.20577c-0.06779,0.02014 -0.13959,0.03095 -0.21391,0.03095c-0.26776,0 -0.50276,-0.14032 -0.63545,-0.35144c-0.21979,-0.01089 -0.49364,-0.11043 -0.63163,-0.49679c-0.25225,-0.70631 0.45405,-0.95856 0.45405,-0.95856c0.32087,-0.1146 0.63571,-0.22494 0.94898,-0.33019l0.04537,-0.05774l0.03799,0.02985c0.19849,-0.06616 0.39651,-0.13024 0.59519,-0.19202c0.28683,-0.25805 0.60263,-0.47588 0.9471,-0.63449l0.03833,0.00062l-0.0043,-0.01289l1.03484,-0.34495c0.07926,-0.0285 0.16471,-0.04402 0.25378,-0.04402c0.3061,0 0.56936,0.18337 0.68594,0.44625c0.31953,0.08593 0.55473,0.37766 0.55473,0.72433c0,0.01175 -0.00027,0.02343 -0.0008,0.03505c0.00053,0.01162 0.0008,0.0233 0.0008,0.03505c0,0.26446 -0.13688,0.49695 -0.34365,0.63049l-0.83148,0.55432l-0.1104,-0.1656c-0.30183,0.21851 -0.60424,0.35972 -1.00496,0.51257c-0.12338,0.06864 -0.25231,0.14969 -0.38234,0.25188z" fill-opacity="0.06275" fill="#000000" stroke-width="0.5"/><g stroke-width="0"><path d="M324.21551,202.70848c0,0 0.17502,-1.22753 0.34962,-1.91798c0.22461,-0.88823 0.8862,-2.96909 0.8862,-2.96909l2.63336,0.46343c0,0 -0.50101,2.73992 -0.77061,3.74415c-0.19494,0.72611 -0.69692,1.72221 -0.69692,1.72221c0,0 -0.636,-0.02613 -1.52783,-0.47024c-0.60151,-0.29954 -0.87382,-0.57248 -0.87382,-0.57248z" fill="url(#color-6)"/><path d="M324.3282,197.85769c0,0 1.50072,-9.24011 1.74469,-14.19191c0.22503,-4.56728 -0.33311,-14.45869 -0.33311,-14.45869l3.63502,-2.02532c0,0 0.91564,10.69505 0.83835,15.12486c-0.10061,5.76632 -1.39071,16.53304 -1.39071,16.53304c0,0 -1.07894,0.2076 -2.89318,-0.10093c-1.26817,-0.21567 -1.60107,-0.88104 -1.60107,-0.88104z" fill="url(#color-7)"/><path d="M326.07291,183.66579c0.22503,-4.56728 -0.33311,-14.45869 -0.33311,-14.45869l3.63502,-2.02532c0,0 0.91564,10.69505 0.83835,15.12486c-0.04224,2.42111 -0.29418,5.72374 -0.57228,8.74082c-0.83557,-1.67354 -2.11887,-2.87011 -4.03503,-2.27941c0.21713,-1.84189 0.39575,-3.65519 0.46705,-5.10226z" fill-opacity="0.06275" fill="#000000"/><path d="M325.7398,169.20707l3.63502,-2.02532c0,0 0.62447,7.29411 0.79846,12.32982c-1.40681,-1.01431 -2.84,-1.26677 -4.06472,-0.51831c-0.07594,-4.59682 -0.36876,-9.78619 -0.36876,-9.78619z" fill-opacity="0.06275" fill="#000000"/></g><g stroke-width="0"><path d="M310.88917,204.81192c0,0 -0.28223,-1.65946 -0.40385,-2.64409c-0.15391,-1.24598 -0.44577,-4.23401 -0.44577,-4.23401l3.01899,-0.42481c0,0 0.65944,3.08934 0.79439,4.21935c0.09652,0.80823 0.28695,2.50427 0.28695,2.50427c0,0 -0.53987,0.43566 -1.5082,0.54267c-1.23959,0.13698 -1.7425,0.03662 -1.7425,0.03662z" fill="url(#color-8)"/><path d="M309.26354,199.647c0,0 -1.18687,-12.80024 -1.19716,-18.2902c-0.01017,-5.42287 1.13578,-14.45074 1.13578,-14.45074l3.44727,1.77983c0,0 -0.17839,11.9571 0.0311,17.03183c0.19913,4.82375 1.19636,12.70182 1.19636,12.70182c0,0 -0.25921,0.60071 -1.22117,0.89755c-2.43498,0.75139 -3.39219,0.32992 -3.39219,0.32992z" fill="url(#color-9)"/><path d="M308.06638,181.35683c-0.01017,-5.42287 1.13578,-14.45074 1.13578,-14.45074l3.44727,1.77983c0,0 -0.17839,11.9571 0.0311,17.03183c0.05182,1.25521 0.15767,2.71724 0.28594,4.19346c-1.47926,-0.96416 -3.05884,-0.73027 -4.47127,0.29749c-0.23067,-3.26118 -0.42468,-6.64641 -0.42882,-8.85187z" fill-opacity="0.06275" fill="#000000"/><path d="M309.10504,166.90605l3.44727,1.77983c0,0 -0.08266,5.54049 -0.06937,10.67921c-0.06948,-0.05227 -0.14139,-0.10265 -0.21584,-0.15103c-1.18658,-0.77102 -2.80008,-0.9761 -4.22733,-0.6021c0.2481,-5.26827 1.06526,-11.70591 1.06526,-11.70591z" fill-opacity="0.06275" fill="#000000"/></g><path d="M334.35159,223.43271c-4.24504,1.68739 -8.61591,2.97705 -13.15995,3.5828c-3.42966,0.4572 -6.83331,0.52453 -10.26514,0.11169c3.25196,-1.38666 6.4891,-2.76809 10.16774,-3.13235c4.4057,-0.43625 8.50516,-0.72779 12.9895,-0.71172c0.17384,0.00062 0.34531,0.0046 0.51448,0.01129c-0.12385,0.07436 -0.2115,0.12432 -0.24663,0.13829z" fill-opacity="0.06275" fill="#000000" stroke-width="0"/><path d="M320.26817,216.7973c-1.91042,0.74251 -3.81898,1.85527 -5.82543,2.30189c-2.52762,0.56263 -4.34202,0.305 -5.95235,0.73042c-0.82229,0.21724 -1.59137,0.61258 -2.37502,1.38619c0.37862,-0.63419 0.73808,-1.23275 1.09318,-1.59229c2.04485,-2.07047 4.91491,-2.61737 7.58792,-3.47695c2.22053,-0.71407 5.61059,-0.92632 7.96067,-0.93758c0.51413,-0.00246 1.4528,-0.33022 1.64725,0.03965c-1.43776,0.2688 -3.38164,1.2554 -4.13622,1.54868z" fill-opacity="0.06275" fill="#000000" stroke-width="0"/><path d="M344.21361,171.26946l0.29827,0.08023c1.5093,0.97169 1.36807,2.01032 -0.33298,2.70806c-2.2729,0.93229 -4.94657,1.23003 -7.34003,1.76191c-1.09807,0.12326 -4.01524,0.88297 -4.41548,-0.85611c-0.17035,-0.74018 1.78782,-1.86371 2.2987,-2.15667c2.46166,-1.41161 6.75831,-2.94216 9.49152,-1.53742z" fill-opacity="0.06275" fill="#000000" stroke-width="0.5"/><path d="M294.5657,166.61408c0.20004,-0.11565 0.41571,-0.11565 0.41571,-0.11565c3.77121,0.02159 7.77826,2.51552 10.11564,5.36083c0.37636,0.45815 1.90775,1.9332 1.82175,2.50843c-0.32009,2.14099 -1.98382,1.17192 -3.13286,0.84363c-2.9657,-1.01176 -5.33226,-3.86413 -8.32877,-5.10877c-0.74373,-0.30892 -2.50436,-0.70477 -2.6196,-1.75425c-0.12566,-1.14437 0.81351,-1.62102 1.72813,-1.73421z" fill-opacity="0.06275" fill="#000000" stroke-width="0.5"/><path d="M340.93699,184.00184c0,0 1.62132,5.42404 0.22154,7.77331c-1.38223,2.31981 -4.17344,3.43656 -6.70049,3.80559c-1.0725,0.17541 -4.57436,0.04572 -4.57436,0.04572c0,0 6.32065,-4.34686 6.84953,-4.6718c2.21368,-1.36009 4.20378,-6.95282 4.20378,-6.95282z" fill-opacity="0.06275" fill="#000000" stroke-width="0.5"/><path d="M299.63604,197.64672c1.86464,1.60686 5.88361,2.87428 7.92189,4.03827l1.52062,1.49679c0,0 -6.64369,-0.73918 -9.94653,-3.02521c-1.19583,-0.82768 -2.95926,-2.25772 -3.11892,-3.86945c-0.19911,-2.00991 -1.51784,-5.80955 0.49988,-4.12016c0,0 1.25842,3.8729 3.12306,5.47976z" fill-opacity="0.06275" fill="#000000" stroke-width="0.5"/></g></g><g stroke="none" stroke-width="0" stroke-linecap="butt"><path d="M329.66223,152.94766l25.17036,-36.82391c0,0 2.03701,4.99955 3.56612,7.09435c1.47548,2.0213 5.41686,6.15835 5.41686,6.15835c0,0 -1.46958,0.45205 -2.82087,0.5817c-1.94317,0.18644 -3.2154,0.07333 -3.2154,0.07333c0,0 0.20366,2.30754 0.49704,3.36211c0.33599,1.20776 1.40848,3.48747 1.40848,3.48747c0,0 -1.05108,0.03016 -1.94113,-0.44037c-0.95529,-0.50503 -2.00792,-0.90755 -2.00792,-0.90755c0,0 0.12889,6.67349 1.15063,9.38359c1.1381,3.01877 5.36663,7.9031 5.36663,7.9031c0,0 -3.77829,1.46816 -6.52773,0.82296c-2.74432,-0.64397 -3.76621,-1.73438 -3.76621,-1.73438c0,0 0.43113,1.1486 0.7297,1.68466c0.30178,0.54181 1.07143,1.54912 1.07143,1.54912c0,0 -0.9055,0.23015 -2.32131,0.13743c-1.51294,-0.09909 -3.53292,-0.74746 -3.53292,-0.74746l1.93578,3.1427c0,0 -7.93919,-1.09131 -11.47802,-1.89639c-5.85219,-1.33138 -8.70154,-2.83081 -8.70154,-2.83081z" fill="url(#color-10)"/><path d="M355.98442,121.13661c1.12004,2.12392 2.78546,3.77322 4.12758,5.71359c0.44245,0.63309 1.62983,1.89069 1.62983,1.89069c0,0 -0.90549,-0.12485 -1.35383,-0.16337c-0.77656,-0.06674 -1.49528,-0.42434 -2.23984,-0.59023c-0.30738,-0.14639 -1.71249,-0.86152 -2.0073,-0.6796c-0.55711,0.34379 0.17315,4.54611 0.39152,5.17781c0.06457,0.23672 0.9513,1.64391 0.9513,1.64391c0,0 -1.52494,-0.96271 -2.67647,-0.67753c-0.5073,0.12563 -0.59968,1.24888 -0.7361,1.69382c-1.11587,2.37208 -0.22743,5.38646 -0.17367,7.87089c0.28124,1.27899 0.54873,2.47118 0.98948,3.70464c0.1397,0.39097 0.30832,0.80638 0.43019,1.20263c0.12037,0.39137 2.06201,2.64188 2.06201,2.64188c0,0 -3.24313,-0.64232 -4.51926,-1.17543c-1.18007,-0.49297 -2.87193,-1.91225 -2.87193,-1.91225c0,0 0.19976,1.51612 0.33939,2.1448c0.10984,0.49454 0.78631,1.9967 0.78631,1.9967c0,0 -1.38332,-0.23672 -2.05575,-0.47539c-0.74105,-0.26303 -2.20468,-1.0368 -2.20468,-1.0368c0,0 0.56308,3.46759 0.26218,3.38218c-4.77242,0.13354 -7.82788,-0.25496 -11.8567,-2.81669c-1.00204,-0.31647 -2.09464,-0.85304 -3.07217,-1.41825l22.31726,-32.64986c0.14534,1.58269 0.55209,3.20235 1.4806,4.53189z" fill-opacity="0.06275" fill="#000000"/><path d="M355.41962,121.5839c0.37925,1.31113 1.16875,2.72448 2.05707,3.78625c0.46215,0.55239 1.52271,1.35643 0.86249,1.25048c-2.63422,-0.58223 -4.26586,-2.59888 -4.17916,1.40699c0.02959,1.36725 0.22943,2.5364 0.84844,3.7069c-0.48996,-0.23981 -1.2514,-0.27934 -1.47741,0.00609c-0.77373,0.97717 -1.19379,2.90159 -1.34228,4.1087c-0.33736,2.36944 -0.09893,4.81353 -0.03452,7.19335c0.20582,0.77166 0.65136,3.67533 1.40671,4.21807c-0.14528,-0.06807 -0.35839,-0.16451 -0.46221,-0.20901c-0.43849,-0.18797 -0.8488,-0.37282 -1.26946,-0.60014c-0.97648,-0.30788 -2.12615,-1.4678 -3.1661,-1.40749c-1.19842,0.06951 -1.33021,3.09534 -0.64596,3.74363c-0.49085,-0.0091 -2.10391,-0.51463 -2.43421,-0.30007c-1.5138,0.9833 1.07458,2.522 -1.4752,2.58189c-1.71486,0.32409 -4.48893,-0.57254 -6.03599,-1.30467c-1.8559,-0.42154 -2.94683,-1.82516 -4.18997,-2.99049l20.43783,-29.90027c0.11026,1.63865 0.41315,3.10016 1.09995,4.70979z" fill-opacity="0.06275" fill="#000000"/></g><g stroke="#000000" stroke-width="0"><path d="M272.6449,121.78159c0,0 3.27609,0.30996 6.20828,-0.54517c2.49919,-0.72886 4.2454,-1.73428 4.2454,-1.73428c0,0 12.08561,18.2915 14.87653,23.86385c1.34962,2.69463 0.97043,7.77606 0.97043,7.77606c0,0 -1.73946,2.54861 -7.75011,3.73254c-5.46531,1.07652 -11.78771,-1.57239 -11.78771,-1.57239l6.92256,-4.88801c0,0 -2.91932,0.35455 -5.12668,0.25611c-2.53142,-0.11291 -4.59576,-0.67746 -4.59576,-0.67746c0,0 2.4043,-2.58768 4.32702,-5.42349c1.39976,-2.06451 2.23916,-4.9847 2.23916,-4.9847c0,0 -1.76114,0.93852 -2.87121,1.2134c-2.9417,0.72845 -4.75283,0.45201 -4.75283,0.45201c0,0 0.83219,-1.10257 1.11959,-1.60595c0.23425,-0.41029 0.47821,-1.19258 0.47821,-1.19258c0,0 -2.1158,-0.21491 -3.59677,-3.15676c-1.56547,-3.10967 -1.47644,-5.0253 -1.47644,-5.0253c0,0 1.05257,-0.22508 2.37892,-1.07768c1.36789,-0.87931 2.29727,-1.78746 2.29727,-1.78746c0,0 -1.35108,0.02565 -2.68529,-1.16694c-1.064,-0.95106 -1.42058,-2.4558 -1.42058,-2.4558z" fill="url(#color-11)" stroke-linecap="round"/><path d="M281.52593,121.17858c2.1551,-0.72142 3.65944,-1.7216 3.65944,-1.7216c0,0 10.48631,18.32612 12.9119,23.90636c0.72329,1.664 0.88185,4.23358 0.89711,5.95915c-0.54743,0.39323 -1.11982,0.77204 -1.74266,1.15108c-1.93969,0.79302 -4.18454,1.91825 -6.23906,1.97368c-0.56234,0.23127 -2.83716,-0.14431 -4.03453,-0.10889c1.61398,-1.3936 3.253,-4.10513 2.84099,-6.53881c-1.8048,-0.316 -3.90488,-0.14599 -5.72264,-0.11776c0.20074,-0.13841 1.13663,-1.70846 1.32606,-1.98474c1.94496,-2.83663 1.90778,-8.40646 1.90778,-8.40646c0,0 -3.63241,1.71887 -6.07956,2.29413c0.49446,-0.90556 1.06275,-2.455 1.06275,-2.455c0,0 -2.30731,-1.31518 -3.33604,-2.09342c-0.88217,-0.97844 -1.98179,-3.77989 -1.98179,-3.77989c0,0 2.37986,-1.66209 3.15054,-2.46159c0.63559,-0.65936 1.14686,-1.9965 1.14686,-1.9965c0,0 -2.41933,-1.80193 -2.96499,-3.05564c0.95313,-0.04994 2.10362,-0.19785 3.19787,-0.56414z" fill-opacity="0.06275" fill="#000000" stroke-linecap="butt"/><path d="M281.52593,121.17858c2.1551,-0.72142 3.65945,-1.7216 3.65945,-1.7216c0,0 10.4863,18.32612 12.91189,23.90636c0.41254,0.94905 0.64135,2.19271 0.76465,3.40632c-0.47162,0.42373 -0.356,0.99182 -2.659,2.01178c-2.88308,1.27686 -5.42802,1.34092 -5.42802,1.34092c0,0 0.21287,-0.9493 0.42708,-1.85912c0.37637,-1.59861 -0.10424,-4.76892 -0.10424,-4.76892l-4.31459,0.86768c0,0 1.10847,-3.92655 1.3875,-5.83235c0.25417,-1.73594 0.21907,-5.1405 0.21907,-5.1405c0,0 -1.06019,0.85909 -2.43918,1.51757c-0.88702,0.42356 -1.96897,0.59367 -2.77638,0.96451c0.1089,-1.05594 0.31027,-1.82915 0.31027,-1.82915c0,0 -1.86903,-0.35523 -3.0529,-1.4352c-1.1018,-1.0051 -1.6219,-3.06742 -1.6219,-3.06742c0,0 1.72627,-0.9146 2.15095,-1.0889c0.87953,-0.36974 3.01357,-3.2346 3.01357,-3.2346c0,0 -2.41691,-2.45611 -3.18313,-3.82425c0.24589,-0.06115 0.49178,-0.13175 0.7349,-0.21313z" fill-opacity="0.06275" fill="#000000" stroke-linecap="butt"/></g><path d="M281.26885,121.9115c-0.46061,-21.2843 15.74514,-40.24789 36.41762,-40.69527c20.67248,-0.44737 38.55413,16.42807 39.01475,37.71238c0.46061,21.2843 -12.7839,38.46427 -37.20971,38.76176c-28.32756,0.34501 -37.76203,-14.49455 -38.22265,-35.77885z" fill="url(#color-12)" stroke="none" stroke-width="0" stroke-linecap="butt"/><g stroke="#000000" stroke-width="0"><path d="M362.00692,109.50686c0,0 5.32784,-5.53024 7.65895,-9.4617c1.6966,-2.86135 5.03922,-11.95397 5.03922,-11.95397c0,0 5.08044,-0.72898 9.92183,4.34881c6.01154,6.30507 4.72815,11.21037 4.72815,11.21037c0,0 -5.05911,5.03678 -14.12195,6.77294c-7.88006,1.50958 -13.22622,-0.91644 -13.22622,-0.91644z" fill="url(#color-13)" stroke-linecap="round"/><path d="M362.00692,109.50686c0,0 3.42533,-3.55546 5.9847,-6.99138c0.25683,0.62394 0.70865,1.16268 1.29108,1.53156c1.96182,0.9057 3.90331,0.93213 6.13823,0.44156c2.45952,-0.68979 4.38543,-0.8004 6.4849,-2.45198c1.66682,-1.7519 3.39197,-2.48583 3.86805,-5.14654c0.17181,-0.96748 0.20807,-2.06349 0.0417,-3.11077c4.64468,5.64695 3.53951,9.87107 3.53951,9.87107c0,0 -5.05911,5.03678 -14.12195,6.77294c-7.88006,1.50958 -13.22622,-0.91644 -13.22622,-0.91644z" fill-opacity="0.06275" fill="#000000" stroke-linecap="butt"/><path d="M362.00692,109.50686c0,0 1.03896,-1.07843 2.40002,-2.62139c1.75644,1.55184 4.93874,1.35662 7.07247,1.32069c2.78453,-0.06026 5.2254,-0.73248 7.91848,-1.34773c2.27268,-1.19848 4.45558,-2.07216 6.50116,-3.67665c1.28352,-1.34437 2.36605,-2.53391 2.92621,-4.25542c1.01227,2.88002 0.52982,4.72403 0.52982,4.72403c0,0 -5.05911,5.03678 -14.12195,6.77294c-7.88006,1.50958 -13.22622,-0.91644 -13.22622,-0.91644z" fill-opacity="0.06275" fill="#000000" stroke-linecap="butt"/></g><g fill-opacity="0.03137" fill="#000000" stroke="none" stroke-linecap="butt"><path d="M343.20548,137.72431c0.08816,4.07387 -14.39752,2.79871 -26.19149,3.05395c-11.79395,0.25524 -24.24063,2.76559 -24.3288,-1.30826c-0.08816,-4.07387 12.21558,-13.18929 24.00953,-13.44452c11.79395,-0.25524 26.42259,7.62498 26.51075,11.69884z" stroke-width="0"/><path d="M337.63473,138.81563c-0.08416,-0.2354 0.15124,-0.31957 0.15124,-0.31957l0.13901,-0.02189c1.00856,-1.0472 2.09912,-2.03205 3.29251,-2.86613c0,0 0.20496,-0.14315 0.34811,0.06183c0.14314,0.20496 -0.06183,0.34811 -0.06183,0.34811c-1.16618,0.81379 -2.2354,1.77766 -3.21829,2.80267l-0.33117,0.14623c0,0 -0.2354,0.08416 -0.31957,-0.15125z" stroke-width="0.5"/><path d="M335.57285,139.27389c-0.18056,-0.17291 -0.00765,-0.35347 -0.00765,-0.35347l0.1121,-0.1109c1.64495,-1.17949 2.92002,-2.8136 4.57589,-3.97031c0,0 0.20496,-0.14315 0.34811,0.06183c0.14314,0.20496 -0.06183,0.34811 -0.06183,0.34811c-1.65353,1.15451 -2.92755,2.78829 -4.57081,3.9667l-0.04234,0.05039c0,0 -0.17292,0.18055 -0.35348,0.00765z" stroke-width="0.5"/><path d="M333.22204,139.65444c0.02075,-0.12504 0.0944,-0.17616 0.16196,-0.19617c2.0347,-1.67761 4.0446,-3.45228 5.86752,-5.35584c0,0 0.17291,-0.18055 0.35347,-0.00765c0.18056,0.17291 0.00765,0.35348 0.00765,0.35348c-1.8536,1.9356 -3.8988,3.73855 -5.9678,5.44298l-0.2171,0.05079c0,0 -0.24662,-0.04095 -0.20567,-0.28758z" stroke-width="0.5"/><path d="M330.50538,140.819c-0.11662,-0.22113 0.10452,-0.33775 0.10452,-0.33775l0.09222,-0.03412c0.20224,-0.21073 0.41583,-0.41156 0.64224,-0.5961c2.17467,-1.76824 4.1501,-4.16122 6.54164,-5.60139c0,0 0.21433,-0.1287 0.34302,0.08561c0.12869,0.21433 -0.08561,0.34302 -0.08561,0.34302c-2.36969,1.41867 -4.33147,3.81076 -6.48361,5.56068c-0.21076,0.17094 -0.40909,0.35776 -0.59655,0.55397l-0.2201,0.13057c0,0 -0.22113,0.11661 -0.33775,-0.10452z" stroke-width="0.5"/><path d="M328.38326,139.87409c0.27993,-0.14984 0.49063,-0.34562 0.76755,-0.54094c2.36636,-1.66551 4.37878,-3.77738 6.73886,-5.4261c0,0 0.20497,-0.14314 0.34811,0.06183c0.14314,0.20496 -0.06183,0.3481 -0.06183,0.3481c-2.35952,1.64735 -4.37167,3.76001 -6.73737,5.42505c-0.37706,0.26475 -0.64405,0.51392 -1.07734,0.6926l-0.03085,-0.30543l-0.15638,-0.15819c0.04686,-0.01845 0.09151,-0.0381 0.13446,-0.05883l-0.0013,-0.01285c0,0 0.03108,-0.0164 0.07609,-0.02523z" stroke-width="0.5"/><path d="M326.6779,138.97506c0.21045,-0.12995 0.42173,-0.25857 0.6338,-0.38583c2.45449,-1.71029 4.44459,-3.74997 6.72309,-5.65584c0,0 0.19179,-0.16035 0.35215,0.03144c0.16036,0.19179 -0.03143,0.35215 -0.03143,0.35215c-2.29471,1.91782 -4.29898,3.9718 -6.77213,5.69201c-0.2886,0.1734 -0.57585,0.34912 -0.86163,0.52713l-0.00621,0.00078l0.00118,0.0021l-0.23423,0.13125c-0.03556,0.02087 -0.07679,0.03322 -0.12094,0.03417c-0.13804,0.00299 -0.25236,-0.10649 -0.25535,-0.24453c-0.00149,-0.06902 0.02514,-0.13211 0.06939,-0.17833l0.23167,-0.24192c0,0 0.12344,-0.12889 0.27063,-0.06458z" stroke-width="0.5"/><path d="M323.94997,139.20413c0.67556,-0.46295 1.33699,-0.94863 2.02155,-1.39753c2.45688,-1.6105 4.27247,-3.79753 6.46201,-5.70411c0,0 0.18854,-0.16415 0.35271,0.02439c0.16416,0.18855 -0.02439,0.35271 -0.02439,0.35271c-2.20696,1.92135 -4.03962,4.12175 -6.51622,5.74518c-0.68188,0.44681 -1.34047,0.93088 -2.01323,1.39194l-0.25616,0.17554c-0.03931,0.02782 -0.08706,0.0446 -0.13884,0.04573c-0.13804,0.00299 -0.25236,-0.10649 -0.25535,-0.24453c-0.0019,-0.08814 0.04204,-0.1666 0.10998,-0.21259l0.23019,-0.16077l0.00144,0.00206l0.02608,-0.01788l0.28265,0.41244l-0.00936,0.00175c-0.00881,0.00758 -0.01451,0.01155 -0.01451,0.01155l-0.00697,-0.00752l-0.57514,0.10778l0.29583,-0.51019c0,0 0.01024,-0.00714 0.02774,-0.01596z" stroke-width="0.5"/><path d="M324.86758,135.7289c2.20172,-1.53838 3.94846,-3.66469 6.13202,-5.19072c0,0 0.20496,-0.14315 0.34811,0.06182c0.14314,0.20496 -0.06183,0.34811 -0.06183,0.34811c-2.17978,1.52119 -3.92241,3.64809 -6.12075,5.18262c-1.2413,0.97404 -2.53613,1.871 -3.79783,2.81508c-0.02951,0.06671 -0.08181,0.10771 -0.08181,0.10771l-0.32208,0.25212c-0.06525,0.04017 -0.13625,0.07661 -0.21041,0.10637c-0.06023,0.04645 -0.12035,0.09303 -0.18035,0.1398l-0.01461,0.00338l-0.00091,0.00056l0.00262,0.00436l-0.42489,0.25515c-0.03692,0.0231 -0.08035,0.03687 -0.12706,0.03788c-0.13804,0.00299 -0.25236,-0.10649 -0.25535,-0.24453c-0.00203,-0.09367 0.04776,-0.17643 0.12308,-0.22088l0.42198,-0.25928l0.00208,0.00338c1.49544,-1.17188 3.07207,-2.23 4.56799,-3.4029z" stroke-width="0.5"/><path d="M318.31552,139.13807c1.29194,-0.97982 2.553,-1.99475 3.83581,-2.9904c2.11762,-1.91845 4.19462,-3.95373 6.379,-5.78017c0,0 0.19179,-0.16035 0.35215,0.03143c0.16036,0.19179 -0.03143,0.35215 -0.03143,0.35215c-2.18474,1.82665 -4.2589,3.86225 -6.37835,5.77964c-1.6001,1.24373 -3.16829,2.51529 -4.80304,3.71305l-0.00283,0.0009l0.00052,0.00074l-0.40713,0.28433c-0.03963,0.02854 -0.08802,0.04579 -0.14054,0.04694c-0.13804,0.00299 -0.25236,-0.10649 -0.25535,-0.24453c-0.00163,-0.07527 0.03018,-0.14349 0.08184,-0.19046l0.36725,-0.33729l0.04383,0.04772l0.01075,-0.00751c0.2038,-0.22672 0.42789,-0.39435 0.77484,-0.6476l0.00964,-0.00703c0,0 0.07288,-0.05321 0.16305,-0.05189z" stroke-width="0.5"/><path d="M321.05584,134.23716c2.1598,-1.83427 4.0363,-3.83143 5.9891,-5.87226c0,0 0.17292,-0.18055 0.35347,-0.00765c0.18056,0.17291 0.00765,0.35348 0.00765,0.35348c-1.96886,2.05421 -3.85864,4.06712 -6.03494,5.91452c-1.97103,1.53198 -3.94957,3.04871 -5.82004,4.69988c-0.01339,0.10382 -0.10122,0.17167 -0.10122,0.17167l-0.05847,0.04519c-0.09921,0.07666 -0.20456,0.14491 -0.31414,0.20653c-0.03194,0.0289 -0.06385,0.05786 -0.09572,0.08686l0.01102,0.01476l-0.39815,0.29762c-0.04071,0.03123 -0.09137,0.05025 -0.1466,0.05144c-0.13804,0.00299 -0.25236,-0.10649 -0.25535,-0.24453c-0.00179,-0.08281 0.03689,-0.15709 0.09794,-0.20391l0.30275,-0.23747c2.05464,-1.87967 4.26448,-3.56836 6.46269,-5.27609z" stroke-width="0.5"/><path d="M312.55459,138.63807c2.15499,-1.5635 4.23351,-3.17402 6.26103,-4.93099c2.10276,-1.82186 3.82775,-4.45122 6.12794,-5.96371c0,0 0.20908,-0.13705 0.34614,0.07203c0.13705,0.20908 -0.07203,0.34614 -0.07203,0.34614c-2.27784,1.48813 -3.99485,4.12148 -6.07465,5.92343c-2.56164,2.21904 -5.20373,4.2076 -7.97813,6.16001l0.00124,0.00165l-0.3984,0.29725c-0.04068,0.03116 -0.09129,0.05012 -0.14643,0.05132c-0.13804,0.00299 -0.25236,-0.10649 -0.25535,-0.24453c-0.00184,-0.08472 0.0387,-0.16051 0.1022,-0.20711l0.39686,-0.29874l0.00081,0.00109l0.00241,-0.00347c0.0547,-0.0385 0.10934,-0.07702 0.16394,-0.11554c0.26255,-0.32091 0.70251,-0.54602 1.03196,-0.79832l0.40534,-0.2565c0,0 0.03482,-0.02201 0.08514,-0.03402z" stroke-width="0.5"/><path d="M306.87767,140.06796c-0.11775,-0.22053 0.10278,-0.33829 0.10278,-0.33829l0.16346,-0.087c1.60134,-0.95027 3.38738,-2.58223 5.02966,-3.29994c1.9644,-1.37283 3.90616,-3.23105 5.55085,-4.94384c1.74876,-1.42388 3.36846,-3.01804 5.22436,-4.31913c0,0 0.20496,-0.14315 0.3481,0.06183c0.14314,0.20496 -0.06182,0.34811 -0.06182,0.34811c-1.84071,1.28113 -3.44147,2.86797 -5.1716,4.27667c-1.66599,1.74491 -3.65209,3.62081 -5.64787,5.01387c-1.60343,0.65545 -3.45854,2.36579 -5.01633,3.29229l-0.18332,0.09818c0,0 -0.22053,0.11775 -0.33828,-0.10277z" stroke-width="0.5"/><path d="M302.25624,141.13759c-0.21664,-0.12477 -0.09187,-0.3414 -0.09187,-0.3414l0.18435,-0.31972c0.57495,-0.83858 1.3917,-1.70876 2.18536,-2.34926c2.69786,-2.16979 5.39537,-4.36762 8.05067,-6.59529c2.17241,-1.82257 4.30295,-3.73254 6.35937,-5.68492c0,0 0.1813,-0.17213 0.35343,0.00917c0.17213,0.18131 -0.00918,0.35344 -0.00918,0.35344c-2.06384,1.95943 -4.20202,3.87622 -6.38226,5.70536c-2.65794,2.22988 -5.3581,4.4299 -8.05866,6.60186c-0.74958,0.60053 -1.53572,1.43416 -2.07539,2.22571l-0.1744,0.30317c0,0 -0.12477,0.21664 -0.3414,0.09187z" stroke-width="0.5"/><path d="M297.9536,140.701c-0.08416,-0.2354 0.15125,-0.31957 0.15125,-0.31957l0.20265,-0.06978c0.49468,-0.25996 0.89676,-0.62997 1.35443,-0.94681c1.66223,-1.73821 3.85002,-3.22119 5.75568,-4.71543c1.96676,-1.37452 4.02088,-3.4784 5.71614,-5.246c1.66553,-1.16318 3.71681,-3.26228 5.71463,-3.72914c0,0 0.24402,-0.05432 0.29835,0.18971c0.05432,0.24403 -0.1897,0.29835 -0.1897,0.29835c-1.87699,0.39146 -3.9352,2.5294 -5.49799,3.62081c-1.69887,1.77672 -3.76666,3.88827 -5.74388,5.26811c-1.90135,1.49189 -4.0605,2.96644 -5.72827,4.69362c-0.48577,0.34189 -0.91896,0.73017 -1.44616,1.00908l-0.26754,0.09832c0,0 -0.23541,0.08417 -0.31957,-0.15124z" stroke-width="0.5"/><path d="M304.54663,141.40051c-0.21338,-0.13027 -0.0831,-0.34365 -0.0831,-0.34365l0.0114,-0.01866c0.09193,-0.14966 0.18388,-0.2993 0.27581,-0.44894c1.79379,-1.8835 3.63601,-3.63785 5.75773,-5.11456c2.00152,-1.05549 4.11784,-2.67844 5.47442,-4.5165c1.90049,-1.03804 2.97958,-3.20788 4.65033,-4.53103c0,0 0.19671,-0.15429 0.351,0.04242c0.15429,0.19671 -0.04242,0.351 -0.04242,0.351c-1.65609,1.2844 -2.72426,3.55238 -4.63031,4.51446c-1.29036,1.86683 -3.56306,3.52257 -5.54276,4.56657c-2.07022,1.45135 -3.85677,3.1608 -5.62175,4.99258c-0.08176,0.13485 -0.16353,0.2697 -0.24529,0.40455l-0.0114,0.01866c0,0 -0.13027,0.21337 -0.34365,0.08309z" stroke-width="0.5"/><path d="M296.34656,140.28074c-0.18056,-0.17291 -0.00765,-0.35348 -0.00765,-0.35348l0.12405,-0.12251c0.69732,-1.05442 2.39079,-2.17132 3.50264,-2.7623c2.15176,-1.35522 4.0474,-2.8687 5.80565,-4.70474c1.62172,-1.69347 3.79174,-4.59303 5.92517,-5.51233c0,0 0.23006,-0.09785 0.3279,0.13221c0.09785,0.23006 -0.13221,0.32789 -0.13221,0.32789c-2.04923,0.85831 -4.20476,3.77427 -5.75974,5.39804c-1.79085,1.87006 -3.72507,3.41155 -5.91675,4.7919c-0.98814,0.51657 -2.75293,1.63338 -3.33074,2.5976l-0.18485,0.20005c0,0 -0.17291,0.18055 -0.35347,0.00765z" stroke-width="0.5"/><path d="M294.27013,139.89726c0.01553,-0.01084 0.03106,-0.02168 0.04659,-0.03252c2.0526,-1.58739 3.7934,-3.62949 5.87641,-5.22432c2.23104,-1.50176 4.0909,-3.5748 5.94136,-5.50714c0,0 0.17292,-0.18055 0.35348,-0.00765c0.18056,0.17291 0.00765,0.35348 0.00765,0.35348c-1.87271,1.95556 -3.75521,4.04437 -6.01061,5.56726c-2.08328,1.59577 -3.83563,3.60564 -5.87074,5.22018c-0.07967,0.05568 -0.15935,0.11135 -0.23902,0.16705l-0.17667,-0.32866l-0.1096,-0.08127c0.01598,-0.01116 0.03196,-0.02229 0.04794,-0.03345l-0.00814,-0.01514c0,0 0.05775,-0.0603 0.14136,-0.07784z" stroke-width="0.5"/><path d="M294.68943,137.76277c-0.15429,-0.19671 0.04242,-0.351 0.04242,-0.351l0.31614,-0.24784c0.42244,-0.2924 0.71247,-0.68739 1.15419,-0.96558c1.65157,-1.73152 3.71536,-3.97302 5.66431,-5.34557c0,0 0.20496,-0.14315 0.3481,0.06182c0.14314,0.20496 -0.06183,0.34811 -0.06183,0.34811c-1.94031,1.34162 -3.99198,3.61446 -5.63444,5.32299c-0.44832,0.28236 -0.7443,0.67844 -1.1728,0.98005l-0.3051,0.23943c0,0 -0.19671,0.15429 -0.351,-0.04242z" stroke-width="0.5"/></g><path d="M333.60556,126.17442l5.16654,-0.23067c0,0 1.29254,12.71061 -2.17801,12.61222c-3.74285,-0.10611 -2.98852,-12.38155 -2.98852,-12.38155z" fill="#000000" stroke="#000000" stroke-width="2" stroke-linecap="round"/><path d="M299.70323,120.70667c0,0 1.29254,12.71061 -2.17801,12.61221c-3.74285,-0.1061 -2.98852,-12.38154 -2.98852,-12.38154z" fill="#000000" stroke="#000000" stroke-width="2" stroke-linecap="round"/><g stroke="#000000" stroke-width="0"><path d="M353.85282,116.51789c0,0 0.4409,3.27103 -1.65645,6.34723c-0.67281,0.98681 -2.8941,1.58224 -2.8941,1.58224c0,0 -0.13262,-1.91033 -0.30967,-2.62234c-0.13823,-0.55592 -0.6653,-1.29849 -0.6653,-1.29849l-2.10293,2.71584c0,0 -0.91408,-2.02728 -1.6214,-2.89421c-0.68529,-0.83992 -2.55857,-2.22887 -2.55857,-2.22887c0,0 -1.15999,1.70205 -1.76864,2.33764c-0.47926,0.50047 -1.58879,1.16831 -1.58879,1.16831c0,0 -0.06006,-0.8358 -0.18897,-1.25264c-0.14306,-0.46257 -0.63138,-1.39994 -0.63138,-1.39994c0,0 -1.56353,3.53237 -2.80768,4.76767c-1.28567,1.27653 -4.78588,2.77189 -4.78588,2.77189c0,0 -0.94348,-2.68554 -1.88163,-3.69157c-1.17692,-1.26209 -4.62738,-3.28847 -4.62738,-3.28847l-3.36292,3.25177c0,0 -0.40326,-1.80653 -2.48936,-2.87802c-2.05989,-1.05804 -5.79698,-1.37711 -6.72558,-2.01344c-1.04647,-0.7171 -1.3436,-1.76333 -1.3436,-1.76333c0,0 -1.46356,1.75498 -2.38827,2.60586c-0.80374,0.73954 -2.49001,1.71267 -2.49001,1.71267c0,0 0.20338,-0.82917 0.25914,-1.21501c0.05482,-0.37941 0.07265,-1.08104 0.07265,-1.08104c0,0 -1.11839,0.48062 -1.83904,0.72174c-0.96676,0.32347 -3.44325,1.04565 -3.44325,1.04565c0,0 1.09035,-1.45565 1.63375,-2.2721c0.60988,-0.91635 1.84914,-2.96098 1.84914,-2.96098c0,0 -8.5109,5.88596 -12.30633,7.9019c-7.43454,3.94886 -11.4336,2.34729 -11.4336,2.34729l5.42835,-2.75726c0,0 -4.88701,0.82086 -7.80187,-0.15604c-4.82805,-0.75616 -4.8761,-3.03347 -4.8761,-3.03347c0,0 3.01454,-0.31823 4.20837,-0.52844c0.94131,-0.16574 2.3788,-0.63139 2.3788,-0.63139c0,0 -1.10638,-0.16446 -1.70764,-0.33075c-0.67044,-0.18542 -2.1301,-0.73064 -2.1301,-0.73064c0,0 1.63016,-0.36305 2.22888,-0.58492c0.454,-0.16824 1.05095,-0.63048 1.05095,-0.63048c0,0 -3.1415,-2.73367 -3.76886,-5.38142c-1.4942,-6.30623 1.63163,-13.56012 1.63163,-13.56012l2.36541,1.25054c0,0 -0.9786,-1.39203 -1.19371,-2.11509c-0.25619,-0.86116 -0.24188,-2.71038 -0.24188,-2.71038c0,0 0.89469,1.17947 1.40607,1.4839c0.47456,0.28251 1.43735,0.74923 1.43735,0.74923c0,0 -0.52767,-1.91577 -0.68214,-2.81838c-0.14238,-0.83199 -0.21135,-2.40266 -0.21135,-2.40266c0,0 1.6882,1.62691 2.36315,2.27325c0.63,0.60331 2.15681,1.40536 2.15681,1.40536c0,0 0.27604,-11.81212 3.10784,-17.73835c5.99963,-14.05982 16.62932,-15.63921 16.62932,-15.63921c0,0 6.18924,2.01153 8.32967,2.57328c1.43002,0.3753 3.57404,0.75161 3.57404,0.75161c0,0 5.00998,-3.90893 12.16571,-4.3276c12.31271,-0.46859 20.82995,2.42182 20.82995,2.42182c0,0 -0.57356,16.85562 -0.61449,22.76336c-0.02577,3.72015 0.39266,9.26503 0.39266,9.26503c0,0 1.69479,-1.61358 2.53179,-2.13113c0.71645,-0.44302 2.18499,-0.7855 2.18499,-0.7855c0,0 0.01127,3.42545 0.21356,5.24124c0.22775,2.04419 0.84373,6.42533 0.84373,6.42533c0,0 0.88103,1.94541 3.78317,2.04635c2.90215,0.10093 4.58613,-2.2527 4.58613,-2.2527c0,0 0.09329,1.89041 -0.6326,4.08936c-0.41683,1.995 -1.83176,3.84034 -1.83176,3.84034c0,0 0.65557,1.59171 1.43056,2.38174c1.00705,1.02658 6.21059,4.61399 6.21059,4.61399c0,0 -1.52788,2.24756 -4.96914,3.58974c-4.05873,1.58301 -5.91068,0.99962 -5.91068,0.99962z" fill="url(#color-14)" stroke-linecap="round"/><path d="M353.85282,116.51789c0,0 0.02792,0.20707 0.03628,0.56603c-0.01371,0.01516 -0.0284,0.03 -0.04412,0.0445c0,0 -0.17292,0.18056 0.00765,0.35347c0.01208,0.01157 0.02414,0.02156 0.03611,0.03013c-0.02889,1.20291 -0.30656,3.32053 -1.69236,5.3531c-0.67281,0.98681 -2.8941,1.58224 -2.8941,1.58224c0,0 -0.13262,-1.91033 -0.30967,-2.62234c-0.13823,-0.55592 -0.6653,-1.29849 -0.6653,-1.29849l-2.10293,2.71584c0,0 -0.91408,-2.02728 -1.6214,-2.89421c-0.68529,-0.83992 -2.55857,-2.22887 -2.55857,-2.22887c0,0 -1.15999,1.70205 -1.76864,2.33764c-0.47926,0.50047 -1.58879,1.16831 -1.58879,1.16831c0,0 -0.06006,-0.8358 -0.18897,-1.25264c-0.14306,-0.46257 -0.63138,-1.39994 -0.63138,-1.39994c0,0 -1.56353,3.53237 -2.80768,4.76767c-1.28567,1.27653 -4.78588,2.77189 -4.78588,2.77189c0,0 -0.94348,-2.68554 -1.88163,-3.69157c-1.17692,-1.26209 -4.62738,-3.28847 -4.62738,-3.28847l-3.36292,3.25177c0,0 -0.40326,-1.80653 -2.48936,-2.87802c-2.05989,-1.05804 -5.79698,-1.37711 -6.72558,-2.01344c-1.04647,-0.7171 -1.3436,-1.76333 -1.3436,-1.76333c0,0 -1.46356,1.75498 -2.38827,2.60586c-0.80374,0.73954 -2.49001,1.71267 -2.49001,1.71267c0,0 0.20338,-0.82917 0.25914,-1.21501c0.05482,-0.37941 0.07265,-1.08104 0.07265,-1.08104c0,0 -1.11839,0.48062 -1.83904,0.72174c-0.96676,0.32347 -3.44325,1.04565 -3.44325,1.04565c0,0 1.09035,-1.45565 1.63375,-2.2721c0.60988,-0.91635 1.84914,-2.96098 1.84914,-2.96098c0,0 -8.5109,5.88596 -12.30633,7.9019c-7.43454,3.94886 -11.4336,2.34729 -11.4336,2.34729l5.42835,-2.75726c0,0 -4.88701,0.82086 -7.80187,-0.15604c-4.82805,-0.75616 -4.8761,-3.03347 -4.8761,-3.03347c0,0 3.01454,-0.31823 4.20837,-0.52844c0.94131,-0.16574 2.3788,-0.63139 2.3788,-0.63139c0,0 -1.10638,-0.16446 -1.70764,-0.33075c-0.67044,-0.18542 -2.1301,-0.73064 -2.1301,-0.73064c0,0 1.63016,-0.36305 2.22888,-0.58492c0.454,-0.16824 1.05095,-0.63048 1.05095,-0.63048c0,0 -3.1415,-2.73367 -3.76886,-5.38142c-0.20885,-0.88144 -0.32743,-1.78139 -0.37692,-2.67747c0.74254,1.59272 1.75647,3.03629 2.91873,4.42615c0.73787,0.93746 2.21909,1.71644 3.39392,1.92785c0.22908,0.04122 2.08736,0.58825 2.00066,0.8031c-0.11148,0.27631 -0.5083,0.31173 -0.75246,0.48251c-0.30991,0.16611 -1.76949,0.77349 -1.6557,1.27319c0.06311,0.27714 1.99357,0.76296 2.61638,0.85444c-0.21494,0.07074 -0.53527,0.23294 -0.55386,0.24273c-0.50652,0.26711 -0.8677,0.36869 -1.15625,0.7014l-0.0774,-0.05548l-0.19714,0.27505c-0.03139,0.04281 -0.04945,0.09593 -0.04822,0.1531c0.00299,0.13804 0.11732,0.24752 0.25535,0.24453l0.25718,-0.00557c0.80809,0.11613 1.72548,0.09795 2.5407,0.08141c2.10372,-0.04552 4.21444,-0.18041 6.23174,-0.80726c-0.45923,0.50094 -0.89708,1.04487 -1.14784,1.65649c-0.00789,0.00418 -0.01579,0.00835 -0.02372,0.01254l-0.27513,0.14508c-0.08367,0.04191 -0.14028,0.1293 -0.13811,0.22907c0.00299,0.13804 0.11732,0.24752 0.25535,0.24453c0.04198,-0.00091 0.08131,-0.01211 0.11566,-0.03115l0.27547,-0.14527c0.35108,-0.18514 0.66521,-0.36701 0.99249,-0.59556c1.92464,-1.03364 5.37169,-2.83911 6.36409,-4.77149c0.96533,-2.36171 3.17368,-3.3278 5.64851,-3.38136c2.23118,-0.04829 3.48035,-0.54249 5.32615,-1.70616c0.08669,-0.05466 0.19621,-0.11737 0.31264,-0.18681c-0.10923,0.83422 -0.11081,2.09353 0.18381,2.29585c0.32236,0.22138 1.91351,-0.84832 2.03019,-0.54986c0.07392,0.18906 -0.0564,0.27812 -0.09359,0.40294c-0.00952,0.00973 -0.01899,0.0195 -0.0284,0.02931l0.0053,0.04748l-0.02569,-0.01216l-0.13321,0.2815c-0.01753,0.03513 -0.02702,0.07492 -0.02611,0.11689c0.00299,0.13804 0.11732,0.24752 0.25535,0.24453c0.09978,-0.00215 0.18463,-0.06249 0.22288,-0.1479l0.11976,-0.25306c0.55837,-0.56725 1.30139,-0.98202 1.65437,-1.72789c0.38897,-0.39896 1.517,-2.14049 2.01432,-2.20464c0.3415,-0.04406 2.63827,2.79578 3.16501,3.13061c1.7865,1.72194 4.13575,1.24249 5.85098,2.72942l0.08957,0.16986c0.04191,0.08367 0.1293,0.14028 0.22907,0.13811c0.09978,-0.00215 0.18463,-0.06249 0.22288,-0.1479l0.13305,-0.28115c1.59241,-3.36491 1.73406,-1.42353 4.47467,-0.12656c1.23727,0.58553 2.86193,0.93172 3.9667,1.73359c0.78248,0.56793 1.19061,1.33495 2.02327,1.70208c1.35081,-0.6093 1.91006,-1.52082 2.13272,-2.85432c0.00444,-0.02658 1.05868,0.48878 1.15647,0.51154c0.8198,0.19084 1.11949,0.48146 1.56394,-0.50287c-0.00034,-0.16921 0.06374,-0.94337 -0.04826,-1.37887c0.37877,0.20328 0.94816,0.46721 1.20003,0.65001c0.96764,0.70231 1.9519,1.13735 3.04284,1.65362c0.80546,0.37932 1.93389,0.82953 2.80129,0.81448c0.53946,-0.00936 1.13599,-0.57719 1.64885,-0.46641c0.98259,0.21224 1.46903,0.78572 2.44728,1.08294c1.16867,-0.01717 1.82884,-1.28076 2.93239,-1.05781c0.51352,0.10374 1.07533,0.7529 0.94098,1.25789z" fill-opacity="0.06275" fill="#000000" stroke-linecap="butt"/><path d="M353.85282,116.51789c0,0 0.02791,0.20708 0.03627,0.56603c-0.01371,0.01516 -0.0284,0.03 -0.04412,0.0445c0,0 -0.17292,0.18056 0.00765,0.35348c0.01209,0.01158 0.02414,0.02156 0.03611,0.03013c-0.02889,1.20291 -0.30656,3.32053 -1.69236,5.3531c-0.67281,0.98681 -2.8941,1.58224 -2.8941,1.58224c0,0 -0.13262,-1.91033 -0.30967,-2.62234c-0.13823,-0.55592 -0.6653,-1.29849 -0.6653,-1.29849l-2.10293,2.71584c0,0 -0.91408,-2.02728 -1.6214,-2.89421c-0.68529,-0.83992 -2.55857,-2.22887 -2.55857,-2.22887c0,0 -1.15999,1.70205 -1.76864,2.33764c-0.47926,0.50047 -1.58879,1.16831 -1.58879,1.16831c0,0 -0.06006,-0.8358 -0.18897,-1.25264c-0.14306,-0.46257 -0.63138,-1.39994 -0.63138,-1.39994c0,0 -1.56353,3.53237 -2.80768,4.76767c-1.28567,1.27653 -4.78588,2.77189 -4.78588,2.77189c0,0 -0.94348,-2.68554 -1.88163,-3.69157c-1.17692,-1.26209 -4.62738,-3.28847 -4.62738,-3.28847l-3.36292,3.25177c0,0 -0.40326,-1.80653 -2.48936,-2.87802c-2.05989,-1.05804 -5.79698,-1.37711 -6.72558,-2.01344c-1.04647,-0.7171 -1.3436,-1.76333 -1.3436,-1.76333c0,0 -1.46356,1.75498 -2.38827,2.60586c-0.80374,0.73954 -2.49001,1.71267 -2.49001,1.71267c0,0 0.20338,-0.82917 0.25914,-1.21501c0.05482,-0.37941 0.07265,-1.08104 0.07265,-1.08104c0,0 -1.11839,0.48062 -1.83904,0.72174c-0.96676,0.32347 -3.44325,1.04565 -3.44325,1.04565c0,0 1.09035,-1.45565 1.63375,-2.2721c0.60988,-0.91635 1.84914,-2.96098 1.84914,-2.96098c0,0 -8.5109,5.88596 -12.30633,7.9019c-7.43454,3.94886 -11.4336,2.34729 -11.4336,2.34729l5.42835,-2.75726c0,0 -4.88701,0.82086 -7.80187,-0.15604c-4.82805,-0.75616 -4.8761,-3.03347 -4.8761,-3.03347c0,0 3.01454,-0.31823 4.20837,-0.52844c0.94131,-0.16574 2.3788,-0.63139 2.3788,-0.63139c0,0 -1.10638,-0.16446 -1.70764,-0.33075c-0.67044,-0.18542 -2.1301,-0.73064 -2.1301,-0.73064c0,0 1.63016,-0.36305 2.22888,-0.58492c0.454,-0.16824 1.05095,-0.63048 1.05095,-0.63048c0,0 -1.53853,-1.33879 -2.67723,-3.05003c1.04085,0.79797 2.28964,1.41057 3.36215,1.92139c0.23092,0.10787 1.32205,0.51325 1.78234,0.44259c-0.24175,0.13979 -0.64569,0.38865 -0.7086,0.43871c-0.56023,0.44586 -1.22654,0.64248 -1.86049,0.97817l-0.3422,0.12235c-0.10146,0.03362 -0.17363,0.13032 -0.17119,0.24275c0.00215,0.09978 0.06249,0.18463 0.1479,0.22288l0.23962,0.11341l0.07142,-0.15091l0.00538,-0.00193c0.73284,0.11812 1.79266,-0.26577 2.00531,0.3786c0.33813,1.02459 -2.89928,1.73292 -3.4075,1.8722c-0.39973,0.0101 -0.71263,0.1376 -1.1127,0.1499l-0.04442,0.03891l-0.00951,-0.01803l-0.23449,0.12366c-0.08367,0.04191 -0.14028,0.1293 -0.13811,0.22907c0.00215,0.09978 0.06249,0.18463 0.1479,0.22288l0.23962,0.11341l0.0178,-0.03762c1.99962,1.27126 4.98087,0.49364 7.12618,1.11929c1.0285,-0.26435 2.07037,-0.24674 3.09252,-0.56074c0.14169,-0.04352 1.6386,-0.59136 1.60856,-0.37818c-0.08909,0.63239 -0.6437,1.16672 -0.90538,1.70513c-0.20892,0.44146 -0.49193,0.79807 -0.69952,1.22519l-0.11356,0.23998c-0.01753,0.03513 -0.02702,0.07492 -0.02611,0.11689c0.00299,0.13804 0.11732,0.24752 0.25535,0.24453c0.04198,-0.00091 0.08131,-0.01211 0.11566,-0.03115l0.23484,-0.12384l-0.01264,-0.02397c1.91115,-0.49572 4.05238,-1.98404 5.758,-2.8835c2.16036,-1.13927 3.46483,-3.03279 5.39713,-4.38228c1.76194,-1.86271 3.92458,-2.28414 6.2664,-3.11691c0.17912,-0.06404 1.71965,-0.62406 2.20476,-0.95075c-0.12828,0.26482 -0.29687,0.72799 -0.33257,0.80319c-0.33728,0.71048 -0.73923,1.28339 -1.16053,1.94752l-0.00207,0.0162l-0.00502,-0.00237l-0.11356,0.23998c-0.01753,0.03513 -0.02702,0.07492 -0.02611,0.11689c0.00299,0.13804 0.11732,0.24752 0.25535,0.24453c0.04198,-0.00091 0.08131,-0.01211 0.11566,-0.03115l0.23484,-0.12384l-0.02442,-0.04632c0.89685,-0.31442 1.65148,-1.00019 2.40725,-1.59285c-0.26494,0.51248 -0.51929,1.23836 -0.44726,1.41368c0.28819,0.70133 3.30973,-0.76683 3.96476,-1.11225c0.96824,-0.5106 1.39226,-1.24932 1.98458,-2.0026c0.46437,1.34797 4.66135,2.03592 5.35595,2.34747c2.11797,-0.01967 4.04983,0.7248 3.04155,2.84614l-0.11356,0.23998c-0.01753,0.03513 -0.02702,0.07492 -0.02611,0.11689c0.00299,0.13804 0.11732,0.24752 0.25535,0.24453c0.02969,-0.00064 0.05804,-0.00644 0.08426,-0.0165l0.35474,-0.12683l-0.01037,-0.02899c1.39332,-0.2646 2.5332,-0.9323 3.20008,-2.25798c1.04516,1.02352 4.91448,2.06037 5.76366,2.87985c0.20379,0.19189 1.30355,0.82263 1.28221,1.12651c-0.02604,0.37067 -0.33853,0.70069 -0.33157,1.14488l-0.09468,0.20009c-0.01753,0.03513 -0.02702,0.07492 -0.02611,0.11689c0.00299,0.13804 0.11732,0.24752 0.25535,0.24453c0.04198,-0.00091 0.08131,-0.01211 0.11566,-0.03115l0.2224,-0.11728c2.90329,-0.47288 3.45337,-1.11348 4.66047,-3.78252c-0.24381,-0.82222 1.56624,0.851 1.61575,0.86464c0.97189,0.26781 1.30499,-1.16631 1.37158,-1.98413c0.33284,0.22443 0.83989,0.41575 1.01599,0.48039c1.1554,0.4241 3.69697,-0.08949 4.36833,1.2222c0.12076,0.27661 -0.17492,0.87777 0.12299,1.0824c0.55986,0.38457 1.51497,-1.76677 2.075,-1.59347c0.04366,0.01351 0.58151,0.90916 0.81731,1.04685c0.35552,0.20761 0.71989,0.1235 0.90787,0.51888c0.70075,0.67105 0.58876,0.87332 0.59852,1.72636l-0.10422,0.33676l0.10884,0.03368l0.00319,0.25569c0.07393,-0.03937 0.14715,-0.08163 0.21961,-0.12658l0.08775,0.08403l0.23666,-0.24712l-0.03498,-0.03349c1.46175,-1.07914 2.58929,-3.22886 3.1912,-4.93657c0.30366,0.26065 0.5181,0.65661 0.42945,0.98982z" fill-opacity="0.06275" fill="#000000" stroke-linecap="butt"/><path d="M362.35696,102.33954c0,0 0.09329,1.89041 -0.6326,4.08936c-0.41683,1.995 -1.83176,3.84034 -1.83176,3.84034c0,0 0.65557,1.59171 1.43056,2.38174c1.00705,1.02658 6.21059,4.61399 6.21059,4.61399c0,0 -1.52788,2.24756 -4.96914,3.58974c-2.73292,1.0659 -4.46531,1.14959 -5.30548,1.09052c1.08631,-0.62068 2.52728,-1.27717 3.41087,-2.06325c1.35381,-1.20442 1.91416,-2.46936 1.91416,-2.46936c0,0 -2.48355,-2.27743 -3.55257,-3.48886c-1.00691,-1.14105 -2.6864,-3.58121 -2.6864,-3.58121c0,0 4.5665,-3.51948 4.15596,-6.42088c1.19942,-0.66473 1.85582,-1.58215 1.85582,-1.58215z" fill-opacity="0.06275" fill="#000000" stroke-linecap="butt"/><path d="M362.35579,102.28597c0,0 0.09329,1.89041 -0.6326,4.08936c-0.41683,1.995 -1.83176,3.84034 -1.83176,3.84034c0,0 0.65557,1.59171 1.43056,2.38174c1.00705,1.02658 6.21059,4.61399 6.21059,4.61399c0,0 -1.52788,2.24756 -4.96914,3.58974c-1.97583,0.77062 -3.42869,1.02785 -4.39951,1.08889c1.43669,-0.45429 3.67645,-1.68958 4.71035,-2.45487c1.11077,-0.82218 2.73478,-2.28041 2.73478,-2.28041c0,0 -1.75297,-0.65581 -2.70026,-1.359c-0.94729,-0.70316 -2.46691,-1.94382 -3.96224,-3.37578c-0.40973,-0.52237 -1.70599,-1.90027 -1.70599,-1.90027c0,0 1.8659,-1.28234 2.69505,-2.43459c1.19715,-1.67066 1.60698,-3.04209 1.63462,-4.97096c0.51364,-0.44813 0.78555,-0.82819 0.78555,-0.82819z" fill-opacity="0.06275" fill="#000000" stroke-linecap="butt"/></g><path d="M340.21689,120.35334l-8.71477,0.1886" fill="none" stroke="#000000" stroke-width="2" stroke-linecap="round"/><g stroke="#000000" stroke-width="2" stroke-linecap="butt"><path d="M308.62373,154.29923c0,0 0.02117,-1.15208 1.34615,-11.47198c0.48181,-3.75278 14.82118,-3.10245 15.68953,-0.33954c1.0912,3.472 1.49847,11.41042 1.49847,11.41042z" fill="#000000"/><path d="M309.6093,154.06987l0.91263,-5.52269c0,0 1.12668,3.36621 7.388,3.12407c6.53159,-0.25259 7.04035,-3.18964 7.04035,-3.18964l1.25441,5.43716z" fill="#ffffff"/></g></g></g></svg>