<svg version="1.1" xmlns="http://www.w3.org/2000/svg" xmlns:xlink="http://www.w3.org/1999/xlink" width="35.12501" height="35.12434" viewBox="0,0,35.12501,35.12434"><g transform="translate(-222.43752,-162.43783)"><g data-paper-data="{&quot;isPaintingLayer&quot;:true}" stroke-miterlimit="10" stroke-dasharray="" stroke-dashoffset="0" style="mix-blend-mode: normal"><path d="M257.56251,169.8317v20.49804c0,4.00745 -3.22497,7.23243 -7.23242,7.23243h-20.5c-3.66107,0 -6.66147,-2.69385 -7.1543,-6.21484c0.7952,3.03475 3.54108,5.26367 6.83204,5.26367h20.0332c3.9166,0 7.07032,-3.15372 7.07032,-7.07031v-20.03321c0,-3.2976 -2.23906,-6.0451 -5.28321,-6.83398c3.52994,0.48496 6.23438,3.49081 6.23438,7.15821z" fill-opacity="0.29839" fill="#000000" fill-rule="evenodd" stroke="none" stroke-width="4.54219" stroke-linecap="round" stroke-linejoin="round"/><path d="M229.50719,162.43783h20.03378c3.9166,0 7.06966,3.15307 7.06966,7.06966v20.03379c0,3.91659 -3.15307,7.06966 -7.06966,7.06966h-20.03378c-3.91659,0 -7.06967,-3.15307 -7.06967,-7.06966v-20.03379c0,-3.91659 3.15308,-7.06966 7.06967,-7.06966z" fill-opacity="0.35" fill="#4d4d4d" fill-rule="evenodd" stroke="none" stroke-width="4.43922" stroke-linecap="round" stroke-linejoin="round"/><g fill-rule="nonzero" stroke="#000000" stroke-width="0.5" stroke-linejoin="miter"><path d="M243.03929,174.78684l4.54061,-8.56051l1.62092,0.85976l-4.54061,8.56051z" fill="#646464" stroke-linecap="butt"/><path d="M245.72776,167.51561l2.17627,-4.10297l3.44446,1.82699l-2.17627,4.10297z" fill="#3c3c3c" stroke-linecap="butt"/><path d="M235.94761,178.13511l-8.69261,-4.28229l0.81085,-1.64594l8.69261,4.28229z" fill="#646464" stroke-linecap="butt"/><path d="M228.59915,175.66553l-4.16628,-2.05246l1.72305,-3.49762l4.16628,2.05246z" fill="#3c3c3c" stroke-linecap="butt"/><path d="M248.66619,187.96862c-2.95519,6.1253 -9.40858,9.13314 -14.41405,6.71822c-5.00547,-2.41492 -6.66755,-9.33814 -3.71236,-15.46343c2.95519,-6.1253 9.40858,-9.13315 14.41405,-6.71822c5.00547,2.41492 6.66755,9.33814 3.71236,15.46343z" fill="#646464" stroke-linecap="butt"/><path d="M247.44939,190.08011c-2.31534,4.79906 -8.25003,6.73178 -13.2555,4.31686c-5.00547,-2.41492 -7.18625,-8.26301 -4.87091,-13.06207c2.31534,-4.79906 8.25003,-6.73178 13.2555,-4.31686c5.00547,2.41492 7.18625,8.26301 4.87091,13.06207z" fill="#646464" stroke-linecap="butt"/><path d="M245.90486,189.44006c-1.91956,3.97871 -6.83976,5.58105 -10.9896,3.57893c-4.14983,-2.00212 -5.95783,-6.85053 -4.03828,-10.82924c1.91956,-3.97871 6.83976,-5.58105 10.9896,-3.57893c4.14983,2.00212 5.95783,6.85053 4.03828,10.82924z" fill="#000000" stroke-linecap="butt"/><path d="M239.95359,171.65139l0.80462,4.92135l-2.22817,-0.4283l-0.37366,-4.11362z" fill="#000000" stroke-linecap="round"/><path d="M236.89247,172.60083l0.49975,3.31002l-2.625,0.52618l-0.12406,-2.7836z" fill="#000000" stroke-linecap="round"/><path d="M234.11719,174.57212l0.74113,1.87489l-2.96293,1.46392l-0.23011,-1.04993z" fill="#000000" stroke-linecap="round"/><path d="M244.61388,172.17024l-1.55256,5.03607l-2.11857,-0.73363l1.86996,-4.70771z" fill="#000000" stroke-linecap="round"/><path d="M250.00575,177.6911l-3.45238,2.26771l-1.72199,-1.47748l4.35282,-2.43311z" data-paper-data="{&quot;index&quot;:null}" fill="#000000" stroke-linecap="round"/><path d="M250.41124,181.58627l-2.256,1.63532l-1.22187,-2.38213l2.90186,-1.66889z" data-paper-data="{&quot;index&quot;:null}" fill="#000000" stroke-linecap="round"/><path d="M249.65428,186.11998l-0.96502,0.47334l-0.6982,-3.23026l1.92877,-0.58677z" data-paper-data="{&quot;index&quot;:null}" fill="#000000" stroke-linecap="round"/><path d="M247.31588,173.88101l-2.52102,4.3936l-1.89276,-1.20167l2.97558,-4.34952z" data-paper-data="{&quot;index&quot;:null}" fill="#000000" stroke-linecap="round"/></g></g></g></svg>