<svg version="1.1" xmlns="http://www.w3.org/2000/svg" xmlns:xlink="http://www.w3.org/1999/xlink" width="34.17311" height="34.17311" viewBox="0,0,34.17311,34.17311"><g transform="translate(-222.91346,-162.91346)"><g data-paper-data="{&quot;isPaintingLayer&quot;:true}" stroke="none" stroke-miterlimit="10" stroke-dasharray="" stroke-dashoffset="0" style="mix-blend-mode: normal"><path d="M229.98313,162.91346h20.03378c3.9166,0 7.06966,3.15307 7.06966,7.06966v20.03379c0,3.91659 -3.15306,7.06966 -7.06966,7.06966h-20.03378c-3.91659,0 -7.06967,-3.15307 -7.06967,-7.06966v-20.03379c0,-3.91659 3.15308,-7.06966 7.06967,-7.06966z" fill-opacity="0.09677" fill="#191919" fill-rule="evenodd" stroke-width="4.43922" stroke-linecap="round" stroke-linejoin="round"/><path d="M250.9953,182.82399c0.15905,1.26839 0.11447,2.88684 -0.13374,4.85532c-0.14854,0.85669 -0.24928,1.36695 -0.30224,1.53077c-0.08299,0.33798 -0.2617,0.77342 -0.53611,1.30633c-0.70424,1.45626 -1.46676,2.4924 -2.28753,3.10843c-0.7893,0.59993 -2.06772,1.10596 -3.83525,1.51807l-1.21207,0.26919c-1.37889,0.17586 -3.07289,-0.11349 -5.08198,-0.86804c-0.28272,-0.0914 -0.69823,-0.25053 -1.24651,-0.47738c-0.656,-0.29086 -1.59492,-0.78993 -2.81673,-1.49718c-0.35299,-0.19 -0.67121,-0.3702 -0.95466,-0.54063c0.29953,0.2019 0.61006,0.40589 0.93159,0.61198l1.25732,0.79606c0.75341,0.47703 1.2782,0.77656 1.57438,0.89857c0.2682,0.13631 0.70617,0.30271 1.3139,0.49917l3.55518,1.1493c0.45266,0.04419 0.97769,-0.0181 1.57507,-0.18687c0.70788,-0.18558 1.16331,-0.27182 1.36629,-0.25874c0.5691,0.03922 0.92512,0.24728 1.06807,0.6242c-0.04416,0.01731 -0.08688,0.034 -0.12802,0.04988c-0.36548,0.14114 -0.72189,0.05684 -1.05072,0.22172c-0.05349,0.02682 -0.14185,0.1036 -0.24572,0.20558c-0.51691,0.00743 -1.00488,-0.02729 -1.32988,-0.10541c-0.70967,-0.17058 -1.54555,0.1949 -2.24909,0.00834c-1.1764,-0.31194 -2.41161,-0.57256 -3.63066,-0.89254c-1.23568,-0.89621 -2.81676,-1.29723 -4.05101,-2.20137c-0.37847,-0.27724 -1.07889,-0.45181 -1.3683,-0.83252c-0.80247,-1.05559 -1.66783,-2.02448 -2.48379,-3.05413c-0.01093,-0.04249 -0.02334,-0.08453 -0.03719,-0.12604c0.16276,-0.13398 0.33159,-0.18318 0.50653,-0.1476c0.19529,0.03687 0.40739,0.18423 0.6363,0.44209c-0.49748,-0.62777 -0.86662,-1.29139 -1.10745,-1.99087c-0.19169,-0.60771 -0.31548,-1.42548 -0.37136,-2.45332l0.00304,-0.97085c0.0138,-0.12395 0.1309,-0.52677 0.35128,-1.20848l0.49159,-1.27694c0.54776,-1.37844 1.00659,-2.39602 1.37649,-3.05274c0.60409,-1.07423 1.30463,-1.92319 2.10162,-2.54691c0.27046,-0.19565 0.87552,-0.58228 1.81519,-1.15986c0.29509,-0.19061 1.09742,-0.70899 2.407,-1.55515c0.34108,-0.25162 0.59701,-0.40236 0.76781,-0.45221c0.08587,-0.02185 0.40485,-0.04714 0.95696,-0.07586c1.37242,0.07887 2.39066,0.17456 3.0547,0.28708c1.64049,0.29685 3.15014,0.83595 4.52894,1.6173c0.47681,0.28547 0.88438,0.5865 1.22272,0.90308l0.5812,0.61252c1.69314,2.12913 2.69875,4.26801 3.01684,6.41665z" fill="#cccccc" fill-rule="nonzero" stroke-width="1" stroke-linecap="butt" stroke-linejoin="miter"/><path d="M247.18467,174.28585c1.37412,1.03958 2.49033,2.39852 3.34862,4.07682c0.79128,1.55158 1.30458,3.2453 1.53991,5.08118c0.2525,1.79182 0.17472,3.47687 -0.23335,5.05514c-0.6085,2.52325 -1.92748,4.55854 -3.95694,6.10587c-0.40906,0.30844 -0.82365,0.58883 -1.24376,0.84117c-0.02636,0.08155 -0.05305,0.16413 -0.08008,0.24773c-0.55185,0.15293 -1.07304,0.37046 -1.45679,0.51866c-0.09617,0.03714 -0.19172,0.05867 -0.2863,0.07324l0.00743,-0.03015c-0.05235,0.01668 -0.10481,0.03295 -0.15741,0.04878c-0.21202,0.0218 -0.41815,0.03143 -0.61445,0.12986c-0.02059,0.01032 -0.04633,0.02804 -0.07613,0.05175c-0.25247,0.05699 -0.50771,0.10451 -0.7657,0.14254c-0.28408,-0.01586 -0.53838,-0.04715 -0.73377,-0.09411c-0.70967,-0.17058 -1.54555,0.1949 -2.24909,0.00834c-1.0198,-0.27041 -2.0838,-0.50226 -3.14315,-0.76765c-0.24698,-0.09545 -0.49831,-0.19796 -0.75397,-0.30754c-0.81248,-0.52727 -1.74425,-0.88366 -2.6187,-1.32389c-1.24828,-0.7215 -2.2567,-1.43991 -3.0253,-2.15524c-0.65758,-0.82008 -1.34087,-1.60378 -1.99264,-2.42624c-0.0148,-0.05751 -0.0323,-0.1142 -0.05241,-0.16988c0.02399,-0.35388 -0.17479,-0.7601 -0.4518,-1.11204c-0.1913,-0.53205 -0.31917,-1.08055 -0.38361,-1.64554c-0.1199,-1.30827 0.22529,-3.13888 1.03556,-5.49185c0.60876,-1.72061 1.19807,-3.01995 1.76793,-3.89803c1.06035,-1.60088 2.55758,-2.86499 4.49168,-3.79234c1.68407,-0.8039 3.59344,-1.26208 5.72814,-1.37455c1.21472,-0.07426 2.19344,0.02179 2.93616,0.28816c0.3752,0.1213 0.77918,0.31609 1.21192,0.5844zM248.48295,177.85303c-1.17069,-1.75011 -2.67867,-2.97596 -4.52394,-3.67755c-1.10341,-0.43258 -2.22043,-0.62441 -3.35107,-0.57551c-1.27068,0.00364 -2.65534,0.31918 -4.15395,0.94663c-1.1645,0.47864 -2.11894,1.02519 -2.86333,1.63965c-1.36951,1.11279 -2.54766,3.03747 -3.53447,5.77404c-0.66171,1.88442 -0.90158,3.466 -0.71961,4.74473c0.25718,1.53359 1.02677,2.92202 2.30878,4.16529c0.92757,0.89522 2.25185,1.764 3.97281,2.60636c2.09269,1.06466 3.89066,1.63277 5.39386,1.7043c1.5695,0.11923 3.09558,-0.19145 4.57824,-0.93204c1.48181,-0.73795 2.6571,-1.76906 3.52589,-3.09334c1.40035,-2.16512 1.88285,-4.78163 1.44752,-7.84953z" fill="#000000" fill-rule="nonzero" stroke-width="1" stroke-linecap="butt" stroke-linejoin="miter"/><path d="M234.3277,188.94302c0.17285,0.57066 0.49577,0.99089 0.96875,1.26067c0.57459,0.35165 1.70687,0.6826 3.39686,0.99285c0.57121,0.11827 1.16201,0.2266 1.77237,0.32499c0.32764,0.05281 0.69479,0.10545 1.10147,0.15791c0.20298,0.00652 0.51855,-0.00082 0.94671,-0.02202c0.53938,0.00982 0.99937,0.00029 1.37997,-0.02858c0.01538,-0.02371 0.03879,-0.03958 0.07027,-0.04761l0.76996,-0.10727c0.09176,-0.0245 0.25756,-0.08218 0.49741,-0.17302l0.43164,-0.24039c0.25593,-0.07516 0.40978,-0.11439 0.46153,-0.11769c0.14893,-0.06767 0.37935,-0.12148 0.69125,-0.16143c0.24633,-0.02432 0.45657,-0.02899 0.63072,-0.01402c0.34302,0.0291 0.56227,0.10955 0.65776,0.24136c0.10317,0.11995 0.04175,0.19445 -0.18429,0.2235c-0.02221,0.03426 -0.06479,0.05941 -0.12772,0.07546c-0.77321,0.31484 -1.40842,0.51586 -1.90563,0.60306c-0.76084,0.17422 -1.88578,0.27083 -3.37482,0.28984l-0.7579,-0.02612c-0.23444,0.0015 -0.73877,-0.06015 -1.51296,-0.18494c-1.61972,-0.2611 -2.84832,-0.50425 -3.68581,-0.72947c-1.35345,-0.34768 -2.29615,-0.73248 -2.8281,-1.15439c-0.24393,-0.18193 -0.41059,-0.36378 -0.49996,-0.54553c-0.11315,-0.18559 -0.19249,-0.44358 -0.23802,-0.77398l-0.02018,-0.0229c0.01538,-0.02371 -0.0245,-0.04324 -0.11962,-0.05858l-0.0391,-0.12199l-0.15133,-0.06368c0.00769,-0.01186 -0.01225,-0.02162 -0.05981,-0.02929l-0.187,-0.06944l-0.18936,-0.12657l-0.0265,-0.08067l0.25221,-0.32825l0.11747,-0.05965l0.14789,-0.05255l0.10702,0.01725c0.26434,-0.04761 0.52886,-0.03699 0.79357,0.03188c0.11891,0.01917 0.2135,0.05333 0.28377,0.10249c0.17222,0.05395 0.26062,0.15843 0.2652,0.31342l0.06487,0.37936l0.18936,0.12657l-0.03352,0.11247z" fill="#000000" fill-rule="nonzero" stroke-width="1" stroke-linecap="butt" stroke-linejoin="miter"/><path d="M247.54425,182.22828l0.4104,-0.06432l0.22159,0.03224l0.11726,0.00288c0.17919,0.0054 0.31198,0.07313 0.39834,0.2032l0.11962,0.11746c0.04828,0.0944 0.06857,0.1535 0.06089,0.17728l0.08127,0.10069l0.00108,0.11855l-0.0553,0.29293l0.01261,0.08288l-0.04484,0.13871l-0.04377,0.25727c0.02185,0.08587 -0.00121,0.15721 -0.06919,0.21402l-0.06898,0.09151l-0.0944,0.04828l-0.05874,0.05981l-0.18356,0.09387l-0.17728,0.06089l-0.16178,0.0265l-0.70549,-0.22807l-0.12719,-0.08051l-0.04827,-0.0944c-0.02378,-0.00769 -0.05981,-0.05873 -0.10809,-0.15314l-0.09387,-0.18356l0.0081,-0.2688l-0.03567,-0.01153l0.21653,-0.66982l0.07027,-0.09548z" fill="#000000" fill-rule="nonzero" stroke-width="1" stroke-linecap="butt" stroke-linejoin="miter"/><path d="M234.89304,182.36847l0.28141,0.09097l0.12718,0.08051l0.11962,0.11747c0.06259,0.12238 0.10577,0.18741 0.12955,0.1951l0.02522,0.16574l0.03567,0.01153c-0.03147,0.0161 -0.03069,0.05429 0.00235,0.11458l-0.02306,0.07134l-0.01046,0.15421l-0.08051,0.12719l-0.03459,0.10701l-0.06899,0.09151l-0.03567,-0.01153l-0.09333,0.16682l-0.03567,-0.01153l-0.11618,0.11566l-0.13657,0.19224l-0.08159,0.00864l-0.18881,0.09656l-0.51217,0.02705l-0.2814,-0.09097c-0.14004,-0.04527 -0.23848,-0.1019 -0.2953,-0.16988l-0.11566,-0.11619c-0.04828,-0.0944 -0.08431,-0.14545 -0.10809,-0.15314l-0.0126,-0.08287l0.02178,-0.06738l-0.04431,-0.09312l0.06791,-0.21006l-0.01261,-0.08287c0.04684,-0.06366 0.07753,-0.11794 0.09205,-0.16286l0.04613,-0.14269l0.17096,-0.17675c0.09512,0.03075 0.15805,-0.00143 0.18881,-0.09655l0.03567,0.01153c0.0909,-0.04649 0.14404,-0.09351 0.15942,-0.14108l0.13008,-0.03675l0.53524,-0.09838z" fill="#000000" fill-rule="nonzero" stroke-width="1" stroke-linecap="butt" stroke-linejoin="miter"/><g fill-rule="nonzero" stroke-width="1" stroke-linecap="butt" stroke-linejoin="miter"><path d="M236.90584,172.88337l-0.08041,-0.02369c-0.00125,-0.03533 0.01518,-0.07126 0.04925,-0.10783c-0.01579,0.05361 -0.00542,0.09744 0.03114,0.13153M247.72017,175.42977c-0.11863,0.09062 -0.28133,0.15725 -0.4881,0.19989l0.00186,0.05298c-0.05361,-0.01579 -0.12425,-0.01332 -0.21193,0.00744c-0.36679,-0.03819 -0.68951,-0.05238 -0.96817,-0.04258c-0.17393,-0.02925 -0.34068,-0.04992 -0.50025,-0.062c-0.01828,-0.01704 -0.03555,-0.03314 -0.05179,-0.04828l-0.26581,-0.0997l-0.47448,-0.08352l-0.10313,0.00068l-0.10782,-0.04926l-1.02674,-0.19967l-0.61229,-0.31446c-0.06875,0.00046 -0.12868,0.0281 -0.1798,0.08295c-0.07189,-0.03284 -0.15128,-0.05559 -0.23817,-0.06826l-0.03115,-0.13152l-0.32417,-0.2509l-0.24004,-0.12124l-0.05014,-0.00119l-0.05484,-0.05113l-1.58724,-0.46585l-0.05112,0.05485c-0.01704,0.01828 -0.04165,0.04469 -0.07384,0.07923c-0.0711,-0.06627 -0.16025,-0.1152 -0.26745,-0.1468l-0.04994,0.0047l-0.05485,-0.05112c-0.16002,-0.08082 -0.30278,-0.14555 -0.42827,-0.1942l-0.3176,-0.14799c-0.1247,-0.08207 -0.22322,-0.1739 -0.29556,-0.27548l-0.432,-0.30016c0.07065,-0.00248 0.14191,0.0127 0.2138,0.04554c-0.16127,-0.11615 -0.28722,-0.23354 -0.37784,-0.35217c-0.09578,-0.15382 -0.13788,-0.34488 -0.12626,-0.57321c-0.00608,-0.17269 0.0045,-0.34694 0.03172,-0.52276c0.04133,-0.3335 0.15297,-0.65081 0.33493,-0.95192c0.09786,-0.17831 0.38762,-0.59914 0.86925,-1.26249c0.01704,-0.01828 0.03408,-0.03657 0.05112,-0.05485c0.01704,-0.01828 0.01642,-0.03594 -0.00186,-0.05298c0.38142,-0.55176 0.7047,-1.02486 0.96984,-1.41928l1.77455,-2.33761l0.94907,-0.58449l0.46559,-0.16963l1.49543,-1.39059c0.10408,-0.0017 0.19082,-0.02144 0.26022,-0.05925c0.03533,-0.00125 0.07721,-0.01155 0.12564,-0.03094c0.03533,-0.00125 0.08831,-0.0031 0.15895,-0.00559c0.0694,-0.03781 0.16427,-0.04998 0.2846,-0.03653l0.08041,0.02371l0.02742,0.02556c0.10596,-0.00373 0.19388,0.00988 0.26374,0.04084l0.50408,0.92538c-0.01704,0.01828 -0.01642,0.03594 0.00186,0.05298l-0.02556,0.02742c-0.01704,0.01828 -0.01642,0.03594 0.00186,0.05298l0.02742,0.02556l0.15719,0.69886c0.01749,0.05048 0.05429,0.11893 0.11037,0.20537l-0.02371,0.08041l0.09392,0.49182l0.50605,1.73579c0.02684,0.26038 0.04515,0.52989 0.05494,0.80855c0.09879,0.79816 0.2022,2.0068 0.3102,3.62593c0.17493,1.51068 0.27278,2.30984 0.29354,2.39753c-0.03277,0.57683 -0.15865,0.9644 -0.37763,1.16268M246.18076,167.27007c-0.09879,-0.79816 -0.238,-1.51632 -0.41762,-2.15445c-0.04278,-0.2107 -0.11165,-0.40966 -0.20665,-0.5969c-0.08252,0.05594 -0.17552,0.12111 -0.279,0.19548l-0.10313,0.00067c-0.01828,-0.01704 -0.08041,-0.02369 -0.18638,-0.01997l-0.07736,-0.02086c-0.37607,0.25685 -0.78425,0.5502 -1.22456,0.88006c0.01828,0.01704 0.0189,0.03471 0.00186,0.05298c-0.34074,0.25561 -0.67173,0.53741 -0.99296,0.84538c-0.16662,0.17876 -0.50778,0.6181 -1.0235,1.318l-0.84487,1.2852l-0.6962,1.07073c-0.23105,0.35785 -0.41138,0.67758 -0.54099,0.95917c-0.19697,0.32129 -0.32713,0.58719 -0.39046,0.79768l0.00559,0.15895c0.03656,0.03408 0.10744,0.06597 0.21262,0.09568c0.79046,0.12939 1.69741,0.38634 2.72082,0.77082l0.6634,0.25961l1.99083,0.79648c0.70885,0.32285 1.29809,0.48486 1.76771,0.48603c0.08892,0.01455 0.16809,0.00294 0.2375,-0.03488c0.04923,-0.05282 0.07198,-0.13221 0.06825,-0.23817c-0.09193,-0.6589 -0.17325,-1.23958 -0.24396,-1.74205c-0.08671,-0.95774 -0.1484,-1.70611 -0.18503,-2.24515c-0.02684,-0.26038 -0.02625,-0.49519 0.00176,-0.70444c-0.05615,-0.5914 -0.1174,-1.10401 -0.18374,-1.53787c0.00849,-0.26161 -0.01616,-0.48769 -0.07394,-0.67821M241.76377,173.41404c0.10532,0.03363 0.20244,0.05773 0.29137,0.07228c-0.07189,-0.03284 -0.15229,-0.05653 -0.24122,-0.0711c-0.42458,-0.22871 -0.73297,-0.36621 -0.92519,-0.4125c-0.14253,-0.03036 -0.24059,-0.05344 -0.2942,-0.06923c0.3888,0.16121 0.77854,0.32138 1.16923,0.48055z" fill="#000000"/><path d="M245.27749,164.71418c0.10348,-0.07437 0.19648,-0.13953 0.279,-0.19548c0.09499,0.18725 0.16388,0.38622 0.20666,0.59691l-2.07522,0.49145c0.01704,-0.01828 0.01642,-0.03594 -0.00186,-0.05298c0.4403,-0.32985 0.8485,-0.62319 1.22456,-0.88006l0.07736,0.02086c0.10596,-0.00373 0.16809,0.00294 0.18638,0.01997l0.10312,-0.00067M246.43844,169.48614l-6.84903,1.59943c0.1296,-0.28159 0.30992,-0.60132 0.54098,-0.95917l0.6962,-1.07073l5.4281,-1.1074c0.06633,0.43385 0.12757,0.94648 0.18374,1.53786M246.55992,174.45082c-0.46963,-0.00117 -1.05886,-0.16318 -1.76771,-0.48603l-1.99083,-0.79648l3.82032,-0.73257c0.07071,0.50246 0.15204,1.08314 0.24396,1.74205c0.00373,0.10596 -0.01902,0.18536 -0.06825,0.23817c-0.0694,0.03781 -0.14857,0.04943 -0.2375,0.03488z" fill="#e16f6f"/><path d="M246.62171,172.43572l-3.82032,0.73259l-0.6634,-0.25961c-1.02341,-0.38448 -1.93037,-0.64143 -2.72082,-0.77082c-0.10518,-0.02971 -0.17605,-0.06159 -0.21262,-0.09568l-0.00559,-0.15895c0.06333,-0.2105 0.1935,-0.47639 0.39046,-0.79768l6.84902,-1.59943c-0.02801,0.20925 -0.02859,0.44407 -0.00176,0.70444c0.03663,0.53903 0.09831,1.28742 0.18503,2.24515z" fill="#c2e16f"/><path d="M240.82661,169.05566l0.84487,-1.2852c0.51571,-0.69991 0.85687,-1.13925 1.0235,-1.318c0.32122,-0.30798 0.6522,-0.58978 0.99296,-0.84538l2.07522,-0.49145c0.17962,0.63813 0.31882,1.35628 0.41761,2.15444c0.05778,0.19052 0.08243,0.41659 0.07394,0.67821z" fill="#6f7ce1"/></g></g></g></svg>