<svg version="1.1" xmlns="http://www.w3.org/2000/svg" xmlns:xlink="http://www.w3.org/1999/xlink" width="34.17311" height="34.17311" viewBox="0,0,34.17311,34.17311"><g transform="translate(-302.91347,-162.91348)"><g data-paper-data="{&quot;isPaintingLayer&quot;:true}" fill-opacity="0.62745" fill="#eaff00" stroke-miterlimit="10" stroke-dasharray="" stroke-dashoffset="0" style="mix-blend-mode: normal"><path d="M309.98314,162.91349h20.03378c3.9166,0 7.06966,3.15307 7.06966,7.06966v20.03379c0,3.91659 -3.15306,7.06966 -7.06966,7.06966h-20.03378c-3.91659,0 -7.06967,-3.15307 -7.06967,-7.06966v-20.03379c0,-3.91659 3.15308,-7.06966 7.06967,-7.06966z" fill-rule="evenodd" stroke="none" stroke-width="4.43922" stroke-linecap="round" stroke-linejoin="round"/><path d="M335.52795,180c0,7.97879 -6.9521,14.44689 -15.52794,14.44689c-8.57585,0 -15.52794,-6.46809 -15.52794,-14.44689c0,-7.97879 6.9521,-14.44689 15.52794,-14.44689c8.57585,0 15.52794,6.46809 15.52794,14.44689z" fill-rule="nonzero" stroke="#000000" stroke-width="1" stroke-linecap="butt" stroke-linejoin="miter"/><path d="M309.59815,181.32782c0,2.90732 -0.68741,5.26416 -1.53538,5.26416c-0.84796,0 -1.53538,-2.35684 -1.53538,-5.26416c0,-2.90732 0.68741,-5.26415 1.53538,-5.26415c0.84796,0 1.53538,2.35684 1.53538,5.26415z" fill-rule="nonzero" stroke="#000000" stroke-width="1" stroke-linecap="butt" stroke-linejoin="miter"/><path d="M333.42949,180.92037c0,2.90732 -0.68741,5.26416 -1.53538,5.26416c-0.84796,0 -1.53538,-2.35685 -1.53538,-5.26416c0,-2.90732 0.68741,-5.26415 1.53538,-5.26415c0.84796,0 1.53538,2.35684 1.53538,5.26415z" fill-rule="nonzero" stroke="#000000" stroke-width="1" stroke-linecap="butt" stroke-linejoin="miter"/><path d="M329.88308,186.92448c0,3.20214 -4.75668,7.16695 -10.227,7.16695c-0.09967,0 -3.6581,-0.34529 -6.08469,-1.80419c-2.31101,-1.38942 -3.49809,-3.85631 -3.49809,-5.36276c0,-2.27847 4.8615,-2.52244 7.57054,-2.4847c1.02492,0.01427 1.98333,0.63257 2.01223,0.63257c0.4336,0 1.66951,-0.81022 2.09492,-0.81772c4.94164,-0.08715 8.13208,-0.27847 8.13208,2.66985z" fill-rule="nonzero" stroke="#000000" stroke-width="1" stroke-linecap="butt" stroke-linejoin="miter"/></g></g></svg>