<svg version="1.1" xmlns="http://www.w3.org/2000/svg" xmlns:xlink="http://www.w3.org/1999/xlink" width="34.17311" height="34.17311" viewBox="0,0,34.17311,34.17311"><g transform="translate(-222.91345,-162.91346)"><g data-paper-data="{&quot;isPaintingLayer&quot;:true}" stroke="none" stroke-miterlimit="10" stroke-dasharray="" stroke-dashoffset="0" style="mix-blend-mode: normal"><path d="M229.98312,162.91346h20.03379c3.9166,0 7.06966,3.15307 7.06966,7.06966v20.03379c0,3.91659 -3.15306,7.06966 -7.06966,7.06966h-20.03379c-3.91659,0 -7.06966,-3.15307 -7.06966,-7.06966v-20.03379c0,-3.91659 3.15307,-7.06966 7.06966,-7.06966z" fill-opacity="0.35" fill="#4d4d4d" fill-rule="evenodd" stroke-width="4.43922" stroke-linecap="round" stroke-linejoin="round"/><g fill-rule="nonzero" stroke-width="1" stroke-linecap="butt" stroke-linejoin="miter"><path d="M250.99529,182.82396c0.15905,1.2684 0.11447,2.88684 -0.13374,4.85532c-0.14854,0.85669 -0.24928,1.36695 -0.30224,1.53077c-0.08299,0.33797 -0.2617,0.77341 -0.53612,1.30632c-0.70424,1.45626 -1.46675,2.49241 -2.28752,3.10843c-0.7893,0.59993 -2.06772,1.10596 -3.83526,1.51806l-1.21207,0.26919c-1.37889,0.17586 -3.07289,-0.11348 -5.08198,-0.86803c-0.28272,-0.0914 -0.69823,-0.25053 -1.24651,-0.47738c-0.656,-0.29087 -1.59491,-0.78993 -2.81673,-1.49718c-0.353,-0.18999 -0.67121,-0.3702 -0.95466,-0.54063c0.29953,0.2019 0.61007,0.40589 0.93159,0.61197l1.25731,0.79607c0.75341,0.47703 1.27821,0.77655 1.57438,0.89857c0.2682,0.13632 0.70617,0.3027 1.31389,0.49917l3.55519,1.1493c0.45266,0.04419 0.97768,-0.0181 1.57507,-0.18686c0.70788,-0.18558 1.16331,-0.27182 1.36629,-0.25874c0.5691,0.03921 0.92512,0.24728 1.06808,0.62419c-0.04416,0.01731 -0.08688,0.034 -0.12801,0.04988c-0.36548,0.14114 -0.72189,0.05685 -1.05073,0.22173c-0.05349,0.02682 -0.14185,0.1036 -0.24572,0.20558c-0.51691,0.00743 -1.00488,-0.02729 -1.32988,-0.10541c-0.70967,-0.17059 -1.54554,0.1949 -2.24909,0.00835c-1.1764,-0.31193 -2.41161,-0.57257 -3.63066,-0.89254c-1.23569,-0.89621 -2.81676,-1.29723 -4.05101,-2.20137c-0.37847,-0.27724 -1.07889,-0.45181 -1.3683,-0.83252c-0.80246,-1.05558 -1.66783,-2.02448 -2.48378,-3.05413c-0.01093,-0.04249 -0.02334,-0.08453 -0.03719,-0.12604c0.16275,-0.13398 0.3316,-0.18318 0.50653,-0.14761c0.19529,0.03687 0.40739,0.18423 0.6363,0.44209c-0.49748,-0.62777 -0.86663,-1.29139 -1.10745,-1.99087c-0.19169,-0.60771 -0.31548,-1.42549 -0.37135,-2.45332l0.00304,-0.97085c0.0138,-0.12395 0.13089,-0.52678 0.35127,-1.20848l0.4916,-1.27694c0.54776,-1.37844 1.00659,-2.39602 1.37648,-3.05274c0.60409,-1.07423 1.30463,-1.92319 2.10162,-2.54691c0.27046,-0.19565 0.87552,-0.58228 1.81519,-1.15987c0.29509,-0.19061 1.09743,-0.70899 2.40701,-1.55515c0.34108,-0.25162 0.59702,-0.40236 0.76781,-0.45221c0.08586,-0.02186 0.40485,-0.04715 0.95696,-0.07587c1.37242,0.07887 2.39066,0.17456 3.0547,0.28709c1.64049,0.29686 3.15014,0.83596 4.52894,1.61731c0.47681,0.28547 0.88438,0.58649 1.22272,0.90308l0.58121,0.61252c1.69313,2.12913 2.69875,4.26801 3.01684,6.41665z" fill="#cccccc"/><path d="M247.18463,174.28582c1.37412,1.03958 2.49033,2.39852 3.34862,4.07682c0.79127,1.55157 1.30458,3.2453 1.53992,5.08119c0.2525,1.79182 0.17471,3.47686 -0.23336,5.05514c-0.60849,2.52325 -1.92748,4.55854 -3.95694,6.10587c-0.40906,0.30844 -0.82365,0.58883 -1.24376,0.84117c-0.02636,0.08155 -0.05306,0.16412 -0.08008,0.24772c-0.55185,0.15293 -1.07303,0.37046 -1.45679,0.51866c-0.09617,0.03714 -0.19172,0.05867 -0.2863,0.07324l0.00743,-0.03014c-0.05234,0.01669 -0.10481,0.03294 -0.15741,0.04877c-0.21202,0.0218 -0.41815,0.03143 -0.61445,0.12986c-0.02058,0.01032 -0.04633,0.02804 -0.07613,0.05174c-0.25247,0.05699 -0.5077,0.1045 -0.7657,0.14253c-0.28408,-0.01586 -0.53838,-0.04714 -0.73377,-0.09411c-0.70967,-0.17059 -1.54554,0.1949 -2.24909,0.00835c-1.0198,-0.27041 -2.0838,-0.50227 -3.14315,-0.76765c-0.24698,-0.09544 -0.4983,-0.19796 -0.75397,-0.30753c-0.81247,-0.52727 -1.74425,-0.88366 -2.6187,-1.3239c-1.24827,-0.72149 -2.25671,-1.4399 -3.0253,-2.15523c-0.65758,-0.82008 -1.34087,-1.60378 -1.99264,-2.42624c-0.0148,-0.05751 -0.0323,-0.1142 -0.05242,-0.16988c0.02399,-0.35388 -0.17478,-0.7601 -0.45179,-1.11204c-0.1913,-0.53204 -0.31917,-1.08056 -0.38362,-1.64554c-0.11989,-1.30827 0.22529,-3.13889 1.03556,-5.49185c0.60876,-1.7206 1.19807,-3.01995 1.76794,-3.89802c1.06035,-1.60088 2.55758,-2.865 4.49168,-3.79235c1.68407,-0.80389 3.59345,-1.26207 5.72815,-1.37455c1.21472,-0.07426 2.19344,0.0218 2.93616,0.28816c0.3752,0.12129 0.77918,0.31609 1.21192,0.5844zM248.48292,177.85303c-1.17069,-1.75011 -2.67867,-2.97596 -4.52394,-3.67755c-1.1034,-0.43258 -2.22043,-0.62442 -3.35107,-0.57551c-1.27069,0.00364 -2.65534,0.31918 -4.15395,0.94663c-1.1645,0.47864 -2.11895,1.02519 -2.86333,1.63965c-1.36951,1.11279 -2.54767,3.03747 -3.53447,5.77404c-0.66172,1.88442 -0.90159,3.466 -0.71961,4.74473c0.25718,1.53359 1.02677,2.92202 2.30878,4.16529c0.92758,0.89522 2.25185,1.764 3.97282,2.60635c2.0927,1.06467 3.89065,1.63277 5.39386,1.7043c1.5695,0.11923 3.09558,-0.19145 4.57824,-0.93204c1.48181,-0.73795 2.6571,-1.76906 3.52588,-3.09333c1.40035,-2.16512 1.88286,-4.78163 1.44753,-7.84954z" fill="#000000"/><path d="M233.73244,185.1318c0.17285,1.14445 0.49577,1.9872 0.96875,2.52825c0.57458,0.70523 1.70687,1.36894 3.39686,1.99115c0.57121,0.23719 1.162,0.45444 1.77237,0.65176c0.32764,0.10592 0.6948,0.21148 1.10147,0.31668c0.20298,0.01309 0.51855,-0.00164 0.94671,-0.04416c0.53938,0.01969 0.99937,0.00059 1.37997,-0.05732c0.01537,-0.04756 0.0388,-0.07939 0.07026,-0.09548l0.76996,-0.21512c0.09176,-0.04913 0.25757,-0.1648 0.49741,-0.347l0.43163,-0.48208c0.25594,-0.15073 0.40978,-0.22941 0.46153,-0.23603c0.14894,-0.13571 0.37935,-0.24363 0.69126,-0.32374c0.24633,-0.04878 0.45656,-0.05815 0.63071,-0.02812c0.34302,0.05836 0.56227,0.21971 0.65776,0.48405c0.10317,0.24056 0.04174,0.38997 -0.1843,0.44823c-0.02221,0.0687 -0.06478,0.11914 -0.12772,0.15133c-0.77321,0.6314 -1.40842,1.03455 -1.90564,1.20943c-0.76084,0.3494 -1.88578,0.54315 -3.37482,0.58126l-0.7579,-0.05239c-0.23444,0.00301 -0.73876,-0.12063 -1.51295,-0.3709c-1.61972,-0.52361 -2.84832,-1.01126 -3.68581,-1.46294c-1.35345,-0.69728 -2.29615,-1.46897 -2.82811,-2.31509c-0.24393,-0.36486 -0.41058,-0.72955 -0.49996,-1.09406c-0.11315,-0.3722 -0.19249,-0.8896 -0.23803,-1.55221l-0.02018,-0.04592c0.01537,-0.04756 -0.0245,-0.08672 -0.11962,-0.11747l-0.0391,-0.24466l-0.15133,-0.12772c0.00769,-0.02378 -0.01225,-0.04336 -0.05981,-0.05873l-0.187,-0.13925l-0.18936,-0.25383l-0.0265,-0.16178l0.25221,-0.65829l0.11747,-0.11962l0.14789,-0.10541l0.10701,0.03459c0.26434,-0.09549 0.52887,-0.07418 0.79357,0.06393c0.1189,0.03844 0.21349,0.10695 0.28376,0.20555c0.17223,0.10821 0.26063,0.31773 0.26521,0.62856l0.06487,0.76079l0.18936,0.25383l-0.03352,0.22556z" fill="#000000"/><path d="M245.04423,181.99016l0.4104,-0.06432l0.22159,0.03224l0.11726,0.00289c0.1792,0.0054 0.31198,0.07313 0.39834,0.20319l0.11962,0.11747c0.04828,0.0944 0.06857,0.1535 0.06089,0.17728l0.08127,0.10069l0.00108,0.11854l-0.0553,0.29293l0.01261,0.08287l-0.04484,0.13872l-0.04377,0.25726c0.02186,0.08586 -0.00121,0.1572 -0.06919,0.21402l-0.06898,0.09152l-0.0944,0.04828l-0.05873,0.05981l-0.18356,0.09387l-0.17728,0.06089l-0.16178,0.0265l-0.70549,-0.22807l-0.12719,-0.08051l-0.04828,-0.0944c-0.02378,-0.00769 -0.05981,-0.05873 -0.10809,-0.15314l-0.09387,-0.18356l0.0081,-0.2688l-0.03567,-0.01153l0.21654,-0.66982l0.07026,-0.09548z" fill="#000000"/><path d="M237.39301,178.7375l0.2814,0.09097l0.12719,0.08051l0.11962,0.11747c0.06258,0.12238 0.10577,0.18741 0.12955,0.1951l0.02522,0.16575l0.03567,0.01153c-0.03147,0.01609 -0.03068,0.05429 0.00236,0.11458l-0.02306,0.07134l-0.01045,0.15421l-0.08051,0.12719l-0.03459,0.10701l-0.06898,0.09152l-0.03567,-0.01153l-0.09333,0.16682l-0.03567,-0.01153l-0.11619,0.11566l-0.13657,0.19224l-0.08159,0.00864l-0.18881,0.09656l-0.51217,0.02705l-0.2814,-0.09097c-0.14004,-0.04527 -0.23847,-0.1019 -0.29529,-0.16988l-0.11566,-0.11619c-0.04828,-0.0944 -0.08431,-0.14545 -0.10809,-0.15314l-0.01261,-0.08287l0.02178,-0.06738l-0.04431,-0.09312l0.06791,-0.21006l-0.01261,-0.08287c0.04684,-0.06365 0.07753,-0.11794 0.09205,-0.16286l0.04613,-0.14268l0.17096,-0.17675c0.09512,0.03075 0.15806,-0.00143 0.18881,-0.09656l0.03567,0.01153c0.09091,-0.04649 0.14405,-0.09352 0.15942,-0.14108l0.13007,-0.03675l0.53523,-0.09839z" fill="#000000"/><g><path d="M234.56308,176.07598l-0.08287,0.01261c-0.01609,-0.03147 -0.01645,-0.07098 -0.00108,-0.11854c0.00841,0.05525 0.03639,0.09056 0.08395,0.10594M245.43748,173.79981c-0.06905,0.13235 -0.18819,0.26165 -0.35741,0.38789l0.02414,0.0472c-0.05525,0.00841 -0.11819,0.04059 -0.18881,0.09656c-0.34842,0.12084 -0.64675,0.24474 -0.895,0.37169c-0.16994,0.04721 -0.32973,0.09915 -0.47939,0.15584c-0.02378,-0.00769 -0.04624,-0.01495 -0.06738,-0.02178l-0.28301,0.02233l-0.46517,0.12541l-0.09312,0.04431l-0.11854,0.00108l-1.01462,0.25422l-0.68784,-0.02537c-0.06208,0.02954 -0.10465,0.07999 -0.12772,0.15133c-0.07903,0.00072 -0.16058,0.01375 -0.24466,0.0391l-0.08395,-0.10594l-0.39995,-0.08989l-0.2688,-0.0081l-0.04592,0.02018l-0.07134,-0.02306l-1.63508,0.25064l-0.02306,0.07134c-0.00769,0.02378 -0.01879,0.05813 -0.03331,0.10305c-0.09248,-0.0299 -0.19397,-0.03644 -0.30447,-0.01963l-0.04324,0.02542l-0.07134,-0.02306c-0.1792,-0.0054 -0.33593,-0.00354 -0.47021,0.00559l-0.35039,0.00055c-0.14773,-0.02149 -0.27588,-0.06292 -0.38445,-0.12428l-0.51849,-0.08882c0.06294,-0.03219 0.13392,-0.04864 0.21295,-0.04935c-0.19529,-0.03687 -0.35911,-0.08983 -0.49146,-0.15888c-0.15194,-0.09873 -0.27103,-0.25397 -0.35725,-0.4657c-0.07868,-0.15385 -0.14294,-0.31616 -0.19279,-0.48695c-0.10389,-0.31959 -0.13723,-0.65431 -0.10001,-1.00416c0.01309,-0.20298 0.0972,-0.70694 0.25236,-1.51187c0.00769,-0.02378 0.01537,-0.04756 0.02306,-0.07134c0.00769,-0.02378 -0.00036,-0.03951 -0.02414,-0.0472c0.11167,-0.6614 0.20401,-1.22691 0.27703,-1.69651l0.61677,-2.86933l0.61197,-0.93159l0.34984,-0.35093l0.76526,-1.89327c0.09355,-0.04564 0.16375,-0.10028 0.21059,-0.16394c0.03147,-0.01609 0.06503,-0.04318 0.10069,-0.08127c0.03147,-0.01609 0.07867,-0.04023 0.14161,-0.07242c0.04684,-0.06365 0.12761,-0.11488 0.2423,-0.15369l0.08287,-0.01261l0.03567,0.01153c0.0944,-0.04828 0.1798,-0.07321 0.25619,-0.07477l0.84872,0.62458c-0.00769,0.02378 0.00036,0.03951 0.02414,0.0472l-0.01153,0.03567c-0.00769,0.02378 0.00036,0.03951 0.02414,0.0472l0.03567,0.01153l0.43852,0.56639c0.03723,0.0383 0.09956,0.08472 0.187,0.13925l0.01261,0.08287l0.29348,0.40569l1.19391,1.35779c0.13464,0.22447 0.26544,0.46083 0.3924,0.70907c0.42771,0.68109 1.03353,1.73204 1.81747,3.15283c0.7986,1.2942 1.22588,1.97662 1.28185,2.04724c0.21475,0.53637 0.26497,0.94075 0.15064,1.21315M240.58541,167.06128c-0.42771,-0.68109 -0.85812,-1.27259 -1.29122,-1.77448c-0.12803,-0.17272 -0.27473,-0.32375 -0.44013,-0.45309c-0.05103,0.08565 -0.10766,0.18408 -0.16988,0.29529l-0.09312,0.04431c-0.02378,-0.00769 -0.08287,0.01261 -0.17728,0.06089l-0.07891,0.01389c-0.23179,0.39201 -0.47721,0.8307 -0.73626,1.31604c0.02378,0.00769 0.03183,0.02342 0.02414,0.0472c-0.20032,0.37592 -0.38071,0.77142 -0.54116,1.1865c-0.07517,0.23252 -0.19802,0.77503 -0.36855,1.62753l-0.22065,1.52212l-0.17688,1.26486c-0.05764,0.42205 -0.08549,0.78806 -0.08355,1.09804c-0.04226,0.37449 -0.04748,0.67048 -0.01565,0.88798l0.07242,0.14161c0.04756,0.01537 0.12527,0.01423 0.23313,-0.00343c0.77082,-0.21776 1.70118,-0.36935 2.7911,-0.45477l0.7109,-0.04597l2.14076,-0.12219c0.77887,-0.00795 1.38124,-0.1109 1.80711,-0.30884c0.08672,-0.0245 0.1535,-0.06857 0.20034,-0.13223c0.02221,-0.0687 0.00917,-0.15025 -0.0391,-0.24466c-0.36248,-0.55786 -0.68221,-1.04937 -0.95918,-1.47453c-0.48439,-0.83075 -0.85739,-1.48248 -1.11898,-1.95519c-0.13464,-0.22447 -0.23362,-0.4374 -0.29692,-0.63881c-0.30147,-0.51187 -0.57417,-0.95024 -0.81811,-1.3151c-0.10317,-0.24056 -0.2213,-0.43488 -0.35437,-0.58296M239.18815,174.49806c0.10964,-0.01417 0.20782,-0.0335 0.29454,-0.058c-0.07903,0.00072 -0.1619,0.01333 -0.24862,0.03782c-0.48149,-0.02724 -0.81909,-0.0211 -1.01281,0.01842c-0.14197,0.0329 -0.24057,0.05356 -0.29582,0.06196c0.42048,-0.01875 0.84138,-0.03882 1.26271,-0.0602z" fill="#000000"/><path d="M238.68418,165.129c0.06222,-0.11122 0.11885,-0.20965 0.16988,-0.29529c0.16539,0.12935 0.3121,0.28038 0.44013,0.45309l-1.67143,1.32453c0.00769,-0.02378 -0.00036,-0.03951 -0.02414,-0.0472c0.25905,-0.48535 0.50446,-0.92403 0.73626,-1.31604l0.07891,-0.01389c0.0944,-0.04828 0.1535,-0.06857 0.17728,-0.06089l0.09312,-0.04431M241.75789,168.95935l-5.52592,4.35104c-0.00194,-0.30998 0.02591,-0.67599 0.08355,-1.09804l0.17688,-1.26486l4.44738,-3.30324c0.24393,0.36486 0.51664,0.80323 0.81811,1.3151M243.97174,173.40476c-0.42587,0.19794 -1.02824,0.30089 -1.80711,0.30884l-2.14076,0.12219l3.14993,-2.28244c0.27697,0.42516 0.5967,0.91666 0.95918,1.47453c0.04828,0.0944 0.06131,0.17596 0.0391,0.24466c-0.04684,0.06365 -0.11362,0.10773 -0.20034,0.13223z" fill="#e16f6f"/><path d="M243.17379,171.55335l-3.14993,2.28244l-0.7109,0.04597c-1.08992,0.08542 -2.02029,0.23701 -2.7911,0.45477c-0.10785,0.01766 -0.18556,0.01881 -0.23313,0.00343l-0.07242,-0.14161c-0.03183,-0.2175 -0.02662,-0.51349 0.01565,-0.88798l5.52592,-4.35104c0.0633,0.20141 0.16227,0.41434 0.29692,0.63881c0.2616,0.47272 0.63459,1.12445 1.11898,1.95519z" fill="#c2e16f"/><path d="M236.4924,170.94749l0.22065,-1.52212c0.17053,-0.8525 0.29338,-1.39501 0.36855,-1.62753c0.16045,-0.41508 0.34084,-0.81058 0.54116,-1.1865l1.67143,-1.32453c0.43311,0.5019 0.86351,1.09339 1.29122,1.77448c0.13307,0.14808 0.25119,0.3424 0.35437,0.58296z" fill="#6f7ce1"/></g></g></g></g></svg>