<svg version="1.1" xmlns="http://www.w3.org/2000/svg" xmlns:xlink="http://www.w3.org/1999/xlink" width="400.64405" height="337.19465" viewBox="0,0,400.64405,337.19465"><g transform="translate(-23.26399,-3.88398)"><g data-paper-data="{&quot;isPaintingLayer&quot;:true}" fill-rule="nonzero" stroke-linejoin="miter" stroke-miterlimit="10" stroke-dasharray="" stroke-dashoffset="0" style="mix-blend-mode: normal"><path d="M195.79864,306.61253v-253.22501h91.18203v253.22501z" fill-opacity="0.01" fill="#000000" stroke="none" stroke-width="0" stroke-linecap="butt"/><path d="M170.04534,206.05834c0,0 38.89353,-56.43997 70.90866,-56.59978c31.60235,-0.15775 47.84884,36.89673 47.84884,36.89673c0,0 22.8058,64.81293 23.90657,69.90604c1.97111,9.12006 -6.86006,11.28769 -6.86006,11.28769l-28.0477,-80.28755c0,0 -5.25785,-5.09931 -8.14959,-5.15416c-3.43441,-0.06514 -4.61204,7.44896 -4.61204,7.44896l0.20548,114.86995l-48.21366,0.07222l-0.30539,-115.23309c0,0 -2.05384,-11.58567 -5.21893,-11.6011c-0.42502,-0.00207 -4.5034,-0.03293 -5.7609,1.06648c-7.94659,6.94761 -28.03501,33.07598 -28.03501,33.07598z" fill="#ffffff" stroke="#000000" stroke-width="2" stroke-linecap="butt"/><path d="M256.14251,200.33385c-0.57113,0 -1.03411,-0.46299 -1.03411,-1.03411c0,-0.57113 0.46299,-1.03413 1.03411,-1.03413c0.57113,0 1.03411,0.463 1.03411,1.03413c0,0.57113 -0.46299,1.03411 -1.03411,1.03411z" fill="#000000" stroke="none" stroke-width="1.5" stroke-linecap="butt"/><path d="M250.88263,204.56945c-4.4635,-0.31439 -6.55245,-1.79392 -6.16985,-2.58011c0.11788,-0.24224 2.84645,1.06355 6.97038,1.3048c6.40897,0.37493 8.51033,-0.63173 8.51033,-0.63173v1.34616c0,0 -2.4135,1.04672 -9.31086,0.56089z" fill="#000000" stroke="#000000" stroke-width="0" stroke-linecap="butt"/><path d="M223.06988,199.29974c0,-0.57113 0.46299,-1.03413 1.03411,-1.03413c0.57113,0 1.03413,0.463 1.03413,1.03413c0,0.57113 -0.463,1.03411 -1.03413,1.03411c-0.57113,0 -1.03411,-0.46299 -1.03411,-1.03411z" fill="#000000" stroke="none" stroke-width="1.5" stroke-linecap="butt"/><path d="M229.36387,204.56945c-6.89736,0.48585 -9.31086,-0.56089 -9.31086,-0.56089v-1.34616c0,0 2.10136,1.00666 8.51033,0.63173c4.12393,-0.24126 6.85251,-1.54704 6.97039,-1.3048c0.3826,0.78618 -1.70634,2.26571 -6.16985,2.58011z" fill="#000000" stroke="#000000" stroke-width="0" stroke-linecap="butt"/><path d="M240.64433,261.12113c-0.81895,0 -1.48284,-0.66389 -1.48284,-1.48284c0,-0.81895 0.66389,-1.48284 1.48284,-1.48284c0.81895,0 1.48284,0.66389 1.48284,1.48284c0,0.81895 -0.66389,1.48284 -1.48284,1.48284z" data-paper-data="{&quot;index&quot;:null}" fill="#000000" stroke="none" stroke-width="1.5" stroke-linecap="butt"/><path d="M343.10571,242.72569l3.70334,9.82215l-40.14293,14.77997c-0.21476,-3.41854 -1.42689,-6.75754 -3.56435,-9.54865c22.71145,-8.5132 40.00394,-15.05347 40.00394,-15.05347z" fill="#ffffff" stroke="#000000" stroke-width="2" stroke-linecap="butt"/><path d="M216.58107,304.40603v-119.20147c0,0 0.75721,-9.73105 0.75721,-14.63937c0,-4.498 -0.75721,-13.6872 -0.75721,-13.6872c0,0 2.67319,-2.35297 4.6557,-3.74807c1.98251,-1.3951 5.17197,-2.80371 5.17197,-2.80371c0,0 -0.6016,40.10902 14.55952,40.03867c15.43477,-0.07162 13.83154,-40.03867 13.83154,-40.03867c0,0 3.91276,1.51959 6.16585,2.94655c2.25309,1.42695 4.75379,3.60523 4.75379,3.60523c0,0 -0.75721,9.42463 -0.75721,14.19201c0,4.84193 0.75721,14.63937 0.75721,14.63937v118.69667z" fill="#ffffff" stroke="#000000" stroke-width="2" stroke-linecap="butt"/><g fill="#ffa306" stroke="none" stroke-width="0" stroke-linecap="butt"><path d="M259.63084,259.80214c16.58869,22.06341 11.68478,53.74733 -10.9532,70.76803c-22.63798,17.02069 -54.43748,12.93276 -71.02617,-9.13065c-16.5887,-22.06341 -11.68478,-53.74733 10.9532,-70.76803c22.63798,-17.02069 54.43748,-12.93276 71.02617,9.13065z"/><path d="M293.2849,233.52176c13.91031,18.50108 12.61082,42.95468 -2.90252,54.6186c-15.51333,11.66392 -39.36591,6.1213 -53.27623,-12.37978c-13.91031,-18.50108 -12.61082,-42.95468 2.90252,-54.61859c15.51334,-11.66392 39.36592,-6.1213 53.27623,12.37978z"/></g><path d="M270.65308,255.23252c5.35755,9.7422 3.30135,20.86168 -4.59267,24.83606c-7.89402,3.97438 -18.63652,-0.70136 -23.99408,-10.44356c-5.35755,-9.74219 -3.30134,-20.86167 4.59267,-24.83605c7.89401,-3.97438 18.63652,0.70136 23.99408,10.44355z" fill="#170e00" stroke="none" stroke-width="0" stroke-linecap="butt"/><g stroke="none" stroke-width="0" stroke-linecap="butt"><path d="M260.56706,244.89565l114.50456,-84.82309l12.50025,16.87436l-114.50456,84.82308z" fill="#c17c04"/><path d="M326.42613,196.81204l2.97751,-2.22044l11.91351,15.97549l-2.97751,2.22044z" fill="#bebebe"/><path d="M319.29499,202.30267l2.97751,-2.22044l11.9135,15.97549l-2.97751,2.22044z" fill="#bebebe"/><path d="M312.95623,207.18325l2.97751,-2.22044l11.9135,15.97549l-2.97752,2.22044z" fill="#bebebe"/><path d="M306.30392,212.12492l2.97751,-2.22043l11.9135,15.97549l-2.97752,2.22044z" fill="#bebebe"/><g fill="#bebebe"><path d="M299.34373,216.82287l2.97751,-2.22043l11.9135,15.97549l-2.97751,2.22044z"/><path d="M292.21262,222.3135l2.97751,-2.22044l11.91351,15.97549l-2.97752,2.22044z"/><path d="M285.87385,227.19408l2.97751,-2.22043l11.91351,15.97549l-2.97752,2.22044z"/><path d="M279.22153,232.13575l2.97751,-2.22044l11.91351,15.97549l-2.97752,2.22044z"/></g><g fill="#bebebe"><path d="M352.77693,176.94383l2.97751,-2.22044l11.91351,15.97549l-2.97752,2.22044z"/><path d="M345.64581,182.43446l2.97751,-2.22044l11.91351,15.97549l-2.97752,2.22044z"/><path d="M339.30703,187.31503l2.97751,-2.22044l11.91351,15.97549l-2.97752,2.22044z"/><path d="M332.65472,192.2567l2.97751,-2.22043l11.9135,15.97549l-2.97751,2.22044z"/></g><g fill="#bebebe"><path d="M272.4647,237.09781l2.97751,-2.22044l11.91351,15.97549l-2.97752,2.22044z"/><path d="M265.33359,242.58844l2.97751,-2.22044l11.9135,15.97549l-2.97751,2.22044z"/></g><g fill="#bebebe"><path d="M367.44589,166.49078l2.97751,-2.22043l11.91351,15.97549l-2.97752,2.22044z"/><path d="M360.79358,171.43246l2.97751,-2.22044l11.9135,15.97549l-2.97751,2.22044z"/></g></g><path d="M261.44901,250.0338l118.30519,-87.30339" fill="none" stroke="#fff27e" stroke-width="2" stroke-linecap="round"/><path d="M266.04438,254.90936l118.3052,-87.30339" fill="none" stroke="#fff27e" stroke-width="2" stroke-linecap="round"/><path d="M388.01001,172.36009l-118.30519,87.30339" fill="none" stroke="#fff27e" stroke-width="2" stroke-linecap="round"/><path d="M370.60285,161.3627l10.97134,-7.60605c0,0 19.72827,-7.0165 28.38419,-7.77838c5.62058,-0.49471 16.09326,6.48615 13.56164,10.86989c-5.11973,8.86526 -16.07377,18.83698 -19.90892,21.71376c-7.77143,5.82943 -17.55312,2.87356 -17.55312,2.87356z" fill="#805203" stroke="none" stroke-width="0" stroke-linecap="butt"/><path d="M196.44185,103.88017c0,0 6.16329,-5.92187 6.29161,-6.78761c0.33654,-2.27063 -0.16776,-40.17317 35.96775,-41.57382c44.63633,-0.91362 39.01489,35.34872 41.53088,42.1903c3.44981,9.38084 6.15664,17.40016 6.15664,17.40016c0,0 -2.76715,-2.05351 -4.0797,-3.13397c-1.2242,-1.00773 -3.80143,-3.14585 -3.80143,-3.14585c0,0 3.09111,10.3481 1.31092,20.69498c-1.5623,9.48098 -7.29782,17.22543 -7.29782,17.22543l-1.15522,-2.34735c0,0 -1.02266,2.19794 -2.16005,3.33274c-1.1374,1.13479 -3.43873,2.91273 -3.43873,2.91273l-0.09205,-3.70421c0,0 -7.0601,11.01795 -24.35066,10.87154c-16.30625,-0.25547 -26.07151,-10.6752 -26.07151,-10.6752l-0.1162,2.65484c0,0 -3.89477,-3.29276 -6.18145,-9.70754c-2.72545,-7.64567 -3.23946,-12.24324 -3.23946,-12.24324c0,0 -2.33908,1.89916 -5.71704,2.7744c-4.23278,1.09673 -6.94665,0.34526 -6.94665,0.34526c0,0 3.60795,-2.71717 5.58396,-4.76989c1.76007,-1.8284 2.64658,-3.37722 2.64658,-3.37722c0,0 -2.10758,1.0847 -4.23277,1.61795c-2.21739,0.5564 -4.03008,0.53093 -4.03008,0.53093c0,0 4.97492,-5.03728 7.03074,-10.87429c1.94102,-5.51108 2.09972,-10.95731 2.09972,-10.95731c0,0 -1.36165,0.66163 -3.33013,0.79513c-1.24776,0.08463 -2.37785,-0.0489 -2.37785,-0.0489z" fill="#000000" stroke="none" stroke-width="1.5" stroke-linecap="butt"/><path d="M213.22774,115.2018c-0.57709,-7.29323 0.335,-17.15448 0.335,-17.15448c0,0 3.41059,-0.04124 13.91429,-3.14424c8.0696,-2.38394 20.54731,-9.48722 20.54731,-9.48722c0,0 -2.16005,3.00503 -3.40781,4.46015c-1.32651,1.54696 -3.99292,4.56297 -3.99292,4.56297c0,0 7.838,-1.66761 14.67476,-4.72931c8.56837,-3.53575 10.59252,-6.05309 12.95042,-4.5927c2.7829,1.72362 1.03006,23.1827 0.71846,28.74062c-0.42163,5.66922 -2.53327,9.49969 -3.15031,12.52053c-0.61704,3.02084 -0.4096,6.13662 -2.20622,16.0397c-1.12121,6.18021 -4.16183,8.92466 -10.01942,14.66081c-5.85759,5.73616 -9.05378,9.25275 -13.01359,9.32173c-3.81077,0.06639 -8.93565,-5.1002 -13.93542,-10.38244c-5.32393,-5.62474 -8.87489,-8.47713 -9.71551,-15.13975c-0.75707,-6.00039 -0.77653,-9.90853 -1.12266,-15.24835c-0.25298,-3.90273 -2.26119,-6.44504 -2.57636,-10.42801z" fill="#ffffff" stroke="#000000" stroke-width="1.5" stroke-linecap="butt"/><path d="M261.29774,100.08143c0,0 1.52429,0.31807 4.2558,1.11029c2.49492,0.72361 4.44935,1.74403 4.44935,1.74403l0.1951,1.17035c0,0 -7.24963,-3.12997 -15.1158,-2.4706c-6.2896,0.52724 -9.96319,2.8124 -9.96319,2.8124l0.04575,-4.17683c0,0 3.12748,-1.70421 7.86366,-1.85557c4.90428,-0.15672 8.09084,0.59125 8.09084,0.59125z" data-paper-data="{&quot;index&quot;:null}" fill="#000000" stroke="none" stroke-width="1.5" stroke-linecap="butt"/><g fill="#ffffff" stroke="#000000" stroke-linecap="butt"><path d="M255.95052,143.23627c2.9637,1.20597 7.21362,0.43579 7.19412,0.60335c-0.02476,0.21265 -11.57763,4.51265 -14.82223,4.91796c-2.71902,0.33964 -6.68867,0.70564 -6.68867,0.70564c0,0 -7.10401,-1.16169 -13.27235,-2.44521c-4.94371,-1.02869 -10.25643,-3.08965 -10.26709,-3.18318c-0.01439,-0.12613 3.72549,0.71786 6.68131,0.0339c1.14585,-0.49661 5.43971,-1.48513 5.43971,-1.48513c0,0 4.95585,-0.27766 7.60826,0.579c2.84203,0.91791 2.83546,2.44556 3.0831,2.46906c0,0 1.18436,-1.74932 2.36886,-2.10461c1.18451,-0.35528 9.73469,-1.28722 12.67497,-0.09078z" stroke-width="1.4"/><path d="M229.38523,148.12268c5.09114,1.02674 11.91756,2.80736 11.91756,2.80736c0,0 5.78976,-1.55585 8.44678,-1.8344c2.05992,-0.21596 12.50171,-4.27797 12.54597,-3.9052c0.04328,0.36447 -10.3169,16.47176 -22.4338,16.01857c-13.76954,-0.43578 -22.86459,-16.13559 -22.82675,-16.30472c0.03784,-0.16913 7.2591,2.19165 12.35024,3.2184z" stroke-width="1.9"/></g><path d="M240.85988,144.62888c-1.03376,0 -3.5381,-3.26042 -3.7867,-5.3637c-0.22243,-1.88186 1.31512,-3.82799 3.7867,-3.82799c2.47159,0 4.2021,0.49077 4.02999,4.18853c-0.14607,3.13818 -1.55841,5.00317 -4.02999,5.00317z" fill="#ffffff" stroke="#000000" stroke-width="1.15" stroke-linecap="butt"/><path d="M244.46199,114.53517c0,0 0.1026,3.96976 0.00576,7.12662c-0.19174,6.25113 -1.08147,27.7607 -1.08147,27.7607l-2.98167,0.00864c0,0 -0.80294,-4.17274 -1.12322,-9.49979c-0.43353,-7.21063 -0.4495,-16.29321 -0.76344,-19.63229c-0.29758,-3.16513 -0.89593,-5.71453 -0.89593,-5.71453" fill="#ffffff" stroke="#000000" stroke-width="1.3" stroke-linecap="round"/><path d="M214.92738,125.325c0,0 -4.93211,-3.51705 -6.16417,-8.97502c-1.29636,-5.74284 -1.46118,-9.7328 0.48013,-9.99193c1.94131,-0.25915 2.70321,2.37692 3.73262,8.35569c1.0294,5.97877 1.95143,10.61127 1.95143,10.61127z" data-paper-data="{&quot;index&quot;:null}" fill="#ffffff" stroke="#000000" stroke-width="1" stroke-linecap="butt"/><path d="M214.72479,121.37745c0,0 -3.56385,-2.92338 -4.31816,-8.45061c-0.42079,-3.08327 2.15675,-2.28016 2.15675,-2.28016" fill="none" stroke="#000000" stroke-width="0.25" stroke-linecap="round"/><path d="M217.73819,114.72154c0.07093,-4.89188 4.83834,-8.93609 10.21137,-8.8582c5.37302,0.0779 9.02724,4.2484 8.95632,9.14029c-0.07093,4.89188 -4.12352,8.79439 -9.49655,8.7165c-5.37302,-0.0779 -9.74207,-4.1067 -9.67114,-8.99859z" fill="#ffffff" stroke="#000000" stroke-width="1.4" stroke-linecap="butt"/><path d="M222.17583,114.83949c0.03999,-2.75843 2.30855,-4.96213 5.06696,-4.92214c2.75843,0.03999 4.96213,2.30855 4.92214,5.06696c-0.03999,2.75843 -2.30854,4.96213 -5.06696,4.92214c-2.75843,-0.03999 -4.96213,-2.30855 -4.92214,-5.06696z" fill="#000000" stroke="none" stroke-width="1.5" stroke-linecap="butt"/><path d="M244.79447,114.72228c0.20353,-4.88817 4.45264,-8.85847 9.77048,-8.85847c5.31783,0 9.27453,3.96607 9.27453,8.85847c0,4.8924 -3.88585,9.07104 -9.69964,9.14188c-5.52997,0.06739 -9.55792,-4.03692 -9.34537,-9.14188z" fill="#ffffff" stroke="#000000" stroke-width="1.4" stroke-linecap="butt"/><path d="M249.39722,114.80783c0,-2.81845 2.2848,-5.10325 5.10325,-5.10325c2.81845,0 5.10325,2.2848 5.10325,5.10325c0,2.81845 -2.28479,5.10325 -5.10325,5.10325c-2.81845,0 -5.10325,-2.2848 -5.10325,-5.10325z" fill="#000000" stroke="none" stroke-width="1.5" stroke-linecap="butt"/><path d="M217.66976,114.18937c0,0 0.06357,-9.01512 10.60111,-8.8249c9.47101,0.16586 9.55554,9.40723 9.55554,9.40723z" fill="#ffffff" stroke="#000000" stroke-width="1.15" stroke-linecap="butt"/><path d="M244.41682,114.32027c0,0 -0.24686,-9.4582 11.19813,-9.1032c9.71427,0.33347 9.54677,9.65229 9.54677,9.65229z" fill="#ffffff" stroke="#000000" stroke-width="1.15" stroke-linecap="butt"/><path d="M220.94942,100.67662c0,0 3.36963,-1.819 8.03244,-2.28178c5.16698,-0.51283 7.76823,-0.06628 7.76823,-0.06628l0.29508,4.13747c0,0 -3.83554,-0.68065 -8.01795,-0.52113c-5.59346,0.21333 -6.64488,1.43293 -10.89774,1.89119c-3.64408,0.39266 -6.73723,0.15884 -6.73723,0.15884l-0.02589,-1.23155c0,0 3.59517,0.07398 5.23371,-0.06836c1.35239,-0.11749 3.9757,-0.93808 3.9757,-0.93808z" fill="#000000" stroke="none" stroke-width="1.5" stroke-linecap="butt"/><path d="M269.16054,114.71373c1.0294,-5.97877 1.7913,-8.61483 3.73262,-8.35569c1.94131,0.25914 1.77649,4.24909 0.48013,9.99193c-1.23206,5.45797 -6.16417,8.97502 -6.16417,8.97502c0,0 0.92203,-4.6325 1.95143,-10.61127z" data-paper-data="{&quot;index&quot;:null}" fill="#ffffff" stroke="#000000" stroke-width="1" stroke-linecap="butt"/><path d="M269.5731,110.64668c0,0 2.57754,-0.80312 2.15675,2.28016c-0.75431,5.52723 -4.31816,8.45061 -4.31816,8.45061" data-paper-data="{&quot;index&quot;:null}" fill="none" stroke="#000000" stroke-width="0.25" stroke-linecap="round"/><path d="M261.77161,267.31189l-21.29902,-8.24886c0,0 -7.15373,-12.36786 -9.35351,-13.45559c-1.90362,-0.94127 -4.32944,-3.26963 -6.69042,-4.43702l3.45543,-5.48386c0.12774,-0.56864 0.6992,-2.28401 1.01421,-3.48304c0.35938,0.17935 7.95964,1.47805 9.44224,2.21792c0.52554,0.26228 3.87484,-4.25803 3.87484,-4.25803l15.7043,-1.06635l12.44026,5.04308l7.98612,11.28106l-6.26069,0.01091l-4.88374,-5.77565l-9.89751,-4.17538l-2.32322,5.0379l33.88988,17.90857l-3.44458,5.57464l-32.83284,-14.09368l28.52346,15.34291l-1.54682,4.6103l-16.30639,-5.58442z" data-paper-data="{&quot;index&quot;:null}" fill="#ffffff" stroke="#000000" stroke-width="2" stroke-linecap="butt"/><path d="M233.27147,234.13306l-4.51767,9.47523l-56.60713,-27.53182c0.86919,-1.04803 1.62909,-2.21494 2.2541,-3.49194c0.91947,-1.87861 1.47169,-3.84155 1.68458,-5.8074c30.26031,14.55202 57.18612,27.35593 57.18612,27.35593z" fill="#ffffff" stroke="#000000" stroke-width="2" stroke-linecap="butt"/><path d="" fill="#ffffff" stroke="#000000" stroke-width="2" stroke-linecap="butt"/><path d="M181.03991,210.25073c0,3.58985 -2.91015,6.5 -6.5,6.5c-3.58985,0 -6.5,-2.91015 -6.5,-6.5c0,-3.58985 2.91015,-6.5 6.5,-6.5c3.58985,0 6.5,2.91015 6.5,6.5z" fill="#ffffff" stroke="#000000" stroke-width="2" stroke-linecap="butt"/><path d="M170.30206,207.06866l5.76952,-7.44836l5.94836,4.26952c0,0 -1.97945,3.18195 -1.87155,4.82382c0.13106,1.99421 6.10203,4.12454 6.10203,4.12454c0,0 1.00207,6.56362 -2.16079,6.69013c-1.43395,0.05736 -5.80981,-1.54011 -5.80981,-1.54011c0,0 -5.50607,-1.41926 -7.209,-3.75015c-1.70293,-2.33089 -0.76875,-7.1694 -0.76875,-7.1694z" fill="#ffffff" stroke="none" stroke-width="0" stroke-linecap="butt"/><path d="M243.63518,239.78083c0,3.94489 -2.79274,5.28572 -8,5.28572c-5.20726,0 -11.85714,-4.48368 -11.85714,-8.42857c0,-3.31554 -2.18714,-4.70651 1.4372,-4.61013c0.68796,0.01829 18.41994,3.8081 18.41994,7.75299z" fill="#ffffff" stroke="none" stroke-width="0" stroke-linecap="butt"/><path d="M370.38381,214.9278l-4.9724,16.84912l-17.58504,20.02161l-9.39222,-6.22231c0,0 3.14542,-6.16625 3.28535,-6.69669c0.14983,-0.56793 -4.95754,-2.92712 -4.95754,-2.92712l-4.24027,-15.15858l2.40562,-13.20627l10.34179,-4.76762l-0.3816,6.10315l-4.93585,1.95258l-1.05427,9.22152l5.40529,1.24925l6.43755,-22.28835l-11.07636,-9.49231l5.0928,-2.37812l13.54579,13.32585l-4.32085,21.2595l6.70689,-21.54612l-14.68591,-12.88634l6.17611,-0.4082l15.72809,12.41615l-2.02882,9.05317z" data-paper-data="{&quot;index&quot;:null}" fill="#ffffff" stroke="#000000" stroke-width="2" stroke-linecap="butt"/><path d="M348.74189,246.93728c0,2.85347 -0.46069,3.43082 -3.51515,5.16667c-6.01889,2.30478 -11.22222,-0.53542 -11.22222,-3.38889c0,-0.77902 0.73068,-1.51067 2.38,-2.45345c0.6969,-0.39836 2.89515,-0.9852 3.31342,-1.59132c2.21777,-3.21379 4.06947,-7.06634 5.19546,-7.06634c1.84095,0 3.84848,6.47986 3.84848,9.33333z" fill="#ffffff" stroke="none" stroke-width="0" stroke-linecap="butt"/><path d="M313.25262,257.89189c0,1.44279 -0.87725,4.71246 -2.76309,6.57579c-1.40274,1.38599 -3.95914,1.64643 -3.95914,1.64643c0,0 -4.05555,-9.59515 -4.05555,-12.11111c0,-2.25162 6.33066,-3.55555 6.61111,-3.55555c1.16717,0 1.94686,4.13667 2.82995,5.00105c1.13658,1.11249 1.33672,1.02753 1.33672,2.4434z" fill="#ffffff" stroke="none" stroke-width="0" stroke-linecap="butt"/><path d="M24.36012,308.72853l1.98611,-23.49069c0,0 8.42583,-11.53885 8.53263,-13.99054c0.0924,-2.12161 1.24289,-5.28107 1.35747,-7.9124l6.41222,0.9467c0.5718,-0.11277 2.37185,-0.28267 3.59598,-0.47867c-0.01896,0.4012 1.86203,7.87867 1.78387,9.53378c-0.02772,0.5867 5.46014,1.8254 5.46014,1.8254l7.31717,13.93633l0.40995,13.41732l-7.09545,11.86149l-2.53815,-5.72312l3.31168,-6.80014l-0.17696,-10.74072l-5.54703,-0.091l-2.69825,38.23559l-6.49088,-0.90011l-0.36492,-35.72806l-3.91507,32.90675l-5.08897,-0.11217l0.1677,-17.23066z" data-paper-data="{&quot;index&quot;:null}" fill="#ffffff" stroke="#000000" stroke-width="2" stroke-linecap="butt"/><path d="M36.05497,202.27239c-0.16351,-24.31099 -0.3321,-49.39377 -0.40341,-60.05943c-0.01145,-1.71314 0.34341,-4.32953 1.20819,-7.39541c1.27696,2.2803 8.74931,15.00512 9.08042,15.2907l0.15684,51.10722c-2.53724,0.18528 -4.78344,0.80565 -7.40062,0.93706c-0.89328,0.00777 -1.77125,0.0544 -2.64141,0.11986z" data-paper-data="{&quot;index&quot;:null}" fill="#ffffff" stroke="#000000" stroke-width="2" stroke-linecap="butt"/><path d="M36.44492,260.22496c0,0 -0.18907,-28.08618 -0.38658,-57.45183c0.87379,-0.06584 1.75548,-0.11284 2.65277,-0.12083c2.61816,-0.13089 4.85531,-0.75136 7.38744,-0.93677l0.17929,58.42448z" data-paper-data="{&quot;index&quot;:null}" fill="#ffffff" stroke="#000000" stroke-width="2" stroke-linecap="butt"/><path d="M48.1574,202.74643c0,4.05009 -3.05939,7.33333 -6.83333,7.33333c-3.77394,0 -6.83333,-3.28324 -6.83333,-7.33333c0,-4.0501 3.05938,-7.33334 6.83333,-7.33334c3.77395,0 6.83333,3.28325 6.83333,7.33334z" data-paper-data="{&quot;index&quot;:null}" fill="#ffffff" stroke="none" stroke-width="0" stroke-linecap="butt"/><path d="M41.15129,256.29299c3.4978,0 6.33334,2.52898 6.33334,5.64864c0,3.11966 -2.83553,5.64865 -6.33334,5.64865c-3.4978,0 -6.33333,-2.52898 -6.33333,-5.64865c0,-3.11966 2.83553,-5.64864 6.33333,-5.64864z" data-paper-data="{&quot;index&quot;:null}" fill="#ffffff" stroke="none" stroke-width="0" stroke-linecap="butt"/><path d="M49.56114,141.7877c0,3.87624 -2.88045,7.01855 -6.43367,7.01855c-3.55322,0 -6.43367,-3.14231 -6.43367,-7.01855c0,-3.87624 2.88045,-7.01855 6.43367,-7.01855c3.55322,0 6.43367,3.14231 6.43367,7.01855z" fill="#ffffff" stroke="none" stroke-width="0" stroke-linecap="butt"/><path d="M103.3246,309.67618l0.1677,17.23066l-5.08897,0.11217l-3.91507,-32.90675l-0.36492,35.72806l-6.49088,0.90011l-2.69825,-38.23559l-5.54703,0.091l-0.17696,10.74072l3.31168,6.80014l-2.53815,5.72312l-7.09545,-11.86149l0.40995,-13.41732l7.31717,-13.93633c0,0 5.48786,-1.2387 5.46014,-1.8254c-0.07816,-1.65511 1.80283,-9.13258 1.78387,-9.53378c1.22413,0.196 3.02418,0.3659 3.59598,0.47867l6.41222,-0.9467c0.11458,2.63133 1.26507,5.79079 1.35747,7.9124c0.1068,2.45169 8.53263,13.99054 8.53263,13.99054l1.98611,23.49069z" data-paper-data="{&quot;index&quot;:null}" fill="#ffffff" stroke="#000000" stroke-width="2" stroke-linecap="butt"/><path d="M98.04898,203.75496c-0.87016,-0.06546 -1.74813,-0.11209 -2.64141,-0.11986c-2.61718,-0.13141 -4.86338,-0.75178 -7.40062,-0.93706l0.15684,-51.10722c0.33111,-0.28558 7.80346,-13.0104 9.08042,-15.2907c0.86478,3.06588 1.21964,5.68227 1.20819,7.39541c-0.07131,10.66566 -0.2399,35.74844 -0.40341,60.05943z" data-paper-data="{&quot;index&quot;:null}" fill="#ffffff" stroke="#000000" stroke-width="2" stroke-linecap="butt"/><path d="M87.82612,261.62258l0.17929,-58.42448c2.53213,0.18541 4.76928,0.80588 7.38744,0.93677c0.89729,0.00799 1.77898,0.05499 2.65277,0.12083c-0.19751,29.36565 -0.38658,57.45183 -0.38658,57.45183z" data-paper-data="{&quot;index&quot;:null}" fill="#ffffff" stroke="#000000" stroke-width="2" stroke-linecap="butt"/><path d="M92.77989,196.89566c3.77395,0 6.83333,3.28324 6.83333,7.33334c0,4.05009 -3.05939,7.33333 -6.83333,7.33333c-3.77394,0 -6.83333,-3.28324 -6.83333,-7.33333c0,-4.05009 3.05938,-7.33334 6.83333,-7.33334z" data-paper-data="{&quot;index&quot;:null}" fill="#ffffff" stroke="none" stroke-width="0" stroke-linecap="butt"/><path d="M99.286,263.4242c0,3.11967 -2.83553,5.64865 -6.33333,5.64865c-3.49781,0 -6.33334,-2.52899 -6.33334,-5.64865c0,-3.11966 2.83554,-5.64864 6.33334,-5.64864c3.4978,0 6.33333,2.52898 6.33333,5.64864z" data-paper-data="{&quot;index&quot;:null}" fill="#ffffff" stroke="none" stroke-width="0" stroke-linecap="butt"/><path d="M90.97649,136.25173c3.55322,0 6.43367,3.14231 6.43367,7.01855c0,3.87624 -2.88045,7.01855 -6.43367,7.01855c-3.55321,0 -6.43367,-3.14231 -6.43367,-7.01855c0,-3.87624 2.88046,-7.01855 6.43367,-7.01855z" data-paper-data="{&quot;index&quot;:null}" fill="#ffffff" stroke="none" stroke-width="0" stroke-linecap="butt"/><path d="M140.22052,261.19963l0.15371,-21.04749c0,0 8.42583,-11.53885 8.53263,-13.99054c0.0924,-2.12161 1.24289,-5.28107 1.35747,-7.9124l6.41222,0.9467c0.5718,-0.11277 2.37185,-0.28267 3.59598,-0.47867c-0.01896,0.4012 1.86203,7.87867 1.78387,9.53378c-0.02772,0.5867 5.46014,1.8254 5.46014,1.8254l5.17937,13.93633l-2.33865,13.41732l-8.31706,11.25069l-0.3191,1.13759l-15.65289,0.6269l-1.26085,-7.33732z" data-paper-data="{&quot;index&quot;:null}" fill="#ffffff" stroke="#000000" stroke-width="2" stroke-linecap="butt"/><path d="M145.17019,168.24783l-8.55122,41.22907l-3.3594,-13.74302" fill="none" stroke="#000000" stroke-width="2" stroke-linecap="round"/><path d="M136.61897,211.00391l8.24582,-13.74303" fill="none" stroke="#000000" stroke-width="2" stroke-linecap="round"/><text transform="translate(111.88153,147.03612) scale(0.28758,0.28758)" font-size="40" xml:space="preserve" fill="#000000" fill-rule="nonzero" stroke="none" stroke-width="1" stroke-linecap="butt" stroke-linejoin="miter" stroke-miterlimit="10" stroke-dasharray="" stroke-dashoffset="0" font-family="Sans Serif" font-weight="normal" text-anchor="start" style="mix-blend-mode: normal"><tspan x="0" dy="0">for stuff like </tspan><tspan x="0" dy="46.150000000000006px">clenching fist</tspan></text><path d="M129.43678,264.13771l-1.26085,7.33732l-15.65289,-0.62689l-0.31909,-1.13759l-8.31706,-11.25069l-2.33865,-13.41732l5.17937,-13.93633c0,0 5.48786,-1.2387 5.46014,-1.8254c-0.07816,-1.65511 1.80283,-9.13258 1.78387,-9.53378c1.22413,0.196 3.02418,0.3659 3.59598,0.47867l6.41222,-0.9467c0.11458,2.63133 1.26507,5.79079 1.35747,7.9124c0.1068,2.45169 8.53263,13.99054 8.53263,13.99054l0.15371,21.04748z" data-paper-data="{&quot;index&quot;:null}" fill="#ffffff" stroke="#000000" stroke-width="2" stroke-linecap="butt"/><path d="M71.16948,49.51263l1.37531,-22.57449c0,0 8.42583,-11.53885 8.53263,-13.99054c0.0924,-2.12161 1.24289,-5.28107 1.35747,-7.9124l6.41222,0.9467c0.5718,-0.11277 2.37185,-0.28267 3.59598,-0.47867c-0.01896,0.4012 1.86203,7.87867 1.78387,9.53378c-0.02772,0.5867 5.46014,1.8254 5.46014,1.8254l7.31717,13.93633l-1.6393,19.61447l-9.01641,-5.63548l0.51586,-6.63932l4.53328,3.88888l-0.48236,-9.21372l-5.54703,-0.091l-2.69825,38.23559l-6.49088,-0.90011l1.48776,-28.10455c0,0 -3.38823,6.9906 -5.44861,7.58047c-3.10222,0.88814 -11.04884,-0.02134 -11.04884,-0.02134z" data-paper-data="{&quot;index&quot;:null}" fill="#ffffff" stroke="#000000" stroke-width="2" stroke-linecap="butt"/><path d="M140.0467,51.78537c-2.06038,-0.58987 -5.44862,-7.58048 -5.44862,-7.58048l1.48776,28.10455l-6.49088,0.90011l-2.69825,-38.23559l-5.54703,0.091l-0.48236,9.21372l4.53328,-3.88887l0.51586,6.63932l-9.01641,5.63549l-1.6393,-19.61448l7.31717,-13.93633c0,0 5.48786,-1.2387 5.46014,-1.8254c-0.07816,-1.65511 1.80283,-9.13258 1.78387,-9.53378c1.22413,0.196 3.02418,0.3659 3.59598,0.47867l6.41222,-0.9467c0.11458,2.63133 1.26507,5.79079 1.35747,7.9124c0.1068,2.45169 8.53263,13.99054 8.53263,13.99054l1.37531,22.57449c0,0 -7.94662,0.90948 -11.04884,0.02134z" data-paper-data="{&quot;index&quot;:null}" fill="#ffffff" stroke="#000000" stroke-width="2" stroke-linecap="butt"/><text transform="translate(191.89647,38.37157) scale(0.5,0.5)" font-size="40" xml:space="preserve" fill="#000000" fill-rule="nonzero" stroke="none" stroke-width="1" stroke-linecap="butt" stroke-linejoin="miter" stroke-miterlimit="10" stroke-dasharray="" stroke-dashoffset="0" font-family="Sans Serif" font-weight="normal" text-anchor="start" style="mix-blend-mode: normal"><tspan x="0" dy="0">point</tspan></text><path d="M187.62086,33.48517l-30.23465,0.6108l6.71881,-10.68902" fill="none" stroke="#000000" stroke-width="2" stroke-linecap="round"/><path d="M156.77541,34.40137l9.46742,8.85662" fill="none" stroke="#000000" stroke-width="2" stroke-linecap="round"/></g></g></svg>