<svg version="1.1" xmlns="http://www.w3.org/2000/svg" xmlns:xlink="http://www.w3.org/1999/xlink" width="93.9613" height="253.22501" viewBox="0,0,93.9613,253.22501"><g transform="translate(-186.97428,-53.15625)"><g data-paper-data="{&quot;isPaintingLayer&quot;:true}" fill-rule="nonzero" stroke-linejoin="miter" stroke-miterlimit="10" stroke-dasharray="" stroke-dashoffset="0" style="mix-blend-mode: normal"><path d="M189.75355,306.38126v-253.22501h91.18203v253.22501z" fill-opacity="0.01" fill="#000000" stroke="none" stroke-width="0" stroke-linecap="butt"/><path d="M192.37548,304.89161c0,0 0.18282,-94.88387 0.02483,-118.51201c-0.05451,-8.15261 8.37851,-38.56088 41.99367,-38.914c33.41367,-0.351 42.00823,31.47993 42.00035,38.88963c-0.07659,46.24274 0.09369,118.48648 0.09369,118.48648l-13.3733,0.09614l0.05547,-115.34311c0,0 -0.61301,-1.61748 -1.67443,-1.62419c-1.13177,-0.00716 -1.66339,1.58567 -1.66339,1.58567l0.07215,115.36995l-50.6827,0.07222l-0.18039,-115.73309c0,0 -0.59593,-1.45279 -1.68917,-1.45824c-0.87895,-0.00438 -1.51211,1.43279 -1.51211,1.43279l0.0122,115.5668z" data-paper-data="{&quot;index&quot;:null}" fill="#362975" stroke="#000000" stroke-width="0" stroke-linecap="butt"/><path d="M192.37548,304.88247c0,0 0.18282,-75.65131 0.02483,-101.30286c-0.00001,-0.00168 2.31474,5.90839 5.5453,9.78665c3.48007,4.1778 7.89454,6.34617 7.89454,6.34617l0.0122,85.07781z" fill-opacity="0.10196" fill="#000000" stroke="#000000" stroke-width="0" stroke-linecap="butt"/><path d="M263.01115,304.79025l0.0122,-85.07781c0,0 4.41447,-2.16837 7.89454,-6.34617c3.23056,-3.87826 5.54531,-9.78833 5.5453,-9.78665c-0.15799,25.65156 0.02483,101.30287 0.02483,101.30287z" data-paper-data="{&quot;index&quot;:null}" fill-opacity="0.10196" fill="#000000" stroke="#000000" stroke-width="0" stroke-linecap="butt"/><path d="M192.37548,304.88247c0,0 0.18282,-46.77339 0.02483,-72.42495c-0.00001,-0.00184 1.34081,4.64315 4.87532,7.80145c3.16498,2.8281 8.56453,4.20596 8.56453,4.20596l0.0122,60.32531z" fill-opacity="0.10196" fill="#000000" stroke="#000000" stroke-width="0" stroke-linecap="butt"/><path d="M263.01115,304.79025l0.0122,-60.32531c0,0 5.39954,-1.37786 8.56453,-4.20596c3.5345,-3.1583 4.87532,-7.80328 4.87532,-7.80145c-0.15799,25.65156 0.02483,72.42495 0.02483,72.42495z" data-paper-data="{&quot;index&quot;:null}" fill-opacity="0.10196" fill="#000000" stroke="#000000" stroke-width="0" stroke-linecap="butt"/><path d="M192.37548,304.88247c0,0 0.18282,-22.88941 0.02483,-48.54096c-0.00002,-0.00349 1.94598,4.47012 5.1938,6.84789c3.46507,2.53682 8.24604,2.98824 8.24604,2.98824l0.0122,38.6126z" fill-opacity="0.10196" fill="#000000" stroke="#000000" stroke-width="0" stroke-linecap="butt"/><path d="M263.01115,304.79025l0.0122,-38.61259c0,0 4.78096,-0.45142 8.24604,-2.98824c3.24782,-2.37777 5.19383,-6.85138 5.1938,-6.84789c-0.15799,25.65155 0.02483,48.54096 0.02483,48.54096z" data-paper-data="{&quot;index&quot;:null}" fill-opacity="0.10196" fill="#000000" stroke="#000000" stroke-width="0" stroke-linecap="butt"/><path d="M234.22732,238.82952c11.07568,-0.27523 19.4178,-7.49444 25.62945,-16.80489l0.04775,82.8954l-50.6827,0.0784l-0.12134,-84.51765c6.33225,10.3945 14.62118,18.6098 25.12684,18.34874z" fill-opacity="0.10196" fill="#000000" stroke="#000000" stroke-width="0" stroke-linecap="butt"/><path d="M234.97732,259.1852c10.92348,-0.00495 18.96876,-5.1859 24.89352,-12.75364l0.03369,58.48848l-50.6827,0.0784l-0.08576,-59.73266c6.1148,8.20471 14.45842,13.92457 25.84126,13.91942z" fill-opacity="0.10196" fill="#000000" stroke="#000000" stroke-width="0" stroke-linecap="butt"/><path d="M234.72732,284.15477c11.05972,-0.00501 19.18583,-6.54065 25.15598,-16.07637l0.02123,36.84158l-50.6827,0.0784l-0.05397,-37.59244c6.06699,9.9076 14.32394,16.75391 25.55947,16.74883z" fill-opacity="0.10196" fill="#000000" stroke="#000000" stroke-width="0" stroke-linecap="butt"/><path d="M276.39498,203.62175c0.00134,-0.27608 0.00381,-0.26572 0,0z" fill-opacity="0.10196" fill="#000000" stroke="#000000" stroke-width="0" stroke-linecap="butt"/><path d="M276.39546,197.30628c0.00225,-0.31639 0.00643,-0.30223 0,0z" fill-opacity="0.10196" fill="#000000" stroke="#000000" stroke-width="0" stroke-linecap="butt"/><path d="M234.23271,239.85124l-13.26606,-65.14738l13.82133,-16.20365l13.23026,16.24152z" fill="#e6e6e6" stroke="#000000" stroke-width="0" stroke-linecap="butt"/><path d="M229.1216,240.18457l1.33333,-55.11111l2.95276,-11.06444l2.04515,-0.0335l2.89098,11.09794l0.88889,55.22222l-5.12228,12.71905z" fill="#ff0000" stroke="#000000" stroke-width="0" stroke-linecap="butt"/><path d="M229.1216,240.18457c0,0 1.02471,-42.35512 1.21655,-50.28447c0.00155,-0.06393 -0.23296,4.46412 3.82958,4.38118c4.14372,-0.0846 4.25225,-4.47584 4.25371,-4.38534c0.12778,7.93797 0.81127,50.39973 0.81127,50.39973l-5.12228,12.71905z" fill-opacity="0.10196" fill="#000000" stroke="#000000" stroke-width="0" stroke-linecap="butt"/><path d="M229.1216,240.18457c0,0 0.63218,-25.08256 0.87946,-35.30376c0.00078,-0.03218 -0.28488,5.12699 4.0017,5.04476c4.97922,-0.09553 4.59408,-5.11578 4.59517,-5.04784c0.15519,9.64124 0.63478,35.41796 0.63478,35.41796l-5.12228,12.71905z" fill-opacity="0.10196" fill="#000000" stroke="#000000" stroke-width="0" stroke-linecap="butt"/><path d="M229.1216,240.18457c0,0 0.24178,-9.99375 0.4382,-18.11244c0.00227,-0.09378 0.22579,5.72882 4.43555,5.67893c4.31761,-0.05116 4.94749,-5.46323 4.94927,-5.35281c0.12915,8.02337 0.28809,17.89742 0.28809,17.89742l-5.12228,12.71905z" fill-opacity="0.10196" fill="#000000" stroke="#000000" stroke-width="0" stroke-linecap="butt"/><path d="M234.78826,159.07341l7.88889,9.22222l-8.33333,8.33333l-8.06788,-8.26709z" fill="#ff0000" stroke="#000000" stroke-width="0" stroke-linecap="butt"/><path d="M234.67715,158.29567l-13.70609,16.42987c0,0 -2.00437,-9.86605 -2.18279,-10.7632c-1.05317,-5.29559 -5.1321,-16.44524 16.11111,-16c19.3212,0.40496 17.19618,5.26687 15.12443,16.8034c-0.27325,1.52158 -2.00556,9.97598 -2.00556,9.97598z" fill="#e6e6e6" stroke="#000000" stroke-width="0" stroke-linecap="butt"/><path d="M221.1216,176.85124l-0.33333,-2.55556l14.13637,-16.83473l13.14979,17.30128l-0.61339,2.74884l-12.56166,-18.2154z" fill="#000000" stroke="none" stroke-width="0" stroke-linecap="butt"/><path d="M190.39676,107.34895c0,0 6.16329,-5.92187 6.29161,-6.78761c0.33654,-2.27063 -0.16776,-40.17317 35.96775,-41.57382c44.63633,-0.91362 39.01489,35.34872 41.53088,42.1903c3.44981,9.38084 6.15664,17.40016 6.15664,17.40016c0,0 -2.76715,-2.05351 -4.0797,-3.13397c-1.2242,-1.00773 -3.80143,-3.14585 -3.80143,-3.14585c0,0 3.09111,10.3481 1.31092,20.69498c-1.5623,9.48098 -7.29782,17.22543 -7.29782,17.22543l-1.15522,-2.34735c0,0 -1.02266,2.19794 -2.16005,3.33274c-1.1374,1.13479 -3.43873,2.91273 -3.43873,2.91273l-0.09205,-3.70421c0,0 -7.0601,11.01795 -24.35066,10.87154c-16.30625,-0.25547 -26.07151,-10.6752 -26.07151,-10.6752l-0.1162,2.65484c0,0 -3.89477,-3.29276 -6.18145,-9.70754c-2.72545,-7.64567 -3.23946,-12.24324 -3.23946,-12.24324c0,0 -2.33908,1.89916 -5.71704,2.7744c-4.23278,1.09673 -6.94665,0.34526 -6.94665,0.34526c0,0 3.60795,-2.71717 5.58396,-4.76989c1.76007,-1.8284 2.64658,-3.37722 2.64658,-3.37722c0,0 -2.10758,1.0847 -4.23277,1.61795c-2.21739,0.5564 -4.03008,0.53093 -4.03008,0.53093c0,0 4.97492,-5.03728 7.03074,-10.87429c1.94102,-5.51108 2.09972,-10.95731 2.09972,-10.95731c0,0 -1.36165,0.66163 -3.33013,0.79513c-1.24776,0.08463 -2.37785,-0.0489 -2.37785,-0.0489z" fill="#000000" stroke="none" stroke-width="1.5" stroke-linecap="butt"/><path d="M207.18265,118.67056c-0.57709,-7.29323 0.335,-17.15448 0.335,-17.15448c0,0 3.41059,-0.04124 13.91429,-3.14424c8.0696,-2.38394 20.54731,-9.48722 20.54731,-9.48722c0,0 -2.16005,3.00503 -3.40781,4.46015c-1.32651,1.54696 -3.99292,4.56297 -3.99292,4.56297c0,0 7.838,-1.66761 14.67476,-4.72931c8.56837,-3.53575 10.59252,-6.05309 12.95042,-4.5927c2.7829,1.72362 1.03006,23.1827 0.71846,28.74062c-0.42163,5.66922 -2.53327,9.49969 -3.15031,12.52053c-0.61704,3.02084 -0.4096,6.13662 -2.20622,16.0397c-1.12121,6.18021 -4.16183,8.92466 -10.01942,14.66081c-5.85759,5.73616 -9.05378,9.25275 -13.01359,9.32173c-3.81077,0.06639 -8.93565,-5.1002 -13.93542,-10.38244c-5.32393,-5.62474 -8.87489,-8.47713 -9.71551,-15.13975c-0.75707,-6.00039 -0.77653,-9.90853 -1.12266,-15.24835c-0.25298,-3.90273 -2.26119,-6.44504 -2.57636,-10.42801z" fill="#4dffdd" stroke="#000000" stroke-width="1.5" stroke-linecap="butt"/><g stroke="none" stroke-width="0" stroke-linecap="butt"><path d="M234.10052,169.81066c-5.11346,-0.49188 -13.05067,-1.82233 -17.69717,-7.19316c-4.64967,-5.3745 -4.03902,-11.95848 -4.03902,-11.95848c0,0 2.60607,-0.60678 5.46153,-1.73959c3.43183,-1.36147 7.41593,-3.28103 10.22572,-3.13512c2.00893,0.10432 7.50276,2.45066 7.50276,2.45066c0,0 5.31802,-2.40448 7.50112,-1.88769c3.61168,0.85496 12.47877,6.53552 12.47877,6.53552c0,0 -0.36043,2.68143 -1.53656,5.84453c-2.00217,5.38465 -6.86031,12.33742 -19.89714,11.08335z" fill="#000000"/><path d="M217.24741,150.74977c0,0 1.80071,-0.63426 3.69282,-1.36278c2.0859,-0.80314 4.34803,-1.71109 5.91177,-1.78801c3.15835,-0.15536 8.93383,2.6062 8.93383,2.6062c0,0 5.26284,-2.14381 7.66666,-1.80126c2.47705,0.353 7.19865,3.66196 7.19865,3.66196c0,0 -6.03414,0.33104 -10.06005,0.18753c-1.36142,-0.04853 -2.53375,-0.79782 -5.49628,-0.82653c-2.55521,-0.02476 -4.80827,0.59262 -7.21918,0.45444c-5.58671,-0.3202 -10.62822,-1.13154 -10.62822,-1.13154z" fill="#4dffdd"/><path d="M234.40303,167.5869c-10.6978,-0.20511 -15.67908,-4.60283 -17.87935,-8.56514c-1.83937,-3.3124 -1.69618,-6.3205 -1.69618,-6.3205c0,0 7.30317,0.38606 10.08038,1.19238c1.8082,0.52499 3.11169,5.49732 10.57064,5.79291c7.05263,0.27949 6.5914,-4.21532 9.27458,-5.11301c2.06643,-0.69136 8.27479,-0.32926 8.27479,-0.32926c0,0 -0.70918,13.68611 -18.62485,13.34261z" fill="#4dffdd"/></g><path d="M255.25265,103.55021c0,0 1.52429,0.54932 4.2558,1.34154c2.49492,0.72361 4.44935,1.51278 4.44935,1.51278l0.1951,1.17035c0,0 -10.40319,-4.13821 -16.50332,-3.62687c-6.2896,0.52724 -8.57567,3.96867 -8.57567,3.96867l0.04575,-4.17683c0,0 3.12748,-3.09174 7.86366,-3.2431c4.90428,-0.15672 8.09084,1.97878 8.09084,1.97878z" data-paper-data="{&quot;index&quot;:null}" fill="#000000" stroke="none" stroke-width="1.5" stroke-linecap="butt"/><path d="M234.81479,148.09765c-1.03376,0 -3.5381,-3.26042 -3.7867,-5.3637c-0.22243,-1.88186 1.31512,-3.82799 3.7867,-3.82799c2.47159,0 4.2021,0.49077 4.02999,4.18853c-0.14607,3.13818 -1.55841,5.00317 -4.02999,5.00317z" fill="#4dffdd" stroke="#000000" stroke-width="1.15" stroke-linecap="butt"/><path d="M238.4169,118.00395c0,0 0.1026,3.96976 0.00576,7.12662c-0.19174,6.25113 -1.08147,27.7607 -1.08147,27.7607l-2.98167,0.00864c0,0 -0.80294,-4.17274 -1.12322,-9.49979c-0.43353,-7.21063 -0.4495,-16.29321 -0.76344,-19.63229c-0.29758,-3.16513 -0.89593,-5.71453 -0.89593,-5.71453" fill="#4dffdd" stroke="#000000" stroke-width="1.3" stroke-linecap="round"/><path d="M208.88229,128.79379c0,0 -4.93211,-3.51705 -6.16417,-8.97502c-1.29636,-5.74284 -1.46118,-9.7328 0.48013,-9.99193c1.94131,-0.25915 2.70321,2.37692 3.73262,8.35569c1.0294,5.97877 1.95143,10.61127 1.95143,10.61127z" data-paper-data="{&quot;index&quot;:null}" fill="#4dffdd" stroke="#000000" stroke-width="1" stroke-linecap="butt"/><path d="M208.6797,124.84622c0,0 -3.56385,-2.92338 -4.31816,-8.45061c-0.42079,-3.08327 2.15675,-2.28016 2.15675,-2.28016" fill="none" stroke="#000000" stroke-width="0.25" stroke-linecap="round"/><path d="M211.6931,118.19033c0.07093,-4.89188 4.83834,-8.93609 10.21137,-8.8582c5.37302,0.0779 9.02724,4.2484 8.95632,9.14029c-0.07093,4.89188 -4.12352,8.79439 -9.49655,8.7165c-5.37302,-0.0779 -9.74207,-4.1067 -9.67114,-8.99859z" fill="#ffffff" stroke="#000000" stroke-width="1.4" stroke-linecap="butt"/><path d="M216.13074,118.30827c0.03999,-2.75843 2.30855,-4.96213 5.06696,-4.92214c2.75843,0.03999 4.96213,2.30855 4.92214,5.06696c-0.03999,2.75843 -2.30854,4.96213 -5.06696,4.92214c-2.75843,-0.03999 -4.96213,-2.30855 -4.92214,-5.06696z" fill="#000000" stroke="none" stroke-width="1.5" stroke-linecap="butt"/><path d="M238.74938,118.19106c0.20353,-4.88817 4.45264,-8.85847 9.77048,-8.85847c5.31783,0 9.27453,3.96607 9.27453,8.85847c0,4.8924 -3.88585,9.07104 -9.69964,9.14188c-5.52997,0.06739 -9.55792,-4.03692 -9.34537,-9.14188z" fill="#ffffff" stroke="#000000" stroke-width="1.4" stroke-linecap="butt"/><path d="M243.35213,118.2766c0,-2.81845 2.2848,-5.10325 5.10325,-5.10325c2.81845,0 5.10325,2.2848 5.10325,5.10325c0,2.81845 -2.28479,5.10325 -5.10325,5.10325c-2.81845,0 -5.10325,-2.2848 -5.10325,-5.10325z" fill="#000000" stroke="none" stroke-width="1.5" stroke-linecap="butt"/><path d="M211.62467,117.65814c0,0 0.06357,-9.01512 10.60111,-8.8249c9.47101,0.16586 9.55554,9.40723 9.55554,9.40723z" fill="#4dffdd" stroke="#000000" stroke-width="1.15" stroke-linecap="butt"/><path d="M238.37173,117.78905c0,0 -0.24686,-9.4582 11.19813,-9.1032c9.71427,0.33347 9.54677,9.65229 9.54677,9.65229z" fill="#4dffdd" stroke="#000000" stroke-width="1.15" stroke-linecap="butt"/><path d="M215.15452,107.6465c0,0 3.36963,-1.819 8.03244,-2.28178c5.16698,-0.51283 7.76823,1.08999 7.76823,1.08999l0.29508,4.13747c0,0 -3.83554,-1.83692 -8.01795,-1.6774c-5.59346,0.21333 -6.64488,1.43293 -10.89774,1.89119c-3.64408,0.39266 -6.73723,0.15884 -6.73723,0.15884l-0.02589,-1.23155c0,0 3.59517,0.07398 5.23371,-0.06836c1.35239,-0.11749 3.9757,-0.93808 3.9757,-0.93808z" fill="#000000" stroke="none" stroke-width="1.5" stroke-linecap="butt"/><path d="M263.11545,118.18251c1.0294,-5.97877 1.7913,-8.61483 3.73262,-8.35569c1.94131,0.25914 1.77649,4.24909 0.48013,9.99193c-1.23206,5.45797 -6.16417,8.97502 -6.16417,8.97502c0,0 0.92203,-4.6325 1.95143,-10.61127z" data-paper-data="{&quot;index&quot;:null}" fill="#4dffdd" stroke="#000000" stroke-width="1" stroke-linecap="butt"/><path d="M263.52804,114.11547c0,0 2.57754,-0.80312 2.15675,2.28016c-0.75431,5.52723 -4.31816,8.45061 -4.31816,8.45061" data-paper-data="{&quot;index&quot;:null}" fill="none" stroke="#000000" stroke-width="0.25" stroke-linecap="round"/><g stroke-width="0"><path d="M207.13036,121.03148l-0.4425,-8.40404c0,0 17.29263,-0.96045 28.67574,-0.96045c12.08736,0 28.52507,0.96045 28.52507,0.96045l-0.4425,8.40404c0,0 -18.30178,-1.35777 -28.1775,-1.35777c-9.84407,0 -28.13831,1.35777 -28.13831,1.35777z" fill="#000000" stroke="none" stroke-linecap="butt"/><path d="M219.78587,112.68446c6.61373,0.28317 14.60278,2.52452 14.38696,7.7977c-0.21582,5.27318 -5.16226,11.73222 -15.16849,11.29819c-6.61358,-0.28687 -11.94778,-5.39094 -11.73196,-10.66412c0.21582,-5.27318 5.89977,-8.71494 12.5135,-8.43177z" fill="#000000" stroke="#9966ff" stroke-linecap="butt"/><path d="M263.31698,121.25254c0.21582,5.27318 -5.11838,10.37726 -11.73196,10.66413c-10.00624,0.43403 -14.95268,-6.025 -15.16849,-11.29819c-0.21582,-5.27318 7.77323,-7.51454 14.38696,-7.7977c6.61373,-0.28317 12.29768,3.15858 12.5135,8.43177z" data-paper-data="{&quot;index&quot;:null}" fill="#000000" stroke="#9966ff" stroke-linecap="butt"/><path d="M229.61636,126.50688c-4.44591,4.48287 -11.01477,3.14276 -11.01477,3.14276c0,0 5.76112,-1.98799 8.77696,-5.63146c3.64593,-4.40468 5.01271,-8.26981 5.01271,-8.26981c0,0 1.25632,6.69378 -2.77491,10.75851z" fill="#e6e6e6" stroke="#ffffff" stroke-linecap="round"/><path d="M258.85598,126.91275c-4.44591,4.48287 -10.91556,2.63542 -10.91556,2.63542c0,0 4.96748,-1.68358 8.57855,-5.02264c3.74513,-4.70909 5.11192,-8.37129 5.11192,-8.37129c0,0 1.25632,6.69378 -2.77491,10.75851z" fill="#e6e6e6" stroke="#ffffff" stroke-linecap="round"/></g></g></g></svg>