<svg version="1.1" xmlns="http://www.w3.org/2000/svg" xmlns:xlink="http://www.w3.org/1999/xlink" width="107.08444" height="238.57548" viewBox="0,0,107.08444,238.57548"><g transform="translate(-265.88723,-63.2128)"><g stroke-miterlimit="10"><path d="M327.28625,154.1342l34.0192,13.14378l10.82428,133.37075l-103.99052,0.38658l8.50479,-134.65936l31.31312,-11.98404z" fill="#c2b851" stroke="#121212" stroke-width="1.5" stroke-linecap="round"/><g fill="#000000" stroke="none" stroke-width="0" stroke-linecap="butt"><path d="M313.51752,174.39178l-5.49672,-8.48556l5.49672,-8.70885h10.0773l5.86317,8.70885l-5.86317,8.48556z"/><path d="M312.48688,218.15936l-4.46608,-8.37215l4.46608,-40.08482h12.05841l4.24278,39.57741l-4.24278,8.87954z"/></g><path d="M334.84048,157.1248l26.24771,10.14117c0,0 0.89558,11.03485 1.67926,20.69104c1.82883,22.53395 9.14502,112.67971 9.14502,112.67971l-103.99052,0.38657l8.50479,-134.65936l24.77674,-9.48246c0,0 2.00453,19.68355 6.02893,31.99557c4.02441,12.31202 11.72886,22.33147 11.72886,22.33147c0,0 8.56656,-13.27234 11.19328,-22.2188c2.62672,-8.94647 4.68593,-31.86491 4.68593,-31.86491z" fill="#333333" stroke="#121212" stroke-width="1.5" stroke-linecap="round"/><path d="M291.32437,301.03532l5.41216,-117.13431" fill="none" stroke="#121212" stroke-width="1.5" stroke-linecap="round"/><path d="M347.91119,300.60619l-5.41213,-117.13429" fill="none" stroke="#121212" stroke-width="1.5" stroke-linecap="round"/><path d="M318.9627,210.56702l1.33982,89.76819" fill="none" stroke="#121212" stroke-width="1.75" stroke-linecap="round"/><path d="M267.02833,301.78056l4.52873,-71.50334c0,0 7.97565,1.9667 11.44313,1.83562c3.51873,-0.133 10.63428,-2.85122 10.63428,-2.85122c0,0 21.28216,-0.71587 29.28699,-3.31961c8.94235,-2.90867 21.86671,-13.31915 21.86671,-13.31915c0,0 6.4602,1.44065 9.78421,1.34945c3.10225,-0.08512 11.10368,-1.8797 11.10368,-1.8797l7.2956,89.24133z" fill-opacity="0.50196" fill="#000000" stroke="none" stroke-width="1.5" stroke-linecap="butt"/><path d="" fill="#d8d8d8" stroke="#8d8d8d" stroke-width="1.5" stroke-linecap="butt"/><path d="M359.75164,120.68864c-0.39681,25.97199 -21.04692,46.71587 -46.12335,46.33274c-25.07643,-0.38313 -45.08318,-21.74816 -44.68638,-47.72016c0.39681,-25.97199 21.04691,-46.71587 46.12335,-46.33274c25.07643,0.38313 45.08318,21.74819 44.68638,47.72018z" fill="#000000" stroke="#fff477" stroke-width="1.5" stroke-linecap="butt"/><path d="M346.2094,149.32974c0,0 -5.14641,-9.22244 -12.55352,-18.55856c-4.52431,-5.70254 -11.61009,-11.38338 -13.86986,-15.21798c-4.10926,-6.97301 -5.89365,-21.06238 -5.89365,-21.06238c0,0 6.54584,11.83472 10.90079,19.22465c1.13861,1.93212 11.34887,9.32679 13.01597,12.11235c7.00928,11.7117 8.40026,23.50192 8.40026,23.50192z" fill="#ded468" stroke="#ded468" stroke-width="1.5" stroke-linecap="round"/><path d="M310.08074,67.09143c3.66581,0.08316 7.67619,0.45678 11.15676,-0.54489c0.70714,-0.68584 1.41417,-0.59161 2.19351,-1.05517c1.61456,-0.96037 6.12248,-3.98613 7.78978,-0.98066c1.79684,3.23896 -4.84971,3.03688 -6.35563,3.08102c-0.01157,0.75743 1.52426,-0.08046 2.27219,0.03956c0.61595,0.09885 2.54325,0.67804 2.99353,0.97925c3.1385,2.09951 8.10676,2.23287 10.81545,5.06861c2.87813,1.46979 7.32491,3.38691 9.06847,6.32323c0.05874,0.09894 0.4488,0.61512 0.84461,1.17979c-0.02068,-0.13369 -0.03903,-0.26914 -0.05531,-0.40368l-0.15202,0.03554l-0.25196,-1.07753c-0.01498,-0.05829 -0.02252,-0.11949 -0.02155,-0.18257c0.00582,-0.38073 0.31918,-0.68467 0.69992,-0.67886c0.14487,0.00221 0.2786,0.04895 0.38842,0.12698l0.80026,0.55133l-0.02623,0.03809l0.13,0.04965c1.07406,1.70412 2.92689,3.28746 4.3801,4.81892c0.42048,1.32876 0.94846,2.07919 1.13208,3.56164c0.15695,1.26705 -0.3166,2.62518 0.38832,3.81026c1.77951,2.99171 3.70853,5.95335 4.82197,9.47199c1.42281,4.4962 3.57957,6.38144 1.69115,11.36067l0.26488,0.11067l-0.52543,1.25751c-0.10176,0.26034 -0.35699,0.44293 -0.65289,0.43841c-0.31012,-0.00474 -0.56928,-0.21351 -0.65161,-0.49654l-0.25483,-0.80531l0.03734,-0.01182l-0.06216,-0.09617c0.01108,-0.72528 -0.5151,-1.4828 -0.97825,-2.10616c0.11996,1.13825 0.35573,2.27686 0.14157,3.45427c-0.54144,2.97671 -1.41253,5.91712 -2.11375,8.89215c-0.82994,0.77559 -2.64957,1.65509 -3.62141,0.29466c-0.60693,-0.84961 0.06399,-1.40655 0.18368,-2.14387c0.28729,-1.76985 -0.19223,-3.66618 0.08315,-5.44217c0.02098,-0.13537 0.60651,-1.82538 0.3794,-2.00102c-0.45337,-0.35056 -1.24083,0.53371 -1.70745,0.20101c-0.30503,-0.21749 -0.63019,-1.04231 -0.86855,-1.85141c-0.16813,0.85022 -0.63033,1.43938 -1.97409,1.06914c-1.39468,-0.38428 -3.38421,-3.22964 -4.99462,-3.03181c-0.56437,0.06934 -0.66756,0.96346 -1.15617,1.2543c-1.21956,0.72592 -2.62038,1.88081 -3.93113,2.43351c-1.14496,0.48279 -2.44017,0.21364 -3.29712,1.04477c-0.96352,0.02266 -3.53042,0.48437 -4.13656,-0.66405c-0.30521,-0.57832 0.80721,-3.47353 1.0773,-3.99372c0.22411,-0.43159 1.17754,-1.49972 0.7649,-1.24238c-1.86137,1.16093 -5.05693,1.49008 -7.13389,0.58482c-0.3526,-0.15371 -0.77508,-0.26917 -1.13324,-0.41097c0.1879,0.87346 0.68063,1.52036 0.83402,2.62207c-1.82017,0.34989 -4.27161,0.56004 -6.11609,0.18401c-0.98054,-0.19989 -1.31851,-0.47168 -1.94042,-1.26573c-0.09308,-0.11886 -0.06568,-0.55353 -0.14902,-0.42766c-0.719,1.08585 -3.44107,4.85157 -5.39395,4.8499c-2.27726,-0.00194 -0.82692,-2.33662 -0.71118,-3.81791c-0.39249,0.28464 -0.90204,0.58952 -1.19129,0.72894c-1.30688,0.62994 -2.54738,1.67401 -4.03202,1.90482c-3.56786,0.55468 -7.71607,1.33751 -11.46914,1.38842l0.01731,0.11461l-1.35064,0.20396c-0.04101,0.00692 -0.08324,0.01024 -0.12631,0.00958c-0.38074,-0.00582 -0.68469,-0.31918 -0.67888,-0.69992c0.00291,-0.19037 0.0827,-0.36153 0.20937,-0.4844l0.52608,-0.51024c0.96482,-1.24969 1.82702,-2.36402 2.60281,-3.58663c-0.46828,0.37478 -0.89976,0.69396 -1.1054,0.82424c-0.52769,0.33435 -1.40501,-0.02505 -1.82158,0.44045c-0.44647,0.49892 -0.72367,1.24203 -1.3448,1.49195c-1.42573,0.57368 -2.49372,0.45502 -3.42244,1.77735c-1.63094,0.42946 -1.6834,1.18021 -3.10433,1.90431c-3.17059,1.61574 -7.73691,1.76139 -11.16666,2.08278c-1.43954,0.13488 -3.1252,-0.37912 -4.53515,-0.08438c-1.1129,0.23264 -1.67241,0.79769 -2.89224,0.79078c-1.38208,-0.02112 -2.19424,0.25616 -2.81672,-1.3493c-0.48355,-1.2471 0.24637,-3.13032 0.04721,-4.44339c-0.56469,-3.72295 -2.38189,-2.26182 -0.9936,-6.22388c0.202,-3.3525 3.57318,-6.95156 5.10849,-9.90605c1.33754,-2.57389 1.5787,-5.4789 2.54512,-8.32018c0.56102,-1.5688 1.7818,-2.32779 2.5728,-3.64341c2.46518,-4.10015 6.3042,-6.78684 9.90508,-10.14311c1.18325,-0.37443 1.44978,-1.3562 2.50106,-1.88048c2.16518,-1.07976 4.11675,-3.21386 6.3062,-4.5171c1.31561,-0.78309 2.57852,-0.70436 3.89038,-1.3343c0.46803,-0.22474 2.02415,-0.04796 1.17984,-0.23582c-0.97247,-0.70259 -3.73145,-5.1616 -0.21321,-4.09268c0.37714,0.11457 1.29314,1.41341 1.81881,1.63173c2.49602,1.03658 5.40719,1.04607 8.06771,1.70561z" fill="#8f8100" stroke="none" stroke-width="1.5" stroke-linecap="butt"/><path d="M311.52677,126.49296c-0.05797,3.79405 -1.1093,7.28501 -2.84176,10.09894c-2.59077,4.20801 -19.32936,3.95795 -21.81684,0.413c-2.15189,-3.06669 -3.16362,-6.54454 -3.09653,-10.93599c0.02882,-1.88659 0.30326,-3.69825 0.78493,-5.38898c1.4824,-5.20345 17.60279,-5.67614 24.5521,-1.98375c2.12431,1.12871 2.42863,7.10623 2.41808,7.79678z" fill="#fff477" stroke="none" stroke-width="1.5" stroke-linecap="butt"/><path d="M322.25909,119.01355c7.05886,-3.47835 23.15729,-2.51343 24.48004,2.73288c0.42979,1.70464 0.64875,3.52385 0.61993,5.41044c-0.06709,4.39145 -1.1846,7.83677 -3.42916,10.83629c-2.59461,3.4673 -19.33304,3.20588 -21.79404,-1.0793c-1.6457,-2.86554 -2.58988,-6.38699 -2.53191,-10.18104c0.01055,-0.69057 0.49736,-6.65598 2.65516,-7.71927z" fill="#fff477" stroke="none" stroke-width="1.5" stroke-linecap="butt"/><g fill-opacity="0.75686" fill="#ffffff" stroke="none" stroke-width="0" stroke-linecap="butt"><path d="M291.58782,127.52492c-0.08069,5.28115 -1.44726,9.5425 -3.05232,9.51798c-1.60505,-0.02452 -2.8408,-4.32562 -2.76011,-9.60679c0.08069,-5.28115 1.44726,-9.5425 3.05231,-9.51798c1.60505,0.02452 2.84081,4.32562 2.76012,9.60679z"/><path d="M296.30271,123.69633c-0.04588,3.003 -0.82296,5.42612 -1.73563,5.41218c-0.91267,-0.01394 -1.61536,-2.45967 -1.56948,-5.46267c0.04588,-3.003 0.82296,-5.42613 1.73563,-5.41219c0.91267,0.01394 1.61536,2.45967 1.56948,5.46268z"/></g><g fill-opacity="0.75686" fill="#ffffff" stroke="none" stroke-width="0" stroke-linecap="butt"><path d="M327.80629,128.49111c-0.08069,5.28115 -1.44726,9.5425 -3.05231,9.51798c-1.60505,-0.02452 -2.84081,-4.32562 -2.76012,-9.60679c0.08069,-5.28115 1.44726,-9.5425 3.05232,-9.51798c1.60505,0.02452 2.8408,4.32563 2.76011,9.60679z"/><path d="M332.52119,124.66252c-0.04588,3.003 -0.82296,5.42612 -1.73563,5.41218c-0.91267,-0.01394 -1.61536,-2.45967 -1.56948,-5.46267c0.04588,-3.003 0.82296,-5.42613 1.73563,-5.41219c0.91267,0.01394 1.61536,2.45967 1.56948,5.46268z"/></g><path d="M332.02885,156.24343c-0.11335,5.72264 -6.05259,6.44358 -18.26697,6.29964c-12.21438,-0.14394 -17.99874,-1.08677 -17.88539,-6.8094c0.11335,-5.72264 5.98537,-9.20514 18.19977,-9.0612c12.21438,0.14394 18.06596,3.84833 17.95259,9.57097z" fill="#000000" stroke="#fff477" stroke-width="1.5" stroke-linecap="butt"/><path d="M325.87445,148.70457l-3.03036,6.1613l-2.9711,-7.31809" fill="none" stroke="#fff477" stroke-width="1.5" stroke-linecap="round"/></g></g></svg>