<svg version="1.1" xmlns="http://www.w3.org/2000/svg" xmlns:xlink="http://www.w3.org/1999/xlink" width="108.08148" height="151.96558" viewBox="0,0,108.08148,151.96558"><g transform="translate(-220.90574,-160.90555)"><g data-paper-data="{&quot;isPaintingLayer&quot;:true}" stroke-miterlimit="10" stroke-dasharray="" stroke-dashoffset="0" style="mix-blend-mode: normal"><path d="M253.32487,166.67494l-4.06518,4.0656c-2.45577,-2.45591 -5.78658,-3.83568 -9.25966,-3.83577v-5.74922c4.99779,0.00003 9.79088,1.98541 13.32485,5.51939z" fill="#727272" fill-rule="evenodd" stroke="#727272" stroke-width="0.5" stroke-linecap="round" stroke-linejoin="round"/><path d="M258.84424,180.00022h-5.74879c-0.00008,-3.4731 -1.37985,-6.8039 -3.83577,-9.25967l4.06518,-4.0656c3.53408,3.53408 5.51946,8.32734 5.51939,13.32527z" fill="#727272" fill-rule="evenodd" stroke="#727272" stroke-width="0.5" stroke-linecap="round" stroke-linejoin="round"/><path d="M258.84424,180.00022c-0.00004,4.99779 -1.98541,9.79088 -5.51939,13.32485l-4.06518,-4.06518c2.45591,-2.45577 3.83569,-5.78657 3.83577,-9.25966z" fill="#727272" fill-rule="evenodd" stroke="#727272" stroke-width="0.5" stroke-linecap="round" stroke-linejoin="round"/><path d="M253.32487,193.32506c-3.53397,3.53397 -8.32705,5.51935 -13.32485,5.51939v-5.74922c3.47303,0.00002 6.80383,-1.37958 9.25966,-3.83534z" fill="#727272" fill-rule="evenodd" stroke="#727272" stroke-width="0.5" stroke-linecap="round" stroke-linejoin="round"/><path d="M240.00002,166.90478c-3.47295,0.0002 -6.80356,1.37995 -9.25924,3.83577l-4.0656,-4.0656c3.53397,-3.53397 8.32706,-5.51935 13.32485,-5.51939z" fill="#a6a6a6" fill-rule="evenodd" stroke="#a6a6a6" stroke-width="0.5" stroke-linecap="round" stroke-linejoin="round"/><path d="M230.74078,170.74054c-2.45591,2.45577 -3.83568,5.78658 -3.83577,9.25967h-5.74922c-0.00008,-4.99794 1.98531,-9.7912 5.51939,-13.32527z" fill="#a6a6a6" fill-rule="evenodd" stroke="#a6a6a6" stroke-width="0.5" stroke-linecap="round" stroke-linejoin="round"/><path d="M226.90498,180.00022c-0.00002,3.47303 1.37958,6.80383 3.83533,9.25966l-4.06518,4.06518c-3.53397,-3.53397 -5.51935,-8.32705 -5.51939,-13.32485z" fill="#a6a6a6" fill-rule="evenodd" stroke="#a6a6a6" stroke-width="0.5" stroke-linecap="round" stroke-linejoin="round"/><path d="M240.00002,193.09523v5.74922c-4.99779,-0.00003 -9.79088,-1.98542 -13.32485,-5.51939l4.06518,-4.06518c2.45584,2.45576 5.78664,3.83538 9.25967,3.83534z" fill="#a6a6a6" fill-rule="evenodd" stroke="#a6a6a6" stroke-width="0.5" stroke-linecap="round" stroke-linejoin="round"/><path d="M253.09524,180c0,7.2323 -5.86294,13.09522 -13.09522,13.09522c-7.2323,0 -13.09522,-5.86293 -13.09522,-13.09522c0,-7.2323 5.86293,-13.09522 13.09522,-13.09522c7.2323,0 13.09522,5.86293 13.09522,13.09522" fill="#727272" fill-rule="evenodd" stroke="none" stroke-width="0.07853" stroke-linecap="round" stroke-linejoin="round"/><g fill-rule="nonzero" stroke-linejoin="miter"><path d="M243.85277,172.82498c0,0 4.74943,1.7262 4.46379,7.80688c-0.20838,4.43597 -3.33656,7.46047 -8.07188,7.85535c-4.09929,0.34183 -7.62256,-2.61704 -8.44306,-6.91596c-0.96059,-5.03289 3.69452,-8.24698 3.69452,-8.24698" fill="none" stroke="#ffffff" stroke-width="2" stroke-linecap="round"/><path d="M234.35751,170.45562c0,0 1.26233,-0.45227 3.31006,0.14245c1.75142,0.50869 3.20197,1.35249 3.20197,1.35249c0,0 -1.13071,0.48195 -2.36557,1.82324c-1.56265,1.6973 -2.14646,2.78306 -2.14646,2.78306z" fill="#ffffff" stroke="none" stroke-width="0" stroke-linecap="butt"/></g><path d="M253.32487,166.67496l-4.06518,4.0656c-2.45577,-2.45591 -5.78658,-3.83568 -9.25966,-3.83577v-5.74922c4.99779,0.00003 9.79088,1.98541 13.32485,5.51939z" fill="#727272" fill-rule="evenodd" stroke="#727272" stroke-width="0.5" stroke-linecap="round" stroke-linejoin="round"/><path d="M258.84424,180.00024h-5.74879c-0.00008,-3.4731 -1.37985,-6.8039 -3.83577,-9.25967l4.06518,-4.0656c3.53408,3.53408 5.51946,8.32734 5.51939,13.32527z" fill="#727272" fill-rule="evenodd" stroke="#727272" stroke-width="0.5" stroke-linecap="round" stroke-linejoin="round"/><path d="M258.84424,180.00024c-0.00004,4.99779 -1.98541,9.79088 -5.51939,13.32485l-4.06518,-4.06518c2.45591,-2.45577 3.83569,-5.78657 3.83577,-9.25966z" fill="#727272" fill-rule="evenodd" stroke="#727272" stroke-width="0.5" stroke-linecap="round" stroke-linejoin="round"/><path d="M253.32487,193.32508c-3.53397,3.53397 -8.32705,5.51935 -13.32485,5.51939v-5.74922c3.47303,0.00002 6.80383,-1.37958 9.25966,-3.83534z" fill="#727272" fill-rule="evenodd" stroke="#727272" stroke-width="0.5" stroke-linecap="round" stroke-linejoin="round"/><path d="M240.00002,166.9048c-3.47295,0.0002 -6.80356,1.37995 -9.25924,3.83577l-4.0656,-4.0656c3.53397,-3.53397 8.32706,-5.51935 13.32485,-5.51939z" fill="#727272" fill-rule="evenodd" stroke="#727272" stroke-width="0.5" stroke-linecap="round" stroke-linejoin="round"/><path d="M230.74078,170.74056c-2.45591,2.45577 -3.83568,5.78658 -3.83577,9.25967h-5.74922c-0.00008,-4.99794 1.98531,-9.7912 5.51939,-13.32527z" fill="#727272" fill-rule="evenodd" stroke="#727272" stroke-width="0.5" stroke-linecap="round" stroke-linejoin="round"/><path d="M226.90498,180.00024c-0.00002,3.47303 1.37958,6.80383 3.83533,9.25966l-4.06518,4.06518c-3.53397,-3.53397 -5.51935,-8.32705 -5.51939,-13.32485z" fill="#727272" fill-rule="evenodd" stroke="#727272" stroke-width="0.5" stroke-linecap="round" stroke-linejoin="round"/><path d="M240.00002,193.09525v5.74922c-4.99779,-0.00003 -9.79088,-1.98542 -13.32485,-5.51939l4.06518,-4.06518c2.45584,2.45576 5.78664,3.83538 9.25967,3.83534z" fill="#727272" fill-rule="evenodd" stroke="#727272" stroke-width="0.5" stroke-linecap="round" stroke-linejoin="round"/><path d="M253.09524,180.00002c0,7.2323 -5.86294,13.09522 -13.09522,13.09522c-7.2323,0 -13.09522,-5.86293 -13.09522,-13.09522c0,-7.2323 5.86293,-13.09522 13.09522,-13.09522c7.2323,0 13.09522,5.86293 13.09522,13.09522" fill="#727272" fill-rule="evenodd" stroke="none" stroke-width="0.07853" stroke-linecap="round" stroke-linejoin="round"/><g fill-rule="nonzero" stroke-linejoin="miter"><path d="M243.85277,172.825c0,0 4.74943,1.7262 4.46379,7.80688c-0.20838,4.43597 -3.33656,7.46047 -8.07188,7.85535c-4.09929,0.34183 -7.62256,-2.61704 -8.44306,-6.91596c-0.96059,-5.03289 3.69452,-8.24698 3.69452,-8.24698" fill="none" stroke="#ffffff" stroke-width="2" stroke-linecap="round"/><path d="M234.35751,170.45564c0,0 1.26233,-0.45227 3.31006,0.14245c1.75142,0.50869 3.20197,1.35249 3.20197,1.35249c0,0 -1.13071,0.48195 -2.36557,1.82324c-1.56265,1.6973 -2.14646,2.78306 -2.14646,2.78306z" fill="#ffffff" stroke="none" stroke-width="0" stroke-linecap="butt"/></g><path d="M327.50438,312.87113c-0.81895,0 -1.48284,-0.66389 -1.48284,-1.48284c0,-0.81895 0.66389,-1.48284 1.48284,-1.48284c0.81895,0 1.48284,0.66389 1.48284,1.48284c0,0.81895 -0.66389,1.48284 -1.48284,1.48284z" data-paper-data="{&quot;index&quot;:null}" fill="#000000" fill-rule="nonzero" stroke="none" stroke-width="1.5" stroke-linecap="butt" stroke-linejoin="miter"/><path d="M251.59823,163.23388c0,0 0.86703,0.18092 2.42073,0.63154c1.41913,0.4116 2.53082,0.99202 2.53082,0.99202l0.11097,0.6657c0,0 -4.12364,-1.78035 -8.59796,-1.40529c-3.57756,0.29989 -5.66712,1.59971 -5.66712,1.59971l0.02602,-2.37581c0,0 1.77893,-0.96937 4.4729,-1.05546c2.78958,-0.08915 4.60212,0.33631 4.60212,0.33631z" data-paper-data="{&quot;index&quot;:null}" fill="#000000" fill-rule="nonzero" stroke="none" stroke-width="0.5" stroke-linecap="butt" stroke-linejoin="miter"/><path d="M244.33791,187.68547c0.32444,0.12051 1.75396,0.796 3.42641,1.47654c1.68577,0.68597 4.10315,1.30424 4.09206,1.39955c-0.01408,0.12096 -5.93536,0.12909 -7.78091,0.35962c-1.54659,0.19319 -3.80456,0.40138 -3.80456,0.40138c0,0 -4.04081,-0.66078 -7.5494,-1.39085c-2.81202,-0.58513 -5.91518,-0.94483 -5.92124,-0.99803c-0.00818,-0.07174 2.20034,-0.40426 3.88163,-0.7933c0.65177,-0.28248 3.09414,-0.84475 3.09414,-0.84475c0,0 2.81891,-0.15794 4.32762,0.32934c1.61657,0.52212 1.61283,1.39105 1.75369,1.40442c0,0 0.67367,-0.99502 1.34742,-1.19711c0.67375,-0.20209 2.89078,-0.23681 3.13315,-0.14679z" fill="#ffffff" fill-rule="nonzero" stroke="#000000" stroke-width="0.5" stroke-linecap="butt" stroke-linejoin="miter"/><path d="M233.73082,190.27558c2.89587,0.58401 6.77878,1.59685 6.77878,1.59685c0,0 3.29325,-0.88498 4.80458,-1.04342c1.17169,-0.12284 6.37974,-0.40188 6.40491,-0.18985c0.02462,0.20731 -5.137,7.33779 -12.02917,7.08002c-7.8322,-0.24787 -13.00552,-8.60922 -12.984,-8.70542c0.02152,-0.0962 4.12902,0.67782 7.02489,1.26184z" fill="#ffffff" fill-rule="nonzero" stroke="#000000" stroke-width="0.5" stroke-linecap="butt" stroke-linejoin="miter"/><path d="M239.97305,188.57276c-0.58801,0 -2.0125,-1.85455 -2.1539,-3.0509c-0.12652,-1.07041 0.74805,-2.17738 2.1539,-2.17738c1.40586,0 2.39018,0.27916 2.29228,2.38246c-0.08309,1.78501 -0.88644,2.84583 -2.29228,2.84583z" fill="#ffffff" fill-rule="nonzero" stroke="#000000" stroke-width="0.5" stroke-linecap="butt" stroke-linejoin="miter"/><path d="M242.02195,171.45526c0,0 0.05837,2.25803 0.00328,4.05366c-0.10906,3.55568 -0.61515,15.79046 -0.61515,15.79046l-1.69599,0.00492c0,0 -0.45672,-2.37348 -0.6389,-5.40354c-0.2466,-4.10145 -0.25568,-9.26768 -0.43425,-11.16697c-0.16926,-1.80034 -0.50961,-3.25046 -0.50961,-3.25046" fill="#ffffff" fill-rule="nonzero" stroke="#000000" stroke-width="0.5" stroke-linecap="round" stroke-linejoin="miter"/><path d="M226.82128,171.56127c0.04035,-2.78253 2.75207,-5.08291 5.80829,-5.0386c3.05621,0.04431 5.13475,2.41651 5.09441,5.19905c-0.04035,2.78253 -2.34548,5.00231 -5.4017,4.958c-3.05621,-0.04431 -5.54135,-2.33591 -5.501,-5.11845z" fill="#ffffff" fill-rule="nonzero" stroke="#000000" stroke-width="0.5" stroke-linecap="butt" stroke-linejoin="miter"/><path d="M229.09544,173.87836c0.02274,-1.56901 1.31312,-2.82248 2.88211,-2.79974c1.56901,0.02274 2.82249,1.31312 2.79975,2.88211c-0.02274,1.56901 -1.31311,2.82249 -2.88211,2.79975c-1.56901,-0.02274 -2.82249,-1.31312 -2.79975,-2.88212z" fill="#000000" fill-rule="nonzero" stroke="none" stroke-width="0.5" stroke-linecap="butt" stroke-linejoin="miter"/><path d="M242.21107,171.56169c0.11577,-2.78042 2.53269,-5.03875 5.55751,-5.03875c3.02481,0 5.27541,2.25592 5.27541,5.03875c0,2.78283 -2.2103,5.15966 -5.51721,5.19996c-3.14548,0.03833 -5.43661,-2.29622 -5.31571,-5.19996z" fill="#ffffff" fill-rule="nonzero" stroke="#000000" stroke-width="0.5" stroke-linecap="butt" stroke-linejoin="miter"/><path d="M244.70414,173.86035c0,-1.60315 1.29961,-2.90276 2.90276,-2.90276c1.60315,0 2.90276,1.29961 2.90276,2.90276c0,1.60315 -1.2996,2.90276 -2.90276,2.90276c-1.60315,0 -2.90276,-1.29961 -2.90276,-2.90276z" fill="#000000" fill-rule="nonzero" stroke="none" stroke-width="0.5" stroke-linecap="butt" stroke-linejoin="miter"/><path d="M226.78236,171.25857c0,0 0.03616,-5.12786 6.02998,-5.01966c5.38717,0.09434 5.43525,5.3509 5.43525,5.3509z" fill="#ffffff" fill-rule="nonzero" stroke="#000000" stroke-width="0.5" stroke-linecap="butt" stroke-linejoin="miter"/><path d="M241.99626,171.33302c0,0 -0.14042,-5.37988 6.36957,-5.17795c5.52554,0.18968 5.43026,5.49028 5.43026,5.49028z" fill="#ffffff" fill-rule="nonzero" stroke="#000000" stroke-width="0.5" stroke-linecap="butt" stroke-linejoin="miter"/><path d="M228.79016,165.56387c0,0 1.91667,-1.03466 4.5689,-1.29789c2.93901,-0.2917 4.41862,-0.0377 4.41862,-0.0377l0.16784,2.35341c0,0 -2.18168,-0.38715 -4.56066,-0.29642c-3.18159,0.12134 -3.77965,0.81506 -6.1987,1.07572c-2.07278,0.22334 -3.83218,0.09035 -3.83218,0.09035l-0.01472,-0.70051c0,0 2.04495,0.04208 2.97696,-0.03888c0.76925,-0.06683 2.26141,-0.53359 2.26141,-0.53359z" fill="#000000" fill-rule="nonzero" stroke="none" stroke-width="0.5" stroke-linecap="butt" stroke-linejoin="miter"/></g></g></svg>