<svg version="1.1" xmlns="http://www.w3.org/2000/svg" xmlns:xlink="http://www.w3.org/1999/xlink" width="35.12501" height="35.12434" viewBox="0,0,35.12501,35.12434"><g transform="translate(-222.43752,-162.43783)"><g data-paper-data="{&quot;isPaintingLayer&quot;:true}" stroke="none" stroke-miterlimit="10" stroke-dasharray="" stroke-dashoffset="0" style="mix-blend-mode: normal"><path d="M257.56251,169.8317v20.49804c0,4.00745 -3.22497,7.23243 -7.23242,7.23243h-20.5c-3.66107,0 -6.66147,-2.69385 -7.1543,-6.21484c0.7952,3.03475 3.54108,5.26367 6.83204,5.26367h20.0332c3.9166,0 7.07032,-3.15372 7.07032,-7.07031v-20.03321c0,-3.2976 -2.23906,-6.0451 -5.28321,-6.83398c3.52994,0.48496 6.23438,3.49081 6.23438,7.15821z" fill-opacity="0.29839" fill="#000000" fill-rule="evenodd" stroke-width="4.54219" stroke-linecap="round" stroke-linejoin="round"/><path d="M229.50719,162.43783h20.03378c3.9166,0 7.06966,3.15307 7.06966,7.06966v20.03379c0,3.91659 -3.15307,7.06966 -7.06966,7.06966h-20.03378c-3.91659,0 -7.06967,-3.15307 -7.06967,-7.06966v-20.03379c0,-3.91659 3.15308,-7.06966 7.06967,-7.06966z" fill-opacity="0.35" fill="#4d4d4d" fill-rule="evenodd" stroke-width="4.43922" stroke-linecap="round" stroke-linejoin="round"/><path d="M241.51368,165.37301c0.17453,0.07456 0.38615,0.06649 0.54252,0.17405c0.40928,0.28152 0.82514,0.60914 1.25707,0.86977c0.6714,0.40514 1.41062,0.78772 2.04013,1.26219c0.48638,0.19108 0.71949,0.54923 1.15969,0.77303c1.31937,0.67081 2.86301,1.03377 4.15721,1.64454c0.46278,0.2184 0.85529,0.83047 1.29709,1.1175c0.48181,0.7227 1.34077,1.23998 1.91594,1.91474c1.04214,1.22259 1.66015,2.8257 2.16703,4.32299c-0.01905,1.93224 0.11111,3.9539 -0.56688,5.76432c-0.24973,0.66685 -0.26896,1.41714 -0.67058,2.01524c-0.16748,0.65456 -0.52163,1.06278 -0.85326,1.61182c-1.20198,1.98994 -2.72892,4.02071 -4.75715,5.2379c-1.23537,0.92915 -2.82958,1.71297 -4.28591,2.20899c-0.32846,0.11187 -0.68994,0.09966 -1.02267,0.19809c-0.94984,0.28098 -1.98841,0.75024 -2.97812,0.83631c-0.46713,0.04062 -0.9596,-0.00089 -1.42861,-0.00089c-2.82545,0 -5.70996,0.16456 -8.2047,-1.33021c-2.2791,-0.77101 -3.98312,-3.05311 -5.24328,-4.9929c-0.7359,-1.22676 -1.36639,-2.3955 -1.7689,-3.73784c-0.13719,-0.45751 -0.2381,-0.4325 -0.28066,-0.87757c-0.09072,-0.9486 0.0012,-1.96143 0.0012,-2.91471c0,-0.68237 -0.07671,-1.41674 -0.002,-2.09489c0.1411,-1.28085 0.75257,-2.46412 1.23596,-3.59983c0.28093,-0.66004 0.44234,-1.37009 0.76819,-2.0192c0.50192,-1.00753 0.95276,-2.03127 1.61578,-2.95299c0.91196,-1.26779 2.43424,-2.4364 3.81122,-3.13841c0.86274,-0.613 1.84905,-0.94735 2.77432,-1.4315c0.8272,-0.43284 1.61382,-1.09118 2.54942,-1.33049c0.6509,-0.16649 1.58964,0.00682 2.26002,0.00682c0,0 0.25588,-0.00001 0.2629,-0.2522c0.77815,0.10371 1.52373,0.40635 2.24703,0.71533z" data-paper-data="{&quot;noHover&quot;:false,&quot;origItem&quot;:[&quot;Path&quot;,{&quot;applyMatrix&quot;:true,&quot;segments&quot;:[[[482.05349,216.74637],[7.40097,0.98643],[-0.06673,2.39851]],[[479.55489,219.14488],[0,0],[-6.37588,0]],[[458.07464,219.078],[6.19063,-1.5835],[-8.8984,2.27612]],[[433.8451,231.7266],[7.86749,-4.1167],[-8.80015,4.60472]],[[407.47711,245.33131],[8.20545,-5.83019],[-13.09636,6.67673]],[[371.25223,275.15788],[8.67356,-12.05781],[-6.30591,8.76635]],[[355.89575,303.22462],[4.7737,-9.58252],[-3.09917,6.17363]],[[348.59443,322.41577],[2.6719,-6.27761],[-4.59739,10.80153]],[[336.84315,356.62969],[1.342,-12.18204],[-0.71053,6.44985]],[[336.86188,376.54098],[0,-6.48993],[0,9.06652]],[[336.84732,404.24517],[-0.86284,-9.02201],[0.40483,4.23297]],[[339.51507,412.58633],[-1.3048,-4.35131],[3.82831,12.76684]],[[356.32809,448.11399],[-6.99903,-11.66761],[11.98518,18.44913]],[[406.16514,495.57018],[-21.67621,-7.33298],[23.72724,14.2166]],[[484.1496,508.20666],[-26.87247,0],[4.46068,0]],[[497.72755,508.21518],[-4.4428,0.38637],[9.41303,-0.81861]],[[526.03211,500.26441],[-9.03376,2.67234],[3.16458,-0.93614]],[[535.75202,498.38244],[-3.12392,1.06399],[13.85103,-4.7176]],[[576.48682,477.38798],[-11.74947,8.83699],[19.2903,-11.5766]],[[621.70232,427.6064],[-11.43191,18.92607],[3.15419,-5.22191]],[[629.81315,412.28731],[-1.59291,6.22547],[3.81975,-5.68846]],[[636.18733,393.13353],[-2.37516,6.34234],[6.44826,-17.21868]],[[641.57798,338.34582],[-0.18113,18.37737],[-4.82094,-14.24057]],[[620.97665,297.25896],[9.91163,11.62783],[-5.4704,-6.41759]],[[602.76338,279.06289],[4.58238,6.87357],[-4.20198,-2.72994]],[[590.4342,268.44331],[4.40151,2.0772],[-12.30897,-5.80897]],[[550.91964,252.82127],[12.54838,6.38002],[-4.18668,-2.12865]],[[539.89926,245.47364],[4.62588,1.81731],[-5.98721,-4.51258]],[[520.51194,233.4746],[6.38565,3.85319],[-4.10798,-2.47881]],[[508.56568,225.20411],[3.89263,2.6775],[-1.48718,-1.02294]],[[503.40964,223.54929],[1.65992,0.70908],[-6.87922,-2.93865]]],&quot;closed&quot;:true}]}" fill="#009dff" fill-rule="nonzero" stroke-width="0.5" stroke-linecap="butt" stroke-linejoin="miter"/></g></g></svg>