<svg version="1.1" xmlns="http://www.w3.org/2000/svg" xmlns:xlink="http://www.w3.org/1999/xlink" width="93.96129" height="253.22501" viewBox="0,0,93.96129,253.22501"><g transform="translate(-192.5045,-53.38752)"><g data-paper-data="{&quot;isPaintingLayer&quot;:true}" fill-rule="nonzero" stroke-linejoin="miter" stroke-miterlimit="10" stroke-dasharray="" stroke-dashoffset="0" style="mix-blend-mode: normal"><path d="M195.28376,306.61253v-253.22501h91.18203v253.22501z" fill-opacity="0.01" fill="#000000" stroke="none" stroke-width="0" stroke-linecap="butt"/><path d="M201.03044,304.39162c0,0 -0.63536,-94.38387 -0.79335,-118.01201c-0.05451,-8.15261 8.18688,-36.76129 40.20201,-36.9211c31.60235,-0.15775 39.85672,29.48704 39.84884,36.89673c-0.07659,46.24274 0.65429,117.98648 0.65429,117.98648l-10.49667,0.09614l-0.15882,-114.84311c0,0 0.07549,-3.0993 -2.81625,-3.15415c-3.43441,-0.06514 -2.94538,3.11562 -2.94538,3.11562l0.20548,114.86995l-48.21366,0.07222l-0.30539,-115.23309c0,0 0.27949,-2.919 -2.8856,-2.93443c-3.11083,-0.01515 -2.81569,2.90899 -2.81569,2.90899l0.35311,115.0668z" fill="#ffffff" stroke="#000000" stroke-width="2" stroke-linecap="butt"/><path d="M255.62764,200.33378c-0.57113,0 -1.03411,-0.46299 -1.03411,-1.03411c0,-0.57113 0.46299,-1.03413 1.03411,-1.03413c0.57113,0 1.03411,0.463 1.03411,1.03413c0,0.57113 -0.46299,1.03411 -1.03411,1.03411z" fill="#000000" stroke="none" stroke-width="1.5" stroke-linecap="butt"/><path d="M250.36775,204.56941c-4.4635,-0.31439 -6.55245,-1.79392 -6.16985,-2.58011c0.11788,-0.24224 2.84645,1.06355 6.97038,1.3048c6.40897,0.37493 8.51033,-0.63173 8.51033,-0.63173v1.34616c0,0 -2.4135,1.04672 -9.31086,0.56089z" fill="#000000" stroke="#000000" stroke-width="0" stroke-linecap="butt"/><path d="M222.55498,199.29967c0,-0.57113 0.46299,-1.03413 1.03411,-1.03413c0.57113,0 1.03413,0.463 1.03413,1.03413c0,0.57113 -0.463,1.03411 -1.03413,1.03411c-0.57113,0 -1.03411,-0.46299 -1.03411,-1.03411z" fill="#000000" stroke="none" stroke-width="1.5" stroke-linecap="butt"/><path d="M228.849,204.56941c-6.89736,0.48585 -9.31086,-0.56089 -9.31086,-0.56089v-1.34616c0,0 2.10136,1.00666 8.51033,0.63173c4.12393,-0.24126 6.85251,-1.54704 6.97039,-1.3048c0.3826,0.78618 -1.70634,2.26571 -6.16985,2.58011z" fill="#000000" stroke="#000000" stroke-width="0" stroke-linecap="butt"/><path d="M240.12945,261.12113c-0.81895,0 -1.48284,-0.66389 -1.48284,-1.48284c0,-0.81895 0.66389,-1.48284 1.48284,-1.48284c0.81895,0 1.48284,0.66389 1.48284,1.48284c0,0.81895 -0.66389,1.48284 -1.48284,1.48284z" data-paper-data="{&quot;index&quot;:null}" fill="#000000" stroke="none" stroke-width="1.5" stroke-linecap="butt"/><path d="M216.06617,304.40603v-119.20147c0,0 0.75721,-9.73105 0.75721,-14.63937c0,-4.498 -0.75721,-13.6872 -0.75721,-13.6872c0,0 2.67319,-2.35297 4.6557,-3.74807c1.98251,-1.3951 5.17197,-2.80371 5.17197,-2.80371c0,0 -0.6016,40.10902 14.55952,40.03867c15.43477,-0.07162 13.83154,-40.03867 13.83154,-40.03867c0,0 3.91276,1.51959 6.16585,2.94655c2.25309,1.42695 4.75379,3.60523 4.75379,3.60523c0,0 -0.75721,9.42463 -0.75721,14.19201c0,4.84193 0.75721,14.63937 0.75721,14.63937v118.69667z" fill="#ffffff" stroke="#000000" stroke-width="2" stroke-linecap="butt"/><path d="M195.92698,103.88011c0,0 6.16329,-5.92187 6.29161,-6.78761c0.33654,-2.27063 -0.16776,-40.17317 35.96775,-41.57382c44.63633,-0.91362 39.01489,35.34872 41.53088,42.1903c3.44981,9.38084 6.15664,17.40016 6.15664,17.40016c0,0 -2.76715,-2.05351 -4.0797,-3.13397c-1.2242,-1.00773 -3.80143,-3.14585 -3.80143,-3.14585c0,0 3.09111,10.3481 1.31092,20.69498c-1.5623,9.48098 -7.29782,17.22543 -7.29782,17.22543l-1.15522,-2.34735c0,0 -1.02266,2.19794 -2.16005,3.33274c-1.1374,1.13479 -3.43873,2.91273 -3.43873,2.91273l-0.09205,-3.70421c0,0 -7.0601,11.01795 -24.35066,10.87154c-16.30625,-0.25547 -26.07151,-10.6752 -26.07151,-10.6752l-0.1162,2.65484c0,0 -3.89477,-3.29276 -6.18145,-9.70754c-2.72545,-7.64567 -3.23946,-12.24324 -3.23946,-12.24324c0,0 -2.33908,1.89916 -5.71704,2.7744c-4.23278,1.09673 -6.94665,0.34526 -6.94665,0.34526c0,0 3.60795,-2.71717 5.58396,-4.76989c1.76007,-1.8284 2.64658,-3.37722 2.64658,-3.37722c0,0 -2.10758,1.0847 -4.23277,1.61795c-2.21739,0.5564 -4.03008,0.53093 -4.03008,0.53093c0,0 4.97492,-5.03728 7.03074,-10.87429c1.94102,-5.51108 2.09972,-10.95731 2.09972,-10.95731c0,0 -1.36165,0.66163 -3.33013,0.79513c-1.24776,0.08463 -2.37785,-0.0489 -2.37785,-0.0489z" fill="#000000" stroke="none" stroke-width="1.5" stroke-linecap="butt"/><path d="M212.71284,115.20173c-0.57709,-7.29323 0.335,-17.15448 0.335,-17.15448c0,0 3.41059,-0.04124 13.91429,-3.14424c8.0696,-2.38394 20.54731,-9.48722 20.54731,-9.48722c0,0 -2.16005,3.00503 -3.40781,4.46015c-1.32651,1.54696 -3.99292,4.56297 -3.99292,4.56297c0,0 7.838,-1.66761 14.67476,-4.72931c8.56837,-3.53575 10.59252,-6.05309 12.95042,-4.5927c2.7829,1.72362 1.03006,23.1827 0.71846,28.74062c-0.42163,5.66922 -2.53327,9.49969 -3.15031,12.52053c-0.61704,3.02084 -0.4096,6.13662 -2.20622,16.0397c-1.12121,6.18021 -4.16183,8.92466 -10.01942,14.66081c-5.85759,5.73616 -9.05378,9.25275 -13.01359,9.32173c-3.81077,0.06639 -8.93565,-5.1002 -13.93542,-10.38244c-5.32393,-5.62474 -8.87489,-8.47713 -9.71551,-15.13975c-0.75707,-6.00039 -0.77653,-9.90853 -1.12266,-15.24835c-0.25298,-3.90273 -2.26119,-6.44504 -2.57636,-10.42801z" fill="#ffffff" stroke="#000000" stroke-width="1.5" stroke-linecap="butt"/><path d="M217.95476,142.15934c0,0 4.33559,-0.23365 7.70329,-1.08812c3.47988,-0.88293 6.20608,-2.16246 8.31234,-2.33267c1.27714,-0.10321 6.89576,2.72475 6.89576,2.72475c0,0 4.21715,-2.59308 6.88701,-2.25605c2.19955,0.27767 5.95973,2.20106 9.6321,3.33853c3.537,1.09554 6.04427,1.00564 6.04427,1.00564c0,0 -1.21654,3.63617 -1.60353,5.61904c-1.14493,5.86647 -3.98933,16.63637 -21.64989,16.61651c-4.63118,-0.0052 -8.48559,-1.29828 -11.36517,-2.94146c-5.81857,-3.32025 -8.26245,-8.91774 -9.33144,-14.14321c-0.63502,-3.10412 -1.52473,-6.54297 -1.52473,-6.54297z" fill="#000000" stroke="none" stroke-width="NaN" stroke-linecap="butt"/><path d="M221.89899,143.72543c0,0 3.00923,-0.17005 5.94346,-0.91098c1.62968,-0.41152 3.13605,-1.25151 4.48358,-1.59537c0.40451,-0.10323 0.90195,-0.09026 1.24926,-0.09746c0.5768,-0.01198 1.43873,0.00947 2.18709,0.17271c2.64775,0.57756 5.68381,2.02509 5.68381,2.02509c0,0 4.10126,-2.08164 6.61487,-1.85803c1.86339,0.16576 4.56962,1.81052 7.32341,2.70821c2.3795,0.77568 4.97087,0.83192 4.97087,0.83192c0,0 -6.57582,1.61728 -18.85138,1.39882c-7.95198,-0.17941 -19.60497,-2.67489 -19.60497,-2.67489z" fill="#ffffff" stroke="none" stroke-width="0" stroke-linecap="butt"/><path d="M220.51262,145.38914c0,0 1.97003,0.18043 4.74847,1.90924c4.73288,2.94491 4.41729,8.4779 15.8708,8.50056c1.17165,0.00232 2.29333,-0.24599 3.22786,-0.34353c2.46369,-0.25714 4.16423,-0.73171 5.47297,-1.4382c2.66652,-1.43946 3.70649,-3.59409 6.26067,-5.10027c2.47616,-1.46017 4.56877,-1.72068 4.56877,-1.72068c0,0 -0.55425,1.40496 -0.88264,2.61649c-0.01344,0.0496 -0.02748,0.09981 -0.04171,0.15072c-1.40932,5.04194 -5.73136,13.02657 -18.9147,13.37904c-4.04855,0.10825 -10.5974,-1.77738 -14.0537,-5.31283c-2.75709,-2.82024 -3.81915,-6.09626 -4.71437,-8.70206c-0.74332,-2.16369 -1.54242,-3.93849 -1.54242,-3.93849z" fill="#ffffff" stroke="none" stroke-width="0" stroke-linecap="butt"/><path d="M240.90165,150.14268c-8.79667,-0.3894 -12.257,-2.90711 -12.257,-2.90711c0,0 8.4335,0.94698 12.52446,1.1205c2.19036,0.0929 5.52943,-0.10568 8.05626,-0.16057c2.0067,-0.04359 3.50114,0.06148 3.50114,0.06148c0,0 -3.74362,2.24342 -11.82487,1.88569z" fill="#ffffff" stroke="none" stroke-width="0" stroke-linecap="butt"/><path d="M230.72678,150.06408c0,0 5.56085,1.69188 10.44828,1.7452c4.98546,0.05438 10.56934,-1.39163 10.56934,-1.39163c0,0 -2.73669,3.31742 -10.80345,3.33925c-7.35892,0.0199 -10.21417,-3.69281 -10.21417,-3.69281z" fill="#ffffff" stroke="none" stroke-width="0" stroke-linecap="butt"/><path d="M260.78283,100.08138c0,0 1.52429,0.31807 4.2558,1.11029c2.49492,0.72361 4.44935,1.74403 4.44935,1.74403l0.1951,1.17035c0,0 -7.24963,-3.12997 -15.1158,-2.4706c-6.2896,0.52724 -9.96319,2.8124 -9.96319,2.8124l0.04575,-4.17683c0,0 3.12748,-1.70421 7.86366,-1.85557c4.90428,-0.15672 8.09084,0.59125 8.09084,0.59125z" data-paper-data="{&quot;index&quot;:null}" fill="#000000" stroke="none" stroke-width="1.5" stroke-linecap="butt"/><path d="M240.345,144.62883c-1.03376,0 -3.5381,-3.26042 -3.7867,-5.3637c-0.22243,-1.88186 1.31512,-3.82799 3.7867,-3.82799c2.47159,0 4.2021,0.49077 4.02999,4.18853c-0.14607,3.13818 -1.55841,5.00317 -4.02999,5.00317z" fill="#ffffff" stroke="#000000" stroke-width="1.15" stroke-linecap="butt"/><path d="M243.94709,114.53511c0,0 0.1026,3.96976 0.00576,7.12662c-0.19174,6.25113 -1.08147,27.7607 -1.08147,27.7607l-2.98167,0.00864c0,0 -0.80294,-4.17274 -1.12322,-9.49979c-0.43353,-7.21063 -0.4495,-16.29321 -0.76344,-19.63229c-0.29758,-3.16513 -0.89593,-5.71453 -0.89593,-5.71453" fill="#ffffff" stroke="#000000" stroke-width="1.3" stroke-linecap="round"/><path d="M214.4125,125.32497c0,0 -4.93211,-3.51705 -6.16417,-8.97502c-1.29636,-5.74284 -1.46118,-9.7328 0.48013,-9.99193c1.94131,-0.25915 2.70321,2.37692 3.73262,8.35569c1.0294,5.97877 1.95143,10.61127 1.95143,10.61127z" data-paper-data="{&quot;index&quot;:null}" fill="#ffffff" stroke="#000000" stroke-width="1" stroke-linecap="butt"/><path d="M214.20989,121.3774c0,0 -3.56385,-2.92338 -4.31816,-8.45061c-0.42079,-3.08327 2.15675,-2.28016 2.15675,-2.28016" fill="none" stroke="#000000" stroke-width="0.25" stroke-linecap="round"/><path d="M217.22331,114.7215c0.07093,-4.89188 4.83834,-8.93609 10.21137,-8.8582c5.37302,0.0779 9.02724,4.2484 8.95632,9.14029c-0.07093,4.89188 -4.12352,8.79439 -9.49655,8.7165c-5.37302,-0.0779 -9.74207,-4.1067 -9.67114,-8.99859z" fill="#804e4e" stroke="#000000" stroke-width="1.4" stroke-linecap="butt"/><path d="M220.5841,114.87983c0.04961,-2.95413 2.86365,-5.31417 6.28534,-5.27134c3.42172,0.04283 6.15531,2.47233 6.1057,5.42644c-0.04961,2.95413 -2.86364,5.31417 -6.28534,5.27135c-3.42172,-0.04283 -6.15531,-2.47233 -6.1057,-5.42644z" fill="#000000" stroke="none" stroke-width="1.5" stroke-linecap="butt"/><path d="M244.2796,114.72223c0.20353,-4.88817 4.45264,-8.85847 9.77048,-8.85847c5.31783,0 9.27453,3.96607 9.27453,8.85847c0,4.8924 -3.88585,9.07104 -9.69964,9.14188c-5.52997,0.06739 -9.55792,-4.03692 -9.34537,-9.14188z" fill="#804e4e" stroke="#000000" stroke-width="1.4" stroke-linecap="butt"/><path d="M220.68472,104.17765c0,0 3.36963,-1.819 8.03244,-2.28178c5.16698,-0.51283 7.76823,-0.06628 7.76823,-0.06628l0.29508,4.13747c0,0 -3.83554,-0.68065 -8.01795,-0.52113c-5.59346,0.21333 -6.64488,1.43293 -10.89774,1.89119c-3.64408,0.39266 -6.73723,0.15884 -6.73723,0.15884l-0.02589,-1.23155c0,0 3.59517,0.07398 5.23371,-0.06836c1.35239,-0.11749 3.9757,-0.93808 3.9757,-0.93808z" fill="#000000" stroke="none" stroke-width="1.5" stroke-linecap="butt"/><path d="M268.64563,114.71369c1.0294,-5.97877 1.7913,-8.61483 3.73262,-8.35569c1.94131,0.25914 1.77649,4.24909 0.48013,9.99193c-1.23206,5.45797 -6.16417,8.97502 -6.16417,8.97502c0,0 0.92203,-4.6325 1.95143,-10.61127z" data-paper-data="{&quot;index&quot;:null}" fill="#ffffff" stroke="#000000" stroke-width="1" stroke-linecap="butt"/><path d="M269.05818,110.64663c0,0 2.57754,-0.80312 2.15675,2.28016c-0.75431,5.52723 -4.31816,8.45061 -4.31816,8.45061" data-paper-data="{&quot;index&quot;:null}" fill="none" stroke="#000000" stroke-width="0.25" stroke-linecap="round"/><path d="M247.82106,115.09272c0.04961,-2.95413 2.86365,-5.31417 6.28534,-5.27134c3.42171,0.04282 6.15531,2.47233 6.1057,5.42644c-0.04961,2.95413 -2.86364,5.31417 -6.28534,5.27135c-3.42172,-0.04282 -6.15531,-2.47234 -6.1057,-5.42645z" fill="#000000" stroke="none" stroke-width="1.5" stroke-linecap="butt"/><path d="M217.15487,114.1893c0,0 0.06357,-9.01512 10.60111,-8.8249c9.47101,0.16586 9.55554,9.40723 9.55554,9.40723c0,0 -1.52784,2.23883 -10.18831,2.29729c-8.88501,0.05998 -9.96834,-2.87962 -9.96834,-2.87962z" fill="#808080" stroke="#000000" stroke-width="1.15" stroke-linecap="butt"/><path d="M217.15486,114.1893c0,0 0.06357,-9.01512 10.60111,-8.8249c9.47101,0.16586 9.55554,9.40723 9.55554,9.40723c0,0 -1.52784,2.23883 -10.18831,2.29729c-8.88501,0.05998 -9.96834,-2.87962 -9.96834,-2.87962z" fill="#ffffff" stroke="#000000" stroke-width="1.15" stroke-linecap="butt"/><path d="M243.67163,114.05047c0,0 0.06357,-9.01512 10.60111,-8.8249c9.47101,0.16586 9.55554,9.40723 9.55554,9.40723z" fill="#ffffff" stroke="#000000" stroke-width="1.15" stroke-linecap="butt"/><text transform="translate(229.73443,286.09385) rotate(-90) scale(0.26273,0.26273)" font-size="40" xml:space="preserve" fill="#000000" fill-rule="nonzero" stroke="none" stroke-width="1" stroke-linecap="butt" stroke-linejoin="miter" stroke-miterlimit="10" stroke-dasharray="" stroke-dashoffset="0" font-family="Sans Serif" font-weight="normal" text-anchor="start" style="mix-blend-mode: normal"><tspan x="0" dy="0">I am very high 3.0</tspan></text></g></g></svg>