<svg version="1.1" xmlns="http://www.w3.org/2000/svg" xmlns:xlink="http://www.w3.org/1999/xlink" width="94.62304" height="256.85161" viewBox="0,0,94.62304,256.85161"><g transform="translate(-191.84268,-49.76091)"><g stroke-miterlimit="10"><path d="M195.28369,306.61252v-253.22501h91.18203v253.22501z" fill-opacity="0.01" fill="#000000" stroke="none" stroke-width="0" stroke-linecap="butt"/><path d="M200.23704,186.37957c-0.05451,-8.15261 8.18688,-36.76129 40.20201,-36.9211c31.60235,-0.15775 39.85672,29.48704 39.84884,36.89673c-0.06732,40.64593 -6.14054,42.94147 -7.96833,42.95821c-0.85211,0.0078 -2.03287,-39.7187 -2.03287,-39.7187c0,0 0.07549,-3.0993 -2.81625,-3.15415c-3.43441,-0.06514 -2.94538,3.11562 -2.94538,3.11562c0,0 -17.5027,17.3243 -17.47931,30.39698c0.03786,21.16531 17.68479,84.47297 17.68479,84.47297c0,0 -16.13822,-51.92225 -24.18718,-51.91019c-8.02217,0.01202 -24.02648,51.98241 -24.02648,51.98241c0,0 17.05922,-62.02671 17.00305,-83.22082c-0.04014,-15.14759 -17.30844,-32.01227 -17.30844,-32.01227c0,0 0.27949,-2.919 -2.8856,-2.93443c-3.11083,-0.01515 -2.81569,2.90899 -2.81569,2.90899c0,0 -1.44008,41.30996 -3.04517,41.32383c-1.66997,0.01443 -7.07,-20.55594 -7.22799,-44.18408z" fill="#ffffff" stroke="#000000" stroke-width="2" stroke-linecap="butt"/><path d="M195.26516,123.48379c0,0 6.16329,-9.02422 6.29161,-10.34351c0.33654,-3.46017 -0.16776,-61.2191 35.96775,-63.35352c44.63633,-1.39225 39.01489,53.86722 41.53088,64.29297c3.44981,14.29528 6.15664,26.51576 6.15664,26.51576c0,0 -2.76715,-3.1293 -4.0797,-4.7758c-1.2242,-1.53566 -3.80143,-4.7939 -3.80143,-4.7939c0,0 3.09111,15.76927 1.31092,31.53667c-1.5623,14.44788 -7.29782,26.24949 -7.29782,26.24949l-1.15522,-3.57708c0,0 -1.02266,3.3494 -2.16005,5.0787c-1.1374,1.72928 -3.43873,4.43865 -3.43873,4.43865l-0.09205,-5.64477c0,0 -7.0601,16.79004 -24.35066,16.56693c-16.30625,-0.38931 -26.07151,-16.26773 -26.07151,-16.26773l-0.1162,4.04566c0,0 -3.89477,-5.01777 -6.18145,-14.79313c-2.72545,-11.65109 -3.23946,-18.65723 -3.23946,-18.65723c0,0 -2.33908,2.89409 -5.71704,4.22785c-4.23278,1.67129 -6.94665,0.52613 -6.94665,0.52613c0,0 3.60795,-4.14064 5.58396,-7.26874c1.76007,-2.78626 2.64658,-5.14648 2.64658,-5.14648c0,0 -2.10758,1.65295 -4.23277,2.46556c-2.21739,0.84789 -4.03008,0.80907 -4.03008,0.80907c0,0 4.97492,-7.67621 7.03074,-16.57112c1.94102,-8.39823 2.09972,-16.69763 2.09972,-16.69763c0,0 -1.36165,1.00824 -3.33013,1.21168c-1.24776,0.12897 -2.37785,-0.07452 -2.37785,-0.07452z" fill="#000000" stroke="none" stroke-width="1.5" stroke-linecap="butt"/><path d="M212.38192,109.46093c-0.57709,-7.29323 0.335,-17.15448 0.335,-17.15448c0,0 3.41059,-0.04124 13.91429,-3.14424c8.0696,-2.38394 20.54731,-9.48722 20.54731,-9.48722c0,0 -2.16005,3.00503 -3.40781,4.46015c-1.32651,1.54696 -3.99292,4.56297 -3.99292,4.56297c0,0 7.838,-1.66761 14.67476,-4.72931c8.56837,-3.53575 10.59252,-6.05309 12.95042,-4.5927c2.7829,1.72362 1.03006,23.1827 0.71846,28.74062c-0.42163,5.66922 -2.53327,9.49969 -3.15031,12.52053c-0.61704,3.02084 20.76601,3.82054 18.96939,13.72362c-0.99895,5.50632 -15.34065,40.91146 -22.59921,52.84055c-0.88834,1.45995 -1.67059,3.546 -2.30931,4.17148c-5.85759,5.73616 -12.36247,6.27493 -16.32228,6.34391c-3.81077,0.06639 -13.56781,-1.46064 -18.56758,-6.74288c-5.32393,-5.62474 -25.41834,-46.19619 -26.25896,-52.85881c-0.75707,-6.00039 17.42126,-12.88635 17.07513,-18.22617c-0.25298,-3.90273 -2.26119,-6.44504 -2.57636,-10.42801z" fill="#ffffff" stroke="#000000" stroke-width="1.5" stroke-linecap="butt"/><path d="M260.45192,94.34057c0,0 1.52429,0.31807 4.2558,1.11029c2.49492,0.72361 4.44935,1.74403 4.44935,1.74403l0.1951,1.17035c0,0 -7.24963,-3.12997 -15.1158,-2.4706c-6.2896,0.52724 -9.96319,2.8124 -9.96319,2.8124l0.04575,-4.17683c0,0 3.12748,-1.70421 7.86366,-1.85557c4.90428,-0.15672 8.09084,0.59125 8.09084,0.59125z" fill="#000000" stroke="none" stroke-width="1.5" stroke-linecap="butt"/><path d="M214.08156,119.58415c0,0 -4.93211,-3.51705 -6.16417,-8.97502c-1.29636,-5.74284 -1.46118,-9.7328 0.48013,-9.99193c1.94131,-0.25915 2.70321,2.37692 3.73262,8.35569c1.0294,5.97877 1.95143,10.61127 1.95143,10.61127z" fill="#ffffff" stroke="#000000" stroke-width="1" stroke-linecap="butt"/><path d="M213.87897,115.63659c0,0 -3.56385,-2.92338 -4.31816,-8.45061c-0.42079,-3.08327 2.15675,-2.28016 2.15675,-2.28016" fill="none" stroke="#000000" stroke-width="0.25" stroke-linecap="round"/><path d="M216.89237,108.98069c0.07093,-4.89188 4.83834,-8.93609 10.21137,-8.8582c5.37302,0.0779 9.02724,4.2484 8.95632,9.14029c-0.07093,4.89188 -4.12352,8.79439 -9.49655,8.7165c-5.37302,-0.0779 -9.74207,-4.1067 -9.67114,-8.99859z" fill="#ffffff" stroke="#000000" stroke-width="1.4" stroke-linecap="butt"/><path d="M218.87302,109.09863c0.03999,-2.75843 2.30855,-4.96213 5.06696,-4.92214c2.75843,0.03999 4.96213,2.30855 4.92214,5.06696c-0.03999,2.75843 -2.30854,4.96213 -5.06696,4.92214c-2.75843,-0.03999 -4.96213,-2.30855 -4.92214,-5.06696z" fill="#000000" stroke="none" stroke-width="1.5" stroke-linecap="butt"/><path d="M243.94865,108.98142c0.20353,-4.88817 4.45264,-8.85847 9.77048,-8.85847c5.31783,0 9.27453,3.96607 9.27453,8.85847c0,4.8924 -3.88585,9.07104 -9.69964,9.14188c-5.52997,0.06739 -9.55792,-4.03692 -9.34537,-9.14188z" fill="#ffffff" stroke="#000000" stroke-width="1.4" stroke-linecap="butt"/><path d="M250.81443,109.06697c0,-2.81845 2.2848,-5.10325 5.10325,-5.10325c2.81845,0 5.10325,2.2848 5.10325,5.10325c0,2.81845 -2.28479,5.10325 -5.10325,5.10325c-2.81845,0 -5.10325,-2.2848 -5.10325,-5.10325z" fill="#000000" stroke="none" stroke-width="1.5" stroke-linecap="butt"/><path d="M216.82394,108.44851c0,0 0.06357,-9.01512 10.60111,-8.8249c9.47101,0.16586 9.55554,9.40723 9.55554,9.40723z" fill="#ffffff" stroke="#000000" stroke-width="1.15" stroke-linecap="butt"/><path d="M243.571,108.57941c0,0 -0.24686,-9.4582 11.19813,-9.1032c9.71427,0.33347 9.54677,9.65229 9.54677,9.65229z" fill="#ffffff" stroke="#000000" stroke-width="1.15" stroke-linecap="butt"/><path d="M220.35379,98.43685c0,0 3.36963,-1.819 8.03244,-2.28178c5.16698,-0.51283 7.76823,-0.06628 7.76823,-0.06628l0.29508,4.13747c0,0 -3.83554,-0.68065 -8.01795,-0.52113c-5.59346,0.21333 -6.64488,1.43293 -10.89774,1.89119c-3.64408,0.39266 -6.73723,0.15884 -6.73723,0.15884l-0.02589,-1.23155c0,0 3.59517,0.07398 5.23371,-0.06836c1.35239,-0.11749 3.9757,-0.93808 3.9757,-0.93808z" fill="#000000" stroke="none" stroke-width="1.5" stroke-linecap="butt"/><path d="M268.31472,108.97288c1.0294,-5.97877 1.7913,-8.61483 3.73262,-8.35569c1.94131,0.25914 1.77649,4.24909 0.48013,9.99193c-1.23206,5.45797 -6.16417,8.97502 -6.16417,8.97502c0,0 0.92203,-4.6325 1.95143,-10.61127z" fill="#ffffff" stroke="#000000" stroke-width="1" stroke-linecap="butt"/><path d="M268.72731,104.90582c0,0 2.57754,-0.80312 2.15675,2.28016c-0.75431,5.52723 -4.31816,8.45061 -4.31816,8.45061" fill="none" stroke="#000000" stroke-width="0.25" stroke-linecap="round"/><g stroke="none" stroke-width="0" stroke-linecap="butt"><g><path d="M214.00363,228.46433c-7.86909,-18.25976 -9.35753,-46.28055 -10.75477,-64.71592c-0.70472,-9.29838 -2.81368,-18.04695 -2.81368,-18.04695c0,0 7.37913,-9.31785 14.47706,-17.3533c4.11695,-4.66068 8.64832,-10.54222 10.25969,-10.6562c3.45222,-0.24415 15.01227,8.48476 15.01227,8.48476c0,0 9.40833,-10.8066 13.9794,-8.08347c3.76145,2.24082 9.20262,10.95769 13.79103,18.24025c3.84974,6.1101 7.23111,11.14406 7.23111,11.14406c0,0 -1.44136,17.26552 -1.59465,25.98996c-0.32262,18.3645 -2.376,38.03505 -10.04914,54.00427c-5.10732,10.62935 -13.49583,16.22718 -23.44298,16.14186c-10.25973,-0.08801 -21.40772,-4.27192 -26.09538,-15.14931z" fill="#000000"/><path d="M216.20417,222.83518c-5.67568,-14.01412 -7.35222,-38.05861 -8.82705,-54.42248c-0.65611,-7.2798 -2.54941,-16.79871 -2.54941,-16.79871c0,0 3.8551,-0.09226 7.23077,7.50934c3.42794,7.71924 5.97903,21.52759 8.23437,31.20732c2.62104,11.24917 5.43594,17.88741 18.05385,18.02427c25.37721,0.27521 17.86866,-30.55504 25.02873,-46.8382c3.35864,-7.63803 7.71336,-7.93836 7.71336,-7.93836c0,0 -1.49766,11.1597 -1.78938,22.54737c-0.37328,14.57136 -1.07614,31.32388 -7.55433,44.91618c-6.47818,13.59231 -14.02602,15.5103 -22.02533,15.59025c-11.57177,0.11566 -20.27914,-5.80569 -23.51557,-13.79699z" fill="#ffffff"/><path d="M206.91141,145.12871c0,0 12.24,-17.3047 17.9966,-19.7765c5.26904,-2.26249 16.67497,7.63179 16.67497,7.63179c0,0 7.81039,-9.93661 11.09417,-8.36146c4.85608,2.32935 17.1455,22.75956 17.1455,22.75956c0,0 -4.79284,1.24555 -11.37511,-1.28844c-5.98706,-2.30486 -11.6573,-8.65824 -17.95913,-8.79975c-4.4953,-0.10094 -12.33248,5.46306 -18.40405,7.03383c-8.45925,2.18843 -15.17295,0.80094 -15.17295,0.80094z" fill="#ffffff"/><path d="M222.67683,184.48651c0,0 1.58424,0.70793 2.59419,1.77666c2.78958,2.95189 7.86233,8.50856 14.11288,8.36991c6.96233,-0.15443 11.46056,-4.97348 13.87696,-7.74226c1.04236,-1.19439 2.15296,-1.8426 2.15296,-1.8426c0,0 -0.41327,8.33445 -5.5998,13.08231c-2.36635,2.1662 -5.29424,1.87667 -10.39272,2.72615c-5.2194,0.8696 -8.94939,-0.90682 -11.43806,-3.76115c-4.2279,-4.84903 -5.30638,-12.60899 -5.30638,-12.60899z" fill="#ffffff"/><path d="M223.25323,150.23946c0,0 10.13202,-5.91261 16.60973,-6.05628c6.47769,-0.14367 16.6948,8.10776 16.6948,8.10776l-33.30453,-2.05151z" fill="#ffffff"/></g><path d="M238.4667,176.19898c0.33972,-0.0105 2.08439,4.88351 2.08439,4.88351c0,0 -0.01893,-4.92691 0.48818,-4.92463c5.99437,0.02747 10.78867,1.0335 10.80166,3.19397c0.01407,2.34322 -5.60172,5.15704 -12.29567,5.30552c-6.69395,0.14848 -12.34206,-2.41551 -12.46241,-5.34845c-0.09091,-2.21566 5.13378,-2.91686 11.38384,-3.10999z" fill="#ffffff"/></g><path d="M240.01406,181.23925c-1.03376,0 -3.5381,-3.26042 -3.7867,-5.3637c-0.22243,-1.88186 1.31512,-3.82799 3.7867,-3.82799c2.47159,0 4.2021,0.49077 4.02999,4.18853c-0.14607,3.13818 -1.55841,5.00317 -4.02999,5.00317z" fill="#ffffff" stroke="#000000" stroke-width="1.15" stroke-linecap="butt"/><path d="M243.61617,108.79431c0,0 0.1026,9.2393 0.00576,16.58665c-0.19174,14.54901 -1.08147,64.61085 -1.08147,64.61085l-2.98167,0.02011c0,0 -0.80294,-9.71172 -1.12322,-22.11002c-0.43353,-16.78218 -0.4495,-37.92117 -0.76344,-45.69261c-0.29758,-7.36659 -0.89593,-13.30012 -0.89593,-13.30012" fill="#ffffff" stroke="#000000" stroke-width="1.3" stroke-linecap="round"/></g></g></svg>