<svg version="1.1" xmlns="http://www.w3.org/2000/svg" xmlns:xlink="http://www.w3.org/1999/xlink" width="35.125" height="35.12434" viewBox="0,0,35.125,35.12434"><g transform="translate(-302.43752,-162.43783)"><g data-paper-data="{&quot;isPaintingLayer&quot;:true}" stroke-miterlimit="10" stroke-dasharray="" stroke-dashoffset="0" style="mix-blend-mode: normal"><path d="M337.56252,169.8317v20.49804c0,4.00745 -3.22497,7.23243 -7.23242,7.23243h-20.5c-3.66107,0 -6.66147,-2.69385 -7.1543,-6.21484c0.7952,3.03475 3.54108,5.26367 6.83204,5.26367h20.0332c3.9166,0 7.07032,-3.15372 7.07032,-7.07031v-20.03321c0,-3.2976 -2.23906,-6.0451 -5.28321,-6.83398c3.52994,0.48496 6.23438,3.49081 6.23438,7.15821z" fill-opacity="0.29839" fill="#000000" fill-rule="evenodd" stroke="none" stroke-width="4.54219" stroke-linecap="round" stroke-linejoin="round"/><path d="M309.5072,162.43783h20.03378c3.9166,0 7.06966,3.15307 7.06966,7.06966v20.03379c0,3.91659 -3.15307,7.06966 -7.06966,7.06966h-20.03378c-3.91659,0 -7.06967,-3.15307 -7.06967,-7.06966v-20.03379c0,-3.91659 3.15308,-7.06966 7.06967,-7.06966z" fill="#e8ff00" fill-rule="evenodd" stroke="none" stroke-width="4.43922" stroke-linecap="round" stroke-linejoin="round"/><path d="M335.52795,180c0,7.97879 -6.9521,14.44689 -15.52794,14.44689c-8.57585,0 -15.52794,-6.46809 -15.52794,-14.44689c0,-7.97879 6.9521,-14.44689 15.52794,-14.44689c8.57585,0 15.52794,6.46809 15.52794,14.44689z" fill="#242424" fill-rule="nonzero" stroke="#000000" stroke-width="1" stroke-linecap="butt" stroke-linejoin="miter"/><path d="M309.59815,181.32782c0,2.90732 -0.79852,-3.62473 -1.64649,-3.62473c-0.32326,0 -1.42427,5.42371 -1.42427,3.62473c0,-2.90732 0.68741,-5.26415 1.53538,-5.26415c0.84796,0 1.53538,2.35684 1.53538,5.26415z" fill="#000000" fill-rule="nonzero" stroke="#000000" stroke-width="1" stroke-linecap="butt" stroke-linejoin="miter"/><path d="M333.42949,180.92037c0,2.90732 -0.90964,-3.62473 -1.7576,-3.62473c-0.84796,0 -1.31316,6.53204 -1.31316,3.62473c0,-2.90732 0.68741,-5.26415 1.53538,-5.26415c0.84796,0 1.53538,2.35684 1.53538,5.26415z" fill="#000000" fill-rule="nonzero" stroke="#000000" stroke-width="1" stroke-linecap="butt" stroke-linejoin="miter"/><path d="M329.88308,186.92448c0,3.20214 -4.75668,7.16695 -10.227,7.16695c-0.09967,0 -3.6581,-0.34529 -6.08469,-1.80419c-2.31101,-1.38942 -3.49809,-3.85631 -3.49809,-5.36276c0,-2.27847 4.8615,-2.52244 7.57054,-2.4847c1.02492,0.01427 1.98333,0.63257 2.01223,0.63257c0.4336,0 1.66951,-0.81022 2.09492,-0.81772c4.94164,-0.08715 8.13208,-0.27847 8.13208,2.66985z" fill="#e8ff00" fill-rule="nonzero" stroke="#000000" stroke-width="1" stroke-linecap="butt" stroke-linejoin="miter"/></g></g></svg>