<svg version="1.1" xmlns="http://www.w3.org/2000/svg" xmlns:xlink="http://www.w3.org/1999/xlink" width="122.34172" height="256.89886" viewBox="0,0,122.34172,256.89886"><defs><linearGradient x1="286.15781" y1="150.97742" x2="286.15781" y2="308.71639" gradientUnits="userSpaceOnUse" id="color-1"><stop offset="0" stop-color="#004036"/><stop offset="1" stop-color="#003831"/></linearGradient><linearGradient x1="351.95753" y1="149.62536" x2="351.95753" y2="307.04571" gradientUnits="userSpaceOnUse" id="color-2"><stop offset="0" stop-color="#004036"/><stop offset="1" stop-color="#003831"/></linearGradient><linearGradient x1="319.9392" y1="146.09179" x2="319.9392" y2="309.60387" gradientUnits="userSpaceOnUse" id="color-3"><stop offset="0" stop-color="#004d41"/><stop offset="1" stop-color="#00453b"/></linearGradient><linearGradient x1="320.57559" y1="230.60893" x2="320.57559" y2="266.63766" gradientUnits="userSpaceOnUse" id="color-4"><stop offset="0" stop-color="#004036"/><stop offset="1" stop-color="#003831"/></linearGradient><linearGradient x1="318.34821" y1="138.95484" x2="318.34821" y2="163.30766" gradientUnits="userSpaceOnUse" id="color-5"><stop offset="0" stop-color="#003831"/><stop offset="1" stop-color="#004036"/></linearGradient><linearGradient x1="326.22734" y1="197.66695" x2="326.22734" y2="203.13329" gradientUnits="userSpaceOnUse" id="color-6"><stop offset="0" stop-color="#c3c3c3"/><stop offset="1" stop-color="#d9d9d9"/></linearGradient><linearGradient x1="327.40387" y1="166.93629" x2="327.40387" y2="198.47141" gradientUnits="userSpaceOnUse" id="color-7"><stop offset="0" stop-color="#acacac"/><stop offset="1" stop-color="#bfbfbf"/></linearGradient><linearGradient x1="311.76147" y1="197.93384" x2="311.76147" y2="204.65745" gradientUnits="userSpaceOnUse" id="color-8"><stop offset="0" stop-color="#c3c3c3"/><stop offset="1" stop-color="#d9d9d9"/></linearGradient><linearGradient x1="310.89513" y1="167.39707" x2="310.89513" y2="199.03328" gradientUnits="userSpaceOnUse" id="color-9"><stop offset="0" stop-color="#acacac"/><stop offset="1" stop-color="#bfbfbf"/></linearGradient><linearGradient x1="337.26317" y1="133.55528" x2="363.73562" y2="135.02428" gradientUnits="userSpaceOnUse" id="color-10"><stop offset="0" stop-color="#ced3ff"/><stop offset="1" stop-color="#d7deff"/></linearGradient><linearGradient x1="274.42522" y1="130.93735" x2="300.84811" y2="132.4036" gradientUnits="userSpaceOnUse" id="color-11"><stop offset="0" stop-color="#d7deff"/><stop offset="1" stop-color="#ced3ff"/></linearGradient><linearGradient x1="324.49454" y1="78.23197" x2="320.25611" y2="154.61211" gradientUnits="userSpaceOnUse" id="color-12"><stop offset="0" stop-color="#bfbfff"/><stop offset="1" stop-color="#d9e1ff"/></linearGradient><linearGradient x1="381.01278" y1="89.46469" x2="379.75225" y2="112.18063" gradientUnits="userSpaceOnUse" id="color-13"><stop offset="0" stop-color="#d7deff"/><stop offset="1" stop-color="#ced3ff"/></linearGradient><linearGradient x1="325.7518" y1="56.60806" x2="322.02751" y2="123.7229" gradientUnits="userSpaceOnUse" id="color-14"><stop offset="0" stop-color="#d7deff"/><stop offset="1" stop-color="#ced3ff"/></linearGradient></defs><g transform="translate(-271.66587,-53.98217)"><g stroke-miterlimit="10"><g stroke-linecap="butt"><path d="M274.68902,307.20718v-253.22501h91.18203v253.22501z" fill-opacity="0.01" fill="#000000" stroke="none" stroke-width="0"/><path d="M277.49041,304.98627c0,0 2.30995,-94.38387 2.15196,-118.01201c-0.05451,-8.15261 8.18688,-36.76129 40.20201,-36.9211c31.60235,-0.15775 39.85672,29.48704 39.84884,36.89673c-0.07659,46.24274 3.16786,117.98648 3.16786,117.98648z" fill="#ffffff" stroke="#000000" stroke-width="2"/><g stroke="none"><g><g stroke-width="0"><g><g><path d="M272.63735,308.71639c0,0 -1.12431,-5.46654 -0.95389,-13.00174c0.13279,-5.87166 1.48592,-13.16223 1.94733,-19.04278c0.48638,-6.19883 1.97115,-5.63814 2.44515,-11.75842c0.25115,-3.24283 -0.69215,-6.27918 -0.55822,-8.84907c0.24115,-4.62726 1.49652,-8.05198 1.91169,-10.64583c0.39663,-2.478 -2.46665,-8.43514 -2.45723,-8.84546c0.26279,-11.44479 -0.26455,-15.04561 -0.06908,-20.60715c0.32461,-9.23602 1.55112,-15.84863 1.55112,-15.84863c0,0 -0.45337,-4.15326 -0.25044,-9.01058c0.23309,-5.5793 1.55758,-9.23721 2.07071,-12.23049c2.80819,-16.3811 21.40382,-27.89884 21.40382,-27.89884c0,0 1.48376,2.6407 1.60057,8.32547c0.14774,7.19045 -1.03738,18.824 -0.71423,31.41194c0.16964,6.60792 0.76925,13.91903 0.88564,21.08724c0.05563,3.42663 -1.83219,7.23338 -1.74564,10.67335c0.20883,8.3002 2.27942,17.04153 2.45946,24.65041c0.12748,5.38737 -1.76529,11.17357 -1.58012,15.75178c0.23598,5.83443 4.86958,22.59972 4.98109,25.80687c0.30278,8.70833 -0.45119,18.62506 -0.45119,18.62506c0,0 -3.35596,3.21889 -16.78169,3.55139c-10.62098,0.26304 -15.69486,-2.14454 -15.69486,-2.14454z" fill="url(#color-1)"/><path d="M336.84542,305.65094c0,0 2.60125,-5.7372 2.50377,-11.39161c-0.05417,-3.14192 -0.50997,-8.55127 -0.7373,-15.63807c-0.18842,-5.87399 3.66594,-9.04843 3.41039,-16.64468c-0.21137,-6.28286 -1.81945,-6.50377 -2.20046,-13.53606c-0.49036,-9.05042 1.35791,-14.71384 0.8083,-24.43647c-0.11162,-1.9745 0.76525,-2.76523 0.63933,-4.7557c-0.34599,-5.46933 0.3281,-16.6809 -0.13562,-22.112c-0.27416,-3.21089 -3.2673,-10.79429 -3.58941,-13.76702c-0.238,-2.19646 0.33548,-3.48504 0.12585,-5.46077c-0.98466,-9.28032 -3.25557,-16.43499 -3.88682,-21.1778c-0.63538,-4.7738 0.37212,-7.10542 0.37212,-7.10542c0,0 22.52851,8.63413 26.22214,24.96527c0.66275,2.9303 1.55376,7.69727 1.9283,12.87814c0.3193,4.41687 0.12715,9.10737 0.57561,13.5126c0.78535,7.71452 3.21175,16.56706 3.88404,25.37337c0.69544,9.10952 -2.15776,18.57195 -1.74771,27.54698c0.2891,6.32771 0.08476,12.55742 0.52214,18.26737c1.53873,20.08807 3.92056,33.38224 3.92056,33.38224c0,0 -5.47789,2.60533 -14.85812,3.03411c-9.32198,0.42612 -17.75709,-2.93449 -17.75709,-2.93449z" fill="url(#color-2)"/><path d="M271.68347,295.71468c0.13279,-5.87166 1.48592,-13.16223 1.94733,-19.04278c0.48638,-6.19883 1.97115,-5.63814 2.44515,-11.75842c0.05157,-0.66584 0.05278,-1.32298 0.0233,-1.96916c0.30152,0.11717 0.59046,0.21712 0.84537,0.30309c3.77278,1.27242 6.11373,0.84918 9.84421,-0.47313c3.88616,-3.76562 2.72304,-9.28145 1.17314,-13.92007c-0.40062,-1.19899 -1.26325,-2.35335 -1.46197,-3.59489c-0.4105,-2.56466 1.23781,-5.36955 1.8485,-7.81229c1.2546,-3.75576 0.61271,-7.22112 1.15767,-11.03512c0.29064,-2.03408 1.2136,-3.94339 1.49495,-5.9635c0.421,-3.0227 -0.17038,-7.5832 -1.12528,-10.4479c0.0204,-4.09183 -1.09048,-8.67897 -0.37509,-12.80792c0.82335,-4.7521 1.13819,-9.92381 1.13819,-14.78884c0,-1.35806 0.39282,-2.87374 0.37436,-4.16441c-0.05433,-3.79857 -2.96233,-10.31788 -6.71098,-11.42134c-0.30947,-0.0911 -0.60679,-0.13458 -0.8942,-0.14016c6.44534,-9.61509 16.27021,-15.70041 16.27021,-15.70041c0,0 1.48376,2.6407 1.60057,8.32547c0.14774,7.19045 -1.03738,18.824 -0.71423,31.41194c0.16964,6.60792 0.76925,13.91903 0.88564,21.08724c0.05563,3.42663 -1.83219,7.23338 -1.74564,10.67335c0.20883,8.3002 2.27942,17.04153 2.45946,24.65041c0.12748,5.38737 -1.76529,11.17357 -1.58012,15.75178c0.23598,5.83443 4.86958,22.59972 4.98109,25.80687c0.30278,8.70833 -0.45119,18.62506 -0.45119,18.62506c0,0 -3.35596,3.21889 -16.78169,3.55139c-10.61403,0.26287 -15.68821,-2.14139 -15.69485,-2.14454c-0.00228,-0.01109 -1.12413,-5.47417 -0.95389,-13.00172z" fill-opacity="0.06275" fill="#000000"/><path d="M336.84543,305.65094c0,0 2.60125,-5.7372 2.50377,-11.39161c-0.05417,-3.14192 -0.50997,-8.55127 -0.7373,-15.63807c-0.18842,-5.87399 3.66594,-9.04843 3.41039,-16.64468c-0.21137,-6.28286 -1.81945,-6.50377 -2.20046,-13.53606c-0.49036,-9.05042 1.35791,-14.71384 0.8083,-24.43647c-0.11162,-1.9745 0.76525,-2.76523 0.63933,-4.7557c-0.34599,-5.46933 0.3281,-16.6809 -0.13562,-22.112c-0.27416,-3.21089 -3.2673,-10.79429 -3.58941,-13.76702c-0.238,-2.19646 0.33548,-3.48504 0.12585,-5.46077c-0.98466,-9.28032 -3.25557,-16.43499 -3.88682,-21.1778c-0.63538,-4.7738 0.37212,-7.10542 0.37212,-7.10542c0,0 17.81362,6.82713 24.35743,19.82249c-3.04402,-3.00841 -8.26249,-5.4989 -10.8617,-0.18006c-1.2864,2.63238 0.30798,6.31355 0.96196,8.92645c1.71638,8.58191 1.7474,17.0058 1.79379,25.76932c0.53951,2.15804 0.06186,4.45246 0.25458,6.68559c0.13297,1.54079 0.87502,2.92875 1.03875,4.43701c0.31046,2.85998 -0.2982,5.76904 -0.52142,8.58996c-0.23111,2.92067 0.3062,6.16006 0.78619,9.0415c0.37733,2.26337 1.29919,5.16949 1.02855,7.47338c-0.15774,1.34277 -0.89422,2.5361 -1.03729,3.90362c-0.48018,4.58999 -0.3513,9.34471 0.56659,13.87367c0.74559,1.50426 1.29109,2.45409 2.8642,3.17436c1.22208,0.55955 3.79099,1.76878 5.13334,1.63746c1.52063,-0.14876 2.54278,-1.18817 3.65168,-2.02016c0.34555,-0.25926 0.68212,-0.52363 1.00936,-0.79369c0.06041,4.21896 0.06188,8.33042 0.35851,12.20283c1.53873,20.08807 3.92056,33.38224 3.92056,33.38224c0,0 -5.47789,2.60533 -14.85812,3.03411c-9.32198,0.42612 -17.75709,-2.93449 -17.75709,-2.93449z" fill-opacity="0.06275" fill="#000000"/><path d="M271.68347,295.71468c0.13279,-5.87166 1.48592,-13.16223 1.94733,-19.04278c0.34518,-4.39931 1.19323,-5.39403 1.82595,-7.78855c6.79145,4.21004 17.8274,2.73317 17.8274,-7.01546c1.15738,-3.3232 0.83533,-7.35073 0.32616,-10.75742c-0.30108,-2.0144 -1.63762,-3.86594 -1.95695,-5.87084c-0.4334,-2.72112 0.66523,-6.41759 0.66523,-9.2984c-0.01317,-2.07892 1.04063,-3.72424 1.29714,-5.74866c0.33935,-2.67821 -0.29503,-5.47261 0,-8.15395c0.207,-1.88125 1.60894,-3.80761 1.63828,-5.66687c0.02541,-1.61026 -0.47876,-4.167 -0.99139,-5.70487c0.06298,-9.72951 0.01291,-19.23021 0.01291,-28.86787c0,-5.60411 -0.76883,-12.72249 -6.01895,-16.18007c-1.06587,-0.70195 -2.31415,-0.65581 -3.49604,-0.84598c6.37907,-8.50686 14.91777,-13.79554 14.91777,-13.79554c0,0 1.48376,2.6407 1.60057,8.32547c0.14774,7.19045 -1.03738,18.824 -0.71423,31.41194c0.16964,6.60792 0.76925,13.91903 0.88564,21.08724c0.05563,3.42663 -1.83219,7.23338 -1.74564,10.67335c0.20883,8.3002 2.27942,17.04153 2.45946,24.65041c0.12748,5.38737 -1.76529,11.17357 -1.58012,15.75178c0.23598,5.83443 4.86958,22.59972 4.98109,25.80687c0.30278,8.70833 -0.45119,18.62506 -0.45119,18.62506c0,0 -3.35596,3.21889 -16.78169,3.55139c-10.61403,0.26287 -15.68821,-2.14138 -15.69485,-2.14453c-0.00228,-0.01108 -1.12413,-5.47418 -0.95389,-13.00173z" fill-opacity="0.06275" fill="#000000"/><path d="M336.84543,305.65094c0,0 2.60125,-5.7372 2.50377,-11.39161c-0.05417,-3.14192 -0.50997,-8.55127 -0.7373,-15.63807c-0.18842,-5.87399 3.66594,-9.04843 3.41039,-16.64468c-0.21137,-6.28286 -1.81945,-6.50377 -2.20046,-13.53606c-0.49036,-9.05042 1.35791,-14.71384 0.8083,-24.43647c-0.11162,-1.9745 0.76525,-2.76523 0.63933,-4.7557c-0.34599,-5.46933 0.3281,-16.6809 -0.13562,-22.112c-0.27416,-3.21089 -3.2673,-10.79429 -3.58941,-13.76702c-0.238,-2.19646 0.33548,-3.48504 0.12585,-5.46077c-0.98466,-9.28032 -3.25557,-16.43499 -3.88682,-21.1778c-0.63538,-4.7738 0.37212,-7.10542 0.37212,-7.10542c0,0 12.39019,4.74858 20.29982,13.86353c-2.44147,-0.04324 -4.94695,-0.04133 -7.15084,1.10392c-4.18391,2.17417 -3.81524,9.82473 -2.83626,13.74066c0.0143,3.54286 1.3111,7.18881 1.29907,10.70316c-0.01906,5.56867 0.64514,11.14317 0.6633,16.7321c0.9247,2.77411 0.21907,6.22468 0.65232,9.13242c0.2577,1.72959 1.26671,3.33713 1.29246,5.09672c0.01547,1.05717 -0.83502,2.37237 -0.97172,3.42718c-0.33996,2.62328 -0.65296,5.46033 0,8.07216c0,1.98811 1.32995,3.92387 1.29788,5.78703c-0.04881,2.83514 -0.98819,5.80769 -1.29788,8.6457c-0.44929,4.11738 -0.33365,8.3501 -0.33365,12.51618c0.03095,5.0739 5.45123,10.40219 10.76095,10.45829c2.60174,0.02749 5.23044,-0.92394 7.44693,-2.45674c0.04554,1.95245 0.11992,3.86442 0.26216,5.72143c1.53873,20.08807 3.92056,33.38224 3.92056,33.38224c0,0 -5.47789,2.60533 -14.85812,3.03411c-9.32198,0.42612 -17.75709,-2.93449 -17.75709,-2.93449z" fill-opacity="0.06275" fill="#000000"/><path d="M271.68347,295.71468c0.13176,-5.82602 1.46496,-13.04897 1.93641,-18.90539c0.26384,0.25264 0.53854,0.49599 0.82709,0.72763c2.82645,2.26902 7.95496,1.31105 11.20476,2.1235c2.88489,0.01515 6.907,-0.53186 9.23628,-2.50227c3.25309,-2.75189 4.60574,-10.54126 3.28852,-14.306c0.01749,-2.70256 -0.67142,-5.4608 -0.32074,-8.19774c0.21406,-1.6707 0.70158,-3.68875 0.65981,-5.34071c-0.05525,-2.18496 -1.63179,-3.99343 -1.31212,-6.40097c0.36952,-2.78295 1.62537,-4.91348 1.62537,-7.784c-1.08565,-3.25695 0.14282,-7.05766 -0.32616,-10.43705c-0.83852,-6.04226 -0.31325,-12.65552 -0.31325,-18.75697c0,-7.58143 1.91737,-15.37234 0.97098,-22.95323c-0.33099,-2.65134 -1.31005,-5.18698 -1.31005,-7.86579c-1.84499,-5.72954 -4.231,-12.10601 -9.58351,-14.51946c5.61099,-6.02611 11.41147,-9.61879 11.41147,-9.61879c0,0 1.48376,2.6407 1.60057,8.32547c0.14774,7.19045 -1.03738,18.824 -0.71423,31.41194c0.16964,6.60792 0.76925,13.91903 0.88564,21.08724c0.05563,3.42663 -1.83219,7.23338 -1.74564,10.67335c0.20883,8.3002 2.27942,17.04153 2.45946,24.65041c0.12748,5.38737 -1.76529,11.17357 -1.58012,15.75178c0.23598,5.83443 4.86958,22.59972 4.98109,25.80687c0.30278,8.70833 -0.45119,18.62506 -0.45119,18.62506c0,0 -3.35596,3.21889 -16.78169,3.55139c-10.61403,0.26287 -15.68821,-2.14138 -15.69485,-2.14453c-0.00228,-0.01108 -1.12413,-5.47418 -0.95389,-13.00173z" fill-opacity="0.06275" fill="#000000"/><path d="M336.84543,305.65094c0,0 2.60125,-5.7372 2.50377,-11.39161c-0.05417,-3.14192 -0.50997,-8.55127 -0.7373,-15.63807c-0.18842,-5.87399 3.66594,-9.04843 3.41039,-16.64468c-0.21137,-6.28286 -1.81945,-6.50377 -2.20046,-13.53606c-0.49036,-9.05042 1.35791,-14.71384 0.8083,-24.43647c-0.11162,-1.9745 0.76525,-2.76523 0.63933,-4.7557c-0.34599,-5.46933 0.3281,-16.6809 -0.13562,-22.112c-0.27416,-3.21089 -3.2673,-10.79429 -3.58941,-13.76702c-0.238,-2.19646 0.33548,-3.48504 0.12585,-5.46077c-0.98466,-9.28032 -3.25557,-16.43499 -3.88682,-21.1778c-0.63538,-4.7738 0.37212,-7.10542 0.37212,-7.10542c0,0 8.63178,3.30816 16.08537,9.70223c-2.59906,1.26626 -5.48471,1.81512 -7.51043,4.22491c-3.05168,3.63026 -1.78226,8.28783 -3.14917,12.54165c-0.03885,4.40669 1.82642,8.081 2.27768,12.35021c0.33404,3.16016 1.34038,6.24411 1.6267,9.41888c0.26094,2.89327 0.17219,5.59934 0.65232,8.4801c0.01578,2.29514 0.63636,4.58182 0.33566,6.93281c-0.34956,2.73298 -1.31802,5.98841 -0.98389,8.76247c0.18203,1.51127 1.6233,2.97976 1.6233,4.44403c0,1.9038 -0.97361,4.05119 -0.97361,6.09846c-0.66658,3.33292 0.17176,6.7293 -0.31811,10.04925c-0.93679,6.34881 -1.26292,13.27684 1.67999,19.09813c0.56832,2.26015 -0.24539,4.7108 0.66632,6.88505c1.11097,2.64945 2.71023,2.46337 4.45682,4.23832c4.34972,4.42032 9.19555,5.85742 15.46236,5.8303c1.49775,16.39818 3.37377,26.86918 3.37377,26.86918c0,0 -5.47789,2.60533 -14.85812,3.03411c-9.32198,0.42612 -17.75709,-2.93449 -17.75709,-2.93449z" fill-opacity="0.06275" fill="#000000"/><path d="M271.68347,295.71468c0.06212,-2.74695 0.39134,-5.80444 0.77139,-8.88283c1.05558,0.57932 2.25618,0.94387 3.66751,1.0441c1.52173,0.10807 2.90381,-0.82583 4.31766,-1.08803c1.9376,-0.35932 3.78669,0.48701 5.63147,0.85892c8.03956,1.32062 13.35369,-4.438 17.05612,-10.85224c1.19965,5.3109 2.38182,10.28915 2.43747,11.88988c0.30278,8.70833 -0.45119,18.62506 -0.45119,18.62506c0,0 -3.35596,3.21889 -16.78169,3.55139c-10.61403,0.26287 -15.68821,-2.14138 -15.69485,-2.14453c-0.00228,-0.01108 -1.12413,-5.47418 -0.95389,-13.00173z" fill-opacity="0.06275" fill="#000000"/><path d="M336.84543,305.65094c0,0 2.60125,-5.7372 2.50377,-11.39161c-0.05417,-3.14192 -0.50997,-8.55127 -0.7373,-15.63807c-0.05071,-1.58102 0.19145,-2.96646 0.56752,-4.2952c2.78137,3.96807 6.42287,7.17869 11.24658,8.56441c3.80736,1.63723 7.87334,3.71468 12.13401,3.70109c1.466,-0.00468 2.85544,-0.43594 4.21152,-1.01325c1.32874,12.38008 2.68912,19.97301 2.68912,19.97301c0,0 -5.47789,2.60533 -14.85812,3.03411c-9.32198,0.42612 -17.75709,-2.93449 -17.75709,-2.93449z" fill-opacity="0.06275" fill="#000000"/><path d="M305.56509,288.68449c0.30278,8.70833 -0.45119,18.62506 -0.45119,18.62506c0,0 -3.35596,3.21889 -16.78169,3.55139c-10.61403,0.26287 -15.68821,-2.14138 -15.69485,-2.14453c-0.0009,-0.00436 -0.175,-0.85221 -0.37556,-2.3374c3.99409,-0.78628 7.90789,-2.0602 11.76647,-3.34761c7.9182,-3.24703 16.49387,-7.26688 21.53447,-14.40347c0.00094,0.0193 0.00173,0.03815 0.00237,0.05656z" fill-opacity="0.06275" fill="#000000"/><path d="M336.84543,305.65094c0,0 2.60125,-5.7372 2.50377,-11.39161c-0.03292,-1.90962 -0.21421,-4.65684 -0.40239,-8.1092c4.08946,4.00253 9.435,6.93976 14.11909,9.74801c4.63747,2.31963 10.24397,4.81899 15.64897,4.98778c0.4502,3.01553 0.74579,4.66539 0.74579,4.66539c0,0 -5.47789,2.60533 -14.85812,3.03411c-9.32198,0.42612 -17.75709,-2.93449 -17.75709,-2.93449z" fill-opacity="0.06275" fill="#000000"/></g><path d="M297.69444,256.34718c2.74669,-3.57209 3.87437,-9.02764 4.20793,-13.45936c0.13443,1.44361 0.22911,2.85941 0.26173,4.23803c0.08366,3.53538 -0.70269,7.24251 -1.20089,10.6673c-4.64313,4.33467 -7.65505,5.17847 -14.86627,6.30046c5.02327,-2.34764 8.18293,-3.30575 11.5975,-7.74642z" fill-opacity="0.06275" fill="#000000"/><path d="M274.97218,236.57312c0.04221,-1.83817 0.06403,-3.47399 0.07174,-4.94809c1.19644,3.22481 1.27498,6.54988 3.66039,9.07992c3.43225,3.64034 9.18298,5.88045 9.18298,5.88045c0,0 -3.39517,-0.52836 -6.26474,-1.62647c-2.05464,-0.78626 -3.60144,-2.18245 -4.53858,-2.42052c-0.70107,-2.63793 -2.11843,-5.67639 -2.1118,-5.96528z" fill-opacity="0.06275" fill="#000000"/><path d="M276.20379,191.10678c0.14406,-3.44823 0.70501,-6.16253 1.23364,-8.43962c0.30686,5.88996 -0.22661,11.02631 2.05975,15.19835c1.89228,3.45292 6.25697,6.07451 9.7884,9.44447c-4.46564,-1.06091 -7.60245,-1.61265 -10.5848,-5.10165c-0.84711,-0.99102 -1.68194,-1.77485 -2.32151,-2.9029c-0.11935,-1.44041 -0.3246,-4.62945 -0.17549,-8.19865z" fill-opacity="0.06275" fill="#000000"/><path d="M339.82183,248.44058c-0.0212,-0.39131 -0.03803,-0.7763 -0.05087,-1.15555c1.29825,4.04564 2.89461,8.40533 5.58036,11.81491c2.74261,3.48177 5.26539,6.69774 10.09061,8.51472c-6.01185,-0.68971 -9.21309,-4.07345 -13.61561,-8.22507c-0.49537,-3.93792 -1.68401,-5.03392 -2.00449,-10.94901z" fill-opacity="0.06275" fill="#000000"/></g><path d="M282.88184,193.14026l0.00167,-0.00041l0.01394,-0.02438l0.12198,-0.06099l0.87861,-0.75309l0.59044,-0.0738l0.03388,-0.01311l0.03617,0.00335l1.64068,-0.25241l1.77369,-0.12669l0.01886,-0.00618l0.01959,0.00313l3.02918,-0.26341l1.91928,-0.08723l-1.16491,0.45302l-1.56901,0.48277l-1.50518,0.34734l-2.26262,0.23817h-1.61001l-0.08838,0.0221l-0.08974,-0.01574l-1.78622,0.12758z" fill-opacity="0.06275" fill="#000000"/><path d="M279.75835,174.43279h0.09405l0.19678,0.0492l0.8453,0.24151l0.62763,0.20921l1.31176,0.59625l1.21213,0.60607l1.11289,0.66773l1.76968,1.41575l1.46289,1.46289l0.27999,0.3111l-1.50116,-0.50038l-2.35367,-0.91532l-0.00475,-0.0006l-0.00392,-0.00275l-1.62858,-0.62638l-1.94923,-0.97461l-1.22888,-0.73732l-0.95317,-0.60657c0.1245,-0.40857 0.25812,-0.81354 0.40026,-1.2148c0.10157,0.01256 0.20503,0.01903 0.31,0.01903z" fill-opacity="0.06275" fill="#000000"/><path d="M288.73926,216.3225c5.38322,-1.87071 8.72062,-4.65906 12.61521,-8.15729c0.04277,1.21365 0.07617,2.42729 0.09581,3.63686c0.00693,0.42701 -0.01631,0.8599 -0.06216,1.29727c-2.09071,5.84174 -13.14748,7.5711 -18.27647,5.4466c-0.33657,-0.13942 -0.61063,-0.37742 -0.84791,-0.67184c2.64256,-0.27503 5.96029,-1.37255 6.47552,-1.55159z" fill-opacity="0.06275" fill="#000000"/></g><path d="M354.33644,224.12102c2.04588,-1.28491 4.17282,-1.94081 6.459,-2.25148c0.73626,-0.10005 3.18101,0.3991 3.18101,0.3991c0,0 -1.35702,1.56572 -2.08219,2.17457c-2.0282,1.70285 -4.50541,2.60124 -7.17928,2.27585c-1.80959,-0.51635 -2.81521,-0.99184 -2.81521,-0.99184c0,0 2.14407,-1.69499 2.43667,-1.60619z" fill-opacity="0.06275" fill="#000000" stroke-width="0.5"/><path d="M360.64716,212.29751c0.60125,-0.22306 2.74513,-0.21865 2.74513,-0.21865c0,0 -1.26941,2.14197 -2.28375,2.97527c-2.17973,1.79067 -7.52046,3.00426 -7.52046,3.00426c0,0 0.0665,-1.63528 2.15376,-2.85257z" fill-opacity="0.06275" fill="#000000" stroke-width="0.5"/><path d="M352.10495,178.27994c2.24861,1.17556 4.07325,3.44356 5.1609,5.58205c0.53927,1.06029 1.1954,3.00923 1.1954,3.00923c0,0 -2.13636,-0.38188 -2.79226,-0.61442c-3.94721,-1.39944 -6.2873,-8.75001 -6.2873,-8.75001l1.98274,0.16282c0,0 0.65372,0 0.74052,0.61032z" fill-opacity="0.06275" fill="#000000" stroke-width="0.5"/></g><g stroke-width="0"><path d="M295.10128,305.14932c0,0 -1.29652,-1.38748 -1.73139,-3.92716c-0.49754,-2.90568 -0.17618,-7.29151 -0.79904,-12.351c-0.29681,-2.41098 -1.17617,-4.74048 -1.3188,-7.47533c-0.23161,-4.44105 0.57559,-9.19051 0.94365,-14.13338c0.40007,-5.37269 0.36381,-10.99041 0.06979,-17.12081c-0.20326,-4.238 -1.47261,-8.53614 -1.61459,-12.82094c-0.11103,-3.35078 2.32024,-6.33341 2.20338,-9.64073c-0.24532,-6.94279 -1.6412,-13.714 -1.80316,-19.99527c-0.10512,-4.07709 1.25051,-7.31829 1.16025,-10.91069c-0.20015,-7.96599 -0.70555,-13.57347 -0.75578,-17.90702c-0.1233,-10.63646 1.91842,-22.72245 1.91842,-22.72245c0,0 10.90027,-10.89942 25.37142,-10c2.90653,0.18065 5.43387,1.06458 7.7891,1.51571c15.35079,2.94035 19.61938,10.12065 19.61938,10.12065c0,0 1.3691,-0.44314 1.59921,11.36196c0.05785,2.96754 -1.74473,13.52221 -1.56875,17.08912c0.20501,4.15526 2.82444,11.53295 2.91917,16.0096c0.14064,6.64603 -1.79851,11.75242 -1.6405,18.81861c0.09557,4.27392 0.55064,5.53005 0.63514,9.89419c0.04397,2.27055 0.62948,4.27402 0.665,6.54809c0.04179,2.67557 -2.00405,11.6827 -1.95545,14.27752c0.05584,2.9814 1.02062,5.71769 1.07584,8.54747c0.10905,5.58864 1.28755,10.83281 1.34599,15.53972c0.05598,4.50908 -1.3507,9.87125 -1.31349,13.18581c0.03615,3.2211 0.69238,6.42638 0.69238,8.18271c0,5.2945 -2.45455,7.91363 -2.45455,7.91363c0,0 -17.73873,4.45455 -26.31757,4.45455c-8.43631,0 -24.73506,-4.45455 -24.73506,-4.45455z" fill="url(#color-3)"/><path d="M294.14482,266.54866c0,0 1.36221,-5.78598 2.08647,-11.85753c0.58291,-4.88666 0.49287,-9.95829 0.93054,-12.34721c0.50507,-2.75681 2.46348,-5.70912 2.46348,-5.70912c0,0 4.85564,-5.97784 8.52184,-6.46042c2.78185,-0.36617 7.19959,0.34473 11.76654,0.48788c8.476,0.26567 17.46599,0.33511 17.46599,0.33511c0,0 1.30264,-0.03865 1.86981,1.06699c1.62613,3.16997 3.96226,10.54946 4.94916,14.65198c0.4667,1.94008 -0.3759,4.17102 0.0382,7.02349c0.72988,5.02775 2.59153,10.67316 2.59153,10.67316c0,0 -11.19692,6.14784 -24.62111,6.11846c-13.92855,-0.03049 -28.06244,-3.98279 -28.06244,-3.98279z" fill="url(#color-4)"/><path d="M294.14482,266.54866c0,0 1.36221,-5.78598 2.08647,-11.85753c0.58292,-4.88665 0.49286,-9.95829 0.93054,-12.34721c0.50507,-2.75681 2.46348,-5.70912 2.46348,-5.70912c0,0 4.85564,-5.97784 8.52184,-6.46042c2.78186,-0.36617 7.19959,0.34473 11.76654,0.48788c8.476,0.26567 17.46599,0.33511 17.46599,0.33511c0,0 1.30264,-0.03865 1.86981,1.06699c1.62613,3.16997 3.96227,10.54946 4.94916,14.65198c0.4667,1.94008 -0.3759,4.17102 0.0382,7.02349c0.72988,5.02775 2.59153,10.67316 2.59153,10.67316c0,0 -11.19692,6.14784 -24.62111,6.11846c-13.92855,-0.03049 -28.06244,-3.98279 -28.06244,-3.98279zM329.56836,233.2862c-2.19665,-0.07069 -9.90049,0.01816 -15.0264,-0.17378c-3.2977,-0.12348 -6.66362,-0.83459 -9.6356,1.02404c-1.2085,0.75416 -1.57124,0.92464 -0.37685,3.03112c0.69025,1.21735 4.64206,1.90253 5.94345,2.2924c5.60017,1.67768 9.40044,2.13366 15.45214,1.66528c4.21578,-0.60033 10.72272,-0.50914 13.18522,-4.33381c1.72304,-2.67617 -7.2884,-3.43272 -9.54197,-3.50524z" fill-opacity="0.06275" fill="#000000"/><path d="M294.14482,266.54866c0,0 1.36221,-5.78598 2.08647,-11.85753c0.58292,-4.88665 0.49286,-9.95829 0.93054,-12.34721c0.20615,-1.1252 0.6544,-2.28297 1.11279,-3.25928c0.81404,0.84332 1.63048,1.68433 2.45921,2.51235c4.09661,3.51445 8.84073,6.87228 14.40911,7.41954c3.12178,0.30681 6.31327,0.19172 9.44663,0.41156c6.0639,-0.34795 14.77901,-2.36482 18.04643,-8.28825c0.63753,2.05589 1.19415,4.04464 1.56265,5.57651c0.4667,1.94008 -0.3759,4.17102 0.0382,7.02349c0.72988,5.02775 2.59153,10.67316 2.59153,10.67316c0,0 -11.19692,6.14784 -24.62111,6.11846c-13.92855,-0.03049 -28.06244,-3.98279 -28.06244,-3.98279z" fill-opacity="0.06275" fill="#000000"/><path d="M294.14482,266.54866c0,0 1.36221,-5.78598 2.08647,-11.85753c0.11428,-0.95804 0.2027,-1.92319 0.27429,-2.87384c7.81131,5.45816 15.95765,7.53057 25.73133,7.53458c8.65015,-0.00354 14.85687,-0.87029 21.94772,-6.02775c0.01458,0.1371 0.03188,0.27566 0.05221,0.41572c0.72988,5.02775 2.59153,10.67316 2.59153,10.67316c0,0 -11.19692,6.14784 -24.62111,6.11846c-13.92855,-0.03049 -28.06244,-3.98279 -28.06244,-3.98279z" fill-opacity="0.06275" fill="#000000"/><path d="M295.10128,305.14932c0,0 -1.29652,-1.38748 -1.73139,-3.92716c-0.49754,-2.90568 -0.17618,-7.29151 -0.79904,-12.351c-0.29681,-2.41098 -1.17617,-4.74048 -1.3188,-7.47533c-0.23161,-4.44105 0.57559,-9.19051 0.94365,-14.13338c0.40007,-5.37269 0.36381,-10.99041 0.06979,-17.12081c-0.20326,-4.238 -1.47261,-8.53614 -1.61459,-12.82094c-0.11103,-3.35078 2.32024,-6.33341 2.20338,-9.64073c-0.24532,-6.94279 -1.6412,-13.714 -1.80316,-19.99527c-0.01894,-0.73445 0.00953,-1.44178 0.06841,-2.12892c1.20248,7.89942 3.33211,15.39019 10.02074,20.58523c4.31671,1.2867 7.41552,-1.12202 11.45719,-2.28905c4.34625,-1.25497 9.27005,-1.24007 13.75702,-1.24007c4.21341,-0.01422 6.53506,2.43466 10.29596,3.42368c2.65128,0.69722 6.60532,-0.12655 8.05695,-2.67162c1.07523,-1.88513 1.40553,-4.3965 1.92483,-6.48315c0.74794,-5.93202 0.85791,-11.65421 1.28778,-17.57563c0.12483,-1.71956 -0.08816,-3.42718 -0.22288,-5.139c0.68821,2.9072 1.35931,5.84981 1.40641,8.07539c0.14064,6.64603 -1.79851,11.75242 -1.6405,18.81861c0.09557,4.27392 0.55064,5.53005 0.63514,9.89419c0.04397,2.27055 0.62948,4.27402 0.665,6.54809c0.04179,2.67557 -2.00405,11.6827 -1.95545,14.27752c0.05584,2.9814 1.02062,5.71769 1.07584,8.54747c0.10905,5.58864 1.28755,10.83281 1.34599,15.53972c0.05598,4.50908 -1.3507,9.87125 -1.31349,13.18581c0.03615,3.2211 0.69238,6.42638 0.69238,8.18271c0,5.2945 -2.45455,7.91363 -2.45455,7.91363c0,0 -17.73873,4.45455 -26.31757,4.45455c-8.43631,0 -24.73506,-4.45455 -24.73506,-4.45455z" fill-opacity="0.06275" fill="#000000"/><path d="M291.45559,178.86699c-0.1233,-10.63646 1.91842,-22.72245 1.91842,-22.72245c0,0 10.90027,-10.89942 25.37142,-10c2.90653,0.18065 5.43387,1.06458 7.7891,1.51571c15.35079,2.94035 19.61938,10.12065 19.61938,10.12065c0,0 1.3691,-0.44314 1.59921,11.36196c0.03413,1.75062 -0.57919,6.14163 -1.05182,10.18082c-6.97423,-1.04757 -13.13047,6.29375 -18.88291,9.16826c-3.87579,1.5478 -9.65923,4.02211 -13.9087,2.38153c-2.7677,-1.06852 -4.74931,-3.5174 -7.08894,-5.19661c-4.25781,-3.55073 -9.83557,-5.60869 -15.33029,-5.24209c-0.017,-0.54102 -0.02902,-1.06304 -0.03487,-1.56779z" fill-opacity="0.06275" fill="#000000"/><path d="M295.10128,305.14932c0,0 -1.29652,-1.38748 -1.73139,-3.92716c-0.49754,-2.90568 -0.17618,-7.29151 -0.79904,-12.351c-0.29681,-2.41098 -1.17617,-4.74048 -1.3188,-7.47533c-0.23161,-4.44105 0.57559,-9.19051 0.94365,-14.13338c0.40007,-5.37269 0.36381,-10.99041 0.06979,-17.12081c-0.20326,-4.238 -1.47261,-8.53614 -1.61459,-12.82094c-0.11103,-3.35078 2.32024,-6.33341 2.20338,-9.64073c-0.03244,-0.91809 -0.085,-1.83317 -0.15216,-2.74452c1.6697,3.81622 4.73677,8.8877 9.04485,8.31895c1.83978,-0.24289 2.65132,-1.80321 3.8096,-2.9615c1.46495,-1.46495 3.1985,-2.35039 5.19035,-2.84247c4.78158,-1.36548 10.71026,-2.49286 15.70277,-1.94551c2.62295,0.28756 4.65583,1.68559 6.98364,2.57443c1.65979,1.11924 2.84983,2.88818 4.71966,3.69674c4.91743,2.12641 8.1508,-0.57421 9.76326,-4.38814c0.08391,0.99382 0.15367,2.10614 0.18195,3.56644c0.04397,2.27055 0.62948,4.27402 0.665,6.54809c0.04179,2.67557 -2.00405,11.6827 -1.95545,14.27752c0.05584,2.9814 1.02062,5.71769 1.07584,8.54747c0.10905,5.58864 1.28755,10.83281 1.34599,15.53972c0.05598,4.50908 -1.3507,9.87125 -1.31349,13.18581c0.03615,3.2211 0.69238,6.42638 0.69238,8.18271c0,5.2945 -2.45455,7.91363 -2.45455,7.91363c0,0 -17.73873,4.45455 -26.31757,4.45455c-8.43631,0 -24.73506,-4.45455 -24.73506,-4.45455z" fill-opacity="0.06275" fill="#000000"/><path d="M293.37401,156.14452c0,0 10.90027,-10.89942 25.37142,-10c2.90653,0.18065 5.43387,1.06458 7.7891,1.51571c15.35079,2.94035 19.61938,10.12065 19.61938,10.12065c0,0 1.3691,-0.44314 1.59921,11.36196c0.02263,1.16067 -0.23935,3.48199 -0.55623,6.09191c-6.08655,-1.69216 -10.62583,2.35052 -16.1249,5.09124c-4.7566,2.03621 -10.09495,5.03647 -15.2248,2.68041c-2.08092,-0.95573 -3.98191,-3.07937 -5.73459,-4.53833c-4.91783,-3.5094 -12.41902,-5.99654 -18.59317,-4.11278c0.34412,-9.26957 1.85458,-18.21076 1.85458,-18.21076z" fill-opacity="0.06275" fill="#000000"/><path d="M295.10128,305.14932c0,0 -1.29652,-1.38748 -1.73139,-3.92716c-0.49754,-2.90568 -0.17618,-7.29151 -0.79904,-12.351c-0.29681,-2.41098 -1.17617,-4.74048 -1.3188,-7.47533c-0.23161,-4.44105 0.57559,-9.19051 0.94365,-14.13338c0.39641,-5.32355 0.36444,-10.88766 0.07779,-16.95272c0.61336,0.57894 1.2986,1.09511 2.01128,1.56315c0.43845,0.402 0.92397,0.71486 1.45159,0.87784c0.15234,0.08568 0.30459,0.16969 0.45632,0.25215c1.41069,0.76668 2.41349,2.01942 3.94123,2.60373c2.94523,1.12645 6.8471,0.5079 9.89876,0.06551c4.32227,-0.02664 8.59214,-2.00319 12.93543,-2.36723c4.18051,-0.3504 8.58615,0.64047 12.52513,1.95438c4.5039,1.48884 8.19894,1.35663 11.62557,-0.44636c0.30535,1.8611 0.72872,3.66792 0.76475,5.51455c0.10905,5.58864 1.28755,10.83281 1.34599,15.53972c0.05598,4.50908 -1.3507,9.87125 -1.31349,13.18581c0.03615,3.2211 0.69238,6.42638 0.69238,8.18271c0,5.2945 -2.45455,7.91363 -2.45455,7.91363c0,0 -17.73873,4.45455 -26.31757,4.45455c-8.43631,0 -24.73506,-4.45455 -24.73506,-4.45455z" fill-opacity="0.06275" fill="#000000"/><path d="M293.37401,156.14452c0,0 10.90027,-10.89942 25.37142,-10c2.90653,0.18065 5.43387,1.06458 7.7891,1.51571c15.35079,2.94035 19.61938,10.12065 19.61938,10.12065c0,0 1.3691,-0.44314 1.59921,11.36196c0.00349,0.17917 0.0002,0.38599 -0.00902,0.61727c-5.88855,-2.21528 -12.0044,2.40244 -17.59552,5.18377c-2.52814,1.68543 -7.56214,4.69709 -10.77164,3.92529c-3.3985,-0.81724 -6.26701,-4.34764 -9.34374,-5.89693c-5.73289,-2.85558 -11.47087,-6.31405 -17.99902,-6.24486c0.56609,-6.00265 1.33983,-10.58286 1.33983,-10.58286z" fill-opacity="0.06275" fill="#000000"/><path d="M293.37401,156.14452c0,0 10.90027,-10.89942 25.37142,-10c2.90653,0.18065 5.43387,1.06458 7.7891,1.51571c15.35079,2.94035 19.61938,10.12065 19.61938,10.12065c0,0 1.3691,-0.44314 1.59921,11.36196c0.02188,1.12252 -0.41606,5.65418 -0.7188,8.15906c-6.75986,-2.55796 -11.63988,2.48543 -16.77861,6.15594c-4.49015,3.00298 -11.78492,4.42656 -16.91847,1.96423c-2.14893,-1.03075 -4.80267,-3.55601 -6.74734,-4.85485c-5.02173,-2.24894 -9.63905,-3.48462 -15.18894,-3.64534c0.19865,-9.86 1.97305,-20.77735 1.97305,-20.77735z" fill-opacity="0.06275" fill="#000000"/><path d="M293.37401,156.14452c0,0 10.90027,-10.89942 25.37142,-10c2.90653,0.18065 5.43387,1.06458 7.7891,1.51571c15.35079,2.94035 19.61938,10.12065 19.61938,10.12065c0,0 1.3691,-0.44314 1.59921,11.36196c0.01526,0.78249 -0.09884,2.09251 -0.27191,3.66283c-4.43067,-0.29958 -5.32485,-1.61035 -9.0545,0.02084c-1.76904,0.7737 -7.90165,4.14308 -9.23496,5.47891c-3.00832,2.52281 -9.5732,4.19402 -13.08175,2.02092c-2.15341,-1.33376 -4.55338,-3.22625 -6.48963,-4.83777c-4.68871,-3.35322 -11.76441,-7.00454 -17.86352,-5.51529c0.57664,-7.42674 1.61716,-13.82876 1.61716,-13.82876z" fill-opacity="0.06275" fill="#000000"/><path d="M295.10128,305.14932c0,0 -1.29652,-1.38748 -1.73139,-3.92716c-0.49754,-2.90568 -0.17618,-7.29151 -0.79904,-12.351c-0.29681,-2.41098 -1.17617,-4.74048 -1.3188,-7.47533c-0.23161,-4.44105 0.57559,-9.19051 0.94365,-14.13338c0.10804,-1.4509 0.18426,-2.91967 0.23217,-4.41158c2.09618,1.25438 4.26846,2.35541 6.448,3.21974c6.23679,1.1533 12.77423,1.14165 19.08764,0.74191c3.17293,-0.2009 6.25783,-0.98495 9.44497,-0.98679c3.71225,-0.45832 7.73199,-0.5465 11.48738,-0.562c2.11666,-0.00873 3.31857,0.40461 5.42609,-0.34189c1.34573,-0.47667 2.61359,-0.7107 3.74304,-1.22151c0.36151,4.33131 1.11802,8.41935 1.16455,12.16683c0.05598,4.50908 -1.3507,9.87125 -1.31349,13.18581c0.03615,3.2211 0.69238,6.42638 0.69238,8.18271c0,5.2945 -2.45455,7.91363 -2.45455,7.91363c0,0 -17.73873,4.45455 -26.31757,4.45455c-8.43631,0 -24.73506,-4.45455 -24.73506,-4.45455z" fill-opacity="0.06275" fill="#000000"/><path d="M295.10128,305.14932c0,0 -1.29652,-1.38748 -1.73139,-3.92716c-0.49754,-2.90568 -0.17618,-7.29151 -0.79904,-12.351c-0.29681,-2.41098 -1.17617,-4.74048 -1.3188,-7.47533c-0.14709,-2.82034 0.12478,-5.76505 0.43707,-8.8047c3.42209,2.23069 8.14224,3.81395 11.30687,4.08583c8.68531,1.06234 17.35444,1.14171 26.09729,1.1316c6.54537,-0.72726 14.34019,-1.10131 19.97081,-4.98432c0.09118,1.03693 0.15315,2.05183 0.16545,3.04292c0.05598,4.50908 -1.3507,9.87125 -1.31349,13.18581c0.03615,3.2211 0.69238,6.42638 0.69238,8.18271c0,5.2945 -2.45455,7.91363 -2.45455,7.91363c0,0 -17.73873,4.45455 -26.31757,4.45455c-8.43631,0 -24.73506,-4.45455 -24.73506,-4.45455z" fill-opacity="0.06275" fill="#000000"/></g><g stroke-width="0"><path d="M348.80059,153.02414c0,0 6.18323,6.83811 0.80736,9.40064c-1.01524,0.48394 -2.54075,1.51686 -4.35356,2.28249c-3.3955,1.43406 -7.79894,2.92991 -11.74501,5.15773c-5.17535,2.92183 -9.18892,6.79235 -13.2683,6.79235c-4.67788,0 -10.88773,-5.43299 -14.70638,-7.85404c-4.26232,-2.70235 -13.83726,-5.31592 -18.03776,-7.9099c-1.93654,-1.19589 -0.78203,-3.71884 -0.55607,-4.32907c0.97718,-2.63898 3.1467,-3.34096 3.1467,-3.34096c0,0 -3.06842,-2.69085 -1.90848,-5.59027c0.63533,-1.58809 4.21286,-3.16901 6.36386,-4.56687c4.72877,-3.07306 16.08494,-4.1114 23.80527,-4.1114c6.41892,0 14.01698,0.86792 20.31396,2.81679c4.63178,1.43349 8.55962,3.68043 10.79651,5.43288c3.08107,2.41381 -0.65809,5.81962 -0.65809,5.81962z" fill="url(#color-5)"/><path d="M342.83738,150.21497c0,1.34472 -5.07241,3.15272 -11.34945,5.84177c-3.56221,1.52603 -7.0602,3.38475 -11.36482,3.38475c-4.57152,0 -9.44692,-2.87094 -12.98689,-4.97404c-5.66699,-3.36677 -10.32024,-4.73367 -10.32024,-6.03107c0,-2.10784 10.60206,-6.55861 22.49194,-6.55861c11.88988,0 23.52946,6.22937 23.52946,8.33721z" fill-opacity="0.12549" fill="#000000"/><path d="M348.80059,153.02414c0,0 6.18323,6.83811 0.80736,9.40064c-1.01524,0.48394 -2.54075,1.51686 -4.35356,2.28249c-3.3955,1.43406 -7.79894,2.92991 -11.74501,5.15773c-5.17535,2.92183 -9.18892,6.79235 -13.2683,6.79235c-4.67788,0 -10.88773,-5.43299 -14.70638,-7.85404c-4.26232,-2.70235 -13.83726,-5.31592 -18.03776,-7.9099c-1.93654,-1.19589 -0.78203,-3.71884 -0.55607,-4.32907c0.97718,-2.63898 3.1467,-3.34096 3.1467,-3.34096c0,0 -3.06842,-2.69085 -1.90848,-5.59027c0.63533,-1.58809 4.21286,-3.16901 6.36386,-4.56687c1.40807,-0.91506 3.40376,-1.6497 5.7161,-2.23025c-3.92429,1.86613 -7.1719,5.02739 -7.13258,9.08561c1.26521,2.89606 4.87474,4.70067 7.61748,6.25516c-2.03345,-0.21141 -5.91497,-1.76271 -6.78252,0.0885c-0.64395,1.37408 2.44028,3.9171 3.93561,4.32492c1.4223,0.3879 2.82046,0.8818 4.22016,1.34747c2.77244,0.6941 5.63597,1.10884 8.19781,2.44919c5.0472,2.64069 8.06997,6.14605 13.71911,2.20705c2.02815,-1.21723 4.06475,-2.49544 6.33867,-3.22101c4.56445,-1.45644 11.92283,-2.60654 15.17418,-6.45138c-0.55483,-1.7168 -6.40101,-0.19255 -7.57091,-0.4098c1.87883,-0.81799 7.33588,-4.55975 8.02833,-6.28688c1.34301,-3.34977 -2.90848,-5.89504 -5.39389,-7.39937c-0.4504,-0.29947 -0.91469,-0.59223 -1.3906,-0.87622c4.38859,1.4366 8.09225,3.57362 10.23879,5.25529c3.08107,2.41381 -0.65809,5.81962 -0.65809,5.81962z" fill-opacity="0.06275" fill="#000000"/><path d="M348.80059,153.02414c0,0 6.18323,6.83811 0.80736,9.40064c-1.01524,0.48394 -2.54075,1.51686 -4.35356,2.28249c-3.3955,1.43406 -7.79894,2.92991 -11.74501,5.15773c-5.17535,2.92183 -9.18892,6.79235 -13.2683,6.79235c-4.67788,0 -10.88773,-5.43299 -14.70638,-7.85404c-4.26232,-2.70235 -13.83726,-5.31592 -18.03776,-7.9099c-1.93654,-1.19589 -0.78203,-3.71884 -0.55607,-4.32907c0.97718,-2.63898 3.1467,-3.34096 3.1467,-3.34096c0,0 -3.06842,-2.69085 -1.90848,-5.59027c0.3708,-0.92687 1.74381,-1.85129 3.25049,-2.7383c-0.23743,0.75324 -0.30028,1.58994 -0.13629,2.49059c0.63114,3.46631 3.21779,5.78969 6.06079,7.40601c-2.02294,-0.43149 -4.29991,-0.98158 -6.10799,-0.10616c-1.97745,0.95742 -1.85282,2.57008 -0.54238,4.04207c0.54247,0.60935 1.19891,1.03979 1.8784,1.47065c1.36138,0.86324 2.74323,1.67619 4.09025,2.56486c2.2952,0.92663 4.94712,0.73783 7.15826,1.70837c0.97265,0.42693 1.46619,1.80305 2.49021,2.08184c0.62639,0.17054 1.35696,0.16915 1.94465,-0.10665c0.46351,-0.21753 0.50528,-1.11041 1.01557,-1.15241c2.42738,-0.19979 4.81159,2.16072 6.07137,3.96099c2.11541,1.19161 5.54272,1.85846 7.66794,0.12911c0.60158,-0.48952 0.81729,-1.32076 1.28188,-1.9418c0.88759,-1.18646 3.05718,-1.8085 4.41064,-2.16442c1.08485,-0.28528 2.12626,0.71938 3.20738,1.01847c1.53355,0.42425 3.47108,-0.63105 4.84387,-1.18485c2.45577,-1.46436 4.84383,-2.74939 7.39036,-4.02247c0.97455,-0.4872 2.74307,-1.16536 3.11142,-2.33075c0.40735,-1.2888 -0.25149,-2.37433 -1.31778,-3.00295c-0.71602,-0.42212 -1.94217,-0.63847 -3.29105,-0.69721c3.34049,-1.89622 5.71885,-5.5552 4.98189,-9.13817c0.68953,0.44394 1.30022,0.8776 1.81971,1.28459c3.08107,2.41381 -0.65809,5.81962 -0.65809,5.81962z" fill-opacity="0.06275" fill="#000000"/><path d="M348.80059,153.02414c0,0 6.18323,6.83811 0.80736,9.40064c-1.01524,0.48394 -2.54075,1.51686 -4.35356,2.28249c-3.3955,1.43406 -7.79894,2.92991 -11.74501,5.15773c-5.17535,2.92183 -9.18892,6.79235 -13.2683,6.79235c-4.67788,0 -10.88773,-5.43299 -14.70638,-7.85404c-4.26232,-2.70235 -13.83726,-5.31592 -18.03776,-7.9099c-1.93654,-1.19589 -0.78203,-3.71884 -0.55607,-4.32907c0.97718,-2.63898 3.1467,-3.34096 3.1467,-3.34096c0,0 -3.06842,-2.69085 -1.90848,-5.59027c0.3708,-0.92686 1.74381,-1.85129 3.25049,-2.7383c-0.23742,0.75324 -0.30028,1.58995 -0.13629,2.49059c0.63114,3.46632 3.2178,5.78968 6.06079,7.406c-2.02294,-0.4315 -4.29991,-0.98158 -6.10799,-0.10617c-1.97744,0.95741 -1.85282,2.57008 -0.54237,4.04208c0.54248,0.60935 1.19891,1.03979 1.8784,1.47065c1.36138,0.86324 2.74323,1.67619 4.09026,2.56486c2.29521,0.92663 4.94712,0.73783 7.15826,1.70837c0.97265,0.42693 1.46619,1.80305 2.49021,2.08184c0.62639,0.17054 1.35696,0.16915 1.94465,-0.10665c0.46351,-0.21752 0.50527,-1.11041 1.01556,-1.15241c2.42737,-0.19979 4.81159,2.16072 6.07137,3.96099c2.11541,1.19162 5.54272,1.85846 7.66794,0.12911c0.60158,-0.48952 0.81729,-1.32076 1.28188,-1.9418c0.88759,-1.18646 3.05718,-1.80849 4.41064,-2.16441c1.08485,-0.28528 2.12626,0.71938 3.20739,1.01847c1.53355,0.42425 3.47108,-0.63105 4.84387,-1.18485c2.45577,-1.46436 4.84383,-2.74939 7.39036,-4.02247c0.97455,-0.4872 2.74307,-1.16537 3.11142,-2.33075c0.40735,-1.2888 -0.25149,-2.37432 -1.31778,-3.00295c-0.71602,-0.42212 -1.94217,-0.63847 -3.29105,-0.6972c3.34049,-1.89622 5.71885,-5.5552 4.98189,-9.13817c0.68953,0.44395 1.30022,0.8776 1.81971,1.28459c3.08107,2.41381 -0.65809,5.81962 -0.65809,5.81962z" fill-opacity="0.06275" fill="#000000"/><path d="M348.80059,153.02414c0,0 6.18323,6.83811 0.80736,9.40064c-1.01524,0.48394 -2.54075,1.51686 -4.35356,2.28249c-3.3955,1.43406 -7.79894,2.92991 -11.74501,5.15773c-5.17535,2.92183 -9.18892,6.79235 -13.2683,6.79235c-4.67788,0 -10.88773,-5.43299 -14.70638,-7.85404c-4.26232,-2.70235 -13.83726,-5.31592 -18.03776,-7.9099c-1.93654,-1.19589 -0.78203,-3.71884 -0.55607,-4.32907c0.97718,-2.63898 3.1467,-3.34096 3.1467,-3.34096c0,0 -3.06842,-2.69085 -1.90848,-5.59027c0.12804,-0.32006 0.37558,-0.63982 0.70687,-0.95785c-0.02018,2.69473 3.40912,5.0436 6.33481,6.70621c0.01571,0.01219 0.03145,0.02435 0.04722,0.03647c-2.29611,0.01722 -6.1222,0.20679 -7.2926,2.28286c-2.01267,3.5701 5.85199,7.12326 8.28282,8.13456c1.89619,0.51855 4.50855,0.29964 6.19276,1.34326c1.17768,0.72975 1.93907,2.79456 3.39523,3.08435c0.66424,0.13219 1.43514,0.0758 2.01269,-0.27792c0.59304,-0.3632 0.17147,-1.28898 0.81616,-1.5957c1.62527,-0.77324 4.53915,1.24048 4.79022,2.81968c-2.79213,4.58568 5.27066,5.34908 7.9963,4.55874c3.41425,-0.99002 1.91924,-2.59998 2.81144,-4.98397c0.62206,-1.66215 4.25308,-1.919 5.66226,-1.92371c1.26233,0.01665 0.63265,1.35942 2.46621,1.53479c1.00263,0.0959 2.35367,-0.93277 3.31589,-1.21131c3.70209,-1.07167 6.26234,-2.05397 9.52768,-4.0752c2.5181,-1.55869 4.76705,-2.09424 4.49223,-5.5368c-0.78576,-1.53778 -2.09582,-2.73711 -3.67604,-3.38006c1.17701,-0.88061 2.45971,-2.75354 2.8047,-3.49169c0.78402,-1.67751 0.45006,-2.92315 -0.27897,-4.14184c0.31355,0.22107 0.60468,0.43732 0.87171,0.64652c3.08107,2.41381 -0.65809,5.81962 -0.65809,5.81962z" fill-opacity="0.06275" fill="#000000"/><path d="M333.50935,169.86502c-5.17535,2.92183 -9.18892,6.79235 -13.2683,6.79235c-4.67788,0 -10.88773,-5.43299 -14.70638,-7.85404c-4.26232,-2.70235 -13.83726,-5.31592 -18.03776,-7.9099c-1.93654,-1.19589 -0.78203,-3.71884 -0.55607,-4.32907c0.13613,-0.36763 0.29539,-0.69767 0.46871,-0.99345c-0.72583,1.43571 -0.22745,2.87067 0.97735,4.52631c1.77513,1.44185 3.64957,2.1101 5.54983,2.68351c0.93479,0.46321 1.76864,0.82467 2.32145,1.05465c0.57545,0.15737 1.21685,0.24681 1.87826,0.32424c0.43326,0.18262 0.86505,0.38626 1.29451,0.619c3.25078,1.7617 6.25842,3.68472 9.58098,5.34021c2.99009,1.99651 6.0615,5.47352 9.95542,5.49207c3.88318,0.01849 7.57953,-3.45568 11.1146,-4.93752c1.6504,-0.44011 3.42086,-1.03516 5.20279,-1.7506c-0.59863,0.29952 -1.19201,0.61288 -1.77538,0.94224z" fill-opacity="0.06275" fill="#000000"/><path d="M348.80059,153.02414c0,0 6.18323,6.83811 0.80736,9.40064c-1.01524,0.48394 -2.54075,1.51686 -4.35356,2.28249c-1.77742,0.75068 -3.83104,1.51829 -5.95066,2.39896c2.44218,-1.23424 4.74455,-2.65472 6.60528,-4.16538c1.67185,-1.35731 3.41937,-1.65918 4.35109,-3.73669c0.25707,-1.76352 -0.11867,-3.52882 -1.54233,-4.78408c-0.26978,-0.23787 -0.77957,-0.56921 -1.19,-0.68938c0.20158,-0.15953 0.39977,-0.34579 0.50134,-0.47345c0.09225,-0.11595 1.22594,-1.91819 1.25887,-2.00688c0.44004,-1.18525 0.45967,-2.62097 0.22823,-4.00003c2.97649,2.41084 -0.71562,5.7738 -0.71562,5.7738z" fill-opacity="0.06275" fill="#000000"/><path d="M290.21772,152.12957c0.13551,0.08969 0.43146,0.3159 0.78046,0.5396c-0.38261,0.10191 -0.72466,0.24134 -1.05162,0.42181c-0.44287,-0.43212 -1.78935,-1.87542 -2.00123,-3.63654c0.36912,1.04234 1.16466,1.94197 2.27239,2.67513z" fill-opacity="0.06275" fill="#000000"/></g><path d="M308.41037,167.04863c0.0679,-0.74692 0.81482,-0.67902 0.81482,-0.67902c1.34381,0.14502 2.35911,0.81628 3.44181,1.6012l0.61176,0.40784c0.20678,0.13354 0.34365,0.36603 0.34365,0.63049c0,0.22494 -0.09903,0.42676 -0.25587,0.56423c-0.13747,0.15684 -0.33928,0.25587 -0.56423,0.25587c-0.04044,0 -0.08013,-0.0032 -0.11884,-0.00936l-0.96858,-0.13837l0.02759,-0.19311c-0.33405,-0.033 -0.60633,-0.12802 -0.92181,-0.29921c-0.2146,-0.09282 -0.45697,-0.21062 -0.74898,-0.35649l-0.00913,-0.01122l-0.00268,0.00491l-0.75769,-0.41328c-0.22009,-0.11454 -0.37623,-0.33503 -0.40084,-0.59386c-0.21634,-0.07465 -0.53648,-0.27029 -0.491,-0.77063z" fill-opacity="0.06275" fill="#000000" stroke-width="0.5"/><path d="M327.29906,169.5338c-0.1611,0.05743 -0.33686,0.11978 -0.53076,0.19022l-0.03256,-0.00181l0.00288,0.01056l-0.75449,0.20577c-0.06779,0.02014 -0.13959,0.03095 -0.21391,0.03095c-0.26776,0 -0.50276,-0.14032 -0.63545,-0.35144c-0.21979,-0.01089 -0.49364,-0.11043 -0.63163,-0.49679c-0.25225,-0.70631 0.45405,-0.95856 0.45405,-0.95856c0.32087,-0.1146 0.63571,-0.22494 0.94898,-0.33019l0.04537,-0.05774l0.03799,0.02985c0.19849,-0.06616 0.39651,-0.13024 0.59519,-0.19202c0.28683,-0.25805 0.60263,-0.47588 0.9471,-0.63449l0.03833,0.00062l-0.0043,-0.01289l1.03484,-0.34495c0.07926,-0.0285 0.16471,-0.04402 0.25378,-0.04402c0.3061,0 0.56936,0.18337 0.68594,0.44625c0.31953,0.08593 0.55473,0.37766 0.55473,0.72433c0,0.01175 -0.00027,0.02343 -0.0008,0.03505c0.00053,0.01162 0.0008,0.0233 0.0008,0.03505c0,0.26446 -0.13688,0.49695 -0.34365,0.63049l-0.83148,0.55432l-0.1104,-0.1656c-0.30183,0.21851 -0.60424,0.35972 -1.00496,0.51257c-0.12338,0.06864 -0.25231,0.14969 -0.38234,0.25188z" fill-opacity="0.06275" fill="#000000" stroke-width="0.5"/><g stroke-width="0"><path d="M324.21551,202.70849c0,0 0.17502,-1.22753 0.34962,-1.91798c0.22461,-0.88823 0.8862,-2.96909 0.8862,-2.96909l2.63336,0.46343c0,0 -0.50101,2.73992 -0.77061,3.74415c-0.19494,0.72611 -0.69692,1.72221 -0.69692,1.72221c0,0 -0.636,-0.02613 -1.52783,-0.47024c-0.60151,-0.29954 -0.87382,-0.57248 -0.87382,-0.57248z" fill="url(#color-6)"/><path d="M324.3282,197.85769c0,0 1.50072,-9.24011 1.74469,-14.19191c0.22503,-4.56728 -0.33311,-14.45869 -0.33311,-14.45869l3.63502,-2.02532c0,0 0.91564,10.69505 0.83835,15.12486c-0.10061,5.76632 -1.39071,16.53304 -1.39071,16.53304c0,0 -1.07894,0.2076 -2.89318,-0.10093c-1.26817,-0.21567 -1.60107,-0.88104 -1.60107,-0.88104z" fill="url(#color-7)"/><path d="M326.07291,183.66579c0.22503,-4.56728 -0.33311,-14.45869 -0.33311,-14.45869l3.63502,-2.02532c0,0 0.91564,10.69505 0.83835,15.12486c-0.04224,2.42111 -0.29418,5.72374 -0.57228,8.74082c-0.83557,-1.67354 -2.11887,-2.87011 -4.03503,-2.27941c0.21713,-1.84189 0.39575,-3.65519 0.46705,-5.10226z" fill-opacity="0.06275" fill="#000000"/><path d="M325.7398,169.20707l3.63502,-2.02532c0,0 0.62447,7.29411 0.79846,12.32982c-1.40681,-1.01431 -2.84,-1.26677 -4.06472,-0.51831c-0.07594,-4.59682 -0.36876,-9.78619 -0.36876,-9.78619z" fill-opacity="0.06275" fill="#000000"/></g><g stroke-width="0"><path d="M310.88917,204.81192c0,0 -0.28223,-1.65946 -0.40385,-2.64409c-0.15391,-1.24598 -0.44577,-4.23401 -0.44577,-4.23401l3.01899,-0.42481c0,0 0.65944,3.08934 0.79439,4.21935c0.09652,0.80823 0.28695,2.50427 0.28695,2.50427c0,0 -0.53987,0.43566 -1.5082,0.54267c-1.23959,0.13698 -1.7425,0.03662 -1.7425,0.03662z" fill="url(#color-8)"/><path d="M309.26354,199.647c0,0 -1.18687,-12.80024 -1.19716,-18.2902c-0.01017,-5.42287 1.13578,-14.45074 1.13578,-14.45074l3.44727,1.77983c0,0 -0.17839,11.9571 0.0311,17.03183c0.19913,4.82375 1.19636,12.70182 1.19636,12.70182c0,0 -0.25921,0.60071 -1.22117,0.89755c-2.43498,0.75139 -3.39219,0.32992 -3.39219,0.32992z" fill="url(#color-9)"/><path d="M308.06638,181.35684c-0.01017,-5.42287 1.13578,-14.45074 1.13578,-14.45074l3.44727,1.77983c0,0 -0.17839,11.9571 0.0311,17.03183c0.05182,1.25521 0.15767,2.71724 0.28594,4.19346c-1.47926,-0.96416 -3.05884,-0.73027 -4.47127,0.29749c-0.23067,-3.26118 -0.42468,-6.64641 -0.42882,-8.85187z" fill-opacity="0.06275" fill="#000000"/><path d="M309.10504,166.90605l3.44727,1.77983c0,0 -0.08266,5.54049 -0.06937,10.67921c-0.06948,-0.05227 -0.14139,-0.10265 -0.21584,-0.15103c-1.18658,-0.77102 -2.80008,-0.9761 -4.22733,-0.6021c0.2481,-5.26827 1.06526,-11.70591 1.06526,-11.70591z" fill-opacity="0.06275" fill="#000000"/></g><path d="M334.35159,223.43271c-4.24504,1.68739 -8.61591,2.97705 -13.15995,3.5828c-3.42966,0.4572 -6.83331,0.52453 -10.26514,0.11169c3.25196,-1.38666 6.4891,-2.76809 10.16774,-3.13235c4.4057,-0.43625 8.50516,-0.72779 12.9895,-0.71172c0.17384,0.00062 0.34531,0.0046 0.51448,0.01129c-0.12385,0.07436 -0.2115,0.12432 -0.24663,0.13829z" fill-opacity="0.06275" fill="#000000" stroke-width="0"/><path d="M320.26817,216.79731c-1.91042,0.74251 -3.81898,1.85527 -5.82543,2.30189c-2.52762,0.56263 -4.34202,0.305 -5.95235,0.73042c-0.82229,0.21724 -1.59137,0.61258 -2.37502,1.38619c0.37862,-0.63419 0.73808,-1.23275 1.09318,-1.59229c2.04485,-2.07047 4.91491,-2.61737 7.58792,-3.47695c2.22053,-0.71407 5.61059,-0.92632 7.96067,-0.93758c0.51413,-0.00246 1.4528,-0.33022 1.64725,0.03965c-1.43776,0.2688 -3.38164,1.2554 -4.13622,1.54868z" fill-opacity="0.06275" fill="#000000" stroke-width="0"/><path d="M344.21361,171.26947l0.29827,0.08023c1.5093,0.97169 1.36807,2.01032 -0.33298,2.70806c-2.2729,0.93229 -4.94657,1.23003 -7.34003,1.76191c-1.09807,0.12326 -4.01524,0.88297 -4.41548,-0.85611c-0.17035,-0.74018 1.78782,-1.86371 2.2987,-2.15667c2.46166,-1.41161 6.75831,-2.94216 9.49152,-1.53742z" fill-opacity="0.06275" fill="#000000" stroke-width="0.5"/><path d="M294.5657,166.61408c0.20004,-0.11565 0.41571,-0.11565 0.41571,-0.11565c3.77121,0.02159 7.77826,2.51552 10.11564,5.36083c0.37636,0.45815 1.90775,1.9332 1.82175,2.50843c-0.32009,2.14099 -1.98382,1.17192 -3.13286,0.84363c-2.9657,-1.01176 -5.33226,-3.86413 -8.32877,-5.10877c-0.74373,-0.30892 -2.50436,-0.70477 -2.6196,-1.75425c-0.12566,-1.14437 0.81351,-1.62102 1.72813,-1.73421z" fill-opacity="0.06275" fill="#000000" stroke-width="0.5"/><path d="M340.93699,184.00184c0,0 1.62132,5.42404 0.22154,7.77331c-1.38223,2.31981 -4.17344,3.43656 -6.70049,3.80559c-1.0725,0.17541 -4.57436,0.04572 -4.57436,0.04572c0,0 6.32065,-4.34686 6.84953,-4.6718c2.21368,-1.36009 4.20378,-6.95282 4.20378,-6.95282z" fill-opacity="0.06275" fill="#000000" stroke-width="0.5"/><path d="M299.63604,197.64672c1.86464,1.60686 5.88361,2.87428 7.92189,4.03827l1.52062,1.49679c0,0 -6.64369,-0.73918 -9.94653,-3.02521c-1.19583,-0.82768 -2.95926,-2.25772 -3.11892,-3.86945c-0.19911,-2.00991 -1.51784,-5.80955 0.49988,-4.12016c0,0 1.25842,3.8729 3.12306,5.47976z" fill-opacity="0.06275" fill="#000000" stroke-width="0.5"/></g></g><g stroke="none" stroke-width="0" stroke-linecap="butt"><path d="M330.46235,150.64759l27.93093,-34.77659c0,0 1.64602,5.14156 3.0093,7.34788c1.31547,2.12891 4.92661,6.55715 4.92661,6.55715c0,0 -1.50003,0.33756 -2.85728,0.36278c-1.95176,0.03626 -3.21149,-0.17447 -3.21149,-0.17447c0,0 0.02539,2.31636 0.23671,3.3904c0.242,1.23004 1.13578,3.58557 1.13578,3.58557c0,0 -1.05029,-0.05086 -1.90147,-0.58853c-0.91357,-0.57709 -1.93209,-1.05945 -1.93209,-1.05945c0,0 -0.38533,6.66361 0.4247,9.44433c0.90229,3.09744 4.74219,8.29284 4.74219,8.29284c0,0 -3.88012,1.17289 -6.57171,0.31792c-2.68658,-0.85336 -3.62148,-2.01921 -3.62148,-2.01921c0,0 0.34141,1.17839 0.59782,1.73584c0.25916,0.56344 0.94898,1.62702 0.94898,1.62702c0,0 -0.92053,0.15974 -2.325,-0.04171c-1.50083,-0.21528 -3.46488,-1.01726 -3.46488,-1.01726l1.68806,3.28242c0,0 -7.83159,-1.69936 -11.29794,-2.77453c-5.73232,-1.77801 -8.45775,-3.49239 -8.45775,-3.49239z" fill="url(#color-10)"/><path d="M359.15573,120.95771c0.95319,2.20386 2.48667,3.97649 3.67541,6.01443c0.39238,0.66529 1.47941,2.01057 1.47941,2.01057c0,0 -0.89319,-0.1942 -1.33723,-0.26713c-0.76913,-0.12634 -1.45817,-0.53821 -2.18774,-0.76093c-0.2952,-0.16961 -1.64108,-0.99081 -1.94901,-0.83213c-0.58193,0.29987 -0.1774,4.54595 -0.00832,5.19258c0.04614,0.24098 0.8219,1.71226 0.8219,1.71226c0,0 -1.44629,-1.07727 -2.61636,-0.88159c-0.51546,0.08621 -0.69406,1.199 -0.86432,1.63211c-1.2952,2.27912 -0.6415,5.35295 -0.77917,7.83415c0.18193,1.29685 0.35683,2.5061 0.70131,3.76983c0.10918,0.40056 0.24532,0.82772 0.33632,1.23219c0.08988,0.39949 1.85248,2.7928 1.85248,2.7928c0,0 -3.18405,-0.89013 -4.41534,-1.5199c-1.13861,-0.58237 -2.71618,-2.12769 -2.71618,-2.12769c0,0 0.08243,1.52701 0.17324,2.16456c0.07145,0.50153 0.63023,2.05131 0.63023,2.05131c0,0 -1.361,-0.34253 -2.01304,-0.63226c-0.7186,-0.31931 -2.1183,-1.20348 -2.1183,-1.20348c0,0 0.29443,3.50065 0.00098,3.39233c-4.76854,-0.23431 -7.785,-0.85692 -11.60463,-3.72125c-0.9747,-0.39268 -2.02274,-1.01179 -2.95385,-1.65058l24.76492,-30.8346c0.02304,1.58919 0.30388,3.23535 1.12728,4.63243z" fill-opacity="0.06275" fill="#000000"/><path d="M358.55817,121.36018c0.27716,1.33644 0.95551,2.80638 1.75943,3.9334c0.41825,0.58633 1.41374,1.46965 0.76364,1.31318c-2.58157,-0.78333 -4.05309,-2.91962 -4.27509,1.08104c-0.07577,1.36547 0.03346,2.54653 0.56051,3.76122c-0.47003,-0.27682 -1.22617,-0.37486 -1.47348,-0.10768c-0.84667,0.9147 -1.41365,2.80105 -1.65465,3.99315c-0.5188,2.33642 -0.46926,4.79162 -0.58828,7.16934c0.14579,0.78522 0.36645,3.71457 1.07776,4.31386c-0.1396,-0.07906 -0.34466,-0.19161 -0.44475,-0.24397c-0.42271,-0.22117 -0.81758,-0.43707 -1.21949,-0.6961c-0.94988,-0.38215 -2.00682,-1.62715 -3.04832,-1.64709c-1.20021,-0.02297 -1.56459,2.98372 -0.93229,3.68277c-0.48868,-0.04687 -2.05804,-0.6751 -2.40388,-0.4866c-1.58501,0.86382 0.8772,2.59725 -1.66962,2.46064c-1.73472,0.19109 -4.43152,-0.91648 -5.91762,-1.76554c-1.81794,-0.56318 -2.79756,-2.04663 -3.94728,-3.30422l22.67936,-28.23788c-0.01623,1.64228 0.17323,3.12277 0.73405,4.78051z" fill-opacity="0.06275" fill="#000000"/></g><g stroke="#000000" stroke-width="0"><path d="M276.01394,115.18396c0,0 3.2425,0.56129 6.23182,-0.06554c2.54789,-0.53428 4.36633,-1.40225 4.36633,-1.40225c0,0 10.64135,19.16775 12.99495,24.93844c1.13814,2.79055 0.36883,7.8277 0.36883,7.8277c0,0 -1.93053,2.4071 -8.01449,3.12474c-5.53198,0.65252 -11.63165,-2.47533 -11.63165,-2.47533l7.27836,-4.34049c0,0 -2.93795,0.12872 -5.13118,-0.1394c-2.51522,-0.30749 -4.52995,-1.0293 -4.52995,-1.0293c0,0 2.5964,-2.39488 4.73176,-5.07423c1.55456,-1.9506 2.61631,-4.7975 2.61631,-4.7975c0,0 -1.82817,0.80013 -2.95611,0.98874c-2.98905,0.49979 -4.77353,0.08472 -4.77353,0.08472c0,0 0.91461,-1.03522 1.23992,-1.51498c0.26514,-0.39103 0.56862,-1.15222 0.56862,-1.15222c0,0 -2.09297,-0.37719 -3.34303,-3.42433c-1.32139,-3.22098 -1.08513,-5.12406 -1.08513,-5.12406c0,0 1.06678,-0.14337 2.45484,-0.89131c1.43154,-0.77138 2.42808,-1.60527 2.42808,-1.60527c0,0 -1.34905,-0.07846 -2.58748,-1.37023c-0.98761,-1.03016 -1.22728,-2.55789 -1.22728,-2.55789z" fill="url(#color-11)" stroke-linecap="round"/><path d="M284.91505,115.26654c2.20426,-0.55334 3.78113,-1.43473 3.78113,-1.43473c0,0 9.04415,19.07912 11.03287,24.82957c0.59303,1.71475 0.55326,4.28891 0.43561,6.01053c-0.57609,0.34991 -1.17595,0.68352 -1.82612,1.01348c-1.99499,0.64132 -4.31981,1.59037 -6.3725,1.48743c-0.57848,0.18728 -2.81763,-0.36233 -4.01417,-0.41921c1.71648,-1.26519 3.55943,-3.84247 3.33602,-6.30066c-1.77511,-0.45402 -3.88204,-0.44622 -5.69658,-0.55803c0.21081,-0.12254 1.2648,-1.61588 1.47493,-1.87674c2.1576,-2.67846 2.54939,-8.23461 2.54939,-8.23461c0,0 -3.75397,1.43409 -6.23815,1.81923c0.56272,-0.8648 1.24861,-2.36589 1.24861,-2.36589c0,0 -2.19919,-1.48894 -3.16495,-2.34407c-0.80421,-1.04346 -1.68487,-3.92126 -1.68487,-3.92126c0,0 2.50077,-1.47392 3.33072,-2.2117c0.68447,-0.60846 1.29718,-1.90227 1.29718,-1.90227c0,0 -2.27341,-1.98285 -2.72093,-3.27485c0.95414,0.02359 2.11261,-0.0353 3.23182,-0.31624z" fill-opacity="0.06275" fill="#000000" stroke-linecap="butt"/><path d="M284.91505,115.26654c2.20426,-0.55334 3.78115,-1.43472 3.78115,-1.43472c0,0 9.04414,19.07911 11.03286,24.82956c0.33825,0.978 0.47061,2.23558 0.5001,3.45509c-0.50285,0.38615 -0.43132,0.96147 -2.80601,1.80108c-2.97283,1.05108 -5.51515,0.91901 -5.51515,0.91901c0,0 0.28533,-0.93009 0.56895,-1.82071c0.49834,-1.56488 0.26326,-4.76279 0.26326,-4.76279l-4.36858,0.5329c0,0 1.40752,-3.82955 1.83246,-5.70821c0.38707,-1.71121 0.61422,-5.10838 0.61422,-5.10838c0,0 -1.12319,0.77491 -2.54879,1.32525c-0.917,0.35401 -2.00884,0.4403 -2.84239,0.74788c0.18988,-1.04443 0.45018,-1.79983 0.45018,-1.79983c0,0 -1.83613,-0.49809 -2.93333,-1.666c-1.02113,-1.08696 -1.38091,-3.18319 -1.38091,-3.18319c0,0 1.79157,-0.77897 2.22841,-0.92005c0.90538,-0.30092 3.25368,-2.99296 3.25368,-2.99296c0,0 -2.22062,-2.63491 -2.87922,-4.05799c0.24987,-0.04203 0.50047,-0.09349 0.74913,-0.15591z" fill-opacity="0.06275" fill="#000000" stroke-linecap="butt"/></g><path d="M284.6023,115.97751c1.17956,-21.25659 18.79733,-38.9161 39.44289,-37.77045c20.64556,1.14565 37.17478,19.34781 35.99523,40.60441c-1.17956,21.25659 -15.70755,37.36577 -40.08375,35.78169c-28.27004,-1.83712 -36.53391,-17.35905 -35.35435,-38.61564z" fill="url(#color-12)" stroke="none" stroke-width="0" stroke-linecap="butt"/><g stroke="#000000" stroke-width="0"><path d="M366.05579,109.82619c0,0 5.73783,-5.1036 8.36472,-8.8439c1.91188,-2.72222 5.94466,-11.53048 5.94466,-11.53048c0,0 5.1215,-0.33564 9.55754,5.09984c5.50823,6.74922 3.85096,11.54113 3.85096,11.54113c0,0 -5.43191,4.63229 -14.60151,5.6655c-7.97289,0.89836 -13.11638,-1.93208 -13.11638,-1.93208z" fill="url(#color-13)" stroke-linecap="round"/><path d="M366.05579,109.82619c0,0 3.68892,-3.28116 6.50524,-6.50983c0.20803,0.64186 0.61702,1.21379 1.16932,1.62642c1.88625,1.05406 3.81995,1.22991 6.08601,0.91286c2.50533,-0.49837 4.43404,-0.46036 6.65444,-1.94539c1.79677,-1.61836 3.5733,-2.21728 4.25282,-4.83344c0.24579,-0.95138 0.36634,-2.04135 0.2811,-3.09833c4.19609,5.9878 2.76897,10.11429 2.76897,10.11429c0,0 -5.43191,4.63229 -14.60151,5.6655c-7.97289,0.89836 -13.11638,-1.93208 -13.11638,-1.93208z" fill-opacity="0.06275" fill="#000000" stroke-linecap="butt"/><path d="M366.05579,109.82619c0,0 1.11891,-0.99523 2.59474,-2.42881c1.63175,1.68248 4.81962,1.73285 6.94978,1.86132c2.7809,0.15432 5.26628,-0.32798 7.99875,-0.73404c2.3582,-1.01994 4.6019,-1.72295 6.76495,-3.16518c1.38323,-1.24154 2.55413,-2.34421 3.24517,-4.01749c0.78751,2.94942 0.16452,4.75079 0.16452,4.75079c0,0 -5.43191,4.63229 -14.60151,5.6655c-7.97289,0.89836 -13.11638,-1.93208 -13.11638,-1.93208z" fill-opacity="0.06275" fill="#000000" stroke-linecap="butt"/></g><g fill-opacity="0.03137" fill="#000000" stroke="none" stroke-linecap="butt"><path d="M345.13754,136.51223c-0.22577,4.06856 -14.57027,1.68185 -26.34887,1.02824c-11.7786,-0.65361 -24.38162,0.89096 -24.15585,-3.1776c0.22577,-4.06856 13.19483,-12.20958 24.97343,-11.55597c11.7786,0.65361 25.75705,9.63677 25.53129,13.70533z" stroke-width="0"/><path d="M339.49929,137.17139c-0.06579,-0.24118 0.17538,-0.30699 0.17538,-0.30699l0.14028,-0.01113c1.08619,-0.96644 2.24934,-1.86439 3.50342,-2.60411c0,0 0.21537,-0.12695 0.34232,0.08845c0.12694,0.21537 -0.08845,0.34232 -0.08845,0.34232c-1.22537,0.72159 -2.36564,1.60026 -3.42453,2.54655l-0.34144,0.12029c0,0 -0.24118,0.06579 -0.30699,-0.17539z" stroke-width="0.5"/><path d="M337.40826,137.46954c-0.16671,-0.18629 0.01959,-0.35301 0.01959,-0.35301l0.12031,-0.10194c1.73088,-1.04933 3.12799,-2.58042 4.868,-3.6062c0,0 0.21537,-0.12695 0.34232,0.08845c0.12694,0.21537 -0.08845,0.34232 -0.08845,0.34232c-1.73751,1.02376 -3.13355,2.55461 -4.86265,3.60299l-0.0461,0.04698c0,0 -0.1863,0.16671 -0.35302,-0.01959z" stroke-width="0.5"/><path d="M335.03512,137.66796c0.03033,-0.12307 0.10769,-0.16836 0.17657,-0.18311c2.15782,-1.51597 4.2984,-3.13061 6.26248,-4.88816c0,0 0.18629,-0.1667 0.35301,0.01959c0.16671,0.18629 -0.01959,0.35302 -0.01959,0.35302c-1.99713,1.78713 -4.17508,3.42726 -6.36917,4.96732l-0.22037,0.03392c0,0 -0.24274,-0.05982 -0.18292,-0.30256z" stroke-width="0.5"/><path d="M332.23685,138.61987c-0.09925,-0.22945 0.13021,-0.3287 0.13021,-0.3287l0.09457,-0.02692c0.21786,-0.19454 0.44628,-0.37832 0.68623,-0.54488c2.30436,-1.59555 4.45817,-3.82932 6.9535,-5.08108c0,0 0.2236,-0.11183 0.33541,0.11178c0.11182,0.22359 -0.11178,0.33541 -0.11178,0.33541c-2.47188,1.232 -4.61203,3.46595 -6.89251,5.04496c-0.22329,0.15421 -0.43542,0.3252 -0.63744,0.50639l-0.22951,0.11323c0,0 -0.22945,0.09924 -0.3287,-0.13021z" stroke-width="0.5"/><path d="M330.19379,137.51438c0.29063,-0.12784 0.5158,-0.30682 0.80692,-0.48024c2.48758,-1.47836 4.65664,-3.42902 7.13664,-4.89113c0,0 0.21538,-0.12694 0.34232,0.08845c0.12694,0.21537 -0.08844,0.34231 -0.08844,0.34231c-2.47935,1.46079 -4.6482,3.41224 -7.13508,4.89019c-0.39633,0.23493 -0.68171,0.46281 -1.12747,0.60759l-0.00725,-0.3069l-0.14373,-0.16976c0.04814,-0.01479 0.09418,-0.03094 0.13859,-0.04831l-0.00031,-0.01291c0,0 0.03226,-0.01396 0.07781,-0.0193z" stroke-width="0.5"/><path d="M328.56272,136.48671c0.21983,-0.11336 0.44038,-0.22532 0.66162,-0.33589c2.57889,-1.51623 4.72014,-3.39663 7.1386,-5.12141c0,0 0.20356,-0.14512 0.34868,0.05846c0.14513,0.20356 -0.05845,0.34868 -0.05845,0.34868c-2.43557,1.73545 -4.59203,3.62901 -7.19028,5.15368c-0.3011,0.15067 -0.60102,0.30374 -0.89966,0.45923l-0.00625,0.0003l0.00101,0.00219l-0.24364,0.11283c-0.03706,0.01807 -0.07912,0.0272 -0.12322,0.02476c-0.13785,-0.00765 -0.24341,-0.12561 -0.23577,-0.26347c0.00382,-0.06893 0.03523,-0.12979 0.08291,-0.17245l0.24961,-0.22336c0,0 0.13299,-0.119 0.2748,-0.04355z" stroke-width="0.5"/><path d="M325.82524,136.50507c0.7092,-0.40957 1.40606,-0.84287 2.12316,-1.23772c2.57359,-1.41655 4.55218,-3.45729 6.88202,-5.18963c0,0 0.20062,-0.14916 0.34979,0.05146c0.14917,0.20063 -0.05146,0.34979 -0.05146,0.34979c-2.34835,1.74572 -4.34499,3.79847 -6.93924,5.2264c-0.71426,0.39298 -1.40817,0.8249 -2.11442,1.2328l-0.26891,0.1553c-0.04134,0.02471 -0.09025,0.03777 -0.14195,0.0349c-0.13785,-0.00765 -0.24341,-0.12561 -0.23577,-0.26347c0.00488,-0.08803 0.05474,-0.16287 0.12602,-0.20349l0.24189,-0.14256l0.00128,0.00216l0.02737,-0.01582l0.25005,0.43298l-0.00948,0.00102c-0.00938,0.00687 -0.01536,0.01039 -0.01536,0.01039l-0.00637,-0.00804l-0.58174,0.06318l0.33424,-0.4859c0,0 0.01075,-0.00633 0.02888,-0.01378z" stroke-width="0.5"/><path d="M327.00772,133.11081c2.31364,-1.36428 4.21891,-3.34979 6.51348,-4.70317c0,0 0.21537,-0.12695 0.34232,0.08844c0.12694,0.21537 -0.08845,0.34232 -0.08845,0.34232c-2.29043,1.34884 -4.19166,3.33525 -6.50162,4.69595c-1.31261,0.87558 -2.67266,1.67017 -4.0033,2.51431c-0.03456,0.06423 -0.08986,0.1011 -0.08986,0.1011l-0.34054,0.22657c-0.06814,0.03503 -0.14175,0.06589 -0.21798,0.08986c-0.06362,0.04167 -0.12717,0.08349 -0.19058,0.1255l-0.01483,0.00224l-0.00095,0.00049l0.00227,0.00455l-0.44327,0.22167c-0.03859,0.0202 -0.08296,0.03057 -0.1296,0.02798c-0.13785,-0.00765 -0.24341,-0.12561 -0.23577,-0.26347c0.00519,-0.09356 0.0612,-0.17223 0.13973,-0.21075l0.44069,-0.22602l0.00181,0.00353c1.58123,-1.05326 3.23466,-1.98684 4.81643,-3.04108z" stroke-width="0.5"/><path d="M320.21261,136.00537c1.36355,-0.87744 2.69901,-1.79227 4.05468,-2.68619c2.25906,-1.74971 4.48659,-3.61903 6.80511,-5.27186c0,0 0.20356,-0.14512 0.34868,0.05845c0.14513,0.20356 -0.05845,0.34868 -0.05845,0.34868c-2.3189,1.65301 -4.54364,3.52287 -6.80442,5.27137c-1.69111,1.11683 -3.35256,2.26388 -5.07467,3.33221l-0.00289,0.00068l0.00045,0.00078l-0.42781,0.25213c-0.04172,0.0254 -0.09129,0.03888 -0.14374,0.03597c-0.13785,-0.00765 -0.24341,-0.12561 -0.23577,-0.26347c0.00417,-0.07517 0.04114,-0.14074 0.09626,-0.18359l0.39212,-0.30802l0.04002,0.05095l0.0113,-0.00665c0.22065,-0.21036 0.45698,-0.36024 0.8224,-0.58602l0.01016,-0.00627c0,0 0.07677,-0.04744 0.16657,-0.03918z" stroke-width="0.5"/><path d="M323.32214,131.33c2.29462,-1.66253 4.31932,-3.50928 6.42346,-5.3937c0,0 0.1863,-0.16671 0.35301,0.01959c0.16671,0.18629 -0.01959,0.35302 -0.01959,0.35302c-2.12118,1.89652 -4.16034,3.75794 -6.47242,5.43229c-2.08314,1.37568 -4.17259,2.73555 -6.16464,4.23781c-0.02135,0.10247 -0.11413,0.16337 -0.11413,0.16337l-0.06177,0.04055c-0.10481,0.06879 -0.21512,0.12873 -0.3291,0.18173c-0.03407,0.02637 -0.06812,0.05276 -0.10212,0.07922l0.00985,0.01556l-0.41988,0.26608c-0.043,0.028 -0.09497,0.04306 -0.15012,0.04c-0.13785,-0.00765 -0.24341,-0.12561 -0.23577,-0.26347c0.00459,-0.0827 0.04888,-0.15379 0.11335,-0.19577l0.32014,-0.21345c2.19327,-1.71589 4.52657,-3.22942 6.84974,-4.76282z" stroke-width="0.5"/><path d="M314.50728,135.0633c2.26897,-1.39294 4.46533,-2.83863 6.62211,-4.43428c2.23678,-1.65454 4.15912,-4.14328 6.56893,-5.47418c0,0 0.21901,-0.12055 0.33957,0.09846c0.12055,0.21901 -0.09846,0.33957 -0.09846,0.33957c-2.38567,1.30832 -4.30033,3.80166 -6.5127,5.43813c-2.7249,2.01522 -5.51225,3.79444 -8.42874,5.52744l0.0011,0.00175l-0.42011,0.26569c-0.04297,0.02793 -0.09488,0.04295 -0.14995,0.0399c-0.13785,-0.00765 -0.24341,-0.12561 -0.23577,-0.26347c0.0047,-0.08461 0.05096,-0.15706 0.11784,-0.19863l0.41868,-0.26729l0.00073,0.00114l0.00266,-0.00327c0.05751,-0.03418 0.11494,-0.06836 0.17235,-0.10256c0.28648,-0.29974 0.74247,-0.49031 1.09036,-0.71649l0.42389,-0.22453c0,0 0.03642,-0.01926 0.08751,-0.02736z" stroke-width="0.5"/><path d="M308.73712,136.05185c-0.10043,-0.22894 0.12851,-0.32937 0.12851,-0.32937l0.16968,-0.07415c1.66975,-0.82415 3.57615,-2.31374 5.26881,-2.90287c2.06427,-1.21751 4.14334,-2.9207 5.91503,-4.50177c1.8532,-1.28501 3.59084,-2.74972 5.54142,-3.90405c0,0 0.21537,-0.12695 0.34231,0.08844c0.12694,0.21537 -0.08844,0.34232 -0.08844,0.34232c-1.93389,1.1356 -3.65208,2.59448 -5.48553,3.86579c-1.7954,1.61145 -3.92004,3.32887 -6.01715,4.56412c-1.64914,0.53004 -3.63043,2.09248 -5.25493,2.89627l-0.19034,0.08378c0,0 -0.22894,0.10043 -0.32937,-0.1285z" stroke-width="0.5"/><path d="M304.04705,136.76246c-0.20639,-0.14107 -0.0653,-0.34746 -0.0653,-0.34746l0.20842,-0.30458c0.63781,-0.79182 1.51914,-1.59652 2.35975,-2.17401c2.85693,-1.95562 5.71564,-3.93923 8.53458,-5.95584c2.30629,-1.6499 4.57757,-3.39014 6.7782,-5.1784c0,0 0.19401,-0.15767 0.35168,0.03635c0.15767,0.19402 -0.03636,0.35169 -0.03636,0.35169c-2.20858,1.79471 -4.48799,3.54118 -6.80261,5.19702c-2.82174,2.01861 -5.68327,4.0042 -8.54305,5.96178c-0.7936,0.54103 -1.64158,1.31166 -2.2406,2.05932l-0.19723,0.28884c0,0 -0.14107,0.20639 -0.34746,0.0653z" stroke-width="0.5"/><path d="M299.7908,135.99587c-0.06579,-0.24118 0.17539,-0.30699 0.17539,-0.30699l0.20742,-0.05397c0.51322,-0.2211 0.9426,-0.55905 1.42331,-0.83972c1.79112,-1.60507 4.08661,-2.91519 6.10166,-4.25826c2.06676,-1.21901 4.27677,-3.15848 6.1031,-4.79031c1.75015,-1.03148 3.95697,-2.96641 5.9848,-3.27807c0,0 0.24748,-0.03537 0.28285,0.21211c0.03538,0.24749 -0.2121,0.28285 -0.2121,0.28285c-1.90156,0.24578 -4.11827,2.21889 -5.76045,3.18674c-1.83063,1.64064 -4.05486,3.5867 -6.13246,4.81022c-2.01057,1.34106 -4.27685,2.64499 -6.07266,4.23863c-0.51066,0.30347 -0.97245,0.65725 -1.51956,0.89473l-0.27431,0.07743c0,0 -0.2412,0.0658 -0.30699,-0.17538z" stroke-width="0.5"/><path d="M306.31039,137.20094c-0.20272,-0.14632 -0.0564,-0.34903 -0.0564,-0.34903l0.0128,-0.01773c0.10318,-0.14214 0.20638,-0.28425 0.30956,-0.42637c1.93348,-1.7398 3.90531,-3.34709 6.13444,-4.65606c2.07685,-0.89825 4.31183,-2.35344 5.80591,-4.08158c1.97478,-0.88863 3.21773,-2.96894 4.9854,-4.15952c0,0 0.208,-0.13869 0.34669,0.06931c0.13869,0.208 -0.06931,0.34669 -0.06931,0.34669c-1.75007,1.15308 -2.98969,3.33207 -4.96416,4.14454c-1.43027,1.76193 -3.82371,3.23778 -5.87791,4.12625c-2.17583,1.28765 -4.08869,2.85446 -5.98948,4.54491c-0.0919,0.12815 -0.18381,0.25631 -0.27572,0.38447l-0.0128,0.01773c0,0 -0.14632,0.20271 -0.34903,0.05639z" stroke-width="0.5"/><path d="M298.22088,135.45311c-0.16671,-0.18629 0.01959,-0.35302 0.01959,-0.35302l0.13311,-0.1126c0.77644,-0.99759 2.55088,-1.9808 3.70492,-2.48442c2.24972,-1.18553 4.25627,-2.54855 6.15067,-4.24376c1.7473,-1.56357 4.13412,-4.28745 6.33201,-5.03975c0,0 0.2369,-0.07984 0.31676,0.15706c0.07984,0.2369 -0.15706,0.31675 -0.15706,0.31675c-2.10923,0.69798 -4.48288,3.43932 -6.15826,4.93854c-1.92952,1.72662 -3.97669,3.1146 -6.26814,4.32212c-1.02498,0.43895 -2.87051,1.41656 -3.52085,2.33343l-0.19971,0.18522c0,0 -0.18629,0.1667 -0.35301,-0.01959z" stroke-width="0.5"/><path d="M296.18015,134.9109c0.01632,-0.00961 0.03263,-0.01923 0.04895,-0.02883c2.16872,-1.42463 4.0616,-3.32664 6.26122,-4.75634c2.34005,-1.32552 4.354,-3.2492 6.34776,-5.03333c0,0 0.1863,-0.16671 0.35302,0.01959c0.16671,0.18629 -0.01959,0.35302 -0.01959,0.35302c-2.01772,1.80556 -4.05547,3.74324 -6.42142,5.08795c-2.19996,1.43063 -4.10186,3.29961 -6.25525,4.75266c-0.08372,0.04938 -0.16745,0.09875 -0.25118,0.14814l-0.15084,-0.34129l-0.10302,-0.08947c0.01679,-0.00989 0.03359,-0.01977 0.05037,-0.02967l-0.00695,-0.01572c0,0 0.06223,-0.05567 0.14693,-0.06672z" stroke-width="0.5"/><path d="M296.76255,132.81505c-0.13869,-0.208 0.06931,-0.34669 0.06931,-0.34669l0.33427,-0.22276c0.4437,-0.259 0.76328,-0.63049 1.2251,-0.87385c1.77998,-1.59922 4.01024,-3.67515 6.05908,-4.89356c0,0 0.21537,-0.12695 0.34231,0.08843c0.12694,0.21537 -0.08845,0.34232 -0.08845,0.34232c-2.03785,1.18824 -4.25843,3.29637 -6.02756,4.87336c-0.46873,0.247 -0.79432,0.61911 -1.24477,0.88685l-0.32262,0.21523c0,0 -0.208,0.13869 -0.34669,-0.06931z" stroke-width="0.5"/></g><path d="M336.45541,124.25749l5.16896,0.16782c0,0 0.31003,12.7724 -3.14263,12.40708c-3.72356,-0.39398 -2.02632,-12.5749 -2.02632,-12.5749z" fill="#000000" stroke="#000000" stroke-width="2" stroke-linecap="round"/><path d="M303.07472,116.19562c0,0 0.31003,12.7724 -3.14263,12.40707c-3.72356,-0.39397 -2.02633,-12.57489 -2.02633,-12.57489z" fill="#000000" stroke="#000000" stroke-width="2" stroke-linecap="round"/><g stroke="#000000" stroke-width="0"><path d="M357.38607,116.18857c0,0 0.18773,3.29526 -2.14025,6.20085c-0.7468,0.93209 -3.00734,1.35471 -3.00734,1.35471c0,0 0.01487,-1.91487 -0.10684,-2.6384c-0.09502,-0.56491 -0.56335,-1.34586 -0.56335,-1.34586l-2.3058,2.54587c0,0 -0.75527,-2.09165 -1.39374,-3.01046c-0.61859,-0.89019 -2.37935,-2.41924 -2.37935,-2.41924c0,0 -1.28759,1.60768 -1.94338,2.19453c-0.51637,0.46207 -1.67402,1.04252 -1.67402,1.04252c0,0 0.00447,-0.83793 -0.09197,-1.26348c-0.10702,-0.47221 -0.52171,-1.4444 -0.52171,-1.4444c0,0 -1.83086,3.40149 -3.16643,4.53734c-1.38014,1.17376 -4.9851,2.39516 -4.9851,2.39516c0,0 -0.73391,-2.75022 -1.59181,-3.82549c-1.07625,-1.34897 -4.36044,-3.635 -4.36044,-3.635l-3.60331,2.98318c0,0 -0.26297,-1.83221 -2.26038,-3.06115c-1.97231,-1.2135 -5.67374,-1.81936 -6.5506,-2.5253c-0.98815,-0.79556 -1.20385,-1.86155 -1.20385,-1.86155c0,0 -1.59434,1.63709 -2.58182,2.41423c-0.8583,0.67547 -2.61448,1.51586 -2.61448,1.51586c0,0 0.26661,-0.81105 0.35192,-1.19145c0.08388,-0.37405 0.15567,-1.07223 0.15567,-1.07223c0,0 -1.15208,0.39308 -1.88916,0.57799c-0.9888,0.24808 -3.51354,0.77742 -3.51354,0.77742c0,0 1.19919,-1.36738 1.80384,-2.13956c0.67862,-0.86667 2.07163,-2.80982 2.07163,-2.80982c0,0 -8.93884,5.21318 -12.87821,6.93091c-7.71652,3.3647 -11.58039,1.45999 -11.58039,1.45999l5.62454,-2.33111c0,0 -4.9357,0.44214 -7.76668,-0.75629c-4.75549,-1.12565 -4.62805,-3.39991 -4.62805,-3.39991c0,0 3.0301,-0.08517 4.23657,-0.20284c0.95128,-0.09278 2.42036,-0.44635 2.42036,-0.44635c0,0 -1.09044,-0.24916 -1.67711,-0.46125c-0.65418,-0.23649 -2.06751,-0.89248 -2.06751,-0.89248c0,0 1.65328,-0.23646 2.2673,-0.41157c0.46561,-0.13279 1.09638,-0.5477 1.09638,-0.5477c0,0 -2.9217,-2.96744 -3.34332,-5.65564c-1.0042,-6.40255 2.67087,-13.39423 2.67087,-13.39423l2.2621,1.42895c0,0 -0.86851,-1.46324 -1.02731,-2.20072c-0.18912,-0.87833 -0.03247,-2.72096 -0.03247,-2.72096c0,0 0.80122,1.24485 1.28763,1.58775c0.4514,0.31821 1.37539,0.85767 1.37539,0.85767c0,0 -0.3786,-1.95071 -0.46311,-2.86253c-0.0779,-0.84049 -0.02574,-2.4118 -0.02574,-2.4118c0,0 1.55792,1.75205 2.1811,2.44846c0.58168,0.65002 2.0422,1.56725 2.0422,1.56725c0,0 1.1847,-11.7558 4.4644,-17.4464c7.06436,-13.55613 17.78411,-14.31238 17.78411,-14.31238c0,0 6.01599,2.48211 8.10681,3.207c1.39688,0.4843 3.50556,1.02457 3.50556,1.02457c0,0 5.29608,-3.51157 12.4628,-3.37805c12.31223,0.48082 20.58164,4.01846 20.58164,4.01846c0,0 -1.86968,16.76141 -2.36535,22.64848c-0.31213,3.70712 -0.32187,9.26776 -0.32187,9.26776c0,0 1.81399,-1.47829 2.68836,-1.92987c0.74842,-0.38654 2.23899,-0.61494 2.23899,-0.61494c0,0 -0.25251,3.41615 -0.19063,5.24213c0.06968,2.05566 0.34651,6.47122 0.34651,6.47122c0,0 0.72862,2.00748 3.61438,2.33157c2.88576,0.32409 4.74596,-1.8929 4.74596,-1.8929c0,0 -0.05254,1.89198 -0.94558,4.02851c-0.5692,1.95698 -2.12201,3.6879 -2.12201,3.6879c0,0 0.53107,1.63746 1.24294,2.48481c0.92501,1.10107 5.83689,5.07849 5.83689,5.07849c0,0 -1.69639,2.12325 -5.23079,3.19647c-4.16857,1.2658 -5.97009,0.54155 -5.97009,0.54155z" fill="url(#color-14)" stroke-linecap="round"/><path d="M357.38607,116.18857c0,0 0.01189,0.20861 -0.00741,0.56714c-0.01483,0.01406 -0.03063,0.02773 -0.04742,0.04096c0,0 -0.1863,0.16672 -0.01959,0.35301c0.01116,0.01247 0.02241,0.02336 0.03368,0.03283c-0.12142,1.19711 -0.56132,3.28707 -2.09949,5.2069c-0.7468,0.93209 -3.00734,1.35471 -3.00734,1.35471c0,0 0.01487,-1.91487 -0.10684,-2.6384c-0.09502,-0.56491 -0.56335,-1.34586 -0.56335,-1.34586l-2.3058,2.54587c0,0 -0.75527,-2.09165 -1.39374,-3.01046c-0.61859,-0.89019 -2.37935,-2.41924 -2.37935,-2.41924c0,0 -1.28759,1.60768 -1.94338,2.19453c-0.51637,0.46207 -1.67402,1.04252 -1.67402,1.04252c0,0 0.00447,-0.83793 -0.09197,-1.26348c-0.10702,-0.47221 -0.52171,-1.4444 -0.52171,-1.4444c0,0 -1.83086,3.40149 -3.16643,4.53734c-1.38014,1.17376 -4.9851,2.39516 -4.9851,2.39516c0,0 -0.73391,-2.75022 -1.59181,-3.82549c-1.07625,-1.34897 -4.36044,-3.635 -4.36044,-3.635l-3.60331,2.98318c0,0 -0.26297,-1.83221 -2.26038,-3.06115c-1.97231,-1.2135 -5.67374,-1.81936 -6.5506,-2.5253c-0.98815,-0.79556 -1.20385,-1.86155 -1.20385,-1.86155c0,0 -1.59434,1.63709 -2.58182,2.41423c-0.8583,0.67547 -2.61448,1.51586 -2.61448,1.51586c0,0 0.26661,-0.81105 0.35192,-1.19145c0.08388,-0.37405 0.15567,-1.07223 0.15567,-1.07223c0,0 -1.15208,0.39308 -1.88916,0.57799c-0.9888,0.24808 -3.51354,0.77742 -3.51354,0.77742c0,0 1.19919,-1.36738 1.80384,-2.13956c0.67862,-0.86667 2.07163,-2.80982 2.07163,-2.80982c0,0 -8.93884,5.21318 -12.87821,6.93091c-7.71652,3.3647 -11.58039,1.45999 -11.58039,1.45999l5.62454,-2.33111c0,0 -4.9357,0.44214 -7.76668,-0.75629c-4.75549,-1.12565 -4.62805,-3.39991 -4.62805,-3.39991c0,0 3.0301,-0.08517 4.23657,-0.20284c0.95128,-0.09278 2.42036,-0.44635 2.42036,-0.44635c0,0 -1.09044,-0.24916 -1.67711,-0.46125c-0.65418,-0.23649 -2.06751,-0.89248 -2.06751,-0.89248c0,0 1.65328,-0.23646 2.2673,-0.41157c0.46561,-0.13279 1.09638,-0.5477 1.09638,-0.5477c0,0 -2.9217,-2.96744 -3.34332,-5.65564c-0.14037,-0.89491 -0.1893,-1.80132 -0.16964,-2.69855c0.6177,1.64517 1.51748,3.16251 2.56927,4.63774c0.6635,0.99149 2.08034,1.8822 3.23541,2.18345c0.22522,0.05873 2.03586,0.74722 1.93289,0.95476c-0.13243,0.26692 -0.53079,0.27166 -0.78738,0.42313c-0.32178,0.14176 -1.82379,0.63495 -1.74882,1.14192c0.04158,0.28118 1.9289,0.91418 2.54283,1.05335c-0.21974,0.05398 -0.55162,0.19103 -0.57091,0.19936c-0.52558,0.22732 -0.89351,0.30079 -1.20683,0.61029l-0.0729,-0.06127l-0.21773,0.25906c-0.03459,0.04026 -0.05669,0.09183 -0.05987,0.14893c-0.00765,0.13785 0.0979,0.25582 0.23577,0.26347l0.25684,0.01426c0.79675,0.17801 1.71282,0.23052 2.52688,0.2768c2.10098,0.11658 4.21581,0.14461 6.2754,-0.32504c-0.49643,0.46409 -0.97487,0.97269 -1.27198,1.56319c-0.00819,0.00357 -0.01639,0.00711 -0.02461,0.01067l-0.28548,0.12347c-0.08665,0.03534 -0.14982,0.11811 -0.15535,0.21776c-0.00765,0.13785 0.0979,0.25582 0.23577,0.26347c0.04193,0.00232 0.08201,-0.00582 0.1177,-0.02215l0.28584,-0.12363c0.3643,-0.15756 0.69149,-0.3147 1.03541,-0.51738c1.99852,-0.88237 5.57434,-2.41708 6.71258,-4.26732c1.14432,-2.28037 3.42049,-3.07355 5.89209,-2.9364c2.22827,0.12365 3.51179,-0.2729 5.44171,-1.291c0.09065,-0.04782 0.20467,-0.10192 0.32609,-0.16219c-0.17314,0.82333 -0.27167,2.07878 0.00649,2.30319c0.30436,0.24554 1.97314,-0.69847 2.0665,-0.39191c0.05914,0.19419 -0.07765,0.27294 -0.12434,0.39453c-0.01024,0.00897 -0.02044,0.01797 -0.03057,0.02704l0.00163,0.04774l-0.02468,-0.0141l-0.15449,0.2704c-0.02019,0.03367 -0.03272,0.07261 -0.03504,0.11454c-0.00765,0.13785 0.0979,0.25582 0.23577,0.26347c0.09965,0.00553 0.1889,-0.04808 0.23361,-0.13029l0.13889,-0.24309c0.6004,-0.52258 1.37314,-0.8789 1.78251,-1.59538c0.41853,-0.36783 1.67731,-2.01733 2.17809,-2.043c0.34387,-0.01763 2.41517,2.99062 2.91456,3.36502c1.64862,1.85438 4.02781,1.55724 5.62345,3.17182l0.07623,0.17626c0.03534,0.08665 0.11811,0.14982 0.21776,0.15535c0.09965,0.00553 0.1889,-0.04808 0.23361,-0.13029l0.1543,-0.27007c1.84676,-3.23231 1.83852,-1.28579 4.47113,0.21835c1.18851,0.67905 2.78169,1.14931 3.82144,2.03386c0.73643,0.6265 1.08429,1.42266 1.88621,1.85281c1.39371,-0.50348 2.02149,-1.36923 2.34616,-2.68162c0.00647,-0.02616 1.01789,0.56884 1.11365,0.59907c0.80267,0.2534 1.07909,0.56622 1.59803,-0.38096c0.01268,-0.16873 0.13618,-0.93566 0.05804,-1.37849c0.36199,0.23184 0.90937,0.53882 1.14642,0.74047c0.91068,0.77472 1.85854,1.28427 2.90649,1.883c0.77386,0.44022 1.86428,0.97596 2.73026,1.02775c0.53859,0.03221 1.17707,-0.48801 1.67987,-0.33807c0.96333,0.28727 1.40416,0.89649 2.35664,1.26816c1.16652,0.07286 1.92203,-1.13614 3.00514,-0.82889c0.50401,0.14297 1.01417,0.83346 0.84133,1.32662z" fill-opacity="0.06275" fill="#000000" stroke-linecap="butt"/><path d="M357.38607,116.18857c0,0 0.01188,0.20862 -0.00742,0.56714c-0.01483,0.01406 -0.03063,0.02773 -0.04742,0.04096c0,0 -0.1863,0.16672 -0.01959,0.35302c0.01116,0.01248 0.02241,0.02336 0.03368,0.03283c-0.12142,1.19711 -0.56132,3.28707 -2.09949,5.2069c-0.7468,0.93209 -3.00734,1.35471 -3.00734,1.35471c0,0 0.01487,-1.91487 -0.10684,-2.6384c-0.09502,-0.56491 -0.56335,-1.34586 -0.56335,-1.34586l-2.3058,2.54587c0,0 -0.75527,-2.09165 -1.39374,-3.01046c-0.61859,-0.89019 -2.37935,-2.41924 -2.37935,-2.41924c0,0 -1.28759,1.60768 -1.94338,2.19453c-0.51637,0.46207 -1.67402,1.04252 -1.67402,1.04252c0,0 0.00447,-0.83793 -0.09197,-1.26348c-0.10702,-0.47221 -0.52171,-1.4444 -0.52171,-1.4444c0,0 -1.83086,3.40149 -3.16643,4.53734c-1.38014,1.17376 -4.9851,2.39516 -4.9851,2.39516c0,0 -0.73391,-2.75022 -1.59181,-3.82549c-1.07625,-1.34897 -4.36044,-3.635 -4.36044,-3.635l-3.60331,2.98318c0,0 -0.26297,-1.83221 -2.26038,-3.06115c-1.97231,-1.2135 -5.67374,-1.81936 -6.5506,-2.5253c-0.98815,-0.79556 -1.20385,-1.86155 -1.20385,-1.86155c0,0 -1.59434,1.63709 -2.58182,2.41423c-0.8583,0.67547 -2.61448,1.51586 -2.61448,1.51586c0,0 0.26661,-0.81105 0.35192,-1.19145c0.08388,-0.37405 0.15567,-1.07223 0.15567,-1.07223c0,0 -1.15208,0.39308 -1.88916,0.57799c-0.9888,0.24808 -3.51354,0.77742 -3.51354,0.77742c0,0 1.19919,-1.36738 1.80384,-2.13956c0.67862,-0.86667 2.07163,-2.80982 2.07163,-2.80982c0,0 -8.93884,5.21318 -12.87821,6.93091c-7.71652,3.3647 -11.58039,1.45999 -11.58039,1.45999l5.62454,-2.33111c0,0 -4.9357,0.44214 -7.76668,-0.75629c-4.75549,-1.12565 -4.62805,-3.39991 -4.62805,-3.39991c0,0 3.0301,-0.08517 4.23657,-0.20284c0.95128,-0.09278 2.42036,-0.44635 2.42036,-0.44635c0,0 -1.09044,-0.24916 -1.67711,-0.46125c-0.65418,-0.23649 -2.06751,-0.89248 -2.06751,-0.89248c0,0 1.65328,-0.23646 2.2673,-0.41157c0.46561,-0.13279 1.09638,-0.5477 1.09638,-0.5477c0,0 -1.43088,-1.45328 -2.43444,-3.24711c0.97631,0.87574 2.17424,1.58267 3.20422,2.17456c0.22192,0.12533 1.27861,0.61352 1.74298,0.57851c-0.2518,0.12076 -0.6737,0.33778 -0.74028,0.38285c-0.5929,0.4014 -1.27236,0.54613 -1.93029,0.83202l-0.3506,0.09564c-0.10375,0.02571 -0.18315,0.11656 -0.18938,0.22885c-0.00553,0.09965 0.04808,0.1889 0.13029,0.23361l0.23018,0.13152l0.08283,-0.14496l0.00552,-0.0015c0.72157,0.17419 1.8078,-0.12696 1.97021,0.53188c0.25823,1.04758 -3.02411,1.50455 -3.54154,1.60428c-0.39932,-0.02071 -0.72111,0.08233 -1.12095,0.06378l-0.04728,0.03538l-0.0081,-0.01871l-0.24331,0.10524c-0.08665,0.03534 -0.14982,0.11811 -0.15535,0.21776c-0.00553,0.09965 0.04808,0.1889 0.13029,0.23361l0.23018,0.13152l0.02064,-0.03615c1.8958,1.42145 4.92808,0.87568 7.01884,1.66465c1.04581,-0.18437 2.08322,-0.08659 3.12652,-0.32096c0.14462,-0.03249 1.67926,-0.46343 1.63291,-0.2532c-0.13751,0.62365 -0.73162,1.11369 -1.03398,1.63035c-0.24228,0.42407 -0.55192,0.75782 -0.79178,1.1677l-0.13171,0.23052c-0.02019,0.03367 -0.03272,0.07261 -0.03504,0.11454c-0.00765,0.13785 0.0979,0.25582 0.23577,0.26347c0.04193,0.00232 0.08201,-0.00582 0.1177,-0.02215l0.24368,-0.10539l-0.01076,-0.02488c1.94365,-0.3471 4.19311,-1.66613 5.96293,-2.43159c2.24167,-0.96955 3.68806,-2.75702 5.71853,-3.95372c1.90013,-1.72151 4.0888,-1.97518 6.48779,-2.62517c0.18351,-0.05006 1.7626,-0.4898 2.27142,-0.77817c-0.14829,0.25417 -0.35204,0.70296 -0.39343,0.77521c-0.39098,0.68241 -0.83585,1.22265 -1.30704,1.85239l-0.00332,0.016l-0.00481,-0.00275l-0.13171,0.23052c-0.02019,0.03367 -0.03272,0.07261 -0.03504,0.11454c-0.00765,0.13785 0.0979,0.25582 0.23577,0.26347c0.04193,0.00232 0.08201,-0.00582 0.1177,-0.02215l0.24368,-0.10539l-0.02079,-0.04807c0.9184,-0.24444 1.72358,-0.87006 2.52275,-1.40278c-0.30361,0.49056 -0.61311,1.1947 -0.55478,1.37505c0.23333,0.72143 3.35895,-0.50972 4.03863,-0.80368c1.00468,-0.43453 1.48431,-1.13841 2.13289,-1.84384c0.3592,1.37972 4.49075,2.38878 5.15931,2.75289c2.1132,0.14346 3.982,1.03446 2.81337,3.07188l-0.13171,0.23052c-0.02019,0.03367 -0.03272,0.07261 -0.03504,0.11454c-0.00765,0.13785 0.0979,0.25582 0.23577,0.26347c0.02965,0.00165 0.05837,-0.00195 0.08528,-0.00997l0.36345,-0.09914l-0.00811,-0.0297c1.40955,-0.15653 2.59746,-0.73449 3.36443,-2.00489c0.96325,1.10096 4.74125,2.43265 5.52482,3.31507c0.18841,0.20701 1.23634,0.92056 1.19166,1.22188c-0.05451,0.36756 -0.39148,0.67254 -0.41874,1.11596l-0.10981,0.19221c-0.02019,0.03367 -0.03272,0.07261 -0.03504,0.11454c-0.00765,0.13785 0.0979,0.25582 0.23577,0.26347c0.04193,0.00232 0.08201,-0.00582 0.1177,-0.02215l0.23078,-0.0998c2.93109,-0.24793 3.52885,-0.84427 4.93787,-3.41245c-0.17978,-0.83855 1.49607,0.96907 1.54437,0.98649c0.94837,0.34185 1.39092,-1.06236 1.52028,-1.87263c0.31458,0.24939 0.80539,0.47919 0.97599,0.5572c1.11931,0.51181 3.69289,0.19543 4.26126,1.55492c0.0991,0.28509 -0.24198,0.8617 0.03928,1.08866c0.52859,0.42654 1.6465,-1.64488 2.19153,-1.42897c0.04249,0.01683 0.50978,0.95123 0.73428,1.10667c0.33847,0.23436 0.70824,0.17855 0.86524,0.58724c0.64699,0.72302 0.51977,0.91607 0.46382,1.76731l-0.12984,0.32773l0.10592,0.04196l-0.0165,0.25517c0.07674,-0.03356 0.153,-0.07005 0.22871,-0.10929l0.08102,0.09054l0.25498,-0.22818l-0.03229,-0.03608c1.54049,-0.96339 2.83021,-3.01991 3.56182,-4.67621c0.28269,0.28325 0.46601,0.69454 0.35196,1.01995z" fill-opacity="0.06275" fill="#000000" stroke-linecap="butt"/><path d="M366.95665,102.7071c0,0 -0.05254,1.89198 -0.94558,4.02851c-0.5692,1.95698 -2.12201,3.6879 -2.12201,3.6879c0,0 0.53107,1.63746 1.24294,2.48481c0.92501,1.10107 5.83689,5.07849 5.83689,5.07849c0,0 -1.69639,2.12325 -5.23079,3.19647c-2.80689,0.85232 -4.54058,0.80237 -5.3737,0.67879c1.13088,-0.53519 2.61812,-1.07879 3.5596,-1.7945c1.44253,-1.09661 2.09861,-2.31464 2.09861,-2.31464c0,0 -2.30082,-2.46189 -3.2734,-3.75204c-0.91606,-1.21519 -2.40269,-3.77742 -2.40269,-3.77742c0,0 4.82393,-3.15743 4.638,-6.08182c1.24704,-0.5704 1.97212,-1.43456 1.97212,-1.43456z" fill-opacity="0.06275" fill="#000000" stroke-linecap="butt"/><path d="M366.95961,102.65361c0,0 -0.05254,1.89198 -0.94558,4.02851c-0.5692,1.95698 -2.12201,3.6879 -2.12201,3.6879c0,0 0.53107,1.63746 1.24294,2.48481c0.92501,1.10107 5.83689,5.07849 5.83689,5.07849c0,0 -1.69639,2.12325 -5.23079,3.19647c-2.02929,0.6162 -3.49765,0.7608 -4.47029,0.74692c1.4674,-0.34232 3.79563,-1.40149 4.88538,-2.0849c1.17077,-0.73422 2.90225,-2.06308 2.90225,-2.06308c0,0 -1.69727,-0.78884 -2.5876,-1.56287c-0.89033,-0.77402 -2.30993,-2.12799 -3.69056,-3.67083c-0.36829,-0.55236 -1.55462,-2.02598 -1.55462,-2.02598c0,0 1.9591,-1.13487 2.8745,-2.21985c1.32223,-1.57352 1.83643,-2.90933 2.01251,-4.83034c0.54661,-0.40725 0.84699,-0.76525 0.84699,-0.76525z" fill-opacity="0.06275" fill="#000000" stroke-linecap="butt"/></g><path d="M334.7919,118.47975l8.70342,0.48296" fill="none" stroke="#000000" stroke-width="2" stroke-linecap="round"/><g stroke="#000000" stroke-width="2" stroke-linecap="butt"><path d="M310.29095,156.87975c0,0 0.13284,-1.68038 2.29258,-16.64273c0.78539,-5.441 12.97023,-3.35695 13.43684,0.74563c0.58637,5.15551 0.14361,16.77792 0.14361,16.77792z" fill="#000000"/><path d="M311.15573,156.62285l1.32969,-7.99099c0,0 0.6272,5.00386 6.00016,5.14571c5.60487,0.148 6.33201,-4.09989 6.33201,-4.09989l0.53005,8.03756z" fill="#ffffff"/></g></g></g></svg>