<svg version="1.1" xmlns="http://www.w3.org/2000/svg" xmlns:xlink="http://www.w3.org/1999/xlink" width="90.08771" height="209.90415" viewBox="0,0,90.08771,209.90415"><g transform="translate(-274.95614,-90.14953)"><g data-paper-data="{&quot;isPaintingLayer&quot;:true}" fill-rule="nonzero" stroke="#000000" stroke-width="2" stroke-linecap="butt" stroke-linejoin="miter" stroke-miterlimit="10" stroke-dasharray="" stroke-dashoffset="0" style="mix-blend-mode: normal"><path d="M339.98464,285.42312c0.52061,1.83199 5.88949,3.50607 8.88391,4.71745c3.23274,1.30779 3.77631,8.70991 3.77631,8.70991c0,0 -6.33322,-1.09366 -10.852,-0.1787c-1.14772,0.23239 -2.23838,0.12078 -3.23573,0.08183c-2.852,-0.11136 -4.941,-1.01991 -5.41938,-2.43674c-0.58174,-1.72293 -1.17336,-5.18194 -1.74402,-11.05372c-0.1059,-1.08969 -0.21108,-2.26247 -0.31534,-3.52267c-2.46071,-29.74253 -0.89255,-65.67503 0,-76.4633c0.89255,-10.78828 3.86566,-29.73918 6.3261,0c2.46044,29.73918 2.24971,64.51071 1.35707,75.30011c-0.07815,0.94455 0.2706,1.49416 1.22308,4.84583z" data-paper-data="{&quot;index&quot;:null}" fill="#e8ff00"/><path d="M295.76815,278.45633c-0.89265,-10.78939 -1.10337,-45.56092 1.35707,-75.30011c2.46044,-29.73918 5.43354,-10.78828 6.3261,0c0.89255,10.78828 2.46071,46.72077 0,76.4633c-0.10426,1.2602 -0.20944,2.43298 -0.31534,3.52267c-0.57066,5.87178 -1.16228,9.33079 -1.74402,11.05372c-0.47838,1.41682 -2.56738,2.32537 -5.41938,2.43674c-0.99735,0.03894 -2.08801,0.15056 -3.23573,-0.08183c-4.51877,-0.91496 -10.852,0.1787 -10.852,0.1787c0,0 0.54357,-7.40212 3.77631,-8.70991c2.99442,-1.21138 8.3633,-2.88546 8.88391,-4.71745c0.95247,-3.35167 1.30122,-3.90128 1.22308,-4.84583z" fill="#e8ff00"/><path d="M337.23937,158.78913c2.72688,-0.37153 12.33883,6.4376 12.33883,6.4376c0,0 24.80168,72.88931 9.45453,69.39253c-6.03449,-1.37493 -27.7404,-66.90113 -27.7404,-66.90113c0,0 2.67761,-8.48354 5.94703,-8.92899z" data-paper-data="{&quot;index&quot;:null}" fill="#242424"/><path d="M308.70767,166.32678c0,0 -21.70592,65.5262 -27.7404,66.90114c-15.34715,3.49678 9.45453,-69.39253 9.45453,-69.39253c0,0 9.61195,-6.80913 12.33884,-6.4376c3.26942,0.44545 5.94704,8.92899 5.94704,8.92899z" fill="#242424"/><path d="M289.07813,219.05841c3.10947,-23.3633 18.88138,-97.47926 27.91882,-97.47926c8.29137,0 27.01542,68.53239 28.86522,97.95247c0.89338,14.20865 -58.03879,8.95446 -56.78404,-0.4732z" fill="#242424"/><path d="M354.85298,125.92976c0,19.20858 -16.73686,34.78022 -37.38282,34.78022c-20.64597,0 -37.38282,-15.57164 -37.38282,-34.78022c0,-19.20858 16.73686,-34.78022 37.38282,-34.78022c20.64597,0 37.38282,15.57164 37.38282,34.78022z" fill="#242424"/><path d="M292.42816,129.12642c0,6.99923 -1.65491,12.67322 -3.69636,12.67322c-2.04144,0 -3.69636,-5.67399 -3.69636,-12.67322c0,-6.99923 1.65491,-12.67322 3.69636,-12.67322c2.04144,0 3.69636,5.67399 3.69636,12.67322z" fill="#000000"/><path d="M349.80104,128.14551c0,6.99923 -1.65491,12.67322 -3.69635,12.67322c-2.04144,0 -3.69636,-5.674 -3.69636,-12.67322c0,-6.99923 1.65491,-12.67322 3.69636,-12.67322c2.04144,0 3.69635,5.67399 3.69635,12.67322z" fill="#000000"/><path d="M341.26322,142.60013c0,7.709 -11.45149,17.25411 -24.62103,17.25411c-0.23995,0 -8.80671,-0.83127 -14.64861,-4.34352c-5.56366,-3.34498 -8.42149,-9.28388 -8.42149,-12.91059c0,-5.48533 11.70386,-6.07266 18.22575,-5.98181c2.46745,0.03437 4.77477,1.52288 4.84435,1.52288c1.04387,0 4.01926,-1.95056 5.04342,-1.96862c11.89676,-0.20981 19.57761,-0.67041 19.57761,6.42754z" fill="#e8ff00"/></g></g></svg>