<svg version="1.1" xmlns="http://www.w3.org/2000/svg" xmlns:xlink="http://www.w3.org/1999/xlink" width="351.7895" height="439.88061" viewBox="0,0,351.7895,439.88061"><g transform="translate(-71.61146,59.7884)"><g data-paper-data="{&quot;isPaintingLayer&quot;:true}" fill-rule="nonzero" stroke-linejoin="miter" stroke-miterlimit="10" stroke-dasharray="" stroke-dashoffset="0" style="mix-blend-mode: normal"><path d="M75.10909,377.59221c0,0 -24.27654,-183.07661 166.68189,-179.26744c190.95843,3.80917 178.96047,179.26744 178.96047,179.26744z" fill="#ffffff" stroke="#000000" stroke-width="5" stroke-linecap="butt"/><g stroke="#000000" stroke-width="5"><path d="M263.13127,313.78334c0,11.95201 -10.90825,18.32269 -23.3677,23.94325c-4.59313,2.07201 -23.61497,5.0311 -35.63793,0.73053c-18.20013,-6.51012 -19.75895,-25.94683 -19.75895,-25.94683c0,0 18.5693,5.30669 29.26649,1.27303c4.9348,-1.8608 5.19121,-11.14627 8.10577,-16.14549c3.40333,-5.8376 9.51052,-7.33732 16.87349,-7.33732c13.6685,0 24.51881,11.5308 24.51881,23.48281z" fill="#ff0000" stroke-linecap="butt"/><path d="M248.39696,304.34418c0,0 -9.5945,17.40201 -19.56901,16.5761" fill="none" stroke-linecap="round"/><path d="M340.96992,335.42842c0,0 -28.15137,1.4493 -45.93839,-8.08564c-17.78702,-9.53492 -21.98516,-19.67649 -14.99323,-29.02042c6.99193,-9.34391 27.07925,-9.18909 44.86627,0.34585c17.78702,9.53494 16.06535,36.76021 16.06535,36.76021z" fill="#ff0000" stroke-linecap="butt"/><path d="M308.06117,314.4816c-7.71697,-3.57779 -24.98272,-16.86799 -24.98272,-16.86799" fill="none" stroke-linecap="round"/><path d="M292.92872,302.94418c-1.33209,11.54157 -14.06775,19.5526 -28.44588,17.89311c-14.37813,-1.65949 -24.95401,-12.36107 -23.62192,-23.90264c1.33209,-11.54157 14.06775,-19.5526 28.44588,-17.89311c14.37813,1.65949 24.95401,12.36107 23.62192,23.90264z" fill="#ff0000" stroke-linecap="butt"/><path d="M254.61299,282.01249c10.29217,2.03302 14.96453,22.33169 14.96453,22.33169" fill="none" stroke-linecap="round"/></g><path d="M374.35949,42.43132c0,14.88637 -14.25578,32.03915 -46.91731,35.9058c-14.04012,1.66216 -34.27525,2.5774 -43.5903,-2.23348c-15.86117,-8.19171 -21.5784,-22.09537 -21.5784,-22.09537l-38.20524,0.91255c0,0 -7.68413,10.76201 -18.9674,18.81816c-4.55749,3.254 -7.33415,5.66356 -14.63863,7.96879c-7.30448,2.30524 -32.36583,4.19983 -42.37245,3.58147c-39.00467,-2.41039 -58.94441,-33.61476 -57.36574,-63.90696c1.9285,-37.00463 54.6702,-78.67068 128.92522,-78.67068c37.47849,0 82.06184,10.96468 111.5573,31.54205c28.94301,20.19195 43.15297,49.8254 43.15297,68.17766z" fill="#ffffff" stroke="#000000" stroke-width="5" stroke-linecap="butt"/><path d="M211.10471,83.83286l10.21357,-30.8081l45.54241,-0.66975l8.70663,31.47785z" fill="#ffffff" stroke="#000000" stroke-width="5" stroke-linecap="butt"/><path d="M381.92666,193.60662c-0.84433,26.12244 -27.14776,48.44733 -66.32,68.9025c-14.47278,7.55749 -26.72627,31.35988 -45.7989,31.35988c-20.5008,0 -30.62156,-11.76892 -49.69691,-19.8731c-22.15843,-9.41405 -47.02603,-15.8639 -64.38236,-28.56493c-19.2261,-14.0693 -29.81048,-34.55461 -29.81048,-47.91055c0,-18.21997 14.85044,-34.68385 38.75739,-46.45822c2.08194,-1.02538 -3.46743,-3.02809 -4.72853,-7.04166c-2.01945,-6.42709 -0.60536,-16.2099 3.81293,-21.83645c4.77605,-6.08216 14.48744,-9.37447 21.5481,-9.45934c3.55001,-0.04267 6.42994,4.85405 7.67556,2.28794c10.86164,-22.37626 21.36171,-47.79215 53.80195,-46.76283c17.98183,0.57057 32.4884,18.13525 44.38763,35.78518c1.30089,1.92962 2.10299,-3.42166 11.46134,-0.78611c8.01454,2.25709 14.50145,8.39727 17.55411,12.72534c2.50189,3.54719 6.45562,10.25386 5.30277,14.55126c-1.35132,5.03729 -7.91089,7.45304 -4.9988,7.89446c33.66689,5.10339 62.58533,19.57276 61.43421,55.18662z" data-paper-data="{&quot;index&quot;:null}" fill="#ffdebc" stroke="#000000" stroke-width="5" stroke-linecap="butt"/><path d="M332.65881,187.04525c-14.38203,24.21759 -38.56632,45.71187 -67.21599,49.56716c-34.48184,4.64011 -74.29614,-13.27631 -96.24277,-43.1209" fill="none" stroke="#000000" stroke-width="6.5" stroke-linecap="round"/><path d="M189.24986,140.31142c-2.20952,8.92015 -25.13132,11.02432 -25.13132,11.02432" fill="none" stroke="#000000" stroke-width="5" stroke-linecap="round"/><path d="M318.15473,137.7774c0,0 -16.89812,3.23821 -22.33169,-14.04364" fill="none" stroke="#000000" stroke-width="5" stroke-linecap="round"/><path d="M218.46791,104.16475c0,0 3.06768,-2.15758 5.05558,-3.29879c2.14428,-1.23096 7.37649,-3.83814 7.37649,-3.83814" fill="none" stroke="#000000" stroke-width="5" stroke-linecap="round"/><path d="M255.76413,91.73268c0,0 5.60281,2.66761 7.80515,4.32903c2.17145,1.63812 5.31759,5.57058 5.31759,5.57058" fill="none" stroke="#000000" stroke-width="5" stroke-linecap="round"/><path d="M252.31078,125.1151c-0.55069,9.85191 4.48192,20.77212 10.40738,25.62558c6.75795,5.53537 14.49374,6.86643 21.74399,11.67423c7.40594,4.91104 16.9398,13.82763 13.20268,23.47922c-2.36158,6.0991 -12.1484,5.89402 -20.38735,10.76378c-13.89151,8.21082 -11.50426,15.52412 -28.42005,15.02126c-17.61387,-0.52362 -17.4198,-9.03963 -32.59029,-15.43542c-10.54899,-4.4474 -16.7775,1.23186 -21.51226,-9.1985c-4.4829,-9.87552 13.11829,-27.89796 27.16639,-17.03655" fill="none" stroke="#000000" stroke-width="5" stroke-linecap="round"/><path d="M239.18803,126.61155c0,4.89524 -3.40145,8.86361 -7.59738,8.86361c-4.19593,0 -7.59738,-3.96837 -7.59738,-8.86361c0,-4.89524 3.40145,-8.86361 7.59738,-8.86361c4.19593,0 7.59738,3.96837 7.59738,8.86361z" fill="#000000" stroke="none" stroke-width="0" stroke-linecap="butt"/><path d="M278.09582,124.07909c0,4.89524 -3.40147,8.86361 -7.59738,8.86361c-4.19593,0 -7.59738,-3.96837 -7.59738,-8.86361c0,-4.89524 3.40145,-8.86361 7.59738,-8.86361c4.19591,0 7.59738,3.96837 7.59738,8.86361z" fill="#000000" stroke="none" stroke-width="0" stroke-linecap="butt"/><path d="M154.92619,200.62844c-6.31019,-6.7988 -4.86619,-14.38993 2.11491,-20.21004c6.09455,-5.081 14.0487,-6.62142 18.14477,-2.81232" fill="none" stroke="#000000" stroke-width="8" stroke-linecap="round"/><path d="M327.59389,170.0087c9.83672,-3.92633 20.83584,-1.74522 19.10856,13.35297" fill="none" stroke="#000000" stroke-width="8" stroke-linecap="round"/><path d="M304.03134,21.37948c0,0 -5.42701,35.57093 -60.77338,34.69289c-46.41048,-0.73627 -52.07805,-30.507 -52.07805,-30.507" fill="#ffffff" stroke="#000000" stroke-width="5" stroke-linecap="round"/><path d="M135.53128,376.04588l3.68358,-45.12383" fill="none" stroke="#000000" stroke-width="5" stroke-linecap="round"/><path d="M365.75488,326.31759l8.28805,50.64919" fill="none" stroke="#000000" stroke-width="5" stroke-linecap="round"/></g></g></svg>