<svg version="1.1" xmlns="http://www.w3.org/2000/svg" xmlns:xlink="http://www.w3.org/1999/xlink" width="100.4812" height="253.22501" viewBox="0,0,100.4812,253.22501"><g transform="translate(-183.41835,-53.3875)"><g data-paper-data="{&quot;isPaintingLayer&quot;:true}" fill-rule="nonzero" stroke-linejoin="miter" stroke-miterlimit="10" stroke-dasharray="" stroke-dashoffset="0" style="mix-blend-mode: normal"><path d="M189.75355,306.61251v-253.22501h91.18203v253.22501z" fill-opacity="0.01" fill="#000000" stroke="none" stroke-width="0" stroke-linecap="butt"/><path d="M192.37548,304.8916c0,0 0.18282,-94.88387 0.02483,-118.51201c-0.05451,-8.15261 8.37851,-38.56088 41.99367,-38.914c33.41367,-0.351 42.00823,31.47993 42.00035,38.88963c-0.07659,46.24274 0.09369,118.48648 0.09369,118.48648l-13.3733,0.09614l0.05547,-115.34311c0,0 -0.61301,-1.61748 -1.67443,-1.62419c-1.13177,-0.00716 -1.66339,1.58567 -1.66339,1.58567l0.07215,115.36995l-50.6827,0.07222l-0.18039,-115.73309c0,0 -0.59593,-1.45279 -1.68917,-1.45824c-0.87895,-0.00438 -1.51211,1.43279 -1.51211,1.43279l0.0122,115.5668z" data-paper-data="{&quot;index&quot;:null}" fill="#362975" stroke="#000000" stroke-width="0" stroke-linecap="butt"/><path d="M192.37548,304.88246c0,0 0.18282,-75.65131 0.02483,-101.30286c-0.00001,-0.00168 2.31474,5.90839 5.5453,9.78665c3.48007,4.1778 7.89454,6.34617 7.89454,6.34617l0.0122,85.07781z" fill-opacity="0.10196" fill="#000000" stroke="#000000" stroke-width="0" stroke-linecap="butt"/><path d="M263.01115,304.79024l0.0122,-85.07781c0,0 4.41447,-2.16837 7.89454,-6.34617c3.23056,-3.87826 5.54531,-9.78833 5.5453,-9.78665c-0.15799,25.65156 0.02483,101.30287 0.02483,101.30287z" data-paper-data="{&quot;index&quot;:null}" fill-opacity="0.10196" fill="#000000" stroke="#000000" stroke-width="0" stroke-linecap="butt"/><path d="M192.37548,304.88246c0,0 0.18282,-46.77339 0.02483,-72.42495c-0.00001,-0.00184 1.34081,4.64315 4.87532,7.80145c3.16498,2.8281 8.56453,4.20596 8.56453,4.20596l0.0122,60.32531z" fill-opacity="0.10196" fill="#000000" stroke="#000000" stroke-width="0" stroke-linecap="butt"/><path d="M263.01115,304.79024l0.0122,-60.32531c0,0 5.39954,-1.37786 8.56453,-4.20596c3.5345,-3.1583 4.87532,-7.80328 4.87532,-7.80145c-0.15799,25.65156 0.02483,72.42495 0.02483,72.42495z" data-paper-data="{&quot;index&quot;:null}" fill-opacity="0.10196" fill="#000000" stroke="#000000" stroke-width="0" stroke-linecap="butt"/><path d="M192.37548,304.88246c0,0 0.18282,-22.88941 0.02483,-48.54096c-0.00002,-0.00349 1.94598,4.47012 5.1938,6.84789c3.46507,2.53682 8.24604,2.98824 8.24604,2.98824l0.0122,38.6126z" fill-opacity="0.10196" fill="#000000" stroke="#000000" stroke-width="0" stroke-linecap="butt"/><path d="M263.01115,304.79024l0.0122,-38.61259c0,0 4.78096,-0.45142 8.24604,-2.98824c3.24782,-2.37777 5.19383,-6.85138 5.1938,-6.84789c-0.15799,25.65155 0.02483,48.54096 0.02483,48.54096z" data-paper-data="{&quot;index&quot;:null}" fill-opacity="0.10196" fill="#000000" stroke="#000000" stroke-width="0" stroke-linecap="butt"/><path d="M234.22732,238.82951c11.07568,-0.27523 19.4178,-7.49444 25.62945,-16.80489l0.04775,82.8954l-50.6827,0.0784l-0.12134,-84.51765c6.33225,10.3945 14.62118,18.6098 25.12684,18.34874z" fill-opacity="0.10196" fill="#000000" stroke="#000000" stroke-width="0" stroke-linecap="butt"/><path d="M234.97732,259.18519c10.92348,-0.00495 18.96876,-5.1859 24.89352,-12.75364l0.03369,58.48848l-50.6827,0.0784l-0.08576,-59.73266c6.1148,8.20471 14.45842,13.92457 25.84126,13.91942z" fill-opacity="0.10196" fill="#000000" stroke="#000000" stroke-width="0" stroke-linecap="butt"/><path d="M234.72732,284.15477c11.05972,-0.00501 19.18583,-6.54065 25.15598,-16.07637l0.02123,36.84158l-50.6827,0.0784l-0.05397,-37.59244c6.06699,9.9076 14.32394,16.75391 25.55947,16.74883z" fill-opacity="0.10196" fill="#000000" stroke="#000000" stroke-width="0" stroke-linecap="butt"/><path d="M276.39498,203.62174c0.00134,-0.27608 0.00381,-0.26572 0,0z" fill-opacity="0.10196" fill="#000000" stroke="#000000" stroke-width="0" stroke-linecap="butt"/><path d="M276.39546,197.30627c0.00225,-0.31639 0.00643,-0.30223 0,0z" fill-opacity="0.10196" fill="#000000" stroke="#000000" stroke-width="0" stroke-linecap="butt"/><path d="M234.23271,239.85123l-13.26606,-65.14738l13.82133,-16.20365l13.23026,16.24152z" fill="#e6e6e6" stroke="#000000" stroke-width="0" stroke-linecap="butt"/><path d="M229.1216,240.18456l1.33333,-55.11111l2.95276,-11.06444l2.04515,-0.0335l2.89098,11.09794l0.88889,55.22222l-5.12228,12.71905z" fill="#ff0000" stroke="#000000" stroke-width="0" stroke-linecap="butt"/><path d="M229.1216,240.18456c0,0 1.02471,-42.35512 1.21655,-50.28447c0.00155,-0.06393 -0.23296,4.46412 3.82958,4.38118c4.14372,-0.0846 4.25225,-4.47584 4.25371,-4.38534c0.12778,7.93797 0.81127,50.39973 0.81127,50.39973l-5.12228,12.71905z" fill-opacity="0.10196" fill="#000000" stroke="#000000" stroke-width="0" stroke-linecap="butt"/><path d="M229.1216,240.18456c0,0 0.63218,-25.08256 0.87946,-35.30376c0.00078,-0.03218 -0.28488,5.12699 4.0017,5.04476c4.97922,-0.09553 4.59408,-5.11578 4.59517,-5.04784c0.15519,9.64124 0.63478,35.41796 0.63478,35.41796l-5.12228,12.71905z" fill-opacity="0.10196" fill="#000000" stroke="#000000" stroke-width="0" stroke-linecap="butt"/><path d="M229.1216,240.18456c0,0 0.24178,-9.99375 0.4382,-18.11244c0.00227,-0.09378 0.22579,5.72882 4.43555,5.67893c4.31761,-0.05116 4.94749,-5.46323 4.94927,-5.35281c0.12915,8.02337 0.28809,17.89742 0.28809,17.89742l-5.12228,12.71905z" fill-opacity="0.10196" fill="#000000" stroke="#000000" stroke-width="0" stroke-linecap="butt"/><path d="M234.78826,159.0734l7.88889,9.22222l-8.33333,8.33333l-8.06788,-8.26709z" fill="#ff0000" stroke="#000000" stroke-width="0" stroke-linecap="butt"/><path d="M234.67715,158.29566l-13.70609,16.42987c0,0 -2.00437,-9.86605 -2.18279,-10.7632c-1.05317,-5.29559 -5.1321,-16.44524 16.11111,-16c19.3212,0.40496 17.19618,5.26687 15.12443,16.8034c-0.27325,1.52158 -2.00556,9.97598 -2.00556,9.97598z" fill="#e6e6e6" stroke="#000000" stroke-width="0" stroke-linecap="butt"/><path d="M221.1216,176.85123l-0.33333,-2.55556l14.13637,-16.83473l13.14979,17.30128l-0.61339,2.74884l-12.56166,-18.2154z" fill="#000000" stroke="none" stroke-width="0" stroke-linecap="butt"/><path d="M187.10152,123.44439c0,0 6.63274,-4.5335 6.77084,-5.19627c0.36218,-1.73829 -0.18054,-30.75469 38.70737,-31.82696c48.03623,-0.69942 41.98661,27.06131 44.69424,32.2989c3.71257,7.18153 6.62558,13.32074 6.62558,13.32074c0,0 -2.97792,-1.57207 -4.39045,-2.39922c-1.31744,-0.77147 -4.09098,-2.40831 -4.09098,-2.40831c0,0 3.32656,7.92202 1.41078,15.8431c-1.6813,7.25819 -7.85368,13.18698 -7.85368,13.18698l-1.24321,-1.79702c0,0 -1.10055,1.68264 -2.32458,2.55139c-1.22403,0.86874 -3.70065,2.22985 -3.70065,2.22985l-0.09906,-2.83577c0,0 -7.59786,8.43482 -26.20542,8.32274c-17.54828,-0.19558 -28.05735,-8.17243 -28.05735,-8.17243l-0.12505,2.03242c0,0 -4.19144,-2.52078 -6.65228,-7.43163c-2.93304,-5.85316 -3.48621,-9.37285 -3.48621,-9.37285c0,0 -2.51724,1.45391 -6.1525,2.12395c-4.55518,0.8396 -7.47578,0.26431 -7.47578,0.26431c0,0 3.88277,-2.08014 6.00928,-3.6516c1.89413,-1.39974 2.84816,-2.58544 2.84816,-2.58544c0,0 -2.26811,0.8304 -4.55517,1.23863c-2.38628,0.42595 -4.33705,0.40645 -4.33705,0.40645c0,0 5.35386,-3.8563 7.56626,-8.32484c2.08887,-4.21902 2.25966,-8.3884 2.25966,-8.3884c0,0 -1.46537,0.50651 -3.58378,0.60871c-1.3428,0.06479 -2.55896,-0.03744 -2.55896,-0.03744z" fill="#000000" stroke="none" stroke-width="1.5" stroke-linecap="butt"/><path d="M205.16598,132.11168c-0.62105,-5.58335 0.36052,-13.13266 0.36052,-13.13266c0,0 3.67037,-0.03157 14.97413,-2.40708c8.68425,-1.82503 22.11237,-7.26297 22.11237,-7.26297c0,0 -2.32458,2.30051 -3.66738,3.41448c-1.42755,1.18428 -4.29706,3.49319 -4.29706,3.49319c0,0 8.43501,-1.27664 15.79253,-3.62054c9.22102,-2.7068 11.39934,-4.63396 13.93684,-3.51595c2.99487,1.31952 1.10852,17.74758 0.77318,22.00246c-0.45375,4.34009 -2.72623,7.27251 -3.39026,9.58513c-0.66403,2.31261 -1.78601,4.69791 -3.71948,12.27924c-1.20661,4.73128 -3.13362,6.8323 -9.43737,11.22363c-6.30375,4.39133 -9.74339,7.08347 -14.00482,7.13628c-4.10103,0.05083 -9.61627,-3.90447 -14.99687,-7.94831c-5.72945,-4.30604 -7.93662,-5.72414 -8.84128,-10.82473c-0.81473,-4.59362 -2.44993,-8.35106 -2.82242,-12.43897c-0.27225,-2.98775 -2.43342,-4.93402 -2.7726,-7.98319z" fill="#4dffdd" stroke="#000000" stroke-width="1.5" stroke-linecap="butt"/><g stroke="none" stroke-width="0" stroke-linecap="butt"><path d="M234.08857,171.00038c-3.79704,-0.16431 -8.81135,-0.07461 -11.81769,-2.46467c-0.95076,-0.75587 -2.69861,-2.54037 -4.72224,-4.88094c-1.88492,-2.18014 -4.08581,-4.95187 -4.08581,-4.95187c0,0 3.66867,-1.24183 5.34407,-2.38186c2.87815,-1.95845 7.20137,-4.68034 9.43662,-4.58361c1.76721,0.07648 7.26537,1.8828 7.26537,1.8828c0,0 5.59655,-2.61492 7.96028,-1.77186c1.66121,0.59249 3.90899,2.96962 6.04824,4.87203c2.0198,1.79619 5.08579,3.35528 5.08579,3.35528c0,0 -1.7328,1.75622 -2.87714,3.94439c-0.80622,1.54164 -2.1158,3.19023 -3.86,4.46499c-3.39069,2.4781 -9.50707,2.70013 -13.77751,2.51533z" fill="#000000"/><path d="M218.16221,158.36635c0,0 2.26012,-1.21205 4.54309,-2.42561c2.14992,-1.14283 4.31075,-2.287 4.91781,-2.42152c2.42789,-0.53799 7.83616,2.33373 7.83616,2.33373c0,0 5.01043,-3.1546 7.54357,-2.24224c1.28806,0.46391 7.40105,6.00807 7.40105,6.00807c0,0 -5.66038,0.49726 -9.02354,-0.30394c-1.31488,-0.31324 -0.44217,-2.57099 -5.15039,-2.56564c-4.81159,0.00547 -3.65051,1.43711 -5.95035,1.84197c-2.87692,0.50644 -12.11739,-0.22483 -12.11739,-0.22483z" fill="#4dffdd"/><path d="M234.63998,169.43129c-3.01587,-0.1322 -7.89056,-0.37111 -10.5469,-2.2222c-1.89525,-1.32071 -7.10054,-7.56501 -7.10054,-7.56501c0,0 11.20338,0.35002 13.13188,1.27026c1.74473,0.83256 0.76933,3.44364 5.67511,3.59584c5.00133,0.0954 3.52303,-2.28494 5.86339,-3.20744c1.27748,-0.50355 9.30026,-0.34458 9.30026,-0.34458c0,0 -2.89635,5.21864 -4.65735,6.36794c-2.68822,1.75445 -8.46908,2.24533 -11.66585,2.1052z" fill="#4dffdd"/></g><path d="M256.89741,120.53625c0,0 1.64039,0.2435 4.57996,0.84999c2.68495,0.55396 4.78825,1.33515 4.78825,1.33515l0.20996,0.89596c0,0 -7.80183,-2.39616 -16.26715,-1.89137c-6.76867,0.40363 -10.72207,2.15304 -10.72207,2.15304l0.04923,-3.19758c0,0 3.3657,-1.30466 8.46263,-1.42054c5.27783,-0.11998 8.70711,0.45263 8.70711,0.45263z" data-paper-data="{&quot;index&quot;:null}" fill="#000000" stroke="none" stroke-width="1.5" stroke-linecap="butt"/><path d="M234.90283,154.63967c-1.1125,0 -3.8076,-2.49602 -4.07512,-4.1062c-0.23937,-1.44066 1.41529,-2.93053 4.07512,-2.93053c2.65985,0 4.52217,0.37571 4.33695,3.20654c-0.15719,2.40244 -1.67711,3.83019 -4.33695,3.83019z" fill="#4dffdd" stroke="#000000" stroke-width="1.15" stroke-linecap="butt"/><path d="M238.7793,131.60135c0,0 0.11042,3.03906 0.0062,5.4558c-0.20635,4.78557 -1.16385,21.25228 -1.16385,21.25228l-3.20878,0.00661c0,0 -0.8641,-3.19445 -1.20877,-7.27259c-0.46655,-5.52012 -0.48374,-12.47331 -0.82159,-15.02956c-0.32025,-2.42307 -0.96418,-4.37477 -0.96418,-4.37477" fill="#4dffdd" stroke="#000000" stroke-width="1.3" stroke-linecap="round"/><path d="M206.99507,139.86155c0,0 -5.30778,-2.69249 -6.63369,-6.87085c-1.3951,-4.39645 -1.57248,-7.45097 0.5167,-7.64935c2.08917,-0.19839 2.90912,1.81966 4.01693,6.39672c1.10781,4.57706 2.10008,8.12349 2.10008,8.12349z" data-paper-data="{&quot;index&quot;:null}" fill="#4dffdd" stroke="#000000" stroke-width="1" stroke-linecap="butt"/><path d="M206.77705,136.83947c0,0 -3.83531,-2.238 -4.64707,-6.46939c-0.45284,-2.36041 2.32102,-1.74558 2.32102,-1.74558" fill="none" stroke="#000000" stroke-width="0.25" stroke-linecap="round"/><path d="M210.01998,131.74404c0.07633,-3.74499 5.20687,-6.84105 10.98915,-6.78142c5.78228,0.05964 9.71483,3.25237 9.63851,6.99738c-0.07633,3.74499 -4.4376,6.73257 -10.21989,6.67294c-5.78228,-0.05964 -10.48412,-3.1439 -10.40778,-6.8889z" fill="#ffffff" stroke="#000000" stroke-width="1.4" stroke-linecap="butt"/><path d="M214.79563,131.83433c0.04304,-2.11172 2.48439,-3.79877 5.4529,-3.76816c2.96854,0.03061 5.34009,1.76732 5.29705,3.87903c-0.04304,2.11172 -2.48438,3.79877 -5.4529,3.76816c-2.96854,-0.03061 -5.34009,-1.76732 -5.29705,-3.87903z" fill="#000000" stroke="none" stroke-width="1.5" stroke-linecap="butt"/><path d="M239.1371,131.7446c0.21903,-3.74215 4.79179,-6.78163 10.51468,-6.78163c5.72288,0 9.98097,3.03624 9.98097,6.78163c0,3.74539 -4.18183,6.94436 -10.43845,6.99859c-5.95119,0.05159 -10.28594,-3.09048 -10.0572,-6.99859z" fill="#ffffff" stroke="#000000" stroke-width="1.4" stroke-linecap="butt"/><path d="M244.09045,131.81008c0,-2.15767 2.45883,-3.90681 5.49196,-3.90681c3.03313,0 5.49196,1.74914 5.49196,3.90681c0,2.15767 -2.45882,3.90681 -5.49196,3.90681c-3.03313,0 -5.49196,-1.74914 -5.49196,-3.90681z" fill="#000000" stroke="none" stroke-width="1.5" stroke-linecap="butt"/><path d="M209.94633,131.33662c0,0 0.06841,-6.90155 11.40858,-6.75593c10.19241,0.12697 10.28338,7.20173 10.28338,7.20173z" fill="#4dffdd" stroke="#000000" stroke-width="1.15" stroke-linecap="butt"/><path d="M238.73069,131.43684c0,0 -0.26567,-7.24075 12.05108,-6.96898c10.45419,0.25529 10.27393,7.38934 10.27393,7.38934z" fill="#4dffdd" stroke="#000000" stroke-width="1.15" stroke-linecap="butt"/><path d="M213.74504,123.67218c0,0 3.62629,-1.39254 8.64426,-1.74682c5.56054,-0.3926 8.35992,-0.05074 8.35992,-0.05074l0.31756,3.16745c0,0 -4.12769,-0.52107 -8.62866,-0.39895c-6.01951,0.16332 -7.15101,1.09698 -11.72781,1.44781c-3.92165,0.3006 -7.2504,0.1216 -7.2504,0.1216l-0.02787,-0.94282c0,0 3.86901,0.05664 5.63235,-0.05233c1.4554,-0.08994 4.27853,-0.71815 4.27853,-0.71815z" fill="#000000" stroke="none" stroke-width="1.5" stroke-linecap="butt"/><path d="M265.35912,131.73805c1.10781,-4.57706 1.92774,-6.59511 4.01693,-6.39672c2.08917,0.19839 1.9118,3.2529 0.5167,7.64935c-1.32591,4.17836 -6.63369,6.87085 -6.63369,6.87085c0,0 0.99226,-3.54642 2.10008,-8.12349z" data-paper-data="{&quot;index&quot;:null}" fill="#4dffdd" stroke="#000000" stroke-width="1" stroke-linecap="butt"/><path d="M265.80313,128.62452c0,0 2.77387,-0.61483 2.32102,1.74558c-0.81177,4.23139 -4.64707,6.46939 -4.64707,6.46939" data-paper-data="{&quot;index&quot;:null}" fill="none" stroke="#000000" stroke-width="0.25" stroke-linecap="round"/><g stroke-width="0"><path d="M205.1097,133.91909l-0.47621,-6.43374c0,0 18.60979,-0.73528 30.85994,-0.73528c13.00804,0 30.6978,0.73528 30.6978,0.73528l-0.47621,6.43374c0,0 -19.69581,-1.03944 -30.32375,-1.03944c-10.59388,0 -30.28157,1.03944 -30.28157,1.03944z" fill="#000000" stroke="none" stroke-linecap="butt"/><path d="M218.72917,127.529c7.11749,0.21678 15.71506,1.93265 15.4828,5.96955c-0.23226,4.0369 -5.55546,8.98163 -16.32386,8.64936c-7.11733,-0.21961 -12.85783,-4.12705 -12.62557,-8.16395c0.23226,-4.0369 6.34915,-6.67175 13.46664,-6.45497z" fill="#000000" stroke="#9966ff" stroke-linecap="butt"/><path d="M265.57599,134.08832c0.23226,4.0369 -5.50825,7.94434 -12.62557,8.16396c-10.76841,0.33227 -16.09161,-4.61246 -16.32386,-8.64936c-0.23226,-4.0369 8.36531,-5.75278 15.4828,-5.96955c7.11749,-0.21678 13.23438,2.41806 13.46664,6.45497z" data-paper-data="{&quot;index&quot;:null}" fill="#000000" stroke="#9966ff" stroke-linecap="butt"/><path d="M229.30843,138.1108c-4.78454,3.43187 -11.85375,2.40595 -11.85375,2.40595c0,0 6.19994,-1.52191 9.44549,-4.31118c3.92364,-3.37202 5.39452,-6.33098 5.39452,-6.33098c0,0 1.35201,5.12444 -2.98627,8.23621z" fill="#e6e6e6" stroke="#ffffff" stroke-linecap="round"/><path d="M260.77521,138.42151c-4.78454,3.43187 -11.74698,2.01755 -11.74698,2.01755c0,0 5.34584,-1.28887 9.23197,-3.8451c4.0304,-3.60506 5.50129,-6.40866 5.50129,-6.40866c0,0 1.35201,5.12444 -2.98627,8.23621z" fill="#e6e6e6" stroke="#ffffff" stroke-linecap="round"/></g></g></g></svg>