<svg version="1.1" xmlns="http://www.w3.org/2000/svg" xmlns:xlink="http://www.w3.org/1999/xlink" width="466.20776" height="253.22501" viewBox="0,0,466.20776,253.22501"><g transform="translate(-8.54131,-53.3875)"><g data-paper-data="{&quot;isPaintingLayer&quot;:true}" fill-rule="nonzero" stroke-linejoin="miter" stroke-miterlimit="10" stroke-dasharray="" stroke-dashoffset="0" style="mix-blend-mode: normal"><path d="M255.62757,200.33376c-0.57113,0 -1.03411,-0.46299 -1.03411,-1.03411c0,-0.57113 0.46299,-1.03413 1.03411,-1.03413c0.57113,0 1.03411,0.463 1.03411,1.03413c0,0.57113 -0.46299,1.03411 -1.03411,1.03411z" fill="#000000" stroke="none" stroke-width="1.5" stroke-linecap="butt"/><path d="M250.36768,204.56936c-4.4635,-0.31439 -6.55245,-1.79392 -6.16985,-2.58011c0.11788,-0.24224 2.84645,1.06355 6.97038,1.3048c6.40897,0.37493 8.51033,-0.63173 8.51033,-0.63173v1.34616c0,0 -2.4135,1.04672 -9.31086,0.56089z" fill="#000000" stroke="#000000" stroke-width="0" stroke-linecap="butt"/><path d="M222.55493,199.29965c0,-0.57113 0.46299,-1.03413 1.03411,-1.03413c0.57113,0 1.03413,0.463 1.03413,1.03413c0,0.57113 -0.463,1.03411 -1.03413,1.03411c-0.57113,0 -1.03411,-0.46299 -1.03411,-1.03411z" fill="#000000" stroke="none" stroke-width="1.5" stroke-linecap="butt"/><path d="M228.84893,204.56936c-6.89736,0.48585 -9.31086,-0.56089 -9.31086,-0.56089v-1.34616c0,0 2.10136,1.00666 8.51033,0.63173c4.12393,-0.24126 6.85251,-1.54704 6.97039,-1.3048c0.3826,0.78618 -1.70634,2.26571 -6.16985,2.58011z" fill="#000000" stroke="#000000" stroke-width="0" stroke-linecap="butt"/><path d="M119.18383,306.61251v-253.22501h259.26344v253.22501z" fill-opacity="0.01" fill="#000000" stroke="none" stroke-width="0" stroke-linecap="butt"/><path d="M135.19291,304.39158c0,0 -1.80656,-94.38387 -2.25578,-118.01201c-0.15499,-8.15261 23.27826,-36.76129 114.30883,-36.9211c89.85689,-0.15775 113.32705,29.48704 113.30465,36.89673c-0.21778,46.24274 1.86038,117.98648 1.86038,117.98648l-29.84582,0.09614l-0.45158,-114.84311c0,0 0.21465,-3.0993 -8.00761,-3.15415c-9.76527,-0.06514 -8.37478,3.11562 -8.37478,3.11562l0.58426,114.86995l-137.08885,0.07222l-0.86833,-115.23309c0,0 0.79469,-2.919 -8.2048,-2.93443c-8.84521,-0.01515 -8.00602,2.90899 -8.00602,2.90899l1.00402,115.0668z" fill="#808080" stroke="#000000" stroke-width="2" stroke-linecap="butt"/><path d="M246.36546,261.12113c-2.32857,0 -4.21625,-0.66389 -4.21625,-1.48284c0,-0.81895 1.88768,-1.48284 4.21625,-1.48284c2.32857,0 4.21625,0.66389 4.21625,1.48284c0,0.81895 -1.88768,1.48284 -4.21625,1.48284z" data-paper-data="{&quot;index&quot;:null}" fill="#000000" stroke="none" stroke-width="1.5" stroke-linecap="butt"/><path d="M177.94492,304.40602v-119.20147c0,0 2.15302,-9.73105 2.15302,-14.63937c0,-4.498 -2.15302,-13.6872 -2.15302,-13.6872c0,0 7.60084,-2.35297 13.23783,-3.74807c5.63699,-1.3951 14.70578,-2.80371 14.70578,-2.80371c0,0 -1.71057,40.10902 41.39797,40.03867c43.88663,-0.07162 39.32807,-40.03867 39.32807,-40.03867c0,0 11.12539,1.51959 17.53174,2.94655c6.40635,1.42695 13.51674,3.60523 13.51674,3.60523c0,0 -2.15302,9.42463 -2.15302,14.19201c0,4.84193 2.15302,14.63937 2.15302,14.63937v118.69667z" fill="#808080" stroke="#000000" stroke-width="2" stroke-linecap="butt"/><path d="M248.01866,143.06889c0.5704,0.21186 3.08357,1.39942 6.02385,2.59586c2.9637,1.20597 7.21362,2.29294 7.19412,2.4605c-0.02476,0.21265 -10.43477,0.22694 -13.67937,0.63224c-2.71902,0.33964 -6.68867,0.70564 -6.68867,0.70564c0,0 -7.10401,-1.16169 -13.27235,-2.44521c-4.94371,-1.02869 -10.39929,-1.66108 -10.40995,-1.75461c-0.01439,-0.12613 3.86835,-0.71071 6.82417,-1.39467c1.14585,-0.49661 5.43971,-1.48513 5.43971,-1.48513c0,0 4.95585,-0.27766 7.60826,0.579c2.84203,0.91791 2.83546,2.44556 3.0831,2.46906c0,0 1.18436,-1.74932 2.36886,-2.10461c1.18451,-0.35528 5.08219,-0.41633 5.50828,-0.25808z" fill="#808080" stroke="#000000" stroke-width="1.4" stroke-linecap="butt"/><path d="M25.63028,117.11483c0,0 30.77427,-5.92187 31.41499,-6.78761c1.6804,-2.27063 -0.83764,-40.17317 179.59259,-41.57382c222.87616,-0.91362 194.80743,35.34872 207.37016,42.1903c17.22544,9.38084 30.74106,17.40016 30.74106,17.40016c0,0 -13.81681,-2.05351 -20.37058,-3.13397c-6.11263,-1.00773 -18.98113,-3.14585 -18.98113,-3.14585c0,0 15.4344,10.3481 6.54563,20.69498c-7.80081,9.48098 -36.43916,17.22543 -36.43916,17.22543l-5.76819,-2.34735c0,0 -5.10631,2.19794 -10.78547,3.33274c-5.67921,1.13479 -17.17011,2.91273 -17.17011,2.91273l-0.45962,-3.70421c0,0 -35.25218,11.01795 -121.58665,10.87154c-81.41965,-0.25547 -130.17911,-10.6752 -130.17911,-10.6752l-0.5802,2.65484c0,0 -19.44719,-3.29276 -30.86495,-9.70754c-13.6086,-7.64567 -16.17513,-12.24324 -16.17513,-12.24324c0,0 -11.67938,1.89916 -28.54607,2.7744c-21.13493,1.09673 -34.68572,0.34526 -34.68572,0.34526c0,0 18.01505,-2.71717 27.88158,-4.76989c8.78831,-1.8284 13.21479,-3.37722 13.21479,-3.37722c0,0 -10.52348,1.0847 -21.13488,1.61795c-11.07177,0.5564 -20.12281,0.53093 -20.12281,0.53093c0,0 24.84054,-5.03728 35.10557,-10.87429c9.69182,-5.51108 10.48423,-10.95731 10.48423,-10.95731c0,0 -6.79893,0.66163 -16.62785,0.79513c-6.23026,0.08463 -11.87298,-0.0489 -11.87298,-0.0489z" fill="#000000" stroke="none" stroke-width="1.5" stroke-linecap="butt"/><path d="M190.06053,118.51038c-1.35255,-7.29323 0.78515,-17.15448 0.78515,-17.15448c0,0 7.99352,-0.04124 32.61142,-3.14424c18.91301,-2.38394 48.15746,-9.48722 48.15746,-9.48722c0,0 -5.06259,3.00503 -7.98701,4.46015c-3.10899,1.54696 -9.35835,4.56297 -9.35835,4.56297c0,0 18.3702,-1.66761 34.39376,-4.72931c20.08199,-3.53575 24.82607,-6.05309 30.35236,-4.5927c6.52238,1.72362 2.41419,23.1827 1.68388,28.74062c-0.98819,5.66922 -5.93731,9.49969 -7.38349,12.52053c-1.44618,3.02084 -0.95999,6.13662 -5.1708,16.0397c-2.62782,6.18021 -9.75423,8.92466 -23.48287,14.66081c-13.72864,5.73616 -21.21967,9.25275 -30.50041,9.32173c-8.93144,0.06639 -20.9428,-5.1002 -32.66094,-10.38244c-12.47788,-5.62474 -20.8004,-8.47713 -22.77059,-15.13975c-1.77437,-6.00039 -1.81998,-9.90853 -2.63122,-15.24835c-0.59292,-3.90273 -5.29963,-6.44504 -6.03831,-10.42801z" fill="#808080" stroke="#000000" stroke-width="1.5" stroke-linecap="butt"/><path d="M302.7239,103.39002c0,0 3.57253,0.31807 9.97447,1.11029c5.84743,0.72361 10.4281,1.74403 10.4281,1.74403l0.45726,1.17035c0,0 -16.99122,-3.12997 -35.42744,-2.4706c-14.74116,0.52724 -23.35108,2.8124 -23.35108,2.8124l0.10723,-4.17683c0,0 7.32999,-1.70421 18.43034,-1.85557c11.49434,-0.15672 18.96279,0.59125 18.96279,0.59125z" data-paper-data="{&quot;index&quot;:null}" fill="#000000" stroke="none" stroke-width="1.5" stroke-linecap="butt"/><path d="M231.42863,139.86508c11.93229,6.58857 27.93161,18.01477 27.93161,18.01477c0,0 13.56967,-9.98386 19.79702,-11.77131c4.82791,-1.38581 26.28734,-4.53385 26.39107,-2.1418c0.10144,2.3388 -21.16672,82.78115 -49.56551,79.87304c-32.27216,-2.79639 -53.58855,-97.12477 -53.49987,-98.21008c0.08869,-1.0853 17.01341,7.64679 28.9457,14.23543z" fill="#808080" stroke="#000000" stroke-width="1.9" stroke-linecap="butt"/><path d="M254.82296,147.93748c-2.42286,0 -8.29237,-3.26042 -8.87502,-5.3637c-0.52132,-1.88186 3.08229,-3.82799 8.87502,-3.82799c5.79275,0 9.84861,0.49077 9.44523,4.18853c-0.34235,3.13818 -3.6525,5.00317 -9.44523,5.00317z" fill="#808080" stroke="#000000" stroke-width="1.15" stroke-linecap="butt"/><path d="M263.26536,117.84376c0,0 0.24047,3.96976 0.0135,7.12662c-0.44939,6.25113 -2.53468,27.7607 -2.53468,27.7607l-6.98825,0.00864c0,0 -1.88188,-4.17274 -2.63253,-9.49979c-1.01608,-7.21063 -1.05351,-16.29321 -1.7893,-19.63229c-0.69745,-3.16513 -2.09982,-5.71453 -2.09982,-5.71453" fill="#808080" stroke="#000000" stroke-width="1.3" stroke-linecap="round"/><path d="M194.04404,128.6336c0,0 -11.55956,-3.51705 -14.44718,-8.97502c-3.03832,-5.74284 -3.42462,-9.7328 1.1253,-9.99193c4.54992,-0.25915 6.33561,2.37692 8.74827,8.35569c2.41264,5.97877 4.57364,10.61127 4.57364,10.61127z" data-paper-data="{&quot;index&quot;:null}" fill="#808080" stroke="#000000" stroke-width="1" stroke-linecap="butt"/><path d="M193.56922,124.68604c0,0 -8.35272,-2.92338 -10.12063,-8.45061c-0.98622,-3.08327 5.05485,-2.28016 5.05485,-2.28016" fill="none" stroke="#000000" stroke-width="0.25" stroke-linecap="round"/><path d="M200.63184,118.03014c0.16624,-4.89188 11.33979,-8.93609 23.93275,-8.8582c12.59294,0.0779 21.15746,4.2484 20.99125,9.14029c-0.16624,4.89188 -9.66444,8.79439 -22.2574,8.7165c-12.59294,-0.0779 -22.83284,-4.1067 -22.66659,-8.99859z" fill="#808080" stroke="#000000" stroke-width="1.4" stroke-linecap="butt"/><path d="M104.0235,118.14808c0.5221,-2.75843 30.13983,-4.96213 66.15291,-4.92214c36.01335,0.03999 64.78427,2.30855 64.26217,5.06696c-0.5221,2.75843 -30.1397,4.96213 -66.15291,4.92214c-36.01335,-0.03999 -64.78427,-2.30855 -64.26217,-5.06696z" fill="#000000" stroke="none" stroke-width="1.5" stroke-linecap="butt"/><path d="M264.04462,118.03087c0.47702,-4.88817 10.43581,-8.85847 22.89942,-8.85847c12.46359,0 21.73705,3.96607 21.73705,8.85847c0,4.8924 -9.1074,9.07104 -22.73339,9.14188c-12.96079,0.06739 -22.40124,-4.03692 -21.90308,-9.14188z" fill="#808080" stroke="#000000" stroke-width="1.4" stroke-linecap="butt"/><path d="M274.83223,141.27725c0,-15.60984 5.35497,-28.26408 11.96067,-28.26408c6.6057,0 11.96067,12.65424 11.96067,28.26408c0,15.60984 -5.35494,28.26408 -11.96067,28.26408c-6.6057,0 -11.96067,-12.65424 -11.96067,-28.26408z" fill="#000000" stroke="none" stroke-width="1.5" stroke-linecap="butt"/><path d="M200.47145,117.49796c0,0 0.14899,-9.01512 24.8462,-8.8249c22.19754,0.16586 22.39566,9.40723 22.39566,9.40723z" fill="#808080" stroke="#000000" stroke-width="1.15" stroke-linecap="butt"/><path d="M263.15949,117.62886c0,0 -0.57857,-9.4582 26.24546,-9.1032c22.76768,0.33347 22.3751,9.65229 22.3751,9.65229z" fill="#808080" stroke="#000000" stroke-width="1.15" stroke-linecap="butt"/><path d="M208.74449,107.4863c0,0 7.89752,-1.819 18.82592,-2.28178c12.11003,-0.51283 18.20668,-0.06628 18.20668,-0.06628l0.69159,4.13747c0,0 -8.98949,-0.68065 -18.79195,-0.52113c-13.10959,0.21333 -15.57384,1.43293 -25.54142,1.89119c-8.54076,0.39266 -15.79029,0.15884 -15.79029,0.15884l-0.06068,-1.23155c0,0 8.42613,0.07398 12.26643,-0.06836c3.16964,-0.11749 9.31799,-0.93808 9.31799,-0.93808z" fill="#000000" stroke="none" stroke-width="1.5" stroke-linecap="butt"/><path d="M321.15222,118.02233c2.41264,-5.97877 4.19833,-8.61483 8.74827,-8.35569c4.54992,0.25914 4.16362,4.24909 1.1253,9.99193c-2.88762,5.45797 -14.44718,8.97502 -14.44718,8.97502c0,0 2.16099,-4.6325 4.57364,-10.61127z" data-paper-data="{&quot;index&quot;:null}" fill="#808080" stroke="#000000" stroke-width="1" stroke-linecap="butt"/><path d="M322.11925,113.95527c0,0 6.04107,-0.80312 5.05485,2.28016c-1.7679,5.52723 -10.12063,8.45061 -10.12063,8.45061" data-paper-data="{&quot;index&quot;:null}" fill="none" stroke="#000000" stroke-width="0.25" stroke-linecap="round"/></g></g></svg>