<svg version="1.1" xmlns="http://www.w3.org/2000/svg" xmlns:xlink="http://www.w3.org/1999/xlink" width="34.17311" height="34.17311" viewBox="0,0,34.17311,34.17311"><g transform="translate(-222.91345,-162.91346)"><g data-paper-data="{&quot;isPaintingLayer&quot;:true}" stroke-miterlimit="10" stroke-dasharray="" stroke-dashoffset="0" style="mix-blend-mode: normal"><path d="M229.98312,162.91346h20.03379c3.9166,0 7.06966,3.15307 7.06966,7.06966v20.03379c0,3.91659 -3.15306,7.06966 -7.06966,7.06966h-20.03379c-3.91659,0 -7.06966,-3.15307 -7.06966,-7.06966v-20.03379c0,-3.91659 3.15307,-7.06966 7.06966,-7.06966z" fill-opacity="0.35" fill="#4d4d4d" fill-rule="evenodd" stroke="none" stroke-width="4.43922" stroke-linecap="round" stroke-linejoin="round"/><g fill-rule="nonzero" stroke-linejoin="miter"><path d="M235.76194,186.03512l0.02036,-0.49509c0,0 0.89536,-0.76173 2.18176,-1.19349c1.28223,-0.43036 2.26761,-0.48054 2.26761,-0.48054l0.27055,1.32667c0,0 -1.01882,0.02183 -2.21685,0.37505c-0.92983,0.18984 -4.92505,2.13571 -4.92505,2.13571l-0.10089,-0.39733z" fill="#000000" stroke="none" stroke-width="1.5" stroke-linecap="butt"/><path d="M247.72587,181.5856c0,0 0.81742,-0.00736 1.24192,0.00815c0.44027,0.01609 1.35413,0.08672 1.35413,0.08672l0.12072,0.47994c0,0 -2.49212,-0.39934 -4.78705,0.34455c-1.83496,0.59481 -2.7307,1.46881 -2.7307,1.46881l-0.24167,-1.39529c0,0 1.38777,-0.8227 2.36502,-1.11813c0.97725,-0.29543 2.4105,-0.32558 2.4105,-0.32558z" data-paper-data="{&quot;index&quot;:null}" fill="#000000" stroke="none" stroke-width="1.5" stroke-linecap="butt"/><path d="M235.63397,189.13999c-0.34063,-1.45589 0.67956,-2.93941 2.27864,-3.31355c1.59908,-0.37413 3.17153,0.50281 3.51215,1.95871c0.34063,1.45589 -0.67956,2.93941 -2.27864,3.31355c-1.59908,0.37413 -3.17153,-0.50281 -3.51215,-1.95871z" fill="#ffffff" stroke="#000000" stroke-width="1.5" stroke-linecap="butt"/><path d="M236.93741,188.75657c-0.19623,-0.83872 0.32461,-1.67771 1.16333,-1.87395c0.83872,-0.19623 1.67771,0.32461 1.87395,1.16333c0.19623,0.83872 -0.32461,1.67771 -1.16333,1.87395c-0.83872,0.19623 -1.67771,-0.32461 -1.87395,-1.16333z" fill="#000000" stroke="none" stroke-width="1.5" stroke-linecap="butt"/><path d="M243.70479,187.25172c-0.34063,-1.45589 0.6661,-2.93627 2.24859,-3.30651c1.58249,-0.37024 3.14149,0.50985 3.48211,1.96574c0.34063,1.45589 -0.6661,2.93627 -2.24859,3.30651c-1.58249,0.37024 -3.14149,-0.50985 -3.48211,-1.96574z" fill="#ffffff" stroke="#000000" stroke-width="1.5" stroke-linecap="butt"/><path d="M245.0149,186.86673c-0.19623,-0.83872 0.32461,-1.67771 1.16333,-1.87395c0.83872,-0.19623 1.67771,0.32461 1.87395,1.16333c0.19623,0.83872 -0.32461,1.67771 -1.16333,1.87395c-0.83872,0.19623 -1.67771,-0.32461 -1.87395,-1.16333z" fill="#000000" stroke="none" stroke-width="1.5" stroke-linecap="butt"/><path d="M235.5403,189.04171c0,0 -0.70853,-2.75212 2.41956,-3.52015c2.72736,-0.66963 3.56013,2.12112 3.56013,2.12112z" fill="#ffffff" stroke="#000000" stroke-width="1" stroke-linecap="butt"/><path d="M243.48719,187.06209c0,0 -0.67985,-2.91523 2.62419,-3.57683c3.10376,-0.6215 3.68793,2.10003 3.68793,2.10003z" fill="#ffffff" stroke="#000000" stroke-width="1" stroke-linecap="butt"/><path d="M235.24183,192.08484c-0.04596,0.48078 -1.47604,-0.6453 -2.21001,-2.11054c-0.73396,-1.46523 -0.96514,-2.62729 -0.25119,-2.80281c0.67509,-0.16597 0.96159,0.94581 1.41855,2.01613c0.48962,1.14681 1.09754,2.32309 1.04265,2.89723z" data-paper-data="{&quot;index&quot;:null}" fill="#ffffff" stroke="#000000" stroke-width="1" stroke-linecap="butt"/><path d="M235.11859,191.02034c0,0 -1.17466,-0.41515 -1.77754,-1.99069c-0.33631,-0.87888 0.55762,-0.85318 0.55762,-0.85318" fill="none" stroke="#000000" stroke-width="0.5" stroke-linecap="round"/><path d="M253.3751,179.36023c0,0 1.76493,6.33587 -5.95551,10.24912c-2.0415,1.03477 -5.0222,2.00477 -7.18316,2.45304c-4.75902,0.98722 -8.03292,1.05399 -12.02805,-0.56426c-1.20926,-0.48982 -1.6865,-2.36946 -1.6865,-2.36946l8.05914,-10.62941z" fill="#005e19" stroke="none" stroke-width="1.5" stroke-linecap="butt"/><path d="M253.32025,179.294c0,0 0.79953,5.29663 -6.92089,9.20987c-0.69443,0.35198 -1.40672,0.66608 -2.12943,0.94498c-6.081,2.34672 -12.89933,2.20165 -16.01379,1.16834c-0.28449,-0.09439 -1.39648,-0.30851 -1.73382,-1.26608c-0.31418,-0.89184 0.51376,-2.0032 0.51376,-2.0032l6.86577,-10.66647z" fill="#007a21" stroke="none" stroke-width="1.5" stroke-linecap="butt"/><path d="M253.52368,179.8247c0,0 -9.85647,5.67575 -21.61309,6.22389c-2.08575,0.09724 -2.81831,-1.64789 -2.81831,-1.64789c0,0 -1.09168,-7.22795 0.59329,-10.55917c1.28631,-2.54306 5.54552,-5.36058 8.53004,-5.9831c4.31254,-0.89953 9.8847,0.52462 11.98472,3.24099c1.8173,2.35067 3.32336,8.72528 3.32336,8.72528z" fill="#5c7a64" stroke="none" stroke-width="1.5" stroke-linecap="butt"/><path d="M249.15979,180.58191c0,0 -0.29599,-1.94237 -0.52634,-2.9269c-0.19831,-0.84761 -0.77407,-2.63128 -0.77407,-2.63128c0,0 1.51947,-0.53981 2.293,-0.97524c0.85975,-0.48398 1.1526,-1.05884 1.1526,-1.05884c0,0 0.64347,1.17165 1.17577,2.71081c0.32565,0.94163 0.67918,2.67802 0.67918,2.67802c0,0 -0.27562,0.65705 -1.33669,1.24251c-1.05171,0.5803 -2.66345,0.96094 -2.66345,0.96094z" fill="#007a21" stroke="none" stroke-width="0" stroke-linecap="butt"/><path d="M240.72724,167.69603c0.06945,0.38964 -0.68631,0.84315 -1.68807,1.01295c-1.00175,0.1698 -1.87015,-0.00841 -1.9396,-0.39805c-0.06945,-0.38964 0.68631,-0.84315 1.68807,-1.01295c1.00175,-0.1698 1.87015,0.00841 1.9396,0.39805z" fill="#007a21" stroke="none" stroke-width="1.5" stroke-linecap="butt"/></g></g></g></svg>