<svg viewBox="0,0,250.96141,154.0175" height="154.0175" width="250.96141" xmlns:xlink="http://www.w3.org/1999/xlink" xmlns="http://www.w3.org/2000/svg" version="1.1"><g transform="translate(-114.3943,-90.04172)"><g style="mix-blend-mode: normal" stroke-dashoffset="0" stroke-dasharray="" stroke-miterlimit="10" stroke-linejoin="miter" fill-rule="nonzero" data-paper-data="{&quot;isPaintingLayer&quot;:true}"><path stroke-linecap="butt" stroke-width="0" stroke="none" fill="#000000" d="M274.8264,155.71683v-7.65106h4.01368v7.65106z"></path><g stroke-linecap="butt"><path stroke-width="0" stroke="none" fill="#000000" d="M205.61761,219.42303c-0.07907,3.4134 -10.96414,11.7865 -18.72279,11.63491c-7.75867,-0.1516 -18.16693,-10.05088 -18.08785,-13.46428c0.07908,-3.4134 11.66128,-1.44906 19.41992,-1.29746c7.75867,0.1516 17.46981,-0.28656 17.39073,3.12684z"></path><path stroke-width="0" stroke="none" fill="#ffffff" d="M204.41883,217.25506c0,0 -3.17234,4.11773 -16.60696,3.77116c-14.56829,0.22681 -16.29008,-3.85847 -16.29008,-3.85847z"></path><path stroke-width="0" stroke="none" fill="#ffffff" d="M200.11623,224.20077c0,0 -2.10692,11.1738 -13.64604,10.82725c-10.14542,-0.3047 -11.9417,-10.91454 -11.9417,-10.91454c0,0 1.50185,1.57403 4.55558,3.04495c2.02626,0.97601 4.58816,2.05539 7.99558,2.06136c3.04029,0.00532 5.69671,-0.89462 7.66721,-1.71379c3.56622,-1.48254 5.36937,-3.30522 5.36937,-3.30522z"></path><path stroke-width="1.4" stroke="#000000" fill="#ffffff" d="M197.06364,212.10291c2.87023,0.99572 9.0319,5.95843 9.0319,5.95843c0,0 -3.54739,2.29449 -6.61602,2.04465c-4.34318,-0.35361 -4.54133,-1.62246 -11.54302,-1.76782c-6.02726,-0.12514 -7.28304,1.35318 -12.14743,1.33868c-4.86439,-0.0145 -8.62565,-2.31264 -8.62565,-2.31264c0,0 7.15826,-4.58696 10.9824,-5.35668c3.74096,-0.75298 9.65872,2.25046 9.91519,2.26788c0,0 6.1324,-3.16824 9.00263,-2.17252z"></path><path stroke-width="1.9" stroke="#000000" fill="#ffffff" d="M181.57394,232.77372c2.55467,1.31797 10.25159,1.12693 12.58667,-0.36785c2.26135,-1.44758 3.21584,-6.02063 5.06188,-8.54166c3.16216,-4.3184 7.08045,-4.6955 7.08045,-4.6955c0,0 -1.62546,14.19472 -4.77092,18.50261c-3.85604,5.28108 -8.30544,5.34128 -13.33921,5.4379c-5.71837,0.10976 -10.12788,-0.67019 -13.78095,-4.62344c-3.65307,-3.95326 -7.19621,-19.96293 -7.19621,-19.96293c0,0 5.46281,1.33559 8.00667,5.68914c2.54386,4.35355 3.63538,7.1604 6.35161,8.56172z"></path></g><g stroke-linecap="butt"><path stroke-width="0" stroke="none" fill="#000000" d="M154.13296,218.37724c-0.07585,3.20466 -10.98177,11.06572 -18.42471,10.9234c-7.44296,-0.14232 -17.42768,-9.43624 -17.35183,-12.6409c0.07586,-3.20466 11.18677,-1.36044 18.62969,-1.21812c7.44296,0.14232 17.22271,-0.26903 17.14684,2.93563z"></path><path stroke-width="0" stroke="none" fill="#ffffff" d="M152.51919,216.84185c0,0 -3.04325,3.86591 -15.9312,3.54054c-13.97548,0.21294 -15.62721,-3.62251 -15.62721,-3.62251z"></path><path stroke-width="1.4" stroke="#000000" fill="#ffffff" d="M145.46331,212.00475c2.75344,0.93482 9.56891,5.88162 9.56891,5.88162c0,0 -4.30758,1.86661 -7.25134,1.63204c-4.16645,-0.33199 -4.35654,-1.52324 -11.07332,-1.65971c-5.78201,-0.11748 -6.98668,1.27042 -11.65314,1.25682c-4.66645,-0.01361 -8.27466,-2.315 -8.27466,-2.315c0,0 6.86698,-4.16267 10.53551,-4.88532c3.58874,-0.70693 9.26569,1.68148 9.51173,1.69783c0,0 5.88286,-2.54313 8.6363,-1.60831z"></path><path stroke-width="0" stroke="none" fill="#ffffff" d="M148.39169,222.69513c0,0 -2.02119,9.29077 -13.09077,9.00262c-9.73259,-0.25336 -11.45578,-9.07521 -11.45578,-9.07521c0,0 1.44074,1.30877 4.37021,2.53181c1.94381,0.81153 4.40146,1.70901 7.67023,1.71397c2.91657,0.00442 5.46491,-0.74386 7.35521,-1.42498c3.42111,-1.2327 5.15088,-2.74822 5.15088,-2.74822z"></path><path stroke-width="1.9" stroke="#000000" fill="#ffffff" d="M130.41612,229.44634c2.46993,1.07519 9.91151,0.91933 12.16913,-0.30009c2.18633,-1.18092 3.10916,-4.91155 4.89396,-6.96817c3.05725,-3.5229 7.55104,-3.08272 7.55104,-3.08272c0,0 -2.27701,10.83205 -5.31812,14.34637c-3.72812,4.30823 -8.02992,4.35734 -12.8967,4.43616c-5.52867,0.08954 -9.7919,-0.54673 -13.32378,-3.77174c-3.53189,-3.22502 -6.71579,-16.08154 -6.71579,-16.08154c0,0 5.03988,0.88561 7.49935,4.43717c2.45947,3.55157 3.51478,5.84136 6.1409,6.98453z"></path></g><g><path stroke-linecap="butt" stroke-width="0" stroke="none" fill="#ffffff" d="M150.59543,187.01756c0,3.43729 -6.32316,6.22377 -14.12317,6.22377c-7.80001,0 -14.12317,-2.78648 -14.12317,-6.22377c0,-3.43729 6.32316,-6.22377 14.12317,-6.22377c7.80001,0 14.12317,2.78648 14.12317,6.22377z"></path><path stroke-linecap="round" stroke-width="0.5" stroke="#000000" fill="none" d="M153.45914,184.72649c0,0 -9.499,1.74132 -15.93214,1.60223c-6.43314,-0.13909 -16.95617,-2.63761 -16.95617,-2.63761"></path><path stroke-linecap="butt" stroke-width="1.4" stroke="#000000" fill="#ffffff" d="M138.6781,181.23628c0.25672,0.02264 0.63341,-1.39479 2.44195,-2.01709c1.74785,-0.6014 4.23782,-0.41096 5.76498,-0.24735c1.684,0.52726 10.0513,6.06091 10.0513,6.06091c0,0 -4.22992,0.45958 -8.92737,0.07419c-3.468,-0.28453 -7.13164,-1.4148 -9.84179,-1.54103c-3.43584,-0.16002 -8.32691,0.71141 -12.72962,0.65532c-4.35438,-0.05547 -8.23957,-1.03933 -8.23957,-1.03933c0,0 4.38542,-3.93912 7.14952,-4.72832c2.32436,-0.66365 8.41812,-0.40471 11.15237,0.41632c2.92972,0.87973 2.92296,2.34385 3.17824,2.36636z"></path><path stroke-linecap="butt" stroke-width="1.9" stroke="#000000" fill="#ffffff" d="M116.94557,183.36778c0,0 3.93049,0.6097 7.42295,1.37871c3.60818,0.7945 1.58324,4.50813 9.81262,6.36341c8.32352,1.8765 12.68462,-4.98925 15.40713,-5.25622c2.11069,-0.20697 7.34401,-0.1087 7.34401,-0.1087c0,0 -5.01254,14.70686 -20.1354,14.34465c-15.12285,-0.36221 -19.8513,-16.72186 -19.8513,-16.72186z"></path></g><g stroke-linecap="butt"><path stroke-width="0" stroke="none" fill="#000000" d="M121.74061,164.70416v-19.33333h29.16667v19.33333z"></path><path stroke-width="1.4" stroke="#000000" fill="#ffffff" d="M150.60144,142.28128c2.1395,1.54948 3.69665,4.53242 3.68576,4.62597c-0.02476,0.21265 -16.61804,0.92121 -16.61804,0.92121c0,0 -19.25498,-0.68963 -19.26564,-0.78315c-0.00762,-0.06678 2.17318,-2.52812 4.61924,-4.28066c1.31292,-0.94066 3.87216,-2.60375 6.15537,-2.89937c1.49708,-0.19384 2.87548,0.62779 3.70604,1.13119c2.61637,1.58578 4.58713,4.62071 4.72459,4.63376c0,0 1.31093,-2.35545 2.98022,-4.07567c1.16618,-1.20176 2.63526,-1.96551 3.41195,-1.94203c2.52211,0.07624 5.63262,1.96778 6.60051,2.66875z"></path><path stroke-width="1.9" stroke="#000000" fill="#ffffff" d="M137.00547,161.87835c0,0 6.02094,-0.17412 8.88643,-3.83481c2.77994,-3.55141 2.36946,-10.25685 4.73784,-10.41592c2.0343,-0.13663 3.56962,-0.52824 3.58277,-0.41744c0.02594,0.21845 1.42299,12.66041 -2.47444,19.49251c-2.60526,4.56695 -9.31909,4.55286 -14.17364,4.3713c-4.35129,-0.13771 -11.01919,0.0602 -14.22788,-3.71391c-6.94512,-8.16896 -4.62475,-20.1418 -4.59887,-20.25748c0.00977,-0.04366 1.67066,0.27023 3.51137,0.38906c2.64674,0.17086 3.33898,7.58476 6.36796,11.20358c3.02498,3.61404 8.38846,3.18311 8.38846,3.18311z"></path><path stroke-width="0" stroke="#000000" fill="#ffffff" d="M125.13539,150.31292l0.6842,-0.6842c0,0 2.34391,5.06882 5.77868,7.77041c1.6323,1.28387 4.48204,1.89705 5.63676,1.92149c1.24026,0.02625 4.4258,-0.53829 5.97604,-1.88752c2.94889,-2.56653 4.16084,-7.34825 4.16084,-7.34825l0.79824,0.3421c0,0 -0.40577,5.10915 -3.54414,8.311c-1.71008,1.74468 -5.99536,2.63621 -7.40308,2.63621c-0.95184,0 -2.60862,-0.12517 -4.29244,-0.82746c-1.41475,-0.59006 -2.84858,-1.65459 -3.89943,-2.73497c-2.94281,-3.02552 -3.89569,-7.49882 -3.89569,-7.49882z"></path></g><g stroke-linecap="butt"><path stroke-width="0" stroke="#000000" fill="#000000" d="M172.9161,162.00409v-16.64889h30.56098v16.64889z"></path><path stroke-width="1.4" stroke="#000000" fill="#ffffff" d="M207.23457,148.11023c-0.02476,0.21265 -17.63124,-1.39892 -17.63124,-1.39892c0,0 -20.25063,0.45505 -20.26129,0.36152c-0.0057,-0.0499 2.8635,-3.66785 6.27603,-5.87663c1.94837,-1.2611 5.30365,-1.67854 5.30365,-1.67854c0,0 2.56114,0.40654 5.21355,1.2632c2.84203,0.91791 3.40563,3.81396 3.65327,3.83746c0,0 0.95629,-2.20545 2.02676,-3.01688c0.61733,-0.52726 2.27168,-2.32674 4.44379,-2.01551c0.8267,0.11845 4.06908,0.50239 6.04561,2.17846c3.08236,2.61379 4.93169,6.33019 4.92986,6.34584z"></path><path stroke-width="1.9" stroke="#000000" fill="#ffffff" d="M188.88265,159.08124c0,0 6.52203,-0.51717 9.86984,-3.38738c3.15928,-2.70857 3.45941,-7.31862 4.65952,-7.47087c2.13035,-0.27026 3.68363,0.26782 3.69524,0.36564c0.02698,0.2272 0.635,10.71256 -4.85236,16.40723c-3.31537,3.44063 -8.42516,3.96487 -12.98874,3.79418c-4.23003,-0.13387 -10.21783,-0.46733 -13.48104,-3.39809c-7.35917,-6.60942 -6.29302,-18.28937 -6.26681,-18.40654c0.01091,-0.04874 0.82408,0.18758 3.34484,0.37731c1.43244,0.10781 3.23949,5.72871 6.81122,8.64919c3.7353,3.05422 9.20829,3.06933 9.20829,3.06933z"></path><path stroke-width="0" stroke="none" fill="#ffffff" d="M175.3108,148.50065l1.44506,-0.40862c0,0 1.47007,3.63525 4.58459,5.67869c2.25589,1.48009 6.0086,2.45798 7.64286,2.48659c1.53177,0.02681 4.91437,-0.86373 6.83551,-2.17236c2.95837,-2.01517 4.28036,-5.58429 4.28036,-5.58429l1.66738,0.40862c0,0 -0.86947,3.79871 -3.88669,6.20818c-2.57639,2.05743 -7.20052,3.12356 -8.89656,3.12356c-1.96945,0 -6.14564,-0.52715 -9.1157,-2.91932c-2.86227,-2.30536 -4.55682,-6.82104 -4.55682,-6.82104z"></path></g><g><path stroke-linecap="butt" stroke-width="0" stroke="none" fill="#ffffff" d="M199.78643,187.62915c0,3.17289 -5.62654,5.74502 -12.56722,5.74502c-6.94069,0 -12.56722,-2.57213 -12.56722,-5.74502c0,-3.17289 5.62654,-5.74502 12.56722,-5.74502c6.94069,0 12.56722,2.57213 12.56722,5.74502z"></path><path stroke-linecap="round" stroke-width="0.5" stroke="#000000" fill="none" d="M202.54311,185.43261c0,0 -8.70827,2.01913 -14.77096,1.83682c-6.06269,-0.18231 -16.22349,-3.19402 -16.22349,-3.19402"></path><path stroke-linecap="butt" stroke-width="1.4" stroke="#000000" fill="#ffffff" d="M188.84347,181.79874c0.24047,0.02137 0.59334,-1.31656 2.28747,-1.90395c1.63728,-0.56767 3.96972,-0.38791 5.40028,-0.23347c1.57748,0.49769 9.41543,5.72094 9.41543,5.72094c0,0 -3.96233,0.4338 -8.3626,0.07003c-3.24861,-0.26857 -6.68048,-0.16553 -9.21919,-0.28468c-3.21849,-0.15104 -7.80014,-0.4984 -11.92433,-0.55135c-4.07891,-0.05236 -7.71832,-0.98104 -7.71832,-0.98104c0,0 4.10799,-3.71816 6.69723,-4.4631c2.17732,-0.62643 7.88557,-0.382 10.44685,0.39297c2.74438,0.83038 2.73804,2.21237 2.97717,2.23363z"></path><path stroke-linecap="butt" stroke-width="1.9" stroke="#000000" fill="#ffffff" d="M168.85031,184.7581c0,0 3.65709,0.54738 6.90663,1.23778c3.3572,0.71328 1.71374,2.65638 9.37071,4.32201c7.74456,1.68467 11.56168,-3.80645 14.09482,-4.04613c1.96388,-0.18581 6.83318,-0.09759 6.83318,-0.09759c0,0 -4.23715,12.87886 -18.3081,12.55367c-14.07095,-0.32519 -18.89722,-13.96975 -18.89722,-13.96975z"></path></g><g stroke-linecap="butt" fill="#ffffff"><path stroke-width="0" stroke="none" d="M226.02272,231.68091v-10.25h22.25v10.25z"></path><path stroke-width="1.4" stroke="#000000" d="M245.38163,217.14101c0.5704,0.21186 2.83357,3.89942 5.77385,5.09586c2.9637,1.20597 3.21362,3.41794 3.19412,3.5855c-0.02476,0.21265 -2.68477,-0.39806 -7.30437,0.00724c-1.28839,-0.86641 -2.76826,-2.32776 -4.8453,-3.04904c-1.90332,-0.66095 -4.46837,-0.62032 -4.46837,-0.62032c0,0 -1.87723,-0.32911 -5.35472,0.83476c-1.41538,0.47371 -2.57438,1.61191 -4.79263,2.47003c-6.06871,-0.27869 -8.02429,-0.16108 -8.03495,-0.25461c-0.01439,-0.12613 3.11835,-3.83571 5.57417,-5.01967c1.64585,-1.12161 5.18971,-3.23513 5.18971,-3.23513c0,0 3.08085,0.97234 4.98326,2.329c1.96703,1.29291 2.46046,1.44556 2.7081,1.46906c0,0 0.80936,-0.37432 1.99386,-1.47961c0.93451,-0.73028 3.45719,-2.41633 3.88328,-2.25808z"></path><path stroke-width="1.9" stroke="#000000" d="M227.10864,225.31958c1.35124,0.27251 1.08525,1.01007 2.35271,1.21203c3.50804,0.55899 7.93985,0.34533 7.93985,0.34533c0,0 5.34496,0.08564 8.4968,-0.19297c1.6829,-0.14877 1.40011,-0.66947 2.32498,-0.76643c0.84627,-0.08872 2.17133,0.0895 3.29473,0.06156c1.61107,-0.04006 2.93946,-0.23996 2.96553,-0.02033c0.02021,0.17016 -0.30905,3.02362 -2.83186,5.03872c-2.88092,2.30113 -8.35628,2.65003 -14.81622,2.40842c-5.1491,-0.16296 -9.71547,-0.12666 -12.31732,-1.59132c-4.35592,-2.45207 -4.78312,-6.73252 -4.75943,-6.8384c0.02438,-0.10897 0.90321,0.13882 2.88695,0.24777c1.09524,0.06015 2.52729,-0.2696 4.33829,0.09563z"></path></g><g><path stroke-linecap="butt" stroke-width="0" stroke="none" fill="#000000" d="M224.37518,192.3437v-10.27747h30.6743v10.27747z"></path><path stroke-linecap="butt" stroke-width="0" stroke="#000000" fill="#ffffff" d="M233.70396,196.61279l-2.08893,-8.89742l-2.18017,-4.06801h21.1874l-2.61162,4.23639l-2.13183,7.62223z"></path><path stroke-linecap="butt" stroke-width="1.4" stroke="#000000" fill="#ffffff" d="M247.50341,178.57577c0,0 4.03226,1.71565 6.97254,2.91209c2.9637,1.20597 6.10681,2.13482 6.08731,2.30238c-0.02476,0.21265 -8.85362,1.17563 -12.09822,1.58093c-2.71902,0.33964 -7.95359,0.2313 -7.95359,0.2313c0,0 -7.73647,-0.37112 -13.90481,-1.65464c-4.94371,-1.02869 -8.34379,-2.45166 -8.35446,-2.54519c-0.01439,-0.12613 3.07778,-0.86882 6.03359,-1.55278c1.14585,-0.49661 7.51395,-1.85482 7.51395,-1.85482c0,0 3.75781,0.49185 5.40007,1.33974c1.80103,0.92986 3.40376,2.54006 3.53329,2.55235c0,0 2.41092,-2.2202 3.34538,-2.55098c1.62131,-0.57392 3.42494,-0.76039 3.42494,-0.76039z"></path><path stroke-linecap="butt" stroke-width="1.9" stroke="#000000" fill="#ffffff" d="M239.6311,192.14251c8.81557,0.07467 10.17695,-3.78733 14.1844,-6.17258c2.75984,-1.64267 6.34404,-2.07905 6.34828,-2.04332c0.02801,0.23594 -2.39298,8.938 -8.17166,13.25055c-3.14804,2.34934 -7.91278,3.30928 -12.18584,3.14946c-4.62365,-0.14633 -9.10777,-0.27103 -12.60322,-2.89905c-6.91423,-5.19839 -8.98374,-15.77186 -8.95861,-15.8842c0.00648,-0.02898 2.839,0.68039 5.95064,2.56035c5.10601,3.0849 8.70371,7.98176 15.43601,8.03878z"></path><path stroke-linecap="round" stroke-width="1" stroke="#000000" fill="none" d="M249.83169,187.44213c0,0 -5.53693,1.54034 -9.50043,1.40764c-3.78557,-0.12674 -10.73829,-1.88198 -10.73829,-1.88198"></path></g><g stroke-linecap="butt"><path stroke-width="0" stroke="none" fill="#000000" d="M308.29043,182.93575c-0.07563,3.55453 -10.48508,13.1414 -17.90473,12.98354c-7.41965,-0.15786 -17.37315,-11.33402 -17.29753,-14.88855c0.07563,-3.55453 11.15175,-0.6414 18.57139,-0.48354c7.41965,0.15786 16.70649,-1.16598 16.63086,2.38855z"></path><path stroke-width="0" stroke="none" fill="#ffffff" d="M305.33134,181.54574c0,0 -3.94007,5.39498 -14.97499,5.03409c-9.70211,-0.31731 -13.16137,-5.125 -13.16137,-5.125z"></path><path stroke-width="0" stroke="none" fill="#ffffff" d="M290.88437,189.59395c4.53863,0.01467 12.32576,-1.9573 12.32576,-1.9573c0,0 -1.82896,6.72831 -12.86388,6.36742c-9.70211,-0.3173 -11.60582,-6.45833 -11.60582,-6.45833c0,0 7.32106,2.03263 12.14394,2.04821z"></path><path stroke-width="1.4" stroke="#000000" fill="#ffffff" d="M291.76675,179.93092c0.24666,0.01825 0.6086,-1.12423 2.34631,-1.62581c1.67939,-0.48474 4.07183,-1.05969 5.53918,-0.92781c1.61805,0.42498 11.90761,2.86614 11.90761,2.86614c0,0 -5.64963,2.07353 -9.9527,2.80731c-4.30307,0.73378 -7.72731,1.00334 -10.33132,0.9016c-3.30127,-0.12898 -8.75077,-0.84184 -12.23104,-1.6155c-3.48027,-0.77365 -9.54185,-3.23117 -9.54185,-3.23117c0,0 7.58865,-1.82218 10.24449,-2.4583c2.23332,-0.53492 6.3384,0.71443 8.96556,1.37619c2.81497,0.70908 2.80847,1.88918 3.05375,1.90733z"></path><path stroke-width="1.9" stroke="#000000" fill="#ffffff" d="M268.64326,180.05045c0,0 5.43388,1.1178 8.05043,2.58485c3.88726,2.17951 4.72368,6.35447 9.02709,8.77208c2.44304,1.37247 8.3849,1.58571 10.61794,0.02913c3.44461,-2.40111 4.51116,-5.59954 8.40045,-7.52091c3.74186,-1.84853 7.93246,-2.56357 7.93246,-2.56357c0,0 -5.79867,19.98303 -22.27066,19.61375c-16.47199,-0.36928 -21.75771,-20.91533 -21.75771,-20.91533z"></path></g><g stroke-linecap="butt"><path stroke-width="0" stroke="none" fill="#000000" d="M337.07003,194.27391l-11.7662,-15.4268h35.82155l-7.32119,15.4268z"></path><path stroke-width="0" stroke="none" fill="#ffffff" d="M336.28562,194.79685v-6.79825c0,0 5.51305,1.30736 8.10561,1.30736c2.54898,0 7.32119,-1.30736 7.32119,-1.30736v6.79825z"></path><path stroke-width="0" stroke="none" fill="#ffffff" d="M334.97826,184.338v-4.70648h18.04151v4.70648c0,0 -6.08208,0.78441 -9.15149,0.78441c-2.93874,0 -8.89002,-0.78441 -8.89002,-0.78441z"></path><path stroke-width="1.4" stroke="#000000" fill="#ffffff" d="M358.76885,177.89429c2.9637,1.20597 5.90627,2.03147 5.88677,2.19903c-0.02476,0.21265 -8.08153,1.79577 -11.32613,2.20107c-2.71902,0.33964 -8.2575,0.44417 -8.2575,0.44417c0,0 -6.84254,0.14567 -13.01088,-1.13785c-4.94371,-1.02869 -10.39929,-2.4455 -10.40995,-2.53903c-0.01439,-0.12613 3.60688,-1.75659 6.5627,-2.44055c1.14585,-0.49661 6.4856,-1.7466 6.4856,-1.7466c0,0 3.38702,0.24528 6.03943,1.10195c2.84203,0.91791 4.14282,3.22997 4.39046,3.25347c0,0 2.23024,-2.53373 3.41474,-2.88902c1.18451,-0.35528 4.29777,-0.6778 4.72386,-0.51955c0.42609,0.15825 2.56062,0.87649 5.5009,2.07293z"></path><path stroke-width="1.9" stroke="#000000" fill="#ffffff" d="M344.64554,192.19206c3.43851,-0.04798 6.12114,-1.51231 7.71646,-2.79264c0.76678,-0.61538 5.84939,-5.99903 6.94774,-6.60967c2.82459,-3.02309 4.3017,-2.7151 4.3201,-2.56007c0.02867,0.24147 0.43644,9.67651 -6.24685,16.31699c-3.00485,2.98305 -8.19728,4.3887 -12.28652,4.23575c-4.49097,-0.14213 -9.38036,0.26796 -12.87209,-2.9969c-6.16819,-5.69947 -10.76458,-19.25358 -10.73908,-19.36755c0.01662,-0.0743 3.36647,0.92059 6.12476,2.94191c3.52023,2.57969 6.26335,5.86209 7.6631,7.67486c1.71293,2.21835 5.43143,3.21231 9.37237,3.15732z"></path></g><g><path stroke-linecap="butt" stroke-width="0" stroke="none" fill="#ffffff" d="M350.81486,153.49284c0,3.73757 -5.7335,6.76747 -12.80613,6.76747c-7.07263,0 -12.80613,-3.0299 -12.80613,-6.76747c0,-3.73757 5.7335,-6.76747 12.80613,-6.76747c7.07263,0 12.80613,3.0299 12.80613,6.76747z"></path><path stroke-linecap="round" stroke-width="0.5" stroke="#000000" fill="none" d="M356.43766,152.65952c0,0 -6.82702,1.19822 -13.72742,0.85929c-5.29962,-0.2603 -16.7731,-3.85604 -16.7731,-3.85604"></path><path stroke-linecap="butt" stroke-width="1.4" stroke="#000000" fill="#ffffff" d="M349.18014,145.28817c1.70316,-0.6727 3.01942,-0.82838 4.47369,-0.46578c2.25072,0.5612 9.22136,6.12401 9.22136,6.12401c0,0 -7.4634,0.10703 -10.7226,0.5415c-1.06394,0.14184 -4.52855,0.35263 -7.31551,-0.12849c-4.36749,-0.75396 -8.54723,-2.44308 -10.52616,-2.90633c-3.24172,-0.75889 -4.59252,0.94392 -6.62529,0.77599c-2.71236,-0.22407 -4.81856,-1.75878 -4.81856,-1.75878c0,0 2.22,-1.79581 3.39322,-3.17738c1.25455,-1.47734 2.38093,-3.41072 5.36482,-3.48359c4.13013,-0.10088 8.84221,3.35891 11.50654,4.27727c2.85481,0.98401 4.37341,2.62165 4.62216,2.64684c0,0 -0.336,-1.74919 1.42631,-2.44526z"></path><path stroke-linecap="butt" stroke-width="1.9" stroke="#000000" fill="#ffffff" d="M340.06751,166.18639c-18.23616,-0.96293 -16.87513,-17.7517 -16.87513,-17.7517c0,0 2.7864,1.4969 4.29139,2.85462c2.03668,1.83739 2.51996,5.25529 6.30857,5.89945c3.48246,0.5921 7.37667,-2.65154 10.86838,-3.46717c1.68631,-0.39391 4.44671,-0.60998 7.09496,-0.88202c2.55941,-0.26291 5.02387,-0.58792 5.75653,-0.62007c2.73697,-0.1201 5.83843,0.09341 5.83843,0.09341c0,0 -5.02745,14.83744 -23.28311,13.87348z"></path></g><g><path stroke-linecap="butt" stroke-width="0" stroke="none" fill="#ffffff" d="M309.18422,152.99657c0,4.05054 -9.04598,7.33416 -18.45369,7.33416c-9.40772,0 -17.03418,-5.1763 -17.03418,-9.22685c0,-4.05054 7.62646,-5.44147 17.03418,-5.44147c2.8346,0 4.08797,2.66396 6.43926,3.19133c5.45237,1.2229 12.01443,1.31274 12.01443,4.14283z"></path><path stroke-linecap="butt" stroke-width="1.4" stroke="#000000" fill="#ffffff" d="M304.47069,149.49261c2.77874,1.60947 8.33487,2.63156 8.31659,2.85519c-0.01537,0.18788 -16.53789,1.52036 -16.53789,1.52036c0,0 -8.48162,-4.33453 -13.32332,-4.53931c-4.8417,-0.20478 -7.1865,1.09407 -9.10765,1.07914c-1.40963,-0.01095 -2.32823,-0.44717 -2.33246,-0.5c-0.00749,-0.09341 2.69483,-1.68435 5.84906,-3.84488c2.52959,-1.73268 5.64948,-2.709 5.64948,-2.709c0,0 3.86086,0.49171 6.34774,1.635c2.66467,1.22503 3.44422,3.08438 3.6764,3.11575c0,0 1.11044,-0.82949 2.22102,-1.30366c1.11059,-0.47415 3.90789,-0.12706 4.30739,0.08414c0,0 2.17684,1.01051 4.93363,2.60727z"></path><path stroke-linecap="butt" stroke-width="1.9" stroke="#000000" fill="#ffffff" d="M297.26795,154.12236c0.97992,-0.10268 3.55356,-0.54391 7.82738,-0.9081c4.14963,-0.35361 7.44519,-0.63457 7.46563,-0.46249c0.02192,0.1845 -3.59314,2.49145 -7.8645,6.14915c-3.63569,3.11336 -10.40087,5.6055 -15.62457,5.41024c-5.57928,-0.17648 -8.84873,-1.87319 -12.45355,-4.86459c-4.73659,-3.93056 -5.30803,-9.2826 -5.28788,-9.3726c0.00878,-0.03926 2.63193,0.17062 3.11982,0.24233c0.52918,0.07777 2.08813,1.10472 3.52755,2.55499c1.75123,1.76442 3.56644,2.75683 6.18639,3.28491c2.61995,0.52808 11.72652,-1.88954 13.10374,-2.03384z"></path><path stroke-linecap="round" stroke-width="0.5" stroke="#000000" fill="none" d="M297.85242,154.44514c0,0 -8.98316,-0.91835 -13.10637,-1.55778c-1.98157,-0.3073 -8.53993,-2.06218 -8.53993,-2.06218"></path></g><g stroke-linecap="butt" fill="#ffffff"><path stroke-width="0" stroke="none" d="M223.68331,154.78167v-9.75h26.66667v9.75z"></path><path stroke-width="1.4" stroke="#000000" d="M253.14687,146.02334c2.30304,0.93714 5.46612,3.96909 6.71557,4.38692c0.11424,0.0382 -7.21262,0.4771 -8.621,0.14495c-0.78875,-0.18601 -5.0695,-0.83746 -7.71554,-1.55752c-2.29635,-0.6249 -4.63628,-1.42596 -4.63628,-1.42596c0,0 -4.22395,-0.42586 -7.45026,-0.13872c-2.17194,0.1933 -2.59892,1.23788 -4.74714,1.50393c-2.74583,0.34007 -8.31624,0.03575 -8.31823,0.0183c-0.01439,-0.12613 1.86835,-3.71071 4.32417,-6.06133c0.86307,-0.55049 1.64282,-1.42904 2.98864,-2.10528c1.09066,-0.54803 2.86774,-0.96319 2.86774,-0.96319c0,0 1.19816,0.05446 2.56748,0.46621c1.55546,0.46772 3.38017,1.32387 4.79078,1.77946c2.84203,0.91791 3.08546,3.86223 3.3331,3.88573c0,0 1.18436,-2.16599 2.36886,-2.52128c1.18451,-0.35528 5.91552,0.33367 6.34161,0.49192c0,0 2.25022,0.89942 5.1905,2.09586z"></path><path stroke-width="1.9" stroke="#000000" d="M245.83635,151.69559c1.6715,-0.26442 4.87352,-0.56448 6.83758,-0.58013c4.7574,-0.0379 7.3212,-0.42345 7.34236,-0.2452c0.02267,0.19087 -1.59901,4.74118 -5.68309,7.77675c-3.71462,2.76096 -9.61023,4.05291 -15.38166,3.83705c-13.76954,-0.43578 -20.44792,-13.13559 -20.41008,-13.30472c0.01789,-0.07997 1.40389,-0.11381 6.55052,0.22418c2.21268,0.14531 5.56366,1.95663 7.7197,2.59152c3.43538,1.01162 7.24757,0.96005 7.24757,0.96005c0,0 3.00193,-0.82048 5.7771,-1.2595z"></path></g><g stroke-linecap="butt"><path stroke-width="0" stroke="none" fill="#000000" d="M148.86562,122.82652c0,3.12161 -5.18279,5.65218 -11.57609,5.65218c-6.39329,0 -11.57609,-2.53056 -11.57609,-5.65217c0,-3.12161 5.18279,-5.65217 11.57609,-5.65217c6.39329,0 11.57609,2.53056 11.57609,5.65217z"></path><path stroke-width="1.4" stroke="#000000" fill="#ffffff" d="M144.16891,115.32381c0.22827,0.08479 2.81125,0.89783 5.30488,1.9838c3.73744,1.62765 7.81609,3.73292 7.8044,3.83343c-0.02476,0.21265 -19.49847,0.14222 -19.49847,0.14222c0,0 -22.3673,-0.95412 -22.37796,-1.04764c-0.0088,-0.07715 4.86482,-1.80033 8.90498,-3.46487c2.56539,-1.05694 5.28307,-1.5819 5.28307,-1.5819c0,0 1.70224,-0.04697 3.61888,0.57206c2.84203,0.91791 4.3572,2.77164 4.60484,2.79514c0,0 1.39971,-1.20454 3.26803,-2.16373c1.01668,-0.52196 2.93721,-1.12429 3.08737,-1.06852z"></path><path stroke-width="1.9" stroke="#000000" fill="#ffffff" d="M156.71076,121.27735c0.02531,0.21309 -1.25253,5.99404 -6.18455,9.31456c-3.50385,2.35899 -9.49597,4.16864 -14.52874,3.9804c-5.5609,-0.17599 -11.30918,-2.666 -14.62886,-5.09094c-4.9003,-3.57954 -6.04654,-9.00426 -6.02398,-9.10509c0.0082,-0.03666 11.25466,0.63816 11.9829,0.8298c1.94151,0.51092 4.30913,5.38701 10.35205,5.46022c4.49738,0.07264 6.70573,-4.68337 8.17063,-5.16798c0,0 10.8583,-0.23994 10.86055,-0.22097z"></path></g><g stroke-linecap="butt"><path stroke-width="0" stroke="none" fill="#000000" d="M204.25404,123.60901c0,3.12161 -5.18279,5.65218 -11.57609,5.65218c-6.39329,0 -11.57609,-2.53056 -11.57609,-5.65217c0,-3.12161 5.18279,-5.65217 11.57609,-5.65217c6.39329,0 11.57609,2.53056 11.57609,5.65217z"></path><path stroke-width="1.4" stroke="#000000" fill="#ffffff" d="M199.55733,116.10624c0.22827,0.08479 2.81125,0.89783 5.30488,1.9838c3.73744,1.62765 7.81609,3.73292 7.8044,3.83343c-0.02476,0.21265 -19.49847,0.14222 -19.49847,0.14222c0,0 -22.3673,-0.95412 -22.37796,-1.04764c-0.0088,-0.07715 4.86482,-1.80033 8.90498,-3.46487c2.56539,-1.05694 5.28307,-1.5819 5.28307,-1.5819c0,0 1.70224,-0.04697 3.61888,0.57206c2.84203,0.91791 4.3572,2.77164 4.60484,2.79514c0,0 1.39971,-1.20454 3.26803,-2.16373c1.01668,-0.52196 2.93721,-1.12429 3.08737,-1.06852z"></path><path stroke-width="1.9" stroke="#000000" fill="#ffffff" d="M212.09918,122.05977c0.02531,0.21309 -2.042,5.46773 -6.97402,8.78825c-3.50385,2.35899 -8.44334,3.11601 -13.47611,2.92777c-5.5609,-0.17599 -11.04602,-1.61337 -14.3657,-4.03831c-4.9003,-3.57954 -6.57286,-8.47794 -6.5503,-8.57877c0.0082,-0.03666 12.83361,0.63816 13.56185,0.8298c1.94151,0.51092 2.73018,4.07122 8.7731,4.14443c4.49738,0.07264 5.12678,-3.36758 6.59168,-3.85219c0,0 12.43725,-0.23994 12.4395,-0.22097z"></path></g><g stroke-linecap="butt"><path stroke-width="0" stroke="none" fill="#000000" d="M249.89571,124.86171c0,3.11355 -3.51562,5.63758 -7.85235,5.63758c-4.33673,0 -7.85235,-2.52403 -7.85235,-5.63758c0,-3.11355 3.51562,-5.63758 7.85235,-5.63758c4.33673,0 7.85235,2.52403 7.85235,5.63758z"></path><path stroke-width="1.4" stroke="#000000" fill="#ffffff" d="M258.66378,123.8267c-0.01591,0.13661 -6.9211,-0.07029 -11.85773,-0.23573c-0.95318,-0.03194 -1.34954,-1.12609 -1.9867,-1.48968c-1.19983,-0.68468 -2.22831,-0.82932 -2.22831,-0.82932c0,0 -1.591,0.10684 -2.40715,0.52809c-1.09681,0.56612 -1.65976,1.48369 -3.30691,1.41646c-5.62174,-0.22944 -13.93434,-0.57912 -13.94139,-0.64102c-0.00997,-0.08744 4.18473,-3.31289 8.06164,-5.31109c1.71544,-0.88415 3.80044,-1.52802 4.69641,-1.55346c3.11049,-0.02168 6.72808,4.45898 6.97572,4.48248c0,0 3.77964,-4.55362 6.16646,-4.29373c1.05156,0.1145 3.36596,1.24129 5.00991,2.61124c2.74704,2.28919 4.82486,5.25733 4.81806,5.31576z"></path><path stroke-width="1.9" stroke="#000000" fill="#ffffff" d="M245.48472,125.42858c0.95059,-0.98579 0.89625,-1.19608 2.39729,-1.24623c4.68638,-0.15659 10.64779,-0.31112 10.67464,-0.085c0.03004,0.25302 -1.97615,6.13733 -7.75231,9.15027c-2.54427,1.32714 -6.20066,1.55625 -9.90584,1.41767c-4.26352,-0.13493 -7.84546,-1.07296 -10.38734,-2.67951c-5.66742,-3.58199 -7.23064,-9.15275 -7.20451,-9.26951c0.02364,-0.10568 7.44917,0.57278 13.01704,1.09669c1.18521,0.11152 1.96423,0.97575 2.81111,1.75096c2.22537,2.03703 4.65133,1.62613 6.34991,-0.13534z"></path></g><g stroke-linecap="butt"><path stroke-width="0" stroke="none" fill="#000000" d="M302.63029,125.47291c0,4.31138 -3.58172,7.80645 -8,7.80645c-4.41828,0 -8,-3.49507 -8,-7.80645c0,-4.31138 3.58172,-7.80645 8,-7.80645c4.41828,0 8,3.49507 8,7.80645z"></path><path stroke-width="1.4" stroke="#000000" fill="#ffffff" d="M309.13469,124.20051c-0.01362,0.11696 -4.53443,-0.01263 -8.60029,-0.38519c-1.2626,-0.11569 -1.72463,-1.43168 -2.61248,-2.05944c-1.45131,-1.02615 -2.96172,-1.76588 -2.96172,-1.76588c0,0 -2.30091,0.43422 -3.08562,0.96301c-1.24723,0.84047 -1.42124,2.17792 -3.31498,2.13248c-4.76341,-0.11428 -10.82361,-0.52886 -10.83008,-0.58563c-0.00915,-0.08018 3.18162,-3.19096 6.10734,-5.82114c1.67697,-1.50757 3.0829,-3.22517 4.21641,-3.18933c3.85662,-0.38832 5.68681,6.26812 6.87132,5.91284c1.18451,-0.35528 2.24554,-5.67629 6.02441,-5.5484c1.06904,-0.027 2.33336,2.03513 3.89061,4.23173c2.04471,2.8842 4.2969,6.0994 4.29509,6.11496z"></path><path stroke-width="1.9" stroke="#000000" fill="#ffffff" d="M294.89745,128.88686c0,0 1.94052,0.3649 2.85649,-0.91498c1.16705,-1.6307 1.53595,-4.08783 3.49002,-4.07676c3.74243,0.0212 7.62692,0.0884 7.64936,0.27595c0.00512,0.04275 -0.57992,2.52947 -1.95723,5.24508c-0.85918,1.69403 -2.27946,4.18081 -3.80431,5.35675c-2.84652,2.19519 -8.10483,1.42346 -9.51954,1.37096c-1.80121,-0.05656 -6.41418,0.16989 -9.38049,-2.44757c-2.19918,-1.94055 -3.49516,-4.71293 -4.56017,-7.06745c-0.8846,-1.95567 -1.72746,-3.70083 -1.72083,-3.73026c0.0075,-0.03327 5.23231,0.28787 9.78922,0.57437c1.88545,0.11854 3.04802,3.02736 4.42245,4.67491c1.19582,1.43344 2.73503,0.739 2.73503,0.739z"></path></g><g stroke-linecap="butt"><path stroke-width="0" stroke="none" fill="#000000" d="M330.67795,131.51141v-11.9609h25.6495v11.9609z"></path><path stroke-width="0" stroke="none" fill="#ffffff" d="M337.74224,122.29707v-3.54397h14.17115v3.54397c0,0 -4.67839,0.443 -7.08557,0.443c-2.31275,0 -7.08558,-0.443 -7.08558,-0.443z"></path><path stroke-width="0" stroke="none" fill="#ffffff" d="M339.71508,133.23912v-5.98045c0,0 1.71445,1.14754 4.70893,1.06319c2.59785,-0.07318 4.4611,-1.06319 4.4611,-1.06319v5.98045z"></path><path stroke-width="1.4" stroke="#000000" fill="#ffffff" d="M362.3381,123.08458c-0.01376,0.1182 -4.6093,-0.25514 -8.23539,-0.37109c-2.56737,-0.0821 -5.14002,-1.3498 -5.84502,-1.73946c-1.06089,-0.58636 -3.49675,-0.40564 -3.49675,-0.40564c0,0 -1.65935,-0.12198 -4.2081,0.21643c-1.21617,0.16147 -2.63484,0.83833 -4.17236,0.91514c-5.55482,0.27749 -12.37232,-0.09796 -12.37806,-0.14832c-0.01439,-0.12613 9.48217,-7.68539 11.86518,-7.92996c2.38302,-0.24456 7.65284,4.48645 7.90048,4.50995c0,0 1.18436,-1.74932 2.36886,-2.10461c0.6663,-0.19985 2.77008,-2.20589 5.20597,-2.01552c2.14399,0.16756 11.01469,8.90553 10.99519,9.07309z"></path><path stroke-width="1.9" stroke="#000000" fill="#ffffff" d="M332.99722,123.1134c2.83772,0.57229 3.81457,2.9517 5.94436,5.45107c2.61361,3.06716 5.57451,2.40645 5.57451,2.40645c0,0 2.98535,0.31284 5.42693,-2.84388c1.54093,-1.99228 2.23628,-3.91673 3.41855,-4.04067c2.05992,-0.21596 8.55802,-0.70654 8.60228,-0.33377c0.02859,0.24078 -1.59005,8.14208 -7.17762,12.26435c-2.87056,2.11777 -7.20019,1.93139 -11.31248,1.77758c-4.12909,-0.13068 -8.48275,-0.29868 -11.06524,-2.33536c-6.02952,-4.75517 -7.26944,-13.78124 -7.24294,-13.89965c0.03784,-0.16913 2.74053,0.52716 7.83167,1.55391z"></path></g><g stroke-linecap="butt" stroke="#000000" fill="#ffffff"><path stroke-width="1.4" d="M146.69375,95.67133c0.5704,0.21186 3.08357,1.39942 6.02385,2.59586c2.9637,1.20597 7.21362,1.52857 7.19412,1.69613c-0.02476,0.21265 -10.43477,-0.79222 -13.67937,-0.38692c-2.71902,0.33964 -6.68867,0.70564 -6.68867,0.70564c0,0 -6.84922,-1.79866 -13.27235,-2.44521c-4.94371,-0.51911 -10.39929,0.12244 -10.40995,0.02891c-0.01439,-0.12613 3.86835,-0.71071 6.82417,-1.39467c1.14585,-0.49661 5.43971,-1.48513 5.43971,-1.48513c0,0 4.95585,-0.27766 7.60826,0.579c2.84203,0.91791 2.83546,2.44556 3.0831,2.46906c0,0 1.18436,-1.74932 2.36886,-2.10461c1.18451,-0.35528 5.08219,-0.41633 5.50828,-0.25808z"></path><path stroke-width="1.9" d="M139.96334,100.61166c0,0 5.78976,-0.91888 8.44678,-1.19743c2.05992,-0.21596 11.216,0.18522 11.26026,0.55799c0.04328,0.36447 -9.03119,7.80455 -21.14808,7.35136c-13.76954,-0.43578 -22.86459,-9.27544 -22.82675,-9.44457c0.03784,-0.16913 7.2591,-0.84666 12.35024,0.18009z"></path></g><g stroke-linecap="butt" stroke="#000000" fill="#ffffff"><path stroke-width="1.4" d="M200.96849,95.4603c0.52203,0.27138 2.57205,1.04259 5.26297,2.57516c2.71235,1.54478 6.10183,3.33302 6.08398,3.54765c-0.02266,0.27239 -7.67479,-2.01479 -10.64422,-1.49562c-2.48842,0.43506 -7.9964,1.90389 -7.9964,1.90389c0,0 -5.14333,-2.05399 -11.02172,-2.88219c-4.52444,-0.66495 -10.64232,-0.09316 -10.65208,-0.21296c-0.01317,-0.16156 4.29027,-1.66038 6.99541,-2.5365c1.04867,-0.63613 5.72837,-1.90238 5.72837,-1.90238c0,0 3.28554,-0.35567 5.713,0.74167c2.601,1.17579 2.34498,3.13264 2.57162,3.16274c0,0 1.08392,-2.11578 2.16796,-2.57089c1.08405,-0.45509 5.15117,-0.6583 5.54112,-0.45559z"></path><path stroke-width="1.9" d="M194.05889,102.08413c0,0 5.54873,-1.72385 7.9804,-1.98117c1.88522,-0.1995 10.01477,1.0461 10.05527,1.39046c0.03961,0.33669 -8.26525,7.08471 -19.35451,6.66606c-12.60174,-0.40257 -20.92543,-8.44349 -20.8908,-8.59973c0.03463,-0.15624 8.14346,-1.15713 12.80282,-0.20864z"></path></g><g stroke-linecap="butt" stroke="#000000" fill="#ffffff"><path stroke-width="1.4" d="M356.26908,94.86862c2.9637,1.20597 6.96362,2.54294 6.94412,2.7105c-0.02476,0.21265 -6.18477,0.24966 -9.42937,0.65497c-2.71902,0.33964 -10.32504,1.16019 -10.32504,1.16019c0,0 -21.39891,-2.01539 -21.40957,-2.10892c-0.01439,-0.12613 13.62752,-4.78889 13.62752,-4.78889c0,0 1.13767,-0.27766 3.79008,0.579c2.84203,0.91791 3.10819,1.80919 3.35583,1.8327c0,0 1.45709,-1.47659 2.64159,-1.83188c1.18451,-0.35528 5.23555,-0.34899 5.23555,-0.34899c0,0 2.62902,0.94489 5.5693,2.14133z"></path><path stroke-width="1.9" d="M343.5148,99.63373c0,0 6.33522,-1.1013 8.99224,-1.37985c2.05992,-0.21596 10.12509,-1.002 10.16935,-0.62923c0.04328,0.36447 -6.59937,12.65033 -18.71626,12.19714c-13.76954,-0.43578 -21.75095,-12.04468 -21.71311,-12.21381c0.01711,-0.07649 4.18771,-0.03302 8.95025,0.43588c5.76716,0.56781 12.31754,1.58987 12.31754,1.58987z"></path></g><g stroke-linecap="butt" stroke="#000000" fill="#ffffff"><path stroke-width="1.4" d="M256.47103,94.02296c2.9637,1.20597 7.21362,2.29294 7.19412,2.4605c-0.02476,0.21265 -10.43477,0.22694 -13.67937,0.63224c-2.71902,0.33964 -6.68867,1.03897 -6.68867,1.03897c0,0 -7.10401,-1.49502 -13.27235,-2.77854c-4.94371,-1.02869 -10.39929,-1.66108 -10.40995,-1.75461c-0.01439,-0.12613 3.86835,-0.71071 6.82417,-1.39467c1.14585,-0.49661 7.77304,-1.48513 7.77304,-1.48513c0,0 2.62252,-0.27766 5.27493,0.579c2.84203,0.91791 3.33546,2.44556 3.5831,2.46906c0,0 1.51769,-1.74932 2.70219,-2.10461c1.18451,-0.35528 4.91552,-0.24966 5.34161,-0.09141c0,0 2.41689,1.23276 5.35717,2.4292z"></path><path stroke-width="1.9" d="M241.5045,98.06407c1.34622,0.4274 2.21226,0.22397 2.21226,0.22397c0,0 1.56698,-0.05778 2.96557,-0.46657c1.23725,-0.36163 3.73402,-1.07042 4.98121,-1.20117c2.05992,-0.21596 11.716,-0.37321 11.76026,-0.00044c0.02733,0.23019 -2.14872,7.47921 -7.91369,11.81562c-3.363,2.52965 -8.93685,3.29849 -13.40106,3.13152c-5.43678,-0.17206 -10.95217,-0.95763 -14.62556,-4.27646c-5.63007,-5.08664 -8.05742,-13.42591 -8.03452,-13.52826c0.03784,-0.16913 6.2591,0.35832 11.35024,1.38507c0,0 8.31836,2.1589 10.70529,2.91671z"></path></g><g stroke-linecap="butt" stroke="#000000" fill="#ffffff"><path stroke-width="1.4" d="M309.03358,94.43961c2.9637,1.20597 7.21362,2.29294 7.19412,2.4605c-0.02476,0.21265 -10.43477,0.22694 -13.67937,0.63224c-2.71902,0.33964 -6.68867,1.03897 -6.68867,1.03897c0,0 -7.10401,-1.49502 -13.27235,-2.77854c-4.94371,-1.02869 -10.39929,-1.66108 -10.40995,-1.75461c-0.01439,-0.12613 3.86835,-0.71071 6.82417,-1.39467c1.14585,-0.49661 7.77304,-1.48513 7.77304,-1.48513c0,0 2.62252,-0.27766 5.27493,0.579c2.84203,0.91791 3.33546,2.44556 3.5831,2.46906c0,0 1.51769,-1.74932 2.70219,-2.10461c1.18451,-0.35528 4.91552,-0.24966 5.34161,-0.09141c0,0 2.41689,1.23276 5.35717,2.4292z"></path><path stroke-width="1.9" d="M294.06703,98.48074c1.34622,0.4274 2.21226,0.22397 2.21226,0.22397c0,0 1.56698,-0.05778 2.96557,-0.46657c1.23725,-0.36163 3.73402,-1.07042 4.98121,-1.20117c2.05992,-0.21596 11.716,-0.37321 11.76026,-0.00044c0.02733,0.23019 -2.14872,6.64588 -7.91369,10.98229c-3.363,2.52965 -8.93685,3.29849 -13.40106,3.13152c-5.43678,-0.17206 -10.95217,-0.95763 -14.62556,-4.27646c-5.63007,-5.08664 -8.05742,-12.59258 -8.03452,-12.69493c0.03784,-0.16913 6.2591,0.35832 11.35024,1.38507c0,0 8.31836,2.1589 10.70529,2.91671z"></path></g></g></g></svg>