<svg version="1.1" xmlns="http://www.w3.org/2000/svg" xmlns:xlink="http://www.w3.org/1999/xlink" width="284.62816" height="237.78312" viewBox="0,0,284.62816,237.78312"><g transform="translate(-97.68591,-61.29729)"><g data-paper-data="{&quot;isPaintingLayer&quot;:true}" fill-rule="nonzero" stroke-linecap="butt" stroke-linejoin="miter" stroke-miterlimit="10" stroke-dasharray="" stroke-dashoffset="0" style="mix-blend-mode: normal"><g stroke="none" stroke-width="0"><path d="M309.01367,230.28876c0,0 -0.73763,-10.64959 11.5755,-10.12446c11.32551,0.48301 10.37553,10.93004 10.37553,10.93004z" fill="#000000"/><path d="M310.30387,229.13075c0,0 0.39923,-4.04799 3.57852,-6.12086c1.9315,-1.25931 3.84936,-1.55106 6.54962,-1.6059c8.10518,-0.16458 9.29549,8.12954 9.29549,8.12954z" fill="#ffffff"/></g><g stroke="none" stroke-width="0"><g><path d="M282.26187,242.42599c0,0 -0.71905,-10.6496 11.28381,-10.12447c11.04013,0.48301 10.1141,10.93004 10.1141,10.93004c0,0 -6.60229,0.83241 -11.61668,0.69881c-6.89722,-0.18375 -9.78123,-1.50438 -9.78123,-1.50438z" fill="#000000"/><path d="M283.51957,241.26798c0,0 0.38916,-4.048 3.48834,-6.12086c1.88281,-1.25931 3.75237,-1.55106 6.38459,-1.60589c7.90095,-0.16458 9.06126,8.12954 9.06126,8.12954c0,0 -4.99239,0.47777 -9.70815,0.49814c-3.16705,0.01368 -9.22605,-0.90092 -9.22605,-0.90092z" fill="#ffffff"/></g><g><path d="M308.79211,242.33872c0,0 -0.73516,-10.64959 11.5366,-10.12446c11.28746,0.48301 10.34068,10.93004 10.34068,10.93004c0,0 -6.75019,0.83241 -11.87691,0.69882c-7.05174,-0.18375 -10.00036,-1.50439 -10.00036,-1.50439z" fill="#000000"/><path d="M310.07799,241.18071c0,0 0.39787,-4.04799 3.56649,-6.12086c1.925,-1.25931 3.83643,-1.55106 6.52763,-1.6059c8.07795,-0.16458 9.26426,8.12954 9.26426,8.12954c0,0 -5.10424,0.47777 -9.92563,0.49814c-3.238,0.01368 -9.43274,-0.90092 -9.43274,-0.90092z" fill="#ffffff"/></g></g><g stroke="none" stroke-width="0"><g><path d="M309.63204,206.16535c0,0 -0.73077,-10.6496 11.46766,-10.12446c11.22001,0.48301 10.27889,10.93003 10.27889,10.93003l-1.56367,-0.44225c0,0 -2.25197,-2.10843 -9.36111,-2.28659c-7.44978,-0.18669 -10.82176,1.92327 -10.82176,1.92327z" fill="#000000"/><path d="M311.1763,204.44009c0,0 0.26247,-3.52438 3.41214,-5.59724c1.9135,-1.25931 3.68047,-1.55106 6.35558,-1.60589c8.02967,-0.16459 8.80979,7.56229 8.80979,7.56229c0,0 -0.34737,-1.75544 -9.42456,-2.04201c-7.88637,0.06515 -9.15294,1.68286 -9.15294,1.68286z" fill="#ffffff"/></g><g><path d="M282.97096,206.12172c0,0 -0.71905,-10.6496 11.28382,-10.12446c11.04013,0.48301 10.11409,10.93003 10.11409,10.93003c0,0 -3.41699,-2.72332 -10.74964,-2.72884c-7.33266,-0.00552 -10.64827,1.92327 -10.64827,1.92327z" fill="#000000"/><path d="M284.49046,204.39645c0,0 0.25826,-3.52438 3.35744,-5.59724c1.88281,-1.25931 3.62147,-1.55106 6.25368,-1.60589c7.90095,-0.16458 8.66855,7.56229 8.66855,7.56229c0,0 -0.3418,-1.75543 -9.27346,-2.04201c-7.75994,0.06515 -9.00622,1.68285 -9.00622,1.68285z" fill="#ffffff"/></g></g><g stroke="none" stroke-width="0"><g><path d="M346.10954,243.2542c9.15801,0.8761 9.23667,10.99496 9.23667,10.99496h-1.30904c0,0 -1.11335,-1.42943 -9.22808,-1.80504c-6.88781,-0.31882 -11.11587,1.21429 -11.11587,1.21429c0,0 0.26137,-11.56701 12.41633,-10.40421z" fill="#000000"/><path d="M344.35021,251.01012c-5.9951,-0.18013 -8.76588,0.49404 -8.76588,0.49404c0,0 0.72982,-6.65285 8.99076,-6.77076c7.61664,-0.10871 8.97019,7.19537 8.97019,7.19537c0,0 -2.4924,-0.71726 -9.19508,-0.91866z" fill="#ffffff"/><g><path d="M353.68474,255.18061c0,0 -1.71552,7.14836 -9.41509,7.27528c-8.07597,0.13313 -9.26404,-7.07389 -9.26404,-7.07389c0,0 3.7743,2.14487 8.98879,2.03239c6.32647,-0.13647 9.69032,-2.23378 9.69032,-2.23378z" fill="#000000"/><path d="M336.49317,257.58267c0,0 3.74769,1.30964 7.53366,1.26165c5.48586,0.00128 8.13068,-1.69269 8.13068,-1.69269c0,0 -2.24102,4.4279 -7.92666,4.41277c-5.90464,-0.01572 -7.73766,-3.98174 -7.73766,-3.98174z" fill="#ffffff"/></g></g><g><path d="M372.72686,243.2542c9.92958,1.03189 9.58577,10.64588 9.58577,10.64588l-2.26902,0.08728c0,0 -0.50246,-1.16762 -8.61719,-1.54323c-6.88781,-0.31882 -11.11587,1.21429 -11.11587,1.21429c0,0 0.27127,-11.66635 12.41632,-10.40421z" fill="#000000"/><path d="M370.96753,251.01012c-5.9951,-0.18013 -9.24587,0.71221 -9.24587,0.71221c0,0 1.42799,-7.04557 9.68893,-7.16347c8.88205,-0.10871 9.27563,7.93717 9.27563,7.93717c0,0 -3.01602,-1.28452 -9.7187,-1.48592z" fill="#ffffff"/><g><path d="M380.42179,255.2548c0,0 -1.89698,7.10919 -9.72337,7.0677c-8.209,-0.04352 -9.26114,-7.27486 -9.26114,-7.27486c0,0 3.78899,2.22692 9.08994,2.2285c6.43137,0.00192 9.89456,-2.02134 9.89456,-2.02134z" fill="#000000"/><path d="M362.90146,257.28032c0,0 3.77991,1.3913 7.62793,1.42613c5.57424,0.12125 8.29814,-1.51448 8.29814,-1.51448c0,0 -2.37242,4.37786 -8.14937,4.2384c-5.99946,-0.14484 -7.7767,-4.15005 -7.7767,-4.15005z" fill="#ffffff"/></g></g></g><g stroke="none" stroke-width="0"><g><path d="M309.36275,217.28554c0,0 -0.73763,-10.6496 11.5755,-10.12447c11.32551,0.48301 10.37553,10.93004 10.37553,10.93004c0,0 -4.20566,-0.32609 -11.25256,-0.63754c-3.57909,-0.15818 -10.69847,-0.16803 -10.69847,-0.16803z" fill="#000000"/><path d="M310.65295,216.17118c0,0 0.39923,-4.048 3.57851,-6.12086c1.9315,-1.25931 3.84937,-1.55106 6.54962,-1.6059c8.10518,-0.16458 9.29549,8.12954 9.29549,8.12954c0,0 -3.38506,-0.45979 -10.62852,-0.574c-3.02686,-0.04773 -8.79511,0.17121 -8.79511,0.17121z" fill="#ffffff"/></g><g><path d="M282.82913,217.3359c0,0 -0.71905,-10.6496 11.28382,-10.12447c11.04013,0.48301 10.11409,10.93004 10.11409,10.93004c0,0 -7.25687,-0.71613 -10.88055,-0.85255c-3.50501,-0.13195 -10.51736,0.04697 -10.51736,0.04697z" fill="#000000"/><path d="M284.08683,216.13426c0,0 0.38917,-4.04801 3.48835,-6.12087c1.88281,-1.25931 3.75236,-1.55105 6.38458,-1.60589c7.90095,-0.16458 9.06127,8.12954 9.06127,8.12954c0,0 -6.66886,-0.49001 -9.88434,-0.55842c-3.09099,-0.06575 -9.04985,0.15564 -9.04985,0.15564z" fill="#ffffff"/></g></g><g stroke="none" stroke-width="0"><path d="M282.48006,230.33911c0,0 -0.71905,-10.6496 11.28381,-10.12447c11.04013,0.48301 10.11409,10.93004 10.11409,10.93004z" fill="#000000"/><path d="M283.73775,229.18111c0,0 0.38916,-4.048 3.48834,-6.12086c1.88282,-1.25931 3.75237,-1.55106 6.38459,-1.60589c7.90095,-0.16458 9.06127,8.12954 9.06127,8.12954z" fill="#ffffff"/></g><g stroke="none" stroke-width="0"><g><path d="M281.98912,256.21463c0,0 -0.71905,-10.6496 11.28382,-10.12447c11.04013,0.48301 10.11409,10.93003 10.11409,10.93003c0,0 -2.89331,2.79599 -11.3985,2.61876c-6.89722,-0.18375 -9.99941,-3.42432 -9.99941,-3.42432z" fill="#000000"/><path d="M283.24681,255.05663c0,0 0.38916,-4.048 3.48835,-6.12086c1.88281,-1.25931 3.75237,-1.55106 6.38459,-1.60589c7.90095,-0.16458 9.06126,8.12954 9.06126,8.12954c0,0 -2.33617,2.44442 -9.83905,2.15626c-6.2866,-0.24144 -9.09515,-2.55904 -9.09515,-2.55904z" fill="#ffffff"/></g><g><path d="M308.69381,256.17099c0,0 -0.7293,-10.6496 11.44468,-10.12447c11.19753,0.48301 10.25829,10.93004 10.25829,10.93004c0,0 -2.93456,2.79598 -11.561,2.61875c-6.99555,-0.18375 -10.14196,-3.42432 -10.14196,-3.42432z" fill="#000000"/><path d="M309.96945,255.01299c0,0 0.39472,-4.048 3.53808,-6.12086c1.90966,-1.25931 3.80586,-1.55105 6.47561,-1.60589c8.01358,-0.16458 9.19044,8.12954 9.19044,8.12954c0,0 -2.36946,2.44442 -9.97931,2.15626c-6.37623,-0.24144 -9.22481,-2.55904 -9.22481,-2.55904z" fill="#ffffff"/></g></g><g stroke="none" stroke-width="0"><g><path d="M282.2837,273.62498c0,0 -1.24267,-11.82775 11.24018,-11.47716c11.04013,0.48301 10.11409,11.32275 10.11409,11.32275c0,0 -3.5042,5.23954 -12.00939,5.06231c-8.2499,-0.35829 -9.34489,-4.90791 -9.34489,-4.90791z" fill="#000000"/><path d="M286.89884,264.99343c1.88281,-1.25931 3.83963,-1.55106 6.47185,-1.60589c7.90095,-0.16458 9.06126,8.12954 9.06126,8.12954c0,0 -2.81615,4.97525 -10.31903,4.68709c-7.50289,-0.28815 -8.22245,-3.95537 -8.22245,-3.95537c0,0 -0.65807,-4.92071 3.00836,-7.25538z" fill="#ffffff"/></g><g><path d="M309.07597,273.71225c0,0 -1.25787,-11.82774 11.37765,-11.47715c11.17515,0.48301 10.23779,11.32275 10.23779,11.32275c0,0 -3.54705,5.23955 -12.15626,5.06232c-8.3508,-0.35829 -9.45917,-4.90792 -9.45917,-4.90792z" fill="#000000"/><path d="M313.74754,265.0807c1.90584,-1.25931 3.8866,-1.55105 6.55101,-1.60589c7.99757,-0.16458 9.17208,8.12954 9.17208,8.12954c0,0 -2.80695,5.23706 -10.40159,4.9489c-7.59464,-0.28815 -8.97753,-3.999 -8.97753,-3.999c0,0 -0.05524,-5.13888 3.65603,-7.47355z" fill="#ffffff"/></g></g><g stroke="none" stroke-width="0"><g><path d="M282.33461,291.58803c0,0 -1.24267,-11.82774 11.24017,-11.47715c11.04013,0.48301 10.1141,11.32275 10.1141,11.32275c0,0 -1.47909,7.69776 -12.00939,7.02588c-8.36022,-0.53342 -9.34488,-6.87149 -9.34488,-6.87149z" fill="#000000"/><path d="M283.5923,289.0337c0,0 0.38916,-4.048 3.48835,-6.12086c1.88281,-1.25931 3.75237,-1.55106 6.38459,-1.60589c7.90095,-0.16458 9.06127,8.12954 9.06127,8.12954c0,0 -3.02787,5.63135 -10.32739,5.64162c-7.32712,-0.50439 -8.60681,-6.04441 -8.60681,-6.04441z" fill="#ffffff"/></g><g><path d="M308.95286,291.66075c0,0 -1.27644,-11.82774 11.54566,-11.47715c11.34017,0.48301 10.38897,11.32275 10.38897,11.32275c0,0 -1.51928,8.20683 -12.33577,7.53495c-8.58743,-0.53342 -9.59886,-7.38056 -9.59886,-7.38056z" fill="#000000"/><path d="M310.24473,289.17915c0,0 0.39974,-4.048 3.58315,-6.12086c1.93399,-1.25931 3.85434,-1.55106 6.5581,-1.60589c8.11567,-0.16458 9.30753,8.12954 9.30753,8.12954c0,0 -2.67381,6.14043 -10.60805,6.00525c-7.81715,-0.50439 -8.84073,-6.40803 -8.84073,-6.40803z" fill="#ffffff"/></g></g><g stroke="none" stroke-width="0"><path d="M360.38732,229.96077c0,0 -0.14581,-10.33851 12.29581,-9.16514c8.61879,0.78337 8.79999,8.92987 8.79999,8.92987l-1.33992,0.90627c0,0 -0.74331,-4.56789 -9.04943,-4.94691c-7.05026,-0.32171 -10.70646,4.27592 -10.70646,4.27592z" fill="#000000"/><path d="M370.79978,224.21885c-6.20977,-0.18177 -8.62779,2.87622 -8.62779,2.87622c0,0 1.24829,-4.66969 8.67994,-4.80682c6.93522,-0.12797 8.38744,4.3987 8.38744,4.3987c0,0 -1.4969,-2.26487 -8.43958,-2.4681z" fill="#ffffff"/><g><path d="M380.33428,232.93175c0,0 -1.75923,7.14836 -9.65502,7.27528c-8.28178,0.13313 -9.50012,-7.07389 -9.50012,-7.07389c0,0 4.04949,4.06481 9.39685,3.95232c6.4877,-0.13647 9.75828,-4.15371 9.75828,-4.15371z" fill="#000000"/><path d="M370.63946,239.31554c-5.52482,0.05679 -6.59245,-2.54179 -6.59245,-2.54179c0,0 2.63502,1.61508 6.51747,1.56709c5.62566,0.00128 7.08497,-2.12903 7.08497,-2.12903c0,0 -1.27729,3.04957 -7.01,3.10372z" fill="#ffffff"/></g></g><g stroke="none" stroke-width="0"><path d="M333.75321,230.12828c0,0 -0.04408,-10.34524 12.11088,-9.18244c9.15802,0.8761 9.23668,10.99497 9.23668,10.99497h-1.30905c0,0 -0.67699,-5.92383 -8.79172,-6.29944c-6.88781,-0.31882 -11.24678,4.48691 -11.24678,4.48691z" fill="#000000"/><path d="M343.97386,224.33826c-5.9951,-0.18013 -8.32953,2.85032 -8.32953,2.85032c0,0 1.20513,-4.62766 8.37988,-4.76354c6.69547,-0.12682 8.09749,4.3591 8.09749,4.3591c0,0 -1.44515,-2.24449 -8.14783,-2.44589z" fill="#ffffff"/><g><path d="M353.43929,232.87224c0,0 -1.71552,7.14836 -9.41508,7.27528c-8.07597,0.13313 -9.26404,-7.07389 -9.26404,-7.07389c0,0 3.94885,4.06481 9.16334,3.95232c6.32647,-0.13647 9.51577,-4.15371 9.51577,-4.15371z" fill="#000000"/><path d="M343.98539,239.25604c-5.38752,0.05679 -6.42862,-2.54179 -6.42862,-2.54179c0,0 2.56955,1.61508 6.35552,1.56709c5.48585,0.00128 6.9089,-2.12903 6.9089,-2.12903c0,0 -1.24555,3.04958 -6.8358,3.10371z" fill="#ffffff"/></g></g><g stroke="none" stroke-width="0"><path d="M283.0664,182.94065c0,0 0.30364,-9.46327 11.2429,-8.97905c10.93927,0.48422 10.11409,10.93004 10.11409,10.93004l-1.36362,-0.23736c0,0 -0.88761,-6.6409 -9.32056,-6.02592c-7.77726,0.56716 -10.67281,4.31229 -10.67281,4.31229z" fill="#000000"/><path d="M293.74704,175.19858c6.15029,0.14971 7.79313,4.40421 7.79313,4.40421c0,0 -1.21178,-2.16996 -7.23899,-2.45654c-6.39534,-0.30409 -9.41256,2.91554 -9.41256,2.91554c0,0 2.26009,-5.02382 8.85842,-4.8632z" fill="#ffffff"/><path d="M309.73826,183.06055c0,0 0.3154,-9.99953 11.45811,-9.38489c9.71689,0.53598 9.57136,8.92515 9.57136,8.92515l-1.10337,0.86183c0,0 -1.88638,-5.23529 -9.49897,-4.9747c-7.92613,0.57987 -10.42712,4.5726 -10.42712,4.5726z" fill="#000000"/><path d="M320.78698,175.14491c6.26801,0.15306 8.26956,4.83021 8.26956,4.83021c0,0 -1.76677,-2.54587 -7.90936,-2.83888c-6.51776,-0.31091 -9.59274,2.9809 -9.59274,2.9809c0,0 2.50789,-5.13645 9.23253,-4.97223z" fill="#ffffff"/></g><path d="M359.64556,142.08604c0,0 2.41803,0.946 3.87428,1.93525c2.52958,1.71837 4.31349,3.52088 4.31349,3.52088l-0.21023,1.48672c0,0 -7.72874,-5.75728 -15.29078,-5.12341c-6.04642,0.50686 -9.57798,2.70366 -9.57798,2.70366l0.44177,-4.19615c0,0 3.54899,-2.28924 8.10206,-2.43475c4.71467,-0.15066 8.28429,0.93001 8.28429,0.93001z" fill="#000000" stroke="none" stroke-width="1.5"/><path d="M318.4108,145.59017c0,0 3.36963,-1.819 8.03244,-2.28178c5.16698,-0.51283 7.76823,-0.06628 7.76823,-0.06628l0.29508,4.13747c0,0 -3.83554,-0.68065 -8.01795,-0.52113c-5.59346,0.21333 -6.64488,1.43293 -10.89774,1.89119c-3.64408,0.39266 -6.73723,0.15884 -6.73723,0.15884l-0.02589,-1.23155c0,0 3.59517,0.07398 5.23371,-0.06836c1.35239,-0.11749 3.97571,-0.93808 3.97571,-0.93808z" fill="#000000" stroke="none" stroke-width="1.5"/><text transform="translate(97.87906,75.70591) scale(0.38629,0.38629)" font-size="40" xml:space="preserve" fill="#000000" fill-rule="nonzero" stroke="none" stroke-width="1" stroke-linecap="butt" stroke-linejoin="miter" stroke-miterlimit="10" stroke-dasharray="" stroke-dashoffset="0" font-family="Handwriting" font-weight="normal" text-anchor="start" style="mix-blend-mode: normal"><tspan x="0" dy="0">Everything in this costume is made by</tspan></text><text transform="translate(135.34271,96.39028) scale(0.52939,0.52939)" font-size="40" xml:space="preserve" fill="#bdbdbd" fill-rule="nonzero" stroke="#bdbdbd" stroke-width="3" stroke-linecap="butt" stroke-linejoin="miter" stroke-miterlimit="10" stroke-dasharray="" stroke-dashoffset="0" font-family="Handwriting" font-weight="normal" text-anchor="start" style="mix-blend-mode: normal"><tspan x="0" dy="0">So Far So Good</tspan></text><g stroke="none" stroke-width="0"><path d="M282.64369,194.17665c0,0 -0.71905,-10.6496 11.28382,-10.12447c11.04013,0.48301 10.11409,10.93004 10.11409,10.93004c0,0 -3.02427,-3.63966 -10.35692,-3.64518c-7.33266,-0.00552 -11.04099,2.83962 -11.04099,2.83962z" fill="#000000"/><path d="M287.52063,186.85415c1.88281,-1.25931 3.62147,-1.55106 6.25369,-1.60589c7.20279,-0.16459 8.40674,6.77685 8.40674,6.77685c0,0 0.13819,-1.84269 -8.79348,-2.12928c-7.75994,0.06515 -8.96258,1.77012 -8.96258,1.77012c0,0 -0.00355,-2.73894 3.09563,-4.8118z" fill="#ffffff"/><path d="M309.26117,194.13301c0,0 -0.73369,-10.6496 11.51363,-10.12447c11.26497,0.48301 10.14553,10.27551 10.14553,10.27551l-1.65028,-0.42261c0,0 -3.91206,-2.56449 -8.74303,-2.56804c-7.48199,-0.00552 -11.26585,2.83961 -11.26585,2.83961z" fill="#000000"/><path d="M314.23743,186.81051c1.92117,-1.25931 3.69523,-1.55106 6.38105,-1.60589c7.34948,-0.16459 8.57795,6.77685 8.57795,6.77685c0,0 -0.94987,-1.66815 -9.05984,-2.12927c-7.91798,0.06515 -9.05784,1.77012 -9.05784,1.77012c0,0 -0.00362,-2.73894 3.15867,-4.8118z" fill="#ffffff"/></g></g></g></svg>