<svg version="1.1" xmlns="http://www.w3.org/2000/svg" xmlns:xlink="http://www.w3.org/1999/xlink" width="683" height="377" viewBox="0,0,683,377"><defs><linearGradient x1="188.67817" y1="152.9774" x2="188.67817" y2="310.71639" gradientUnits="userSpaceOnUse" id="color-1"><stop offset="0" stop-color="#004036"/><stop offset="1" stop-color="#003831"/></linearGradient><linearGradient x1="483.86237" y1="151.62535" x2="483.86237" y2="309.04568" gradientUnits="userSpaceOnUse" id="color-2"><stop offset="0" stop-color="#004036"/><stop offset="1" stop-color="#003831"/></linearGradient><linearGradient x1="340.2249" y1="148.09177" x2="340.2249" y2="311.60385" gradientUnits="userSpaceOnUse" id="color-3"><stop offset="0" stop-color="#004d41"/><stop offset="1" stop-color="#00453b"/></linearGradient><linearGradient x1="343.07981" y1="232.6089" x2="343.07981" y2="268.63763" gradientUnits="userSpaceOnUse" id="color-4"><stop offset="0" stop-color="#004036"/><stop offset="1" stop-color="#003831"/></linearGradient><linearGradient x1="333.08756" y1="140.95481" x2="333.08756" y2="165.30766" gradientUnits="userSpaceOnUse" id="color-5"><stop offset="0" stop-color="#003831"/><stop offset="1" stop-color="#004036"/></linearGradient><linearGradient x1="368.43413" y1="199.66689" x2="368.43413" y2="205.13325" gradientUnits="userSpaceOnUse" id="color-6"><stop offset="0" stop-color="#c3c3c3"/><stop offset="1" stop-color="#d9d9d9"/></linearGradient><linearGradient x1="373.71217" y1="168.93624" x2="373.71217" y2="200.47139" gradientUnits="userSpaceOnUse" id="color-7"><stop offset="0" stop-color="#acacac"/><stop offset="1" stop-color="#bfbfbf"/></linearGradient><linearGradient x1="303.53878" y1="199.93378" x2="303.53878" y2="206.65739" gradientUnits="userSpaceOnUse" id="color-8"><stop offset="0" stop-color="#c3c3c3"/><stop offset="1" stop-color="#d9d9d9"/></linearGradient><linearGradient x1="299.65229" y1="169.39703" x2="299.65229" y2="201.03325" gradientUnits="userSpaceOnUse" id="color-9"><stop offset="0" stop-color="#acacac"/><stop offset="1" stop-color="#bfbfbf"/></linearGradient><linearGradient x1="408.84067" y1="139.4621" x2="527.78143" y2="139.4621" gradientUnits="userSpaceOnUse" id="color-10"><stop offset="0" stop-color="#ced3ff"/><stop offset="1" stop-color="#d7deff"/></linearGradient><linearGradient x1="126.72556" y1="140.3298" x2="245.44368" y2="140.3298" gradientUnits="userSpaceOnUse" id="color-11"><stop offset="0" stop-color="#d7deff"/><stop offset="1" stop-color="#ced3ff"/></linearGradient><linearGradient x1="337.89626" y1="84.93125" x2="337.89626" y2="161.42887" gradientUnits="userSpaceOnUse" id="color-12"><stop offset="0" stop-color="#bfbfff"/><stop offset="1" stop-color="#d9e1ff"/></linearGradient><linearGradient x1="593.84528" y1="93.01523" x2="593.84528" y2="115.76612" gradientUnits="userSpaceOnUse" id="color-13"><stop offset="0" stop-color="#d7deff"/><stop offset="1" stop-color="#ced3ff"/></linearGradient><linearGradient x1="338.15295" y1="63.27089" x2="338.15295" y2="130.48896" gradientUnits="userSpaceOnUse" id="color-14"><stop offset="0" stop-color="#d7deff"/><stop offset="1" stop-color="#ced3ff"/></linearGradient></defs><g transform="translate(22.36012,12.5)"><g data-paper-data="{&quot;isPaintingLayer&quot;:true}" fill-rule="nonzero" stroke-linejoin="miter" stroke-miterlimit="10" stroke-dasharray="" stroke-dashoffset="0" style="mix-blend-mode: normal"><path d="M-6.36012,364.5v-365h661v365z" fill="#7d7d7d" stroke="none" stroke-width="NaN" stroke-linecap="butt"/><g><g stroke-linecap="butt"><path d="M137.22802,309.20718v-253.22501h409.05181v253.22501z" fill-opacity="0.01" fill="#000000" stroke="none" stroke-width="0"/><path d="M149.79534,306.98624c0,0 10.36267,-94.38387 9.65391,-118.01201c-0.24454,-8.15261 36.72717,-36.76129 180.35028,-36.9211c141.77134,-0.15775 178.80128,29.48704 178.76593,36.89673c-0.34359,46.24274 14.21134,117.98648 14.21134,117.98648z" fill="#ffffff" stroke="#000000" stroke-width="2"/><g stroke="none"><g><g stroke-width="0"><g><g><path d="M128.02402,310.71639c0,0 -5.04377,-5.46654 -4.27925,-13.00174c0.59571,-5.87166 6.66599,-13.16223 8.73592,-19.04278c2.18195,-6.19883 8.84278,-5.63814 10.96919,-11.75842c1.12668,-3.24283 -3.10505,-6.27918 -2.50423,-8.84907c1.08182,-4.62726 6.71354,-8.05198 8.57603,-10.64583c1.77932,-2.478 -11.06564,-8.43514 -11.02338,-8.84546c1.1789,-11.44479 -1.1868,-15.04561 -0.3099,-20.60715c1.45623,-9.23602 6.95848,-15.84863 6.95848,-15.84863c0,0 -2.03386,-4.15326 -1.1235,-9.01058c1.04567,-5.5793 6.98746,-9.23721 9.28941,-12.23049c12.59782,-16.3811 96.0197,-27.89884 96.0197,-27.89884c0,0 6.6563,2.6407 7.18032,8.32547c0.66278,7.19045 -4.65379,18.824 -3.20411,31.41194c0.76102,6.60792 3.45093,13.91903 3.97307,21.08724c0.24956,3.42663 -8.21939,7.23338 -7.83112,10.67335c0.93683,8.3002 10.22571,17.04153 11.03339,24.65041c0.57189,5.38737 -7.91927,11.17357 -7.08858,15.75178c1.05863,5.83443 21.84543,22.59972 22.34567,25.80687c1.3583,8.70833 -2.02408,18.62506 -2.02408,18.62506c0,0 -15.05518,3.21889 -75.28436,3.55139c-47.64679,0.26304 -70.40873,-2.14454 -70.40873,-2.14454z" fill="url(#color-1)"/><path d="M416.06791,307.65094c0,0 11.66947,-5.7372 11.23217,-11.39161c-0.24301,-3.14192 -2.28778,-8.55127 -3.3076,-15.63807c-0.84527,-5.87399 16.44578,-9.04843 15.29935,-16.64468c-0.94823,-6.28286 -8.16224,-6.50377 -9.87149,-13.53606c-2.1998,-9.05042 6.09172,-14.71384 3.62612,-24.43647c-0.50074,-1.9745 3.43299,-2.76523 2.8681,-4.7557c-1.55215,-5.46933 1.47189,-16.6809 -0.60841,-22.112c-1.22991,-3.21089 -14.65744,-10.79429 -16.10246,-13.76702c-1.06769,-2.19646 1.505,-3.48504 0.56458,-5.46077c-4.41728,-9.28032 -14.60482,-16.43499 -17.43667,-21.1778c-2.85038,-4.7738 1.66937,-7.10542 1.66937,-7.10542c0,0 101.06517,8.63413 117.63517,24.96527c2.97316,2.9303 6.97032,7.69727 8.65055,12.87814c1.43241,4.41687 0.57041,9.10737 2.58224,13.5126c3.52316,7.71452 14.40824,16.56706 17.4242,25.37337c3.11981,9.10952 -9.67993,18.57195 -7.8404,27.54698c1.29693,6.32771 0.38024,12.55742 2.34237,18.26737c6.9029,20.08807 17.58803,33.38224 17.58803,33.38224c0,0 -24.57437,2.60533 -66.65503,3.03411c-41.81935,0.42612 -79.6601,-2.93449 -79.6601,-2.93449z" fill="url(#color-2)"/><path d="M123.74481,297.71465c0.59571,-5.87166 6.66599,-13.16223 8.73592,-19.04278c2.18195,-6.19883 8.84278,-5.63814 10.96919,-11.75842c0.23135,-0.66584 0.23678,-1.32298 0.10453,-1.96916c1.35265,0.11717 2.64886,0.21712 3.79242,0.30309c16.92507,1.27242 27.42681,0.84918 44.16212,-0.47313c17.43371,-3.76562 12.21583,-9.28145 5.26282,-13.92007c-1.79722,-1.19899 -5.66707,-2.35335 -6.55855,-3.59489c-1.84154,-2.56466 5.55294,-5.36955 8.29256,-7.81229c5.62826,-3.75576 2.74868,-7.22112 5.19342,-11.03512c1.30384,-2.03408 5.44433,-3.94339 6.7065,-5.9635c1.88865,-3.0227 -0.76434,-7.5832 -5.04812,-10.4479c0.09152,-4.09183 -4.892,-8.67897 -1.68269,-12.80792c3.69363,-4.7521 5.10604,-9.92381 5.10604,-14.78884c0,-1.35806 1.76223,-2.87374 1.67942,-4.16441c-0.24373,-3.79857 -13.28931,-10.31788 -30.10614,-11.42134c-1.38831,-0.0911 -2.72212,-0.13458 -4.01147,-0.14016c28.91445,-9.61509 72.98981,-15.70041 72.98981,-15.70041c0,0 6.6563,2.6407 7.18032,8.32547c0.66278,7.19045 -4.65379,18.824 -3.20411,31.41194c0.76102,6.60792 3.45093,13.91903 3.97307,21.08724c0.24956,3.42663 -8.21939,7.23338 -7.83112,10.67335c0.93683,8.3002 10.22571,17.04153 11.03339,24.65041c0.57189,5.38737 -7.91927,11.17357 -7.08858,15.75178c1.05863,5.83443 21.84543,22.59972 22.34567,25.80687c1.3583,8.70833 -2.02408,18.62506 -2.02408,18.62506c0,0 -15.05518,3.21889 -75.28436,3.55139c-47.61561,0.26287 -70.3789,-2.14139 -70.40868,-2.14454c-0.01023,-0.01109 -5.04296,-5.47417 -4.27925,-13.00172z" fill-opacity="0.06275" fill="#000000"/><path d="M416.06796,307.65094c0,0 11.66947,-5.7372 11.23217,-11.39161c-0.24301,-3.14192 -2.28778,-8.55127 -3.3076,-15.63807c-0.84527,-5.87399 16.44578,-9.04843 15.29935,-16.64468c-0.94823,-6.28286 -8.16224,-6.50377 -9.87149,-13.53606c-2.1998,-9.05042 6.09172,-14.71384 3.62612,-24.43647c-0.50074,-1.9745 3.43299,-2.76523 2.8681,-4.7557c-1.55215,-5.46933 1.47189,-16.6809 -0.60841,-22.112c-1.22991,-3.21089 -14.65744,-10.79429 -16.10246,-13.76702c-1.06769,-2.19646 1.505,-3.48504 0.56458,-5.46077c-4.41728,-9.28032 -14.60482,-16.43499 -17.43667,-21.1778c-2.85038,-4.7738 1.66937,-7.10542 1.66937,-7.10542c0,0 79.9137,6.82713 109.26989,19.82249c-13.65578,-3.00841 -37.06637,-5.4989 -48.72668,-0.18006c-5.77092,2.63238 1.38163,6.31355 4.31545,8.92645c7.69985,8.58191 7.83901,17.0058 8.04712,25.76932c2.4203,2.15804 0.27751,4.45246 1.14207,6.68559c0.59652,1.54079 3.92543,2.92875 4.65994,4.43701c1.39275,2.85998 -1.33776,5.76904 -2.33914,8.58996c-1.03678,2.92067 1.37364,6.16006 3.52693,9.0415c1.69274,2.26337 5.8283,5.16949 4.61418,7.47338c-0.70764,1.34277 -4.01156,2.5361 -4.65339,3.90362c-2.15414,4.58999 -1.57597,9.34471 2.54178,13.87367c3.34479,1.50426 5.79196,2.45409 12.84909,3.17436c5.48237,0.55955 17.00676,1.76878 23.02868,1.63746c6.8217,-0.14876 11.40717,-1.18817 16.38181,-2.02016c1.55017,-0.25926 3.06006,-0.52363 4.52809,-0.79369c0.27101,4.21896 0.2776,8.33042 1.60831,12.20283c6.9029,20.08807 17.58803,33.38224 17.58803,33.38224c0,0 -24.57437,2.60533 -66.65503,3.03411c-41.81935,0.42612 -79.6601,-2.93449 -79.6601,-2.93449z" fill-opacity="0.06275" fill="#000000"/><path d="M123.74481,297.71465c0.59571,-5.87166 6.66599,-13.16223 8.73592,-19.04278c1.54851,-4.39931 5.35295,-5.39403 8.1914,-7.78855c30.46713,4.21004 79.97552,2.73317 79.97552,-7.01546c5.19212,-3.3232 3.74737,-7.35073 1.46319,-10.75742c-1.35068,-2.0144 -7.34653,-3.86594 -8.77908,-5.87084c-1.94428,-2.72112 2.98429,-6.41759 2.98429,-9.2984c-0.05908,-2.07892 4.66837,-3.72424 5.8191,-5.74866c1.52236,-2.67821 -1.32353,-5.47261 0,-8.15395c0.92862,-1.88125 7.21787,-3.80761 7.34949,-5.66687c0.11399,-1.61026 -2.14777,-4.167 -4.44748,-5.70487c0.28253,-9.72951 0.05792,-19.23021 0.05792,-28.86787c0,-5.60411 -3.44905,-12.72249 -27.00162,-16.18007c-4.7816,-0.70195 -10.38151,-0.65581 -15.68359,-0.84598c28.61715,-8.50686 66.92263,-13.79554 66.92263,-13.79554c0,0 6.6563,2.6407 7.18032,8.32547c0.66278,7.19045 -4.65379,18.824 -3.20411,31.41194c0.76102,6.60792 3.45093,13.91903 3.97307,21.08724c0.24956,3.42663 -8.21939,7.23338 -7.83112,10.67335c0.93683,8.3002 10.22571,17.04153 11.03339,24.65041c0.57189,5.38737 -7.91927,11.17357 -7.08858,15.75178c1.05863,5.83443 21.84543,22.59972 22.34567,25.80687c1.3583,8.70833 -2.02408,18.62506 -2.02408,18.62506c0,0 -15.05518,3.21889 -75.28436,3.55139c-47.61561,0.26287 -70.3789,-2.14138 -70.40868,-2.14453c-0.01023,-0.01108 -5.04296,-5.47418 -4.27925,-13.00173z" fill-opacity="0.06275" fill="#000000"/><path d="M416.06796,307.65094c0,0 11.66947,-5.7372 11.23217,-11.39161c-0.24301,-3.14192 -2.28778,-8.55127 -3.3076,-15.63807c-0.84527,-5.87399 16.44578,-9.04843 15.29935,-16.64468c-0.94823,-6.28286 -8.16224,-6.50377 -9.87149,-13.53606c-2.1998,-9.05042 6.09172,-14.71384 3.62612,-24.43647c-0.50074,-1.9745 3.43299,-2.76523 2.8681,-4.7557c-1.55215,-5.46933 1.47189,-16.6809 -0.60841,-22.112c-1.22991,-3.21089 -14.65744,-10.79429 -16.10246,-13.76702c-1.06769,-2.19646 1.505,-3.48504 0.56458,-5.46077c-4.41728,-9.28032 -14.60482,-16.43499 -17.43667,-21.1778c-2.85038,-4.7738 1.66937,-7.10542 1.66937,-7.10542c0,0 55.58365,4.74858 91.06705,13.86353c-10.95268,-0.04324 -22.19252,-0.04133 -32.07939,1.10392c-18.76944,2.17417 -17.11555,9.82473 -12.72375,13.74066c0.06415,3.54286 5.88173,7.18881 5.82776,10.70316c-0.08551,5.56867 2.89416,11.14317 2.97563,16.7321c4.1483,2.77411 0.98277,6.22468 2.92637,9.13242c1.15607,1.72959 5.68259,3.33713 5.79811,5.09672c0.0694,1.05717 -3.74598,2.37237 -4.35923,3.42718c-1.52509,2.62328 -2.92924,5.46033 0,8.07216c0,1.98811 5.96629,3.92387 5.82242,5.78703c-0.21897,2.83514 -4.43312,5.80769 -5.82242,8.6457c-2.01556,4.11738 -1.49679,8.3501 -1.49679,12.51618c0.13884,5.0739 24.45477,10.40219 48.27471,10.45829c11.67167,0.02749 23.46428,-0.92394 33.40768,-2.45674c0.2043,1.95245 0.53797,3.86442 1.17608,5.72143c6.9029,20.08807 17.58803,33.38224 17.58803,33.38224c0,0 -24.57437,2.60533 -66.65503,3.03411c-41.81935,0.42612 -79.6601,-2.93449 -79.6601,-2.93449z" fill-opacity="0.06275" fill="#000000"/><path d="M123.74481,297.71465c0.59109,-5.82602 6.57196,-13.04897 8.68693,-18.90539c1.18361,0.25264 2.41594,0.49599 3.71041,0.72763c12.67974,2.26902 35.68676,1.31105 50.26569,2.1235c12.94191,0.01515 30.9855,-0.53186 41.43489,-2.50227c14.59369,-2.75189 20.66182,-10.54126 14.75263,-14.306c0.07846,-2.70256 -3.01206,-5.4608 -1.43887,-8.19774c0.96029,-1.6707 3.14736,-3.68875 2.95997,-5.34071c-0.24786,-2.18496 -7.32038,-3.99343 -5.8863,-6.40097c1.6577,-2.78295 7.29157,-4.91348 7.29157,-7.784c-4.87034,-3.25695 0.6407,-7.05766 -1.46319,-10.43705c-3.76169,-6.04226 -1.40527,-12.65552 -1.40527,-18.75697c0,-7.58143 8.60152,-15.37234 4.35591,-22.95323c-1.48485,-2.65134 -5.87702,-5.18698 -5.87702,-7.86579c-8.27681,-5.72954 -18.98069,-12.10601 -42.9926,-14.51946c25.17147,-6.02611 51.19301,-9.61879 51.19301,-9.61879c0,0 6.6563,2.6407 7.18032,8.32547c0.66278,7.19045 -4.65379,18.824 -3.20411,31.41194c0.76102,6.60792 3.45093,13.91903 3.97307,21.08724c0.24956,3.42663 -8.21939,7.23338 -7.83112,10.67335c0.93683,8.3002 10.22571,17.04153 11.03339,24.65041c0.57189,5.38737 -7.91927,11.17357 -7.08858,15.75178c1.05863,5.83443 21.84543,22.59972 22.34567,25.80687c1.3583,8.70833 -2.02408,18.62506 -2.02408,18.62506c0,0 -15.05518,3.21889 -75.28436,3.55139c-47.61561,0.26287 -70.3789,-2.14138 -70.40868,-2.14453c-0.01023,-0.01108 -5.04296,-5.47418 -4.27925,-13.00173z" fill-opacity="0.06275" fill="#000000"/><path d="M416.06796,307.65094c0,0 11.66947,-5.7372 11.23217,-11.39161c-0.24301,-3.14192 -2.28778,-8.55127 -3.3076,-15.63807c-0.84527,-5.87399 16.44578,-9.04843 15.29935,-16.64468c-0.94823,-6.28286 -8.16224,-6.50377 -9.87149,-13.53606c-2.1998,-9.05042 6.09172,-14.71384 3.62612,-24.43647c-0.50074,-1.9745 3.43299,-2.76523 2.8681,-4.7557c-1.55215,-5.46933 1.47189,-16.6809 -0.60841,-22.112c-1.22991,-3.21089 -14.65744,-10.79429 -16.10246,-13.76702c-1.06769,-2.19646 1.505,-3.48504 0.56458,-5.46077c-4.41728,-9.28032 -14.60482,-16.43499 -17.43667,-21.1778c-2.85038,-4.7738 1.66937,-7.10542 1.66937,-7.10542c0,0 38.72304,3.30816 72.1606,9.70223c-11.65965,1.26626 -24.60496,1.81512 -33.69255,4.22491c-13.69015,3.63026 -7.9954,8.28783 -14.1275,12.54165c-0.17429,4.40669 8.1935,8.081 10.2179,12.35021c1.49854,3.16016 6.01308,6.24411 7.29754,9.41888c1.1706,2.89327 0.77246,5.59934 2.92637,8.4801c0.07079,2.29514 2.85478,4.58182 1.5058,6.93281c-1.56816,2.73298 -5.91277,5.98841 -4.41383,8.76247c0.8166,1.51127 7.28229,2.97976 7.28229,4.44403c0,1.9038 -4.36771,4.05119 -4.36771,6.09846c-2.99035,3.33292 0.77053,6.7293 -1.42707,10.04925c-4.20253,6.34881 -5.66559,13.27684 7.53661,19.09813c2.54954,2.26015 -1.10084,4.7108 2.98918,6.88505c4.98392,2.64945 12.15837,2.46337 19.99375,4.23832c19.51328,4.42032 41.25217,5.85742 69.36571,5.8303c6.71906,16.39818 15.13507,26.86918 15.13507,26.86918c0,0 -24.57437,2.60533 -66.65503,3.03411c-41.81935,0.42612 -79.6601,-2.93449 -79.6601,-2.93449z" fill-opacity="0.06275" fill="#000000"/><path d="M123.74481,297.71465c0.27868,-2.74695 1.75559,-5.80444 3.46053,-8.88283c4.73544,0.57932 10.12145,0.94387 16.45282,1.0441c6.82663,0.10807 13.02679,-0.82583 19.36946,-1.08803c8.69227,-0.35932 16.98747,0.48701 25.26334,0.85892c36.06628,1.32062 59.906,-4.438 76.51548,-10.85224c5.38175,5.3109 10.68509,10.28915 10.93474,11.88988c1.3583,8.70833 -2.02408,18.62506 -2.02408,18.62506c0,0 -15.05518,3.21889 -75.28436,3.55139c-47.61561,0.26287 -70.3789,-2.14138 -70.40868,-2.14453c-0.01023,-0.01108 -5.04296,-5.47418 -4.27925,-13.00173z" fill-opacity="0.06275" fill="#000000"/><path d="M416.06796,307.65094c0,0 11.66947,-5.7372 11.23217,-11.39161c-0.24301,-3.14192 -2.28778,-8.55127 -3.3076,-15.63807c-0.22749,-1.58102 0.85886,-2.96646 2.54595,-4.2952c12.47751,3.96807 28.81364,7.17869 50.4533,8.56441c17.0802,1.63723 35.3206,3.71468 54.4344,3.70109c6.57662,-0.00468 12.80979,-0.43594 18.8933,-1.01325c5.96086,12.38008 12.06366,19.97301 12.06366,19.97301c0,0 -24.57437,2.60533 -66.65503,3.03411c-41.81935,0.42612 -79.6601,-2.93449 -79.6601,-2.93449z" fill-opacity="0.06275" fill="#000000"/><path d="M275.74119,290.68446c1.3583,8.70833 -2.02408,18.62506 -2.02408,18.62506c0,0 -15.05518,3.21889 -75.28436,3.55139c-47.61561,0.26287 -70.3789,-2.14138 -70.40868,-2.14453c-0.00404,-0.00436 -0.78507,-0.85221 -1.6848,-2.3374c17.91789,-0.78628 35.47559,-2.0602 52.78557,-3.34761c35.52185,-3.24703 73.99317,-7.26688 96.60581,-14.40347c0.00422,0.0193 0.00776,0.03815 0.01063,0.05656z" fill-opacity="0.06275" fill="#000000"/><path d="M416.06796,307.65094c0,0 11.66947,-5.7372 11.23217,-11.39161c-0.14768,-1.90962 -0.96097,-4.65684 -1.80516,-8.1092c18.34573,4.00253 42.32636,6.93976 63.33967,9.74801c20.80416,2.31963 45.95549,4.81899 70.20286,4.98778c2.01964,3.01553 3.34569,4.66539 3.34569,4.66539c0,0 -24.57437,2.60533 -66.65503,3.03411c-41.81935,0.42612 -79.6601,-2.93449 -79.6601,-2.93449z" fill-opacity="0.06275" fill="#000000"/></g><path d="M240.43266,258.34715c12.32193,-3.57209 17.38082,-9.02764 18.8772,-13.45936c0.60307,1.44361 1.02781,2.85941 1.17415,4.23803c0.37531,3.53538 -3.15234,7.24251 -5.38731,10.6673c-20.82955,4.33467 -34.34133,5.17847 -66.69159,6.30046c22.5349,-2.34764 36.70945,-3.30575 52.02756,-7.74642z" fill-opacity="0.06275" fill="#000000"/><path d="M138.4983,238.57309c0.18936,-1.83817 0.28725,-3.47399 0.32183,-4.94809c5.36735,3.22481 5.71969,6.54988 16.42088,9.07992c15.39742,3.64034 41.19578,5.88045 41.19578,5.88045c0,0 -15.23108,-0.52836 -28.10426,-1.62647c-9.21732,-0.78626 -16.15642,-2.18245 -20.36053,-2.42052c-3.14507,-2.63793 -9.50349,-5.67639 -9.47375,-5.96528z" fill-opacity="0.06275" fill="#000000"/><path d="M144.02343,193.10673c0.64627,-3.44823 3.16275,-6.16253 5.53423,-8.43962c1.37661,5.88996 -1.0166,11.02631 9.24025,15.19835c8.48896,3.45292 28.0694,6.07451 43.91175,9.44447c-20.03331,-1.06091 -34.10536,-1.61265 -47.48448,-5.10165c-3.80022,-0.99102 -7.54535,-1.77485 -10.41453,-2.9029c-0.53542,-1.44041 -1.45619,-4.62945 -0.78727,-8.19865z" fill-opacity="0.06275" fill="#000000"/><path d="M429.42039,250.44052c-0.09511,-0.39131 -0.17061,-0.7763 -0.22821,-1.15555c5.82408,4.04564 12.98551,8.40533 25.03406,11.81491c12.30363,3.48177 23.62107,6.69774 45.2675,8.51472c-26.96977,-0.68971 -41.33085,-4.07345 -61.081,-8.22507c-2.22228,-3.93792 -7.55464,-5.03392 -8.99234,-10.94901z" fill-opacity="0.06275" fill="#000000"/></g><path d="M173.98184,195.1402l0.00749,-0.00041l0.06254,-0.02438l0.54721,-0.06099l3.94153,-0.75309l2.64877,-0.0738l0.15199,-0.01311l0.16226,0.00335l7.36026,-0.25241l7.95695,-0.12669l0.08461,-0.00618l0.08788,0.00313l13.58921,-0.26341l8.61008,-0.08723l-5.2259,0.45302l-7.03874,0.48277l-6.75239,0.34734l-10.15034,0.23817h-7.22267l-0.39648,0.0221l-0.40258,-0.01574l-8.01316,0.12758z" fill-opacity="0.06275" fill="#000000"/><path d="M159.96954,176.43273h0.42192l0.88277,0.0492l3.7921,0.24151l2.81561,0.20921l5.88469,0.59625l5.43774,0.60607l4.99254,0.66773l7.93896,1.41575l6.56267,1.46289l1.25606,0.3111l-6.73436,-0.50038l-10.5588,-0.91532l-0.02131,-0.0006l-0.01759,-0.00275l-7.30597,-0.62638l-8.74444,-0.97461l-5.51288,-0.73732l-4.27602,-0.60657c0.55852,-0.40857 1.15795,-0.81354 1.79561,-1.2148c0.45565,0.01256 0.91979,0.01903 1.39069,0.01903z" fill-opacity="0.06275" fill="#000000"/><path d="M200.25881,218.32248c24.14967,-1.87071 39.12158,-4.65906 56.59311,-8.15729c0.19187,1.21365 0.34171,2.42729 0.42981,3.63686c0.03109,0.42701 -0.07317,0.8599 -0.27886,1.29727c-9.37914,5.84174 -58.98093,7.5711 -81.99009,5.4466c-1.50989,-0.13942 -2.73935,-0.37742 -3.80381,-0.67184c11.85479,-0.27503 26.73846,-1.37255 29.04984,-1.55159z" fill-opacity="0.06275" fill="#000000"/></g><path d="M494.5344,226.12099c9.17802,-1.28491 18.71969,-1.94081 28.97573,-2.25148c3.30294,-0.10005 14.27033,0.3991 14.27033,0.3991c0,0 -6.08773,1.56572 -9.34091,2.17457c-9.09871,1.70285 -20.21173,2.60124 -32.20698,2.27585c-8.118,-0.51635 -12.62932,-0.99184 -12.62932,-0.99184c0,0 9.61851,-1.69499 10.93115,-1.60619z" fill-opacity="0.06275" fill="#000000" stroke-width="0.5"/><path d="M522.84493,214.29747c2.69727,-0.22306 12.31493,-0.21865 12.31493,-0.21865c0,0 -5.6947,2.14197 -10.24513,2.97527c-9.77849,1.79067 -33.73754,3.00426 -33.73754,3.00426c0,0 0.29833,-1.63528 9.66199,-2.85257z" fill-opacity="0.06275" fill="#000000" stroke-width="0.5"/><path d="M484.52371,180.27988c10.08749,1.17556 18.27301,3.44356 23.15232,5.58205c2.41922,1.06029 5.36269,3.00923 5.36269,3.00923c0,0 -9.58393,-0.38188 -12.52636,-0.61442c-17.70758,-1.39944 -28.20546,-8.75001 -28.20546,-8.75001l8.89477,0.16282c0,0 2.93265,0 3.32205,0.61032z" fill-opacity="0.06275" fill="#000000" stroke-width="0.5"/></g><g stroke-width="0"><path d="M228.79948,307.1493c0,0 -5.81632,-1.38748 -7.76719,-3.92716c-2.23201,-2.90568 -0.79036,-7.29151 -3.58457,-12.351c-1.33152,-2.41098 -5.27642,-4.74048 -5.91627,-7.47533c-1.03903,-4.44105 2.58215,-9.19051 4.23331,-14.13338c1.79475,-5.37269 1.63209,-10.99041 0.31308,-17.12081c-0.91184,-4.238 -6.60628,-8.53614 -7.24321,-12.82094c-0.49809,-3.35078 10.40883,-6.33341 9.88459,-9.64073c-1.10053,-6.94279 -7.36259,-13.714 -8.08916,-19.99527c-0.47158,-4.07709 5.60991,-7.31829 5.205,-10.91069c-0.89789,-7.96599 -3.16517,-13.57347 -3.39051,-17.90702c-0.55314,-10.63646 8.60623,-22.72245 8.60623,-22.72245c0,0 48.89971,-10.89942 113.81876,-10c13.03899,0.18065 24.37689,1.06458 34.94269,1.51571c68.8652,2.94035 88.01452,10.12065 88.01452,10.12065c0,0 6.14192,-0.44314 7.17422,11.36196c0.25952,2.96754 -7.82704,13.52221 -7.03757,17.08912c0.9197,4.15526 12.67072,11.53295 13.09569,16.0096c0.63093,6.64603 -8.0683,11.75242 -7.35945,18.81861c0.42874,4.27392 2.47023,5.53005 2.8493,9.89419c0.19725,2.27055 2.82391,4.27402 2.98326,6.54809c0.18747,2.67557 -8.99037,11.6827 -8.77235,14.27752c0.2505,2.9814 4.5786,5.71769 4.82633,8.54747c0.48921,5.58864 5.77608,10.83281 6.03825,15.53972c0.25113,4.50908 -6.05938,9.87125 -5.89245,13.18581c0.16217,3.2211 3.10609,6.42638 3.10609,8.18271c0,5.2945 -11.01136,7.91363 -11.01136,7.91363c0,0 -79.57774,4.45455 -118.06328,4.45455c-37.84614,0 -110.96398,-4.45455 -110.96398,-4.45455z" fill="url(#color-3)"/><path d="M224.5087,268.54864c0,0 6.11101,-5.78598 9.36012,-11.85753c2.61499,-4.88666 2.21106,-9.95829 4.1745,-12.34721c2.2658,-2.75681 11.05142,-5.70912 11.05142,-5.70912c0,0 21.78289,-5.97784 38.22984,-6.46042c12.47966,-0.36617 32.29809,0.34473 52.78589,0.48788c38.02419,0.26567 78.3542,0.33511 78.3542,0.33511c0,0 5.84377,-0.03865 8.38816,1.06699c7.29498,3.16997 17.7751,10.54946 22.20243,14.65198c2.09366,1.94008 -1.68633,4.17102 0.17137,7.02349c3.27432,5.02775 11.62587,10.67316 11.62587,10.67316c0,0 -50.23052,6.14784 -110.45279,6.11846c-62.48488,-0.03049 -125.89094,-3.98279 -125.89094,-3.98279z" fill="url(#color-4)"/><path d="M224.5087,268.54864c0,0 6.11101,-5.78598 9.36012,-11.85753c2.61504,-4.88665 2.21102,-9.95829 4.1745,-12.34721c2.2658,-2.75681 11.05142,-5.70912 11.05142,-5.70912c0,0 21.78289,-5.97784 38.22984,-6.46042c12.47971,-0.36617 32.29809,0.34473 52.78589,0.48788c38.02419,0.26567 78.3542,0.33511 78.3542,0.33511c0,0 5.84377,-0.03865 8.38816,1.06699c7.29498,3.16997 17.77514,10.54946 22.20243,14.65198c2.09366,1.94008 -1.68633,4.17102 0.17137,7.02349c3.27432,5.02775 11.62587,10.67316 11.62587,10.67316c0,0 -50.23052,6.14784 -110.45279,6.11846c-62.48488,-0.03049 -125.89094,-3.98279 -125.89094,-3.98279zM383.42229,235.28614c-9.85439,-0.07069 -44.4146,0.01816 -67.40995,-0.17378c-14.79382,-0.12348 -29.89367,-0.83459 -43.22628,1.02404c-5.42145,0.75416 -7.04874,0.92464 -1.69059,3.03112c3.09653,1.21735 20.82475,1.90253 26.66292,2.2924c25.12293,1.67768 42.17132,2.13366 69.31986,1.66528c18.91242,-0.60033 48.10321,-0.50914 59.15023,-4.33381c7.72973,-2.67617 -32.6965,-3.43272 -42.80624,-3.50524z" fill-opacity="0.06275" fill="#000000"/><path d="M224.5087,268.54864c0,0 6.11101,-5.78598 9.36012,-11.85753c2.61504,-4.88665 2.21102,-9.95829 4.1745,-12.34721c0.92481,-1.1252 2.9357,-2.28297 4.99209,-3.25928c3.65187,0.84332 7.3145,1.68433 11.03226,2.51235c18.37781,3.51445 39.66041,6.87228 64.64073,7.41954c14.00462,0.30681 28.32197,0.19172 42.37854,0.41156c27.20327,-0.34795 66.30013,-2.36482 80.95811,-8.28825c2.86002,2.05589 5.35708,4.04464 7.01021,5.57651c2.09366,1.94008 -1.68633,4.17102 0.17137,7.02349c3.27432,5.02775 11.62587,10.67316 11.62587,10.67316c0,0 -50.23052,6.14784 -110.45279,6.11846c-62.48488,-0.03049 -125.89094,-3.98279 -125.89094,-3.98279z" fill-opacity="0.06275" fill="#000000"/><path d="M224.5087,268.54864c0,0 6.11101,-5.78598 9.36012,-11.85753c0.51267,-0.95804 0.90933,-1.92319 1.23049,-2.87384c35.04233,5.45816 71.58763,7.53057 115.43335,7.53458c38.80545,-0.00354 66.64942,-0.87029 98.45969,-6.02775c0.06541,0.1371 0.14302,0.27566 0.23422,0.41572c3.27432,5.02775 11.62587,10.67316 11.62587,10.67316c0,0 -50.23052,6.14784 -110.45279,6.11846c-62.48488,-0.03049 -125.89094,-3.98279 -125.89094,-3.98279z" fill-opacity="0.06275" fill="#000000"/><path d="M228.79948,307.1493c0,0 -5.81632,-1.38748 -7.76719,-3.92716c-2.23201,-2.90568 -0.79036,-7.29151 -3.58457,-12.351c-1.33152,-2.41098 -5.27642,-4.74048 -5.91627,-7.47533c-1.03903,-4.44105 2.58215,-9.19051 4.23331,-14.13338c1.79475,-5.37269 1.63209,-10.99041 0.31308,-17.12081c-0.91184,-4.238 -6.60628,-8.53614 -7.24321,-12.82094c-0.49809,-3.35078 10.40883,-6.33341 9.88459,-9.64073c-1.10053,-6.94279 -7.36259,-13.714 -8.08916,-19.99527c-0.08497,-0.73445 0.04275,-1.44178 0.30689,-2.12892c5.39445,7.89942 14.94818,15.39019 44.95405,20.58523c19.3652,1.2867 33.26677,-1.12202 51.39811,-2.28905c19.49772,-1.25497 41.58638,-1.24007 61.71538,-1.24007c18.90178,-0.01422 29.31694,2.43466 46.18872,3.42368c11.89391,0.69722 29.63213,-0.12655 36.14429,-2.67162c4.82359,-1.88513 6.30535,-4.3965 8.63498,-6.48315c3.35533,-5.93202 3.84867,-11.65421 5.77711,-17.57563c0.56,-1.71956 -0.39549,-3.42718 -0.99986,-5.139c3.08738,2.9072 6.098,5.84981 6.3093,8.07539c0.63093,6.64603 -8.0683,11.75242 -7.35945,18.81861c0.42874,4.27392 2.47023,5.53005 2.8493,9.89419c0.19725,2.27055 2.82391,4.27402 2.98326,6.54809c0.18747,2.67557 -8.99037,11.6827 -8.77235,14.27752c0.2505,2.9814 4.5786,5.71769 4.82633,8.54747c0.48921,5.58864 5.77608,10.83281 6.03825,15.53972c0.25113,4.50908 -6.05938,9.87125 -5.89245,13.18581c0.16217,3.2211 3.10609,6.42638 3.10609,8.18271c0,5.2945 -11.01136,7.91363 -11.01136,7.91363c0,0 -79.57774,4.45455 -118.06328,4.45455c-37.84614,0 -110.96398,-4.45455 -110.96398,-4.45455z" fill-opacity="0.06275" fill="#000000"/><path d="M212.44455,180.86697c-0.55314,-10.63646 8.60623,-22.72245 8.60623,-22.72245c0,0 48.89971,-10.89942 113.81876,-10c13.03899,0.18065 24.37689,1.06458 34.94269,1.51571c68.8652,2.94035 88.01452,10.12065 88.01452,10.12065c0,0 6.14192,-0.44314 7.17422,11.36196c0.15311,1.75062 -2.5983,6.14163 -4.71857,10.18082c-31.2871,-1.04757 -58.90462,6.29375 -84.71064,9.16826c-17.38719,1.5478 -43.33228,4.02211 -62.39584,2.38153c-12.41618,-1.06852 -21.30589,-3.5174 -31.8017,-5.19661c-19.10097,-3.55073 -44.12336,-5.60869 -68.77323,-5.24209c-0.07626,-0.54102 -0.13019,-1.06304 -0.15643,-1.56779z" fill-opacity="0.06275" fill="#000000"/><path d="M228.79948,307.1493c0,0 -5.81632,-1.38748 -7.76719,-3.92716c-2.23201,-2.90568 -0.79036,-7.29151 -3.58457,-12.351c-1.33152,-2.41098 -5.27642,-4.74048 -5.91627,-7.47533c-1.03903,-4.44105 2.58215,-9.19051 4.23331,-14.13338c1.79475,-5.37269 1.63209,-10.99041 0.31308,-17.12081c-0.91184,-4.238 -6.60628,-8.53614 -7.24321,-12.82094c-0.49809,-3.35078 10.40883,-6.33341 9.88459,-9.64073c-0.14553,-0.91809 -0.38132,-1.83317 -0.68261,-2.74452c7.49044,3.81622 21.24963,8.8877 40.57611,8.31895c8.25344,-0.24289 11.89409,-1.80321 17.09025,-2.9615c6.57191,-1.46495 14.34879,-2.35039 23.28444,-2.84247c21.45065,-1.36548 48.04731,-2.49286 70.44421,-1.94551c11.76682,0.28756 20.88652,1.68559 31.32932,2.57443c7.44599,1.11924 12.78463,2.88818 21.17287,3.69674c22.06009,2.12641 36.56531,-0.57421 43.79897,-4.38814c0.37643,0.99382 0.68938,2.10614 0.81625,3.56644c0.19725,2.27055 2.82391,4.27402 2.98326,6.54809c0.18747,2.67557 -8.99037,11.6827 -8.77235,14.27752c0.2505,2.9814 4.5786,5.71769 4.82633,8.54747c0.48921,5.58864 5.77608,10.83281 6.03825,15.53972c0.25113,4.50908 -6.05938,9.87125 -5.89245,13.18581c0.16217,3.2211 3.10609,6.42638 3.10609,8.18271c0,5.2945 -11.01136,7.91363 -11.01136,7.91363c0,0 -79.57774,4.45455 -118.06328,4.45455c-37.84614,0 -110.96398,-4.45455 -110.96398,-4.45455z" fill-opacity="0.06275" fill="#000000"/><path d="M221.05077,158.14452c0,0 48.89971,-10.89942 113.81876,-10c13.03899,0.18065 24.37689,1.06458 34.94269,1.51571c68.8652,2.94035 88.01452,10.12065 88.01452,10.12065c0,0 6.14192,-0.44314 7.17422,11.36196c0.10152,1.16067 -1.07375,3.48199 -2.4953,6.09191c-27.30488,-1.69216 -47.66855,2.35052 -72.33793,5.09124c-21.33859,2.03621 -45.28697,5.03647 -68.29999,2.68041c-9.33522,-0.95573 -17.86325,-3.07937 -25.72595,-4.53833c-22.06188,-3.5094 -55.71298,-5.99654 -83.41084,-4.11278c1.54376,-9.26957 8.31983,-18.21076 8.31983,-18.21076z" fill-opacity="0.06275" fill="#000000"/><path d="M228.79948,307.1493c0,0 -5.81632,-1.38748 -7.76719,-3.92716c-2.23201,-2.90568 -0.79036,-7.29151 -3.58457,-12.351c-1.33152,-2.41098 -5.27642,-4.74048 -5.91627,-7.47533c-1.03903,-4.44105 2.58215,-9.19051 4.23331,-14.13338c1.77834,-5.32355 1.63491,-10.88766 0.34897,-16.95272c2.7516,0.57894 5.82565,1.09511 9.02281,1.56315c1.96693,0.402 4.14502,0.71486 6.51198,0.87784c0.68341,0.08568 1.36642,0.16969 2.0471,0.25215c6.3285,0.76668 10.82716,2.01942 17.68076,2.60373c13.2126,1.12645 30.71678,0.5079 44.40684,0.06551c19.39014,-0.02664 38.54521,-2.00319 58.02965,-2.36723c18.75419,-0.3504 38.51834,0.64047 56.189,1.95438c20.20495,1.48884 36.78127,1.35663 52.15348,-0.44636c1.36983,1.8611 3.26911,3.66792 3.43075,5.51455c0.48921,5.58864 5.77608,10.83281 6.03825,15.53972c0.25113,4.50908 -6.05938,9.87125 -5.89245,13.18581c0.16217,3.2211 3.10609,6.42638 3.10609,8.18271c0,5.2945 -11.01136,7.91363 -11.01136,7.91363c0,0 -79.57774,4.45455 -118.06328,4.45455c-37.84614,0 -110.96398,-4.45455 -110.96398,-4.45455z" fill-opacity="0.06275" fill="#000000"/><path d="M221.05077,158.14452c0,0 48.89971,-10.89942 113.81876,-10c13.03899,0.18065 24.37689,1.06458 34.94269,1.51571c68.8652,2.94035 88.01452,10.12065 88.01452,10.12065c0,0 6.14192,-0.44314 7.17422,11.36196c0.01566,0.17917 0.0009,0.38599 -0.04046,0.61727c-26.41663,-2.21528 -53.85295,2.40244 -78.93528,5.18377c-11.34149,1.68543 -33.92452,4.69709 -48.32267,3.92529c-15.24601,-0.81724 -28.11444,-4.34764 -41.91696,-5.89693c-25.71832,-2.85558 -51.45948,-6.31405 -80.74542,-6.24486c2.53954,-6.00265 6.01061,-10.58286 6.01061,-10.58286z" fill-opacity="0.06275" fill="#000000"/><path d="M221.05077,158.14452c0,0 48.89971,-10.89942 113.81876,-10c13.03899,0.18065 24.37689,1.06458 34.94269,1.51571c68.8652,2.94035 88.01452,10.12065 88.01452,10.12065c0,0 6.14192,-0.44314 7.17422,11.36196c0.09816,1.12252 -1.86649,5.65418 -3.22461,8.15906c-30.32542,-2.55796 -52.21768,2.48543 -75.27054,6.15594c-20.14327,3.00298 -52.86834,4.42656 -75.89797,1.96423c-9.64032,-1.03075 -21.54526,-3.55601 -30.26925,-4.85485c-22.52799,-2.24894 -43.24175,-3.48462 -68.13912,-3.64534c0.89116,-9.86 8.8513,-20.77735 8.8513,-20.77735z" fill-opacity="0.06275" fill="#000000"/><path d="M221.05077,158.14452c0,0 48.89971,-10.89942 113.81876,-10c13.03899,0.18065 24.37689,1.06458 34.94269,1.51571c68.8652,2.94035 88.01452,10.12065 88.01452,10.12065c0,0 6.14192,-0.44314 7.17422,11.36196c0.06846,0.78249 -0.44341,2.09251 -1.21982,3.66283c-19.87643,-0.29958 -23.88782,-1.61035 -40.6194,0.02084c-7.93609,0.7737 -35.4476,4.14308 -41.42896,5.47891c-13.49563,2.52281 -42.94634,4.19402 -58.68605,2.02092c-9.66042,-1.33376 -20.42692,-3.22625 -29.11314,-4.83777c-21.03403,-3.35322 -52.77633,-7.00454 -80.13756,-5.51529c2.58687,-7.42674 7.25474,-13.82876 7.25474,-13.82876z" fill-opacity="0.06275" fill="#000000"/><path d="M228.79948,307.1493c0,0 -5.81632,-1.38748 -7.76719,-3.92716c-2.23201,-2.90568 -0.79036,-7.29151 -3.58457,-12.351c-1.33152,-2.41098 -5.27642,-4.74048 -5.91627,-7.47533c-1.03903,-4.44105 2.58215,-9.19051 4.23331,-14.13338c0.48468,-1.4509 0.82661,-2.91967 1.04154,-4.41158c9.40368,1.25438 19.14874,2.35541 28.92638,3.21974c27.97887,1.1533 57.30649,1.14165 85.62908,0.74191c14.23408,-0.2009 28.07326,-0.98495 42.37109,-0.98679c16.65353,-0.45832 34.68649,-0.5465 51.53355,-0.562c9.49555,-0.00873 14.88744,0.40461 24.34199,-0.34189c6.03708,-0.47667 11.72483,-0.7107 16.79166,-1.22151c1.62177,4.33131 5.01555,8.41935 5.22429,12.16683c0.25113,4.50908 -6.05938,9.87125 -5.89245,13.18581c0.16217,3.2211 3.10609,6.42638 3.10609,8.18271c0,5.2945 -11.01136,7.91363 -11.01136,7.91363c0,0 -79.57774,4.45455 -118.06328,4.45455c-37.84614,0 -110.96398,-4.45455 -110.96398,-4.45455z" fill-opacity="0.06275" fill="#000000"/><path d="M228.79948,307.1493c0,0 -5.81632,-1.38748 -7.76719,-3.92716c-2.23201,-2.90568 -0.79036,-7.29151 -3.58457,-12.351c-1.33152,-2.41098 -5.27642,-4.74048 -5.91627,-7.47533c-0.65986,-2.82034 0.55978,-5.76505 1.96074,-8.8047c15.35184,2.23069 36.52691,3.81395 50.72376,4.08583c38.96318,1.06234 77.85377,1.14171 117.07508,1.1316c29.36319,-0.72726 64.33154,-1.10131 89.59107,-4.98432c0.40904,1.03693 0.68705,2.05183 0.74223,3.04292c0.25113,4.50908 -6.05938,9.87125 -5.89245,13.18581c0.16217,3.2211 3.10609,6.42638 3.10609,8.18271c0,5.2945 -11.01136,7.91363 -11.01136,7.91363c0,0 -79.57774,4.45455 -118.06328,4.45455c-37.84614,0 -110.96398,-4.45455 -110.96398,-4.45455z" fill-opacity="0.06275" fill="#000000"/></g><g stroke-width="0"><path d="M469.70002,155.0241c0,0 27.7386,6.83811 3.6219,9.40064c-4.55447,0.48394 -11.39806,1.51686 -19.53051,2.28249c-15.23256,1.43406 -34.98683,2.92991 -52.6893,5.15773c-23.21714,2.92183 -41.22242,6.79235 -59.52294,6.79235c-20.98544,0 -48.84346,-5.43299 -65.97431,-7.85404c-19.1212,-2.70235 -62.07535,-5.31592 -80.91922,-7.9099c-8.68751,-1.19589 -3.50827,-3.71884 -2.49459,-4.32907c4.38373,-2.63898 14.11641,-3.34096 14.11641,-3.34096c0,0 -13.76524,-2.69085 -8.56163,-5.59027c2.85015,-1.58809 18.89932,-3.16901 28.54892,-4.56687c21.21374,-3.07306 72.15867,-4.1114 106.79285,-4.1114c28.79592,0 62.88159,0.86792 91.13048,2.81679c20.77863,1.43349 38.39932,3.68043 48.43424,5.43288c13.82199,2.41381 -2.95226,5.81962 -2.95226,5.81962z" fill="url(#color-5)"/><path d="M442.94845,152.21494c0,1.34472 -22.75534,3.15272 -50.91478,5.84177c-15.98043,1.52603 -31.67277,3.38475 -50.98373,3.38475c-20.5083,0 -42.37984,-2.87094 -58.2605,-4.97404c-25.42269,-3.36677 -46.29764,-4.73367 -46.29764,-6.03107c0,-2.10784 47.56191,-6.55861 100.90112,-6.55861c53.3392,0 105.55554,6.22937 105.55554,8.33721z" fill-opacity="0.12549" fill="#000000"/><path d="M469.70002,155.0241c0,0 27.7386,6.83811 3.6219,9.40064c-4.55447,0.48394 -11.39806,1.51686 -19.53051,2.28249c-15.23256,1.43406 -34.98683,2.92991 -52.6893,5.15773c-23.21714,2.92183 -41.22242,6.79235 -59.52294,6.79235c-20.98544,0 -48.84346,-5.43299 -65.97431,-7.85404c-19.1212,-2.70235 -62.07535,-5.31592 -80.91922,-7.9099c-8.68751,-1.19589 -3.50827,-3.71884 -2.49459,-4.32907c4.38373,-2.63898 14.11641,-3.34096 14.11641,-3.34096c0,0 -13.76524,-2.69085 -8.56163,-5.59027c2.85015,-1.58809 18.89932,-3.16901 28.54892,-4.56687c6.31674,-0.91506 15.26961,-1.6497 25.643,-2.23025c-17.60476,1.86613 -32.17387,5.02739 -31.99748,9.08561c5.67586,2.89606 21.86858,4.70067 34.17279,6.25516c-9.12226,-0.21141 -26.53515,-1.76271 -30.42707,0.0885c-2.88882,1.37408 10.94734,3.9171 17.65554,4.32492c6.38058,0.3879 12.65287,0.8818 18.93206,1.34747c12.43745,0.6941 25.28353,1.10884 36.7762,2.44919c22.64225,2.64069 36.2027,6.14605 61.54532,2.20705c9.09849,-1.21723 18.23488,-2.49544 28.43591,-3.22101c20.47658,-1.45644 53.48702,-2.60654 68.07291,-6.45138c-2.48902,-1.7168 -28.71558,-0.19255 -33.96387,-0.4098c8.42862,-0.81799 32.9095,-4.55975 36.0159,-6.28688c6.02488,-3.34977 -13.04774,-5.89504 -24.19754,-7.39937c-2.02054,-0.29947 -4.10339,-0.59223 -6.23837,-0.87622c19.68766,1.4366 36.30265,3.57362 45.93225,5.25529c13.82199,2.41381 -2.95226,5.81962 -2.95226,5.81962z" fill-opacity="0.06275" fill="#000000"/><path d="M469.70002,155.0241c0,0 27.7386,6.83811 3.6219,9.40064c-4.55447,0.48394 -11.39806,1.51686 -19.53051,2.28249c-15.23256,1.43406 -34.98683,2.92991 -52.6893,5.15773c-23.21714,2.92183 -41.22242,6.79235 -59.52294,6.79235c-20.98544,0 -48.84346,-5.43299 -65.97431,-7.85404c-19.1212,-2.70235 -62.07535,-5.31592 -80.91922,-7.9099c-8.68751,-1.19589 -3.50827,-3.71884 -2.49459,-4.32907c4.38373,-2.63898 14.11641,-3.34096 14.11641,-3.34096c0,0 -13.76524,-2.69085 -8.56163,-5.59027c1.66345,-0.92687 7.82291,-1.85129 14.58203,-2.7383c-1.06513,0.75324 -1.34709,1.58994 -0.61141,2.49059c2.83136,3.46631 14.43533,5.78969 27.18932,7.40601c-9.07511,-0.43149 -19.28983,-0.98158 -27.40106,-0.10616c-8.87104,0.95742 -8.31194,2.57008 -2.43317,4.04207c2.43358,0.60935 5.37843,1.03979 8.42669,1.47065c6.10729,0.86324 12.30641,1.67619 18.34928,2.56486c10.2965,0.92663 22.19328,0.73783 32.11268,1.70837c4.36341,0.42693 6.57748,1.80305 11.17133,2.08184c2.81005,0.17054 6.08746,0.16915 8.7239,-0.10665c2.07935,-0.21753 2.26674,-1.11041 4.55595,-1.15241c10.88947,-0.19979 21.58528,2.16072 27.23678,3.96099c9.48994,1.19161 24.8652,1.85846 34.39915,0.12911c2.69875,-0.48952 3.66645,-1.32076 5.75064,-1.9418c3.98182,-1.18646 13.71482,-1.8085 19.78658,-2.16442c4.86675,-0.28528 9.53862,0.71938 14.38863,1.01847c6.87966,0.42425 15.57162,-0.63105 21.73009,-1.18485c11.01683,-1.46436 21.72991,-2.74939 33.1539,-4.02247c4.37193,-0.4872 12.30569,-1.16536 13.95814,-2.33075c1.82741,-1.2888 -1.12821,-2.37433 -5.91169,-3.00295c-3.21214,-0.42212 -8.71277,-0.63847 -14.76398,-0.69721c14.98578,-1.89622 25.65534,-5.5552 22.34926,-9.13817c3.0933,0.44394 5.83292,0.8776 8.1634,1.28459c13.82199,2.41381 -2.95226,5.81962 -2.95226,5.81962z" fill-opacity="0.06275" fill="#000000"/><path d="M469.70002,155.0241c0,0 27.7386,6.83811 3.6219,9.40064c-4.55447,0.48394 -11.39806,1.51686 -19.53051,2.28249c-15.23256,1.43406 -34.98683,2.92991 -52.6893,5.15773c-23.21714,2.92183 -41.22242,6.79235 -59.52294,6.79235c-20.98544,0 -48.84346,-5.43299 -65.97431,-7.85404c-19.1212,-2.70235 -62.07535,-5.31592 -80.91922,-7.9099c-8.68751,-1.19589 -3.50827,-3.71884 -2.49459,-4.32907c4.38373,-2.63898 14.11641,-3.34096 14.11641,-3.34096c0,0 -13.76524,-2.69085 -8.56163,-5.59027c1.66345,-0.92686 7.82291,-1.85129 14.58203,-2.7383c-1.06509,0.75324 -1.34709,1.58995 -0.61141,2.49059c2.83136,3.46632 14.43538,5.78968 27.18932,7.406c-9.07511,-0.4315 -19.28983,-0.98158 -27.40106,-0.10617c-8.871,0.95741 -8.31194,2.57008 -2.43313,4.04208c2.43362,0.60935 5.37843,1.03979 8.42669,1.47065c6.10729,0.86324 12.30641,1.67619 18.34932,2.56486c10.29654,0.92663 22.19328,0.73783 32.11268,1.70837c4.36341,0.42693 6.57748,1.80305 11.17133,2.08184c2.81005,0.17054 6.08746,0.16915 8.7239,-0.10665c2.07935,-0.21752 2.26669,-1.11041 4.5559,-1.15241c10.88943,-0.19979 21.58528,2.16072 27.23678,3.96099c9.48994,1.19162 24.8652,1.85846 34.39915,0.12911c2.69875,-0.48952 3.66645,-1.32076 5.75064,-1.9418c3.98182,-1.18646 13.71482,-1.80849 19.78658,-2.16441c4.86675,-0.28528 9.53862,0.71938 14.38868,1.01847c6.87966,0.42425 15.57162,-0.63105 21.73009,-1.18485c11.01683,-1.46436 21.72991,-2.74939 33.1539,-4.02247c4.37193,-0.4872 12.30569,-1.16537 13.95814,-2.33075c1.82741,-1.2888 -1.12821,-2.37432 -5.91169,-3.00295c-3.21214,-0.42212 -8.71277,-0.63847 -14.76398,-0.6972c14.98578,-1.89622 25.65534,-5.5552 22.34926,-9.13817c3.0933,0.44395 5.83292,0.8776 8.1634,1.28459c13.82199,2.41381 -2.95226,5.81962 -2.95226,5.81962z" fill-opacity="0.06275" fill="#000000"/><path d="M469.70002,155.0241c0,0 27.7386,6.83811 3.6219,9.40064c-4.55447,0.48394 -11.39806,1.51686 -19.53051,2.28249c-15.23256,1.43406 -34.98683,2.92991 -52.6893,5.15773c-23.21714,2.92183 -41.22242,6.79235 -59.52294,6.79235c-20.98544,0 -48.84346,-5.43299 -65.97431,-7.85404c-19.1212,-2.70235 -62.07535,-5.31592 -80.91922,-7.9099c-8.68751,-1.19589 -3.50827,-3.71884 -2.49459,-4.32907c4.38373,-2.63898 14.11641,-3.34096 14.11641,-3.34096c0,0 -13.76524,-2.69085 -8.56163,-5.59027c0.5744,-0.32006 1.68489,-0.63982 3.17109,-0.95785c-0.09053,2.69473 15.29366,5.0436 28.4186,6.70621c0.07048,0.01219 0.14109,0.02435 0.21183,0.03647c-10.30058,0.01722 -27.46481,0.20679 -32.71534,2.28286c-9.02904,3.5701 26.25262,7.12326 37.15757,8.13456c8.5065,0.51855 20.22581,0.29964 27.78135,1.34326c5.28319,0.72975 8.69886,2.79456 15.23135,3.08435c2.97985,0.13219 6.43818,0.0758 9.02913,-0.27792c2.66044,-0.3632 0.76923,-1.28898 3.66138,-1.5957c7.29113,-0.77324 20.36309,1.24048 21.48941,2.81968c-12.52578,4.58568 23.64471,5.34908 35.87221,4.55874c15.31667,-0.99002 8.6099,-2.59998 12.6124,-4.98397c2.79062,-1.66215 19.07975,-1.919 25.40147,-1.92371c5.66294,0.01665 2.83813,1.35942 11.06367,1.53479c4.4979,0.0959 10.5588,-0.93277 14.87542,-1.21131c16.60795,-1.07167 28.09349,-2.05397 42.74214,-4.0752c11.29645,-1.55869 21.38547,-2.09424 20.1526,-5.5368c-3.525,-1.53778 -9.40206,-2.73711 -16.49109,-3.38006c5.28019,-0.88061 11.03451,-2.75354 12.58217,-3.49169c3.51719,-1.67751 2.01901,-2.92315 -1.25149,-4.14184c1.40662,0.22107 2.71266,0.43732 3.91058,0.64652c13.82199,2.41381 -2.95226,5.81962 -2.95226,5.81962z" fill-opacity="0.06275" fill="#000000"/><path d="M401.10197,171.86496c-23.21714,2.92183 -41.22242,6.79235 -59.52294,6.79235c-20.98544,0 -48.84346,-5.43299 -65.97431,-7.85404c-19.1212,-2.70235 -62.07535,-5.31592 -80.91922,-7.9099c-8.68751,-1.19589 -3.50827,-3.71884 -2.49459,-4.32907c0.61069,-0.36763 1.32515,-0.69767 2.10268,-0.99345c-3.25615,1.43571 -1.02036,2.87067 4.38449,4.52631c7.96341,1.44185 16.37234,2.1101 24.8971,2.68351c4.19356,0.46321 7.9343,0.82467 10.41426,1.05465c2.58153,0.15737 5.45891,0.24681 8.42606,0.32424c1.94365,0.18262 3.8807,0.38626 5.8073,0.619c14.58333,1.7617 28.07591,3.68472 42.98125,5.34021c13.41385,1.99651 27.1925,5.47352 44.66102,5.49207c17.42034,0.01849 34.00254,-3.45568 49.86122,-4.93752c7.40386,-0.44011 15.34632,-1.03516 23.34024,-1.7506c-2.68551,0.29952 -5.34748,0.61288 -7.96453,0.94224z" fill-opacity="0.06275" fill="#000000"/><path d="M469.70002,155.0241c0,0 27.7386,6.83811 3.6219,9.40064c-4.55447,0.48394 -11.39806,1.51686 -19.53051,2.28249c-7.97369,0.75068 -17.18643,1.51829 -26.69526,2.39896c10.95587,-1.23424 21.28453,-2.65472 29.63195,-4.16538c7.50009,-1.35731 15.33964,-1.65918 19.51943,-3.73669c1.15324,-1.76352 -0.53237,-3.52882 -6.91905,-4.78408c-1.21026,-0.23787 -3.49723,-0.56921 -5.33846,-0.68938c0.90431,-0.15953 1.79341,-0.34579 2.24906,-0.47345c0.41384,-0.11595 5.49969,-1.91819 5.64742,-2.00688c1.97406,-1.18525 2.06213,-2.62097 1.02386,-4.00003c13.35284,2.41084 -3.21034,5.7738 -3.21034,5.7738z" fill-opacity="0.06275" fill="#000000"/><path d="M206.89134,154.12955c0.60791,0.08969 1.93557,0.3159 3.50122,0.5396c-1.71643,0.10191 -3.2509,0.24134 -4.71767,0.42181c-1.98676,-0.43212 -8.02721,-1.87542 -8.97772,-3.63654c1.65591,1.04234 5.22478,1.94197 10.19417,2.67513z" fill-opacity="0.06275" fill="#000000"/></g><path d="M288.5054,169.04863c0.30461,-0.74692 3.65536,-0.67902 3.65536,-0.67902c6.02847,0.14502 10.58321,0.81628 15.44031,1.6012l2.74442,0.40784c0.92764,0.13354 1.54165,0.36603 1.54165,0.63049c0,0.22494 -0.44426,0.42676 -1.14786,0.56423c-0.6167,0.15684 -1.52204,0.25587 -2.53119,0.25587c-0.18142,0 -0.35947,-0.0032 -0.53313,-0.00936l-4.34515,-0.13837l0.12377,-0.19311c-1.49858,-0.033 -2.72006,-0.12802 -4.13533,-0.29921c-0.96272,-0.09282 -2.05001,-0.21062 -3.36,-0.35649l-0.04096,-0.01122l-0.01202,0.00491l-3.39907,-0.41328c-0.98735,-0.11454 -1.68781,-0.33503 -1.79821,-0.59386c-0.97052,-0.07465 -2.4067,-0.27029 -2.20268,-0.77063z" fill-opacity="0.06275" fill="#000000" stroke-width="0.5"/><path d="M373.24198,171.53374c-0.72271,0.05743 -1.51119,0.11978 -2.38104,0.19022l-0.14607,-0.00181l0.01292,0.01056l-3.38472,0.20577c-0.30411,0.02014 -0.62621,0.03095 -0.95962,0.03095c-1.2012,0 -2.25543,-0.14032 -2.85069,-0.35144c-0.986,-0.01089 -2.21452,-0.11043 -2.83356,-0.49679c-1.13162,-0.70631 2.03691,-0.95856 2.03691,-0.95856c1.43946,-0.1146 2.85186,-0.22494 4.25722,-0.33019l0.20353,-0.05774l0.17043,0.02985c0.89045,-0.06616 1.77878,-0.13024 2.67008,-0.19202c1.28675,-0.25805 2.70346,-0.47588 4.24879,-0.63449l0.17195,0.00062l-0.01929,-0.01289l4.6424,-0.34495c0.35557,-0.0285 0.73891,-0.04402 1.13848,-0.04402c1.3732,0 2.55421,0.18337 3.0772,0.44625c1.43344,0.08593 2.48857,0.37766 2.48857,0.72433c0,0.01175 -0.00121,0.02343 -0.00359,0.03505c0.00238,0.01162 0.00359,0.0233 0.00359,0.03505c0,0.26446 -0.61406,0.49695 -1.54165,0.63049l-3.7301,0.55432l-0.49527,-0.1656c-1.35404,0.21851 -2.71068,0.35972 -4.50835,0.51257c-0.5535,0.06864 -1.13189,0.14969 -1.71522,0.25188z" fill-opacity="0.06275" fill="#000000" stroke-width="0.5"/><g stroke-width="0"><path d="M359.40886,204.70843c0,0 0.78516,-1.22753 1.56843,-1.91798c1.00762,-0.88823 3.97558,-2.96909 3.97558,-2.96909l11.81352,0.46343c0,0 -2.24758,2.73992 -3.45703,3.74415c-0.87452,0.72611 -3.12645,1.72221 -3.12645,1.72221c0,0 -2.85316,-0.02613 -6.854,-0.47024c-2.69843,-0.29954 -3.92004,-0.57248 -3.92004,-0.57248z" fill="url(#color-6)"/><path d="M359.9144,199.85766c0,0 6.73238,-9.24011 7.82686,-14.19191c1.00951,-4.56728 -1.49437,-14.45869 -1.49437,-14.45869l16.30707,-2.02532c0,0 4.10765,10.69505 3.76092,15.12486c-0.45135,5.76632 -6.23887,16.53304 -6.23887,16.53304c0,0 -4.84023,0.2076 -12.9791,-0.10093c-5.68914,-0.21567 -7.18256,-0.88104 -7.18256,-0.88104z" fill="url(#color-7)"/><path d="M367.74134,185.66575c1.00951,-4.56728 -1.49437,-14.45869 -1.49437,-14.45869l16.30707,-2.02532c0,0 4.10765,10.69505 3.76092,15.12486c-0.18949,2.42111 -1.31972,5.72374 -2.56731,8.74082c-3.74845,-1.67354 -9.50547,-2.87011 -18.10155,-2.27941c0.97407,-1.84189 1.77537,-3.65519 2.09523,-5.10226z" fill-opacity="0.06275" fill="#000000"/><path d="M366.24698,171.20705l16.30707,-2.02532c0,0 2.80144,7.29411 3.58197,12.32982c-6.31109,-1.01431 -12.74053,-1.26677 -18.23475,-0.51831c-0.34067,-4.59682 -1.65429,-9.78619 -1.65429,-9.78619z" fill-opacity="0.06275" fill="#000000"/></g><g stroke-width="0"><path d="M299.62555,206.81187c0,0 -1.26611,-1.65946 -1.81171,-2.64409c-0.69046,-1.24598 -1.99977,-4.23401 -1.99977,-4.23401l13.54349,-0.42481c0,0 2.95831,3.08934 3.56371,4.21935c0.433,0.80823 1.28729,2.50427 1.28729,2.50427c0,0 -2.42191,0.43566 -6.76594,0.54267c-5.56093,0.13698 -7.81703,0.03662 -7.81703,0.03662z" fill="url(#color-8)"/><path d="M292.33281,201.64698c0,0 -5.32442,-12.80024 -5.37058,-18.2902c-0.04562,-5.42287 5.09522,-14.45074 5.09522,-14.45074l15.4648,1.77983c0,0 -0.80028,11.9571 0.13952,17.03183c0.89332,4.82375 5.36699,12.70182 5.36699,12.70182c0,0 -1.16284,0.60071 -5.47829,0.89755c-10.92357,0.75139 -15.21771,0.32992 -15.21771,0.32992z" fill="url(#color-9)"/><path d="M286.96223,183.35678c-0.04562,-5.42287 5.09522,-14.45074 5.09522,-14.45074l15.4648,1.77983c0,0 -0.80028,11.9571 0.13952,17.03183c0.23247,1.25521 0.70732,2.71724 1.28276,4.19346c-6.63611,-0.96416 -13.72227,-0.73027 -20.05857,0.29749c-1.03481,-3.26118 -1.90516,-6.64641 -1.92373,-8.85187z" fill-opacity="0.06275" fill="#000000"/><path d="M291.62176,168.90603l15.4648,1.77983c0,0 -0.37082,5.54049 -0.3112,10.67921c-0.31169,-0.05227 -0.63429,-0.10265 -0.96828,-0.15103c-5.32312,-0.77102 -12.56144,-0.9761 -18.96423,-0.6021c1.113,-5.26827 4.77886,-11.70591 4.77886,-11.70591z" fill-opacity="0.06275" fill="#000000"/></g><path d="M404.88039,225.43267c-19.04368,1.68739 -38.65184,2.97705 -59.03687,3.5828c-15.3858,0.4572 -30.65492,0.52453 -46.05046,0.11169c14.58862,-1.38666 29.11076,-2.76809 45.61351,-3.13235c19.76442,-0.43625 38.15501,-0.72779 58.27221,-0.71172c0.77986,0.00062 1.5491,0.0046 2.30801,0.01129c-0.5556,0.07436 -0.94881,0.12432 -1.10641,0.13829z" fill-opacity="0.06275" fill="#000000" stroke-width="0"/><path d="M341.70069,218.79725c-8.57034,0.74251 -17.13233,1.85527 -26.13347,2.30189c-11.33916,0.56263 -19.47874,0.305 -26.70284,0.73042c-3.68888,0.21724 -7.13905,0.61258 -10.65458,1.38619c1.69853,-0.63419 3.3111,-1.23275 4.90412,-1.59229c9.1734,-2.07047 22.04878,-2.61737 34.04018,-3.47695c9.96152,-0.71407 25.16967,-0.92632 35.71237,-0.93758c2.30644,-0.00246 6.51741,-0.33022 7.38973,0.03965c-6.44994,0.2688 -15.17038,1.2554 -18.5555,1.54868z" fill-opacity="0.06275" fill="#000000" stroke-width="0"/><path d="M449.12236,173.26941l1.33807,0.08023c6.77087,0.97169 6.1373,2.01032 -1.49378,2.70806c-10.19646,0.93229 -22.19081,1.23003 -32.92812,1.76191c-4.92605,0.12326 -18.01277,0.88297 -19.80829,-0.85611c-0.76421,-0.74018 8.02034,-1.86371 10.3122,-2.15667c11.04326,-1.41161 30.31846,-2.94216 42.57992,-1.53742z" fill-opacity="0.06275" fill="#000000" stroke-width="0.5"/><path d="M226.39681,168.61406c0.8974,-0.11565 1.86492,-0.11565 1.86492,-0.11565c16.91803,0.02159 34.89406,2.51552 45.37978,5.36083c1.68839,0.45815 8.55836,1.9332 8.17255,2.50843c-1.43596,2.14099 -8.89962,1.17192 -14.05433,0.84363c-13.30443,-1.01176 -23.92106,-3.86413 -37.3637,-5.10877c-3.33645,-0.30892 -11.23481,-0.70477 -11.75179,-1.75425c-0.56372,-1.14437 3.64949,-1.62102 7.75257,-1.73421z" fill-opacity="0.06275" fill="#000000" stroke-width="0.5"/><path d="M434.42311,186.0018c0,0 7.27341,5.42404 0.99385,7.77331c-6.20082,2.31981 -18.72247,3.43656 -30.05908,3.80559c-4.81134,0.17541 -20.52104,0.04572 -20.52104,0.04572c0,0 28.35508,-4.34686 30.72768,-4.6718c9.93079,-1.36009 18.85858,-6.95282 18.85858,-6.95282z" fill-opacity="0.06275" fill="#000000" stroke-width="0.5"/><path d="M249.14287,199.64668c8.36496,1.60686 26.39447,2.87428 35.5384,4.03827l6.82166,1.49679c0,0 -29.80427,-0.73918 -44.62114,-3.02521c-5.36461,-0.82768 -13.27554,-2.25772 -13.99179,-3.86945c-0.89323,-2.00991 -6.80918,-5.80955 2.24251,-4.12016c0,0 5.6454,3.8729 14.01036,5.47976z" fill-opacity="0.06275" fill="#000000" stroke-width="0.5"/></g></g><g stroke="none" stroke-width="0" stroke-linecap="butt"><path d="M382.62677,156.90497l116.46452,-36.27071c0,0 8.65082,5.04246 15.30568,7.16985c6.42141,2.05275 23.69716,6.27411 23.69716,6.27411c0,0 -6.63503,0.42015 -12.70818,0.52053c-8.73332,0.14435 -14.42833,0.00374 -14.42833,0.00374c0,0 0.68947,2.3114 1.90296,3.37208c1.3897,1.21475 5.97858,3.51713 5.97858,3.51713c0,0 -4.71709,0.00741 -8.66333,-0.48227c-4.23551,-0.52558 -8.91756,-0.95078 -8.91756,-0.95078c0,0 -0.06967,6.67472 4.24982,9.40629c4.81143,3.04269 23.30251,8.01736 23.30251,8.01736c0,0 -17.08832,1.38607 -29.35705,0.68154c-12.24589,-0.7032 -16.72329,-1.81546 -16.72329,-1.81546c0,0 1.82216,1.15766 3.10923,1.70005c1.30088,0.54821 4.65509,1.57194 4.65509,1.57194c0,0 -4.08352,0.2105 -10.42453,0.08717c-6.77603,-0.1318 -15.77277,-0.82372 -15.77277,-0.82372l8.37708,3.18385c0,0 -35.50175,-1.26283 -51.29547,-2.14429c-26.11817,-1.45768 -38.75211,-3.01842 -38.75211,-3.01842z" fill="url(#color-10)"/><path d="M503.77079,125.6709c4.81731,2.14766 12.12669,3.8326 17.95786,5.80155c1.92292,0.64252 7.12635,1.92551 7.12635,1.92551c0,0 -4.04907,-0.14441 -6.05615,-0.19263c-3.47646,-0.08353 -6.66522,-0.45659 -9.98848,-0.63855c-1.3644,-0.153 -7.59699,-0.89837 -8.93685,-0.72287c-2.53205,0.33165 0.33534,4.54879 1.25342,5.18507c0.26661,0.23806 4.10707,1.6641 4.10707,1.6641c0,0 -6.74597,-0.99548 -11.93837,-0.73528c-2.28746,0.11463 -2.81081,1.23561 -3.46583,1.6775c-5.23497,2.34738 -1.54286,5.38027 -1.54286,7.86529c1.13723,1.28478 2.22125,2.48248 4.07831,3.72518c0.58862,0.3939 1.30456,0.81286 1.8127,1.21166c0.5019,0.39389 8.99181,2.68587 8.99181,2.68587c0,0 -14.48324,-0.71234 -20.15502,-1.27293c-5.24484,-0.51839 -12.69517,-1.97393 -12.69517,-1.97393c0,0 0.74878,1.52009 1.31402,2.15164c0.44466,0.4968 3.33281,2.01324 3.33281,2.01324c0,0 -6.18131,-0.26659 -9.17399,-0.51975c-3.29809,-0.279 -9.78746,-1.08426 -9.78746,-1.08426c0,0 2.1889,3.47896 0.8476,3.38706c-21.41754,0.03026 -35.08369,-0.42427 -52.9045,-3.07257c-4.46349,-0.33807 -9.31176,-0.89816 -13.64116,-1.48439l103.2631,-32.15936c0.49823,1.58547 2.16531,3.21354 6.20073,4.56286z" fill-opacity="0.06275" fill="#000000"/><path d="M501.1942,126.10586c1.57368,1.31903 4.97746,2.74913 8.85852,3.82987c2.01915,0.56226 6.69775,1.38906 3.74693,1.26885c-11.75807,-0.63909 -18.88034,-2.69057 -18.88034,1.31624c0,1.36757 0.78282,2.54077 3.44551,3.72439c-2.17419,-0.25036 -5.58547,-0.30635 -6.62682,-0.02587c-3.56506,0.9602 -5.63584,2.87508 -6.41898,4.0787c-1.74307,2.36158 -0.9109,4.81026 -0.85303,7.19092c0.84819,0.77593 2.56466,3.68856 5.89976,4.24752c-0.64497,-0.0712 -1.59144,-0.17222 -2.05275,-0.21896c-1.9484,-0.19741 -3.77075,-0.3911 -5.63535,-0.62747c-4.34968,-0.32894 -9.3934,-1.51346 -14.06348,-1.47566c-5.38171,0.04356 -6.2665,3.06583 -3.26054,3.72877c-2.20057,-0.01972 -9.38618,-0.56003 -10.88844,-0.35267c-6.88491,0.95032 4.57475,2.54466 -6.86696,2.54937c-7.72269,0.28691 -20.0775,-0.66953 -26.94509,-1.43496c-8.28291,-0.46159 -13.03957,-1.88849 -18.50198,-3.08044l94.56688,-29.45108c0.33547,1.64065 1.5521,3.10837 4.47619,4.73249z" fill-opacity="0.06275" fill="#000000"/></g><g stroke="#000000" stroke-width="0"><path d="M129.92612,124.51258c0,0 14.66336,0.38077 27.89736,-0.41072c11.27972,-0.67462 19.20917,-1.64202 19.20917,-1.64202c0,0 52.42915,18.54871 64.40574,24.18013c5.79156,2.7232 3.59767,7.79524 3.59767,7.79524c0,0 -8.04892,2.51037 -35.12191,3.56399c-24.61667,0.95802 -52.71586,-1.82706 -52.71586,-1.82706l31.52244,-4.73709c0,0 -13.12772,0.29131 -23.01827,0.14512c-11.34261,-0.16766 -20.54643,-0.77673 -20.54643,-0.77673c0,0 11.03455,-2.53506 19.93332,-5.3286c6.47838,-2.03374 10.52655,-4.93509 10.52655,-4.93509c0,0 -7.98988,0.9002 -12.99529,1.151c-13.26437,0.66463 -21.36057,0.34907 -21.36057,0.34907c0,0 3.83943,-1.0843 5.17732,-1.58135c1.09044,-0.40512 2.26055,-1.18195 2.26055,-1.18195c0,0 -9.46863,-0.26064 -15.82531,-3.23384c-6.71937,-3.14282 -6.13412,-5.05607 -6.13412,-5.05607c0,0 4.74266,-0.20225 10.77418,-1.02596c6.22043,-0.84951 10.47689,-1.73734 10.47689,-1.73734c0,0 -6.06216,-0.00359 -11.93043,-1.22477c-4.67977,-0.97386 -6.13299,-2.48596 -6.13299,-2.48596z" fill="url(#color-11)" stroke-linecap="round"/><path d="M169.81658,124.10186c9.73578,-0.67462 16.57987,-1.64202 16.57987,-1.64202c0,0 45.25287,18.54871 55.59015,24.18013c3.08249,1.67926 3.5442,4.25167 3.44515,5.97717c-2.49342,0.38129 -5.09742,0.74763 -7.92766,1.1131c-8.77661,0.75087 -18.95405,1.82727 -28.17406,1.83823c-2.54456,0.21905 -12.71078,-0.20566 -18.08451,-0.19615c7.37403,-1.35835 14.98833,-4.03379 13.37666,-6.47581c-8.06395,-0.35497 -17.49938,-0.23045 -25.65489,-0.24154c0.91377,-0.13403 5.26368,-1.68347 6.14008,-1.95558c8.99858,-2.79389 9.37245,-8.36321 9.37245,-8.36321c0,0 -16.45838,1.63988 -27.4898,2.16206c2.30559,-0.89465 5.00474,-2.43143 5.00474,-2.43143c0,0 -10.22073,-1.3648 -14.75914,-2.16511c-3.86159,-0.9973 -8.52157,-3.82188 -8.52157,-3.82188c0,0 10.8351,-1.61021 14.36925,-2.39285c2.91466,-0.64545 5.33752,-1.97122 5.33752,-1.97122c0,0 -10.67593,-1.85385 -13.00157,-3.11907c4.27965,-0.02931 9.45405,-0.15229 14.39738,-0.49482z" fill-opacity="0.06275" fill="#000000" stroke-linecap="butt"/><path d="M169.81658,124.10186c9.73578,-0.67462 16.57991,-1.64202 16.57991,-1.64202c0,0 45.25283,18.54871 55.59011,24.18013c1.75815,0.95776 2.66367,2.20607 3.09886,3.42207c-2.15638,0.41342 -1.69296,0.98389 -12.12104,1.95378c-13.05469,1.21418 -24.47509,1.22317 -24.47509,1.22317c0,0 1.04688,-0.94447 2.09591,-1.84944c1.8432,-1.59009 -0.00467,-4.77006 -0.00467,-4.77006l-19.43536,0.77413c0,0 5.35268,-3.90165 6.78913,-5.80097c1.30846,-1.73003 1.48149,-5.13456 1.48149,-5.13456c0,0 -4.83839,0.83595 -11.08717,1.46444c-4.01946,0.40427 -8.88854,0.55093 -12.54579,0.90421c0.59091,-1.05334 1.5691,-1.82201 1.5691,-1.82201c0,0 -8.34823,-0.39559 -13.55309,-1.50092c-4.84405,-1.02871 -6.97661,-3.10179 -6.97661,-3.10179c0,0 7.83121,-0.87704 9.75283,-1.04211c3.98061,-0.35062 13.82998,-3.16864 13.82998,-3.16864c0,0 -10.60155,-2.50782 -13.9053,-3.89223c1.10878,-0.05581 2.21847,-0.12108 3.31675,-0.19718z" fill-opacity="0.06275" fill="#000000" stroke-linecap="butt"/></g><path d="M168.59246,124.82906c0,-21.28929 74.52428,-39.89781 167.28483,-39.89781c92.76055,0 171.32272,17.25838 171.32272,38.54768c0,21.28929 -61.06983,38.17867 -170.64972,37.94761c-127.08407,-0.26797 -167.95779,-15.30818 -167.95779,-36.59747z" fill="url(#color-12)" stroke="none" stroke-width="0" stroke-linecap="butt"/><g stroke="#000000" stroke-width="0"><path d="M531.91075,114.17417c0,0 24.43238,-5.41367 35.26914,-9.29378c7.88706,-2.82397 23.7614,-11.84214 23.7614,-11.84214c0,0 22.85682,-0.61889 44.07783,4.56246c26.35006,6.43366 20.11792,11.31004 20.11792,11.31004c0,0 -23.17928,4.92614 -63.99504,6.46581c-35.48896,1.33873 -59.23129,-1.20239 -59.23129,-1.20239z" fill="url(#color-13)" stroke-linecap="round"/><path d="M531.91075,114.17417c0,0 15.7079,-3.48051 27.52026,-6.86026c1.09133,0.62935 3.06549,1.17774 5.6419,1.55913c8.71093,0.94793 17.41608,1.01637 27.48742,0.57426c11.09803,-0.63641 19.74661,-0.70533 29.32309,-2.3111c7.64584,-1.71543 15.45444,-2.41186 17.84791,-5.06165c0.86447,-0.96354 1.1335,-2.05851 0.48899,-3.10914c20.2835,5.74612 14.91678,9.94534 14.91678,9.94534c0,0 -23.17928,4.92614 -63.99504,6.46581c-35.48896,1.33873 -59.23129,-1.20239 -59.23129,-1.20239z" fill-opacity="0.06275" fill="#000000" stroke-linecap="butt"/><path d="M531.91075,114.17417c0,0 4.76446,-1.0557 11.01867,-2.56885c7.72713,1.58948 22.01882,1.46315 31.5922,1.4734c12.4946,0 23.50726,-0.61926 35.64562,-1.17609c10.30937,-1.14903 20.18463,-1.97528 29.51487,-3.53513c5.88716,-1.31628 10.8578,-2.48213 13.53721,-4.19112c4.26054,2.90125 1.91776,4.73438 1.91776,4.73438c0,0 -23.17928,4.92614 -63.99504,6.46581c-35.48896,1.33873 -59.23129,-1.20239 -59.23129,-1.20239z" fill-opacity="0.06275" fill="#000000" stroke-linecap="butt"/></g><g fill-opacity="0.03137" fill="#000000" stroke="none" stroke-linecap="butt"><path d="M444.84652,141.97823c0,4.07482 -64.84525,2.48655 -117.76657,2.48655c-52.92128,0 -108.98893,2.24048 -108.98893,-1.83434c0,-4.07482 56.06765,-12.9219 108.98893,-12.9219c52.92128,0 117.76657,8.19487 117.76657,12.26969z" stroke-width="0"/><path d="M419.75549,142.94877c-0.35463,-0.23717 0.7093,-0.31623 0.7093,-0.31623l0.62559,-0.01888c4.62508,-1.02514 9.61188,-1.98616 15.04526,-2.79422c0,0 0.93315,-0.13868 1.55529,0.06934c0.62209,0.20801 -0.31107,0.34669 -0.31107,0.34669c-5.30935,0.78837 -10.19843,1.72887 -14.70625,2.73238l-1.49948,0.13903c0,0 -1.06397,0.07905 -1.41864,-0.15812z" stroke-width="0.5"/><path d="M410.46343,143.3623c-0.79305,-0.17677 0,-0.35355 0,-0.35355l0.51357,-0.10845c7.49215,-1.14362 13.36952,-2.74976 20.90846,-3.87037c0,0 0.93315,-0.13868 1.55529,0.06934c0.62209,0.20801 -0.31107,0.34669 -0.31107,0.34669c-7.52822,1.11846 -13.40084,2.7243 -20.88531,3.86688l-0.19483,0.04946c0,0 -0.79305,0.17677 -1.58611,0z" stroke-width="0.5"/><path d="M399.883,143.6919c0.10524,-0.12456 0.44049,-0.17407 0.74541,-0.19262c9.28856,-1.6332 18.47533,-3.36396 26.83595,-5.22763c0,0 0.79301,-0.17677 1.58606,0c0.79305,0.17677 0,0.35356 0,0.35356c-8.50134,1.89504 -17.84916,3.65332 -27.2942,5.31258l-0.97864,0.04608c0,0 -1.10215,-0.04628 -0.89453,-0.29196z" stroke-width="0.5"/><path d="M387.58557,144.7974c-0.50159,-0.2236 0.50155,-0.33541 0.50155,-0.33541l0.41689,-0.03212c0.9275,-0.20631 1.90498,-0.40247 2.93835,-0.58206c9.92514,-1.72077 19.0173,-4.07045 29.88327,-5.45854c0,0 0.97375,-0.12404 1.53016,0.09302c0.55641,0.21706 -0.4173,0.34109 -0.4173,0.34109c-10.76588,1.36706 -19.79676,3.71616 -29.61903,5.4191c-0.96186,0.16634 -1.86949,0.34883 -2.72934,0.54093l-0.99986,0.12578c0,0 -1.00309,0.1118 -1.50468,-0.1118z" stroke-width="0.5"/><path d="M378.15946,143.8068c1.27002,-0.14375 2.23408,-0.33492 3.49499,-0.52421c10.7749,-1.61392 20.00572,-3.68176 30.75079,-5.27903c0,0 0.9332,-0.13867 1.55529,0.06934c0.62209,0.20801 -0.31107,0.34668 -0.31107,0.34668c-10.74246,1.59591 -19.97212,3.66454 -30.74401,5.27801c-1.71683,0.25653 -2.93849,0.49987 -4.89918,0.66912l-0.10874,-0.30603l-0.68601,-0.16153c0.21192,-0.01743 0.41416,-0.03611 0.60876,-0.05591l-0.00458,-0.01287c0,0 0.141,-0.01572 0.34373,-0.02358z" stroke-width="0.5"/><path d="M370.59809,142.87108c0.95648,-0.12536 1.91655,-0.24938 2.88008,-0.37203c11.17452,-1.65679 20.29822,-3.65293 30.70234,-5.50906c0,0 0.87573,-0.15617 1.57637,0.03905c0.70064,0.19521 -0.17514,0.35139 -0.17514,0.35139c-10.47805,1.86773 -19.66662,3.87786 -30.92579,5.54415c-1.31124,0.16712 -2.61656,0.33658 -3.91565,0.50837l-0.0279,0.00065l0.00507,0.00213l-1.06325,0.12615c-0.1615,0.02009 -0.34763,0.03155 -0.54578,0.03155c-0.6194,0 -1.12153,-0.11193 -1.12153,-0.25c0,-0.06904 0.12557,-0.13154 0.32852,-0.17678l1.06253,-0.23685c0,0 0.5661,-0.12619 1.22008,-0.05871z" stroke-width="0.5"/><path d="M358.34094,143.04109c3.07486,-0.44823 6.08854,-0.91948 9.20243,-1.35346c11.17555,-1.55697 19.53082,-3.7042 29.53609,-5.56296c0,0 0.86156,-0.16004 1.57956,0.03201c0.718,0.19206 -0.1436,0.3521 -0.1436,0.3521c-10.08485,1.87315 -18.51795,4.03338 -29.78323,5.60285c-3.10165,0.43195 -6.10244,0.90166 -9.16452,1.34806l-1.16589,0.16996c-0.179,0.02696 -0.39482,0.04271 -0.62716,0.04271c-0.6194,0 -1.12153,-0.11193 -1.12153,-0.25c0,-0.08816 0.2047,-0.16565 0.51388,-0.21016l1.04804,-0.15575l0.00628,0.00209l0.1187,-0.01731l1.22767,0.41846l-0.04217,0.00155c-0.04029,0.00738 -0.06621,0.01123 -0.06621,0.01123l-0.03055,-0.00767l-2.59001,0.09531l1.37634,-0.50367c0,0 0.04661,-0.00692 0.12592,-0.01536z" stroke-width="0.5"/><path d="M362.7938,139.58652c10.02415,-1.49038 18.06477,-3.5784 28.00624,-5.05683c0,0 0.93315,-0.13868 1.55529,0.06933c0.62209,0.20801 -0.31107,0.34669 -0.31107,0.34669c-9.92406,1.47367 -17.94633,3.56237 -27.95492,5.04897c-5.66186,0.94696 -11.55624,1.81569 -17.30671,2.73225c-0.13884,0.06605 -0.37737,0.10592 -0.37737,0.10592l-1.46902,0.24509c-0.29653,0.03875 -0.61854,0.07365 -0.95401,0.1018c-0.27464,0.04513 -0.54883,0.09041 -0.82244,0.13587l-0.06586,0.00306l-0.00413,0.00054l0.0113,0.00442l-1.93041,0.24589c-0.16783,0.0223 -0.36396,0.03512 -0.57355,0.03512c-0.6194,0 -1.12153,-0.11193 -1.12153,-0.25c0,-0.0937 0.2313,-0.17536 0.5735,-0.21817l1.91776,-0.25009l0.00897,0.00342c6.82085,-1.13925 13.99484,-2.16301 20.81793,-3.30327z" stroke-width="0.5"/><path d="M333.07657,142.85314c5.88953,-0.95164 11.64394,-1.93905 17.49409,-2.90671c9.68388,-1.87219 19.19683,-3.86205 29.17119,-5.6408c0,0 0.87573,-0.15617 1.57637,0.03904c0.70064,0.19521 -0.17514,0.35139 -0.17514,0.35139c-9.97597,1.77895 -19.47627,3.7692 -29.16823,5.64028c-7.29723,1.20881 -14.45408,2.44615 -21.90227,3.60826l-0.01279,0.00084l0.00224,0.00075l-1.85357,0.27545c-0.18052,0.02768 -0.39922,0.04388 -0.63487,0.04388c-0.6194,0 -1.12153,-0.11193 -1.12153,-0.25c0,-0.07529 0.1493,-0.1428 0.38554,-0.18864l1.67987,-0.32927l0.19196,0.04866l0.04894,-0.00727c0.93607,-0.22226 1.95738,-0.385 3.53805,-0.63068l0.04392,-0.00682c0,0 0.33206,-0.05162 0.73635,-0.04835z" stroke-width="0.5"/><path d="M345.84271,138.01265c9.86485,-1.78711 18.47489,-3.7432 27.43139,-5.74131c0,0 0.79305,-0.17677 1.58606,0c0.79305,0.17677 0,0.35356 0,0.35356c-9.0298,2.01113 -17.70094,3.98268 -27.64107,5.78256c-8.98889,1.48898 -18.00995,2.96254 -26.55938,4.57286c-0.07016,0.1035 -0.47064,0.16944 -0.47064,0.16944l-0.26661,0.04391c-0.45238,0.07449 -0.93154,0.14045 -1.42896,0.19969c-0.14607,0.02821 -0.292,0.05646 -0.43775,0.08476l0.048,0.01499l-1.81458,0.28893c-0.18563,0.03034 -0.4147,0.04826 -0.66251,0.04826c-0.6194,0 -1.12153,-0.11193 -1.12153,-0.25c0,-0.08283 0.1807,-0.15626 0.45906,-0.20175l1.38091,-0.23086c9.39762,-1.83478 19.47277,-3.47526 29.4976,-5.13503z" stroke-width="0.5"/><path d="M307.28705,142.22861c9.81698,-1.51651 19.29557,-3.08168 28.55964,-4.79438c9.60779,-1.77593 17.59969,-4.36736 28.06299,-5.82973c0,0 0.95105,-0.1325 1.54546,0.0795c0.59441,0.212 -0.35665,0.3445 -0.35665,0.3445c-10.3607,1.43849 -18.31711,4.03408 -27.82006,5.79062c-11.70451,2.1631 -23.7474,4.09402 -36.38022,5.98595l0.00538,0.00168l-1.8157,0.28856c-0.1855,0.03027 -0.41429,0.04814 -0.66174,0.04814c-0.6194,0 -1.12153,-0.11193 -1.12153,-0.25c0,-0.08474 0.18918,-0.15964 0.47849,-0.20485l1.80893,-0.29008l0.00354,0.0011l0.01113,-0.00341c0.24907,-0.03731 0.49787,-0.07463 0.74649,-0.11196c1.20869,-0.31515 3.20379,-0.53069 4.70588,-0.7758l1.84289,-0.24767c0,0 0.15831,-0.02125 0.38518,-0.03217z" stroke-width="0.5"/><path d="M281.68698,143.53534c-0.50675,-0.22303 0.49379,-0.33598 0.49379,-0.33598l0.7416,-0.08344c7.2743,-0.9154 15.44322,-2.50833 22.87858,-3.19034c8.94367,-1.33001 17.83293,-3.14578 25.37572,-4.82258c7.98149,-1.38571 15.40065,-2.94445 23.85076,-4.20508c0,0 0.93315,-0.13868 1.55524,0.06934c0.62209,0.20801 -0.31102,0.34669 -0.31102,0.34669c-8.38004,1.241 -15.71356,2.79284 -23.60999,4.16378c-7.6414,1.70845 -16.73127,3.54095 -25.81765,4.8905c-7.25506,0.6206 -15.74137,2.29041 -22.81802,3.18298l-0.83172,0.09419c0,0 -1.00054,0.11296 -1.50724,-0.11006z" stroke-width="0.5"/><path d="M260.85581,144.50473c-0.95953,-0.12942 -0.3789,-0.34331 -0.3789,-0.34331l0.85788,-0.31566c2.66008,-0.82594 6.40772,-1.67824 10.02944,-2.30142c12.31067,-2.11091 24.62246,-4.24986 36.74781,-6.41956c9.92029,-1.77514 19.66124,-3.63856 29.07388,-5.546c0,0 0.82984,-0.16817 1.58427,0.01681c0.75443,0.18499 -0.07546,0.35316 -0.07546,0.35316c-9.44661,1.91432 -19.22249,3.7844 -29.17854,5.56594c-12.13742,2.17185 -24.46132,4.31294 -36.78428,6.42596c-3.4202,0.58417 -7.02698,1.4006 -9.52426,2.18029l-0.81163,0.29933c0,0 -0.58059,0.21389 -1.54012,0.08446z" stroke-width="0.5"/><path d="M241.60066,143.97514c-0.35463,-0.23717 0.70934,-0.31623 0.70934,-0.31623l0.91566,-0.06538c2.24386,-0.24919 4.08316,-0.61042 6.16659,-0.91729c7.62386,-1.70184 17.58022,-3.13714 26.27218,-4.58979c8.95444,-1.33165 18.37148,-3.39059 26.14639,-5.1211c7.5829,-1.12687 16.98676,-3.1811 25.99238,-3.60463c0,0 1.09972,-0.04903 1.31968,0.19612c0.21995,0.24515 -0.87977,0.29417 -0.87977,0.29417c-8.45639,0.35076 -17.8951,2.44366 -25.01019,3.50101c-7.79195,1.73955 -17.27109,3.80586 -26.27294,5.1426c-8.67244,1.4504 -18.49947,2.87789 -26.14715,4.56858c-2.21192,0.3313 -4.19244,0.71012 -6.58403,0.97755l-1.20945,0.09251c0,0 -1.06401,0.07906 -1.41864,-0.15811z" stroke-width="0.5"/><path d="M271.10279,144.81714c-0.94437,-0.13486 -0.33937,-0.34537 -0.33937,-0.34537l0.05294,-0.01841c0.42685,-0.14763 0.85375,-0.29525 1.2806,-0.44287c8.22805,-1.84425 16.6608,-3.55833 26.32013,-4.98879c9.07938,-1.01194 18.72866,-2.58872 24.9914,-4.397c8.62457,-0.99668 13.67494,-3.14266 21.29678,-4.42935c0,0 0.89722,-0.15 1.57014,0.05c0.67292,0.2 -0.22431,0.35 -0.22431,0.35c-7.55231,1.24827 -12.56324,3.4926 -21.20535,4.41322c-5.96853,1.83847 -16.32241,3.44466 -25.30278,4.44558c-9.42593,1.40622 -17.60458,3.07661 -25.69845,4.86978c-0.37979,0.13305 -0.75963,0.2661 -1.13942,0.39915l-0.05294,0.01841c0,0 -0.605,0.2105 -1.54936,0.07564z" stroke-width="0.5"/><path d="M234.43375,143.5202c-0.79305,-0.17677 0,-0.35356 0,-0.35356l0.56825,-0.1198c3.22986,-1.03908 10.93357,-2.11909 15.97761,-2.68587c9.7823,-1.30835 18.43124,-2.78046 26.49532,-4.57802c7.43787,-1.65798 17.45192,-4.50992 27.10973,-5.38284c0,0 1.04131,-0.09285 1.45785,0.13927c0.41653,0.23212 -0.62478,0.32496 -0.62478,0.32496c-9.27421,0.81377 -19.22487,3.68241 -26.35665,5.27216c-8.21356,1.83088 -17.03826,3.33015 -27.00202,4.66277c-4.48197,0.49507 -12.50555,1.57343 -15.19066,2.52492l-0.8485,0.196c0,0 -0.79301,0.17677 -1.58606,0z" stroke-width="0.5"/><path d="M225.15811,143.09189c0.0707,-0.0105 0.1414,-0.021 0.2121,-0.0315c9.36007,-1.54261 17.36588,-3.54657 26.86309,-5.09595c10.15209,-1.45314 18.69484,-3.48545 27.18187,-5.3773c0,0 0.79305,-0.17677 1.58611,0c0.79305,0.17677 0,0.35356 0,0.35356c-8.589,1.91458 -17.23488,3.96218 -27.49823,5.43592c-9.49851,1.55033 -17.55295,3.52181 -26.83725,5.09194c-0.36275,0.05394 -0.72549,0.10788 -1.08824,0.16183l-0.76048,-0.33241l-0.48369,-0.08362c0.07276,-0.01081 0.14553,-0.0216 0.21825,-0.03241l-0.03504,-0.01531c0,0 0.2649,-0.05904 0.64156,-0.07476z" stroke-width="0.5"/><path d="M227.24585,140.96698c-0.67292,-0.2 0.22431,-0.35 0.22431,-0.35l1.44192,-0.24094c1.92306,-0.28319 3.2622,-0.67181 5.27032,-0.94038c7.57541,-1.69539 17.0492,-3.8917 25.92356,-5.22176c0,0 0.93315,-0.13868 1.55524,0.06933c0.62209,0.20801 -0.31107,0.34669 -0.31107,0.34669c-8.83259,1.29932 -18.25507,3.52725 -25.78741,5.19984c-2.03813,0.27259 -3.40405,0.66217 -5.35519,0.95445l-1.39159,0.23277c0,0 -0.89722,0.15 -1.57014,-0.05z" stroke-width="0.5"/></g><g stroke="#000000" stroke-width="0"><path d="M494.65871,121.00713c0,0 1.65995,3.2798 -8.04533,6.3099c-3.1134,0.97203 -13.13378,1.51925 -13.13378,1.51925c0,0 -0.40936,-1.91275 -1.13436,-2.62842c-0.56601,-0.55878 -2.85787,-1.31258 -2.85787,-1.31258l-9.69536,2.66971c0,0 -3.90291,-2.04659 -6.99114,-2.92861c-2.99205,-0.85455 -11.25895,-2.2837 -11.25895,-2.2837c0,0 -5.3678,1.67656 -8.15937,2.29883c-2.1981,0.48998 -7.23918,1.13367 -7.23918,1.13367c0,0 -0.18824,-0.8369 -0.72599,-1.25644c-0.59674,-0.46556 -2.69588,-1.41327 -2.69588,-1.41327c0,0 -7.35537,3.49771 -13.05532,4.70581c-5.89021,1.24842 -21.73395,2.66769 -21.73395,2.66769c0,0 -3.97092,-2.70533 -8.0809,-3.73142c-5.15606,-1.28726 -20.43486,-3.38782 -20.43486,-3.38782l-15.3985,3.17824c0,0 -1.6333,-1.81483 -10.88557,-2.93121c-9.13603,-1.10236 -25.8661,-1.50221 -29.96917,-2.15848c-4.62387,-0.73958 -5.85499,-1.79199 -5.85499,-1.79199c0,0 -6.73445,1.72291 -10.96443,2.55357c-3.67658,0.72198 -11.33404,1.65839 -11.33404,1.65839c0,0 0.99264,-0.82458 1.2802,-1.20912c0.28271,-0.37813 0.43076,-1.07921 0.43076,-1.07921c0,0 -5.0627,0.45631 -8.31826,0.68178c-4.3674,0.30248 -15.54465,0.9709 -15.54465,0.9709c0,0 5.03157,-1.43172 7.54795,-2.23622c2.82427,-0.90294 8.58088,-2.92028 8.58088,-2.92028c0,0 -38.74314,5.70044 -55.96151,7.63379c-33.72759,3.78708 -51.50811,2.09937 -51.50811,2.09937l24.61407,-2.63916c0,0 -21.99814,0.71493 -34.97661,-0.3248c-21.58066,-0.86044 -21.5751,-3.13826 -21.5751,-3.13826c0,0 13.55126,-0.25293 18.92605,-0.43726c4.23793,-0.14534 10.73035,-0.57977 10.73035,-0.57977c0,0 -4.94624,-0.18836 -7.62678,-0.36762c-2.98895,-0.19988 -9.48268,-0.77655 -9.48268,-0.77655c0,0 7.34662,-0.3277 10.05344,-0.53656c2.05257,-0.15838 4.77478,-0.6076 4.77478,-0.6076c0,0 -13.82446,-2.801 -16.38118,-5.46171c-6.08943,-6.33708 8.63413,-13.52164 8.63413,-13.52164l10.48761,1.30143c0,0 -4.25395,-1.41287 -5.14856,-2.14042c-1.06545,-0.8665 -0.82176,-2.71498 -0.82176,-2.71498c0,0 3.89824,1.19855 6.16224,1.51397c2.10102,0.29271 6.37385,0.78015 6.37385,0.78015c0,0 -2.18069,-1.92674 -2.78587,-2.83248c-0.55785,-0.83488 -0.71473,-2.40667 -0.71473,-2.40667c0,0 7.41373,1.66305 10.37819,2.32385c2.76703,0.6168 9.537,1.4517 9.537,1.4517c0,0 2.38454,-11.80338 15.66053,-17.66696c28.27329,-13.92672 76.10132,-15.27575 76.10132,-15.27575c0,0 27.56382,2.14497 37.10921,2.7529c6.37726,0.40616 15.95679,0.82876 15.95679,0.82876c0,0 22.84942,-3.79961 54.98385,-4.06337c55.26859,-0.20209 93.1883,2.87193 93.1883,2.87193c0,0 -4.2085,16.83926 -4.96544,22.74474c-0.47665,3.71872 0.86182,9.27136 0.86182,9.27136c0,0 7.75781,-1.57653 11.56203,-2.07586c3.25628,-0.42741 9.87606,-0.73804 9.87606,-0.73804c0,0 -0.28195,3.42489 0.4491,5.24464c0.82302,2.04864 3.16055,6.44208 3.16055,6.44208c0,0 3.76263,1.96402 16.76909,2.12773c13.00646,0.1637 20.78765,-2.15295 20.78765,-2.15295c0,0 0.23494,1.89198 -3.23416,4.07471c-2.06316,1.98551 -8.58828,3.79981 -8.58828,3.79981c0,0 2.78578,1.60552 6.18499,2.41213c4.41702,1.04812 27.40694,4.74729 27.40694,4.74729c0,0 -7.07077,2.21398 -22.6353,3.48138c-18.35726,1.49482 -26.60671,0.8715 -26.60671,0.8715z" fill="url(#color-14)" stroke-linecap="round"/><path d="M494.65871,121.00713c0,0 0.10511,0.20763 0.1078,0.56668c-0.06294,0.01486 -0.13028,0.02938 -0.20223,0.04353c0,0 -0.79305,0.17678 0,0.35355c0.05307,0.01183 0.10619,0.02208 0.15903,0.03091c-0.24633,1.202 -1.69723,3.31312 -8.10988,5.31523c-3.1134,0.97203 -13.13378,1.51925 -13.13378,1.51925c0,0 -0.40936,-1.91275 -1.13436,-2.62842c-0.56601,-0.55878 -2.85787,-1.31258 -2.85787,-1.31258l-9.69536,2.66971c0,0 -3.90291,-2.04659 -6.99114,-2.92861c-2.99205,-0.85455 -11.25895,-2.2837 -11.25895,-2.2837c0,0 -5.3678,1.67656 -8.15937,2.29883c-2.1981,0.48998 -7.23918,1.13367 -7.23918,1.13367c0,0 -0.18824,-0.8369 -0.72599,-1.25644c-0.59674,-0.46556 -2.69588,-1.41327 -2.69588,-1.41327c0,0 -7.35537,3.49771 -13.05532,4.70581c-5.89021,1.24842 -21.73395,2.66769 -21.73395,2.66769c0,0 -3.97092,-2.70533 -8.0809,-3.73142c-5.15606,-1.28726 -20.43486,-3.38782 -20.43486,-3.38782l-15.3985,3.17824c0,0 -1.6333,-1.81483 -10.88557,-2.93121c-9.13603,-1.10236 -25.8661,-1.50221 -29.96917,-2.15848c-4.62387,-0.73958 -5.85499,-1.79199 -5.85499,-1.79199c0,0 -6.73445,1.72291 -10.96443,2.55357c-3.67658,0.72198 -11.33404,1.65839 -11.33404,1.65839c0,0 0.99264,-0.82458 1.2802,-1.20912c0.28271,-0.37813 0.43076,-1.07921 0.43076,-1.07921c0,0 -5.0627,0.45631 -8.31826,0.68178c-4.3674,0.30248 -15.54465,0.9709 -15.54465,0.9709c0,0 5.03157,-1.43172 7.54795,-2.23622c2.82427,-0.90294 8.58088,-2.92028 8.58088,-2.92028c0,0 -38.74314,5.70044 -55.96151,7.63379c-33.72759,3.78708 -51.50811,2.09937 -51.50811,2.09937l24.61407,-2.63916c0,0 -21.99814,0.71493 -34.97661,-0.3248c-21.58066,-0.86044 -21.5751,-3.13826 -21.5751,-3.13826c0,0 13.55126,-0.25293 18.92605,-0.43726c4.23793,-0.14534 10.73035,-0.57977 10.73035,-0.57977c0,0 -4.94624,-0.18836 -7.62678,-0.36762c-2.98895,-0.19988 -9.48268,-0.77655 -9.48268,-0.77655c0,0 7.34662,-0.3277 10.05344,-0.53656c2.05257,-0.15838 4.77478,-0.6076 4.77478,-0.6076c0,0 -13.82446,-2.801 -16.38118,-5.46171c-0.85115,-0.88575 -1.29568,-1.78806 -1.43062,-2.685c3.17571,1.60842 7.58317,3.07358 12.66103,4.48826c3.21842,0.9532 9.78612,1.76405 15.03481,2.00083c1.02341,0.04617 9.3048,0.63327 8.89513,0.8462c-0.52685,0.27384 -2.31003,0.30066 -3.42168,0.46611c-1.40608,0.15937 -8.01132,0.73502 -7.54948,1.23706c0.25616,0.27844 8.86718,0.80591 11.65166,0.91085c-0.97088,0.06607 -2.42335,0.2213 -2.50764,0.23069c-2.29769,0.25609 -3.92745,0.34983 -5.25394,0.67622l-0.34175,-0.05714l-0.91086,0.27072c-0.14495,0.04212 -0.23112,0.09483 -0.23112,0.15202c0,0.13807 0.50213,0.25 1.12153,0.25h1.154c3.61306,0.13359 7.72937,0.13526 11.38725,0.13637c9.4397,0 18.91946,-0.08919 28.02804,-0.67224c-2.10829,0.49089 -4.12488,1.02521 -5.3089,1.63127c-0.0358,0.00401 -0.07164,0.00801 -0.10762,0.01202l-1.24803,0.1391c-0.37934,0.04009 -0.64169,0.12623 -0.64169,0.22603c0,0.13807 0.50213,0.25 1.12153,0.25c0.18837,0 0.36589,-0.01035 0.52173,-0.02864l1.2496,-0.13927c1.59261,-0.1775 3.0191,-0.35253 4.5092,-0.57395c8.73247,-0.99175 24.36787,-2.72222 29.00637,-4.63268c4.55882,-2.34027 14.55713,-3.25835 25.66207,-3.25835c10.01163,0 15.66224,-0.46706 24.05367,-1.59052c0.39415,-0.05277 0.89143,-0.1131 1.42034,-0.18001c-0.5709,0.83166 -0.70019,2.09064 0.60154,2.29929c1.42434,0.2283 8.6645,-0.80672 9.15887,-0.5058c0.31317,0.19062 -0.27993,0.27683 -0.45888,0.40082c-0.04365,0.00952 -0.08708,0.01908 -0.13019,0.02869l0.01916,0.04758l-0.11404,-0.01271l-0.62478,0.27855c-0.08205,0.03474 -0.12848,0.07431 -0.12848,0.1163c0,0.13807 0.50213,0.25 1.12153,0.25c0.44771,0 0.83415,-0.05848 1.01399,-0.14304l0.5617,-0.25041c2.55941,-0.55504 5.93215,-0.95363 7.58766,-1.69169c1.78327,-0.39045 7.0116,-2.10716 9.24832,-2.16054c1.53591,-0.03666 11.5614,2.85221 13.89135,3.19836c7.84543,1.76019 18.42845,1.33168 25.97699,2.85537l0.38527,0.17176c0.17985,0.08456 0.56628,0.14304 1.01399,0.14304c0.44771,0 0.83415,-0.05848 1.01399,-0.14304l0.62402,-0.2782c7.46864,-3.32967 7.9155,-1.38568 20.0814,-0.02972c5.49238,0.61216 12.74546,0.99343 17.62257,1.819c3.45434,0.58473 5.21038,1.3604 8.90926,1.74546c6.11761,-0.57993 8.71434,-1.47913 9.84242,-2.8075c0.02248,-0.02648 4.70076,0.51157 5.13717,0.53645c3.65833,0.20853 4.97423,0.50557 7.06319,-0.46892c0.01489,-0.16917 0.37742,-0.94177 -0.08263,-1.37959c1.67906,0.21142 4.2072,0.48761 5.31913,0.67582c4.27171,0.72308 8.644,1.17932 13.48679,1.71907c3.57569,0.39666 8.59308,0.87117 12.48486,0.8749c2.42043,0.00232 5.15103,-0.55248 7.44047,-0.43063c4.38638,0.23345 6.51238,0.81732 10.87108,1.13564c5.24322,0.00812 8.32679,-1.24089 13.25459,-0.99412c2.29312,0.11483 4.74984,0.77599 4.09823,1.27796z" fill-opacity="0.06275" fill="#000000" stroke-linecap="butt"/><path d="M494.65871,121.00713c0,0 0.10506,0.20764 0.10776,0.56668c-0.06294,0.01486 -0.13028,0.02938 -0.20223,0.04353c0,0 -0.79305,0.17678 0,0.35356c0.05312,0.01184 0.10619,0.02208 0.15903,0.03091c-0.24633,1.202 -1.69723,3.31312 -8.10988,5.31523c-3.1134,0.97203 -13.13378,1.51925 -13.13378,1.51925c0,0 -0.40936,-1.91275 -1.13436,-2.62842c-0.56601,-0.55878 -2.85787,-1.31258 -2.85787,-1.31258l-9.69536,2.66971c0,0 -3.90291,-2.04659 -6.99114,-2.92861c-2.99205,-0.85455 -11.25895,-2.2837 -11.25895,-2.2837c0,0 -5.3678,1.67656 -8.15937,2.29883c-2.1981,0.48998 -7.23918,1.13367 -7.23918,1.13367c0,0 -0.18824,-0.8369 -0.72599,-1.25644c-0.59674,-0.46556 -2.69588,-1.41327 -2.69588,-1.41327c0,0 -7.35537,3.49771 -13.05532,4.70581c-5.89021,1.24842 -21.73395,2.66769 -21.73395,2.66769c0,0 -3.97092,-2.70533 -8.0809,-3.73142c-5.15606,-1.28726 -20.43486,-3.38782 -20.43486,-3.38782l-15.3985,3.17824c0,0 -1.6333,-1.81483 -10.88557,-2.93121c-9.13603,-1.10236 -25.8661,-1.50221 -29.96917,-2.15848c-4.62387,-0.73958 -5.85499,-1.79199 -5.85499,-1.79199c0,0 -6.73445,1.72291 -10.96443,2.55357c-3.67658,0.72198 -11.33404,1.65839 -11.33404,1.65839c0,0 0.99264,-0.82458 1.2802,-1.20912c0.28271,-0.37813 0.43076,-1.07921 0.43076,-1.07921c0,0 -5.0627,0.45631 -8.31826,0.68178c-4.3674,0.30248 -15.54465,0.9709 -15.54465,0.9709c0,0 5.03157,-1.43172 7.54795,-2.23622c2.82427,-0.90294 8.58088,-2.92028 8.58088,-2.92028c0,0 -38.74314,5.70044 -55.96151,7.63379c-33.72759,3.78708 -51.50811,2.09937 -51.50811,2.09937l24.61407,-2.63916c0,0 -21.99814,0.71493 -34.97661,-0.3248c-21.58066,-0.86044 -21.5751,-3.13826 -21.5751,-3.13826c0,0 13.55126,-0.25293 18.92605,-0.43726c4.23793,-0.14534 10.73035,-0.57977 10.73035,-0.57977c0,0 -4.94624,-0.18836 -7.62678,-0.36762c-2.98895,-0.19988 -9.48268,-0.77655 -9.48268,-0.77655c0,0 7.34662,-0.3277 10.05344,-0.53656c2.05257,-0.15838 4.77478,-0.6076 4.77478,-0.6076c0,0 -6.77042,-1.37177 -11.71146,-3.10724c4.59081,0.8203 10.13226,1.45978 14.89291,1.99369c1.02521,0.11284 5.87966,0.54173 7.95094,0.48105c-1.09784,0.13453 -2.93369,0.37459 -3.22071,0.42328c-2.55596,0.43363 -5.56344,0.61579 -8.43934,0.93769l-1.54667,0.11492c-0.4583,0.03142 -0.79139,0.12653 -0.79139,0.23899c0,0.0998 0.26235,0.18594 0.64169,0.22603l1.0637,0.11856l0.33498,-0.14933l0.02431,-0.00181c3.27535,0.13395 8.06597,-0.22692 8.95717,0.4219c1.41707,1.03166 -13.17164,1.66979 -15.46453,1.79804c-1.79381,0.00145 -3.20954,0.12215 -5.0051,0.12579l-0.203,0.03794l-0.04091,-0.01823l-1.0637,0.11856c-0.37934,0.04009 -0.64169,0.12623 -0.64169,0.22603c0,0.0998 0.26235,0.18594 0.64169,0.22603l1.0637,0.11856l0.08349,-0.03723c8.84502,1.31423 22.29153,0.60129 31.85262,1.27321c4.63854,-0.24203 9.30965,-0.20188 13.92454,-0.4937c0.63972,-0.04045 7.4066,-0.55576 7.2512,-0.34329c-0.46095,0.63031 -3.00026,1.15252 -4.22618,1.68514c-0.97985,0.43684 -2.28378,0.78724 -3.25628,1.20977l-0.53263,0.23746c-0.08205,0.03474 -0.12848,0.07431 -0.12848,0.1163c0,0.13807 0.50213,0.25 1.12153,0.25c0.18837,0 0.36589,-0.01035 0.52173,-0.02864l1.06527,-0.11873l-0.05437,-0.02424c8.61973,-0.45426 18.36771,-1.8959 26.1048,-2.75824c9.79993,-1.09226 15.83432,-2.95712 24.63175,-4.26448c8.08319,-1.82415 17.82364,-2.19869 28.40765,-2.9806c0.80956,-0.06015 7.77329,-0.58671 9.98072,-0.90282c-0.60105,0.26199 -1.40213,0.72139 -1.56955,0.79581c-1.58166,0.70302 -3.44003,1.26709 -5.39409,1.92196l-0.01086,0.01616l-0.02225,-0.00248l-0.53263,0.23746c-0.08205,0.03474 -0.12848,0.07431 -0.12848,0.1163c0,0.13807 0.50213,0.25 1.12153,0.25c0.18837,0 0.36589,-0.01035 0.52173,-0.02864l1.06527,-0.11873l-0.10506,-0.04684c4.05292,-0.29495 7.50404,-0.96422 10.95125,-1.5404c-1.23803,0.50663 -2.44928,1.22683 -2.14319,1.40367c1.22448,0.7074 14.91875,-0.69504 17.89012,-1.02621c4.39216,-0.48953 6.3656,-1.21891 9.09535,-1.95919c1.95186,1.3577 20.70874,2.1363 23.79388,2.4628c9.50111,0.02616 18.09334,0.81225 13.36522,2.91128l-0.53263,0.23746c-0.08205,0.03474 -0.12848,0.07431 -0.12848,0.1163c0,0.13807 0.50213,0.25 1.12153,0.25c0.13319,0 0.26096,-0.00518 0.37948,-0.01467l1.60333,-0.11913l-0.04369,-0.02921c6.2748,-0.23439 11.45198,-0.87727 14.57166,-2.18822c4.58825,1.0459 21.84171,2.16622 25.57082,3.00387c0.89538,0.19625 5.76666,0.85065 5.64141,1.15398c-0.1528,0.37002 -1.58633,0.6932 -1.59826,1.13744l-0.44408,0.19799c-0.08205,0.03474 -0.12848,0.07431 -0.12848,0.1163c0,0.13807 0.50213,0.25 1.12153,0.25c0.18837,0 0.36589,-0.01035 0.52173,-0.02864l1.00888,-0.11244c13.06734,-0.40995 15.5966,-1.0385 21.26959,-3.6808c-1.01372,-0.8273 6.94206,0.88469 7.16278,0.8994c4.33295,0.28878 5.96616,-1.1378 6.3442,-1.95399c1.47104,0.23158 3.7266,0.43383 4.51015,0.50226c5.14085,0.449 16.58978,-0.00948 19.47358,1.31643c0.51478,0.27916 -0.86972,0.87378 0.44655,1.08481c2.47368,0.3966 6.9662,-1.73358 9.46114,-1.5482c0.19452,0.01445 2.51984,0.92153 3.56407,1.06429c1.57435,0.21525 3.21671,0.13904 4.02152,0.5384c3.07773,0.68606 2.55587,0.88586 2.51684,1.7389l-0.50011,0.33443l0.48486,0.03603l-0.0105,0.25569c0.33543,-0.03776 0.66789,-0.07842 0.99726,-0.1218l0.3854,0.08591l1.08541,-0.24195l-0.1536,-0.03424c6.66074,-1.04726 11.92648,-3.17208 14.79184,-4.86637c1.33663,0.26715 2.25996,0.66766 1.83002,0.99888z" fill-opacity="0.06275" fill="#000000" stroke-linecap="butt"/><path d="M534.17637,107.0161c0,0 0.23494,1.89198 -3.23416,4.07471c-2.06316,1.98551 -8.58828,3.79981 -8.58828,3.79981c0,0 2.78578,1.60552 6.18499,2.41213c4.41702,1.04812 27.40694,4.74729 27.40694,4.74729c0,0 -7.07077,2.21398 -22.6353,3.48138c-12.36078,1.00653 -20.13874,1.05271 -23.90118,0.97548c4.93242,-0.59703 11.45894,-1.22219 15.49818,-1.98897c6.18885,-1.17485 8.82479,-2.42736 8.82479,-2.42736c0,0 -10.91778,-2.33063 -15.59481,-3.56491c-4.40531,-1.16257 -11.70105,-3.6385 -11.70105,-3.6385c0,0 20.8226,-3.41986 19.26291,-6.32945c5.44397,-0.63862 8.47698,-1.54162 8.47698,-1.54162z" fill-opacity="0.06275" fill="#000000" stroke-linecap="butt"/><path d="M534.17637,106.96252c0,0 0.23494,1.89198 -3.23416,4.07471c-2.06316,1.98551 -8.58828,3.79981 -8.58828,3.79981c0,0 2.78578,1.60552 6.18499,2.41213c4.41702,1.04812 27.40694,4.74729 27.40694,4.74729c0,0 -7.07077,2.21398 -22.6353,3.48138c-8.93649,0.72769 -15.47763,0.95342 -19.83772,0.99345c6.48771,-0.4231 16.65304,-1.60964 21.36443,-2.35238c5.06167,-0.79796 12.48697,-2.22071 12.48697,-2.22071c0,0 -7.7985,-0.69359 -11.97888,-1.4171c-4.18037,-0.7235 -10.87557,-1.99673 -17.44317,-3.46072c-1.78695,-0.53111 -7.46703,-1.93674 -7.46703,-1.93674c0,0 8.49313,-1.24167 12.32372,-2.37571c5.53145,-1.64436 7.50265,-3.00661 7.81385,-4.93442c2.34717,-0.43691 3.60364,-0.811 3.60364,-0.811z" fill-opacity="0.06275" fill="#000000" stroke-linecap="butt"/></g><g stroke-linecap="butt"><path d="M412.00328,124.04245c0,0 6.98513,0.00757 19.69735,0.13998c11.61115,0.12095 21.10477,0.45823 21.10477,0.45823l1.88497,0.60505c0,0 -34.64037,-0.90081 -68.66924,0.29047c-27.20865,0.95253 -41.36616,2.5662 -41.36616,2.5662l-3.46255,-2.23844c0,0 12.26451,-1.24477 32.96858,-1.83068c21.43894,-0.60669 36.11433,-0.54646 36.11433,-0.54646z" data-paper-data="{&quot;index&quot;:null}" fill="#000000" stroke="none" stroke-width="1.5"/><path d="M231.2964,124.36049c0,0 16.63487,-0.52109 37.43835,-0.15484c23.05295,0.40585 33.89864,0.98317 33.89864,0.98317l-3.17697,2.22858c0,0 -15.96805,-0.86301 -34.35263,-1.32681c-24.58706,-0.62027 -30.48077,-0.11257 -49.49426,-0.42748c-16.29181,-0.26984 -29.5089,-0.79904 -29.5089,-0.79904l1.21542,-0.65524c0,0 15.57556,0.51041 22.86418,0.64984c6.01573,0.11509 18.32402,0.02462 18.32402,0.02462z" fill="#000000" stroke="none" stroke-width="1.5"/><path d="M215.96492,131.62026c0.33924,-2.84387 23.14101,-5.19496 48.83942,-5.14968c25.69836,0.04529 43.17594,2.46979 42.83675,5.31367c-0.33924,2.84387 -19.72216,5.11258 -45.42056,5.0673c-25.69836,-0.04529 -46.59484,-2.38741 -46.25561,-5.23129z" fill="#ffffff" stroke="#000000" stroke-width="1.4"/><path d="M342.99929,131.56326c0.99363,-2.77247 21.73839,-5.02434 47.70085,-5.02434c25.96241,0 45.27952,2.24947 45.27952,5.02434c0,2.77487 -18.97123,5.14491 -47.35497,5.18509c-26.99803,0.03822 -46.66308,-2.28966 -45.6254,-5.18509z" fill="#ffffff" stroke="#000000" stroke-width="1.4"/><path d="M232.70369,132.00625c0.21816,-1.62869 12.59643,-2.92985 27.64753,-2.90624c15.05118,0.02362 27.0755,1.36307 26.8573,2.99175c-0.21816,1.62869 -12.59634,2.92985 -27.64748,2.90624c-15.05118,-0.02362 -27.0755,-1.36306 -26.85735,-2.99175z" fill="#000000" stroke="none" stroke-width="1.5"/><path d="M361.8585,132.06618c0,-1.64876 12.83743,-2.98534 28.67327,-2.98534c15.83585,0 28.67327,1.33658 28.67327,2.98534c0,1.64876 -12.83738,2.98534 -28.67323,2.98534c-15.83585,0 -28.67323,-1.33658 -28.67323,-2.98534z" fill="#000000" stroke="none" stroke-width="1.5"/><path d="M218.37315,129.66459c4.34353,-1.52641 15.83742,-3.55323 46.2495,-3.48402c27.09668,0.05982 37.53256,2.15038 41.5509,3.7289c0.64999,0.25534 -21.79348,-1.96176 -44.89111,-2.04614c-21.3306,-0.07793 -43.4578,1.99401 -42.90929,1.80126z" fill="#ffffff" stroke="#000000" stroke-width="1.15"/><path d="M346.88528,129.77331c3.93454,-1.56648 15.38172,-3.73045 48.63207,-3.60121c28.01584,0.12051 37.87247,2.31018 41.33695,3.88319c0.02965,0.01349 -22.52947,-2.23296 -45.34448,-2.30437c-22.19324,-0.06947 -44.65968,2.03641 -44.62446,2.02239z" fill="#ffffff" stroke="#000000" stroke-width="1.15"/><path d="M439.86605,146.29537c0,2.14568 -56.87466,12.1324 -118.04054,12.1324c-61.16588,0 -101.21766,-11.89519 -101.21766,-14.04087c0,-2.14568 35.56568,3.33982 96.73156,3.33982c61.16588,0 122.52664,-3.57703 122.52664,-1.43135z" fill="#000000" stroke="#000000" stroke-width="0"/><path d="M417.51504,145.97779c0,0.0584 -10.70653,1.88862 -21.25456,2.96482c-7.46424,0.76157 -14.00915,0.70317 -20.3416,1.3299c-15.92297,1.57591 -20.92353,1.98643 -25.33418,2.21518c-9.52444,0.49397 -19.4394,0.37422 -26.43668,0.37422c-37.62861,0 -66.45037,-4.39162 -66.45037,-5.52092c0,-1.12931 28.82176,-0.27264 66.45037,-0.27264c37.62861,0 93.36698,-2.21986 93.36698,-1.09055z" fill="#ffffff" stroke="#000000" stroke-width="0.5"/><path d="M385.88448,143.79031c23.83403,-0.31751 59.89116,0.84844 59.84594,0.89565c-0.04773,0.04982 -12.31,1.77101 -30.63478,2.72494c-24.3257,1.26632 -57.19774,1.85596 -65.4995,1.98201c-12.1978,0.1852 -47.65527,0.43443 -66.93954,-0.31988c-12.68432,-0.49615 -25.12149,-1.57216 -37.07646,-2.42027c-20.54123,-1.45726 -31.09039,-4.3246 -31.10977,-4.34527c-0.01032,-0.01098 7.96525,0.39874 19.45698,0.99409c10.60963,0.54965 24.21642,0.37144 37.30287,1.05253c23.26075,1.21061 44.87765,3.2227 45.09815,3.22525c0,0 5.31316,-0.95386 10.62695,-1.14759c2.67569,-0.09755 47.86082,-2.49402 58.92916,-2.64147z" fill="#fefefe" stroke="#000000" stroke-width="1.4"/><path d="M330.31649,158.92811c-5.4075,0 -12.12651,-0.09278 -19.32437,-0.26306c-22.80101,-0.53939 -50.40686,-1.85642 -56.34821,-3.46511c-0.8341,-0.22584 13.34162,-2.45978 22.52409,-3.79651c0.51868,-0.0755 14.60325,1.58954 27.15374,2.40277c6.16202,0.39928 12.80544,0.23112 15.63451,0.25588c20.89505,0.18282 39.19058,-2.04534 46.06212,-2.04534c22.31705,0 24.6548,2.34181 11.73945,4.31295c-9.57805,1.4618 -30.89098,2.59843 -47.44137,2.59843z" fill="#ffffff" stroke="none" stroke-width="0"/><path d="M445.88133,144.7558c0.03535,0.03619 1.78798,4.02474 -4.95512,7.42144c-2.51415,1.26643 -5.75176,4.23798 -25.28533,5.97543c-21.62009,1.92303 -60.51131,2.55921 -81.42139,2.63351c-40.70688,0.14463 -81.66875,-1.58631 -85.99712,-2.28304c-4.5477,-0.73204 -10.11288,-3.67152 -17.76267,-6.79091c-11.11091,-4.53075 -24.13078,-9.5419 -24.09799,-9.55971c0.04908,-0.02666 23.19045,3.34029 40.37504,6.60109c13.46571,2.55514 21.32585,5.09771 24.55409,5.54004c1.62621,0.22282 13.30721,1.37717 25.74838,1.6952c10.04752,0.25685 47.87836,1.2434 74.59197,-0.80315c41.90503,-3.21038 74.1719,-10.51 74.25013,-10.4299z" fill="#ffffff" stroke="#000000" stroke-width="1.9"/></g></g><path d="M-16.36012,62.5v-75h677v75z" fill="#ffffff" stroke="none" stroke-width="0" stroke-linecap="butt"/><text transform="translate(146.63988,46.75) scale(0.82856,1.08505)" font-size="40" xml:space="preserve" fill="#ffffff" fill-rule="nonzero" stroke="#000000" stroke-width="2" stroke-linecap="butt" stroke-linejoin="miter" stroke-miterlimit="10" stroke-dasharray="" stroke-dashoffset="0" font-family="&quot;Microsoft YaHei&quot;, &quot;&quot;, STXihei, &quot;&quot;" font-weight="normal" text-anchor="start" style="mix-blend-mode: normal"><tspan x="0" dy="0">*UNMATHS YOUR IAS*</tspan></text><path d="M-22.36012,364.5v-75h677v75z" fill="#ffffff" stroke="none" stroke-width="0" stroke-linecap="butt"/><text transform="translate(196.63988,339.75) scale(0.82856,1.08505)" font-size="40" xml:space="preserve" fill="#ffffff" fill-rule="nonzero" stroke="#000000" stroke-width="2" stroke-linecap="butt" stroke-linejoin="miter" stroke-miterlimit="10" stroke-dasharray="" stroke-dashoffset="0" font-family="&quot;Microsoft YaHei&quot;, &quot;&quot;, STXihei, &quot;&quot;" font-weight="normal" text-anchor="start" style="mix-blend-mode: normal"><tspan x="0" dy="0">BOTTOM TEXT</tspan></text></g></g></svg>