<svg version="1.1" xmlns="http://www.w3.org/2000/svg" xmlns:xlink="http://www.w3.org/1999/xlink" width="125.92269" height="197.70612" viewBox="0,0,125.92269,197.70612"><g transform="translate(-164.53949,-119.16312)"><g stroke="none" stroke-miterlimit="10"><g stroke-width="1"><path d="M259.67669,222.40367c0.74065,0.66555 1.48352,1.8899 2.2286,3.67308l5.30277,13.03472c2.09422,4.91 3.57195,8.64587 4.43317,11.2076c1.31235,3.34031 2.98079,8.47006 5.00532,15.38925l6.2744,23.73374c0.77906,4.90999 1.09444,8.4261 0.94616,10.54833c-0.05719,1.3311 -0.20553,2.32942 -0.44505,2.99497l-1.59342,3.0138c-2.12897,2.90079 -3.8385,4.96651 -5.12858,6.19715c-2.13712,2.10967 -4.44438,3.44704 -6.92178,4.01213l-5.47717,0.48975c-17.01865,0.56509 -31.41342,-0.26999 -43.1843,-2.50522c-5.46775,-1.0046 -9.85624,-2.45499 -13.16546,-4.35118c-2.08516,-1.10507 -3.7317,-2.21641 -4.93962,-3.33403c-1.79931,-1.23064 -3.65049,-2.85056 -5.55354,-4.85976c-2.57751,-2.78777 -5.04819,-7.07617 -7.41202,-12.86519c-2.4337,-5.68856 -4.2219,-10.48555 -5.3646,-14.39094c-1.8055,-5.78902 -3.66377,-15.15066 -5.57479,-28.08492c-0.56824,-4.23189 -0.87335,-7.35244 -0.91532,-9.36164c0.26628,-7.35871 0.15687,-12.99077 -0.32825,-16.89616c-0.19921,-1.44412 -0.22869,-2.49895 -0.08843,-3.1645c0.18584,-1.23064 0.75852,-1.90246 1.71802,-2.01548c0.44261,-0.059 0.9821,0.0052 1.61852,0.1926c15.54576,7.69359 31.22808,13.22408 47.27919,13.43071c7.06215,0.09091 15.50255,0.39872 21.55079,-2.25874c2.89362,-1.2714 6.1366,-2.67735 9.00906,-4.4879c0.25126,0.19431 0.49338,0.41359 0.72635,0.65786z" fill="#cccccc"/><path d="M263.28573,218.39153c1.69384,5.78902 6.48784,19.33232 14.38198,40.6299c1.36609,3.56634 2.57711,6.96315 3.63306,10.19044c0.27701,0.56509 0.52942,1.23692 0.75722,2.01549l0.39131,1.33738c3.43246,10.24694 5.93577,18.99327 7.50991,26.23896l0.27342,1.50691c0.23595,1.56969 0.29001,2.68731 0.16215,3.35286c-0.4253,1.55714 -1.51886,2.3357 -3.28069,2.3357c-1.82796,-0.22604 -3.30474,-1.11761 -4.43034,-2.67475c-0.58347,-0.89159 -0.92703,-1.89619 -1.03072,-3.01381l-1.61597,-7.17663c-0.04569,-1.68271 -0.09351,-2.96985 -0.14346,-3.86144c-0.07956,-2.56173 -0.6411,-5.62577 -1.68459,-9.19212c-0.19474,-0.66555 -1.18016,-3.8426 -2.95628,-9.53117c-1.02289,-3.11427 -2.20705,-6.39807 -3.55246,-9.85138l-13.65455,-37.63493c-3.64686,3.35286 -8.15819,5.80786 -13.53397,7.36499c-6.41388,1.78317 -15.17524,1.94642 -26.28406,0.48974c-11.17129,-1.67015 -20.24612,-4.06236 -27.22447,-7.17663c-3.93373,-1.78317 -7.54898,-3.79237 -10.84573,-6.02761c-0.20996,14.71743 1.41686,30.43319 4.88049,47.14726c0.50033,0.56509 1.02792,1.79573 1.58274,3.69191c1.23025,5.34951 2.95093,11.42107 5.16204,18.2147c0.4056,1.0046 1.02435,2.56802 1.85622,4.69024c1.61801,2.90079 2.46852,4.85349 2.55154,5.85809c0.02141,1.21808 -0.26984,2.10966 -0.87375,2.67475c-0.14025,0.66555 -0.61778,1.11134 -1.43255,1.33738c-1.04183,0.55253 -2.32614,0.10674 -3.85292,-1.33738c-0.1778,-0.22604 -0.37214,-0.50858 -0.58301,-0.84763c-0.49666,-0.55253 -0.96436,-1.21808 -1.40309,-1.99665c-0.0992,-0.33905 -0.23771,-0.6216 -0.41551,-0.84763c-1.94134,-4.00585 -3.75268,-9.24234 -5.43401,-15.70947c-2.72488,-9.69441 -4.91015,-20.17368 -6.55582,-31.43778c-1.53406,-10.92506 -2.38591,-22.12637 -2.55554,-33.60396c-0.06268,-1.00093 -0.02873,-1.84178 0.10187,-2.52254c0.00746,0.00204 0.01491,0.00407 0.02237,0.00611c1.64171,0.44836 3.22052,0.52953 4.76885,0.4507c16.5725,8.50606 33.28276,14.79041 50.41307,15.01093c7.06215,0.09091 15.50255,0.39872 21.55079,-2.25874c4.49784,-1.97625 9.83976,-4.27761 13.32219,-7.91827c0.00741,0.02534 0.01484,0.05071 0.02227,0.0761z" fill="#000000"/></g><path d="" fill="#000000" stroke-width="1"/><path d="" fill="#000000" stroke-width="1"/><path d="" fill="#000000" stroke-width="1"/><path d="" fill="#000000" stroke-width="1"/><path d="" fill="#000000" stroke-width="1"/><g stroke-width="1"><path d="" fill="#000000"/><path d="" fill="#000000"/><path d="" fill="#000000"/><path d="" fill="#000000"/><path d="" fill="#e16f6f"/><path d="" fill="#c2e16f"/><path d="" fill="#6f7ce1"/></g><path d="M260.48416,192.18253c1.60274,5.22803 2.60473,12.08085 3.00598,20.55845c0.00391,3.71927 -0.0455,5.94353 -0.14823,6.6728c-0.10125,1.48522 -0.53418,3.45153 -1.29879,5.89893c-1.89703,6.65437 -4.34845,11.58122 -7.35424,14.78056c-2.88502,3.10838 -7.90019,6.18061 -15.04554,9.21668l-4.90971,2.02546c-5.68131,1.75481 -13.03244,1.78093 -22.0534,0.07835c-1.25858,-0.17729 -3.12649,-0.54238 -5.60372,-1.09526c-2.97821,-0.74341 -7.30163,-2.15616 -12.97028,-4.23822c-1.62719,-0.5411 -3.10063,-1.06655 -4.42034,-1.57634c1.41065,0.63056 2.86919,1.26187 4.37561,1.89393l5.88351,2.43023c3.52556,1.45629 5.95723,2.33265 7.295,2.62906c1.23042,0.37726 3.19831,0.75642 5.90367,1.13751l15.82636,2.22938c1.93998,-0.14658 4.10661,-0.79505 6.49988,-1.9454c2.84654,-1.30243 4.70229,-2.00069 5.56725,-2.09477c2.42699,-0.25315 4.08023,0.36188 4.95973,1.84509c-0.17337,0.10543 -0.34111,0.20713 -0.50277,0.30432c-1.43634,0.86345 -3.00023,0.77027 -4.26472,1.70684c-0.20568,0.15234 -0.52157,0.54085 -0.88433,1.04694c-2.17276,0.41133 -4.25458,0.62379 -5.68154,0.53353c-3.11593,-0.1971 -6.36956,1.95755 -9.47143,1.68867c-5.18663,-0.4496 -10.58337,-0.63979 -15.95563,-1.0919c-5.86601,-2.86814 -12.82342,-3.39563 -18.68918,-6.29823c-1.79866,-0.89004 -4.87855,-1.11074 -6.37803,-2.50224c-4.1576,-3.85822 -8.51653,-7.30489 -12.71192,-11.04394c-0.0773,-0.171 -0.16051,-0.33903 -0.24938,-0.50378c0.58734,-0.68424 1.26266,-1.01571 2.02598,-0.9944c0.85005,0.01178 1.85217,0.47683 3.00636,1.39515c-2.55788,-2.27965 -4.60135,-4.80472 -6.13042,-7.57524c-1.25456,-2.41994 -2.3774,-5.77501 -3.36851,-10.06518l-0.70095,-4.09335c-0.03296,-0.53246 0.16431,-2.31604 0.59179,-5.35075l1.13279,-5.74238c1.29482,-6.21139 2.48019,-10.83675 3.5561,-13.87608c1.75585,-4.97086 4.08374,-9.0634 6.98367,-12.27765c0.99586,-1.02331 3.26133,-3.09736 6.79642,-6.22213c1.10337,-1.02017 4.10327,-3.79448 8.99969,-8.32293c1.25231,-1.31108 2.22,-2.13443 2.90306,-2.47007c0.34575,-0.15523 1.67136,-0.49631 3.97681,-1.02326c5.84132,-0.67664 10.20248,-1.02198 13.08345,-1.03601c7.13121,0.04488 13.88914,1.20675 20.2738,3.48564c2.21911,0.85241 4.15791,1.82127 5.81641,2.9066l2.89949,2.15383c8.7001,7.72728 14.51019,16.00114 17.43026,24.82156z" fill="#cccccc" stroke-width="1"/><path d="M238.1491,159.00471c6.55478,3.37049 12.2575,8.27638 17.10815,14.71767c4.47509,5.95653 7.88334,12.71646 10.22476,20.27978c2.38134,7.36501 3.29238,14.52291 2.73311,21.47369c-0.70911,11.08023 -4.77092,20.62656 -12.18541,28.63897c-1.49701,1.60049 -3.03793,3.08684 -4.62274,4.45905c-0.05114,0.36302 -0.10292,0.73061 -0.15534,1.10277c-2.21305,1.05015 -4.24935,2.34998 -5.75753,3.25662c-0.37797,0.22721 -0.76476,0.38819 -1.15262,0.51911l0.00916,-0.13248c-0.20831,0.1088 -0.41745,0.21588 -0.62744,0.32125c-0.87741,0.24774 -1.73896,0.43987 -2.4938,0.99896c-0.07915,0.05862 -0.17461,0.15221 -0.28279,0.27402c-1.022,0.42578 -2.06262,0.81362 -3.12182,1.16356c-1.20875,0.142 -2.30336,0.19716 -3.16127,0.14289c-3.11593,-0.1971 -6.36956,1.95755 -9.47143,1.68867c-4.49619,-0.38974 -9.15029,-0.58455 -13.80945,-0.92404c-1.11093,-0.22062 -2.24536,-0.46783 -3.40329,-0.74163c-3.81137,-1.62456 -7.99984,-2.44135 -12.00839,-3.65361c-5.7906,-2.12263 -10.56826,-4.40859 -14.33298,-6.8579c-3.37392,-2.97234 -6.82946,-5.77246 -10.18065,-8.75913c-0.10464,-0.23148 -0.22008,-0.45749 -0.34577,-0.67731c-0.15907,-1.50889 -1.29534,-3.07451 -2.72139,-4.35395c-1.19728,-2.10137 -2.13939,-4.31877 -2.82632,-6.65221c-1.46705,-5.42485 -1.3583,-13.39276 0.32625,-23.90374c1.30031,-7.6981 2.82839,-13.60673 4.58423,-17.72587c3.29132,-7.5256 8.6712,-13.95327 16.13965,-19.28301c6.50557,-4.62567 14.21478,-7.96018 23.12761,-10.00354c5.06419,-1.20597 9.25908,-1.52074 12.5847,-0.94432c1.67027,0.23528 3.51581,0.75916 5.53661,1.57164zM246.24258,173.08231c-6.2199,-6.51422 -13.47569,-10.57124 -21.76737,-12.1711c-4.96772,-1.01167 -9.81584,-0.99885 -14.54438,0.03848c-5.35195,0.94951 -10.95482,3.29717 -16.80863,7.04299c-4.55528,2.8731 -8.17544,5.87793 -10.8605,9.01448c-4.95294,5.69609 -8.50265,14.67277 -10.64912,26.93005c-1.40304,8.42737 -1.2511,15.2684 0.45585,20.52312c2.21122,6.27342 6.47501,11.55841 12.79137,15.85498c4.56692,3.09047 10.78607,5.7779 18.65744,8.06229c9.60126,2.94793 17.59542,4.02005 23.98246,3.21634c6.70147,-0.65144 12.9039,-3.08259 18.6073,-7.29345c5.70173,-4.19909 9.89632,-9.40821 12.58375,-15.62736c4.30924,-10.15324 4.41888,-21.53385 0.32894,-34.1418z" fill="#000000" stroke-width="1"/><path d="M234.79365,193.04408l1.68213,-0.57276l0.95749,-0.02707l0.49626,-0.07404c0.75909,-0.10899 1.36843,0.0788 1.82797,0.56339l0.59043,0.40706c0.27285,0.36232 0.40182,0.59642 0.3869,0.70227l0.41648,0.36456l0.09169,0.49875l-0.01767,1.27507l0.11406,0.33995l-0.08699,0.61752l0.0047,1.11628c0.15523,0.34575 0.11049,0.66334 -0.13421,0.95275l-0.22341,0.43636l-0.36232,0.27285l-0.20353,0.29522l-0.70451,0.53054l-0.70227,0.3869l-0.66226,0.2306l-3.14057,-0.4424l-0.59516,-0.24578l-0.27285,-0.36232c-0.10586,-0.01491 -0.29522,-0.20353 -0.56806,-0.56585l-0.53054,-0.70451l-0.16349,-1.13865l-0.15879,-0.02237l0.42003,-2.98178l0.2259,-0.45401z" fill="#000000" stroke-width="1"/><path d="M200.16046,184.96258l1.2527,0.17646l0.59516,0.24578l0.59043,0.40706c0.35369,0.46968 0.58347,0.71197 0.68934,0.72688l0.22811,0.67991l0.15879,0.02237c-0.12078,0.09095 -0.08938,0.25132 0.09417,0.4811l-0.04474,0.31758l0.06932,0.65754l-0.24578,0.59516l-0.0671,0.47638l-0.22341,0.43636l-0.15879,-0.02237l-0.27063,0.77159l-0.15879,-0.02237l-0.40457,0.57279l-0.43415,0.9105l-0.33747,0.09641l-0.72464,0.5457l-2.13838,0.49051l-1.2527,-0.17646c-0.62341,-0.08782 -1.07983,-0.25408 -1.36924,-0.49877l-0.57279,-0.40457c-0.27285,-0.36232 -0.46221,-0.55094 -0.56806,-0.56585l-0.11406,-0.33995l0.04225,-0.29994l-0.2552,-0.35984l0.13173,-0.93512l-0.11406,-0.33995c0.1506,-0.30267 0.23998,-0.55399 0.26815,-0.75396l0.08947,-0.63517l0.59046,-0.8705c0.42345,0.05965 0.66499,-0.12225 0.72464,-0.5457l0.15879,0.02237c0.3489,-0.26274 0.53826,-0.49998 0.56809,-0.71171l0.52111,-0.25048l2.18311,-0.80809z" fill="#000000" stroke-width="1"/><g stroke-width="1"><path d="M186.27852,175.8276l-0.33995,0.11406c-0.09095,-0.12078 -0.12151,-0.28703 -0.09169,-0.49875c0.07604,0.22663 0.21992,0.35487 0.43164,0.38469M230.42938,158.24117c-0.19368,0.60849 -0.60066,1.24093 -1.22094,1.89729l0.13642,0.18116c-0.22663,0.07604 -0.46819,0.25794 -0.72464,0.5457c-1.37937,0.76536 -2.54544,1.50679 -3.49822,2.22429c-0.6814,0.32387 -1.31658,0.66025 -1.90554,1.00914c-0.10586,-0.01491 -0.20585,-0.029 -0.29994,-0.04225l-1.17617,0.30215l-1.86801,0.87046l-0.35984,0.2552l-0.49875,0.09169l-4.08865,1.81722l-2.91718,0.39879c-0.23989,0.17014 -0.3822,0.41399 -0.42694,0.73159c-0.3325,0.06113 -0.66657,0.17601 -1.00222,0.34465l-0.43164,-0.38469l-1.75145,-0.08477l-1.13865,0.16349l-0.17867,0.11878l-0.31758,-0.04474l-6.7059,2.25827l-0.04474,0.31758c-0.01491,0.10586 -0.03645,0.25878 -0.06462,0.45873c-0.41169,-0.05799 -0.84417,-0.01095 -1.29744,0.14112l-0.16351,0.13891l-0.31758,-0.04474c-0.75909,0.10899 -1.41821,0.23208 -1.97734,0.36923l-1.47611,0.2599c-0.63832,0.01805 -1.20881,-0.06231 -1.71143,-0.24108l-2.25019,0.00691c0.24154,-0.1819 0.52857,-0.30341 0.86107,-0.36454c-0.85005,-0.01178 -1.57932,-0.11451 -2.18781,-0.30819c-0.71287,-0.30435 -1.32881,-0.87095 -1.84783,-1.6998c-0.44465,-0.59046 -0.83478,-1.22721 -1.17041,-1.91026c-0.67276,-1.27036 -1.05932,-2.65635 -1.15968,-4.15797c-0.09408,-0.86496 -0.11011,-3.05046 -0.04808,-6.5565c0.01491,-0.10586 0.02982,-0.21172 0.04474,-0.31758c0.01491,-0.10586 -0.03056,-0.16625 -0.13642,-0.18116c-0.01568,-2.86922 -0.04231,-5.32011 -0.07988,-7.3527l0.48954,-12.54466l1.89393,-4.37561l1.2162,-1.73602l1.83287,-8.54076c0.36066,-0.26108 0.6163,-0.54296 0.76689,-0.84564c0.12078,-0.09095 0.2423,-0.22978 0.36456,-0.41648c0.12078,-0.09095 0.30194,-0.22738 0.54348,-0.40927c0.1506,-0.30267 0.45328,-0.57792 0.90805,-0.82576l0.33995,-0.11406l0.15879,0.02237c0.36232,-0.27285 0.70385,-0.44067 1.02459,-0.50344l4.03564,2.00798c-0.01491,0.10586 0.03056,0.16625 0.13642,0.18116l-0.02237,0.15879c-0.01491,0.10586 0.03056,0.16625 0.13642,0.18116l0.15879,0.02237l2.26431,2.06436c0.18505,0.13403 0.48184,0.2838 0.89038,0.44931l0.11406,0.33995l1.53497,1.49378l6.02933,4.84393c0.73241,0.84691 1.45736,1.74676 2.17484,2.69952c2.30307,2.55565 5.62863,6.53888 9.97667,11.94971c4.31673,4.8666 6.61898,7.42813 6.90674,7.68459c1.2993,2.10236 1.8082,3.76949 1.5267,5.0014M205.02889,133.41249c-2.30307,-2.55565 -4.55166,-4.73175 -6.74573,-6.5283c-0.66647,-0.6337 -1.39573,-1.16228 -2.18779,-1.58574c-0.15209,0.39843 -0.31835,0.85484 -0.49877,1.36924l-0.35984,0.2552c-0.10586,-0.01491 -0.33995,0.11406 -0.70227,0.3869l-0.32231,0.11654c-0.68856,1.82234 -1.40023,3.85136 -2.13501,6.08704c0.10586,0.01491 0.15134,0.0753 0.13642,0.18116c-0.56778,1.73139 -1.03716,3.53063 -1.40812,5.3977c-0.14581,1.03509 -0.26464,3.41153 -0.35649,7.12929l0.18923,6.57639l0.18454,5.46011c0.06739,1.82086 0.21912,3.3837 0.45517,4.68852c0.09721,1.60914 0.29285,2.86027 0.58689,3.7534l0.40927,0.54348c0.21172,0.02982 0.53834,-0.03213 0.97985,-0.18586c3.0881,-1.48433 6.89717,-2.80712 11.42723,-3.96837l2.96192,-0.71637l8.93124,-2.08874c3.27628,-0.60611 5.73896,-1.48279 7.38804,-2.63001c0.34741,-0.16698 0.59642,-0.40182 0.74701,-0.70449c0.04308,-0.30582 -0.0718,-0.63989 -0.34465,-1.00222c-1.93762,-2.08431 -3.64629,-3.92045 -5.12601,-5.50842c-2.65196,-3.14461 -4.70289,-5.61676 -6.15279,-7.41644c-0.73241,-0.84691 -1.30602,-1.67145 -1.72083,-2.47363c-1.64671,-1.93538 -3.11815,-3.58215 -4.41431,-4.94032c-0.61163,-0.93786 -1.25225,-1.66988 -1.92188,-2.19606M204.6083,165.77798c0.45162,-0.14032 0.85112,-0.29396 1.19853,-0.46095c-0.3325,0.06113 -0.67245,0.17518 -1.01986,0.34217c-2.049,0.23919 -3.46712,0.51326 -4.25439,0.82221c-0.57405,0.24302 -0.97439,0.40256 -1.20102,0.47859c1.75809,-0.38812 3.51699,-0.78214 5.27673,-1.18203z" fill="#000000"/><path d="M195.5966,126.66769c0.18043,-0.5144 0.34669,-0.97081 0.49877,-1.36924c0.79206,0.42346 1.52131,0.95204 2.18779,1.58574l-6.06957,6.81035c0.01491,-0.10586 -0.03056,-0.16625 -0.13642,-0.18116c0.73478,-2.23568 1.44645,-4.2647 2.13501,-6.08704l0.32231,-0.11654c0.36232,-0.27285 0.59642,-0.40182 0.70227,-0.3869l0.35984,-0.2552M211.36509,140.54888l-20.08718,22.39768c-0.23605,-1.30481 -0.38778,-2.86765 -0.45517,-4.68852l-0.18454,-5.46011l16.31256,-17.18937c1.29616,1.35818 2.7676,3.00495 4.41431,4.94032M223.96235,157.65407c-1.64909,1.14723 -4.11177,2.02389 -7.38804,2.63001l-8.93124,2.08874l11.59563,-11.93388c1.47972,1.58797 3.18839,3.4241 5.12601,5.50842c0.27285,0.36232 0.38773,0.69639 0.34465,1.00222c-0.1506,0.30267 -0.3996,0.53751 -0.74701,0.70449z" fill="#e16f6f"/><path d="M219.23871,150.43894l-11.59563,11.93388l-2.96192,0.71637c-4.53007,1.16124 -8.33915,2.48403 -11.42723,3.96837c-0.44151,0.15373 -0.76812,0.21568 -0.97985,0.18586l-0.40927,-0.54348c-0.29404,-0.89313 -0.48968,-2.14426 -0.58689,-3.7534l20.08718,-22.39768c0.41482,0.80217 0.98844,1.62672 1.72083,2.47363c1.4499,1.79969 3.50083,4.27184 6.15279,7.41644z" fill="#c2e16f"/><path d="M190.63821,152.79793l-0.18923,-6.57639c0.09185,-3.71776 0.21069,-6.0942 0.35649,-7.12929c0.37097,-1.86708 0.84034,-3.66632 1.40812,-5.3977l6.06957,-6.81035c2.19408,1.79655 4.44266,3.97265 6.74573,6.5283c0.66962,0.52618 1.31025,1.25819 1.92188,2.19606z" fill="#6f7ce1"/></g><path d="M185.69072,215.53578c1.41056,1.27947 2.09259,4.10761 3.20607,5.73966c2.0911,3.06497 6.27813,5.93399 9.57297,7.65539c3.84957,2.01121 8.84459,4.82002 13.37178,5.03448c2.40738,0.11403 5.6265,-1.42797 7.85649,-0.90711c1.12765,0.26339 2.20325,1.84309 1.97545,2.99374c-0.60407,3.05132 -6.46097,4.32782 -8.82149,4.61728c-8.38396,1.02808 -20.70795,6.99829 -28.1325,1.31157c-5.61868,-4.30355 -2.60966,-18.0055 -3.06094,-23.72603c-0.13136,-0.36825 -0.178,-0.77282 -0.11968,-1.18682c0.19259,-1.36721 1.45707,-2.31943 2.82428,-2.12684c0.22007,0.031 0.42938,0.08977 0.6249,0.17227c0.25597,0.09399 0.49482,0.23387 0.70268,0.42241z" fill="#ffffff" stroke-width="0.5"/><path d="M189.43599,214.59908c1.56978,4.69558 3.55012,8.00948 5.94101,9.94172c2.93974,2.54937 8.1991,4.5138 15.77809,5.89331c2.58144,0.57955 5.23072,1.06071 7.94784,1.44346c1.45854,0.20546 3.08333,0.38036 4.87438,0.52469c0.86496,-0.09408 2.18393,-0.38812 3.95693,-0.88211c2.28739,-0.31356 4.21173,-0.73225 5.77299,-1.25607c0.02982,-0.21172 0.10512,-0.36306 0.2259,-0.45401l3.08644,-1.47257c0.35056,-0.27451 0.96421,-0.88383 1.84094,-1.82795l1.46447,-2.34882c0.96769,-0.82335 1.55814,-1.26799 1.77135,-1.33393c0.52784,-0.68138 1.41947,-1.30552 2.67492,-1.87242c1.00214,-0.38665 1.88117,-0.58072 2.63712,-0.5822c1.48836,-0.00626 2.53091,0.51246 3.12763,1.55619c0.61163,0.93786 0.4626,1.61263 -0.4471,2.0243c-0.04308,0.30582 -0.1854,0.54968 -0.42694,0.73159c-2.79406,3.22916 -5.17443,5.39498 -7.14111,6.49746c-2.94927,2.0317 -7.54727,3.67521 -13.79399,4.93053l-3.23229,0.33641c-0.98573,0.18503 -3.2018,0.03481 -6.64819,-0.45067c-7.21037,-1.01569 -12.74617,-2.16736 -16.60738,-3.45502c-6.21602,-1.94325 -10.75587,-4.50209 -13.61955,-7.67652c-1.29616,-1.35818 -2.26654,-2.77243 -2.91113,-4.24275c-0.75044,-1.48524 -1.46518,-3.60721 -2.14421,-6.36595l-0.11878,-0.17867c0.02982,-0.21172 -0.16698,-0.34741 -0.59043,-0.40706l-0.34465,-1.00222l-0.73159,-0.42694c0.01491,-0.10586 -0.0835,-0.1737 -0.29522,-0.20353l-0.89038,-0.44931l-0.98455,-0.93042l-0.2306,-0.66226l0.57882,-2.95941l0.40706,-0.59043l0.54572,-0.5529l0.47638,0.0671c1.04372,-0.59672 2.17408,-0.7014 3.39108,-0.31405c0.52931,0.07456 0.97827,0.29375 1.34688,0.65756c0.80531,0.32936 1.33187,1.14728 1.57969,2.45375l0.83267,3.15824l0.98455,0.93042l0.02458,0.97512z" fill="#000000" stroke-width="1"/><path d="M246.00106,223.30872c0.65431,0.80934 1.98284,1.41787 2.14969,2.375c0.01749,0.10031 0.02222,0.20446 0.01207,0.31306c-0.35206,3.76819 -10.12497,8.22402 -13.21786,9.36768c-11.65115,4.3083 -23.27041,9.67868 -35.7376,11.20342c-4.04022,0.49412 -9.69909,1.46896 -13.59264,0.00958c-6.79822,-2.54811 -7.01519,-7.87309 -6.72301,-14.13252c0.18742,-4.01517 -0.47397,-8.13229 0.01985,-12.12357c0.33563,-2.71275 1.19267,-12.48431 4.36108,-12.03799c3.63359,0.51185 1.74419,5.65238 1.40391,8.06805c-0.78997,5.60796 -0.27646,10.92754 -0.79079,16.4862c-0.33008,3.56739 -0.97352,6.67961 2.53951,8.75044c3.16464,1.86548 9.64485,0.26756 13.13937,-0.1077c11.5893,-1.24454 23.71928,-6.60265 34.39626,-11.05964c2.96207,-1.23649 5.6605,-2.63297 8.09909,-4.6909c0.43935,-0.37077 2.07889,-2.25202 2.53892,-2.21308z" fill="#000000" stroke-width="0.5"/></g></g></svg>