<svg version="1.1" xmlns="http://www.w3.org/2000/svg" xmlns:xlink="http://www.w3.org/1999/xlink" width="35.39292" height="34.17311" viewBox="0,0,35.39292,34.17311"><g transform="translate(-222.30354,-162.91345)"><g data-paper-data="{&quot;isPaintingLayer&quot;:true}" stroke-miterlimit="10" stroke-dasharray="" stroke-dashoffset="0" style="mix-blend-mode: normal"><path d="M229.98311,162.91346h20.03379c3.9166,0 7.06966,3.15307 7.06966,7.06966v20.03379c0,3.91659 -3.15306,7.06966 -7.06966,7.06966h-20.03379c-3.91659,0 -7.06966,-3.15307 -7.06966,-7.06966v-20.03379c0,-3.91659 3.15307,-7.06966 7.06966,-7.06966z" fill-opacity="0.35" fill="#4d4d4d" fill-rule="evenodd" stroke="none" stroke-width="4.43922" stroke-linecap="round" stroke-linejoin="round"/><g fill="#ffffff" fill-rule="nonzero" stroke="#000000" stroke-width="0.5" stroke-linecap="butt" stroke-linejoin="miter"><path d="M246.54812,172.60759c0.4696,0.10291 2.56666,0.75511 4.99884,1.36721c2.45156,0.61697 5.8963,0.99913 5.8995,1.13237c0.00406,0.1691 -8.13877,1.32723 -10.63257,2.0018c-2.08984,0.5653 -5.15522,1.28901 -5.15522,1.28901c0,0 -5.6859,-0.12616 -10.6532,-0.45072c-3.98111,-0.26012 -8.31903,-0.1538 -8.33768,-0.2258c-0.02516,-0.09709 2.94815,-0.98224 5.18531,-1.84301c0.84175,-0.51478 4.0922,-1.76124 4.0922,-1.76124c0,0 3.84668,-0.76325 6.01621,-0.38527c2.32463,0.40501 2.48781,1.60091 2.68414,1.59201c0,0 0.73386,-1.49909 1.62143,-1.90756c0.88757,-0.40846 3.93025,-0.88566 4.28104,-0.8088z"/><path d="M232.46032,178.22474c4.09624,0.24235 9.63316,0.88333 9.63316,0.88333c0,0 4.35827,-1.85514 6.40634,-2.36581c1.58781,-0.39591 8.69714,-1.78853 8.77283,-1.50176c0.07402,0.28038 -5.64434,11.08778 -15.17407,12.06823c-10.82079,1.17616 -19.55601,-9.32236 -19.54504,-9.45884c0.01097,-0.13649 5.81055,0.13251 9.90679,0.37487z"/></g></g></g></svg>