<svg version="1.1" xmlns="http://www.w3.org/2000/svg" xmlns:xlink="http://www.w3.org/1999/xlink" width="35.125" height="35.12434" viewBox="0,0,35.125,35.12434"><g transform="translate(-222.43751,-162.43783)"><g data-paper-data="{&quot;isPaintingLayer&quot;:true}" stroke-miterlimit="10" stroke-dasharray="" stroke-dashoffset="0" style="mix-blend-mode: normal"><path d="M257.56251,169.8317v20.49804c0,4.00745 -3.22497,7.23243 -7.23242,7.23243h-20.5c-3.66107,0 -6.66147,-2.69385 -7.1543,-6.21484c0.7952,3.03475 3.54108,5.26367 6.83204,5.26367h20.0332c3.9166,0 7.07032,-3.15372 7.07032,-7.07031v-20.03321c0,-3.2976 -2.23906,-6.0451 -5.28321,-6.83398c3.52994,0.48496 6.23438,3.49081 6.23438,7.15821z" fill-opacity="0.29839" fill="#000000" fill-rule="evenodd" stroke="none" stroke-width="4.54219" stroke-linecap="round" stroke-linejoin="round"/><path d="M229.50719,162.43783h20.03378c3.9166,0 7.06966,3.15307 7.06966,7.06966v20.03379c0,3.91659 -3.15307,7.06966 -7.06966,7.06966h-20.03378c-3.91659,0 -7.06967,-3.15307 -7.06967,-7.06966v-20.03379c0,-3.91659 3.15308,-7.06966 7.06967,-7.06966z" fill="#9966ff" fill-rule="evenodd" stroke="none" stroke-width="4.43922" stroke-linecap="round" stroke-linejoin="round"/><g fill-rule="nonzero" stroke="#000000" stroke-width="0.5" stroke-linejoin="miter"><g stroke-linecap="butt"><path d="M254.92248,180c0,7.71219 -6.68103,13.96416 -14.92248,13.96416c-8.24146,0 -14.92248,-6.25197 -14.92248,-13.96416c0,-7.71219 6.68103,-13.96416 14.92248,-13.96416c8.24146,0 14.92248,6.25197 14.92248,13.96416z" fill="#242424"/><path d="M251.53561,187.38684c0,3.29724 -5.11936,5.97018 -11.43442,5.97018c-6.31506,0 -11.43442,-2.67293 -11.43442,-5.97018c0,-3.29724 5.11936,-5.97019 11.43442,-5.97019c6.31506,0 11.43442,2.67294 11.43442,5.97019z" fill="#9966ff"/></g><path d="M227.15264,175.20175l0.0296,8.71077" fill="none" stroke-linecap="round"/><path d="M252.06814,183.28195l-0.0296,-8.71077" fill="none" stroke-linecap="round"/></g></g></g></svg>