<svg version="1.1" xmlns="http://www.w3.org/2000/svg" xmlns:xlink="http://www.w3.org/1999/xlink" width="97.31774" height="249.72446" viewBox="0,0,97.31774,249.72446"><g transform="translate(-193.68188,-55.13777)"><g stroke-miterlimit="10"><path d="M249.64874,194.94652c-0.57022,-0.0293 -1.00716,-0.50832 -0.97597,-1.06992c0.03121,-0.5616 0.51875,-0.99312 1.08895,-0.96383c0.57022,0.0293 1.00715,0.50832 0.97594,1.06992c-0.03121,0.5616 -0.51876,0.9931 -1.08895,0.96382z" fill="#000000" stroke="none" stroke-width="1.5" stroke-linecap="butt"/><path d="M245.45989,198.38748c-4.46222,-0.30954 -6.5472,-1.76635 -6.16264,-2.54048c0.11849,-0.23853 2.84345,1.04721 6.96631,1.28473c6.40734,0.36915 8.51102,-0.62208 8.51102,-0.62208l-0.00343,1.3255c0,0 -2.41591,1.03067 -9.31128,0.55233z" fill="#000000" stroke="#000000" stroke-width="0" stroke-linecap="butt"/><path d="M216.68543,192.23312c0.03121,-0.5616 0.51875,-0.99312 1.08895,-0.96383c0.57022,0.0293 1.00717,0.50832 0.97597,1.06993c-0.03121,0.5616 -0.51877,0.9931 -1.08898,0.96381c-0.57022,-0.0293 -1.00716,-0.50832 -0.97597,-1.06992z" fill="#000000" stroke="none" stroke-width="1.5" stroke-linecap="butt"/><path d="M223.94343,198.38759c-6.89785,0.47843 -9.30844,-0.55223 -9.30844,-0.55223l0.00343,-1.32551c0,0 2.09858,0.9912 8.50781,0.62199c4.12411,-0.23758 6.85571,-1.52334 6.97296,-1.28481c0.38056,0.77411 -1.71192,2.23095 -6.17576,2.54055z" fill="#000000" stroke="#000000" stroke-width="0" stroke-linecap="butt"/><path d="M193.68188,304.45395l1.45783,-249.31618l91.17841,0.40828l-1.45783,249.31618z" fill-opacity="0.01" fill="#000000" stroke="none" stroke-width="0" stroke-linecap="butt"/><path d="M197.01767,296.2623c0,0 -0.2391,-92.92953 -0.29788,-116.19358c-0.02028,-8.02699 8.34094,-36.17043 40.35565,-36.23511c31.60193,-0.06385 39.73157,29.14746 39.69259,36.44281c-0.19313,32.48152 -0.02981,77.74329 0.07966,101.01763c-1.43758,1.46977 -2.7401,3.09866 -3.91294,4.0521c-1.39067,1.13052 -4.12694,0.0416 -5.5131,1.49042c-0.4644,0.48539 -0.72214,1.11374 -0.96876,1.75254l0.30068,-105.15213c0,0 0.0885,-3.05127 -2.80291,-3.11364c-3.43401,-0.07408 -2.95836,3.05903 -2.95836,3.05903l-0.27677,113.09829l-48.21233,-0.06843l0.17839,-113.45613c0,0 0.29174,-2.87316 -2.87318,-2.89751c-3.11065,-0.02391 -2.82781,2.85598 -2.82781,2.85598l-0.12998,113.29254z" fill="#ffffff" stroke="#000000" stroke-width="2" stroke-linecap="butt"/><path d="M236.87843,254.03241c-0.81892,-0.00238 -1.48001,-0.65793 -1.47657,-1.46425c0.00343,-0.80632 0.67009,-1.45804 1.48902,-1.45566c0.81892,0.00238 1.48001,0.65793 1.47656,1.46425c-0.00343,0.80632 -0.67008,1.45804 -1.48901,1.45567z" fill="#000000" stroke="none" stroke-width="1.5" stroke-linecap="butt"/><path d="M195.35932,218.67266c0,0 2.00069,-15.08005 1.94191,-38.34411c-0.01659,-6.56967 5.58121,-26.61455 25.16627,-33.7118c0.53715,-0.19465 1.64315,-0.55418 1.64315,-0.55418c0,0 -4.28055,29.04194 13.41048,29.86758c17.37442,0.81087 15.10431,-29.28833 15.10431,-29.28833c0,0 0.84991,0.32873 1.26471,0.50268c18.28741,7.66858 23.49053,27.55191 23.45932,33.39177c0.70437,17.88926 2.72277,38.33246 2.72277,38.33246l-18.60842,0.10876l-0.16687,77.76305l-48.21233,-0.06843c0,0 0.05789,-57.80593 0.08972,-78.04271z" fill="#000000" stroke="#000000" stroke-width="2" stroke-linecap="butt"/><path d="M275.56396,123.85845c-6.00739,31.5301 -7.51384,28.84196 -33.20012,29.27382c-25.68628,0.43185 -32.97196,-1.34739 -38.24986,-33.09009c-3.36071,-20.2123 -3.66453,-39.85271 14.39147,-54.34096c9.86268,-7.91389 24.54695,-4.08385 37.01507,-2.50087c10.35775,1.31504 27.38447,0.90336 27.38447,0.90336l-7.14478,11.80291l15.23941,-1.82354c0,0 -12.19349,32.75878 -15.43566,49.77534z" fill="#f1d900" stroke="#00a68e" stroke-width="0" stroke-linecap="butt"/><path d="M212.68551,115.81562c-0.37195,-7.19339 0.81679,-16.87524 0.81679,-16.87524c0,0 3.4103,0.04888 13.99668,-2.72965c8.13312,-2.13465 20.80503,-8.79861 20.80503,-8.79861c0,0 -2.24354,2.90099 -3.53165,4.30044c-1.3694,1.48778 -4.1194,4.38629 -4.1194,4.38629c0,0 7.8815,-1.43569 14.80133,-4.26977c8.66403,-3.25522 10.75805,-5.67978 13.0739,-4.18057c2.73329,1.76945 0.37834,22.84425 -0.08928,28.30638c-0.58072,5.56878 -2.79906,9.28347 -3.5007,12.24049c-0.70163,2.95703 -0.58182,6.02913 -2.65589,15.72895c-1.29435,6.05336 -4.41078,8.67477 -10.427,14.16683c-6.01622,5.49205 -9.30984,8.86936 -13.2699,8.83337c-3.81101,-0.03463 -8.78854,-5.25421 -13.63777,-10.58434c-5.16364,-5.67574 -8.63294,-8.5763 -9.28602,-15.15595c-0.58818,-5.92566 -0.49783,-9.77269 -0.6938,-15.03741c-0.14323,-3.84784 -2.07916,-6.40276 -2.2823,-10.33119z" fill="#ffffff" stroke="#000000" stroke-width="1.5" stroke-linecap="butt"/><path d="M260.96944,91.18496c0,0 1.51469,0.35304 4.22278,1.20444c2.47353,0.77765 4.39846,1.83326 4.39846,1.83326l0.16213,1.157c0,0 -7.15859,-3.2708 -15.03992,-2.8282c-6.30173,0.35392 -10.03794,2.50669 -10.03794,2.50669l0.16307,-4.10978c0,0 3.17401,-1.5953 7.91243,-1.62002c4.90658,-0.02559 8.07077,0.79418 8.07077,0.79418z" fill="#000000" stroke="none" stroke-width="1.5" stroke-linecap="butt"/><path d="M214.10002,125.82384c0,0 -4.8312,-3.59099 -5.90939,-8.99524c-1.13448,-5.6863 -1.18713,-9.61769 0.76063,-9.82182c1.94776,-0.20414 2.63527,2.41036 3.49627,8.32188c0.861,5.91152 1.65249,10.49518 1.65249,10.49518z" fill="#ffffff" stroke="#000000" stroke-width="1" stroke-linecap="butt"/><path d="M214.00842,121.9332c0,0 -3.48021,-2.97078 -4.0789,-8.43066c-0.334,-3.0457 2.21988,-2.18764 2.21988,-2.18764" fill="none" stroke="#000000" stroke-width="0.25" stroke-linecap="round"/><path d="M244.25218,116.1718c0.34076,-4.80576 4.6996,-8.602 10.01516,-8.46249c5.31556,0.13952 9.15914,4.14686 9.0217,8.96212c-0.13745,4.81526 -4.13902,8.82609 -9.95231,8.7433c-5.5295,-0.07874 -9.44043,-4.22402 -9.08455,-9.24292z" fill="#ffffff" stroke="#000000" stroke-width="1.4" stroke-linecap="butt"/><path d="M221.51737,92.29855c0,0 3.41929,-1.70192 8.09311,-2.03508c5.17918,-0.3692 7.76677,0.13854 7.76677,0.13854l0.17871,4.07998c0,0 -3.81476,-0.77054 -7.99988,-0.72325c-5.59706,0.06323 -6.68229,1.23602 -10.94621,1.57548c-3.65355,0.29086 -6.73881,-0.02042 -6.73881,-0.02042l0.00871,-1.21281c0,0 3.59155,0.16713 5.23337,0.07001c1.35512,-0.08016 4.00036,-0.81899 4.00036,-0.81899z" fill="#000000" stroke="none" stroke-width="1.5" stroke-linecap="butt"/><path d="M268.60807,116.8026c1.19692,-5.85752 2.03256,-8.43202 3.96576,-8.12604c1.9332,0.30599 1.65636,4.2287 0.19922,9.847c-1.38488,5.3396 -6.41367,8.6718 -6.41367,8.6718c0,0 1.05178,-4.53526 2.24869,-10.39279z" fill="#ffffff" stroke="#000000" stroke-width="1" stroke-linecap="butt"/><path d="M269.13473,112.8105c0,0 2.59899,-0.72284 2.09177,2.30079c-0.90927,5.4203 -4.55372,8.2041 -4.55372,8.2041" fill="none" stroke="#000000" stroke-width="0.25" stroke-linecap="round"/><path d="M249.37604,119.67149c0.11747,-5.76226 2.44696,-10.2411 5.20307,-10.00388c2.75613,0.23723 4.89516,5.10072 4.77769,10.86293c-0.11747,5.76226 -2.44695,10.2411 -5.20307,10.00388c-2.75613,-0.23723 -4.89516,-5.10072 -4.77769,-10.86293z" fill="#000000" stroke="none" stroke-width="1.5" stroke-linecap="butt"/><path d="M217.20751,115.4613c0.20833,-4.8129 5.08731,-8.66827 10.45586,-8.45067c5.36853,0.21762 8.90402,4.41824 8.6957,9.23115c-0.20833,4.8129 -4.36882,8.54756 -9.73736,8.32995c-5.36853,-0.21762 -9.62252,-4.29753 -9.4142,-9.11044z" fill="#ffffff" stroke="#000000" stroke-width="1.4" stroke-linecap="butt"/><path d="M218.84667,116.07657c0.16413,-3.79198 3.41899,-6.73938 7.26995,-6.58327c3.85098,0.15611 6.83973,3.35664 6.67559,7.14859c-0.16413,3.79198 -3.41898,6.73938 -7.26995,6.58327c-3.85098,-0.15611 -6.83973,-3.35664 -6.67559,-7.14859z" fill="#000000" stroke="none" stroke-width="1.5" stroke-linecap="butt"/><path d="M243.886,110.94203c0,0 0.01895,-4.4602 11.44907,-4.14915c9.70075,0.27916 9.27152,4.66847 9.27152,4.66847z" fill="#ffffff" stroke="#000000" stroke-width="1.15" stroke-linecap="butt"/><path d="M217.15405,110.54438c0,0 0.31681,-4.24749 10.8445,-4.0255c9.4623,0.19712 9.28717,4.5531 9.28717,4.5531z" fill="#ffffff" stroke="#000000" stroke-width="1.15" stroke-linecap="butt"/><path d="M255.87305,230.61945l10.1016,-4.0663l11.99379,53.66622c-1.46583,1.29924 -2.80253,2.94965 -4.015,4.18241c-0.90616,0.08314 -1.82242,0.32331 -2.72668,0.73365c-0.53019,0.24059 -1.036,0.53049 -1.51516,0.864c-0.37216,0.02752 -0.73751,0.07215 -1.07989,0.16249c-7.10574,-31.10484 -12.75866,-55.54247 -12.75866,-55.54247z" fill="#ffffff" stroke="#000000" stroke-width="2" stroke-linecap="butt"/><g stroke="none" stroke-width="0" stroke-linecap="butt"><path d="M239.13869,177.93455c-3.68295,-0.25206 -8.61587,0.04385 -11.64615,-4.86326c-4.32086,-6.99704 -5.91863,-20.13021 -5.91863,-20.13021c0,0 2.52384,-2.43551 5.28635,-6.28801c2.05542,-2.86641 3.95963,-7.22273 5.8296,-7.09475c1.80712,0.12368 7.59806,4.0061 7.59806,4.0061c0,0 4.61981,-5.52433 6.99786,-3.7545c1.55972,1.16078 3.15467,5.25028 5.1608,9.13733c1.72824,3.34862 4.00233,6.64466 4.00233,6.64466c0,0 -0.30394,2.05232 -0.74827,4.61529c-0.63721,3.67558 -1.74248,8.66815 -4.17392,12.42478c-2.97055,4.58957 -8.6486,5.5585 -12.38803,5.30258z" fill="#000000"/><path d="M225.22266,153.06728c0,0 1.66989,-1.83395 3.2856,-4.33559c1.52322,-2.35843 2.96054,-5.38049 4.11496,-5.76893c1.68023,-0.56537 4.41802,2.33129 5.87317,4.07055c0.59985,0.71697 1.85601,0.01196 3.09674,-1.23561c1.54135,-1.54987 3.64827,-3.13415 5.34724,-2.44657c1.29485,0.52403 2.39631,4.29172 3.92089,7.43037c1.24892,2.57115 2.70265,4.81038 2.70265,4.81038c0,0 -4.20958,0.58476 -6.323,-0.45545c-2.66109,-1.30975 -1.52451,-5.01524 -6.98753,-5.13317c-4.84832,-0.10467 -3.80233,2.28939 -7.15814,3.54979c-1.32339,0.49704 -7.87257,-0.48578 -7.87257,-0.48578z" fill="#ffffff"/><path d="M239.68371,174.50686c-2.3296,-0.18684 -7.27361,-0.28547 -9.56684,-3.04595c-2.27661,-2.74047 -3.46714,-6.43503 -4.41179,-9.66995c-1.00009,-3.42479 -1.6345,-6.31562 -1.6345,-6.31562c0,0 6.22516,-0.3398 9.39601,1.40096c1.97781,1.08579 1.27717,8.62302 6.10152,8.77285c5.33263,0.16562 5.17632,-6.56838 7.05581,-7.24637c2.2442,-0.80956 7.41971,-0.51935 7.41971,-0.51935c0,0 -0.50267,1.93169 -1.0171,4.15998c-0.66429,2.87739 -1.55731,6.45677 -3.59788,9.17705c-2.41848,3.22407 -6.90538,3.51416 -9.74493,3.28643z" fill="#ffffff"/></g><path d="M239.47911,145.32076c-1.03331,-0.02712 -3.44498,-3.30185 -3.63439,-5.37849c-0.16947,-1.85802 1.4221,-3.73314 3.89261,-3.6683c2.47053,0.06483 4.18651,0.59328 3.9106,4.22822c-0.23416,3.08488 -1.6983,4.88342 -4.16882,4.81857z" fill="#ffffff" stroke="#000000" stroke-width="1.15" stroke-linecap="butt"/><path d="M243.9251,115.79596c0,0 -0.00897,3.90987 -0.19445,7.01442c-0.36728,6.14755 -1.8609,27.29468 -1.8609,27.29468l-2.98064,-0.06972c0,0 -0.68537,-4.12802 -0.85586,-9.37949c-0.23077,-7.10833 0.00842,-16.04813 -0.21157,-19.34281c-0.20854,-3.12304 -0.73501,-5.64794 -0.73501,-5.64794" fill="#ffffff" stroke="#000000" stroke-width="1.3" stroke-linecap="round"/><g stroke-linecap="butt"><path d="M219.5259,219.48507c-4.2808,-0.9013 -6.6844,-1.54475 -8.52469,-6.03714c-0.72782,-1.16057 -1.16107,-2.2494 -1.34526,-3.27138c-0.15655,-0.13928 -0.15054,-0.36694 -0.15054,-0.36694c0.10776,-3.57457 -1.39037,-10.1367 2.27636,-12.47914c1.69081,-0.52819 4.92022,-0.95342 6.69199,-0.68429c2.54012,0.38584 3.68719,2.82589 5.40995,3.97838c2.0975,1.40318 4.73484,1.55577 7.81885,2.0793c4.3214,0.82243 8.71602,3.31888 12.85541,4.83781c1.26696,0.84371 6.19118,3.46148 5.03715,5.65258c-1.33506,2.53481 -3.57175,1.63826 -6.16648,1.0632c-2.55606,-0.56649 -5.42808,-2.01177 -8.03443,-3.09429c-0.85845,1.33102 -1.29794,2.55878 -2.25739,3.37698c-0.38081,0.32474 -0.84352,0.58497 -1.44685,0.76153c-0.87192,-0.15721 -1.43159,2.54523 -2.11197,3.16812c-0.75135,0.68786 -1.71328,0.34462 -2.49175,0.67181c-0.66918,0.28125 -0.8769,1.42795 -1.70946,1.78492c-1.13489,0.48659 -3.58588,-0.66152 -4.7099,-1.16039c-0.33112,-0.007 -0.66183,-0.08489 -0.97433,-0.19456z" fill="#ffffff" stroke="#000000" stroke-width="2"/><path d="M217.51475,206.46149c0.09395,-0.17611 0.18791,-0.35222 0.28186,-0.52833c0,0 0.06509,-0.12202 0.19211,-0.24624c-0.88219,-1.26135 -1.54372,-2.70824 -2.09551,-4.09459l-0.05266,-0.82464c0,0 0.02431,-0.92029 0.94461,-0.89597c0.9203,0.02432 0.89597,0.94461 0.89597,0.94461l-0.07699,0.09566c0.76316,1.92117 1.73161,4.08495 3.40271,5.39659c0.43326,0.34006 2.19953,1.63705 2.54462,0.38212c0.52614,-1.91335 -1.30674,-4.90074 -1.5374,-6.85753c0,0 -0.10608,-0.91449 0.80841,-1.02056c0.91448,-0.10607 1.02055,0.80841 1.02055,0.80841c0.24314,2.13533 2.16239,5.20272 1.54675,7.38119c0.32978,-0.02792 0.67454,0.00071 1.01968,0.05203l-0.1108,-0.7936c0,0 -0.1273,-0.91177 0.78447,-1.03907c0.91176,-0.1273 1.03907,0.78447 1.03907,0.78447l0.12906,0.92435c0,0 0.03379,0.24207 -0.05817,0.49416c2.37738,0.64669 4.5659,1.96348 6.87487,2.80097c0,0 0.86538,0.3141 0.55128,1.17947c-0.31409,0.86538 -1.17947,0.55128 -1.17947,0.55128c-2.22424,-0.80789 -4.33102,-2.13445 -6.61124,-2.76395c-0.28295,-0.07811 -2.29148,-0.68383 -2.47153,-0.25318c-0.36252,0.86707 1.43434,1.53895 0.88417,2.704c-0.77825,1.64801 -2.86121,0.38706 -3.52983,1.72224c0.11947,0.55519 0.4605,2.0091 0.23741,2.24969c-1.55266,1.67446 -3.31489,-0.84082 -4.39684,1.70344l-0.1123,0.58231c0,0 -0.20434,0.89766 -1.10199,0.69332c-0.89765,-0.20434 -0.69331,-1.10199 -0.69331,-1.10199l0.235,-0.9434c0.66113,-1.36462 1.29447,-2.23008 2.91295,-2.46465c0.41086,-0.05955 1.07078,-0.11714 1.43378,0.06612c-0.14442,-0.36286 -0.30022,-0.84933 -0.32758,-1.10665c0.48465,-0.89383 1.27297,-1.75903 2.24133,-2.06901c0.44123,-0.14124 1.14879,0.38545 1.38983,-0.0102c0.08,-0.1313 -0.32712,-0.07644 -0.41406,-0.20326c-0.31332,-0.45702 -0.58652,-1.15124 -0.59302,-1.79932c-0.63793,0.15032 -1.36391,0.04199 -2.10379,-0.28881c-0.83534,-0.37347 -1.55838,-0.89321 -2.19098,-1.51074c-0.09704,0.1819 -0.19408,0.3638 -0.29112,0.5457l-0.98996,0.48291c0,0 -0.9203,-0.02431 -0.89597,-0.94461c0.01186,-0.4487 0.2367,-0.67285 0.46403,-0.78475z" fill="#000000" stroke="none" stroke-width="0.5"/></g><path d="M239.9033,235.93701l1.41288,-36.02266l23.53956,0.92327l-1.41287,36.02266z" fill="#9c9c9c" stroke="#000000" stroke-width="1" stroke-linecap="butt"/><g stroke="#000000" stroke-width="2"><path d="M265.30716,215.1716c2.11464,1.3528 3.50684,3.70028 5.50801,5.22894c0,0 0.71977,0.55186 0.1679,1.27165c-0.1007,0.13135 -0.20702,0.22034 -0.31351,0.27808c-0.02111,0.05483 -0.04926,0.11091 -0.08569,0.16788c0.18714,1.48409 -0.66969,3.17968 -1.11508,4.49151c-1.25862,3.70703 -2.30707,7.16006 -5.86099,9.27189c-2.09321,0.58139 -3.96495,-0.21209 -5.98607,-0.83026c-0.79838,-0.24418 -1.63721,-0.44946 -2.46141,-0.698c-0.67661,-0.11933 -1.3544,-0.23056 -2.03551,-0.30491c-4.70031,0.34146 -7.19772,-0.8103 -8.7302,-4.50231c-0.1858,-0.44765 0.43691,-1.41782 0.43691,-1.41782c0,0 -2.07238,-1.65804 -2.19977,-2.59762c-0.12229,-0.90198 0.95355,-2.64244 0.95355,-2.64244c0,0 -2.16088,-1.65994 -1.38768,-3.71975c0.62534,-1.66588 3.07922,-1.47269 3.07922,-1.47269c0,0 -0.17799,-1.85108 0.75743,-2.6659c1.84713,-1.60899 6.31753,-1.13922 9.1701,-0.9059c3.09002,-1.14613 7.42783,-0.66357 10.10277,1.04766z" fill="#ffffff" stroke-linecap="butt"/><path d="M260.06453,216.45015l-4.73316,-2.00325" fill="none" stroke-linecap="round"/></g><path d="M263.9559,238.24363c-0.90107,0.29957 -1.38948,-0.22459 -1.60733,-0.5832c-0.15967,0.02798 -0.31784,0.02737 -0.46916,0.00181l-0.00238,0.01086c-0.10649,0.54289 -0.53487,0.99131 -1.11212,1.09579c-0.65801,0.1191 -1.29147,-0.24817 -1.53093,-0.84554l-1.07277,-2.52189l0.06712,-0.02855l-0.14159,-0.19979c0.01881,-0.08091 0.03763,-0.16182 0.05645,-0.24273l-0.09033,0.00495l-0.15034,-2.74569c-0.01462,-0.21096 0.01959,-0.41635 0.09398,-0.60365c-0.0046,-0.02275 -0.00917,-0.04551 -0.01375,-0.06827l-0.54831,-1.91595c-0.01479,-0.04943 -0.027,-0.10022 -0.03641,-0.1522c-0.08056,-0.44511 0.06143,-0.87901 0.34666,-1.18729l-0.42215,-0.77124c-0.07779,-0.13457 -0.13408,-0.28463 -0.16335,-0.44638c-0.13614,-0.75218 0.36326,-1.47231 1.11545,-1.60845c0.56475,-0.10222 1.11142,0.15384 1.40643,0.60614c0.11037,-0.33331 0.29373,-0.59697 0.61613,-0.71353c1.55462,-0.56204 2.57282,0.3865 3.27573,1.75431c0.28922,0.11057 0.53668,0.31641 0.69705,0.58613l0.73409,1.17204l-0.0698,0.04371l0.15797,0.12073c0.14085,0.46576 0.26475,0.89628 0.37248,1.30105c0.1313,-0.00206 0.27527,0.01499 0.43285,0.05655c0.03293,0.00827 0.06546,0.01774 0.09754,0.02836c0.75677,0.24074 0.93008,0.79637 0.94606,1.2079c0.02254,0.28726 -0.04559,0.5647 -0.18259,0.80077c-0.16604,0.43802 -0.27636,0.93529 -0.40535,1.41271c0.13853,0.50596 0.27147,0.99077 0.42124,1.40848l0.15267,0.73774c0,0 0.09317,0.51482 -0.15157,0.96871c-0.06771,0.59055 -0.51378,1.09241 -1.12887,1.20374c-0.1601,0.02898 -0.31876,0.02916 -0.47064,0.00424c-0.08344,0.03293 -0.17133,0.05817 -0.26298,0.07476c-0.25161,0.04554 -0.49964,0.01996 -0.72342,-0.0624c-0.07097,0.03503 -0.14868,0.06699 -0.23373,0.09525z" fill="#ffffff" stroke="none" stroke-width="0.5" stroke-linecap="butt"/><path d="M248.14602,204.95372c0.06198,1.4282 -1.13464,2.64011 -2.6727,2.70685c-1.53807,0.06674 -2.83516,-1.03694 -2.89714,-2.46514c-0.06198,-1.4282 1.13464,-2.64011 2.6727,-2.70685c1.53807,-0.06674 2.83516,1.03694 2.89714,2.46514z" fill="#c3e3ff" stroke="none" stroke-width="0" stroke-linecap="butt"/><path d="M251.32329,206.49425c0.03276,0.75485 -0.59969,1.39538 -1.4126,1.43065c-0.81292,0.03528 -1.49847,-0.54805 -1.53123,-1.3029c-0.03276,-0.75485 0.59969,-1.39537 1.4126,-1.43065c0.81292,-0.03528 1.49847,0.54805 1.53123,1.3029z" fill="#c3e3ff" stroke="none" stroke-width="0" stroke-linecap="butt"/><text transform="translate(210.20062,105.03858) scale(0.5,0.5)" font-size="40" xml:space="preserve" fill="#9966ff" stroke="none" stroke-width="1" stroke-linecap="butt" font-family="Sans Serif" font-weight="normal" text-anchor="start"><tspan x="0" dy="0">LOOK</tspan></text></g></g></svg>