<svg version="1.1" xmlns="http://www.w3.org/2000/svg" xmlns:xlink="http://www.w3.org/1999/xlink" width="93.91405" height="253.22501" viewBox="0,0,93.91405,253.22501"><g transform="translate(-189.68591,-53.3875)"><g data-paper-data="{&quot;isPaintingLayer&quot;:true}" fill-rule="nonzero" stroke-linejoin="miter" stroke-miterlimit="10" stroke-dasharray="" stroke-dashoffset="0" style="mix-blend-mode: normal"><path d="M189.75355,306.61251v-253.22501h91.18203v253.22501z" fill-opacity="0.01" fill="#000000" stroke="none" stroke-width="0" stroke-linecap="butt"/><path d="M192.37548,304.8916c0,0 0.18282,-94.88387 0.02483,-118.51201c-0.05451,-8.15261 8.37851,-38.56088 41.99367,-38.914c33.41367,-0.351 42.00823,31.47993 42.00035,38.88963c-0.07659,46.24274 0.09369,118.48648 0.09369,118.48648l-13.3733,0.09614l0.05547,-115.34311c0,0 -0.61301,-1.61748 -1.67443,-1.62419c-1.13177,-0.00716 -1.66339,1.58567 -1.66339,1.58567l0.07215,115.36995l-50.6827,0.07222l-0.18039,-115.73309c0,0 -0.59593,-1.45279 -1.68917,-1.45824c-0.87895,-0.00438 -1.51211,1.43279 -1.51211,1.43279l0.0122,115.5668z" data-paper-data="{&quot;index&quot;:null}" fill="#362975" stroke="#000000" stroke-width="0" stroke-linecap="butt"/><path d="M192.37548,304.88246c0,0 0.18282,-75.65131 0.02483,-101.30286c-0.00001,-0.00168 2.31474,5.90839 5.5453,9.78665c3.48007,4.1778 7.89454,6.34617 7.89454,6.34617l0.0122,85.07781z" fill-opacity="0.10196" fill="#000000" stroke="#000000" stroke-width="0" stroke-linecap="butt"/><path d="M263.01115,304.79024l0.0122,-85.07781c0,0 4.41447,-2.16837 7.89454,-6.34617c3.23056,-3.87826 5.54531,-9.78833 5.5453,-9.78665c-0.15799,25.65156 0.02483,101.30287 0.02483,101.30287z" data-paper-data="{&quot;index&quot;:null}" fill-opacity="0.10196" fill="#000000" stroke="#000000" stroke-width="0" stroke-linecap="butt"/><path d="M192.37548,304.88246c0,0 0.18282,-46.77339 0.02483,-72.42495c-0.00001,-0.00184 1.34081,4.64315 4.87532,7.80145c3.16498,2.8281 8.56453,4.20596 8.56453,4.20596l0.0122,60.32531z" fill-opacity="0.10196" fill="#000000" stroke="#000000" stroke-width="0" stroke-linecap="butt"/><path d="M263.01115,304.79024l0.0122,-60.32531c0,0 5.39954,-1.37786 8.56453,-4.20596c3.5345,-3.1583 4.87532,-7.80328 4.87532,-7.80145c-0.15799,25.65156 0.02483,72.42495 0.02483,72.42495z" data-paper-data="{&quot;index&quot;:null}" fill-opacity="0.10196" fill="#000000" stroke="#000000" stroke-width="0" stroke-linecap="butt"/><path d="M192.37548,304.88246c0,0 0.18282,-22.88941 0.02483,-48.54096c-0.00002,-0.00349 1.94598,4.47012 5.1938,6.84789c3.46507,2.53682 8.24604,2.98824 8.24604,2.98824l0.0122,38.6126z" fill-opacity="0.10196" fill="#000000" stroke="#000000" stroke-width="0" stroke-linecap="butt"/><path d="M263.01115,304.79024l0.0122,-38.61259c0,0 4.78096,-0.45142 8.24604,-2.98824c3.24782,-2.37777 5.19383,-6.85138 5.1938,-6.84789c-0.15799,25.65155 0.02483,48.54096 0.02483,48.54096z" data-paper-data="{&quot;index&quot;:null}" fill-opacity="0.10196" fill="#000000" stroke="#000000" stroke-width="0" stroke-linecap="butt"/><path d="M234.22732,238.82951c11.07568,-0.27523 19.4178,-7.49444 25.62945,-16.80489l0.04775,82.8954l-50.6827,0.0784l-0.12134,-84.51765c6.33225,10.3945 14.62118,18.6098 25.12684,18.34874z" fill-opacity="0.10196" fill="#000000" stroke="#000000" stroke-width="0" stroke-linecap="butt"/><path d="M234.97732,259.18519c10.92348,-0.00495 18.96876,-5.1859 24.89352,-12.75364l0.03369,58.48848l-50.6827,0.0784l-0.08576,-59.73266c6.1148,8.20471 14.45842,13.92457 25.84126,13.91942z" fill-opacity="0.10196" fill="#000000" stroke="#000000" stroke-width="0" stroke-linecap="butt"/><path d="M234.72732,284.15477c11.05972,-0.00501 19.18583,-6.54065 25.15598,-16.07637l0.02123,36.84158l-50.6827,0.0784l-0.05397,-37.59244c6.06699,9.9076 14.32394,16.75391 25.55947,16.74883z" fill-opacity="0.10196" fill="#000000" stroke="#000000" stroke-width="0" stroke-linecap="butt"/><path d="M276.39498,203.62174c0.00134,-0.27608 0.00381,-0.26572 0,0z" fill-opacity="0.10196" fill="#000000" stroke="#000000" stroke-width="0" stroke-linecap="butt"/><path d="M276.39546,197.30627c0.00225,-0.31639 0.00643,-0.30223 0,0z" fill-opacity="0.10196" fill="#000000" stroke="#000000" stroke-width="0" stroke-linecap="butt"/><path d="M234.23271,239.85123l-13.26606,-65.14738l13.82133,-16.20365l13.23026,16.24152z" fill="#e6e6e6" stroke="#000000" stroke-width="0" stroke-linecap="butt"/><path d="M229.1216,240.18456l1.33333,-55.11111l2.95276,-11.06444l2.04515,-0.0335l2.89098,11.09794l0.88889,55.22222l-5.12228,12.71905z" fill="#ff0000" stroke="#000000" stroke-width="0" stroke-linecap="butt"/><path d="M229.1216,240.18456c0,0 1.02471,-42.35512 1.21655,-50.28447c0.00155,-0.06393 -0.23296,4.46412 3.82958,4.38118c4.14372,-0.0846 4.25225,-4.47584 4.25371,-4.38534c0.12778,7.93797 0.81127,50.39973 0.81127,50.39973l-5.12228,12.71905z" fill-opacity="0.10196" fill="#000000" stroke="#000000" stroke-width="0" stroke-linecap="butt"/><path d="M229.1216,240.18456c0,0 0.63218,-25.08256 0.87946,-35.30376c0.00078,-0.03218 -0.28488,5.12699 4.0017,5.04476c4.97922,-0.09553 4.59408,-5.11578 4.59517,-5.04784c0.15519,9.64124 0.63478,35.41796 0.63478,35.41796l-5.12228,12.71905z" fill-opacity="0.10196" fill="#000000" stroke="#000000" stroke-width="0" stroke-linecap="butt"/><path d="M229.1216,240.18456c0,0 0.24178,-9.99375 0.4382,-18.11244c0.00227,-0.09378 0.22579,5.72882 4.43555,5.67893c4.31761,-0.05116 4.94749,-5.46323 4.94927,-5.35281c0.12915,8.02337 0.28809,17.89742 0.28809,17.89742l-5.12228,12.71905z" fill-opacity="0.10196" fill="#000000" stroke="#000000" stroke-width="0" stroke-linecap="butt"/><path d="M234.78826,159.0734l7.88889,9.22222l-8.33333,8.33333l-8.06788,-8.26709z" fill="#ff0000" stroke="#000000" stroke-width="0" stroke-linecap="butt"/><path d="M234.67715,158.29566l-13.70609,16.42987c0,0 -2.00437,-9.86605 -2.18279,-10.7632c-1.05317,-5.29559 -5.1321,-16.44524 16.11111,-16c19.3212,0.40496 17.19618,5.26687 15.12443,16.8034c-0.27325,1.52158 -2.00556,9.97598 -2.00556,9.97598z" fill="#e6e6e6" stroke="#000000" stroke-width="0" stroke-linecap="butt"/><path d="M221.1216,176.85123l-0.33333,-2.55556l14.13637,-16.83473l13.14979,17.30128l-0.61339,2.74884l-12.56166,-18.2154z" fill="#000000" stroke="none" stroke-width="0" stroke-linecap="butt"/><path d="M194.19589,102.09282c0,0 6.40348,-5.66129 6.56758,-6.52096c0.43038,-2.25473 1.49772,-40.14559 37.66024,-40.04707c44.63583,0.93752 37.51601,36.93566 39.74622,43.87566c3.05797,9.51578 5.43004,17.64042 5.43004,17.64042c0,0 -2.67965,-2.16645 -3.94628,-3.3004c-1.18137,-1.05761 -3.66775,-3.30073 -3.66775,-3.30073c0,0 2.65948,10.46734 0.4519,20.73153c-1.95398,9.40807 -8.00561,16.9081 -8.00561,16.9081l-1.05692,-2.39322c0,0 -1.11289,2.15366 -2.29635,3.24033c-1.18346,1.08666 -3.55652,2.76768 -3.55652,2.76768l0.06158,-3.70484c0,0 -7.51077,10.71581 -24.7804,9.85276c-16.28164,-0.93121 -25.60657,-11.74679 -25.60657,-11.74679l-0.22615,2.64774c0,0 -3.75492,-3.45138 -5.77372,-9.95544c-2.40616,-7.75208 -2.72914,-12.367 -2.72914,-12.367c0,0 -2.4158,1.80056 -5.82714,2.53502c-4.27461,0.92032 -6.95499,0.057 -6.95499,0.057c0,0 3.71749,-2.56527 5.77689,-4.53431c1.83435,-1.75387 2.7843,-3.26461 2.7843,-3.26461c0,0 -2.15073,0.9964 -4.2962,1.44109c-2.23855,0.464 -4.04862,0.36341 -4.04862,0.36341c0,0 5.17946,-4.82672 7.47548,-10.57349c2.16781,-5.42588 2.55214,-10.86085 2.55214,-10.86085c0,0 -1.38791,0.60462 -3.36023,0.6564c-1.2502,0.03283 -2.37378,-0.14743 -2.37378,-0.14743z" fill="#000000" stroke="none" stroke-width="1.5" stroke-linecap="butt"/><path d="M210.49802,114.10054c-0.27426,-7.31088 1.04583,-17.12585 1.04583,-17.12585c0,0 3.40937,0.10018 14.03267,-2.56473c8.16149,-2.04737 20.92293,-8.6273 20.92293,-8.6273c0,0 -2.28276,2.9129 -3.58977,4.31505c-1.3895,1.49064 -4.17864,4.39353 -4.17864,4.39353c0,0 7.90039,-1.34126 14.85819,-4.11692c8.70758,-3.17752 10.83434,-5.60878 13.12967,-4.0519c2.70906,1.8375 0.06816,23.20547 -0.47357,28.7457c-0.65628,5.64687 -2.92489,9.38651 -3.66663,12.37917c-0.74174,2.99266 -0.66364,6.11437 -2.86923,15.93446c-1.37644,6.12842 -4.52822,8.74446 -10.61856,14.23286c-6.09034,5.48841 -9.42956,8.86948 -13.38883,8.77425c-3.81025,-0.09164 -8.71655,-5.46623 -13.49305,-10.9512c-5.08619,-5.8406 -8.51585,-8.83774 -9.07955,-15.52948c-0.50768,-6.02662 -0.36511,-9.9322 -0.48959,-15.28178c-0.09098,-3.90986 -1.99207,-6.53324 -2.14186,-10.52585z" fill="#4dffdd" stroke="#000000" stroke-width="1.5" stroke-linecap="butt"/><g data-paper-data="{&quot;index&quot;:null}" stroke="none" stroke-width="0" stroke-linecap="butt"><path d="M238.52574,161.85373c-18.9785,0.84692 -23.30484,-13.49255 -23.30484,-13.49255c0,0 8.50412,-6.62079 12.15008,-7.79763c2.77464,-0.89561 9.84938,1.33238 9.84938,1.33238c0,0 6.96791,-4.18631 10.73986,-4.21557c6.73307,-0.05221 11.67991,9.42531 11.67991,9.42531c0,0 -2.8512,13.93306 -21.11439,14.74806z" fill="#000000"/><path d="M256.87638,148.57317c0,0 -6.25951,10.50886 -19.22309,10.47552c-16.30714,-0.04192 -19.76686,-9.78584 -19.76686,-9.78584c0,0 4.435,0.1033 7.96179,0.62331c4.11982,0.60747 8.02595,1.65787 11.38786,1.59639c3.17375,-0.05805 7.97525,-0.98995 11.95907,-1.67463c4.30632,-0.74009 7.68122,-1.23474 7.68122,-1.23474z" fill="#4dffdd"/><path d="M256.8952,146.53033c0,0 -2.69159,-0.01645 -4.20749,-0.30085c-3.44819,-0.64692 -7.07705,-1.90527 -12.12152,-1.74222c-4.21109,0.13611 -8.78595,2.14857 -13.5713,3.06952c-2.53017,0.48692 -7.5869,-0.01075 -7.5869,-0.01075c0,0 1.69541,-0.94265 3.29218,-2.19352c1.54906,-1.2135 3.23369,-2.52147 4.63706,-2.93288c2.57148,-0.75387 9.83145,0.58933 9.83145,0.58933c0,0 7.75113,-3.76824 11.63691,-3.13016c5.66097,0.92959 8.08961,6.65152 8.08961,6.65152z" fill="#4dffdd"/><path d="M238.08072,148.91721c-2.74604,0.16804 -7.84396,-0.19674 -7.84396,-0.19674c0,0 4.90844,-1.59488 8.57974,-1.81953c3.6713,-0.22464 9.39734,0.71952 9.39734,0.71952c0,0 -6.95123,1.10205 -10.13313,1.29676z" fill="#ffffff"/></g><path d="M259.1535,100.98588c0,0 1.50979,0.38098 4.20612,1.28576c2.46278,0.82641 4.37323,1.92697 4.37323,1.92697l0.14642,1.17743c0,0 -7.11365,-3.42781 -15.00039,-3.09509c-6.30605,0.26606 -10.07121,2.39697 -10.07121,2.39697l0.21886,-4.17134c0,0 3.19544,-1.5731 7.93382,-1.52799c4.90656,0.04672 8.05938,0.92614 8.05938,0.92614z" data-paper-data="{&quot;index&quot;:null}" fill="#000000" stroke="none" stroke-width="1.5" stroke-linecap="butt"/><path d="M236.88654,144.6478c-1.03287,-0.04285 -3.3999,-3.40429 -3.5611,-5.51606c-0.14423,-1.88946 1.47268,-3.77018 3.94213,-3.66773c2.46947,0.10246 4.17814,0.66454 3.85289,4.35199c-0.27603,3.12943 -1.76447,4.93427 -4.23393,4.83181z" fill="#4dffdd" stroke="#000000" stroke-width="1.15" stroke-linecap="butt"/><path d="M241.73306,114.72929c0,0 -0.06205,3.9706 -0.28967,7.12073c-0.45071,6.23781 -2.23133,27.69201 -2.23133,27.69201l-2.97947,-0.11497c0,0 -0.62927,-4.20244 -0.72845,-9.53819c-0.13425,-7.2224 0.22631,-16.29784 0.05105,-19.64706c-0.16612,-3.17475 -0.65827,-5.74676 -0.65827,-5.74676" fill="#4dffdd" stroke="#000000" stroke-width="1.3" stroke-linecap="round"/><path d="M211.77655,124.28553c0,0 -4.78207,-3.71848 -5.78682,-9.22284c-1.05718,-5.79164 -1.05646,-9.78501 0.89392,-9.96344c1.95038,-0.17845 2.60235,2.48694 3.38303,8.50324c0.78067,6.0163 1.50987,10.68304 1.50987,10.68304z" data-paper-data="{&quot;index&quot;:null}" fill="#4dffdd" stroke="#000000" stroke-width="1" stroke-linecap="butt"/><path d="M211.73778,120.33295c0,0 -3.4396,-3.0686 -3.96414,-8.62235c-0.29261,-3.09806 2.24942,-2.18879 2.24942,-2.18879" fill="none" stroke="#000000" stroke-width="0.25" stroke-linecap="round"/><path d="M215.0245,113.8077c0.27366,-4.88473 5.20462,-8.72784 10.5698,-8.42728c5.36517,0.30057 8.84337,4.61896 8.56972,9.50371c-0.27366,4.88473 -4.48454,8.61589 -9.84972,8.31534c-5.36517,-0.30057 -9.56346,-4.50702 -9.2898,-9.39176z" fill="#ffffff" stroke="#000000" stroke-width="1.4" stroke-linecap="butt"/><path d="M219.45344,114.1095c0.1543,-2.7544 2.51227,-4.86217 5.26665,-4.70786c2.7544,0.1543 4.86217,2.51227 4.70786,5.26665c-0.1543,2.7544 -2.51226,4.86217 -5.26665,4.70786c-2.7544,-0.1543 -4.86217,-2.51227 -4.70786,-5.26665z" fill="#000000" stroke="none" stroke-width="1.5" stroke-linecap="butt"/><path d="M242.05749,114.93002c0.40599,-4.87553 4.81603,-8.66628 10.1293,-8.44583c5.31326,0.22045 9.10215,4.34713 8.89934,9.23532c-0.20281,4.88819 -4.25854,8.90216 -10.07027,8.73193c-5.52801,-0.16191 -9.38236,-4.42966 -8.95837,-9.52143z" fill="#ffffff" stroke="#000000" stroke-width="1.4" stroke-linecap="butt"/><path d="M246.65274,115.20629c0.11684,-2.81603 2.49439,-5.00415 5.31041,-4.88731c2.81603,0.11684 5.00415,2.49439 4.88731,5.31041c-0.11684,2.81603 -2.49438,5.00415 -5.31041,4.88731c-2.81603,-0.11684 -5.00415,-2.49439 -4.88731,-5.31041z" fill="#000000" stroke="none" stroke-width="1.5" stroke-linecap="butt"/><path d="M214.97819,113.27313c0,0 0.43723,-9.00474 10.95783,-8.37786c9.45599,0.55833 9.15736,9.79526 9.15736,9.79526z" fill="#4dffdd" stroke="#000000" stroke-width="1.15" stroke-linecap="butt"/><path d="M241.69683,114.5127c0,0 0.14543,-9.4603 11.56587,-8.63117c9.6921,0.73588 9.13844,10.03975 9.13844,10.03975z" fill="#4dffdd" stroke="#000000" stroke-width="1.15" stroke-linecap="butt"/><path d="M218.92003,103.41642c0,0 3.44214,-1.67775 8.12012,-1.94684c5.1838,-0.2982 7.7643,0.2558 7.7643,0.2558l0.12331,4.14615c0,0 -3.80403,-0.83906 -7.98945,-0.85306c-5.5975,-0.01872 -6.69857,1.15624 -10.96677,1.43781c-3.65722,0.24126 -6.73802,-0.12058 -6.73802,-0.12058l0.02518,-1.23156c0,0 3.58901,0.22295 5.23204,0.14866c1.3561,-0.06133 4.01117,-0.77246 4.01117,-0.77246z" fill="#000000" stroke="none" stroke-width="1.5" stroke-linecap="butt"/><path d="M266.40297,115.93155c1.27636,-5.93096 2.14688,-8.53317 4.07579,-8.19378c1.9289,0.33939 1.59882,4.31908 0.06551,10.00324c-1.45726,5.4022 -6.53092,8.71178 -6.53092,8.71178c0,0 1.11327,-4.5903 2.38963,-10.52125z" data-paper-data="{&quot;index&quot;:null}" fill="#4dffdd" stroke="#000000" stroke-width="1" stroke-linecap="butt"/><path d="M266.9838,111.88511c0,0 2.60862,-0.69558 2.06037,2.36761c-0.98279,5.49121 -4.66476,8.26434 -4.66476,8.26434" data-paper-data="{&quot;index&quot;:null}" fill="none" stroke="#000000" stroke-width="0.25" stroke-linecap="round"/><g stroke-width="0"><path d="M210.34791,116.45726l-0.09374,-8.41516c0,0 17.31758,-0.24277 28.69091,0.2291c12.07697,0.50107 28.46074,2.1421 28.46074,2.1421l-0.7905,8.37847c0,0 -18.22976,-2.11529 -28.09699,-2.52467c-9.83561,-0.40808 -28.17041,0.19016 -28.17041,0.19016z" fill="#000000" stroke="none" stroke-linecap="butt"/><path d="M223.33855,108.64204c6.59631,0.55709 14.48558,3.12769 14.05135,8.38739c-0.43423,5.2597 -5.64417,11.50814 -15.62381,10.65968c-6.596,-0.56078 -11.71403,-5.88159 -11.2798,-11.14129c0.43423,-5.2597 6.25597,-8.46288 12.85227,-7.90579z" fill="#000000" stroke="#9966ff" stroke-linecap="butt"/><path d="M266.47706,119.0073c-0.00296,5.27759 -5.54416,10.15616 -12.16395,10.16863c-10.01563,0.01886 -14.69007,-6.63967 -14.6871,-11.91727c0.00296,-5.27759 8.07806,-7.18585 14.69784,-7.1946c6.61978,-0.00876 12.15617,3.66565 12.15321,8.94326z" data-paper-data="{&quot;index&quot;:null}" fill="#000000" stroke="#9966ff" stroke-linecap="butt"/><path d="M232.5876,122.86009c-4.62792,4.29472 -11.13558,2.68345 -11.13558,2.68345c0,0 5.83858,-1.74746 9.00286,-5.26278c3.82539,-4.24976 5.35122,-8.0549 5.35122,-8.0549c0,0 0.97776,6.74011 -3.21851,10.63423z" fill="#e6e6e6" stroke="#ffffff" stroke-linecap="round"/><path d="M261.78526,124.47772c-4.62792,4.29472 -11.01543,2.18066 -11.01543,2.18066c0,0 5.033,-1.47621 8.77938,-4.66271c3.93712,-4.54979 5.45455,-8.15218 5.45455,-8.15218c0,0 0.97776,6.74011 -3.21851,10.63423z" fill="#e6e6e6" stroke="#ffffff" stroke-linecap="round"/></g></g></g></svg>