<svg version="1.1" xmlns="http://www.w3.org/2000/svg" xmlns:xlink="http://www.w3.org/1999/xlink" width="99.6916" height="410.56208" viewBox="0,0,99.6916,410.56208"><g transform="translate(-190.71711,-35.64955)"><g stroke-miterlimit="10"><path d="M194.40899,306.61251v-253.22501h91.18203v253.22501z" fill-opacity="0.01" fill="#000000" stroke="none" stroke-width="0" stroke-linecap="butt"/><path d="M195.26516,109.37243c0,0 6.16329,-9.02422 6.29161,-10.34351c0.33654,-3.46017 -0.16776,-61.2191 35.96775,-63.35352c44.63633,-1.39225 39.01489,53.86722 41.53088,64.29297c3.44981,14.29528 6.15664,26.51576 6.15664,26.51576c0,0 -2.76715,-3.1293 -4.0797,-4.7758c-1.2242,-1.53566 -3.80143,-4.7939 -3.80143,-4.7939c0,0 3.09111,15.76927 1.31092,31.53667c-1.5623,14.44788 -7.29782,26.24949 -7.29782,26.24949l-1.15522,-3.57708c0,0 -1.02266,3.3494 -2.16005,5.0787c-1.1374,1.72928 -3.43873,4.43865 -3.43873,4.43865l-0.09205,-5.64477c0,0 -7.0601,16.79004 -24.35066,16.56693c-16.30625,-0.38931 -26.07151,-16.26773 -26.07151,-16.26773l-0.1162,4.04566c0,0 -3.89477,-5.01777 -6.18145,-14.79313c-2.72545,-11.65109 -3.23946,-18.65723 -3.23946,-18.65723c0,0 -2.33908,2.89409 -5.71704,4.22785c-4.23278,1.67129 -6.94665,0.52613 -6.94665,0.52613c0,0 3.60795,-4.14064 5.58396,-7.26874c1.76007,-2.78626 2.64658,-5.14648 2.64658,-5.14648c0,0 -2.10758,1.65295 -4.23277,2.46556c-2.21739,0.84789 -4.03008,0.80907 -4.03008,0.80907c0,0 4.97492,-7.67621 7.03074,-16.57112c1.94102,-8.39823 2.09972,-16.69763 2.09972,-16.69763c0,0 -1.36165,1.00824 -3.33013,1.21168c-1.24776,0.12897 -2.37785,-0.07452 -2.37785,-0.07452z" fill="#000000" stroke="none" stroke-width="1.5" stroke-linecap="butt"/><path d="M200.23704,186.37957c-0.05451,-8.15261 8.18688,-36.76129 40.20201,-36.9211c31.60235,-0.15775 39.85672,29.48704 39.84884,36.89673c-0.06732,40.64593 -6.14054,42.94147 -7.96833,42.95821c-0.85211,0.0078 -2.03287,-39.7187 -2.03287,-39.7187c0,0 0.07549,-3.0993 -2.81625,-3.15415c-3.43441,-0.06514 -2.94538,3.11562 -2.94538,3.11562c0,0 -17.5027,17.3243 -17.47931,30.39698c0.03786,21.16531 17.68479,84.47297 17.68479,84.47297c0,0 -16.13822,-51.92225 -24.18718,-51.91019c-8.02217,0.01202 -24.02648,51.98241 -24.02648,51.98241c0,0 17.05922,-62.02671 17.00305,-83.22082c-0.04014,-15.14759 -17.30844,-32.01227 -17.30844,-32.01227c0,0 0.27949,-2.919 -2.8856,-2.93443c-3.11083,-0.01515 -2.81569,2.90899 -2.81569,2.90899c0,0 -1.44008,41.30996 -3.04517,41.32383c-1.66997,0.01443 -7.07,-20.55594 -7.22799,-44.18408z" fill="#ffffff" stroke="#000000" stroke-width="2" stroke-linecap="butt"/><path d="M212.38192,95.34957c-0.57709,-7.29323 0.335,-17.15448 0.335,-17.15448c0,0 3.41059,-0.04124 13.91429,-3.14424c8.0696,-2.38394 20.54731,-9.48722 20.54731,-9.48722c0,0 -2.16005,3.00503 -3.40781,4.46015c-1.32651,1.54696 -3.99292,4.56297 -3.99292,4.56297c0,0 7.838,-1.66761 14.67476,-4.72931c8.56837,-3.53575 10.59252,-6.05309 12.95042,-4.5927c2.7829,1.72362 1.03006,23.1827 0.71846,28.74062c-0.42163,5.66922 -2.53327,9.49969 -3.15031,12.52053c-0.61704,3.02084 20.76601,3.82054 18.96939,13.72362c-0.99895,5.50632 -15.34065,40.91146 -22.59921,52.84055c-0.88834,1.45995 -1.67059,3.546 -2.30931,4.17148c-5.85759,5.73616 -12.36247,6.27493 -16.32228,6.34391c-3.81077,0.06639 -13.56781,-1.46064 -18.56758,-6.74288c-5.32393,-5.62474 -25.41834,-46.19619 -26.25896,-52.85881c-0.75707,-6.00039 17.42126,-12.88635 17.07513,-18.22617c-0.25298,-3.90273 -2.26119,-6.44504 -2.57636,-10.42801z" fill="#ffffff" stroke="#000000" stroke-width="1.5" stroke-linecap="butt"/><path d="M260.45192,80.22921c0,0 1.52429,0.31807 4.2558,1.11029c2.49492,0.72361 4.44935,1.74403 4.44935,1.74403l0.1951,1.17035c0,0 -7.24963,-3.12997 -15.1158,-2.4706c-6.2896,0.52724 -9.96319,2.8124 -9.96319,2.8124l0.04575,-4.17683c0,0 3.12748,-1.70421 7.86366,-1.85557c4.90428,-0.15672 8.09084,0.59125 8.09084,0.59125z" fill="#000000" stroke="none" stroke-width="1.5" stroke-linecap="butt"/><path d="M214.08156,105.47279c0,0 -4.93211,-3.51705 -6.16417,-8.97502c-1.29636,-5.74284 -1.46118,-9.7328 0.48013,-9.99193c1.94131,-0.25915 2.70321,2.37692 3.73262,8.35569c1.0294,5.97877 1.95143,10.61127 1.95143,10.61127z" fill="#ffffff" stroke="#000000" stroke-width="1" stroke-linecap="butt"/><path d="M213.87897,101.52523c0,0 -3.56385,-2.92338 -4.31816,-8.45061c-0.42079,-3.08327 2.15675,-2.28016 2.15675,-2.28016" fill="none" stroke="#000000" stroke-width="0.25" stroke-linecap="round"/><path d="M216.89237,94.86933c0.07093,-4.89188 4.83834,-8.93609 10.21137,-8.8582c5.37302,0.0779 9.02724,4.2484 8.95632,9.14029c-0.07093,4.89188 -4.12352,8.79439 -9.49655,8.7165c-5.37302,-0.0779 -9.74207,-4.1067 -9.67114,-8.99859z" fill="#ffffff" stroke="#000000" stroke-width="1.4" stroke-linecap="butt"/><path d="M221.33001,94.98727c0.03999,-2.75843 2.30855,-4.96213 5.06696,-4.92214c2.75843,0.03999 4.96213,2.30855 4.92214,5.06696c-0.03999,2.75843 -2.30854,4.96213 -5.06696,4.92214c-2.75843,-0.03999 -4.96213,-2.30855 -4.92214,-5.06696z" fill="#000000" stroke="none" stroke-width="1.5" stroke-linecap="butt"/><path d="M243.94865,94.87006c0.20353,-4.88817 4.45264,-8.85847 9.77048,-8.85847c5.31783,0 9.27453,3.96607 9.27453,8.85847c0,4.8924 -3.88585,9.07104 -9.69964,9.14188c-5.52997,0.06739 -9.55792,-4.03692 -9.34537,-9.14188z" fill="#ffffff" stroke="#000000" stroke-width="1.4" stroke-linecap="butt"/><path d="M248.5514,94.95561c0,-2.81845 2.2848,-5.10325 5.10325,-5.10325c2.81845,0 5.10325,2.2848 5.10325,5.10325c0,2.81845 -2.28479,5.10325 -5.10325,5.10325c-2.81845,0 -5.10325,-2.2848 -5.10325,-5.10325z" fill="#000000" stroke="none" stroke-width="1.5" stroke-linecap="butt"/><path d="M216.82394,94.33715c0,0 0.06357,-9.01512 10.60111,-8.8249c9.47101,0.16586 9.55554,9.40723 9.55554,9.40723z" fill="#ffffff" stroke="#000000" stroke-width="1.15" stroke-linecap="butt"/><path d="M243.571,94.46805c0,0 -0.24686,-9.4582 11.19813,-9.1032c9.71427,0.33347 9.54677,9.65229 9.54677,9.65229z" fill="#ffffff" stroke="#000000" stroke-width="1.15" stroke-linecap="butt"/><path d="M220.35379,84.32549c0,0 3.36963,-1.819 8.03244,-2.28178c5.16698,-0.51283 7.76823,-0.06628 7.76823,-0.06628l0.29508,4.13747c0,0 -3.83554,-0.68065 -8.01795,-0.52113c-5.59346,0.21333 -6.64488,1.43293 -10.89774,1.89119c-3.64408,0.39266 -6.73723,0.15884 -6.73723,0.15884l-0.02589,-1.23155c0,0 3.59517,0.07398 5.23371,-0.06836c1.35239,-0.11749 3.9757,-0.93808 3.9757,-0.93808z" fill="#000000" stroke="none" stroke-width="1.5" stroke-linecap="butt"/><path d="M268.31472,94.86152c1.0294,-5.97877 1.7913,-8.61483 3.73262,-8.35569c1.94131,0.25914 1.77649,4.24909 0.48013,9.99193c-1.23206,5.45797 -6.16417,8.97502 -6.16417,8.97502c0,0 0.92203,-4.6325 1.95143,-10.61127z" fill="#ffffff" stroke="#000000" stroke-width="1" stroke-linecap="butt"/><path d="M268.72731,90.79446c0,0 2.57754,-0.80312 2.15675,2.28016c-0.75431,5.52723 -4.31816,8.45061 -4.31816,8.45061" fill="none" stroke="#000000" stroke-width="0.25" stroke-linecap="round"/><g stroke="none" stroke-width="0" stroke-linecap="butt"><path d="M190.71711,112.35854c0,0 7.45703,-1.38101 13.8092,-3.34636c5.60549,-1.73433 13.65068,-4.40002 13.65068,-4.40002c0,0 7.42309,0.91095 11.17738,1.45746c3.81221,0.55494 11.52479,1.8473 11.52479,1.8473c0,0 12.36588,-1.48544 18.97232,-0.43317c4.18483,0.66658 29.05615,12.84786 29.05615,12.84786c0,0 -22.73541,31.62182 -46.14199,29.99538c-38.45665,-2.67222 -52.04853,-37.96844 -52.04853,-37.96844z" fill="#000000"/><path d="M195.79089,115.90557c0,0 17.3006,3.02214 25.58847,4.81252c7.93352,1.71384 23.12217,5.71015 23.12217,5.71015c0,0 11.84727,-2.43727 18.26868,-3.14574c6.40659,-0.70684 20.21545,-0.761 20.21545,-0.761c0,0 -3.80047,5.78588 -11.43175,11.45346c-7.41607,5.50772 -18.51593,10.56444 -28.77284,10.43007c-30.60714,-0.40099 -46.99018,-28.49946 -46.99018,-28.49946z" fill="#ffffff"/><path d="M202.57645,113.19138c0,0 11.00431,-3.55188 16.45505,-3.73206c5.45073,-0.18018 23.24063,2.20531 23.24063,2.20531c0,0 11.02557,-1.72327 16.4027,-0.45642c5.42286,1.27764 15.65918,7.41165 15.65918,7.41165c0,0 -10.33237,-0.06297 -15.26641,0.35298c-5.33293,0.44957 -15.62761,2.25145 -15.62761,2.25145c0,0 -12.87176,-2.72139 -19.71809,-4.15003c-7.30991,-1.52539 -21.14544,-3.88288 -21.14544,-3.88288z" fill="#ffffff"/></g><g stroke="none" stroke-width="0" stroke-linecap="butt"><g><path d="M209.05839,435.72632c-10.46308,-12.63733 -12.44217,-32.03014 -14.30001,-44.78901c-0.93703,-6.43528 -3.74119,-12.49005 -3.74119,-12.49005c0,0 9.8116,-6.44876 19.24931,-12.00998c5.47407,-3.22559 11.49918,-7.29613 13.64173,-7.37501c4.59022,-0.16897 19.96095,5.87219 19.96095,5.87219c0,0 12.50972,-7.4791 18.5876,-5.59446c5.00139,1.55084 12.2362,7.58367 18.33715,12.62383c5.11878,4.22872 9.61478,7.71265 9.61478,7.71265c0,0 -1.9165,11.94923 -2.12032,17.9873c-0.42898,12.70982 -3.15923,26.32354 -13.36176,37.37562c-6.79091,7.35643 -17.94463,11.23061 -31.17078,11.17156c-13.64177,-0.06091 -28.46462,-2.95654 -34.69753,-10.48463z" fill="#000000"/><path d="M211.98432,431.83046c-7.54663,-9.69898 -9.77582,-26.33985 -11.73683,-37.66506c-0.87239,-5.03825 -3.3898,-11.62616 -3.3898,-11.62616c0,0 5.1259,-0.06385 9.61435,5.19711c4.55793,5.34238 7.94997,14.89895 10.94878,21.59816c3.48504,7.7854 7.22786,12.37963 24.00516,12.47435c33.74262,0.19047 23.75893,-21.14673 33.27927,-32.41608c4.46578,-5.28618 10.25601,-5.49403 10.25601,-5.49403c0,0 -1.99135,7.72348 -2.37924,15.60473c-0.49634,10.08464 -1.43088,21.67883 -10.04455,31.08588c-8.61367,9.40705 -18.64959,10.73447 -29.28582,10.7898c-15.38632,0.08005 -26.96401,-4.01804 -31.2673,-9.54871z" fill="#ffffff"/><path d="M199.62827,378.05087c0,0 16.27482,-11.97635 23.92905,-13.68705c7.00594,-1.56584 22.17175,5.28186 22.17175,5.28186c0,0 10.38503,-6.87699 14.75128,-5.78685c6.45685,1.61211 22.79738,15.75158 22.79738,15.75158c0,0 -6.37276,0.86203 -15.12482,-0.89171c-7.96065,-1.59516 -15.50004,-5.99225 -23.87922,-6.09019c-5.97714,-0.06986 -16.39779,3.78091 -24.4708,4.86802c-11.24778,1.51458 -20.1746,0.55432 -20.1746,0.55432z" fill="#ffffff"/><path d="M220.59065,405.28987c0,0 2.10648,0.48995 3.44935,1.2296c3.70915,2.04296 10.45409,5.88866 18.76509,5.7927c9.25741,-0.10688 15.23845,-3.44208 18.4514,-5.35831c1.38597,-0.82662 2.86267,-1.27524 2.86267,-1.27524c0,0 -0.5495,5.76816 -7.44573,9.05409c-3.1464,1.4992 -7.03945,1.29882 -13.8186,1.88673c-6.93994,0.60184 -11.89949,-0.6276 -15.20854,-2.60304c-5.6216,-3.35595 -7.05559,-8.72651 -7.05559,-8.72651z" fill="#ffffff"/><path d="M221.35706,381.58795c0,0 13.47197,-4.09204 22.08501,-4.19147c8.61302,-0.09943 22.19812,5.61127 22.19812,5.61127l-44.28313,-1.41982z" fill="#ffffff"/></g><path d="M241.58554,399.55418c0.4517,-0.00727 2.77149,3.37981 2.77149,3.37981c0,0 -0.02517,-3.40985 0.64911,-3.40827c7.97037,0.01901 14.34508,0.71527 14.36235,2.2105c0.01872,1.62171 -7.44829,3.56912 -16.34884,3.67188c-8.90056,0.10276 -16.41052,-1.67174 -16.57054,-3.70159c-0.12088,-1.53343 6.8261,-2.01872 15.13644,-2.15238z" fill="#ffffff"/></g><path d="M240.01406,167.12789c-1.03376,0 -3.5381,-3.26042 -3.7867,-5.3637c-0.22243,-1.88186 1.31512,-3.82799 3.7867,-3.82799c2.47159,0 4.2021,0.49077 4.02999,4.18853c-0.14607,3.13818 -1.55841,5.00317 -4.02999,5.00317z" fill="#ffffff" stroke="#000000" stroke-width="1.15" stroke-linecap="butt"/><path d="M243.61617,94.68295c0,0 0.1026,9.2393 0.00576,16.58665c-0.19174,14.54901 -1.08147,64.61085 -1.08147,64.61085l-2.98167,0.02011c0,0 -0.80294,-9.71172 -1.12322,-22.11002c-0.43353,-16.78218 -0.4495,-37.92117 -0.76344,-45.69261c-0.29758,-7.36659 -0.89593,-13.30012 -0.89593,-13.30012" fill="#ffffff" stroke="#000000" stroke-width="1.3" stroke-linecap="round"/></g></g></svg>