<svg version="1.1" xmlns="http://www.w3.org/2000/svg" xmlns:xlink="http://www.w3.org/1999/xlink" width="105.76092" height="211.04289" viewBox="0,0,105.76092,211.04289"><g transform="translate(-191.34453,-105.82635)"><g stroke="none" stroke-miterlimit="10"><g stroke-width="1"><path d="M283.67917,222.40367c0.57154,0.66555 1.00332,1.8899 1.29532,3.67308l1.99082,13.03472c0.84666,4.91 1.37515,8.64587 1.58546,11.2076c0.46362,3.34031 0.82866,8.47006 1.09511,15.38925l0.24396,23.73374c-0.4685,4.90999 -1.04652,8.4261 -1.73404,10.54833c-0.3954,1.3311 -0.79741,2.32942 -1.20604,2.99497l-2.35918,3.0138c-2.86602,2.90079 -5.10043,4.96651 -6.7032,6.19715c-2.67316,2.10967 -5.32023,3.44704 -7.94121,4.01213l-5.60161,0.48975c-17.16223,0.56509 -31.34482,-0.26999 -42.54775,-2.50522c-5.2125,-1.0046 -9.23246,-2.45499 -12.05988,-4.35118c-1.80437,-1.10507 -3.16854,-2.21641 -4.09249,-3.33403c-1.48662,-1.23064 -2.9262,-2.85056 -4.31874,-4.85976c-1.86917,-2.78777 -3.25022,-7.07617 -4.14314,-12.86519c-0.98831,-5.68856 -1.55765,-10.48555 -1.70805,-14.39094c-0.33459,-5.78902 0.18582,-15.15066 1.56123,-28.08492c0.50703,-4.23189 0.99481,-7.35244 1.46336,-9.36164c2.13604,-7.35871 3.45765,-12.99077 3.96484,-16.89616c0.16772,-1.44412 0.40626,-2.49895 0.71563,-3.1645c0.49853,-1.23064 1.24191,-1.90246 2.23013,-2.01548c0.4576,-0.059 0.98078,0.0052 1.56959,0.1926c13.59092,7.69359 27.86801,13.22408 43.86662,13.43071c7.03905,0.09091 15.40124,0.39872 22.12471,-2.25874c3.21667,-1.2714 6.81688,-2.67735 10.14938,-4.4879c0.20189,0.19431 0.3883,0.41359 0.55919,0.65786z" fill="#cccccc"/><path d="M288.30764,218.39153c0.22293,5.78902 1.57575,19.33232 4.05845,40.6299c0.45992,3.56634 0.80786,6.96315 1.0438,10.19044c0.13343,0.56509 0.21513,1.23692 0.24511,2.01549l0.0515,1.33738c0.82885,10.24694 1.10982,18.99327 0.84293,26.23896l-0.10947,1.50691c-0.16288,1.56969 -0.39281,2.68731 -0.68977,3.35286c-0.82095,1.55714 -2.11234,2.3357 -3.87417,2.3357c-1.77052,-0.22604 -3.02077,-1.11761 -3.75072,-2.67475c-0.35692,-0.89159 -0.44523,-1.89619 -0.26495,-3.01381l0.20752,-7.17663c0.38186,-1.68271 0.6611,-2.96985 0.83768,-3.86144c0.57134,-2.56173 0.78834,-5.62577 0.651,-9.19212c-0.02563,-0.66555 -0.2038,-3.8426 -0.53453,-9.53117c-0.2316,-3.11427 -0.58138,-6.39807 -1.04935,-9.85138l-4.092,-37.63493c-4.49878,3.35286 -9.63389,5.80786 -15.40531,7.36499c-6.86696,1.78317 -15.6698,1.94642 -26.4085,0.48974c-10.74693,-1.67015 -19.21393,-4.06236 -25.40098,-7.17663c-3.48065,-1.78317 -6.58539,-3.79237 -9.3142,-6.02761c-3.94947,14.71743 -6.31582,30.43319 -7.09901,47.14726c0.35675,0.56509 0.57165,1.79573 0.64467,3.69191c-0.12899,5.34951 0.04898,11.42107 0.53392,18.2147c0.15035,1.0046 0.37185,2.56802 0.66449,4.69024c0.88096,2.90079 1.23531,4.85349 1.06308,5.85809c-0.28808,1.21808 -0.80588,2.10966 -1.55337,2.67475c-0.30936,0.66555 -0.90015,1.11134 -1.77236,1.33738c-1.18222,0.55253 -2.35326,0.10674 -3.51311,-1.33738c-0.12036,-0.22604 -0.24291,-0.50858 -0.36764,-0.84763c-0.35627,-0.55253 -0.65487,-1.21808 -0.89577,-1.99665c-0.01306,-0.33905 -0.07977,-0.6216 -0.20014,-0.84763c-0.92351,-4.00585 -1.40432,-9.24234 -1.44244,-15.70947c-0.26166,-9.69441 0.21572,-20.17368 1.43211,-31.43778c1.24186,-10.92506 3.23611,-22.12637 5.98279,-33.60396c0.19165,-1.00093 0.43925,-1.84178 0.74281,-2.52254c0.00694,0.00204 0.01388,0.00407 0.02082,0.00611c1.52779,0.44836 3.08597,0.52953 4.65434,0.4507c14.41122,8.50606 29.52471,14.79041 46.59899,15.01093c7.03905,0.09091 15.40124,0.39872 22.12471,-2.25874c4.99998,-1.97625 10.92665,-4.27761 15.33412,-7.91827c0.00098,0.02534 0.00195,0.05071 0.00293,0.0761z" fill="#000000"/></g><path d="" fill="#000000" stroke-width="1"/><path d="" fill="#000000" stroke-width="1"/><path d="" fill="#000000" stroke-width="1"/><path d="" fill="#000000" stroke-width="1"/><path d="" fill="#000000" stroke-width="1"/><g stroke-width="1"><path d="" fill="#000000"/><path d="" fill="#000000"/><path d="" fill="#000000"/><path d="" fill="#000000"/><path d="" fill="#e16f6f"/><path d="" fill="#c2e16f"/><path d="" fill="#6f7ce1"/></g><path d="M286.04999,168.9372c2.31632,4.95336 4.2644,11.59942 5.84425,19.93817c0.52266,3.68236 0.78399,5.89177 0.78399,6.62824c0.10691,1.48482 -0.04751,3.4923 -0.46326,6.02243c-0.95028,6.85393 -2.6905,12.07456 -5.22063,15.66189c-2.42323,3.48042 -6.96084,7.22217 -13.61284,11.22525l-4.57919,2.6905c-5.38099,2.53013 -12.65661,3.58139 -21.82687,3.15376c-1.27101,0 -3.17158,-0.10097 -5.70171,-0.3029c-3.05279,-0.32072 -7.53101,-1.11659 -13.43466,-2.38759c-1.68676,-0.30884 -3.21909,-0.62362 -4.59701,-0.94435c1.48482,0.42763 3.01716,0.84932 4.59701,1.26507l6.16498,1.58579c3.69423,0.95028 6.22437,1.47888 7.5904,1.58579c1.27101,0.20194 3.27255,0.3029 6.00462,0.3029h15.98261c1.90057,-0.41575 3.95556,-1.3601 6.16498,-2.83304c2.63704,-1.68676 4.37725,-2.63704 5.22063,-2.85086c2.36795,-0.58921 4.09082,-0.2108 5.16861,1.13523c-0.15697,0.12858 -0.30888,0.25269 -0.45541,0.37148c-1.30186,1.05536 -2.86346,1.18124 -3.98494,2.28503c-0.18242,0.17954 -0.44103,0.60832 -0.72965,1.16006c-2.09414,0.71038 -4.12598,1.21115 -5.55158,1.32082c-3.11296,0.23946 -6.03424,2.82689 -9.14329,2.99331c-5.19864,0.27827 -10.56915,0.84272 -15.95195,1.14439c-6.20873,-2.02186 -13.1717,-1.57372 -19.385,-3.62974c-1.90523,-0.63045 -4.98579,-0.41938 -6.66471,-1.58812c-4.65513,-3.24057 -9.45221,-6.04552 -14.12814,-9.16281c-0.1004,-0.15855 -0.20623,-0.31333 -0.31721,-0.46407c0.48615,-0.75948 1.10864,-1.18191 1.86747,-1.26728c0.84338,-0.10691 1.90057,0.21381 3.17158,0.96216c-2.85086,-1.90057 -5.22657,-4.11592 -7.12714,-6.64606c-1.57985,-2.22129 -3.1597,-5.38693 -4.73955,-9.49691l-1.26507,-3.95556c-0.10691,-0.52266 -0.16036,-2.31632 -0.16036,-5.38099l0.32072,-5.84425c0.41575,-6.33128 0.94435,-11.07676 1.58579,-14.23646c1.04531,-5.16718 2.77958,-9.54443 5.20281,-13.13176c0.84338,-1.15222 2.7974,-3.522 5.86207,-7.10932c0.95028,-1.1641 3.53387,-4.32974 7.75076,-9.49691c1.05719,-1.47294 1.90057,-2.42323 2.53013,-2.85086c0.32072,-0.20194 1.58579,-0.72459 3.7952,-1.56797c5.68983,-1.48482 9.96018,-2.43511 12.81103,-2.85086c7.06775,-0.95028 13.92168,-0.74241 20.5618,0.62362c2.31632,0.53454 4.37131,1.22349 6.16498,2.06687l3.17158,1.72833c9.69291,6.43818 16.6003,13.82071 20.72216,22.14759z" fill="#cccccc" stroke-width="1"/><path d="M259.30537,139.1992c6.96084,2.42323 13.29212,6.4857 18.99383,12.18741c5.2622,5.27408 9.58006,11.49251 12.95358,18.65529c3.38539,6.96084 5.28596,13.92168 5.70171,20.88252c0.84338,11.07082 -1.84712,21.0904 -8.07149,30.05871c-1.25913,1.79366 -2.57765,3.48042 -3.95556,5.06027c0,0.3666 0,0.73782 0,1.11366c-2.04493,1.34858 -3.88001,2.91974 -5.24698,4.02789c-0.34258,0.27771 -0.70314,0.49107 -1.06894,0.67481l-0.00941,-0.13246c-0.1911,0.13679 -0.38326,0.272 -0.5765,0.40563c-0.83428,0.36771 -1.6606,0.67813 -2.33008,1.33705c-0.0702,0.06909 -0.15167,0.17508 -0.2418,0.31079c-0.95262,0.56417 -1.92896,1.09338 -2.929,1.58764c-1.17713,0.30922 -2.25334,0.51652 -3.11043,0.58245c-3.11296,0.23946 -6.03424,2.82689 -9.14329,2.99331c-4.5066,0.24123 -9.14237,0.69752 -13.80334,1.01124c-1.13084,-0.0635 -2.28867,-0.15006 -3.47347,-0.25966c-4.00072,-1.07704 -8.26217,-1.3016 -12.40063,-1.94287c-6.03007,-1.29416 -11.07989,-2.89135 -15.14945,-4.79158c-3.75554,-2.47266 -7.56788,-4.7634 -11.30291,-7.25342c-0.13591,-0.21462 -0.28174,-0.42232 -0.43687,-0.62246c-0.36799,-1.47195 -1.71153,-2.86377 -3.30211,-3.93178c-1.47869,-1.91382 -2.72089,-3.97813 -3.72659,-6.19294c-2.20941,-5.16718 -3.21315,-13.07236 -3.01122,-23.71556c0.21381,-7.80422 0.90277,-13.86823 2.06687,-18.19202c2.20941,-7.91113 6.64012,-15.02639 13.29212,-21.34578c5.79674,-5.4879 12.96546,-9.86515 21.50614,-13.13176c4.84646,-1.90057 8.95644,-2.7974 12.32995,-2.6905c1.68676,0 3.58733,0.26133 5.70171,0.78399zM269.28339,152.01024c-7.06775,-5.58293 -14.81851,-8.5882 -23.25229,-9.01583c-5.06027,-0.30884 -9.85921,0.38011 -14.39682,2.06687c-5.16718,1.68676 -10.38781,4.793 -15.66189,9.31874c-4.10998,3.48042 -7.27562,6.96084 -9.49691,10.44126c-4.10998,6.33128 -6.37285,15.71534 -6.7886,28.1522c-0.21381,8.54069 0.89089,15.29365 3.31412,20.2589c3.06467,5.90365 8.02397,10.54223 14.8779,13.91574c4.95336,2.42323 11.48657,4.21689 19.59963,5.38099c9.9186,1.57985 17.98415,1.5264 24.19664,-0.16036c6.54509,-1.57985 12.34777,-4.85239 17.40804,-9.81764c5.06027,-4.95336 8.48724,-10.69665 10.2809,-17.22986c2.85086,-10.65507 1.37197,-21.93971 -4.43664,-33.85391z" fill="#000000" stroke-width="1"/><path d="M260.73082,173.37384l1.58579,-0.8018l0.94435,-0.16036l0.48108,-0.14254c0.73647,-0.21381 1.36604,-0.11285 1.88869,0.3029l0.64144,0.32072c0.32072,0.32072 0.48108,0.53454 0.48108,0.64144l0.46326,0.3029l0.16036,0.48108l0.16036,1.26507l0.16036,0.32072v0.62362l0.16036,1.10471c0.20194,0.32072 0.20194,0.64144 0,0.96216l-0.16036,0.46326l-0.32072,0.32072l-0.16036,0.32072l-0.62362,0.62362l-0.64144,0.48108l-0.62362,0.32072h-3.17158l-0.62362,-0.16036l-0.32072,-0.32072c-0.10691,0 -0.32072,-0.16036 -0.64144,-0.48108l-0.62362,-0.62362l-0.32072,-1.10471h-0.16036v-3.01122l0.16036,-0.48108z" fill="#000000" stroke-width="1"/><path d="M225.30894,170.20226h1.26507l0.62362,0.16036l0.64144,0.32072c0.41575,0.41575 0.67708,0.62362 0.78399,0.62362l0.32072,0.64144h0.16036c-0.10691,0.10691 -0.05345,0.26133 0.16036,0.46326v0.32072l0.16036,0.64144l-0.16036,0.62362v0.48108l-0.16036,0.46326h-0.16036l-0.16036,0.8018h-0.16036l-0.32072,0.62362l-0.3029,0.96216l-0.32072,0.14254l-0.64144,0.64144l-2.04905,0.78399h-1.26507c-0.62956,0 -1.10471,-0.10097 -1.42543,-0.3029l-0.62362,-0.32072c-0.32072,-0.32072 -0.53454,-0.48108 -0.64144,-0.48108l-0.16036,-0.32072v-0.3029l-0.3029,-0.32072v-0.94435l-0.16036,-0.32072c0.10691,-0.32072 0.16036,-0.58205 0.16036,-0.78399v-0.64144l0.46326,-0.94435c0.42763,0 0.64144,-0.21381 0.64144,-0.64144h0.16036c0.30884,-0.30884 0.46326,-0.57017 0.46326,-0.78399l0.48108,-0.32072l2.04905,-1.10471z" fill="#000000" stroke-width="1"/><g stroke-width="1"><path d="M210.28849,163.09294l-0.32072,0.16036c-0.10691,-0.10691 -0.16036,-0.26727 -0.16036,-0.48108c0.10691,0.21381 0.26727,0.32072 0.48108,0.32072M251.55463,139.51993c-0.10691,0.62956 -0.42169,1.31258 -0.94435,2.04905l0.16036,0.16036c-0.21381,0.10691 -0.42763,0.32072 -0.64144,0.64144c-1.25913,0.95028 -2.31038,1.84712 -3.15376,2.6905c-0.62956,0.41575 -1.21161,0.83744 -1.74615,1.26507c-0.10691,0 -0.20788,0 -0.3029,0l-1.12252,0.46326l-1.72833,1.12252l-0.32072,0.3029l-0.48108,0.16036l-3.7952,2.36977l-2.83304,0.8018c-0.21381,0.20194 -0.32072,0.46326 -0.32072,0.78399c-0.32072,0.10691 -0.6355,0.26727 -0.94435,0.48108l-0.48108,-0.32072l-1.74615,0.16036l-1.10471,0.32072l-0.16036,0.14254h-0.32072l-6.32534,3.17158v0.32072c0,0.10691 0,0.26133 0,0.46326c-0.41575,0 -0.83744,0.10691 -1.26507,0.32072l-0.14254,0.16036h-0.32072c-0.73647,0.21381 -1.37197,0.42763 -1.90651,0.64144l-1.42543,0.46326c-0.62956,0.10691 -1.20568,0.10691 -1.72833,0l-2.22723,0.32072c0.21381,-0.21381 0.48108,-0.37417 0.8018,-0.48108c-0.84338,0.10691 -1.57985,0.10691 -2.20941,0c-0.74835,-0.20194 -1.43731,-0.67708 -2.06687,-1.42543c-0.52266,-0.52266 -0.9978,-1.09877 -1.42543,-1.72833c-0.84338,-1.1641 -1.41949,-2.48262 -1.72833,-3.95556c-0.21381,-0.84338 -0.53454,-3.00528 -0.96216,-6.4857c0,-0.10691 0,-0.21381 0,-0.32072c0,-0.10691 -0.05345,-0.16036 -0.16036,-0.16036c-0.41575,-2.83898 -0.78399,-5.2622 -1.10471,-7.26968l-1.26507,-12.49031l1.26507,-4.59701l0.96216,-1.88869l0.62362,-8.71293c0.32072,-0.30884 0.53454,-0.62362 0.64144,-0.94435c0.10691,-0.10691 0.20788,-0.26133 0.3029,-0.46326c0.10691,-0.10691 0.26727,-0.26727 0.48108,-0.48108c0.10691,-0.32072 0.36824,-0.6355 0.78399,-0.94435l0.32072,-0.16036h0.16036c0.32072,-0.32072 0.6355,-0.53454 0.94435,-0.64144l4.27628,1.42543c0,0.10691 0.05345,0.16036 0.16036,0.16036v0.16036c0,0.10691 0.05345,0.16036 0.16036,0.16036h0.16036l2.53013,1.72833c0.20194,0.10691 0.51672,0.21381 0.94435,0.32072l0.16036,0.32072l1.72833,1.26507l6.64606,3.95556c0.84338,0.73647 1.68676,1.5264 2.53013,2.36977c2.63704,2.20941 6.4857,5.68983 11.54597,10.44126c4.95336,4.21689 7.5904,6.43224 7.91113,6.64606c1.57985,1.90057 2.31632,3.48042 2.20941,4.73955M222.93916,118.47704c-2.63704,-2.20941 -5.16718,-4.05059 -7.5904,-5.52353c-0.74835,-0.53454 -1.54421,-0.95623 -2.38759,-1.26507c-0.09503,0.41575 -0.196,0.89089 -0.3029,1.42543l-0.32072,0.3029c-0.10691,0 -0.32072,0.16036 -0.64144,0.48108l-0.3029,0.16036c-0.42763,1.90057 -0.84932,4.00902 -1.26507,6.32534c0.10691,0 0.16036,0.05345 0.16036,0.16036c-0.32072,1.79366 -0.53454,3.64078 -0.64144,5.54135c0,1.04531 0.21381,3.41509 0.64144,7.10932l1.10471,6.4857l0.94435,5.38099c0.32072,1.79366 0.68896,3.32006 1.10471,4.57919c0.32072,1.57985 0.68896,2.79146 1.10471,3.63484l0.48108,0.48108c0.21381,0 0.5286,-0.10691 0.94435,-0.32072c2.85086,-1.90057 6.43818,-3.74175 10.76198,-5.52353l2.83304,-1.12252l8.55257,-3.31412c3.1597,-1.05719 5.47602,-2.26881 6.94896,-3.63484c0.32072,-0.21381 0.53454,-0.48108 0.64144,-0.8018c0,-0.30884 -0.16036,-0.62362 -0.48108,-0.94435c-2.20941,-1.79366 -4.1575,-3.37351 -5.84425,-4.73955c-3.06467,-2.74395 -5.44038,-4.90585 -7.12714,-6.4857c-0.84338,-0.73647 -1.5264,-1.47294 -2.04905,-2.20941c-1.90057,-1.68676 -3.58733,-3.11219 -5.06027,-4.27628c-0.73647,-0.84338 -1.47294,-1.47888 -2.20941,-1.90651M227.03727,150.58479c0.42763,-0.20194 0.8018,-0.40981 1.12252,-0.62362c-0.32072,0.10691 -0.64144,0.26727 -0.96216,0.48108c-1.9956,0.52266 -3.36163,0.99186 -4.09811,1.40761c-0.53454,0.32072 -0.90871,0.53454 -1.12252,0.64144c1.68676,-0.62956 3.37351,-1.26507 5.06027,-1.90651z" fill="#000000"/><path d="M212.65826,113.11387c0.10691,-0.53454 0.20788,-1.00968 0.3029,-1.42543c0.84338,0.30884 1.63924,0.73053 2.38759,1.26507l-5.06027,7.5904c0,-0.10691 -0.05345,-0.16036 -0.16036,-0.16036c0.41575,-2.31632 0.83744,-4.42477 1.26507,-6.32534l0.3029,-0.16036c0.32072,-0.32072 0.53454,-0.48108 0.64144,-0.48108l0.32072,-0.3029M230.20885,124.65984l-16.7666,24.98063c-0.41575,-1.25913 -0.78399,-2.78552 -1.10471,-4.57919l-0.94435,-5.38099l13.75538,-19.29673c1.47294,1.1641 3.1597,2.58953 5.06027,4.27628M245.06893,139.84065c-1.47294,1.36604 -3.78926,2.57765 -6.94896,3.63484l-8.55257,3.31412l9.81764,-13.43466c1.68676,1.36604 3.63484,2.94588 5.84425,4.73955c0.32072,0.32072 0.48108,0.6355 0.48108,0.94435c-0.10691,0.32072 -0.32072,0.58799 -0.64144,0.8018z" fill="#e16f6f"/><path d="M239.38504,133.35494l-9.81764,13.43466l-2.83304,1.12252c-4.3238,1.78178 -7.91113,3.62296 -10.76198,5.52353c-0.41575,0.21381 -0.73053,0.32072 -0.94435,0.32072l-0.48108,-0.48108c-0.41575,-0.84338 -0.78399,-2.05499 -1.10471,-3.63484l16.7666,-24.98063c0.52266,0.73647 1.20568,1.47294 2.04905,2.20941c1.68676,1.57985 4.06247,3.74175 7.12714,6.4857z" fill="#c2e16f"/><path d="M211.3932,139.68029l-1.10471,-6.4857c-0.42763,-3.69423 -0.64144,-6.06401 -0.64144,-7.10932c0.10691,-1.90057 0.32072,-3.74769 0.64144,-5.54135l5.06027,-7.5904c2.42323,1.47294 4.95336,3.31412 7.5904,5.52353c0.73647,0.42763 1.47294,1.06313 2.20941,1.90651z" fill="#6f7ce1"/></g><path d="M226.71342,212.25838c3.94526,1.35296 8.20058,1.99775 12.39981,2.08296c1.53261,0.0311 5.34883,-0.28005 5.47565,2.0026c0.20826,3.74868 -2.99291,3.12798 -5.7232,2.9974c-4.77989,-0.22861 -9.14494,-0.88452 -13.68754,-2.3617c-0.74685,-0.24286 -4.91079,-1.34545 -5.41761,-2.23238c-0.73685,-0.43488 -1.23117,-1.23698 -1.23117,-2.15454c0,-1.38071 1.11929,-2.5 2.5,-2.5c1.61972,-0.29562 4.15377,1.64087 5.68406,2.16566z" fill="#ffffff" stroke-width="0.5"/><path d="M218.82324,201.04496c2.20941,4.43071 4.63264,7.43598 7.26968,9.01583c3.26661,2.11439 8.74856,3.326 16.44588,3.63484c2.63704,0.21381 5.32754,0.32072 8.07149,0.32072c1.47294,0 3.10624,-0.05345 4.89991,-0.16036c0.84338,-0.21381 2.10844,-0.68896 3.7952,-1.42543c2.22129,-0.62956 4.06841,-1.31258 5.54135,-2.04905c0,-0.21381 0.05345,-0.37417 0.16036,-0.48108l2.85086,-1.88869c0.30884,-0.32072 0.8315,-1.00968 1.56797,-2.06687l1.12252,-2.53013c0.84338,-0.95028 1.36604,-1.47294 1.56797,-1.56797c0.42763,-0.74835 1.22349,-1.49076 2.38759,-2.22723c0.93841,-0.52266 1.78178,-0.83744 2.53013,-0.94435c1.47294,-0.21381 2.57765,0.15442 3.31412,1.10471c0.73647,0.84338 0.68302,1.53234 -0.16036,2.06687c0,0.30884 -0.10691,0.57017 -0.32072,0.78399c-2.31632,3.58733 -4.37131,6.06401 -6.16498,7.43004c-2.63704,2.42323 -6.96084,4.69203 -12.97139,6.80642l-3.15376,0.78399c-0.95028,0.32072 -3.16564,0.48108 -6.64606,0.48108c-7.28156,0 -12.92388,-0.36824 -16.92696,-1.10471c-6.42631,-1.05719 -11.2787,-2.95776 -14.55718,-5.70171c-1.47294,-1.1641 -2.6311,-2.42917 -3.47448,-3.7952c-0.95028,-1.36604 -1.95402,-3.36757 -3.01122,-6.00462l-0.14254,-0.16036c0,-0.21381 -0.21381,-0.32072 -0.64144,-0.32072l-0.48108,-0.94435l-0.78399,-0.32072c0,-0.10691 -0.10691,-0.16036 -0.32072,-0.16036l-0.94435,-0.32072l-1.10471,-0.78399l-0.32072,-0.62362l0.16036,-3.01122l0.32072,-0.64144l0.46326,-0.62362h0.48108c0.95028,-0.73647 2.05499,-0.9978 3.31412,-0.78399c0.53454,0 1.00968,0.15442 1.42543,0.46326c0.84338,0.21381 1.47888,0.95028 1.90651,2.20941l1.26507,3.01122l1.10471,0.78399l0.16036,0.96216z" fill="#000000" stroke-width="1"/><path d="M264.03378,211.522c0.14373,-0.1232 0.28418,-0.23849 0.42171,-0.34502c0.45843,-0.5306 1.13624,-0.86638 1.89248,-0.86638c1.38071,0 2.5,1.11929 2.5,2.5c0.7249,1.44997 -3.0773,3.77201 -3.94566,4.25891c-4.00617,2.24629 -8.38752,2.52254 -12.63753,3.90592c-15.05926,4.90179 -26.87803,3.53888 -37.23545,-8.40332c-3.61304,-4.16587 -7.92602,-10.94366 -6.45304,-16.65633c0.44244,-1.71591 2.48442,-2.6656 4.09341,-2.22679c0.81023,0.22097 1.17657,1.28609 1.39754,2.09631c0.247,0.90566 -0.80199,1.94718 -0.77815,2.86894c0.03543,1.36963 0.91463,2.896 1.29543,4.20371c1.37669,4.72763 6.97797,10.43228 11.02746,13.04386c8.03362,5.18101 18.43894,1.34356 26.98167,-0.12492c3.42824,-0.58931 9.04259,-1.45027 11.43967,-4.24686z" fill="#000000" stroke-width="0.5"/></g></g></svg>