<svg version="1.1" xmlns="http://www.w3.org/2000/svg" xmlns:xlink="http://www.w3.org/1999/xlink" width="265.19679" height="47.36053" viewBox="0,0,265.19679,47.36053"><g transform="translate(-107.46354,-156.31973)"><g data-paper-data="{&quot;isPaintingLayer&quot;:true}" fill="#ffffff" fill-rule="nonzero" stroke="#ffffff" stroke-width="0.5" stroke-linecap="butt" stroke-linejoin="miter" stroke-miterlimit="10" stroke-dasharray="" stroke-dashoffset="0" style="mix-blend-mode: normal"><path d="M372.28647,182.21756l-4.53443,8.81304l-0.4789,-5.3108c0,0 -7.63679,6.51349 -7.90672,5.27725c-0.14497,-0.66398 4.54218,-5.09518 5.90557,-7.96114c0.40383,-0.84888 -7.207,3.38704 -7.10253,2.71529c0.21887,-1.40743 5.68589,-4.25218 7.76779,-6.25921c1.1151,-1.075 -0.4841,-1.66332 -0.4841,-1.66332l3.83333,-0.44445l0.5,4.33334z"/><path d="M328.91376,170.69608c0,0 -0.94147,-2.54331 3.05556,-3.5c1.70781,-0.40876 3.22222,2.11111 3.22222,2.11111l1.83334,0.5c0,0 -3.89711,2.72565 -5.74697,4.60527c-1.56235,1.58748 -1.09099,2.31665 -1.41456,2.88452c-0.52205,0.91623 3.3051,-0.72147 3.3051,-0.72147c0,0 -1.69742,2.97637 -1.79879,3.69625c-0.23579,1.67443 4.02891,1.08457 4.02891,1.08457l-2.99485,3.85262c0,0 5.36376,-3.35773 9.16412,-2.83768c4.01354,0.54921 4.97346,4.93817 5.03646,5.50792c0.61041,5.52051 -5.99862,5.40506 -5.99862,5.40506c0,0 -1.76488,3.18882 -4.79956,3.00228c-7.46391,-0.4588 -7.94824,-2.82141 -7.94824,-2.82141c0,0 -3.36945,6.10152 -7.62377,1.66549c-4.03824,-4.21072 1.41957,-9.22707 1.41957,-9.22707c0,0 -1.33237,-1.3402 -1.44583,-3.57273c-0.21111,-4.15379 3.33872,-5.33655 3.33872,-5.33655c0,0 -1.51103,-3.14438 -0.78248,-5.19882c0.80488,-2.26968 6.14969,-1.09936 6.14969,-1.09936z"/><g><path d="M247.84234,167.43979c0,-1.75727 1.46093,-3.46418 3.31818,-4c2.20573,-0.63636 4.86364,-0.39363 4.86364,1.36364c0,0.72564 -4.38095,4.67384 -4.43054,6.1826c0.00888,1.24998 0.97415,2.03857 2.88324,2.01715c2.47765,-0.02779 6.04729,-1.10884 6.04729,-1.10884c0,0 -2.36886,3.46953 -2.51624,4.63431c-0.15949,1.26056 1.59275,2.66443 1.59275,2.66443c0,0 -8.0013,3.79892 -7.64577,4.84483c0.74635,2.19564 6.37483,0.29763 6.37483,0.29763c0,0 -5.74972,4.77592 -5.61794,7.2641c0.13229,2.4978 1.47042,4.38018 2.49237,5.46734c0.65161,0.69318 0.5573,1.33176 -0.25068,1.64499c-1.12242,0.43513 -2.61269,0.95619 -3.32671,0.96227c-3.61435,0.03075 -6.68229,-2.831 -6.43277,-9.2708c0.26497,-6.83856 3.1989,-9.5223 3.1989,-9.5223c0,0 -2.26798,-1.89918 -2.37544,-3.97343c-0.23086,-4.45622 2.79077,-6.22597 2.79077,-6.22597c0,0 -0.96587,-2.20524 -0.96587,-3.24195z"/><path d="M262.38781,181.84887c0,0.82843 -0.56982,1.5 -1.27273,1.5c-0.70291,0 -1.27273,-0.67157 -1.27273,-1.5c0,-0.82843 0.56982,-1.5 1.27273,-1.5c0.70291,0 1.27273,0.67157 1.27273,1.5z"/><path d="M267.38781,183.39433c0,-0.6276 0.50877,-1.13636 1.13636,-1.13636c0.6276,0 1.13636,0.50877 1.13636,1.13636c0,0.6276 -0.50877,1.13636 -1.13636,1.13636c-0.6276,0 -1.13636,-0.50877 -1.13636,-1.13636z"/><path d="M258.02416,166.84886c0,-0.37656 0.30526,-0.68182 0.68182,-0.68182c0.37656,0 0.68182,0.30526 0.68182,0.68182c0,0.37656 -0.30526,0.68182 -0.68182,0.68182c-0.37656,0 -0.68182,-0.30526 -0.68182,-0.68182z"/><path d="M263.23224,161.14236c0.89601,1.24184 0.63244,2.27579 -0.81297,3.31869c-1.44542,1.04289 -2.70715,1.33617 -3.60316,0.09433c-0.89601,-1.24184 -0.81426,-3.09398 0.63115,-4.13687c1.44542,-1.04289 2.88897,-0.51798 3.78498,0.72385z"/><path d="M255.02417,192.30342c-0.18182,-3.71463 3.14901,-5.22727 6.13636,-5.22727c1.53008,0 3.62132,1.94085 5.65227,3.17146c0.42089,0.25503 3.35761,1.64774 3.35761,1.64774c0,0 0.00033,-1.78754 1.02672,-3.28494c0.74318,-1.08422 2.37028,-1.88659 3.26396,-2.3709c0.92008,-0.49861 2.35105,0.44202 2.73965,1.29495c1.60765,3.5286 -1.22135,5.68242 -3.64682,6.19463c-1.52663,0.32239 -2.71158,-0.19087 -2.71158,-0.06204c0,1.48587 -1.61118,2.44757 -3.59837,3.22172c-2.00809,0.78228 -4.58196,1.00556 -6.08345,1.00556c-2.98736,0 -5.99032,-2.60712 -6.13636,-5.59091z"/></g><g><path d="M293.29413,166.33283c0,0 1.2868,-2.35977 3.4573,-2.62032c4.15127,-0.49832 3.90909,2.45454 3.90909,2.45454c0,0 -8.93876,4.66037 -8.07037,7.15492c1.13341,3.25583 5.34487,1.18829 5.34487,1.18829c0,0 -2.11798,3.27729 -2.14175,4.10994c-0.05912,2.07138 4.47312,1.08333 4.47312,1.08333l-5.86111,7.42889c0,0 1.30276,-0.62575 3.22264,-0.91155c1.70666,-0.25406 4.01541,-0.18227 4.58734,-0.03486c2.29423,0.59129 2.11423,1.70736 3.22118,1.84241c2.16531,0.26417 3.95317,-1.52263 5.55474,-2.54915c1.04197,-0.66785 2.31967,-0.85662 2.49443,-0.48779c0.32495,0.68581 0.46895,1.37133 0.58919,1.84522c0.24561,0.96797 -0.29748,3.70708 -1.92845,5.1317c-1.68359,1.4706 -4.46083,1.61205 -4.46083,1.61205c0,0 -2.05494,3.87655 -7.82728,4.51936c-3.90012,0.43433 -6.33234,-2.55189 -6.33234,-2.55189c0,0 -5.46074,3.7719 -9.06771,-0.08005c-3.87534,-4.13855 0.64972,-11.67824 0.64972,-11.67824c0,0 -1.72002,-1.25073 -1.91062,-4.9833c-0.13434,-2.63074 2.27747,-5.34142 2.27747,-5.34142c0,0 -1.21543,-3.24222 2.13064,-6.63976c1.60532,-1.63002 5.6887,-0.49234 5.6887,-0.49234z"/><path d="M308.2969,185.21251c0,0.97905 -0.89543,1.77273 -2,1.77273c-1.10457,0 -2,-0.79368 -2,-1.77273c0,-0.97905 0.89543,-1.77273 2,-1.77273c1.10457,0 2,0.79368 2,1.77273z"/></g><g><path d="M218.3878,174.21251c0.30275,0.76605 -1.34617,2.32994 -2.52595,4.09002c-2.27587,3.3953 1.84779,4.07174 1.0593,5.09173c-0.91886,1.18863 -6.0379,1.77279 -6.39698,1.77279c-1.53133,0 -1.5,-4.26308 -1.5,-6.04545c0,-1.78238 0.2414,-6.68182 1.77273,-6.68182c0.73131,0 1.31356,2.27053 2.95717,2.46236c1.79804,0.20986 3.90647,-2.52989 4.63374,-0.68963z"/><path d="M209.20599,193.78827c0,-2.6359 2.99478,-8.68182 9.60079,-8.31818c1.78513,0.09826 -3.12648,5.68228 -3.12648,8.31818c0,0.54903 -0.62277,1.78206 -0.3414,2.38964c1.0695,2.30944 4.19902,4.14007 1.74061,4.74672c-6.76164,1.66854 -7.87352,-4.50046 -7.87352,-7.13636z"/><path d="M217.60441,178.78172c0.9276,-0.22263 1.8268,0.21035 2.00842,0.96708c0.18162,0.75673 -0.42312,1.55065 -1.35073,1.77328c-0.9276,0.22263 -1.8268,-0.21035 -2.00842,-0.96708c-0.18162,-0.75673 0.42312,-1.55065 1.35073,-1.77328z"/><path d="M225.2969,182.97009c0,0.52718 -0.42736,0.95455 -0.95455,0.95455c-0.52718,0 -0.95455,-0.42736 -0.95455,-0.95455c0,-0.52718 0.42736,-0.95455 0.95455,-0.95455c0.52718,0 0.95455,0.42736 0.95455,0.95455z"/><path d="M232.02417,184.87918c0,0.27614 -0.32561,0.5 -0.72727,0.5c-0.40166,0 -0.72727,-0.22386 -0.72727,-0.5c0,-0.27614 0.32561,-0.5 0.72727,-0.5c0.40166,0 0.72727,0.22386 0.72727,0.5z"/><path d="M219.11508,193.74281c0,-2.30955 1.87226,-4.18182 4.18182,-4.18182c2.30955,0 4.18182,1.87226 4.18182,4.18182c0,0.77169 -0.58992,2.39437 -0.12994,3.24467c0.91666,1.69452 3.03145,2.48261 1.49358,2.48261c-1.23738,0 -3.94102,1.74624 -7.1846,-0.5198c-1.82988,-1.2784 -2.54267,-4.13529 -2.54267,-5.20747z"/><path d="M218.75144,167.04584c0,-0.25104 0.20351,-0.45455 0.45455,-0.45455c0.25104,0 0.45455,0.20351 0.45455,0.45455c0,0.25104 -0.20351,0.45455 -0.45455,0.45455c-0.25104,0 -0.45455,-0.20351 -0.45455,-0.45455z"/><path d="M216.20599,165.90948c0.11506,2.53287 -1.28209,4.59091 -2.86364,4.59091c-1.58155,0 -2.86364,-2.05542 -2.86364,-4.59091c0,-2.53549 0.98658,-4.04291 3.13636,-5.13636c1.80233,-0.91673 2.84885,-0.34667 3.98606,0.21397c1.51989,0.7493 1.32151,3.04602 1.03574,3.1763c-1.11854,0.50994 -2.61271,-2.25643 -2.43089,1.74609z"/><path d="M223.2969,165.68221c-0.85354,0 -1.54546,-1.01754 -1.54546,-2.27273c0,-1.2552 0.96465,-2.27273 1.81818,-2.27273c0.44939,0 2.08007,0.00508 2.08007,0.00508c0,0 -0.80734,1.6733 -0.80734,2.26765c0,1.2552 -0.69192,2.27273 -1.54545,2.27273z"/><path d="M236.21157,191.43336c1.93197,-1.03569 3.84316,-3.07748 4.3768,-2.29933c0.53364,0.77815 -0.51236,4.08159 -2.44433,5.11728c-1.93197,1.03569 -4.01525,1.28513 -4.46436,0.46631c-0.84949,-1.54881 0.59993,-2.24858 2.5319,-3.28427z"/></g><path d="M204.8569,183.74403c0,-0.11046 0.08955,-0.2 0.2,-0.2c0.11046,0 0.2,0.08954 0.2,0.2c0,0.11046 -0.08954,0.2 -0.2,0.2c-0.11046,0 -0.2,-0.08955 -0.2,-0.2z"/><g><path d="M192.93326,184.86403c0,-0.20083 0.16281,-0.36363 0.36364,-0.36363c0.20083,0 0.36364,0.1628 0.36364,0.36363c0,0.20083 -0.16281,0.36364 -0.36364,0.36364c-0.20083,0 -0.36364,-0.16281 -0.36364,-0.36364z"/><path d="M197.7369,190.37069c0,0.2651 -0.26863,0.48 -0.6,0.48c-0.33137,0 -0.6,-0.21491 -0.6,-0.48c0,-0.2651 0.26863,-0.48 0.6,-0.48c0.33137,0 0.6,0.2149 0.6,0.48z"/><path d="M199.1369,193.51069c0,-0.60752 0.49248,-1.1 1.1,-1.1c0.27416,0 2.50336,1.0669 3.56948,0.27658c1.72329,-1.27748 1.21052,-3.93659 1.21052,-3.93659c0,0 1.17086,2.45811 -0.41185,4.54265c-1.28578,1.69346 -4.06527,1.31735 -4.36815,1.31735c-0.60752,0 -1.1,-0.49248 -1.1,-1.1z"/><path d="M193.61328,197.64622c0,0 -5.03601,4.05045 -8.40998,-0.82084c-2.32693,-3.35959 -0.0608,-7.64453 0.633,-8.10191c1.50422,-0.99164 3.40083,-1.20196 4.38423,0.1717c0.9834,1.37366 0.72119,3.37111 -0.78303,4.36275c-0.67432,0.44454 -1.02488,2.29241 0.02939,3.18092c1.29749,1.09349 4.14638,1.20738 4.14638,1.20738z"/><path d="M186.90059,181.66782c0,-0.22437 0.18188,-0.40625 0.40625,-0.40625c0.22437,0 0.40625,0.18188 0.40625,0.40625c0,0.22437 -0.18188,0.40625 -0.40625,0.40625c-0.22437,0 -0.40625,-0.18188 -0.40625,-0.40625z"/><path d="M174.9053,197.45628c-0.16392,-0.74924 -2.59203,-5.60672 3.3245,-10.81592c2.67902,-2.35874 6.30544,-2.8778 6.30544,-2.8778c0,0 -3.14041,1.65096 -5.54984,4.93529c-1.98441,2.705 0.08797,4.32451 0.4949,4.53342c3.21396,1.65 2.925,2.71104 3.025,4.175c0.12703,1.85963 -1.91104,3.775 -3.775,3.775c-1.86396,0 -3.42663,-1.90411 -3.825,-3.725z"/><path d="M176.94833,169.73531c0.33443,-0.16472 0.70939,-0.08739 0.83751,0.17272c0.12812,0.26011 -0.03913,0.6045 -0.37356,0.76922c-0.33443,0.16472 -0.70939,0.08739 -0.83751,-0.17272c-0.12812,-0.26011 0.03913,-0.6045 0.37356,-0.76922z"/><path d="M182.9053,164.65628c0,0.12427 -0.10073,0.225 -0.225,0.225c-0.12427,0 -0.225,-0.10073 -0.225,-0.225c0,-0.12427 0.10073,-0.225 0.225,-0.225c0.12427,0 0.225,0.10073 0.225,0.225z"/><path d="M174.9553,160.78962c0.38078,-1.16835 1.14616,-2.225 2.375,-2.225c1.22884,0 2.225,0.99616 2.225,2.225c0,0.47483 -1.08606,1.46214 -1.38529,2.55636c-0.47517,1.73758 -0.1857,3.76864 -0.93971,3.76864c-0.6981,0 -1.94043,-1.41245 -2.27867,-3.03059c-0.25715,-1.2302 -0.44633,-1.91368 0.00367,-3.29441z"/><path d="M180.23813,157.95569c0.4293,-0.4197 1.54229,0.25612 2.11112,0.83796c0.56883,0.58184 1.08155,1.8445 0.64083,2.27536c-0.44072,0.43086 -1.22417,-0.57013 -1.79149,-1.15044c-0.56732,-0.58031 -1.38975,-1.5432 -0.96045,-1.96289z"/><path d="M187.18589,162.77254c-0.43363,-0.25005 -0.61892,-1.7975 -0.20299,-2.33347c0.6889,-0.88771 1.63695,-0.83379 2.08212,-0.57708c0.44516,0.25671 -0.28185,0.91116 -0.61986,1.49731c-0.33801,0.58615 -0.82565,1.66329 -1.25928,1.41324z"/><path d="M174.8053,171.90628c1.38899,-0.09821 1.30618,2.07508 2.6882,2.55352c1.08173,0.37448 2.88064,-0.92852 3.2868,-0.92852c0.92507,0 1.675,0.74992 1.675,1.675c0,0.92507 -0.44993,1.625 -1.675,2.025c-0.39747,0.12977 -3.01526,0.81477 -4.89159,-0.97913c-1.5408,-1.47312 -1.58911,-4.31011 -1.08341,-4.34587z"/><path d="M182.42079,177.63771c0.79085,0.40678 0.90315,1.38727 0.77882,1.69613c-0.12433,0.30887 -0.74286,-0.13606 -1.24612,-0.3273c-0.50327,-0.19124 -1.40647,-0.45432 -1.28537,-0.75518c0.12111,-0.30086 1.27519,-0.85925 1.75267,-0.61365z"/><path d="M174.56823,184.27955c-0.14936,-0.3448 3.30085,-3.95715 4.12213,-4.352c0.82128,-0.39485 1.80715,-0.04915 2.202,0.77213c0.39485,0.82128 0.04916,1.80715 -0.77213,2.202c-0.82128,0.39485 -5.27946,2.00705 -5.55201,1.37787z"/></g><g><path d="M164.64431,195.63153c0,0.40359 -0.63713,0.73077 -1.42308,0.73077c-0.78594,0 -1.42308,-0.32718 -1.42308,-0.73077c0,-0.40359 0.63714,-0.73077 1.42308,-0.73077c0.78594,0 1.42308,0.32718 1.42308,0.73077z"/><path d="M170.24623,191.93153c0,-0.15188 0.12312,-0.275 0.275,-0.275c0.15188,0 0.275,0.12312 0.275,0.275c0,0.15188 -0.12312,0.275 -0.275,0.275c-0.15188,0 -0.275,-0.12312 -0.275,-0.275z"/><path d="M155.69623,190.15653c0,-0.11046 0.08955,-0.2 0.2,-0.2c0.11046,0 0.2,0.08954 0.2,0.2c0,0.11046 -0.08954,0.2 -0.2,0.2c-0.11046,0 -0.2,-0.08954 -0.2,-0.2z"/><path d="M149.49623,180.2732c0,-0.11046 0.08954,-0.2 0.2,-0.2c0.11046,0 0.2,0.08955 0.2,0.2c0,0.11046 -0.08955,0.2 -0.2,0.2c-0.11046,0 -0.2,-0.08954 -0.2,-0.2z"/><path d="M148.84623,192.78987c0,-0.5799 0.4701,-1.05 1.05,-1.05c0.5799,0 1.05,0.4701 1.05,1.05c0,0.20847 -0.24751,0.95647 -0.07912,1.50888c0.30003,0.9842 1.05054,1.89112 0.67911,1.89112c-0.32077,0 -1.41279,-0.46286 -2.05658,-1.33216c-0.52008,-0.70226 -0.64342,-1.80871 -0.64342,-2.06784z"/><path d="M142.16204,190.8857c0.31937,-1.08587 0.08833,2.30382 0.87328,4.41528c0.479,1.28845 1.8698,1.50467 2.44206,1.67298c1.51006,0.44413 2.46731,2.5216 1.95305,4.27008c-0.51426,1.74848 -2.30529,2.50586 -3.81534,2.06173c-0.78196,-0.22998 -2.18161,-2.73339 -2.41023,-5.67435c-0.21288,-2.73839 0.70922,-5.90267 0.95718,-6.74573z"/><path d="M142.42185,185.89465c-0.33532,-0.46896 0.11348,-0.77091 0.64383,-1.10832c0.53034,-0.33742 1.49199,-0.39923 1.78862,-0.35458c0.49047,0.07383 -0.62539,1.01191 -1.15574,1.34932c-0.53034,0.33741 -1.08743,0.37828 -1.27671,0.11357z"/><path d="M149.21752,158.3974c0.30123,-0.64136 1.31399,-0.72846 1.31399,-0.72846c0,0 -0.30038,0.38943 -0.60161,1.03079c-0.30123,0.64135 -0.18488,1.43471 -0.48925,1.29175c-0.30437,-0.14296 -0.52436,-0.95273 -0.22313,-1.59409z"/><path d="M141.59623,177.05653c0,-0.3866 0.54845,-0.7 1.225,-0.7c0.67655,0 1.225,0.3134 1.225,0.7c0,0.3866 -0.54845,0.7 -1.225,0.7c-0.67655,0 -1.225,-0.3134 -1.225,-0.7z"/><path d="M139.86922,180.24055c0.62019,-1.04858 1.95788,-1.58402 2.35201,-1.58402c0.84223,0 1.525,0.4701 1.525,1.05c0,0.5799 -0.68277,1.05 -1.525,1.05c-0.3404,0 -1.09978,0.09203 -1.64552,0.55921c-0.80455,0.68874 -1.37948,1.84079 -1.37948,1.84079c0,0 -0.03213,-1.72381 0.67299,-2.91598z"/><path d="M140.44622,174.21487c0,-0.52759 0.37721,-0.66233 0.83747,-0.81323c0.4038,-0.13239 0.86002,-0.31177 1.33754,-0.31177c1.02181,0 2.175,0.11539 2.175,1.125c0,1.00961 -1.15538,1.125 -2.175,1.125c-1.01962,0 -2.175,-0.13453 -2.175,-1.125z"/><path d="M140.19978,173.54342c-0.35356,0.35356 -0.70711,0 -0.70711,0l-0.12274,-0.1243c-0.6139,-0.73892 -0.61271,-1.35319 -0.52123,-2.27901c0,0 0.04975,-0.49751 0.54727,-0.44777c0.26295,0.02629 0.29852,0.90427 0.47858,1.60706c0.16062,0.62693 0.49192,1.07731 0.32523,1.24401z"/><path d="M142.44623,159.45653c0,-0.27614 0.22386,-0.5 0.5,-0.5c0.27614,0 0.5,0.22386 0.5,0.5c0,0.27614 -0.22386,0.5 -0.5,0.5c-0.27614,0 -0.5,-0.22386 -0.5,-0.5z"/><path d="M144.36563,156.77348c0.10286,-0.23057 0.51334,-0.27157 0.91684,-0.09158c0.4035,0.17999 0.64722,0.51282 0.54437,0.74339c-0.10286,0.23057 -0.51334,0.27157 -0.91684,0.09158c-0.4035,-0.17999 -0.64722,-0.51282 -0.54437,-0.74339z"/><path d="M140.51004,164.47257c0,0 -1.57977,-1.88373 -1.76568,-3.54056c-0.16352,-1.45728 0.23442,-3.04111 0.61328,-3.32665c0.8096,-0.61019 1.80649,-0.65296 2.22662,-0.09553c0.42013,0.55744 0.1044,1.50397 -0.7052,2.11416c-0.32721,0.24661 -0.49048,0.88524 -0.67661,1.7297c-0.27441,1.24493 0.30759,3.11887 0.30759,3.11887z"/><path d="M139.99623,167.13987c0,-0.13807 0.11193,-0.25 0.25,-0.25c0.13807,0 0.25,0.11193 0.25,0.25c0,0.13807 -0.11193,0.25 -0.25,0.25c-0.13807,0 -0.25,-0.11193 -0.25,-0.25z"/></g><g><path d="M118.14724,201.31564c-0.05875,0.71556 -1.567,0.6 -3.5,0.6c-1.933,0 -3.2,-4.58203 -3.2,-5.3c0,-0.71797 1.967,3 3.9,3c1.933,0 2.9,0.48203 2.8,1.7z"/><path d="M124.04724,199.06564c0,0.41422 -0.40295,0.75 -0.9,0.75c-0.49705,0 -0.9,-0.33578 -0.9,-0.75c0,-0.41422 0.40295,-0.75 0.9,-0.75c0.49705,0 0.9,0.33578 0.9,0.75z"/><path d="M133.04724,197.61564c0,0.16568 -0.17909,0.3 -0.4,0.3c-0.22091,0 -0.4,-0.13431 -0.4,-0.3c0,-0.16568 0.17909,-0.3 0.4,-0.3c0.22091,0 0.4,0.13432 0.4,0.3z"/><path d="M120.94724,189.86564c0,0.30375 -0.3134,0.55 -0.7,0.55c-0.3866,0 -0.7,-0.24624 -0.7,-0.55c0,-0.30375 0.3134,-0.55 0.7,-0.55c0.3866,0 0.7,0.24625 0.7,0.55z"/><path d="M111.44449,184.84192c0.33339,-0.21101 0.79008,-0.20864 1.02004,0.00529c0.22997,0.21393 0.14612,0.55842 -0.18727,0.76943c-0.33339,0.21101 -0.79008,0.20864 -1.02004,-0.00529c-0.22996,-0.21393 -0.14612,-0.55842 0.18727,-0.76943z"/><path d="M118.70178,175.4414c0,0.11297 -0.09158,0.20454 -0.20454,0.20454c-0.11297,0 -0.20455,-0.09158 -0.20455,-0.20454c0,-0.11297 0.09158,-0.20455 0.20455,-0.20455c0.11297,0 0.20454,0.09158 0.20454,0.20455z"/><path d="M110.36088,172.73686c0.21338,0 0.38636,0.11193 0.38636,0.25c0,0.13807 -0.17298,0.25 -0.38636,0.25c-0.21339,0 -0.38637,-0.11193 -0.38637,-0.25c0,-0.13807 0.17299,-0.25 0.38637,-0.25z"/><path d="M108.34156,176.56674c0.77152,-0.86731 1.97374,-0.58301 1.97374,-0.58301c0,0 -0.28,0.6999 -0.94788,1.41577c-0.66788,0.71587 -1.47074,1.17662 -1.47074,1.17662c0,0 -0.6292,-0.80192 0.44489,-2.00938z"/><path d="M112.33815,170.13079c0,0.32635 -0.31544,0.59091 -0.70455,0.59091c-0.38911,0 -0.70455,-0.26456 -0.70455,-0.59091c0,-0.32635 0.31544,-0.59091 0.70455,-0.59091c0.38911,0 0.70455,0.26456 0.70455,0.59091z"/><path d="M108.39485,165.95066c0.50194,-0.56426 1.28409,-0.3793 1.28409,-0.3793c0,0 -0.18216,0.45535 -0.61668,0.92108c-0.43451,0.46574 -0.95684,0.76549 -0.95684,0.76549c0,0 -0.40935,-0.52172 0.28944,-1.30728z"/><path d="M108.74724,162.03988c0,0.10042 -0.0814,0.18182 -0.18182,0.18182c-0.10042,0 -0.18182,-0.0814 -0.18182,-0.18182c0,-0.10042 0.0814,-0.18182 0.18182,-0.18182c0.10042,0 0.18182,0.0814 0.18182,0.18182z"/></g></g></g></svg>