<svg version="1.1" xmlns="http://www.w3.org/2000/svg" xmlns:xlink="http://www.w3.org/1999/xlink" width="34.17311" height="34.17311" viewBox="0,0,34.17311,34.17311"><g transform="translate(-222.91345,-162.91346)"><g data-paper-data="{&quot;isPaintingLayer&quot;:true}" stroke-miterlimit="10" stroke-dasharray="" stroke-dashoffset="0" style="mix-blend-mode: normal"><path d="M229.98312,162.91346h20.03379c3.9166,0 7.06966,3.15307 7.06966,7.06966v20.03379c0,3.91659 -3.15306,7.06966 -7.06966,7.06966h-20.03379c-3.91659,0 -7.06966,-3.15307 -7.06966,-7.06966v-20.03379c0,-3.91659 3.15307,-7.06966 7.06966,-7.06966z" fill-opacity="0.35" fill="#4d4d4d" fill-rule="evenodd" stroke="none" stroke-width="4.43922" stroke-linecap="round" stroke-linejoin="round"/><path d="M229.27465,193.78022l2.41126,-29.13613l19.03945,1.57568l-2.41126,29.13613z" fill="#9c9c9c" fill-rule="nonzero" stroke="#000000" stroke-width="1" stroke-linecap="butt" stroke-linejoin="miter"/><path d="M237.04231,168.96716c0,1.15932 -1.01211,2.09914 -2.26061,2.09914c-1.2485,0 -2.26061,-0.93982 -2.26061,-2.09914c0,-1.15932 1.01211,-2.09914 2.26061,-2.09914c1.2485,0 2.26061,0.93982 2.26061,2.09914z" fill="#c3e3ff" fill-rule="nonzero" stroke="none" stroke-width="0" stroke-linecap="butt" stroke-linejoin="miter"/><path d="M239.56239,170.32703c0,0.61274 -0.53493,1.10945 -1.1948,1.10945c-0.65987,0 -1.1948,-0.49672 -1.1948,-1.10945c0,-0.61274 0.53493,-1.10945 1.1948,-1.10945c0.65987,0 1.1948,0.49672 1.1948,1.10945z" fill="#c3e3ff" fill-rule="nonzero" stroke="none" stroke-width="0" stroke-linecap="butt" stroke-linejoin="miter"/></g></g></svg>