<svg version="1.1" xmlns="http://www.w3.org/2000/svg" xmlns:xlink="http://www.w3.org/1999/xlink" width="94.62304" height="261.66655" viewBox="0,0,94.62304,261.66655"><g transform="translate(-191.84268,-44.94597)"><g stroke-miterlimit="10"><path d="M195.28369,306.61252v-253.22501h91.18203v253.22501z" fill-opacity="0.01" fill="#000000" stroke="none" stroke-width="0" stroke-linecap="butt"/><path d="M200.23704,186.37957c-0.05451,-8.15261 8.18688,-36.76129 40.20201,-36.9211c31.60235,-0.15775 39.85672,29.48704 39.84884,36.89673c-0.06732,40.64593 -6.14054,42.94147 -7.96833,42.95821c-0.85211,0.0078 -2.03287,-39.7187 -2.03287,-39.7187c0,0 0.07549,-3.0993 -2.81625,-3.15415c-3.43441,-0.06514 -2.94538,3.11562 -2.94538,3.11562c0,0 -17.5027,17.3243 -17.47931,30.39698c0.03786,21.16531 17.68479,84.47297 17.68479,84.47297c0,0 -16.13822,-51.92225 -24.18718,-51.91019c-8.02217,0.01202 -24.02648,51.98241 -24.02648,51.98241c0,0 17.05922,-62.02671 17.00305,-83.22082c-0.04014,-15.14759 -17.30844,-32.01227 -17.30844,-32.01227c0,0 0.27949,-2.919 -2.8856,-2.93443c-3.11083,-0.01515 -2.81569,2.90899 -2.81569,2.90899c0,0 -1.44008,41.30996 -3.04517,41.32383c-1.66997,0.01443 -7.07,-20.55594 -7.22799,-44.18408z" fill="#ffffff" stroke="#000000" stroke-width="2" stroke-linecap="butt"/><path d="M195.26516,118.66886c0,0 6.16329,-9.02422 6.29161,-10.34351c0.33654,-3.46017 -0.16776,-61.2191 35.96775,-63.35352c44.63633,-1.39225 39.01489,53.86722 41.53088,64.29297c3.44981,14.29528 6.15664,26.51576 6.15664,26.51576c0,0 -2.76715,-3.1293 -4.0797,-4.7758c-1.2242,-1.53566 -3.80143,-4.7939 -3.80143,-4.7939c0,0 3.09111,15.76927 1.31092,31.53667c-1.5623,14.44788 -7.29782,26.24949 -7.29782,26.24949l-1.15522,-3.57708c0,0 -1.02266,3.3494 -2.16005,5.0787c-1.1374,1.72928 -3.43873,4.43865 -3.43873,4.43865l-0.09205,-5.64477c0,0 -7.0601,16.79004 -24.35066,16.56693c-16.30625,-0.38931 -26.07151,-16.26773 -26.07151,-16.26773l-0.1162,4.04566c0,0 -3.89477,-5.01777 -6.18145,-14.79313c-2.72545,-11.65109 -3.23946,-18.65723 -3.23946,-18.65723c0,0 -2.33908,2.89409 -5.71704,4.22785c-4.23278,1.67129 -6.94665,0.52613 -6.94665,0.52613c0,0 3.60795,-4.14064 5.58396,-7.26874c1.76007,-2.78626 2.64658,-5.14648 2.64658,-5.14648c0,0 -2.10758,1.65295 -4.23277,2.46556c-2.21739,0.84789 -4.03008,0.80907 -4.03008,0.80907c0,0 4.97492,-7.67621 7.03074,-16.57112c1.94102,-8.39823 2.09972,-16.69763 2.09972,-16.69763c0,0 -1.36165,1.00824 -3.33013,1.21168c-1.24776,0.12897 -2.37785,-0.07452 -2.37785,-0.07452z" fill="#000000" stroke="none" stroke-width="1.5" stroke-linecap="butt"/><path d="M212.38192,104.646c-0.57709,-7.29323 0.335,-17.15448 0.335,-17.15448c0,0 3.41059,-0.04124 13.91429,-3.14424c8.0696,-2.38394 20.54731,-9.48722 20.54731,-9.48722c0,0 -2.16005,3.00503 -3.40781,4.46015c-1.32651,1.54696 -3.99292,4.56297 -3.99292,4.56297c0,0 7.838,-1.66761 14.67476,-4.72931c8.56837,-3.53575 10.59252,-6.05309 12.95042,-4.5927c2.7829,1.72362 1.03006,23.1827 0.71846,28.74062c-0.42163,5.66922 -2.53327,9.49969 -3.15031,12.52053c-0.61704,3.02084 20.76601,3.82054 18.96939,13.72362c-0.99895,5.50632 -15.34065,40.91146 -22.59921,52.84055c-0.88834,1.45995 -1.67059,3.546 -2.30931,4.17148c-5.85759,5.73616 -12.36247,6.27493 -16.32228,6.34391c-3.81077,0.06639 -13.56781,-1.46064 -18.56758,-6.74288c-5.32393,-5.62474 -25.41834,-46.19619 -26.25896,-52.85881c-0.75707,-6.00039 17.42126,-12.88635 17.07513,-18.22617c-0.25298,-3.90273 -2.26119,-6.44504 -2.57636,-10.42801z" fill="#ffffff" stroke="#000000" stroke-width="1.5" stroke-linecap="butt"/><path d="M260.45192,89.52564c0,0 1.52429,0.31807 4.2558,1.11029c2.49492,0.72361 4.44935,1.74403 4.44935,1.74403l0.1951,1.17035c0,0 -7.24963,-3.12997 -15.1158,-2.4706c-6.2896,0.52724 -9.96319,2.8124 -9.96319,2.8124l0.04575,-4.17683c0,0 3.12748,-1.70421 7.86366,-1.85557c4.90428,-0.15672 8.09084,0.59125 8.09084,0.59125z" fill="#000000" stroke="none" stroke-width="1.5" stroke-linecap="butt"/><path d="M214.08156,114.76922c0,0 -4.93211,-3.51705 -6.16417,-8.97502c-1.29636,-5.74284 -1.46118,-9.7328 0.48013,-9.99193c1.94131,-0.25915 2.70321,2.37692 3.73262,8.35569c1.0294,5.97877 1.95143,10.61127 1.95143,10.61127z" fill="#ffffff" stroke="#000000" stroke-width="1" stroke-linecap="butt"/><path d="M213.87897,110.82166c0,0 -3.56385,-2.92338 -4.31816,-8.45061c-0.42079,-3.08327 2.15675,-2.28016 2.15675,-2.28016" fill="none" stroke="#000000" stroke-width="0.25" stroke-linecap="round"/><path d="M216.89237,104.16576c0.07093,-4.89188 4.83834,-8.93609 10.21137,-8.8582c5.37302,0.0779 9.02724,4.2484 8.95632,9.14029c-0.07093,4.89188 -4.12352,8.79439 -9.49655,8.7165c-5.37302,-0.0779 -9.74207,-4.1067 -9.67114,-8.99859z" fill="#ffffff" stroke="#000000" stroke-width="1.4" stroke-linecap="butt"/><path d="M220.26802,104.2837c0.03999,-2.75843 2.30855,-4.96213 5.06696,-4.92214c2.75843,0.03999 4.96213,2.30855 4.92214,5.06696c-0.03999,2.75843 -2.30854,4.96213 -5.06696,4.92214c-2.75843,-0.03999 -4.96213,-2.30855 -4.92214,-5.06696z" fill="#000000" stroke="none" stroke-width="1.5" stroke-linecap="butt"/><path d="M243.94865,104.16649c0.20353,-4.88817 4.45264,-8.85847 9.77048,-8.85847c5.31783,0 9.27453,3.96607 9.27453,8.85847c0,4.8924 -3.88585,9.07104 -9.69964,9.14188c-5.52997,0.06739 -9.55792,-4.03692 -9.34537,-9.14188z" fill="#ffffff" stroke="#000000" stroke-width="1.4" stroke-linecap="butt"/><path d="M249.54702,104.25204c0,-2.81845 2.2848,-5.10325 5.10325,-5.10325c2.81845,0 5.10325,2.2848 5.10325,5.10325c0,2.81845 -2.28479,5.10325 -5.10325,5.10325c-2.81845,0 -5.10325,-2.2848 -5.10325,-5.10325z" fill="#000000" stroke="none" stroke-width="1.5" stroke-linecap="butt"/><path d="M216.82394,103.63358c0,0 0.06357,-9.01512 10.60111,-8.8249c9.47101,0.16586 9.55554,9.40723 9.55554,9.40723z" fill="#ffffff" stroke="#000000" stroke-width="1.15" stroke-linecap="butt"/><path d="M243.571,103.76448c0,0 -0.24686,-9.4582 11.19813,-9.1032c9.71427,0.33347 9.54677,9.65229 9.54677,9.65229z" fill="#ffffff" stroke="#000000" stroke-width="1.15" stroke-linecap="butt"/><path d="M220.35379,93.62192c0,0 3.36963,-1.819 8.03244,-2.28178c5.16698,-0.51283 7.76823,-0.06628 7.76823,-0.06628l0.29508,4.13747c0,0 -3.83554,-0.68065 -8.01795,-0.52113c-5.59346,0.21333 -6.64488,1.43293 -10.89774,1.89119c-3.64408,0.39266 -6.73723,0.15884 -6.73723,0.15884l-0.02589,-1.23155c0,0 3.59517,0.07398 5.23371,-0.06836c1.35239,-0.11749 3.9757,-0.93808 3.9757,-0.93808z" fill="#000000" stroke="none" stroke-width="1.5" stroke-linecap="butt"/><path d="M268.31472,104.15795c1.0294,-5.97877 1.7913,-8.61483 3.73262,-8.35569c1.94131,0.25914 1.77649,4.24909 0.48013,9.99193c-1.23206,5.45797 -6.16417,8.97502 -6.16417,8.97502c0,0 0.92203,-4.6325 1.95143,-10.61127z" fill="#ffffff" stroke="#000000" stroke-width="1" stroke-linecap="butt"/><path d="M268.72731,100.09089c0,0 2.57754,-0.80312 2.15675,2.28016c-0.75431,5.52723 -4.31816,8.45061 -4.31816,8.45061" fill="none" stroke="#000000" stroke-width="0.25" stroke-linecap="round"/><g stroke="none" stroke-width="0" stroke-linecap="butt"><g><path d="M209.27318,203.56878c-9.23049,-14.95082 -10.97643,-37.89383 -12.61541,-52.98843c-0.82665,-7.61337 -3.30046,-14.77658 -3.30046,-14.77658c0,0 8.65575,-7.62932 16.98166,-14.20862c4.82921,-3.81609 10.14453,-8.63182 12.03468,-8.72514c4.04948,-0.1999 17.60946,6.9472 17.60946,6.9472c0,0 11.03602,-8.84828 16.3979,-6.61863c4.41221,1.83475 10.79472,8.972 16.17695,14.93485c4.51576,5.00286 8.48212,9.12459 8.48212,9.12459c0,0 -1.69073,14.13675 -1.87053,21.2802c-0.37844,15.03658 -2.78706,31.14253 -11.78769,44.21789c-5.99091,8.70316 -15.83068,13.28657 -27.49873,13.21671c-12.03471,-0.07206 -25.11137,-3.49779 -30.61001,-12.40403z" fill="#000000"/><path d="M211.85442,198.95971c-6.6576,-11.47455 -8.62419,-31.16183 -10.35418,-44.56032c-0.76962,-5.96059 -2.99046,-13.75454 -2.99046,-13.75454c0,0 4.52204,-0.07554 8.48174,6.14853c4.02098,6.3204 7.01343,17.62647 9.65897,25.55209c3.07449,9.21066 6.37639,14.64594 21.17725,14.758c29.76759,0.22534 20.96002,-25.01801 29.35883,-38.35042c3.93969,-6.25391 9.04781,-6.49981 9.04781,-6.49981c0,0 -1.75676,9.1374 -2.09895,18.46145c-0.43787,11.93081 -1.26232,25.64753 -8.86126,36.7767c-7.59894,11.12918 -16.45259,12.69961 -25.83582,12.76506c-13.57375,0.0947 -23.78754,-4.75361 -27.58388,-11.29677z" fill="#ffffff"/><path d="M200.95398,135.33481c0,0 14.35758,-14.16883 21.11011,-16.19271c6.18061,-1.85249 19.55983,6.2488 19.55983,6.2488c0,0 9.16163,-8.13595 13.01352,-6.84624c5.6962,1.90724 20.11175,18.63519 20.11175,18.63519c0,0 -5.62202,1.01984 -13.34305,-1.05495c-7.02285,-1.88718 -13.67407,-7.08924 -21.06614,-7.20511c-5.27301,-0.08265 -14.46606,4.47307 -21.58803,5.7592c-9.92275,1.79185 -17.79794,0.6558 -17.79794,0.6558z" fill="#ffffff"/><path d="M219.4469,167.5604c0,0 1.85832,0.57964 3.043,1.4547c3.27219,2.41696 9.22256,6.96668 16.55448,6.85316c8.16685,-0.12645 13.4433,-4.07221 16.27775,-6.33924c1.2227,-0.97795 2.52544,-1.5087 2.52544,-1.5087c0,0 -0.48477,6.82412 -6.56859,10.7116c-2.77574,1.77366 -6.21017,1.53659 -12.19071,2.23213c-6.12238,0.71202 -10.49768,-0.74249 -13.41691,-3.07957c-4.95935,-3.97032 -6.22442,-10.32405 -6.22442,-10.32405z" fill="#ffffff"/><path d="M220.12302,139.51942c0,0 11.88491,-4.84116 19.4833,-4.95879c7.59836,-0.11763 19.58309,6.63851 19.58309,6.63851l-39.06639,-1.67974z" fill="#ffffff"/></g><path d="M237.96849,160.77469c0.39849,-0.0086 2.445,3.99854 2.445,3.99854c0,0 -0.0222,-4.03408 0.57265,-4.03221c7.03143,0.02249 12.65517,0.84621 12.6704,2.61517c0.01651,1.91859 -6.57085,4.22251 -14.42288,4.34408c-7.85203,0.12157 -14.47729,-1.97778 -14.61846,-4.37923c-0.10664,-1.81415 6.02196,-2.38828 13.35331,-2.54641z" fill="#ffffff"/></g><path d="M240.01406,176.42432c-1.03376,0 -3.5381,-3.26042 -3.7867,-5.3637c-0.22243,-1.88186 1.31512,-3.82799 3.7867,-3.82799c2.47159,0 4.2021,0.49077 4.02999,4.18853c-0.14607,3.13818 -1.55841,5.00317 -4.02999,5.00317z" fill="#ffffff" stroke="#000000" stroke-width="1.15" stroke-linecap="butt"/><path d="M243.61617,103.97938c0,0 0.1026,9.2393 0.00576,16.58665c-0.19174,14.54901 -1.08147,64.61085 -1.08147,64.61085l-2.98167,0.02011c0,0 -0.80294,-9.71172 -1.12322,-22.11002c-0.43353,-16.78218 -0.4495,-37.92117 -0.76344,-45.69261c-0.29758,-7.36659 -0.89593,-13.30012 -0.89593,-13.30012" fill="#ffffff" stroke="#000000" stroke-width="1.3" stroke-linecap="round"/></g></g></svg>