<svg version="1.1" xmlns="http://www.w3.org/2000/svg" xmlns:xlink="http://www.w3.org/1999/xlink" width="121.01589" height="198.89086" viewBox="0,0,121.01589,198.89086"><g transform="translate(-197.22232,-117.97838)"><g stroke="none" stroke-miterlimit="10"><g stroke-width="1"><path d="M303.75376,222.40367c0.43011,0.66555 0.6017,1.8899 0.51476,3.67308l-0.77915,13.03472c-0.19675,4.91 -0.46216,8.64587 -0.79623,11.2076c-0.24622,3.34031 -0.97129,8.47006 -2.17521,15.38925l-4.79962,23.73374c-1.51191,4.90999 -2.83713,8.4261 -3.97563,10.54833c-0.67827,1.3311 -1.29243,2.32942 -1.84249,2.99497l-2.99964,3.0138c-3.48246,2.90079 -6.15584,4.96651 -8.02013,6.19715c-3.12148,2.10967 -6.05275,3.44704 -8.79381,4.01213l-5.70569,0.48975c-17.28231,0.56509 -31.28744,-0.26999 -42.01538,-2.50522c-4.99901,-1.0046 -8.71076,-2.45499 -11.13522,-4.35118c-1.56954,-1.10507 -2.69754,-2.21641 -3.38398,-3.33403c-1.2251,-1.23064 -2.32044,-2.85056 -3.28601,-4.85976c-1.27675,-2.78777 -1.74649,-7.07617 -1.4092,-12.86519c0.22055,-5.68856 0.6706,-10.48555 1.35013,-14.39094c0.89562,-5.78902 3.40544,-15.15066 7.52947,-28.08492c1.40633,-4.23189 2.55725,-7.35244 3.45277,-9.36164c3.69981,-7.35871 6.21828,-12.99077 7.55539,-16.89616c0.4746,-1.44412 0.9373,-2.49895 1.38811,-3.1645c0.76005,-1.23064 1.64619,-1.90246 2.65843,-2.01548c0.47014,-0.059 0.97968,0.0052 1.52866,0.1926c11.95598,7.69359 25.0578,13.22408 41.0125,13.43071c7.01973,0.09091 15.31651,0.39872 22.60471,-2.25874c3.48685,-1.2714 7.38583,-2.67735 11.10309,-4.4879c0.1606,0.19431 0.30041,0.41359 0.41939,0.65786z" fill="#cccccc"/><path d="M309.23483,218.39153c-1.00728,5.78902 -2.5325,19.33232 -4.57568,40.6299c-0.29795,3.56634 -0.67186,6.96315 -1.12174,10.19044c0.01335,0.56509 -0.04772,1.23692 -0.18319,2.01549l-0.2327,1.33738c-1.3487,10.24694 -2.92638,18.99327 -4.73303,26.23896l-0.4297,1.50691c-0.49645,1.56969 -0.96388,2.68731 -1.40227,3.35286c-1.15185,1.55714 -2.60869,2.3357 -4.37052,2.3357c-1.72249,-0.22604 -2.78327,-1.11761 -3.18232,-2.67475c-0.16745,-0.89159 -0.04228,-1.89619 0.37551,-3.01381l1.7326,-7.17663c0.73945,-1.68271 1.29221,-2.96985 1.65826,-3.86144c1.11573,-2.56173 1.98385,-5.62577 2.60439,-9.19212c0.1158,-0.66555 0.61278,-3.8426 1.49091,-9.53117c0.43021,-3.11427 0.77825,-6.39807 1.04413,-9.85138l3.90568,-37.63493c-5.21128,3.35286 -10.8681,5.80786 -16.97043,7.36499c-7.2459,1.78317 -16.08342,1.94642 -26.51257,0.48974c-10.39201,-1.67015 -18.35065,-4.06236 -23.8759,-7.17663c-3.10171,-1.78317 -5.77948,-3.79237 -8.03329,-6.02761c-7.07703,14.71743 -12.78308,30.43319 -17.11813,47.14726c0.23667,0.56509 0.19005,1.79573 -0.13989,3.69191c-1.2658,5.34951 -2.37808,11.42107 -3.33683,18.2147c-0.06314,1.0046 -0.17387,2.56802 -0.33221,4.69024c0.26452,2.90079 0.20391,4.85349 -0.18181,5.85809c-0.54693,1.21808 -1.2542,2.10966 -2.12177,2.67475c-0.45079,0.66555 -1.13632,1.11134 -2.05656,1.33738c-1.29964,0.55253 -2.37594,0.10674 -3.22891,-1.33738c-0.07233,-0.22604 -0.13484,-0.50858 -0.18751,-0.84763c-0.23885,-0.55253 -0.39602,-1.21808 -0.47147,-1.99665c0.05899,-0.33905 0.05233,-0.6216 -0.02001,-0.84763c-0.07224,-4.00585 0.55974,-9.24234 1.89593,-15.70947c1.79847,-9.69441 4.50277,-20.17368 8.11286,-31.43778c3.56351,-10.92506 7.93812,-22.12637 13.12386,-33.60396c0.40435,-1.00093 0.83064,-1.84178 1.27887,-2.52254c0.00651,0.00204 0.01301,0.00407 0.01952,0.00611c1.43251,0.44836 2.97344,0.52953 4.55856,0.4507c12.60362,8.50606 26.38164,14.79041 43.40906,15.01093c7.01973,0.09091 15.31651,0.39872 22.60471,-2.25874c5.41994,-1.97625 11.83567,-4.27761 17.01681,-7.91827c-0.00441,0.02534 -0.00882,0.05071 -0.01324,0.0761z" fill="#000000"/></g><path d="" fill="#000000" stroke-width="1"/><path d="" fill="#000000" stroke-width="1"/><path d="" fill="#000000" stroke-width="1"/><path d="" fill="#000000" stroke-width="1"/><path d="" fill="#000000" stroke-width="1"/><g stroke-width="1"><path d="" fill="#000000"/><path d="" fill="#000000"/><path d="" fill="#000000"/><path d="" fill="#000000"/><path d="" fill="#e16f6f"/><path d="" fill="#c2e16f"/><path d="" fill="#6f7ce1"/></g><path d="M310.58052,191.79815c1.53871,5.24724 2.45686,12.11179 2.75444,20.59366c-0.04156,3.71904 -0.11816,5.94253 -0.22979,6.67049c-0.1194,1.48387 -0.57633,3.44474 -1.3708,5.88262c-1.97823,6.63068 -4.4897,11.5272 -7.53437,14.68956c-2.9228,3.07288 -7.97516,6.08357 -15.15709,9.03207l-4.93411,1.96529c-5.70233,1.68523 -13.05323,1.62149 -22.05271,-0.19125c-1.25632,-0.19266 -3.11963,-0.58056 -5.58991,-1.16368c-2.9689,-0.77976 -7.27473,-2.24526 -12.9175,-4.39646c-1.62045,-0.56095 -3.08736,-1.10437 -4.40074,-1.63026c1.40284,0.64776 2.85355,1.29685 4.35213,1.94728l5.85336,2.50197c3.5075,1.49928 5.92827,2.4053 7.26231,2.71804c1.22571,0.39227 3.18882,0.79546 5.88932,1.20959l15.79793,2.42268c1.94163,-0.12285 4.11602,-0.74479 6.52318,-1.8658c2.86225,-1.26754 4.7264,-1.94305 5.59244,-2.02656c2.4299,-0.22346 4.0755,0.41173 4.9368,1.90558c-0.17465,0.1033 -0.34361,0.20295 -0.50646,0.29816c-1.44679,0.84583 -3.00943,0.73354 -4.28526,1.65458c-0.20753,0.14981 -0.52814,0.53444 -0.89706,1.03605c-2.17762,0.38474 -4.26189,0.57173 -5.68764,0.46404c-3.11329,-0.23518 -6.39302,1.87954 -9.49137,1.57276c-5.18075,-0.51297 -10.57476,-0.76911 -15.94109,-1.28687c-5.83051,-2.93963 -12.78095,-3.55213 -18.61079,-6.52622c-1.78765,-0.91196 -4.86461,-1.17029 -6.34697,-2.58002c-4.11013,-3.90876 -8.42659,-7.40845 -12.57596,-11.19851c-0.07521,-0.17194 -0.15635,-0.34097 -0.2432,-0.50679c0.59566,-0.67701 1.27499,-1.0002 2.03799,-0.96956c0.84984,0.02217 1.8462,0.49943 2.98908,1.4318c-2.52982,-2.31075 -4.54227,-4.86061 -6.03736,-7.64961c-1.22489,-2.4351 -2.30663,-5.80364 -3.24522,-10.1056l-0.65086,-4.10161c-0.02645,-0.53283 0.19261,-2.31386 0.65716,-5.34312l1.2029,-5.7281c1.37066,-6.1951 2.61248,-10.80562 3.72546,-13.83157c1.81648,-4.94902 4.19423,-9.01281 7.13323,-12.19136c1.00829,-1.01106 3.29895,-3.05727 6.87198,-6.13858c1.11576,-1.0066 4.14935,-3.74404 9.10076,-8.21229c1.26825,-1.29567 2.24593,-2.10714 2.93303,-2.43439c0.34762,-0.15099 1.6773,-0.47584 3.98902,-0.97457c5.84915,-0.60518 10.21421,-0.89718 13.09513,-0.87599c7.13013,0.13205 13.87335,1.37645 20.22967,3.73322c2.20853,0.87948 4.13534,1.87197 5.78044,2.97749l2.87295,2.18911c8.60499,7.83306 14.3135,16.17732 17.12552,25.03278z" fill="#cccccc" stroke-width="1"/><path d="M288.65271,158.34977c6.51309,3.45037 12.15541,8.42561 16.92695,14.92571c4.40194,6.01079 7.7273,12.81188 9.97608,20.40326c2.29113,7.39357 3.1146,14.56207 2.4704,21.50549c-0.84451,11.07073 -5.02271,20.5667 -12.53459,28.48788c-1.51647,1.58207 -3.07543,3.04948 -4.6769,4.4022c-0.05557,0.36236 -0.11184,0.72929 -0.16881,1.10079c-2.22572,1.02302 -4.27776,2.29786 -5.79691,3.186c-0.38072,0.22257 -0.76945,0.37881 -1.15888,0.50498l0.01078,-0.13236c-0.20963,0.10624 -0.42006,0.21076 -0.63132,0.31356c-0.88038,0.237 -1.7442,0.41858 -2.50583,0.9684c-0.07986,0.05765 -0.17646,0.15007 -0.28612,0.27055c-1.02713,0.41325 -2.07241,0.78835 -3.13581,1.12531c-1.2104,0.12721 -2.3056,0.16898 -3.16278,0.10423c-3.11329,-0.23518 -6.39302,1.87954 -9.49137,1.57276c-4.49109,-0.44468 -9.14246,-0.69636 -13.79712,-1.09279c-1.10815,-0.23418 -2.23948,-0.49525 -3.39397,-0.78318c-3.79123,-1.67103 -7.9694,-2.53896 -11.96283,-3.80014c-5.76422,-2.19326 -10.51358,-4.53746 -14.24807,-7.0326c-3.33733,-3.01336 -6.75838,-5.85551 -10.07281,-8.88293c-0.10181,-0.23274 -0.21447,-0.46015 -0.33747,-0.68149c-0.14062,-1.51072 -1.25766,-3.09012 -2.66796,-4.38689c-1.1715,-2.11585 -2.08643,-4.3446 -2.74479,-6.68626c-1.40063,-5.44238 -1.19448,-13.40836 0.61844,-23.89797c1.39432,-7.68163 2.99452,-13.57113 4.80058,-17.6685c3.38307,-7.48481 8.84113,-13.84623 16.37417,-19.08427c6.56163,-4.5458 14.31102,-7.78582 23.24817,-9.72007c5.07855,-1.14397 9.27698,-1.40744 12.59531,-0.79041c1.66727,0.25568 3.50626,0.80209 5.51699,1.63921zM296.5735,172.52527c-6.13981,-6.58976 -13.34546,-10.73518 -21.61696,-12.43629c-4.95498,-1.07232 -9.8029,-1.11876 -14.54376,-0.13932c-5.36315,0.88402 -10.99431,3.16301 -16.89347,6.83699c-4.59006,2.8172 -8.24669,5.77755 -10.96988,8.88104c-5.0222,5.63512 -8.68138,14.56773 -10.97753,26.79786c-1.50596,8.40959 -1.43765,15.25197 0.20493,20.52716c2.13437,6.29998 6.33323,11.6367 12.5966,16.01017c4.5288,3.14607 10.71463,5.90932 18.55749,8.28977c9.56451,3.06508 17.54496,4.23484 23.94135,3.50928c6.70894,-0.56947 12.94062,-2.92462 18.69506,-7.06544c5.75264,-4.12907 10.01059,-9.28653 12.77384,-15.47236c4.43304,-10.09981 4.68179,-21.47822 0.74628,-34.13523z" fill="#000000" stroke-width="1"/><path d="M239.26363,213.34451c1.51226,4.71442 3.45194,8.05228 5.81904,10.0136c2.90836,2.58512 8.1433,4.61369 15.70486,6.08574c2.57416,0.61107 5.21736,1.12457 7.92961,1.54051c1.45592,0.22327 3.07845,0.41802 4.8676,0.58423c0.86604,-0.0835 2.18851,-0.3614 3.96742,-0.83367c2.29105,-0.28558 4.22036,-0.68071 5.78792,-1.1854c0.03241,-0.21134 0.10955,-0.36174 0.23143,-0.45121l3.10421,-1.43473c0.35389,-0.2702 0.97494,-0.87197 1.86315,-1.80531l1.49307,-2.33074c0.97768,-0.81146 1.57353,-1.24885 1.78753,-1.31217c0.53613,-0.67488 1.43533,-1.28807 2.69761,-1.83958c1.00679,-0.37437 1.88813,-0.55768 2.64404,-0.54991c1.48833,0.01193 2.52446,0.54336 3.10837,1.59431c0.60012,0.94527 0.44285,1.61817 -0.47181,2.01868c-0.04681,0.30527 -0.1921,0.54738 -0.43585,0.72632c-2.83333,3.19476 -5.23999,5.33132 -7.22,6.40968c-2.97389,1.9955 -7.59163,3.58267 -13.85323,4.76154l-3.23616,0.29688c-0.98791,0.17297 -3.20198,-0.00433 -6.64219,-0.5319c-7.19742,-1.10376 -12.71872,-2.32302 -16.56391,-3.65777c-6.1918,-2.01909 -10.70003,-4.63323 -13.52469,-7.84244c-1.27946,-1.37392 -2.23248,-2.79993 -2.85905,-4.27801c-0.73223,-1.4943 -1.42098,-3.62485 -2.06623,-6.39168l-0.11659,-0.18011c0.03241,-0.21134 -0.16272,-0.34942 -0.58541,-0.41424l-0.33237,-1.00636l-0.72632,-0.43585c0.01621,-0.10567 -0.08137,-0.17471 -0.29271,-0.20712l-0.88482,-0.46016l-0.97311,-0.94239l-0.22248,-0.66503l0.61495,-2.95212l0.41424,-0.58541l0.55244,-0.54619l0.47552,0.07292c1.05094,-0.58391 2.18249,-0.67477 3.39466,-0.27257c0.52836,0.08103 0.97461,0.30569 1.33874,0.67398c0.80122,0.33918 1.31775,1.16347 1.54957,2.47287l0.794,3.16819l0.97311,0.94239l0.01266,0.97535z" fill="#000000" stroke-width="1"/><path d="M284.88141,192.34558l1.689,-0.55216l0.95775,-0.01536l0.49713,-0.06797c0.76037,-0.0997 1.36736,0.09552 1.82095,0.58569l0.58541,0.41424c0.2684,0.36563 0.39449,0.60129 0.37829,0.70695l0.41199,0.36962l0.08558,0.49983l-0.03326,1.27476l0.10989,0.34132l-0.09453,0.61641l-0.00895,1.11625c0.15099,0.34762 0.10238,0.66464 -0.14585,0.95104l-0.22873,0.4336l-0.36563,0.2684l-0.20712,0.29271l-0.71094,0.52188l-0.70695,0.37829l-0.66503,0.22248l-3.13493,-0.48076l-0.59211,-0.25304l-0.2684,-0.36563c-0.10567,-0.01621 -0.29271,-0.20712 -0.5611,-0.57275l-0.52188,-0.71094l-0.14956,-1.14056l-0.15851,-0.02431l0.45645,-2.97642l0.23143,-0.45121z" fill="#000000" stroke-width="1"/><path d="M250.3496,183.84132l1.25045,0.19176l0.59211,0.25304l0.58541,0.41424c0.34793,0.47397 0.57473,0.71905 0.6804,0.73525l0.21978,0.68264l0.15851,0.02431c-0.12188,0.08947 -0.09245,0.25021 0.08828,0.48221l-0.04862,0.31701l0.06128,0.65834l-0.25304,0.59211l-0.07292,0.47552l-0.22873,0.4336l-0.15851,-0.02431l-0.28005,0.76823l-0.15851,-0.02431l-0.41154,0.5678l-0.44525,0.90513l-0.33862,0.09228l-0.73126,0.5368l-2.14421,0.46433l-1.25045,-0.19176c-0.62229,-0.09543 -1.07664,-0.26726 -1.36304,-0.51547l-0.5678,-0.41154c-0.2684,-0.36563 -0.45544,-0.55655 -0.5611,-0.57275l-0.10989,-0.34132l0.04591,-0.2994l-0.25078,-0.36293l0.14315,-0.93344l-0.10989,-0.34132c0.15429,-0.30081 0.24674,-0.55102 0.27735,-0.75062l0.09723,-0.63403l0.60105,-0.86322c0.42269,0.06482 0.66644,-0.11411 0.73126,-0.5368l0.15851,0.02431c0.35209,-0.25846 0.54433,-0.49336 0.57675,-0.70471l0.52414,-0.24409l2.19283,-0.78134z" fill="#000000" stroke-width="1"/><g stroke-width="1"><path d="M236.58036,174.53732l-0.34132,0.10989c-0.08947,-0.12188 -0.11799,-0.28849 -0.08558,-0.49983c0.07326,0.22755 0.21557,0.35753 0.42691,0.38994M280.94291,157.49192c-0.2011,0.60608 -0.61578,1.23349 -1.24404,1.88223l0.1342,0.18281c-0.22755,0.07326 -0.4713,0.25219 -0.73126,0.5368c-1.38863,0.74844 -2.56367,1.47556 -3.52515,2.18136c-0.68531,0.31552 -1.32455,0.6441 -1.91773,0.98577c-0.10567,-0.01621 -0.20548,-0.03151 -0.2994,-0.04591l-1.17977,0.28775l-1.87851,0.84756l-0.36293,0.25078l-0.49983,0.08558l-4.11056,1.7671l-2.92184,0.3631c-0.24195,0.1672 -0.38724,0.40929 -0.43585,0.72632c-0.33322,0.05706 -0.66867,0.16785 -1.00636,0.33237l-0.42691,-0.38994l-1.75028,-0.10618l-1.14056,0.14956l-0.18011,0.11659l-0.31701,-0.04862l-6.733,2.17612l-0.04862,0.31701c-0.01621,0.10567 -0.03961,0.25831 -0.07022,0.45791c-0.41095,-0.06302 -0.84397,-0.02127 -1.29907,0.12525l-0.1652,0.1369l-0.31701,-0.04862c-0.76037,0.0997 -1.42094,0.21472 -1.98171,0.34503l-1.47918,0.24184c-0.63849,0.01024 -1.20795,-0.07709 -1.70836,-0.26198l-2.25011,-0.02059c0.24375,-0.17893 0.53224,-0.29692 0.86546,-0.35398c-0.84984,-0.02217 -1.5778,-0.1338 -2.18388,-0.33491c-0.70909,-0.31304 -1.31807,-0.88713 -1.82692,-1.72226c-0.43739,-0.59585 -0.81972,-1.23732 -1.14697,-1.92443c-0.65718,-1.27849 -1.02677,-2.6691 -1.10877,-4.17184c-0.0835,-0.86604 -0.07282,-3.05158 0.03208,-6.5566c0.01621,-0.10567 0.03241,-0.21134 0.04862,-0.31701c0.01621,-0.10567 -0.02852,-0.16661 -0.1342,-0.18281c0.01939,-2.86919 0.02273,-5.32023 0.01001,-7.35313l0.64286,-12.53774l1.94728,-4.35213l1.23733,-1.72102l1.93714,-8.51772c0.36383,-0.25666 0.62289,-0.53539 0.77717,-0.83621c0.12188,-0.08947 0.24509,-0.2268 0.36962,-0.41199c0.12188,-0.08947 0.3047,-0.22367 0.54844,-0.4026c0.15429,-0.30081 0.46032,-0.57234 0.91808,-0.8146l0.34132,-0.10989l0.15851,0.02431c0.36563,-0.2684 0.70918,-0.43203 1.03067,-0.49088l4.0108,2.05717c-0.01621,0.10567 0.02852,0.16661 0.1342,0.18281l-0.02431,0.15851c-0.01621,0.10567 0.02852,0.16661 0.1342,0.18281l0.15851,0.02431l2.23891,2.09188c0.1834,0.13629 0.47834,0.28966 0.88482,0.46016l0.10989,0.34132l1.5166,1.51244l5.96967,4.91728c0.722,0.8558 1.43589,1.76444 2.14168,2.72591c2.27166,2.58361 5.54828,6.6072 9.82984,12.07077c4.25692,4.919 6.52768,7.50848 6.81229,7.76845c1.2735,2.11809 1.76198,3.79132 1.46545,5.01969M255.84783,132.35459c-2.27166,-2.58361 -4.49347,-4.78704 -6.66542,-6.61027c-0.65868,-0.6418 -1.38142,-1.17926 -2.16824,-1.61237c-0.15695,0.39654 -0.32878,0.85089 -0.51547,1.36304l-0.36293,0.25078c-0.10567,-0.01621 -0.34132,0.10989 -0.70695,0.37829l-0.32371,0.11259c-0.71078,1.81379 -1.4472,3.83395 -2.20926,6.06049c0.10567,0.01621 0.1504,0.07714 0.1342,0.18281c-0.5889,1.72432 -1.08024,3.51768 -1.474,5.38009c-0.15845,1.03323 -0.30633,3.40804 -0.44362,7.1244l0.10883,6.57821l0.11777,5.46196c0.04513,1.82155 0.17774,3.38613 0.39782,4.69373c0.07754,1.61021 0.25786,2.86364 0.54097,3.76029l0.4026,0.54844c0.21134,0.03241 0.5387,-0.02555 0.98205,-0.17387c3.10601,-1.44647 6.93097,-2.7226 11.47489,-3.82838l2.97046,-0.68011l8.9561,-1.97941c3.28344,-0.56602 5.75665,-1.41253 7.41964,-2.5395c0.34942,-0.16272 0.60129,-0.39449 0.75557,-0.6953c0.04681,-0.30527 -0.06398,-0.64072 -0.33237,-1.00636c-1.91199,-2.10784 -3.59809,-3.96473 -5.05829,-5.57067c-2.61332,-3.17679 -4.63387,-5.67383 -6.06167,-7.4911c-0.722,-0.8558 -1.28549,-1.68729 -1.69046,-2.49448c-1.62293,-1.95536 -3.07412,-3.62 -4.35359,-4.99391c-0.60012,-0.94527 -1.23175,-1.68506 -1.89489,-2.21939M255.03162,164.71252c0.4533,-0.13479 0.85465,-0.28354 1.20408,-0.44626c-0.33322,0.05706 -0.67454,0.16695 -1.02397,0.32967c-2.05177,0.21412 -3.47313,0.47083 -4.26412,0.77014c-0.57698,0.23599 -0.97924,0.39062 -1.20678,0.46387c1.7627,-0.3666 3.52629,-0.73909 5.29079,-1.11743z" fill="#000000"/><path d="M246.49869,125.49499c0.1867,-0.51216 0.35853,-0.9665 0.51547,-1.36304c0.78682,0.43311 1.50956,0.97057 2.16824,1.61237l-6.15237,6.73564c0.01621,-0.10567 -0.02852,-0.16661 -0.1342,-0.18281c0.76206,-2.22653 1.49848,-4.2467 2.20926,-6.06049l0.32371,-0.11259c0.36563,-0.2684 0.60129,-0.39449 0.70695,-0.37829l0.36293,-0.25078M262.09631,139.5679l-20.35948,22.15045c-0.22008,-1.3076 -0.3527,-2.87217 -0.39782,-4.69373l-0.11777,-5.46196l16.52147,-16.98868c1.27946,1.37392 2.73066,3.03856 4.35359,4.99391M274.48354,156.82582c-1.66299,1.12698 -4.1362,1.97348 -7.41964,2.5395l-8.9561,1.97941l11.74065,-11.79124c1.4602,1.60594 3.14629,3.46282 5.05829,5.57067c0.2684,0.36563 0.37919,0.70108 0.33237,1.00636c-0.15429,0.30081 -0.40614,0.53258 -0.75557,0.6953z" fill="#e16f6f"/><path d="M269.84845,149.55347l-11.74065,11.79124l-2.97046,0.68011c-4.54392,1.10578 -8.36889,2.38191 -11.47489,3.82838c-0.44336,0.14832 -0.7707,0.20628 -0.98205,0.17387l-0.4026,-0.54844c-0.2831,-0.89665 -0.46343,-2.15008 -0.54097,-3.76029l20.35948,-22.15045c0.40498,0.80719 0.96848,1.63868 1.69046,2.49448c1.42779,1.81728 3.44834,4.31431 6.06167,7.4911z" fill="#c2e16f"/><path d="M241.22125,151.56266l-0.10883,-6.57821c0.13729,-3.71636 0.28517,-6.09117 0.44362,-7.1244c0.39377,-1.8624 0.8851,-3.65577 1.474,-5.38009l6.15237,-6.73564c2.17196,1.82324 4.39376,4.02667 6.66542,6.61027c0.66314,0.53432 1.29477,1.27412 1.89489,2.21939z" fill="#6f7ce1"/></g><path d="M247.82989,226.87498c2.96751,1.59912 7.77896,3.99652 11.0347,4.96871c2.65249,0.79206 5.43649,-0.07235 8.09387,0.25171c4.8641,0.59315 8.92729,2.02267 14.00159,2.00378c3.53244,-0.01315 6.29253,-4.34985 9.25036,-5.67158c0.32461,-0.14505 0.65748,-0.21588 0.98437,-0.22356c0.84687,-1.88902 1.88712,-3.73896 3.24239,-4.55212l0.30513,-0.26154c0.06525,-0.03262 0.12924,-0.06338 0.19202,-0.09226c0.32389,-0.18528 0.69322,-0.30018 1.08714,-0.32386c0.12189,-0.0105 0.23876,-0.00945 0.35146,0.00324c1.28764,0.10144 2.30093,1.17848 2.30093,2.49219c0.49455,0.98921 -2.84623,4.85091 -3.37598,6.03058c-2.08971,4.65346 -8.73278,18.16784 -13.68131,19.40497c-2.9281,0.73202 -6.13148,0.47182 -9.1375,0.31241c-1.01723,0.28212 -2.10223,0.36313 -3.43033,-0.02001c-0.13082,-0.03774 -0.26539,-0.08849 -0.40313,-0.14996c-9.19687,-0.41813 -14.93043,-1.00354 -23.73193,-4.64924c-3.27912,-1.35826 -8.05986,-2.55226 -10.07187,-5.70291c-3.26293,-5.10949 -1.47158,-15.45461 -2.83103,-20.94839c-0.51258,-2.07141 -1.82122,-12.15696 -1.03923,-13.24056c2.8783,-3.98848 5.06511,1.82061 5.15776,4.22831c0.08474,2.20204 0.16562,4.44797 0.28334,6.70564c0.62449,-0.23009 1.22822,-0.14157 1.62056,0.54502c0.73685,0.43488 1.23117,1.23698 1.23117,2.15454c0,0.05017 -0.00148,0.09999 -0.00439,0.14942c0.00936,3.15435 6.47826,5.45832 8.56994,6.58547z" fill="#000000" stroke-width="0.5"/></g></g></svg>