<svg version="1.1" xmlns="http://www.w3.org/2000/svg" xmlns:xlink="http://www.w3.org/1999/xlink" width="117.9715" height="199.24034" viewBox="0,0,117.9715,199.24034"><g transform="translate(-173.11223,-117.6289)"><g stroke="none" stroke-miterlimit="10"><g stroke-width="1"><path d="M263.7914,222.40367c0.71166,0.66555 1.4012,1.8899 2.06861,3.67308l4.73501,13.03472c1.88036,4.91 3.19536,8.64587 3.94499,11.2076c1.16685,3.34031 2.61186,8.47006 4.335,15.38925l5.24061,23.73374c0.56519,4.90999 0.72742,8.4261 0.48669,10.54833c-0.11517,1.3311 -0.307,2.32942 -0.57551,2.99497l-1.72469,3.0138c-2.25532,2.90079 -4.05483,4.96651 -5.39851,6.19715c-2.22901,2.10967 -4.59453,3.44704 -7.09654,4.01213l-5.4985,0.48975c-17.04326,0.56509 -31.40166,-0.26999 -43.07517,-2.50522c-5.42399,-1.0046 -9.74931,-2.45499 -12.97593,-4.35118c-2.03702,-1.10507 -3.63516,-2.21641 -4.7944,-3.33403c-1.74571,-1.23064 -3.52633,-2.85056 -5.34186,-4.85976c-2.45608,-2.78777 -4.73996,-7.07617 -6.85164,-12.86519c-2.18592,-5.68856 -3.76517,-10.48555 -4.73776,-14.39094c-1.55335,-5.78902 -3.00384,-15.15066 -4.35147,-28.08492c-0.38391,-4.23189 -0.5531,-7.35244 -0.50754,-9.36164c0.58681,-7.35871 0.72272,-12.99077 0.40771,-16.89616c-0.13631,-1.44412 -0.11984,-2.49895 0.04941,-3.1645c0.23944,-1.23064 0.84139,-1.90246 1.80581,-2.01548c0.44518,-0.059 0.98187,0.0052 1.61013,0.1926c15.21065,7.69359 30.65207,13.22408 46.69418,13.43071c7.05819,0.09091 15.48519,0.39872 21.64918,-2.25874c2.949,-1.2714 6.25322,-2.67735 9.20454,-4.4879c0.2428,0.19431 0.47537,0.41359 0.69769,0.65786z" fill="#cccccc"/><path d="M267.5752,218.39153c1.44169,5.78902 5.64577,19.33232 12.61223,40.6299c1.21074,3.56634 2.27381,6.96315 3.18919,10.19044c0.2524,0.56509 0.47554,1.23692 0.66943,2.01549l0.33306,1.33738c2.98613,10.24694 5.10846,18.99327 6.367,26.23896l0.20778,1.50691c0.16758,1.56969 0.17295,2.68731 0.01611,3.35286c-0.49312,1.55714 -1.6206,2.3357 -3.38243,2.3357c-1.81811,-0.22604 -3.25606,-1.11761 -4.31383,-2.67475c-0.54463,-0.89159 -0.84443,-1.89619 -0.89944,-3.01381l-1.30337,-7.17663c0.0276,-1.68271 0.03585,-2.96985 0.02474,-3.86144c0.03202,-2.56173 -0.39605,-5.62577 -1.28421,-9.19212c-0.16575,-0.66555 -1.01278,-3.8426 -2.54112,-9.53117c-0.88724,-3.11427 -1.92836,-6.39807 -3.12336,-9.85138l-12.01525,-37.63493c-3.7929,3.35286 -8.41116,5.80786 -13.85477,7.36499c-6.49155,1.78317 -15.26002,1.94642 -26.3054,0.48974c-11.09854,-1.67015 -20.06917,-4.06236 -26.91187,-7.17663c-3.85606,-1.78317 -7.38379,-3.79237 -10.58318,-6.02761c-0.85102,14.71743 0.09126,30.43319 2.82686,47.14726c0.47572,0.56509 0.9497,1.79573 1.42193,3.69191c0.99724,5.34951 2.45345,11.42107 4.36865,18.2147c0.36184,1.0046 0.91249,2.56802 1.65193,4.69024c1.49166,2.90079 2.25711,4.85349 2.29638,5.85809c-0.03164,1.21808 -0.36173,2.10966 -0.99026,2.67475c-0.16924,0.66555 -0.66618,1.11134 -1.4908,1.33738c-1.0659,0.55253 -2.33079,0.10674 -3.79467,-1.33738c-0.16795,-0.22604 -0.34999,-0.50858 -0.54609,-0.84763c-0.47259,-0.55253 -0.91131,-1.21808 -1.31612,-1.99665c-0.08444,-0.33905 -0.21063,-0.6216 -0.37859,-0.84763c-1.76686,-4.00585 -3.3501,-9.24234 -4.74974,-15.70947c-2.30262,-9.69441 -4.03143,-20.17368 -5.18646,-31.43778c-1.05818,-10.92506 -1.42213,-22.12637 -1.09183,-33.60396c-0.01908,-1.00093 0.0515,-1.84178 0.21174,-2.52254c0.00737,0.00204 0.01473,0.00407 0.0221,0.00611c1.62218,0.44836 3.19745,0.52953 4.74922,0.4507c16.20199,8.50606 32.63852,14.79041 49.75923,15.01093c7.05819,0.09091 15.48519,0.39872 21.64918,-2.25874c4.58392,-1.97625 10.02608,-4.27761 13.66709,-7.91827c0.00631,0.02534 0.01263,0.05071 0.01895,0.0761z" fill="#000000"/></g><path d="" fill="#000000" stroke-width="1"/><path d="" fill="#000000" stroke-width="1"/><path d="" fill="#000000" stroke-width="1"/><path d="" fill="#000000" stroke-width="1"/><path d="" fill="#000000" stroke-width="1"/><g stroke-width="1"><path d="" fill="#000000"/><path d="" fill="#000000"/><path d="" fill="#000000"/><path d="" fill="#000000"/><path d="" fill="#e16f6f"/><path d="" fill="#c2e16f"/><path d="" fill="#6f7ce1"/></g><path d="M267.01673,185.04197c2.02287,5.08027 3.57919,11.82882 4.66899,20.24565c0.30655,3.70661 0.43831,5.92752 0.39527,6.66273c0.01995,1.48853 -0.25153,3.48355 -0.81444,5.98506c-1.34923,6.78668 -3.39159,11.89668 -6.12705,15.33c-2.6225,3.33285 -7.37103,6.80301 -14.24562,10.41047l-4.72861,2.41827c-5.51966,2.21132 -12.84429,2.83557 -21.97388,1.87272c-1.26884,-0.07428 -3.16026,-0.28616 -5.67426,-0.63561c-3.02883,-0.49859 -7.45288,-1.55482 -13.27216,-3.16868c-1.66583,-0.40689 -3.17714,-0.81069 -4.53396,-1.2114c1.45729,0.51368 2.96237,1.0242 4.51522,1.53158l6.06176,1.94339c3.63238,1.16456 6.1273,1.84013 7.48475,2.02669c1.25704,0.27588 3.24925,0.49364 5.97665,0.65332l15.95529,0.93409c1.92162,-0.30396 4.02829,-1.1266 6.32002,-2.46789c2.73111,-1.52976 4.52389,-2.37671 5.37832,-2.54087c2.39834,-0.44981 4.09615,0.02864 5.09343,1.43536c-0.16422,0.11919 -0.32312,0.23421 -0.47634,0.34423c-1.36131,0.97747 -2.9276,1.01187 -4.11167,2.04823c-0.1926,0.16857 -0.47583,0.5815 -0.7962,1.11543c-2.13208,0.58678 -4.18971,0.96794 -5.61928,0.99411c-3.12163,0.05712 -6.18914,2.46939 -9.3026,2.45382c-5.20602,-0.02603 -10.60034,0.22358 -15.99157,0.21014c-6.07995,-2.38127 -13.05721,-2.34084 -19.13973,-4.75647c-1.86513,-0.74072 -4.95276,-0.71005 -6.5605,-1.97492c-4.45778,-3.5071 -9.08273,-6.58761 -13.56848,-9.97285c-0.09096,-0.16415 -0.18757,-0.32485 -0.28955,-0.48182c0.52971,-0.72977 1.17582,-1.1151 1.93834,-1.15597c0.84819,-0.05744 1.88483,0.32452 3.10993,1.14588c-2.73491,-2.06394 -4.97709,-4.41435 -6.72654,-7.05124c-1.44733,-2.30983 -2.83947,-5.56239 -4.17641,-9.75768l-1.03173,-4.02273c-0.07618,-0.52801 -0.02471,-2.32173 0.1544,-5.38116l0.66173,-5.81552c0.78506,-6.29616 1.59011,-11.00263 2.41511,-14.11945c1.34551,-5.09726 3.33264,-9.36567 5.96139,-12.80524c0.90928,-1.10096 2.99846,-3.35249 6.26755,-6.75457c1.01669,-1.10657 3.78088,-4.11581 8.29255,-9.02769c1.14147,-1.40864 2.03894,-2.30801 2.69242,-2.69812c0.33197,-0.18285 1.62543,-0.63067 3.88035,-1.34348c5.76688,-1.14975 10.08547,-1.84883 12.95575,-2.09726c7.11121,-0.53559 13.94127,0.0725 20.49021,1.82427c2.28112,0.669 4.29233,1.47688 6.03365,2.42364l3.06515,1.91074c9.30007,6.99367 15.76419,14.76727 19.39235,23.32082z" fill="#cccccc" stroke-width="1"/><path d="M242.05584,153.79174c6.80732,2.82591 12.89035,7.25146 18.24908,13.27665c4.94497,5.57261 8.89202,12.03276 11.84115,19.38046c2.97278,7.1468 4.46329,14.20682 4.47151,21.18006c0.19492,11.10119 -3.07657,20.9464 -9.81444,29.5356c-1.36181,1.71701 -2.77665,3.32382 -4.24454,4.82044c-0.02143,0.36597 -0.04312,0.73656 -0.06509,1.11176c-2.12025,1.22676 -4.04402,2.68799 -5.47342,3.71435c-0.35822,0.25721 -0.73064,0.44914 -1.10655,0.61118l-0.00165,-0.13278c-0.19877,0.12539 -0.3985,0.24914 -0.59922,0.37124c-0.85434,0.31832 -1.69739,0.57992 -2.40424,1.19859c-0.07412,0.06487 -0.16164,0.16592 -0.25955,0.29613c-0.98396,0.50753 -1.98956,0.97877 -3.01678,1.41374c-1.19319,0.2399 -2.27968,0.38394 -3.13915,0.39967c-3.12163,0.05712 -6.18914,2.46939 -9.3026,2.45382c-4.513,-0.02257 -9.16751,0.16201 -13.83885,0.20279c-1.1252,-0.12948 -2.27599,-0.28356 -3.45236,-0.46222c-3.93094,-1.30902 -8.17198,-1.78225 -12.26588,-2.66429c-5.94413,-1.64437 -10.89197,-3.53396 -14.84352,-5.66878c-3.60461,-2.68792 -7.27655,-5.19755 -10.85967,-7.90161c-0.12313,-0.2222 -0.25658,-0.43806 -0.39974,-0.64693c-0.28133,-1.49094 -1.54123,-2.9589 -3.06668,-4.11805c-1.36431,-1.99697 -2.48374,-4.13035 -3.35828,-6.40015c-1.90364,-5.28747 -2.44366,-13.2378 -1.62004,-23.85101c0.66955,-7.77838 1.71174,-13.79176 3.12655,-18.04013c2.66799,-7.76848 7.50697,-14.61263 14.51693,-20.53245c6.10757,-5.13973 13.51986,-9.09053 22.23685,-11.85241c4.94925,-1.61407 9.10462,-2.26917 12.46612,-1.96529c1.68388,0.09858 3.56592,0.47054 5.64614,1.11588zM251.26807,167.16404c-6.72938,-5.98645 -14.29125,-9.43957 -22.68562,-10.35938c-5.03357,-0.60405 -9.86457,-0.19675 -14.49301,1.22193c-5.25693,1.38189 -10.65018,4.1777 -16.17974,8.38747c-4.30636,3.23427 -7.67,6.52373 -10.09091,9.86838c-4.47298,6.08025 -7.28042,15.31602 -8.42232,27.70733c-0.7126,8.5136 -0.00445,15.31958 2.12444,20.41796c2.7144,6.07267 7.39412,10.99316 14.03918,14.76148c4.80327,2.70858 11.22048,4.881 19.25164,6.51727c9.80931,2.15683 17.8642,2.57486 24.16465,1.25406c6.62624,-1.19463 12.61026,-4.12244 17.95207,-8.78346c5.34111,-4.64915 9.09789,-10.18234 11.27031,-16.59955c3.46871,-10.47024 2.65187,-21.82202 -2.4505,-34.05534z" fill="#000000" stroke-width="1"/><path d="M241.48155,187.99127l1.62994,-0.70775l0.95211,-0.10489l0.48859,-0.11418c0.74771,-0.1704 1.3703,-0.03282 1.86776,0.41276l0.6216,0.35766c0.30143,0.33892 0.44902,0.56174 0.44277,0.66846l0.44477,0.32946l0.13197,0.48963l0.08615,1.27228l0.14134,0.32954l-0.03645,0.62255l0.09552,1.11219c0.18285,0.33197 0.16411,0.65215 -0.05623,0.96052l-0.18716,0.4531l-0.33892,0.30143l-0.17883,0.3108l-0.659,0.58611l-0.66846,0.44277l-0.6413,0.28372l-3.16616,-0.18536l-0.61318,-0.19653l-0.30143,-0.33892c-0.10673,-0.00625 -0.3108,-0.17883 -0.61223,-0.51775l-0.58611,-0.659l-0.25561,-1.12157l-0.16009,-0.00937l0.17599,-3.00607l0.1882,-0.47089z" fill="#000000" stroke-width="1"/><path d="M206.30557,182.75492l1.26291,0.07394l0.61318,0.19653l0.6216,0.35766c0.39074,0.43934 0.63948,0.66213 0.7462,0.66837l0.28268,0.65909l0.16009,0.00937c-0.11298,0.10048 -0.06863,0.25776 0.13301,0.47184l-0.01874,0.32017l0.1226,0.64972l-0.19653,0.61318l-0.02812,0.48026l-0.18716,0.4531l-0.16009,-0.00937l-0.20695,0.79106l-0.16009,-0.00937l-0.35662,0.60381l-0.35861,0.94281l-0.3285,0.12355l-0.67783,0.60286l-2.09137,0.6629l-1.26291,-0.07394c-0.62848,-0.03679 -1.09692,-0.16536 -1.40529,-0.38569l-0.60381,-0.35662c-0.30143,-0.33892 -0.50551,-0.5115 -0.61223,-0.51775l-0.14134,-0.32954l0.0177,-0.30238l-0.28364,-0.33787l0.05519,-0.94274l-0.14134,-0.32954c0.12547,-0.31392 0.1941,-0.57168 0.20591,-0.77328l0.03749,-0.64034l0.51766,-0.91566c0.4269,0.02499 0.65284,-0.17596 0.67783,-0.60286l0.16009,0.00937c0.32636,-0.29026 0.49579,-0.54212 0.50829,-0.75558l0.499,-0.29206l2.11011,-0.98307z" fill="#000000" stroke-width="1"/><g stroke-width="1"><path d="M191.72629,174.77989l-0.32954,0.14134c-0.10048,-0.11298 -0.14447,-0.27619 -0.13197,-0.48963c0.09423,0.21969 0.24807,0.33579 0.46151,0.34829M234.2996,153.65894c-0.14352,0.62224 -0.49768,1.28569 -1.06249,1.99036l0.15071,0.16946c-0.21969,0.09423 -0.44564,0.29518 -0.67783,0.60286c-1.31252,0.87507 -2.41438,1.70893 -3.30561,2.50158c-0.65278,0.37825 -1.25848,0.7652 -1.8171,1.16086c-0.10673,-0.00625 -0.20752,-0.01215 -0.30238,-0.0177l-1.14768,0.39686l-1.79098,1.01959l-0.33787,0.28364l-0.48963,0.13197l-3.92721,2.14391l-2.87506,0.63486c-0.22525,0.1891 -0.34725,0.44372 -0.36599,0.76391c-0.32642,0.08798 -0.65003,0.22967 -0.97085,0.42507l-0.46151,-0.34829l-1.75254,0.05803l-1.12157,0.25561l-0.16842,0.13292l-0.32017,-0.01874l-6.49989,2.79648l-0.01874,0.32017c-0.00625,0.10673 -0.01527,0.26088 -0.02707,0.46247c-0.41504,-0.0243 -0.84226,0.05778 -1.28165,0.24624l-0.15167,0.15176l-0.32017,-0.01874c-0.74771,0.1704 -1.39462,0.34672 -1.94074,0.52892l-1.45007,0.37916c-0.63473,0.06993 -1.20987,0.03626 -1.72538,-0.10101l-2.24217,0.19c0.22594,-0.20095 0.50213,-0.34541 0.82855,-0.4334c-0.84819,0.05744 -1.5834,0.01439 -2.20563,-0.12913c-0.73527,-0.24533 -1.39528,-0.75992 -1.98003,-1.54379c-0.49122,-0.55231 -0.93188,-1.15521 -1.32198,-1.80868c-0.7739,-1.2114 -1.27197,-2.56134 -1.4942,-4.04981c-0.16415,-0.85443 -0.35799,-3.03138 -0.58147,-6.53085c0.00625,-0.10673 0.0125,-0.21344 0.01874,-0.32017c0.00625,-0.10673 -0.04399,-0.16321 -0.15071,-0.16946c-0.24912,-2.85843 -0.47511,-5.29902 -0.67795,-7.32182l-0.53292,-12.5429l1.53158,-4.51522l1.0709,-1.82923l1.13177,-8.66159c0.33822,-0.28957 0.57007,-0.59131 0.69554,-0.90525c0.11298,-0.10048 0.2228,-0.24873 0.32946,-0.44477c0.11298,-0.10048 0.28243,-0.25119 0.50837,-0.45214c0.12547,-0.31392 0.40475,-0.61289 0.83784,-0.89692l0.32954,-0.14134l0.16009,0.00937c0.33892,-0.30143 0.66565,-0.49649 0.98022,-0.58515l4.18566,1.67292c-0.00625,0.10673 0.04399,0.16321 0.15071,0.16946l-0.00937,0.16009c-0.00625,0.10673 0.04399,0.16321 0.15071,0.16946l0.16009,0.00937l2.42479,1.87325c0.19535,0.11853 0.50334,0.24364 0.92399,0.37536l0.14134,0.32954l1.65144,1.36392l6.40352,4.33722c0.7989,0.7845 1.59467,1.62237 2.38731,2.51359c2.50341,2.35975 6.14208,6.05915 10.91601,11.09821c4.69844,4.49918 7.2015,6.86486 7.50919,7.09706c1.46607,1.98965 2.10895,3.60985 1.92864,4.86058M206.96287,130.97961c-2.50341,-2.35975 -4.92162,-4.34566 -7.25461,-5.9577c-0.71583,-0.57736 -1.48568,-1.04485 -2.30957,-1.40245c-0.11917,0.40949 -0.24773,0.87791 -0.38569,1.40529l-0.33787,0.28364c-0.10673,-0.00625 -0.32954,0.14134 -0.66846,0.44277l-0.31175,0.14238c-0.53798,1.87233 -1.08217,3.95253 -1.63259,6.24059c0.10673,0.00625 0.15696,0.06273 0.15071,0.16946c-0.425,1.77185 -0.74641,3.60332 -0.9642,5.49439c-0.06109,1.04352 0.01385,3.42175 0.22485,7.13466l0.72377,6.53918l0.62825,5.42698c0.21534,1.80934 0.49374,3.35465 0.8352,4.63593c0.22784,1.59589 0.52464,2.82695 0.89039,3.69319l0.45214,0.50837c0.21344,0.0125 0.53394,-0.07583 0.96148,-0.26498c2.95706,-1.73071 6.64586,-3.35908 11.0664,-4.88512l2.8938,-0.95503l8.73164,-2.80861c3.21609,-0.87072 5.59926,-1.94489 7.14952,-3.2225c0.33267,-0.1947 0.56174,-0.44902 0.6872,-0.76294c0.01805,-0.30831 -0.12364,-0.63193 -0.42507,-0.97085c-2.1008,-1.91972 -3.95323,-3.61072 -5.55726,-5.07301c-2.89906,-2.91837 -5.14436,-5.21542 -6.73591,-6.89115c-0.7989,-0.7845 -1.43771,-1.55963 -1.91642,-2.32539c-1.79874,-1.79495 -3.39931,-3.31653 -4.8017,-4.56471c-0.68592,-0.88498 -1.38399,-1.56244 -2.09421,-2.03238M209.17747,163.27199c0.4387,-0.1766 0.82438,-0.36225 1.15705,-0.55695c-0.32642,0.08798 -0.65596,0.22932 -0.98863,0.42403c-2.02274,0.40514 -3.41385,0.7937 -4.17337,1.16569c-0.55237,0.28893 -0.9384,0.48052 -1.15809,0.57474c1.72067,-0.5299 3.44168,-1.06575 5.16304,-1.60751z" fill="#000000"/><path d="M197.01299,125.02475c0.13797,-0.52738 0.26653,-0.9958 0.38569,-1.40529c0.82389,0.3576 1.59374,0.82509 2.30957,1.40245l-5.49523,7.28168c0.00625,-0.10673 -0.04399,-0.16321 -0.15071,-0.16946c0.55041,-2.28806 1.09461,-4.36826 1.63259,-6.24059l0.31175,-0.14238c0.33892,-0.30143 0.56174,-0.44902 0.66846,-0.44277l0.33787,-0.28364M213.85879,137.57671l-18.19791,23.95802c-0.34145,-1.28128 -0.61985,-2.82658 -0.8352,-4.63593l-0.62825,-5.42698l14.85965,-18.45983c1.40239,1.24819 3.00296,2.76977 4.8017,4.56471M227.80624,153.60006c-1.55026,1.27762 -3.93343,2.35178 -7.14952,3.2225l-8.73164,2.80861l10.58603,-12.83791c1.60404,1.46229 3.45646,3.15328 5.55726,5.07301c0.30143,0.33892 0.44312,0.66253 0.42507,0.97085c-0.12547,0.31392 -0.35454,0.56824 -0.6872,0.76294z" fill="#e16f6f"/><path d="M222.51112,146.79324l-10.58603,12.83791l-2.8938,0.95503c-4.42054,1.52603 -8.10935,3.15441 -11.0664,4.88512c-0.42754,0.18915 -0.74803,0.27748 -0.96148,0.26498l-0.45214,-0.50837c-0.36575,-0.86624 -0.66255,-2.0973 -0.89039,-3.69319l18.19791,-23.95802c0.47872,0.76576 1.11753,1.54089 1.91642,2.32539c1.59154,1.67573 3.83684,3.97278 6.73591,6.89115z" fill="#c2e16f"/><path d="M194.19745,151.47183l-0.72377,-6.53918c-0.21099,-3.71291 -0.28594,-6.09113 -0.22485,-7.13466c0.2178,-1.89107 0.5392,-3.72254 0.9642,-5.49439l5.49523,-7.28168c2.333,1.61205 4.7512,3.59795 7.25461,5.9577c0.71022,0.46994 1.40829,1.1474 2.09421,2.03238z" fill="#6f7ce1"/></g><path d="M193.08266,214.2255c0.91599,0.05363 1.68783,0.59397 2.0789,1.35499l0.0318,0.02072l0.01368,0.07249c0.16622,0.35945 0.2492,0.76367 0.22564,1.18646l0.00175,0.00926l0.03437,0.12751l0.05264,0.07948l0.07579,0.21423l0.13755,0.18088l0.07225,0.16844l0.21777,0.30747l0.01455,0.03736l0.02959,0.02707l0.17857,0.26959l0.7599,0.85441l0.56549,0.54516l0.44527,0.40107l0.01436,0.02132l0.02246,0.0125l0.52419,0.4915l0.28067,0.23736l0.31361,0.23667l0.25283,0.11872l0.15689,0.12791l0.18988,0.07016l0.4826,0.32939l0.08722,0.09806l0.11778,0.05791l0.32958,0.27872l0.47391,0.35764l0.43347,0.29585l0.06772,0.07614l0.09246,0.04283l0.59325,0.47849l0.32084,0.21898l0.73385,0.42225l0.42351,0.16927l0.06095,0.044l0.07377,0.0145l0.48846,0.22935l0.08222,0.06703l0.10204,0.02902l0.97106,0.55874l0.07057,0.06803l0.09195,0.03397l0.34246,0.23373l0.53089,0.26526l0.05709,0.04891l0.0723,0.02057l0.49251,0.28338l0.24075,0.11304l0.1756,0.05499l0.19727,0.05161l0.55315,0.03238l0.38352,0.12009l0.03536,0.00481l0.37555,0.02199l0.23763,0.07441l0.24899,0.00272l0.49432,0.12932l0.29291,0.16034l0.32118,0.09137l0.09823,0.05653l0.10329,0.02702l0.62639,0.12722l0.0641,0.0306l0.07103,0.00077l0.49432,0.12932l0.05347,0.02928l0.06086,0.00356l0.25022,0.07835l0.64597,0.11944l0.22656,0.10331l0.24673,0.03358l0.44397,0.17744l0.34374,0.08992l0.09058,0.04958l0.10282,0.00947l0.68853,0.24106l0.10874,0.07151l0.1277,0.02509l0.37272,0.175l0.47234,0.16538l0.89074,0.23303l0.10584,0.05795l0.35497,0.02078l0.05242,-0.00733l0.01541,-0.0143l0.06126,0.00359l0.13178,-0.01843l0.54554,0.05808l0.54769,0.03206l0.10058,0.03149l0.19294,0.0113l0.23763,0.07441l0.24899,0.00272l0.74915,0.19598l0.94616,0.05539l0.10357,-0.01954l0.30723,0.01799l0.30242,-0.05706l0.20007,0.01171l0.08995,-0.01697l0.0065,-0.00299l0.40599,-0.07661l0.30723,0.01799l0.30242,-0.05706l0.30011,0.01757l0.40599,-0.07661l0.06954,0.00407l0.07088,-0.01146l0.02241,0.01692l0.21271,0.01245l0.02576,-0.00048l0.21417,-0.05772l0.11152,-0.00204l0.07914,-0.01493l0.17548,0.01027l0.01344,-0.00025l0.05142,-0.02689l0.03994,0.01345l0.32579,-0.06147l0.30011,0.01757l0.13346,0.04179l0.05798,-0.00106l0.02774,0.0279l1.01044,0.31639l0.16893,0.3404l0.32342,0.10888l0.19894,0.94367l0.00254,0.00511l0.04422,0.04448l-0.00764,0.02921l0.07946,0.1601l0.01651,0.01661l-0.00285,0.01091l0.2965,0.59745l-0.18634,0.28589l0.07839,0.37184l-0.72635,1.06422l-0.0899,0.07995l-0.00711,0.02717l-0.06273,0.03494l-0.05205,0.0463l-0.30197,0.15795l-0.02767,0.04245l-0.08366,0.01579l-0.09571,0.05006l-0.50183,0.27955l-0.04099,0.01104l-0.27457,0.14362l-0.09529,0.02301l-0.07803,0.05933l-0.75993,0.32593l-0.66151,0.3283l-0.06939,0.0152l-0.05654,0.043l-1.02963,0.44161l-0.07421,0.01199l-0.06241,0.04191l-1.43562,0.51822l-0.05879,0.00598l-0.05053,0.03065l-1.60973,0.49847l-0.48611,0.16219l-0.07496,0.00579l-0.06567,0.03658l-0.61193,0.16493l-0.26591,0.00487l-0.25431,0.07787l-0.86717,0.04529l-0.66718,0.05578l-0.02226,-0.00363l-0.02147,0.0069l-0.80614,0.05319l-0.15545,-0.02814l-0.15524,0.02929l-1.59407,-0.09332l-0.36025,0.03857l-0.46611,0.06517l-0.04115,-0.00438l-0.03885,0.01425l-0.33736,0.03613l-0.25554,0.08526l-0.07496,0.00579l-0.06567,0.03658l-0.61193,0.16493l-0.15795,0.00289l-0.14648,0.05917l-0.40582,0.05674l-0.61321,0.13701l-0.10322,-0.0026l-0.09574,0.03867l-0.27871,0.03897l-0.29416,0.09815l-0.47208,0.03644l-0.46527,0.0878l-0.25305,-0.01481l-0.16066,0.02246l-0.61321,0.13701l-0.17301,-0.00435l-0.16382,0.05582l-0.63695,0.05326l-0.43731,0.06115l-0.2476,-0.02636l-0.24469,0.04617l-0.25305,-0.01481l-0.26087,0.03648l-0.2476,-0.02636l-0.24469,0.04617l-0.0929,-0.00544l-0.00261,0.00049l-0.0253,0.02348l-1.36193,-0.07973l-0.02238,-0.02627l-0.00254,-0.00079l-0.0929,-0.00544l-0.2937,-0.09196l-0.30723,-0.01799l-0.39428,-0.12346l-0.08365,-0.05111l-0.09713,-0.01322l-0.20509,-0.08197l-0.79752,-0.24973l-0.0929,-0.00544l-0.2937,-0.09196l-0.30723,-0.01799l-0.39428,-0.12346l-0.08365,-0.05111l-0.09713,-0.01322l-0.20509,-0.08197l-0.30266,-0.09477l-0.0061,-0.00372l-0.24125,-0.07554l-0.55251,-0.15717l-0.06038,-0.03474l-0.06852,-0.02146l-0.01248,-0.02515l-0.67568,-0.38877l-0.12927,-0.05166l-0.27076,-0.19543l-0.30737,-0.1305l-0.28839,-0.21764l-0.04463,-0.05526l-0.06375,-0.03135l-0.38257,-0.32353l-0.10511,-0.14604l-0.14863,-0.10144l-0.56507,-0.63535l-0.14265,-0.27271l-0.20453,-0.22997l-0.27082,-0.51774l-0.02301,-0.09529l-0.05933,-0.07803l-0.17664,-0.41185l-0.04392,-0.27179l-0.11514,-0.25009l-0.04515,-0.23927l-0.11709,-0.35094l-0.01324,-0.17147l-0.07192,-0.15621l-0.22983,-1.21798l0.00356,-0.06086l-0.02284,-0.05652l-0.06252,-0.44711l-0.04777,-0.25318l-0.13994,-0.51922l-0.00179,-0.09801l-0.041,-0.08904l-0.03946,-0.20915l-0.1911,-0.52939l-0.00317,-0.03117l-0.01682,-0.02643l-0.33192,-0.99486l-0.48293,-1.33785l-0.14769,-0.34433l-0.0287,-0.17764l-0.08757,-0.1572l-0.16493,-0.61193l-0.00179,-0.09801l-0.041,-0.08904l-0.02573,-0.13633l-0.06847,-0.15964l-0.03734,-0.23107l-0.10492,-0.20923l-0.14723,-0.65894l-0.10456,-0.38792l-0.54822,-1.2782l-0.0287,-0.17764l-0.08757,-0.1572l-0.08247,-0.30596l-0.00903,-0.49312l-0.09656,-0.16499l0.08789,-0.30897l-0.00588,-0.32117l0.13558,-0.13478l0.03785,-0.13307l-0.03723,-0.10523l-0.19558,-0.35108l-0.16493,-0.61193l-0.00179,-0.09801l-0.041,-0.08904l-0.07661,-0.40599l0.01743,-0.29767c-0.00666,-0.03525 -0.01257,-0.07074 -0.01772,-0.10646l-0.03878,-0.20554l0.01757,-0.30011c0.0249,-0.42539 0.15478,-0.81969 0.36298,-1.1592l0.02204,-0.0704l0.034,-0.01687c0.4772,-0.71017 1.30682,-1.15677 2.22281,-1.10315zM212.08185,232.43604l0.047,-0.00503l-0.12128,-0.02243l-0.04686,0.0719z" fill="#ffffff" stroke-width="0.5"/><path d="M198.02839,213.16585c1.94669,4.55226 4.19013,7.69402 6.73033,9.42529c3.13745,2.30169 8.53922,3.83162 16.20533,4.58979c2.62004,0.36756 5.29969,0.63153 8.03895,0.7919c1.47042,0.08608 3.10405,0.12818 4.90091,0.12628c0.85443,-0.16415 2.1451,-0.56456 3.87202,-1.20119c2.25429,-0.49866 4.13817,-1.07256 5.65163,-1.72169c0.0125,-0.21344 0.07523,-0.37041 0.1882,-0.47089l2.95637,-1.71885c0.32706,-0.30212 0.88909,-0.95936 1.68609,-1.9717l1.26847,-2.4602c0.89748,-0.89937 1.44979,-1.39059 1.65693,-1.47365c0.47064,-0.72208 1.30852,-1.41671 2.51368,-2.08388c0.96735,-0.46692 1.82768,-0.73187 2.581,-0.79486c1.48292,-0.12736 2.56422,0.3048 3.24389,1.29651c0.68592,0.88498 0.5923,1.56964 -0.28088,2.05396c-0.01805,0.30831 -0.14005,0.56295 -0.36599,0.76391c-2.52202,3.44582 -4.71824,5.79817 -6.58868,7.05703c-2.77416,2.26497 -7.22316,4.27719 -13.34701,6.03669l-3.19419,0.59833c-0.9674,0.26463 -3.18835,0.29525 -6.66282,0.09184c-7.26911,-0.42556 -12.88027,-1.12293 -16.83346,-2.0921c-6.35354,-1.43096 -11.08656,-3.61188 -14.19907,-6.54274c-1.40239,-1.24819 -2.48463,-2.57879 -3.24673,-3.99178c-0.86882,-1.41924 -1.75387,-3.47601 -2.65514,-6.17034l-0.13292,-0.16842c0.0125,-0.21344 -0.1947,-0.33267 -0.6216,-0.35766l-0.42507,-0.97085l-0.76391,-0.36599c0.00625,-0.10673 -0.09736,-0.16633 -0.3108,-0.17883l-0.92399,-0.37536l-1.057,-0.84721l-0.28372,-0.6413l0.33607,-2.9967l0.35766,-0.6216l0.49891,-0.59548l0.48026,0.02812c0.9917,-0.67967 2.10979,-0.87599 3.35427,-0.58896c0.53363,0.03124 0.99893,0.21317 1.39592,0.54578c0.82944,0.26274 1.42081,1.03509 1.77412,2.31706l1.08692,3.08001l1.057,0.84721l0.10385,0.96989z" fill="#000000" stroke-width="1"/><path d="M243.49129,225.05939c0.04661,-0.01999 0.09361,-0.03842 0.14092,-0.0553c0.38177,-0.19402 0.8185,-0.29244 1.27686,-0.26561c1.1301,0.06616 2.04079,0.87317 2.2877,1.9214c0.21742,0.63118 0.13622,1.36465 -0.42276,2.092c-1.50647,1.96026 -6.88675,3.44627 -9.20006,4.43845c-9.33744,4.00484 -21.28759,9.82579 -31.64972,9.21915c-4.03958,-0.23649 -8.95533,-1.00907 -12.05327,-3.99569c-2.94759,-2.84167 -4.61923,-15.00459 -4.87684,-18.90931c-0.1255,-1.90226 -1.58208,-8.89933 -1.09799,-10.11054c1.2323,-3.08325 4.73826,-2.47401 5.15436,0.34746c0.98421,6.67357 0.37687,14.20781 3.07958,20.50928c0.66069,1.54043 0.64126,4.55861 2.36303,5.34961c14.65532,6.73289 31.17005,-6.43755 44.87243,-10.44527z" fill="#000000" stroke-width="0.5"/></g></g></svg>