<svg version="1.1" xmlns="http://www.w3.org/2000/svg" xmlns:xlink="http://www.w3.org/1999/xlink" width="105.94333" height="241.4561" viewBox="0,0,105.94333,241.4561"><g transform="translate(-267.02833,-60.33218)"><g stroke-miterlimit="10"><path d="M327.28625,154.1342l34.0192,13.14378l10.82428,133.37075l-103.99052,0.38658l8.50479,-134.65936l31.31312,-11.98404z" fill="#c2b851" stroke="#121212" stroke-width="1.5" stroke-linecap="round"/><g fill="#000000" stroke="none" stroke-width="0" stroke-linecap="butt"><path d="M313.51752,174.39178l-5.49672,-8.48556l5.49672,-8.70885h10.0773l5.86317,8.70885l-5.86317,8.48556z"/><path d="M312.48688,218.15936l-4.46608,-8.37215l4.46608,-40.08482h12.05841l4.24278,39.57741l-4.24278,8.87954z"/></g><path d="M334.84048,157.1248l26.24771,10.14117c0,0 0.89558,11.03485 1.67926,20.69104c1.82883,22.53395 9.14502,112.67971 9.14502,112.67971l-103.99052,0.38657l8.50479,-134.65936l24.77674,-9.48246c0,0 2.00453,19.68355 6.02893,31.99557c4.02441,12.31202 11.72886,22.33147 11.72886,22.33147c0,0 8.56656,-13.27234 11.19328,-22.2188c2.62672,-8.94647 4.68593,-31.86491 4.68593,-31.86491z" fill="#333333" stroke="#121212" stroke-width="1.5" stroke-linecap="round"/><path d="M291.32437,301.03532l5.41216,-117.13431" fill="none" stroke="#121212" stroke-width="1.5" stroke-linecap="round"/><path d="M347.91119,300.60619l-5.41213,-117.13429" fill="none" stroke="#121212" stroke-width="1.5" stroke-linecap="round"/><path d="M318.9627,210.56702l1.33982,89.76819" fill="none" stroke="#121212" stroke-width="1.75" stroke-linecap="round"/><path d="M267.02833,301.78056l4.52873,-71.50334c0,0 7.97565,1.9667 11.44313,1.83562c3.51873,-0.133 10.63428,-2.85122 10.63428,-2.85122c0,0 21.28216,-0.71587 29.28699,-3.31961c8.94235,-2.90867 21.86671,-13.31915 21.86671,-13.31915c0,0 6.4602,1.44065 9.78421,1.34945c3.10225,-0.08512 11.10368,-1.8797 11.10368,-1.8797l7.2956,89.24133z" fill-opacity="0.50196" fill="#000000" stroke="none" stroke-width="1.5" stroke-linecap="butt"/><path d="" fill="#d8d8d8" stroke="#8d8d8d" stroke-width="1.5" stroke-linecap="butt"/><path d="M363.60998,119.8107c-1.43744,25.93522 -22.90236,45.83478 -47.94329,44.4469c-25.04093,-1.38788 -44.1753,-23.5376 -42.73787,-49.47283c1.43744,-25.93522 22.90235,-45.83478 47.94329,-44.4469c25.04093,1.38788 44.1753,23.53763 42.73787,49.47285z" fill="#000000" stroke="#fff477" stroke-width="1.5" stroke-linecap="butt"/><path d="M348.93069,147.88602c0,0 -4.77264,-9.4213 -11.79961,-19.04679c-4.29212,-5.87929 -11.14452,-11.83956 -13.24878,-15.76165c-3.82648,-7.1321 -5.04474,-21.28167 -5.04474,-21.28167c0,0 6.06625,12.08757 10.12151,19.6461c1.06026,1.9762 10.96594,9.77415 12.52005,12.62429c6.53425,11.98322 7.45156,23.81972 7.45156,23.81972z" fill="#ded468" stroke="#ded468" stroke-width="1.5" stroke-linecap="round"/><path d="M316.12714,64.26577c3.65953,0.23002 7.65171,0.76407 11.16963,-0.09729c0.73406,-0.65695 1.43675,-0.53446 2.23404,-0.96641c1.65175,-0.89489 6.27732,-3.73754 7.82283,-0.66766c1.66558,3.30837 -4.96753,2.84007 -6.47401,2.82381c-0.04192,0.75636 1.52626,-0.0193 2.26878,0.1306c0.61149,0.12346 2.51403,0.77943 2.95188,1.09844c3.05183,2.22361 8.01075,2.55599 10.60361,5.49802c2.81691,1.58396 7.18328,3.67777 8.80775,6.68161c0.05473,0.10121 0.42379,0.63261 0.79665,1.21269c-0.01531,-0.13441 -0.02821,-0.27049 -0.03909,-0.40557l-0.15332,0.02942l-0.20857,-1.08676c-0.01263,-0.05884 -0.01771,-0.1203 -0.01422,-0.18329c0.02107,-0.38019 0.34636,-0.67133 0.72657,-0.65026c0.14467,0.00801 0.27641,0.06008 0.38302,0.14245l0.77752,0.58296l-0.02774,0.03701l0.12791,0.05482c1.0049,1.7458 2.79278,3.40213 4.18344,4.9906c0.36689,1.34455 0.86436,2.11553 0.98842,3.60415c0.10604,1.27232 -0.42156,2.61038 0.23529,3.82276c1.65817,3.06063 3.46694,6.0972 4.43846,9.65764c1.24146,4.54961 3.32093,6.51978 1.23446,11.41932l0.26023,0.1212l-0.57541,1.23544c-0.11211,0.25605 -0.37446,0.42827 -0.66994,0.41189c-0.30968,-0.01717 -0.56027,-0.23615 -0.63119,-0.52226l-0.22235,-0.81488l0.03778,-0.01031l-0.05826,-0.09858c0.04014,-0.72425 -0.45526,-1.50225 -0.89305,-2.14368c0.07424,1.14214 0.26419,2.28929 0.00301,3.45717c-0.66031,2.95262 -1.64855,5.85575 -2.46845,8.80029c-0.86036,0.7417 -2.71378,1.54757 -3.63031,0.14928c-0.57239,-0.87325 0.12031,-1.40286 0.26946,-2.13479c0.35799,-1.75691 -0.04514,-3.67094 0.3012,-5.43446c0.02639,-0.13442 0.67918,-1.7996 0.4593,-1.98421c-0.43896,-0.36845 -1.26122,0.48355 -1.71413,0.13241c-0.29607,-0.22954 -0.58791,-1.06673 -0.79365,-1.88473c-0.20207,0.8428 -0.68751,1.41296 -2.01535,0.98916c-1.37816,-0.43987 -3.25205,-3.36268 -4.86909,-3.22956c-0.5667,0.04666 -0.70564,0.93593 -1.20551,1.20695c-1.24767,0.67646 -2.69366,1.77427 -4.02551,2.274c-1.16339,0.43651 -2.44677,0.11567 -3.33634,0.91178c-0.96365,-0.01598 -3.547,0.34248 -4.10662,-0.82931c-0.28179,-0.59009 0.94578,-3.43839 1.2365,-3.94733c0.24123,-0.42226 1.2367,-1.45132 0.81408,-1.21072c-1.9064,1.08539 -5.11259,1.2862 -7.1516,0.29843c-0.34616,-0.16772 -0.76367,-0.30002 -1.11586,-0.45606c0.15274,0.88029 0.61915,1.54642 0.72826,2.65339c-1.83273,0.27666 -4.29062,0.38839 -6.11855,-0.06127c-0.97174,-0.23903 -1.29855,-0.52415 -1.88813,-1.34248c-0.08824,-0.1225 -0.04344,-0.55572 -0.13176,-0.43329c-0.76194,1.05616 -3.63275,4.70975 -5.584,4.62982c-2.27535,-0.09321 -0.7326,-2.36789 -0.55759,-3.84335c-0.40358,0.26868 -0.92494,0.55289 -1.21955,0.68061c-1.33108,0.57705 -2.61243,1.57057 -4.10512,1.74169c-3.58722,0.41124 -7.76348,1.02718 -11.51557,0.92763l0.0127,0.11521l-1.35773,0.14966c-0.04125,0.00527 -0.08358,0.0069 -0.12659,0.00451c-0.3802,-0.02108 -0.67135,-0.34637 -0.65028,-0.72657c0.01054,-0.1901 0.09712,-0.35792 0.22862,-0.47562l0.54611,-0.48874c1.01413,-1.21002 1.9203,-2.28889 2.74447,-3.47943c-0.48292,0.35571 -0.92685,0.65734 -1.13755,0.77927c-0.54067,0.31293 -1.40288,-0.08134 -1.83777,0.36709c-0.46611,0.48062 -0.77287,1.21203 -1.40352,1.43685c-1.44758,0.51608 -2.50995,0.35471 -3.49093,1.63875c-1.64684,0.36375 -1.72935,1.11179 -3.17816,1.77836c-3.2328,1.48737 -7.80129,1.44988 -11.24116,1.63355c-1.44379,0.07708 -3.10749,-0.50407 -4.52812,-0.26608c-1.12133,0.18785 -1.70304,0.73002 -2.92161,0.67422c-1.38012,-0.0765 -2.20274,0.16801 -2.76038,-1.46111c-0.43318,-1.26548 0.37163,-3.11793 0.22526,-4.43793c-0.41502,-3.74259 -2.28932,-2.35547 -0.74335,-6.2587c0.3362,-3.34171 3.84892,-6.80276 5.50142,-9.69334c1.43963,-2.51821 1.79702,-5.41122 2.87654,-8.21149c0.62345,-1.54505 1.87367,-2.25451 2.71676,-3.53737c2.62753,-3.99805 6.57115,-6.52872 10.30365,-9.73797c1.19731,-0.3267 1.50297,-1.297 2.57442,-1.77873c2.20672,-0.99211 4.24225,-3.04628 6.48218,-4.26072c1.34594,-0.72973 2.60468,-0.60045 3.94073,-1.1773c0.47666,-0.2058 2.02445,0.03321 1.18834,-0.18834c-0.94353,-0.741 -3.52158,-5.30701 -0.04901,-4.09794c0.37225,0.12959 1.23545,1.4641 1.75195,1.70332c2.45247,1.13579 5.36092,1.26195 7.99287,2.02759z" fill="#8f8100" stroke="none" stroke-width="1.5" stroke-linecap="butt"/><path d="M315.19122,123.67752c-0.20999,3.78868 -1.40039,7.2347 -3.24424,9.97693c-2.75734,4.10079 -19.47246,3.18006 -21.81586,-0.46174c-2.02725,-3.15047 -2.89878,-6.66608 -2.65573,-11.05131c0.10441,-1.88392 0.45124,-3.68312 1.00029,-5.35319c1.68976,-5.13985 17.81614,-4.96607 24.61188,-0.99812c2.07736,1.21294 2.14186,7.19786 2.10364,7.88743z" fill="#fff477" stroke="none" stroke-width="1.5" stroke-linecap="butt"/><path d="M326.21469,116.63427c7.1926,-3.19264 23.23942,-1.58327 24.35084,3.71184c0.36112,1.7205 0.50699,3.54702 0.40258,5.43094c-0.24304,4.38523 -1.49774,7.78299 -3.86072,10.69014c-2.73149,3.36052 -19.446,2.42844 -21.73327,-1.95193c-1.52953,-2.9292 -2.33181,-6.48566 -2.12182,-10.27434c0.03822,-0.68959 0.76373,-6.6307 2.96241,-7.60665z" fill="#fff477" stroke="none" stroke-width="1.5" stroke-linecap="butt"/><g fill-opacity="0.75686" fill="#ffffff" stroke="none" stroke-width="0" stroke-linecap="butt"><path d="M295.22693,123.90951c-0.29229,5.27367 -1.82856,9.47683 -3.43134,9.388c-1.60278,-0.08883 -2.66515,-4.436 -2.37286,-9.7097c0.29229,-5.27367 1.82856,-9.47683 3.43133,-9.388c1.60278,0.08883 2.66516,4.436 2.37287,9.7097z"/><path d="M300.09148,120.27297c-0.1662,2.99875 -1.03978,5.38878 -1.95115,5.33827c-0.91138,-0.05051 -1.51548,-2.52244 -1.34928,-5.52118c0.1662,-2.99875 1.03978,-5.38879 1.95115,-5.33828c0.91138,0.05051 1.51548,2.52244 1.34928,5.52119z"/></g><g fill-opacity="0.75686" fill="#ffffff" stroke="none" stroke-width="0" stroke-linecap="butt"><path d="M331.37758,126.32654c-0.29229,5.27367 -1.82856,9.47683 -3.43133,9.388c-1.60278,-0.08883 -2.66516,-4.436 -2.37287,-9.7097c0.29229,-5.27367 1.82856,-9.47683 3.43134,-9.388c1.60278,0.08883 2.66515,4.43601 2.37286,9.7097z"/><path d="M336.24214,122.69c-0.1662,2.99875 -1.03978,5.38878 -1.95115,5.33827c-0.91138,-0.05051 -1.51548,-2.52244 -1.34928,-5.52118c0.1662,-2.99875 1.03978,-5.38879 1.95115,-5.33828c0.91138,0.05051 1.51548,2.52244 1.34928,5.52119z"/></g><path d="M335.81412,153.42359c-0.36786,5.071 -6.77049,5.49908 -19.86786,4.93693c-13.09737,-0.56215 -19.26225,-1.60405 -18.89439,-6.67503c0.36786,-5.071 6.81721,-7.95051 19.9146,-7.38836c13.09737,0.56215 19.21553,4.05548 18.84765,9.12648z" fill="#000000" stroke="#fff477" stroke-width="1.5" stroke-linecap="butt"/><path d="M329.5361,146.51895l-3.5161,5.35625l-2.87248,-6.59562" fill="none" stroke="#fff477" stroke-width="1.5" stroke-linecap="round"/></g></g></svg>