<svg version="1.1" xmlns="http://www.w3.org/2000/svg" xmlns:xlink="http://www.w3.org/1999/xlink" width="93.9613" height="253.22501" viewBox="0,0,93.9613,253.22501"><g transform="translate(-186.97428,-53.38752)"><g data-paper-data="{&quot;isPaintingLayer&quot;:true}" fill-rule="nonzero" stroke-linejoin="miter" stroke-miterlimit="10" stroke-dasharray="" stroke-dashoffset="0" style="mix-blend-mode: normal"><path d="M189.75355,306.61253v-253.22501h91.18203v253.22501z" fill-opacity="0.01" fill="#000000" stroke="none" stroke-width="0" stroke-linecap="butt"/><path d="M192.37548,304.89162c0,0 0.18282,-94.88387 0.02483,-118.51201c-0.05451,-8.15261 8.37851,-38.56088 41.99367,-38.914c33.41367,-0.351 42.00823,31.47993 42.00035,38.88963c-0.07659,46.24274 0.09369,118.48648 0.09369,118.48648l-13.3733,0.09614l0.05547,-115.34311c0,0 -0.61301,-1.61748 -1.67443,-1.62419c-1.13177,-0.00716 -1.66339,1.58567 -1.66339,1.58567l0.07215,115.36995l-50.6827,0.07222l-0.18039,-115.73309c0,0 -0.59593,-1.45279 -1.68917,-1.45824c-0.87895,-0.00438 -1.51211,1.43279 -1.51211,1.43279l0.0122,115.5668z" data-paper-data="{&quot;index&quot;:null}" fill="#362975" stroke="#000000" stroke-width="0" stroke-linecap="butt"/><path d="M192.37548,304.88248c0,0 0.18282,-75.65131 0.02483,-101.30286c-0.00001,-0.00168 2.31474,5.90839 5.5453,9.78665c3.48007,4.1778 7.89454,6.34617 7.89454,6.34617l0.0122,85.07781z" fill-opacity="0.10196" fill="#000000" stroke="#000000" stroke-width="0" stroke-linecap="butt"/><path d="M263.01115,304.79026l0.0122,-85.07781c0,0 4.41447,-2.16837 7.89454,-6.34617c3.23056,-3.87826 5.54531,-9.78833 5.5453,-9.78665c-0.15799,25.65156 0.02483,101.30287 0.02483,101.30287z" data-paper-data="{&quot;index&quot;:null}" fill-opacity="0.10196" fill="#000000" stroke="#000000" stroke-width="0" stroke-linecap="butt"/><path d="M192.37548,304.88248c0,0 0.18282,-46.77339 0.02483,-72.42495c-0.00001,-0.00184 1.34081,4.64315 4.87532,7.80145c3.16498,2.8281 8.56453,4.20596 8.56453,4.20596l0.0122,60.32531z" fill-opacity="0.10196" fill="#000000" stroke="#000000" stroke-width="0" stroke-linecap="butt"/><path d="M263.01115,304.79026l0.0122,-60.32531c0,0 5.39954,-1.37786 8.56453,-4.20596c3.5345,-3.1583 4.87532,-7.80328 4.87532,-7.80145c-0.15799,25.65156 0.02483,72.42495 0.02483,72.42495z" data-paper-data="{&quot;index&quot;:null}" fill-opacity="0.10196" fill="#000000" stroke="#000000" stroke-width="0" stroke-linecap="butt"/><path d="M192.37548,304.88248c0,0 0.18282,-22.88941 0.02483,-48.54096c-0.00002,-0.00349 1.94598,4.47012 5.1938,6.84789c3.46507,2.53682 8.24604,2.98824 8.24604,2.98824l0.0122,38.6126z" fill-opacity="0.10196" fill="#000000" stroke="#000000" stroke-width="0" stroke-linecap="butt"/><path d="M263.01115,304.79026l0.0122,-38.61259c0,0 4.78096,-0.45142 8.24604,-2.98824c3.24782,-2.37777 5.19383,-6.85138 5.1938,-6.84789c-0.15799,25.65155 0.02483,48.54096 0.02483,48.54096z" data-paper-data="{&quot;index&quot;:null}" fill-opacity="0.10196" fill="#000000" stroke="#000000" stroke-width="0" stroke-linecap="butt"/><path d="M234.22732,238.82953c11.07568,-0.27523 19.4178,-7.49444 25.62945,-16.80489l0.04775,82.8954l-50.6827,0.0784l-0.12134,-84.51765c6.33225,10.3945 14.62118,18.6098 25.12684,18.34874z" fill-opacity="0.10196" fill="#000000" stroke="#000000" stroke-width="0" stroke-linecap="butt"/><path d="M234.97732,259.18521c10.92348,-0.00495 18.96876,-5.1859 24.89352,-12.75364l0.03369,58.48848l-50.6827,0.0784l-0.08576,-59.73266c6.1148,8.20471 14.45842,13.92457 25.84126,13.91942z" fill-opacity="0.10196" fill="#000000" stroke="#000000" stroke-width="0" stroke-linecap="butt"/><path d="M234.72732,284.15477c11.05972,-0.00501 19.18583,-6.54065 25.15598,-16.07637l0.02123,36.84158l-50.6827,0.0784l-0.05397,-37.59244c6.06699,9.9076 14.32394,16.75391 25.55947,16.74883z" fill-opacity="0.10196" fill="#000000" stroke="#000000" stroke-width="0" stroke-linecap="butt"/><path d="M276.39498,203.62175c0.00134,-0.27608 0.00381,-0.26572 0,0z" fill-opacity="0.10196" fill="#000000" stroke="#000000" stroke-width="0" stroke-linecap="butt"/><path d="M276.39546,197.30628c0.00225,-0.31639 0.00643,-0.30223 0,0z" fill-opacity="0.10196" fill="#000000" stroke="#000000" stroke-width="0" stroke-linecap="butt"/><path d="M234.23271,239.85124l-13.26606,-65.14738l13.82133,-16.20365l13.23026,16.24152z" fill="#e6e6e6" stroke="#000000" stroke-width="0" stroke-linecap="butt"/><path d="M229.1216,240.18458l1.33333,-55.11111l2.95276,-11.06444l2.04515,-0.0335l2.89098,11.09794l0.88889,55.22222l-5.12228,12.71905z" fill="#ff0000" stroke="#000000" stroke-width="0" stroke-linecap="butt"/><path d="M229.1216,240.18458c0,0 1.02471,-42.35512 1.21655,-50.28447c0.00155,-0.06393 -0.23296,4.46412 3.82958,4.38118c4.14372,-0.0846 4.25225,-4.47584 4.25371,-4.38534c0.12778,7.93797 0.81127,50.39973 0.81127,50.39973l-5.12228,12.71905z" fill-opacity="0.10196" fill="#000000" stroke="#000000" stroke-width="0" stroke-linecap="butt"/><path d="M229.1216,240.18458c0,0 0.63218,-25.08256 0.87946,-35.30376c0.00078,-0.03218 -0.28488,5.12699 4.0017,5.04476c4.97922,-0.09553 4.59408,-5.11578 4.59517,-5.04784c0.15519,9.64124 0.63478,35.41796 0.63478,35.41796l-5.12228,12.71905z" fill-opacity="0.10196" fill="#000000" stroke="#000000" stroke-width="0" stroke-linecap="butt"/><path d="M229.1216,240.18458c0,0 0.24178,-9.99375 0.4382,-18.11244c0.00227,-0.09378 0.22579,5.72882 4.43555,5.67893c4.31761,-0.05116 4.94749,-5.46323 4.94927,-5.35281c0.12915,8.02337 0.28809,17.89742 0.28809,17.89742l-5.12228,12.71905z" fill-opacity="0.10196" fill="#000000" stroke="#000000" stroke-width="0" stroke-linecap="butt"/><path d="M234.78826,159.07342l7.88889,9.22222l-8.33333,8.33333l-8.06788,-8.26709z" fill="#ff0000" stroke="#000000" stroke-width="0" stroke-linecap="butt"/><path d="M234.67715,158.29569l-13.70609,16.42987c0,0 -2.00437,-9.86605 -2.18279,-10.7632c-1.05317,-5.29559 -5.1321,-16.44524 16.11111,-16c19.3212,0.40496 17.19618,5.26687 15.12443,16.8034c-0.27325,1.52158 -2.00556,9.97598 -2.00556,9.97598z" fill="#e6e6e6" stroke="#000000" stroke-width="0" stroke-linecap="butt"/><path d="M221.1216,176.85125l-0.33333,-2.55556l14.13637,-16.83473l13.14979,17.30128l-0.61339,2.74884l-12.56166,-18.2154z" fill="#000000" stroke="none" stroke-width="0" stroke-linecap="butt"/><g><path d="M190.39676,110.81777c0,0 6.16329,-5.92187 6.29161,-6.78761c0.33654,-2.27063 -0.16776,-40.17317 35.96775,-41.57382c44.63633,-0.91362 39.01489,35.34872 41.53088,42.1903c3.44981,9.38084 6.15664,17.40016 6.15664,17.40016c0,0 -2.76715,-2.05351 -4.0797,-3.13397c-1.2242,-1.00773 -3.80143,-3.14585 -3.80143,-3.14585c0,0 3.09111,10.3481 1.31092,20.69498c-1.5623,9.48098 -7.29782,17.22543 -7.29782,17.22543l-1.15522,-2.34735c0,0 -1.02266,2.19794 -2.16005,3.33274c-1.1374,1.13479 -3.43873,2.91273 -3.43873,2.91273l-0.09205,-3.70421c0,0 -7.0601,11.01795 -24.35066,10.87154c-16.30625,-0.25547 -26.07151,-10.6752 -26.07151,-10.6752l-0.1162,2.65484c0,0 -3.89477,-3.29276 -6.18145,-9.70754c-2.72545,-7.64567 -3.23946,-12.24324 -3.23946,-12.24324c0,0 -2.33908,1.89916 -5.71704,2.7744c-4.23278,1.09673 -6.94665,0.34526 -6.94665,0.34526c0,0 3.60795,-2.71717 5.58396,-4.76989c1.76007,-1.8284 2.64658,-3.37722 2.64658,-3.37722c0,0 -2.10758,1.0847 -4.23277,1.61795c-2.21739,0.5564 -4.03008,0.53093 -4.03008,0.53093c0,0 4.97492,-5.03728 7.03074,-10.87429c1.94102,-5.51108 2.09972,-10.95731 2.09972,-10.95731c0,0 -1.36165,0.66163 -3.33013,0.79513c-1.24776,0.08463 -2.37785,-0.0489 -2.37785,-0.0489z" fill="#000000" stroke="none" stroke-width="1.5" stroke-linecap="butt"/><path d="M207.18265,122.13938c-0.57709,-7.29323 0.335,-17.15448 0.335,-17.15448c0,0 3.41059,-0.04124 13.91429,-3.14424c8.0696,-2.38394 20.54731,-9.48722 20.54731,-9.48722c0,0 -2.16005,3.00503 -3.40781,4.46015c-1.32651,1.54696 -3.99292,4.56297 -3.99292,4.56297c0,0 7.838,-1.66761 14.67476,-4.72931c8.56837,-3.53575 10.59252,-6.05309 12.95042,-4.5927c2.7829,1.72362 1.03006,23.1827 0.71846,28.74062c-0.42163,5.66922 -2.53327,9.49969 -3.15031,12.52053c-0.61704,3.02084 -0.4096,6.13662 -2.20622,16.0397c-1.12121,6.18021 -4.16183,8.92466 -10.01942,14.66081c-5.85759,5.73616 -9.05378,9.25275 -13.01359,9.32173c-3.81077,0.06639 -8.93565,-5.1002 -13.93542,-10.38244c-5.32393,-5.62474 -8.87489,-8.47713 -9.71551,-15.13975c-0.75707,-6.00039 -0.77653,-9.90853 -1.12266,-15.24835c-0.25298,-3.90273 -2.26119,-6.44504 -2.57636,-10.42801z" fill="#4dffdd" stroke="#000000" stroke-width="1.5" stroke-linecap="butt"/><g stroke="none" stroke-width="0" stroke-linecap="butt"><path d="M215.63049,164.89701c-2.11338,-5.06601 -3.40824,-10.63689 -3.40824,-10.63689c0,0 3.7724,-1.7643 7.54028,-3.72804c2.42328,-1.26296 5.05882,-2.97042 7.17736,-2.97042c2.12948,0 8.0835,3.22088 8.0835,3.22088c0,0 4.80523,-3.73924 7.32429,-3.30357c1.79731,0.31084 4.2679,2.302 6.99214,4.31074c3.02321,2.22917 6.29576,4.18227 6.29576,4.18227c0,0 -1.10552,5.96064 -3.23865,10.58783c-2.21318,4.80085 -0.32578,9.97018 -18.74753,10.1c-15.40283,0.10855 -15.94771,-6.79787 -18.01892,-11.7628z" fill="#000000"/><path d="M215.84614,154.2601c0,0 2.35733,-1.08868 5.12995,-2.39854c2.05263,-0.96972 4.39629,-2.26713 5.8374,-2.37909c1.39912,-0.10868 4.62199,1.16606 6.60349,2.02244c0.98138,0.42414 2.33296,0.35822 3.29739,-0.12297c1.8001,-0.89812 4.60956,-2.12282 5.92542,-1.76451c1.23055,0.33508 3.3525,1.65564 5.4416,3.05835c2.29127,1.53848 4.52189,3.07288 4.52189,3.07288c0,0 -3.42004,0.34368 -6.70364,-0.25968c-3.64826,-0.67037 -4.8954,-2.30534 -10.6912,-2.49875c-4.77419,-0.15933 -7.18458,1.47169 -10.56224,1.70253c-5.31634,0.36335 -8.80006,-0.43263 -8.80006,-0.43263z" fill="#4dffdd"/><path d="M234.18778,174.6864c-12.76621,-0.45846 -13.88109,-3.76068 -15.5322,-8.42632c-1.5609,-4.41078 -3.99272,-10.21113 -3.99272,-10.21113c0,0 2.84591,-0.348 5.65238,1.78409c3.46891,2.63536 4.7607,9.4848 14.20297,9.86858c10.01454,0.4005 8.85348,-6.11255 12.84936,-8.74195c2.68057,-1.7639 6.49306,-1.55527 6.49306,-1.55527c0,0 -2.1182,5.3585 -3.96733,9.65029c-1.96359,4.55743 -3.98662,8.05256 -15.7055,7.63173z" fill="#4dffdd"/><path d="M234.8456,165.66466c-4.3875,0.01806 -7.53436,-2.756 -7.53435,-2.75707c1.40996,0.21821 3.06569,0.29248 3.84104,0.30097c2.16662,0.02373 4.33395,0.04547 6.50023,0c0.95053,-0.01995 4.72334,-0.20594 4.72334,-0.20594c0,0 -1.68907,2.63799 -7.53025,2.66204z" fill="#ffffff"/><path d="M242.59532,157.06694c0,0 -3.70289,-0.29293 -4.63753,-0.34755c-2.13008,-0.12447 -4.26557,-0.20109 -6.40046,-0.27625c-0.76399,-0.0269 -2.39911,-0.04431 -3.80153,0.05132c0.00006,-0.00077 3.27782,-1.84465 7.59682,-1.6453c5.74996,0.26539 7.2427,2.21779 7.2427,2.21779z" fill="#ffffff"/></g><path d="M255.41787,103.9072c0,0 1.45541,0.55354 4.02858,1.76497c2.3503,1.1065 4.12018,2.42124 4.12018,2.42124l0.00885,1.18647c0,0 -7.36177,-4.92359 -15.23387,-5.50794c-6.29434,-0.46721 -9.58751,1.90633 -9.58751,1.90633l0.70124,-4.1178c0,0 2.66258,-1.88558 7.36374,-1.29115c4.86802,0.61554 8.59131,2.5485 8.59131,2.5485z" data-paper-data="{&quot;index&quot;:null}" fill="#000000" stroke="none" stroke-width="1.5" stroke-linecap="butt"/><path d="M234.81479,151.56647c-1.03376,0 -3.5381,-3.26042 -3.7867,-5.3637c-0.22243,-1.88186 1.31512,-3.82799 3.7867,-3.82799c2.47159,0 4.2021,0.49077 4.02999,4.18853c-0.14607,3.13818 -1.55841,5.00317 -4.02999,5.00317z" fill="#4dffdd" stroke="#000000" stroke-width="1.15" stroke-linecap="butt"/><path d="M238.4169,121.47277c0,0 0.1026,3.96976 0.00576,7.12662c-0.19174,6.25113 -1.08147,27.7607 -1.08147,27.7607l-2.98167,0.00864c0,0 -0.80294,-4.17274 -1.12322,-9.49979c-0.43353,-7.21063 -0.4495,-16.29321 -0.76344,-19.63229c-0.29758,-3.16513 -0.89593,-5.71453 -0.89593,-5.71453" fill="#4dffdd" stroke="#000000" stroke-width="1.3" stroke-linecap="round"/><path d="M208.88229,132.26261c0,0 -4.93211,-3.51705 -6.16417,-8.97502c-1.29636,-5.74284 -1.46118,-9.7328 0.48013,-9.99193c1.94131,-0.25915 2.70321,2.37692 3.73262,8.35569c1.0294,5.97877 1.95143,10.61127 1.95143,10.61127z" data-paper-data="{&quot;index&quot;:null}" fill="#4dffdd" stroke="#000000" stroke-width="1" stroke-linecap="butt"/><path d="M208.6797,128.31504c0,0 -3.56385,-2.92338 -4.31816,-8.45061c-0.42079,-3.08327 2.15675,-2.28016 2.15675,-2.28016" fill="none" stroke="#000000" stroke-width="0.25" stroke-linecap="round"/><path d="M211.6931,121.65915c0.07093,-4.89188 4.83834,-8.93609 10.21137,-8.8582c5.37302,0.0779 9.02724,4.2484 8.95632,9.14029c-0.07093,4.89188 -4.12352,8.79439 -9.49655,8.7165c-5.37302,-0.0779 -9.74207,-4.1067 -9.67114,-8.99859z" fill="#ffffff" stroke="#000000" stroke-width="1.4" stroke-linecap="butt"/><path d="M216.13074,121.77709c0.03999,-2.75843 2.30855,-4.96213 5.06696,-4.92214c2.75843,0.03999 4.96213,2.30855 4.92214,5.06696c-0.03999,2.75843 -2.30854,4.96213 -5.06696,4.92214c-2.75843,-0.03999 -4.96213,-2.30855 -4.92214,-5.06696z" fill="#000000" stroke="none" stroke-width="1.5" stroke-linecap="butt"/><path d="M238.74938,121.65988c0.20353,-4.88817 4.45264,-8.85847 9.77048,-8.85847c5.31783,0 9.27453,3.96607 9.27453,8.85847c0,4.8924 -3.88585,9.07104 -9.69964,9.14188c-5.52997,0.06739 -9.55792,-4.03692 -9.34537,-9.14188z" fill="#ffffff" stroke="#000000" stroke-width="1.4" stroke-linecap="butt"/><path d="M243.35213,121.74542c0,-2.81845 2.2848,-5.10325 5.10325,-5.10325c2.81845,0 5.10325,2.2848 5.10325,5.10325c0,2.81845 -2.28479,5.10325 -5.10325,5.10325c-2.81845,0 -5.10325,-2.2848 -5.10325,-5.10325z" fill="#000000" stroke="none" stroke-width="1.5" stroke-linecap="butt"/><path d="M211.62467,121.12696c0,0 0.06357,-9.01512 10.60111,-8.8249c9.47101,0.16586 9.55554,9.40723 9.55554,9.40723z" fill="#4dffdd" stroke="#000000" stroke-width="1.15" stroke-linecap="butt"/><path d="M238.37173,121.25787c0,0 -0.24686,-9.4582 11.19813,-9.1032c9.71427,0.33347 9.54677,9.65229 9.54677,9.65229z" fill="#4dffdd" stroke="#000000" stroke-width="1.15" stroke-linecap="butt"/><path d="M215.12868,105.8701c0,0 3.18574,-3.28093 7.78526,-4.17561c5.09684,-0.99142 7.72835,0.36741 7.72835,0.36741l0.67882,4.09206c0,0 -3.88224,-1.47705 -8.03166,-0.92903c-5.54934,0.73291 -6.48271,3.20132 -10.67447,4.05334c-3.59173,0.73005 -6.69321,0.78508 -6.69321,0.78508l-0.14038,-1.22379c0,0 3.58645,-0.26089 5.20464,-0.55509c1.33559,-0.24282 3.87116,-1.30397 3.87116,-1.30397z" fill="#000000" stroke="none" stroke-width="1.5" stroke-linecap="butt"/><path d="M263.11545,121.65133c1.0294,-5.97877 1.7913,-8.61483 3.73262,-8.35569c1.94131,0.25914 1.77649,4.24909 0.48013,9.99193c-1.23206,5.45797 -6.16417,8.97502 -6.16417,8.97502c0,0 0.92203,-4.6325 1.95143,-10.61127z" data-paper-data="{&quot;index&quot;:null}" fill="#4dffdd" stroke="#000000" stroke-width="1" stroke-linecap="butt"/><path d="M263.52804,117.58429c0,0 2.57754,-0.80312 2.15675,2.28016c-0.75431,5.52723 -4.31816,8.45061 -4.31816,8.45061" data-paper-data="{&quot;index&quot;:null}" fill="none" stroke="#000000" stroke-width="0.25" stroke-linecap="round"/><g stroke-width="0"><path d="M207.13036,124.5003l-0.4425,-8.40404c0,0 17.29263,-0.96045 28.67574,-0.96045c12.08736,0 28.52507,0.96045 28.52507,0.96045l-0.4425,8.40404c0,0 -18.30178,-1.35777 -28.1775,-1.35777c-9.84407,0 -28.13831,1.35777 -28.13831,1.35777z" fill="#000000" stroke="none" stroke-linecap="butt"/><path d="M219.78587,116.15328c6.61373,0.28317 14.60278,2.52452 14.38696,7.7977c-0.21582,5.27318 -5.16226,11.73222 -15.16849,11.29819c-6.61358,-0.28687 -11.94778,-5.39094 -11.73196,-10.66412c0.21582,-5.27318 5.89977,-8.71494 12.5135,-8.43177z" fill="#000000" stroke="#9966ff" stroke-linecap="butt"/><path d="M263.31698,124.72136c0.21582,5.27318 -5.11838,10.37726 -11.73196,10.66413c-10.00624,0.43403 -14.95268,-6.025 -15.16849,-11.29819c-0.21582,-5.27318 7.77323,-7.51454 14.38696,-7.7977c6.61373,-0.28317 12.29768,3.15858 12.5135,8.43177z" data-paper-data="{&quot;index&quot;:null}" fill="#000000" stroke="#9966ff" stroke-linecap="butt"/><path d="M229.61636,129.9757c-4.44591,4.48287 -11.01477,3.14276 -11.01477,3.14276c0,0 5.76112,-1.98799 8.77696,-5.63146c3.64593,-4.40468 5.01271,-8.26981 5.01271,-8.26981c0,0 1.25632,6.69378 -2.77491,10.75851z" fill="#e6e6e6" stroke="#ffffff" stroke-linecap="round"/><path d="M258.85598,130.38157c-4.44591,4.48287 -10.91556,2.63542 -10.91556,2.63542c0,0 4.96748,-1.68358 8.57855,-5.02264c3.74513,-4.70909 5.11192,-8.37129 5.11192,-8.37129c0,0 1.25632,6.69378 -2.77491,10.75851z" fill="#e6e6e6" stroke="#ffffff" stroke-linecap="round"/></g></g></g></g></svg>